<svg width="101" height="101" viewBox="0 0 101 101" fill="none" xmlns="http://www.w3.org/2000/svg">
<path d="M72.0382 18.6446C72.0382 22.2023 71.1595 25.556 69.6059 28.5028C78.4057 34.5106 84.177 44.5856 84.177 56.0009C84.177 57.7742 84.0377 59.5152 83.7694 61.2136C87.8692 61.463 91.6567 62.8608 94.8109 65.0874C95.4185 62.1531 95.7377 59.1141 95.7377 56.0009C95.7377 38.8937 86.0995 24.0246 71.9277 16.4688C72.0008 17.1841 72.0382 17.91 72.0382 18.6446Z" fill="#0A00D8"/>
<path d="M6.42054 64.74C5.85877 61.9134 5.56425 58.9914 5.56425 56.0009C5.56425 38.8937 15.2024 24.0246 29.3743 16.4688C29.3011 17.1841 29.2637 17.91 29.2637 18.6446C29.2637 22.2023 30.1424 25.556 31.696 28.5028C22.8962 34.5106 17.1249 44.5856 17.1249 56.0009C17.1249 57.7647 17.2627 59.4966 17.5282 61.1863C13.4273 61.3274 9.61979 62.6163 6.42054 64.74Z" fill="#0A00D8"/>
<path d="M67.4582 97.6102C62.2642 99.6861 56.5918 100.828 50.651 100.828C44.5536 100.828 38.7389 99.6251 33.434 97.4441C36.1852 94.698 38.1861 91.2085 39.1054 87.305C42.7049 88.6177 46.5938 89.3342 50.651 89.3342C54.5088 89.3342 58.2145 88.6864 61.6639 87.4941C62.6221 91.4 64.6654 94.8833 67.4582 97.6102Z" fill="#0A00D8"/>
<path fill-rule="evenodd" clip-rule="evenodd" d="M82.4429 100.254C92.3393 100.254 100.362 92.2773 100.362 82.4377C100.362 72.5981 92.3393 64.6216 82.4429 64.6216C72.5464 64.6216 64.5238 72.5981 64.5238 82.4377C64.5238 92.2773 72.5464 100.254 82.4429 100.254ZM91.6914 82.4377C91.6914 87.5162 87.5507 91.6331 82.4429 91.6331C77.335 91.6331 73.1943 87.5162 73.1943 82.4377C73.1943 77.3592 77.335 73.2423 82.4429 73.2423C87.5507 73.2423 91.6914 77.3592 91.6914 82.4377Z" fill="#0A00D8"/>
<path fill-rule="evenodd" clip-rule="evenodd" d="M50.651 36.4607C60.5474 36.4607 68.57 28.4841 68.57 18.6446C68.57 8.80503 60.5474 0.828491 50.651 0.828491C40.7545 0.828491 32.7319 8.80503 32.7319 18.6446C32.7319 28.4841 40.7545 36.4607 50.651 36.4607ZM59.8995 18.5117C59.8995 23.5902 55.7588 27.7071 50.651 27.7071C45.5431 27.7071 41.4024 23.5902 41.4024 18.5117C41.4024 13.4332 45.5431 9.3163 50.651 9.3163C55.7588 9.3163 59.8995 13.4332 59.8995 18.5117Z" fill="#0A00D8"/>
<path fill-rule="evenodd" clip-rule="evenodd" d="M18.281 100.254C28.1774 100.254 36.2001 92.2773 36.2001 82.4377C36.2001 72.5981 28.1774 64.6216 18.281 64.6216C8.38458 64.6216 0.361938 72.5981 0.361938 82.4377C0.361938 92.2773 8.38458 100.254 18.281 100.254ZM27.343 82.4377C27.343 87.5162 23.2023 91.6331 18.0945 91.6331C12.9867 91.6331 8.84594 87.5162 8.84594 82.4377C8.84594 77.3592 12.9867 73.2423 18.0945 73.2423C23.2023 73.2423 27.343 77.3592 27.343 82.4377Z" fill="#0A00D8"/>
</svg>
