<svg width="100" height="100" viewBox="0 0 100 100" fill="none" xmlns="http://www.w3.org/2000/svg">
<path d="M99.8962 68.669L93.1899 72.2442V83.7098C93.1899 85.3456 94.5164 86.6717 96.1526 86.6717C97.7889 86.6717 99.1153 85.3456 99.1153 83.7098L99.8962 68.669Z" fill="#0A00D8"/>
<path fill-rule="evenodd" clip-rule="evenodd" d="M53.4214 1.48806L50.4546 0.304812C49.965 0.109544 49.4181 0.115448 48.9328 0.321242L46.1016 1.52193C44.7755 2.13942 42.9032 3.06186 40.6663 4.30261C36.201 6.77938 30.2371 10.5499 24.2569 15.7299C12.4155 25.9867 0.204553 44.2587 0.00254133 66.9492C-0.000596963 67.3018 0.185606 67.6307 0.488522 67.811L21.0976 80.0781C21.0976 93.7016 38.7585 100 49.7369 100C60.7154 100 78.3764 93.7148 78.3764 80.0913L93.1899 72.2442L99.8962 68.669C101.267 45.081 88.8391 26.2983 76.4082 15.8171C70.1836 10.5688 63.8982 6.76725 59.1786 4.27814C56.8137 3.03086 54.8282 2.10596 53.4214 1.48806ZM81.338 69.304C81.3031 69.5488 81.5625 69.7286 81.7792 69.6095L91.7084 64.1548C92.0228 63.9821 92.2214 63.6507 92.2235 63.292C92.3323 44.5458 82.1689 31.0066 71.3147 21.8548C65.6359 17.0667 59.8591 13.567 55.4922 11.2639C53.7374 10.3384 51.9156 9.47857 50.6167 8.89069C50.0841 8.64966 49.4733 8.6613 48.9487 8.91918C47.8557 9.45644 45.905 10.4294 44.4993 11.2091C40.3796 13.4941 34.8968 16.9642 29.4304 21.6992C19 30.7339 8.91027 44.1032 7.97166 62.4885C7.95305 62.8531 8.13899 63.1999 8.45176 63.3882L17.8968 69.0735C18.1094 69.2015 18.3765 69.0306 18.35 68.784C18.0551 66.0455 17.8256 63.7982 17.6496 62.0048C17.4605 60.0781 17.3331 58.6751 17.2527 57.7495C17.2125 57.2868 17.184 56.9433 17.1654 56.7135C17.1561 56.5985 17.1493 56.512 17.1447 56.4531L17.1395 56.3854L17.1375 56.3587L17.0911 55.7344L17.24 55.1263C20.027 43.75 27.9971 35.5287 34.8683 30.2815C38.3422 27.6288 41.643 25.6531 44.0785 24.3378C45.2991 23.6786 47.0453 22.8353 47.7618 22.4981L48.9004 22.0238C49.3552 21.8343 49.864 21.8193 50.3292 21.9818L51.4028 22.3569C51.6213 22.4381 51.9301 22.5559 52.3175 22.7111C53.0917 23.0213 54.183 23.4824 55.4965 24.102C58.1162 25.3376 61.659 27.2218 65.3479 29.8221C72.6435 34.9647 81.0097 43.271 83.2673 55.3398L83.404 56.0703L83.2659 56.7994L83.2657 56.8005L83.2646 56.8059L83.2574 56.845C83.2505 56.8825 83.2394 56.9433 83.2241 57.0292C83.1934 57.201 83.1457 57.4729 83.0801 57.8594C82.949 58.6327 82.747 59.8633 82.4679 61.6674C82.177 63.5479 81.8027 66.0497 81.338 69.304ZM74.6602 60.4603C74.404 62.1164 74.0858 64.2359 73.7011 66.9033C73.6752 67.0826 73.4432 67.1394 73.3372 66.9926C67.8935 59.4527 59.3064 52.9919 54.1289 49.489C53.8525 49.302 53.6871 48.9914 53.6871 48.6577V34.0737C53.6871 33.3274 54.4784 32.8369 55.1523 33.1577C56.8879 33.9837 58.8225 34.8866 60.7952 36.2771C67.1675 40.7689 73.4656 47.2979 75.3642 56.1099C75.3424 56.2363 75.3179 56.3792 75.2907 56.5397C75.1524 57.3553 74.9443 58.6238 74.6602 60.4603ZM44.291 33.354C44.9466 32.9425 45.7866 33.4207 45.7866 34.1948V48.6578C45.7866 48.9915 45.621 49.3022 45.3446 49.4892C40.2547 52.9329 31.8702 59.2349 26.416 66.6105C26.3069 66.7581 26.072 66.6945 26.0527 66.512C25.8323 64.4338 25.6544 62.6811 25.5123 61.2336C25.326 59.3346 25.2013 57.9609 25.1236 57.0661C25.101 56.8065 25.0824 56.5872 25.0674 56.4072C27.3726 47.8341 33.5856 41.2 39.6641 36.5582C41.2745 35.3285 42.8473 34.2603 44.291 33.354ZM64.286 88.2863C68.7718 85.7516 70.4759 82.9364 70.4759 80.1069C70.4759 78.1176 69.5965 75.4901 67.3822 72.2565C65.2102 69.0846 62.1603 65.9264 58.8583 63.0421C56.0543 60.5928 53.1932 58.4539 50.8535 56.8223C50.182 56.354 49.2919 56.354 48.6204 56.8223C46.2807 58.4539 43.4196 60.5928 40.6156 63.0421C37.3136 65.9264 34.2637 69.0846 32.0917 72.2565C29.8774 75.4901 28.998 78.1176 28.998 80.1069C28.998 82.9364 30.7021 85.7516 35.1879 88.2863C39.6786 90.8239 45.4768 92.1017 49.7369 92.1017C53.9971 92.1017 59.7953 90.8239 64.286 88.2863Z" fill="#0A00D8"/>
</svg>
