<svg width="101" height="101" viewBox="0 0 101 101" fill="none" xmlns="http://www.w3.org/2000/svg">
<path d="M98.9452 68.7375L92.4341 72.214V83.3633C92.4341 84.9539 93.7219 86.2434 95.3106 86.2434C96.8992 86.2434 98.187 84.9539 98.187 83.3633L98.9452 68.7375Z" fill="#0A00D8"/>
<path fill-rule="evenodd" clip-rule="evenodd" d="M53.823 3.41018L50.9425 2.25958C50.4672 2.0697 49.9362 2.07544 49.4651 2.27556L46.7162 3.44312C45.4288 4.04357 43.6109 4.94056 41.4391 6.14707C37.1037 8.5555 31.3134 12.222 25.5073 17.259C14.0105 27.2329 2.15496 45.0007 1.95882 67.0652C1.95578 67.4079 2.13656 67.7279 2.43066 67.9032L22.4399 79.8318C22.4399 93.0793 39.5868 99.204 50.2458 99.204C60.9047 99.204 78.0517 93.0922 78.0517 79.8446L92.4341 72.214L98.9452 68.7375C100.276 45.8003 88.2099 27.5359 76.1408 17.3439C70.0974 12.2404 63.9949 8.54371 59.4127 6.12328C57.1166 4.91042 55.1889 4.01103 53.823 3.41018ZM80.9271 69.355C80.8932 69.593 81.1451 69.7678 81.3555 69.6521L90.9957 64.3479C91.3009 64.1799 91.4938 63.8576 91.4958 63.5088C91.6014 45.2799 81.7338 32.1142 71.1955 23.2149C65.682 18.559 60.0733 15.1558 55.8335 12.9163C54.1298 12.0163 52.361 11.1802 51.0999 10.6086C50.5828 10.3742 49.9898 10.3855 49.4804 10.6363C48.4193 11.1587 46.5253 12.1048 45.1605 12.863C41.1607 15.085 35.8375 18.4593 30.5302 23.0636C20.4033 31.8491 10.6073 44.8495 9.69601 62.7275C9.67794 63.082 9.85847 63.4193 10.1621 63.6024L19.3323 69.1309C19.5387 69.2553 19.798 69.0891 19.7723 68.8493C19.4859 66.1863 19.2631 64.001 19.0922 62.2572C18.9087 60.3836 18.785 59.0193 18.7069 58.1193C18.6679 57.6693 18.6402 57.3353 18.6222 57.1118C18.6132 57.0001 18.6066 56.9159 18.6021 56.8586L18.5971 56.7928L18.5951 56.7669L18.55 56.1597L18.6946 55.5684C21.4005 44.5061 29.1386 36.5115 35.8099 31.4092C39.1827 28.8296 42.3874 26.9084 44.752 25.6295C45.9371 24.9885 47.6324 24.1684 48.3281 23.8405L49.4336 23.3793C49.8752 23.195 50.3691 23.1805 50.8208 23.3385L51.8632 23.7032C52.0753 23.7822 52.3751 23.8967 52.7512 24.0476C53.5029 24.3493 54.5624 24.7977 55.8377 25.4001C58.3811 26.6017 61.8208 28.4339 65.4024 30.9624C72.4856 35.9631 80.6083 44.0402 82.8003 55.776L82.933 56.4864L82.7989 57.1954L82.7987 57.1964L82.7907 57.2397C82.784 57.2762 82.7732 57.3353 82.7583 57.4188C82.7285 57.5859 82.6822 57.8503 82.6185 58.2262C82.4913 58.9781 82.2951 60.1747 82.0241 61.9291C81.7417 63.7577 81.3782 66.1905 80.9271 69.355ZM74.4436 60.7552C74.1949 62.3657 73.8859 64.4267 73.5124 67.0205C73.4873 67.1948 73.262 67.2501 73.1591 67.1073C67.8739 59.7755 59.5367 53.4929 54.5099 50.0866C54.2416 49.9048 54.081 49.6028 54.081 49.2783V35.0967C54.081 34.371 54.8492 33.8941 55.5035 34.2059C57.1886 35.0092 59.0669 35.8872 60.9822 37.2394C67.169 41.6072 73.2839 47.9561 75.1272 56.5249C75.106 56.6478 75.0822 56.7868 75.0558 56.9428C74.9215 57.7359 74.7195 58.9694 74.4436 60.7552ZM44.9583 34.3969C45.5948 33.9967 46.4104 34.4618 46.4104 35.2144V49.2784C46.4104 49.6029 46.2496 49.9051 45.9813 50.0869C41.0395 53.4356 32.899 59.5637 27.6035 66.7358C27.4976 66.8793 27.2696 66.8175 27.2508 66.64C27.0369 64.6191 26.8641 62.9148 26.7262 61.5072C26.5452 59.6606 26.4242 58.3248 26.3487 57.4547C26.3268 57.2023 26.3088 56.9891 26.2942 56.814C28.5323 48.4775 34.5645 42.0264 40.4661 37.5127C42.0296 36.3168 43.5566 35.2782 44.9583 34.3969ZM64.3714 87.8135C68.7266 85.3487 70.3811 82.6112 70.3811 79.8598C70.3811 77.9254 69.5273 75.3703 67.3775 72.226C65.2687 69.1416 62.3075 66.0706 59.1016 63.2658C56.3793 60.8841 53.6014 58.8043 51.3299 57.2177C50.6779 56.7623 49.8137 56.7623 49.1617 57.2177C46.8901 58.8043 44.1122 60.8841 41.3899 63.2658C38.184 66.0706 35.2229 69.1416 33.114 72.226C30.9642 75.3703 30.1104 77.9254 30.1104 79.8598C30.1104 82.6112 31.7649 85.3487 36.1201 87.8135C40.4801 90.281 46.1096 91.5236 50.2458 91.5236C54.3819 91.5236 60.0114 90.281 64.3714 87.8135Z" fill="#0A00D8"/>
<path fill-rule="evenodd" clip-rule="evenodd" d="M49.4651 2.27556C49.9362 2.07544 50.4672 2.0697 50.9425 2.25958L53.823 3.41018C53.9942 3.48552 54.1743 3.56555 54.3629 3.65031C54.3905 3.66271 54.4182 3.67521 54.4462 3.68781C55.7506 4.27605 57.4466 5.08474 59.4127 6.12328C63.9949 8.54371 70.0974 12.2404 76.1408 17.3439C88.2099 27.5359 100.276 45.8003 98.9452 68.7375L98.187 83.3633C98.187 84.9539 96.8992 86.2434 95.3106 86.2434C93.7219 86.2434 92.4341 84.9539 92.4341 83.3633V72.214L78.0517 79.8446C78.0517 93.0922 60.9047 99.204 50.2458 99.204C39.5868 99.204 22.4399 93.0793 22.4399 79.8318L2.43066 67.9032C2.13656 67.7279 1.95578 67.4079 1.95882 67.0652C2.15496 45.0007 14.0105 27.2329 25.5073 17.259C31.3134 12.222 37.1037 8.5555 41.4391 6.14707C43.3151 5.10487 44.9271 4.29362 46.1611 3.70497C46.1723 3.69965 46.1834 3.69435 46.1945 3.68907C46.3769 3.60218 46.5509 3.5202 46.7162 3.44312L49.4651 2.27556ZM47.0784 2.96864C46.9261 2.81705 46.7651 2.72291 46.6882 2.71679C46.6818 2.71719 46.6749 2.71773 46.6679 2.71836C46.7508 2.73865 46.9181 2.8245 47.0784 2.96864ZM21.0047 80.6737L1.68577 69.1566C0.949253 68.7175 0.494851 67.9169 0.502537 67.0522C0.703291 44.4678 12.8266 26.3303 24.5538 16.1565C30.4546 11.0373 36.3336 7.31536 40.7327 4.87154C42.9379 3.64646 44.7867 2.73402 46.1014 2.12084L46.1243 2.11015L48.8965 0.93271C49.721 0.582509 50.6502 0.57246 51.482 0.904752L54.3857 2.06463L54.4086 2.0747C55.8022 2.68774 57.7615 3.60207 60.092 4.8331C64.7393 7.28788 70.9355 11.0403 77.0796 16.2288C89.3957 26.6293 101.761 45.3036 100.399 68.817L100.399 68.8221L99.6432 83.4049C99.6209 85.7823 97.6892 87.702 95.3106 87.702C92.918 87.702 90.9777 85.7599 90.9777 83.3633V74.6373L79.4844 80.7352C79.1155 87.6281 74.4826 92.5775 68.8629 95.7617C63.0049 99.0809 55.8024 100.663 50.2458 100.663C44.6887 100.663 37.4859 99.0775 31.6281 95.7549C25.9954 92.5602 21.3542 87.5919 21.0047 80.6737ZM47.6822 24.1491C46.8546 24.5485 45.6551 25.141 44.752 25.6295C42.3874 26.9084 39.1827 28.8296 35.8099 31.4092C29.1386 36.5115 21.4005 44.5061 18.6946 55.5684L18.55 56.1597L18.5951 56.7669L18.5971 56.7928L18.6021 56.8586C18.6066 56.9159 18.6132 57.0001 18.6222 57.1118C18.6402 57.3353 18.6679 57.6693 18.7069 58.1193C18.785 59.0193 18.9087 60.3836 19.0922 62.2572C19.2359 63.7235 19.4163 65.502 19.6403 67.6141C19.6442 67.6506 19.6481 67.6871 19.652 67.7238C19.6778 67.9672 19.7042 68.2149 19.7312 68.4671C19.7448 68.5933 19.7584 68.7208 19.7723 68.8493C19.798 69.0891 19.5387 69.2553 19.3323 69.1309L10.1621 63.6024C9.85847 63.4193 9.67794 63.082 9.69601 62.7275C10.6073 44.8495 20.4033 31.8491 30.5302 23.0636C35.8375 18.4593 41.1607 15.085 45.1605 12.863C46.5253 12.1048 48.4193 11.1587 49.4804 10.6363C49.9898 10.3855 50.5828 10.3742 51.0999 10.6086C52.361 11.1802 54.1298 12.0163 55.8335 12.9163C60.0733 15.1558 65.682 18.559 71.1955 23.2149C81.7338 32.1142 91.6014 45.2799 91.4958 63.5088C91.4938 63.8576 91.3009 64.1799 90.9957 64.3479L81.3555 69.6521C81.1451 69.7678 80.8932 69.593 80.9271 69.355C80.9455 69.2258 80.9638 69.0978 80.9819 68.971C81.0177 68.7206 81.053 68.4749 81.0876 68.2339C81.0928 68.1981 81.0979 68.1623 81.1031 68.1267C81.4738 65.5518 81.7794 63.5136 82.0241 61.9291C82.2951 60.1747 82.4913 58.9781 82.6185 58.2262C82.6822 57.8503 82.7285 57.5859 82.7583 57.4188C82.7732 57.3353 82.784 57.2762 82.7907 57.2397L82.7987 57.1964L82.7989 57.1954L82.933 56.4864L82.8003 55.776C80.6083 44.0402 72.4856 35.9631 65.4024 30.9624C61.8208 28.4339 58.3811 26.6017 55.8377 25.4001C54.5624 24.7977 53.5029 24.3493 52.7512 24.0476C52.6704 24.0152 52.5932 23.9845 52.5195 23.9554C52.4769 23.9386 52.4355 23.9223 52.3954 23.9066C52.1819 23.8231 52.0034 23.7554 51.8632 23.7032L51.2535 23.4899C51.2822 23.3889 51.3222 23.2906 51.3734 23.205C51.342 23.2292 51.3127 23.2545 51.2869 23.2807C51.2604 23.3415 51.2422 23.4102 51.2308 23.482L50.8208 23.3385C50.3691 23.1805 49.8752 23.195 49.4336 23.3793L48.9564 23.5784C48.9458 23.5253 48.9311 23.4743 48.9117 23.4273C48.8783 23.3935 48.8395 23.3615 48.798 23.3317C48.8485 23.4114 48.8887 23.5014 48.919 23.594L48.3281 23.8405C48.1914 23.9049 48.0162 23.9884 47.8137 24.0857C47.7711 24.1062 47.7272 24.1274 47.6822 24.1491ZM84.2306 57.4622L84.4149 56.488L84.2318 55.5078C81.9393 43.2339 73.4643 34.8695 66.2415 29.7702C62.5746 27.1815 59.0579 25.3087 56.459 24.0809C55.1546 23.4647 54.0683 23.0049 53.2929 22.6937C52.9048 22.5379 52.5935 22.419 52.3705 22.336L52.3571 22.331L51.3011 21.9615C50.5107 21.685 49.6463 21.7104 48.8735 22.0328L47.7378 22.5067L47.7081 22.5207C47.0053 22.8519 45.281 23.6856 44.06 24.346C41.6452 25.6522 38.373 27.6136 34.926 30.2499C28.1348 35.444 20.0996 43.6946 17.2801 55.2213L17.0805 56.0373L17.1448 56.9026L17.1501 56.9716C17.1547 57.0304 17.1614 57.1161 17.1706 57.2293C17.1889 57.4558 17.2167 57.7927 17.256 58.2456C17.3346 59.1512 17.4588 60.5209 17.6429 62.3996C17.7613 63.6086 17.9046 65.0285 18.0766 66.6713L11.1664 62.5054C12.1427 45.3178 21.5863 32.7526 31.4837 24.1662C36.6963 19.644 41.9308 16.3251 45.8669 14.1385C47.1969 13.3996 49.0619 12.4676 50.1229 11.9453C50.2449 11.8852 50.3821 11.8842 50.4994 11.9374C51.7443 12.5017 53.4848 13.3247 55.1541 14.2065C59.3289 16.4117 64.8439 19.7591 70.2567 24.3301C80.5539 33.0258 90.0366 45.7243 90.0403 63.2093L82.7019 67.247C83.002 65.1825 83.2549 63.5015 83.4633 62.1521C83.7334 60.4037 83.9284 59.2141 84.0544 58.47C84.1174 58.098 84.163 57.8379 84.192 57.6754C84.2064 57.5942 84.2168 57.5375 84.223 57.5035L84.2286 57.473L84.2288 57.4719L84.2298 57.4668L84.2306 57.4622ZM72.4994 63.8767C72.6892 62.5942 72.8573 61.485 73.0044 60.5322C73.2812 58.7404 73.4843 57.4999 73.6199 56.699C73.628 56.6513 73.6358 56.6052 73.6434 56.5606C71.8402 48.6392 66.1234 42.6536 60.1431 38.4316C58.5763 37.3254 57.0333 36.5541 55.5373 35.8377V49.0221C60.067 52.1073 67.2021 57.4724 72.4994 63.8767ZM73.7411 65.4435C73.7247 65.5555 73.7082 65.6687 73.6916 65.7831C73.6422 66.1225 73.5915 66.4721 73.5396 66.8322C73.5306 66.8947 73.5215 66.9574 73.5124 67.0205C73.4873 67.1948 73.262 67.2501 73.1591 67.1073C73.1221 67.056 73.0849 67.0046 73.0476 66.9534C72.8409 66.6695 72.6297 66.3872 72.4143 66.1067C72.347 66.0189 72.2792 65.9314 72.211 65.8439C66.919 59.0572 59.2455 53.2956 54.5099 50.0866C54.2416 49.9048 54.081 49.6028 54.081 49.2783V35.0967C54.081 34.371 54.8492 33.8941 55.5035 34.2059L55.6895 34.2946C57.3262 35.0742 59.1371 35.9368 60.9822 37.2394C67.169 41.6072 73.2839 47.9561 75.1272 56.5249C75.106 56.6478 75.0822 56.7868 75.0558 56.9428C74.9215 57.7359 74.7195 58.9694 74.4436 60.7552C74.2476 62.0246 74.0141 63.5739 73.7411 65.4435ZM44.954 36.1302C43.8062 36.8767 42.5893 37.7241 41.35 38.6719C35.6269 43.0491 29.9378 49.1724 27.7671 56.9497C27.7768 57.0642 27.7876 57.1904 27.7996 57.3284C27.8746 58.1928 27.9951 59.5233 28.1756 61.3647C28.2367 61.9884 28.3047 62.6707 28.3801 63.4133C33.6319 57.2155 40.5319 52.0342 44.954 49.0223V36.1302ZM28.5902 65.4514C33.8681 58.8355 41.3372 53.2338 45.9813 50.0869C46.2496 49.9051 46.4104 49.6029 46.4104 49.2784V35.2144C46.4104 34.4618 45.5948 33.9967 44.9583 34.3969C43.5566 35.2782 42.0296 36.3168 40.4661 37.5127C34.5645 42.0264 28.5323 48.4775 26.2942 56.814C26.3088 56.9891 26.3268 57.2023 26.3487 57.4547C26.4242 58.3248 26.5452 59.6606 26.7262 61.5072C26.8254 62.5199 26.9427 63.6862 27.0803 65.0135C27.0934 65.1396 27.1067 65.2671 27.1201 65.3961C27.156 65.7404 27.1932 66.0952 27.2318 66.4604C27.2381 66.52 27.2444 66.5799 27.2508 66.64C27.2696 66.8175 27.4976 66.8793 27.6035 66.7358C27.6391 66.6875 27.6749 66.6393 27.7108 66.5912C27.9227 66.3067 28.1391 66.0239 28.3596 65.7429C28.4359 65.6455 28.5128 65.5483 28.5902 65.4514ZM63.655 86.5436C67.7526 84.2246 68.9248 81.8901 68.9248 79.8598C68.9248 78.3334 68.2383 76.0667 66.1759 73.0501C64.1617 70.1041 61.2983 67.1244 58.1435 64.3643C55.4716 62.0268 52.7382 59.9796 50.4968 58.4141C50.3454 58.3083 50.1462 58.3083 49.9947 58.4141C47.7533 59.9796 45.0199 62.0268 42.348 64.3643C39.1932 67.1244 36.3299 70.1041 34.3157 73.0501C32.2532 76.0667 31.5668 78.3334 31.5668 79.8598C31.5668 81.8901 32.739 84.2246 36.8366 86.5436C40.9577 88.8759 46.3363 90.065 50.2458 90.065C54.1553 90.065 59.5339 88.8759 63.655 86.5436ZM70.3811 79.8598C70.3811 82.6112 68.7266 85.3487 64.3714 87.8135C60.0114 90.281 54.3819 91.5236 50.2458 91.5236C46.1096 91.5236 40.4801 90.281 36.1201 87.8135C31.7649 85.3487 30.1104 82.6112 30.1104 79.8598C30.1104 77.9254 30.9642 75.3703 33.114 72.226C35.2229 69.1416 38.184 66.0706 41.3899 63.2658C44.1122 60.8841 46.8901 58.8043 49.1617 57.2177C49.8137 56.7623 50.6779 56.7623 51.3299 57.2177C53.6014 58.8043 56.3793 60.8841 59.1016 63.2658C62.3075 66.0706 65.2687 69.1416 67.3775 72.226C69.5273 75.3703 70.3811 77.9254 70.3811 79.8598Z" fill="#0A00D8"/>
</svg>
