<svg width="85" height="100" viewBox="0 0 85 100" fill="none" xmlns="http://www.w3.org/2000/svg">
<path d="M56.7409 71.7203C56.1683 71.1184 55.139 71.438 54.9439 72.2465C52.5218 82.2789 43.5795 89.7244 32.9187 89.7244C20.3973 89.7244 10.2467 79.4534 10.2467 66.7835C10.2467 57.5507 15.637 49.5917 23.407 45.953C23.7675 45.7842 24.0052 45.4251 24.0052 45.0261V36.1197C24.0052 35.4567 23.3731 34.9773 22.7445 35.183C9.50224 39.5169 0 52.0816 0 66.7835C0 85.0383 14.6498 99.998 32.9187 99.998C46.6893 99.998 58.4037 91.4982 63.3375 79.4943C63.4851 79.1354 63.4031 78.7237 63.1358 78.4427L56.7409 71.7203Z" fill="#0A00D8"/>
<path d="M47.663 11.4126C47.663 17.7156 42.5877 22.8252 36.3271 22.8252C30.0664 22.8252 24.9911 17.7156 24.9911 11.4126C24.9911 5.10959 30.0664 0 36.3271 0C42.5877 0 47.663 5.10959 47.663 11.4126Z" fill="#0A00D8"/>
<path d="M30.1437 28.9753C30.1437 27.8708 31.0368 26.9753 32.1385 26.9753H40.5155C41.6172 26.9753 42.5103 27.8708 42.5103 28.9753V33.6664C42.5103 34.2187 42.958 34.6664 43.5103 34.6664H58.0348C59.1364 34.6664 60.0295 35.5618 60.0295 36.6664V43.0415C60.0295 44.146 59.1364 45.0415 58.0348 45.0415H43.5103C42.958 45.0415 42.5103 45.4892 42.5103 46.0415V49.8972C42.5103 50.993 43.3897 51.8847 44.4826 51.897L61.366 52.0875C61.8938 52.0935 62.3977 52.3089 62.7673 52.6866L84.429 74.8199C85.1835 75.5909 85.1912 76.8232 84.4464 77.6035L79.2835 83.0128C78.505 83.8284 77.2079 83.8368 76.419 83.0313L57.5641 63.7801C57.189 63.3972 56.6761 63.1814 56.1408 63.1814H32.1385C31.0368 63.1814 30.1437 62.286 30.1437 61.1814V28.9753Z" fill="#0A00D8"/>
</svg>
