<svg width="101" height="101" viewBox="0 0 101 101" fill="none" xmlns="http://www.w3.org/2000/svg">
<path d="M1.273 52.4367C0.716247 51.8756 0.403809 51.1169 0.403809 50.3262V3.68245C0.403809 2.02795 1.74427 0.686712 3.39782 0.686711L97.4098 0.686676C99.0633 0.686676 100.404 2.02791 100.404 3.68241V41.2295L88.6294 29.4483L88.4546 29.6232V16.4398C88.4546 14.7853 87.1141 13.4441 85.4605 13.4441H16.5447C14.8911 13.4441 13.5507 14.7853 13.5507 16.4398V44.1861C13.5507 44.9608 13.8506 45.7053 14.3875 46.2635L24.8285 57.118L15.3384 66.6136L1.273 52.4367Z" fill="#0A00D8"/>
<path d="M23.878 75.221L48.2652 99.8015C49.4359 100.981 51.3431 100.982 52.5142 99.8021L97.0069 54.9825L87.6476 45.6179C87.6318 45.6347 87.6159 45.6513 87.5998 45.6678L52.5471 81.4861C51.3659 82.6931 49.4215 82.6847 48.2507 81.4676L33.2357 65.858L23.878 75.221Z" fill="#0A00D8"/>
<path d="M80.1934 32.4314L80.0583 32.5665L81.7216 34.2308L50.7422 64.1866C49.532 65.4011 47.5568 65.3705 46.3849 64.1189L29.0044 45.4352L37.5363 36.8202L46.3048 46.8553C47.4645 48.1539 49.4765 48.2104 50.7072 46.979L73.1316 25.8529L80.1934 32.4314Z" fill="#0A00D8"/>
</svg>
