<svg width="101" height="101" viewBox="0 0 101 101" fill="none" xmlns="http://www.w3.org/2000/svg">
<path d="M9.44978 12.1363C9.44978 10.4993 10.7994 9.1722 12.4642 9.1722H52.9913C54.6562 9.1722 56.0058 10.4993 56.0058 12.1363V62.1106C56.0058 62.1838 56.0031 62.2563 55.9978 62.3281L62.2326 66.2451L64.9589 63.5378V2.56954C64.9589 1.35402 63.9567 0.368652 62.7206 0.368652H2.73497C1.49881 0.368652 0.496704 1.35402 0.496704 2.56954V71.6774C0.496704 72.8929 1.49881 73.8783 2.73498 73.8783H39.4943L34.0584 65.0747H12.4642C10.7994 65.0747 9.44978 63.7477 9.44978 62.1106V12.1363Z" fill="#0A00D8"/>
<path d="M44.8025 55.2947L40.4112 52.5359C36.6869 50.1962 32.5293 52.163 31.1078 55.3908H21.8649C20.2001 55.3908 18.8505 54.0637 18.8505 52.4267V49.5514C18.8505 47.9143 20.2001 46.5873 21.865 46.5873H44.0383C45.7031 46.5873 47.0527 47.9143 47.0527 49.5514V52.4267C47.0527 53.8041 46.0972 54.9621 44.8025 55.2947Z" fill="#0A00D8"/>
<path d="M21.865 32.5016C20.2001 32.5016 18.8505 33.8287 18.8505 35.4657V38.3411C18.8505 39.9781 20.2001 41.3052 21.8649 41.3052H44.0383C45.7031 41.3052 47.0527 39.9781 47.0527 38.3411V35.4657C47.0527 33.8287 45.7031 32.5016 44.0383 32.5016H21.865Z" fill="#0A00D8"/>
<path d="M21.865 18.8561C20.2001 18.8561 18.8505 20.1832 18.8505 21.8202V24.6956C18.8505 26.3326 20.2001 27.6597 21.8649 27.6597H44.0383C45.7031 27.6597 47.0527 26.3326 47.0527 24.6956V21.8202C47.0527 20.1832 45.7031 18.8561 44.0383 18.8561H21.865Z" fill="#0A00D8"/>
<path fill-rule="evenodd" clip-rule="evenodd" d="M99.9453 37.22C100.21 36.9571 100.639 37.2806 100.45 37.6003L63.3615 100.212C63.2392 100.419 62.9368 100.421 62.8107 100.217L36.7188 57.9605C36.5426 57.6753 36.8792 57.3518 37.1652 57.5315L62.8722 73.6818C62.9994 73.7617 63.1662 73.7435 63.2724 73.638L99.9453 37.22Z" fill="#0A00D8"/>
</svg>
