<svg width="101" height="101" viewBox="0 0 101 101" fill="none" xmlns="http://www.w3.org/2000/svg">
<path d="M41.6907 34.3738C41.6907 37.6908 39.0178 40.3798 35.7206 40.3798C32.4234 40.3798 29.7504 37.6908 29.7504 34.3738C29.7504 31.0567 32.4234 28.3678 35.7206 28.3678C39.0178 28.3678 41.6907 31.0567 41.6907 34.3738Z" fill="#0A00D8"/>
<path d="M65.5713 40.3798C68.8686 40.3798 71.5415 37.6908 71.5415 34.3738C71.5415 31.0567 68.8686 28.3678 65.5713 28.3678C62.2741 28.3678 59.6012 31.0567 59.6012 34.3738C59.6012 37.6908 62.2741 40.3798 65.5713 40.3798Z" fill="#0A00D8"/>
<path fill-rule="evenodd" clip-rule="evenodd" d="M50.646 0.439941C33.805 0.439941 20.9741 6.75154 12.4879 17.357C4.1522 27.7744 0.496704 41.7106 0.496704 56.2959V59.2989C0.496704 60.9574 1.83317 62.3019 3.48178 62.3019H20.1982V97.4369C20.1982 99.0954 21.5347 100.44 23.1833 100.44H29.1534C30.802 100.44 32.1385 99.0954 32.1385 97.4369V62.3019H44.6758V97.4369C44.6758 99.0954 46.0123 100.44 47.6609 100.44H53.631C55.2796 100.44 56.6161 99.0954 56.6161 97.4369V62.3019H69.7504V97.4369C69.7504 99.0954 71.0869 100.44 72.7355 100.44H78.7057C80.3543 100.44 81.6907 99.0954 81.6907 97.4369V62.3019H97.5116C99.1602 62.3019 100.497 60.9574 100.497 59.2989V56.2959C100.497 43.376 97.2232 29.5394 89.2371 18.7705C81.0744 7.76326 68.3161 0.439941 50.646 0.439941ZM15.9346 50.2899C14.1862 50.2899 12.805 48.7827 13.0416 47.04C14.237 38.2362 17.1918 30.6346 21.7891 24.8892C27.7805 17.4016 37.0392 12.452 50.646 12.452C64.6176 12.452 73.7996 18.0415 79.6667 25.9532C84.0139 31.8152 86.7065 39.1974 87.8758 47.0123C88.1378 48.7635 86.7528 50.2899 84.9924 50.2899H15.9346Z" fill="#0A00D8"/>
</svg>
