<svg width="101" height="76" viewBox="0 0 101 76" fill="none" xmlns="http://www.w3.org/2000/svg">
<path d="M44.8659 7.02053C37.7154 10.3365 30.1097 14.1837 28.3218 16.2948C25.2175 19.9601 20.286 25.9333 19.6908 38.584C20.2788 51.0801 25.0976 56.767 28.2072 60.4367L28.3218 60.5719C30.1097 62.683 37.7154 66.5302 44.8659 69.8462C47.8306 71.221 46.8733 75.9333 43.6122 75.9333H22.8654C18.4068 75.9333 14.1607 73.9165 11.7498 70.1208C7.34398 63.1843 0.940796 51.2292 0.940796 38.584C0.940796 25.9388 7.34398 13.6824 11.7498 6.74595C14.1607 2.95018 18.4068 0.93335 22.8654 0.93335H43.6122C46.8733 0.93335 47.8306 5.6457 44.8659 7.02053Z" fill="#0A00D8"/>
<path d="M73.5598 16.2948C71.7719 14.1837 64.1662 10.3365 57.0157 7.02053C54.051 5.6457 55.0083 0.93335 58.2694 0.93335H79.0162C83.4748 0.93335 87.7209 2.95018 90.1318 6.74595C94.5376 13.6824 100.941 25.9388 100.941 38.584C100.941 51.2292 94.5376 63.1843 90.1318 70.1208C87.7209 73.9165 83.4748 75.9333 79.0162 75.9333H58.2694C55.0083 75.9333 54.051 71.221 57.0157 69.8462C64.1662 66.5302 71.7719 62.683 73.5598 60.5719L73.6744 60.4367C76.784 56.767 81.6028 51.0801 82.1908 38.584C81.5955 25.9333 76.6641 19.9601 73.5598 16.2948Z" fill="#0A00D8"/>
<path d="M45.8813 30.7526C41.772 30.7526 38.4408 34.1239 38.4408 38.2827C38.4408 42.4414 41.772 45.8128 45.8813 45.8128H56.5956C60.7048 45.8128 64.036 42.4414 64.036 38.2827C64.036 34.1239 60.7048 30.7526 56.5956 30.7526H45.8813Z" fill="#0A00D8"/>
</svg>
