<svg width="101" height="101" viewBox="0 0 101 101" fill="none" xmlns="http://www.w3.org/2000/svg">
<path d="M2.2248 74.6659C11.6262 92.0629 29.5911 99.2749 45.9132 99.2749C62.2352 99.2749 79.538 91.4188 88.9394 74.0218C89.6573 72.6933 88.5705 71.6074 87.2008 72.8185C76.2747 82.48 63.3624 89.243 45.9132 88.9693C28.464 89.243 14.8895 83.1241 3.96336 73.4626C2.59373 72.2515 1.50692 73.3373 2.2248 74.6659Z" fill="#0A00D8"/>
<path fill-rule="evenodd" clip-rule="evenodd" d="M1.24017 75.1693C0.746988 74.2566 0.68579 73.0207 1.59934 72.2805C2.58518 71.4818 3.85223 71.9021 4.71161 72.662C15.4526 82.1598 28.7601 88.1563 45.8953 87.8875L45.9132 87.8872L45.9311 87.8875C63.0239 88.1556 75.6742 81.5488 86.4526 72.0179L87.2008 72.8185C76.2747 82.48 63.3624 89.243 45.9132 88.9693C28.464 89.243 14.8895 83.1241 3.96336 73.4626C2.59373 72.2515 1.50692 73.3373 2.2248 74.6659C11.6262 92.0629 29.5911 99.2749 45.9132 99.2749C62.2352 99.2749 79.538 91.4188 88.9394 74.0218C89.6573 72.6933 88.5705 71.6074 87.2008 72.8185L86.4526 72.0179C87.312 71.258 88.579 70.8377 89.5648 71.6364C90.4784 72.3766 90.4172 73.6125 89.924 74.5252C80.307 92.3212 62.5957 100.357 45.9132 100.357C29.2786 100.357 10.8765 93.0011 1.24017 75.1693Z" fill="#0A00D8"/>
<path fill-rule="evenodd" clip-rule="evenodd" d="M92.4563 67.3674C90.3163 65.4579 82.624 69.5078 78.2378 70.7723C76.9269 71.155 76.5197 70.0496 77.5851 68.9954C84.5204 62.33 98.3837 57.2446 100.2 58.7885C102.025 60.373 100.297 74.556 93.9763 81.7904C93.0088 82.9121 91.836 82.6024 92.1262 81.2987C93.1008 76.9937 94.5873 69.2365 92.4563 67.3674Z" fill="#0A00D8"/>
<path d="M69.9803 47.8273C69.9803 50.3788 70.2611 52.4477 70.753 53.9649C71.3149 55.4819 72.0173 57.137 73.0008 58.9301C73.352 59.4818 74.1546 61.3217 74.1546 61.8044C74.1546 62.4939 73.7331 63.1837 72.8199 63.8732L68.3946 66.7695C67.7624 67.1834 67.1301 67.3903 66.5681 67.3903C65.8657 67.3903 65.1634 67.0455 64.461 66.4248C63.4775 65.3904 62.6345 64.2871 61.9321 63.1837C61.5151 62.4877 60.5924 60.7301 59.9114 59.4167C59.4873 58.5986 58.3979 58.3514 57.6362 58.8904C54.1264 61.3735 45.0057 67.3433 38.4407 67.3433C32.5401 67.3433 27.8337 65.6883 24.3919 62.3781C20.9498 59.068 19.1937 54.6545 19.1937 49.1376C19.1937 43.2759 21.301 38.5174 25.5859 34.9315C29.8707 31.3454 35.5606 29.5525 42.7958 29.5525C45.1841 29.5525 47.6426 29.7594 50.2416 30.1042C52.2761 30.3741 54.3536 30.7707 56.5078 31.2281C57.4369 31.4253 58.3197 30.7407 58.3197 29.8156V26.5872C58.3197 21.3462 57.1958 16.4029 55.0181 14.2652C52.7703 12.1275 48.9773 11.0929 43.5683 11.0929C41.11 11.0929 38.5811 11.3689 35.9821 11.9894C34.3076 12.3893 32.5383 13.0896 30.8339 13.7954C29.893 14.185 28.9718 14.5763 28.0973 14.9198C26.9734 15.4024 26.1306 15.6784 25.6387 15.8162C25.1471 15.9541 24.7959 16.0231 24.5148 16.0231C23.5316 16.0231 23.0397 15.3334 23.0397 13.8852V11.7945C23.0397 10.6911 23.1802 8.57522 23.5316 8.09258C23.8828 7.60971 24.5148 7.12707 25.4983 6.64443C27.9569 5.40295 31.2054 4.42717 34.6474 3.59952C38.0895 2.70306 41.742 2.28923 45.6056 2.28923C53.9645 2.28923 60.0759 3.50712 64.0096 7.23108C67.8729 10.955 69.8398 17.898 69.8398 25.4838L69.9803 47.8273ZM41.4612 58.3094C43.7791 58.3094 46.1676 57.8956 48.6962 57.0681C51.2251 56.2405 53.4729 54.7235 55.3695 52.6546C56.4934 51.3444 57.3362 49.8962 57.7578 48.2411C58.1793 46.5861 58.4602 44.5862 58.4602 42.2414V40.4777C58.4602 39.8129 57.9933 39.2325 57.3264 39.087C55.6226 38.7154 53.8337 38.398 51.9978 38.1726C49.75 37.8969 47.5723 37.759 45.3948 37.759C40.6885 37.759 37.2464 38.6555 34.9283 40.5175C32.6104 42.3792 31.4865 44.9998 31.4865 48.448C31.4865 51.6891 32.3293 54.1028 34.0855 55.7579C35.7713 57.482 38.2299 58.3094 41.4612 58.3094Z" fill="#0A00D8"/>
<path fill-rule="evenodd" clip-rule="evenodd" d="M71.9668 47.8273V47.8214L71.8264 25.4838V25.4775C71.8253 17.6994 69.8295 10.1207 65.4079 5.85856L65.4015 5.85243L65.3951 5.84635C60.8632 1.55605 54.0403 0.356934 45.6056 0.356934C41.6034 0.356934 37.7814 0.784878 34.1523 1.72812C30.6854 2.56242 27.2614 3.57877 24.5931 4.92438C23.4849 5.46935 22.529 6.12571 21.9105 6.97576C21.559 7.4584 21.1802 11.1694 21.1802 12.2728V15.1712C21.1802 16.6194 22.5146 18.0697 23.4978 18.0697C24.4811 18.0697 26.189 17.6729 26.189 17.6729L28.8703 16.7C29.6016 16.4124 30.3235 16.1115 31.0361 15.8146C32.9068 15.0349 34.7131 14.2822 36.4558 13.8659C38.8953 13.2835 41.2649 13.0252 43.5683 13.0252C48.8046 13.0252 51.9332 14.0429 53.6176 15.6357C54.3325 16.344 55.041 17.7128 55.558 19.7299C56.0642 21.7048 56.3332 24.0895 56.3332 26.5872V29.2144C54.3632 28.8042 52.4259 28.4438 50.5101 28.1896C47.8528 27.8371 45.3003 27.6202 42.7958 27.6202C35.216 27.6202 29.0237 29.5053 24.2903 33.4668C19.5256 37.4542 17.2071 42.7682 17.2071 49.1376C17.2071 55.0851 19.1174 60.023 22.9952 63.7522C26.8896 67.4976 32.1427 69.2756 38.4407 69.2756C42.2315 69.2756 46.5148 67.5888 50.1057 65.7598C53.4924 64.0348 56.524 62.0449 58.3793 60.7517C59.02 61.9825 59.8135 63.4851 60.2157 64.1566L60.2291 64.1789L60.2431 64.2009C61.0071 65.4011 61.9261 66.6047 63.0026 67.7368L63.0612 67.7985L63.1251 67.8549C64.012 68.6387 65.1721 69.3226 66.5681 69.3226C67.6214 69.3226 68.6337 68.9421 69.5036 68.3727L73.9849 65.4398L74.0381 65.3996C75.1821 64.5357 76.1411 63.3459 76.1411 61.8044C76.1411 61.3469 75.9917 60.8747 75.9182 60.648C75.8169 60.3354 75.6856 59.9929 75.5515 59.6698C75.3107 59.0897 74.9912 58.4047 74.7289 57.9757C73.8218 56.3156 73.1669 54.777 72.6361 53.3481C72.2324 52.084 71.9668 50.24 71.9668 47.8273ZM48.6962 57.0681C46.1676 57.8956 43.7791 58.3094 41.4612 58.3094C38.2299 58.3094 35.7713 57.482 34.0855 55.7579C32.3293 54.1028 31.4865 51.6891 31.4865 48.448C31.4865 44.9998 32.6104 42.3792 34.9283 40.5175C37.2464 38.6555 40.6885 37.759 45.3948 37.759C47.5723 37.759 49.75 37.8969 51.9978 38.1726C53.8337 38.398 55.6226 38.7154 57.3264 39.087C57.9933 39.2325 58.4602 39.8129 58.4602 40.4777V42.2414C58.4602 44.5862 58.1793 46.5861 57.7578 48.2411C57.3362 49.8962 56.4934 51.3444 55.3695 52.6546C53.4729 54.7235 51.2251 56.2405 48.6962 57.0681Z" fill="#0A00D8"/>
<path fill-rule="evenodd" clip-rule="evenodd" d="M41.4612 58.3094C43.7791 58.3094 46.1676 57.8956 48.6962 57.0681C51.2251 56.2405 53.4729 54.7235 55.3695 52.6546C56.4934 51.3444 57.3362 49.8962 57.7578 48.2411C58.1793 46.5861 58.4602 44.5862 58.4602 42.2414V40.4777C58.4602 39.8129 57.9933 39.2325 57.3264 39.087C55.6226 38.7154 53.8337 38.398 51.9978 38.1726C49.75 37.8969 47.5723 37.759 45.3948 37.759C40.6885 37.759 37.2464 38.6555 34.9283 40.5175C32.6104 42.3792 31.4865 44.9998 31.4865 48.448C31.4865 51.6891 32.3293 54.1028 34.0855 55.7579C35.7713 57.482 38.2299 58.3094 41.4612 58.3094ZM36.1932 42.0075C34.4226 43.4296 33.473 45.4518 33.473 48.448C33.473 51.3747 34.2287 53.2023 35.4678 54.3701L35.497 54.3976L35.5249 54.4262C36.7154 55.6437 38.5704 56.3771 41.4612 56.3771C43.5308 56.3771 45.7045 56.0084 48.0627 55.2367C50.2152 54.5323 52.173 53.231 53.865 51.3925C54.8271 50.265 55.4971 49.0818 55.8295 47.7765C56.2108 46.2795 56.4736 44.436 56.4736 42.2414V40.8828C54.9506 40.5616 53.3663 40.2883 51.7491 40.0897C49.5791 39.8235 47.4846 39.6913 45.3948 39.6913C40.8958 39.6913 37.9991 40.5569 36.1932 42.0075Z" fill="#0A00D8"/>
</svg>
