<svg width="101" height="101" viewBox="0 0 101 101" fill="none" xmlns="http://www.w3.org/2000/svg">
<path fill-rule="evenodd" clip-rule="evenodd" d="M50.4843 8.36213C50.2184 8.21755 49.9258 8.11093 49.6125 8.05086L11.1946 0.684979C5.6385 -0.380293 0.484253 3.8644 0.484253 9.50533V91.5361C0.484253 97.1179 5.53689 101.348 11.0512 100.383L49.826 93.5954C50.057 93.555 50.2772 93.4892 50.4843 93.4014C50.6913 93.4892 50.9115 93.555 51.1425 93.5954L89.9173 100.383C95.4316 101.348 100.484 97.1179 100.484 91.5361V9.50533C100.484 3.8644 95.33 -0.380293 89.7739 0.684979L51.356 8.05086C51.0427 8.11093 50.7501 8.21755 50.4843 8.36213ZM16.0664 13.8144C14.2143 13.4593 12.4963 14.8742 12.4963 16.7546V84.4052C12.4963 86.2658 14.1805 87.6759 16.0186 87.3541L45.3756 82.2153C46.3326 82.0478 47.0308 81.2168 47.0308 80.2452V21.4042C47.0308 20.4449 46.3496 19.6207 45.4074 19.44L16.0664 13.8144ZM88.4722 16.7546C88.4722 14.8742 86.7542 13.4593 84.9021 13.8144L54.6637 19.5568C53.7199 19.736 53.0368 20.561 53.0368 21.5216V80.0929C53.0368 81.0646 53.7352 81.8956 54.6923 82.063L84.9499 87.3541C86.788 87.6759 88.4722 86.2658 88.4722 84.4052V16.7546Z" fill="#0A00D8"/>
</svg>
