<svg width="16" height="16" viewBox="0 0 16 16" fill="none" xmlns="http://www.w3.org/2000/svg">
<path fill-rule="evenodd" clip-rule="evenodd" d="M10.0718 0.596258C10.0718 0.331135 10.2854 0.116211 10.5489 0.116211H14.4616C15.2522 0.116211 15.893 0.760986 15.893 1.55636V5.58876C15.893 5.85389 15.6794 6.06881 15.4159 6.06881H14.4616C14.1981 6.06881 13.9844 5.85389 13.9844 5.58876V2.51645C13.9844 2.25132 13.7708 2.0364 13.5073 2.0364H10.5489C10.2854 2.0364 10.0718 1.82148 10.0718 1.55636V0.596258Z" fill="#0A00D8"/>
<path fill-rule="evenodd" clip-rule="evenodd" d="M8.97433 8.67173C10.0613 8.2631 10.8352 7.20887 10.8352 5.97278C10.8352 4.38205 9.55346 3.0925 7.9723 3.0925C6.39115 3.0925 5.10938 4.38205 5.10938 5.97278C5.10938 7.24475 5.92889 8.32413 7.0657 8.70566V11.0613H5.96824C5.70472 11.0613 5.49109 11.2762 5.49109 11.5413V12.5014C5.49109 12.7666 5.70472 12.9815 5.96824 12.9815H8.97433V8.67173ZM7.9723 6.93288C8.49936 6.93288 8.92661 6.50303 8.92661 5.97278C8.92661 5.44253 8.49936 5.01269 7.9723 5.01269C7.44525 5.01269 7.01798 5.44253 7.01798 5.97278C7.01798 6.50303 7.44525 6.93288 7.9723 6.93288Z" fill="#0A00D8"/>
<path d="M5.87281 15.4777C5.87281 15.7429 5.65919 15.9579 5.39567 15.9579H1.48298C0.692404 15.9579 0.0515137 15.313 0.0515137 14.5176V10.4852C0.0515137 10.2201 0.265144 10.0052 0.52867 10.0052H1.48298C1.74651 10.0052 1.96013 10.2201 1.96013 10.4852V13.5575C1.96013 13.8227 2.17377 14.0376 2.4373 14.0376H5.39567C5.65919 14.0376 5.87281 14.2525 5.87281 14.5176V15.4777Z" fill="#0A00D8"/>
</svg>
