<svg width="101" height="101" viewBox="0 0 101 101" fill="none" xmlns="http://www.w3.org/2000/svg">
<path fill-rule="evenodd" clip-rule="evenodd" d="M50.4843 8.72199C50.2184 8.57741 49.9258 8.4708 49.6125 8.41072L11.1946 1.04484C5.6385 -0.0204296 0.484253 4.22427 0.484253 9.86519V91.896C0.484253 97.4778 5.53689 101.708 11.0512 100.743L49.826 93.9553C50.057 93.9148 50.2772 93.849 50.4843 93.7613C50.6913 93.849 50.9115 93.9148 51.1425 93.9553L89.9173 100.743C95.4316 101.708 100.484 97.4778 100.484 91.896V9.86519C100.484 4.22427 95.33 -0.0204296 89.7739 1.04484L51.356 8.41072C51.0427 8.4708 50.7501 8.57741 50.4843 8.72199ZM16.0664 14.1743C14.2143 13.8192 12.4963 15.2341 12.4963 17.1144V84.7651C12.4963 86.6257 14.1805 88.0357 16.0186 87.714L47.0308 82.2854V20.1111L16.0664 14.1743ZM88.4722 17.1144C88.4722 15.2341 86.7542 13.8192 84.9021 14.1743L53.6245 20.1712C53.4271 20.209 53.2305 20.2267 53.0368 20.2256V82.1334C53.0976 82.1403 53.1586 82.149 53.2198 82.1597L84.9499 87.714C86.788 88.0357 88.4722 86.6257 88.4722 84.7651V17.1144Z" fill="#0A00D8"/>
</svg>
