<svg width="101" height="101" viewBox="0 0 101 101" fill="none" xmlns="http://www.w3.org/2000/svg">
<path fill-rule="evenodd" clip-rule="evenodd" d="M63.5785 3.76382C63.5785 2.09023 64.927 0.733521 66.5905 0.733521H91.2893C96.2798 0.733521 100.325 4.80366 100.325 9.82443V35.279C100.325 36.9526 98.9769 38.3093 97.3134 38.3093H91.2893C89.6258 38.3093 88.2772 36.9526 88.2772 35.279V15.885C88.2772 14.2114 86.9287 12.8547 85.2652 12.8547H66.5905C64.927 12.8547 63.5785 11.498 63.5785 9.82443V3.76382Z" fill="#0A00D8"/>
<path fill-rule="evenodd" clip-rule="evenodd" d="M56.6507 54.7403C63.5122 52.1608 68.3977 45.506 68.3977 37.7032C68.3977 27.6617 60.3065 19.5214 50.3254 19.5214C40.3444 19.5214 32.2532 27.6617 32.2532 37.7032C32.2532 45.7325 37.4264 52.5461 44.6025 54.9545V69.8244H37.6748C36.0113 69.8244 34.6628 71.1811 34.6628 72.8547V78.9153C34.6628 80.5889 36.0113 81.9456 37.6748 81.9456H56.6507V54.7403ZM50.3254 43.7638C53.6525 43.7638 56.3495 41.0504 56.3495 37.7032C56.3495 34.356 53.6525 31.6426 50.3254 31.6426C46.9984 31.6426 44.3013 34.356 44.3013 37.7032C44.3013 41.0504 46.9984 43.7638 50.3254 43.7638Z" fill="#0A00D8"/>
<path d="M37.0724 97.7032C37.0724 99.3768 35.7239 100.734 34.0604 100.734H9.36158C4.37106 100.734 0.325439 96.6634 0.325439 91.6426V66.1881C0.325439 64.5145 1.67398 63.1578 3.33749 63.1578H9.36158C11.0251 63.1578 12.3736 64.5145 12.3736 66.1881V85.582C12.3736 87.2556 13.7222 88.6123 15.3857 88.6123H34.0604C35.7239 88.6123 37.0724 89.969 37.0724 91.6426V97.7032Z" fill="#0A00D8"/>
</svg>
