<svg width="101" height="101" viewBox="0 0 101 101" fill="none" xmlns="http://www.w3.org/2000/svg">
<path fill-rule="evenodd" clip-rule="evenodd" d="M41.6843 41.718C41.1445 41.8693 40.5731 41.867 40.0345 41.7114L4.96867 31.5798C4.16833 31.3486 3.49991 30.7964 3.12268 30.0548L1.15774 26.1921C0.586714 25.0696 0.777711 23.7106 1.63614 22.7883L21.6787 1.25372C22.2476 0.642458 23.0456 0.295012 23.8814 0.294659L57.7311 0.280396C58.5471 0.280052 59.3282 0.61058 59.8953 1.19619L80.1677 22.1287C81.032 23.0211 81.2572 24.3524 80.7344 25.4786L78.4928 30.308C78.1232 31.1043 77.423 31.6994 76.5765 31.9367L41.6843 41.718ZM28.2045 5.85743C27.2775 5.85743 26.4022 6.28405 25.8321 7.01378L15.5288 20.2025C14.183 21.9253 15.0715 24.4603 17.1997 24.9697L40.0989 30.4507C40.5578 30.5606 41.0362 30.5611 41.4953 30.4523L64.6618 24.962C66.7772 24.4607 67.6778 21.9538 66.3635 20.2248L56.3456 7.04528C55.7768 6.29696 54.89 5.85743 53.9489 5.85743H28.2045Z" fill="#0A00D8"/>
<path d="M41.0694 82.2568C40.6615 82.2838 40.2496 82.2277 39.8594 82.0886L4.90649 69.6348C4.14392 69.3631 3.52325 68.796 3.1848 68.0617L1.0493 63.4288C0.539767 62.3234 0.748821 61.0203 1.57868 60.129L6.87294 54.4428C7.37946 53.8988 8.14781 53.6825 8.86443 53.8822L9.13418 53.9573C10.1718 54.2465 10.7038 55.3939 10.2533 56.3707C9.81707 57.3163 10.301 58.4305 11.2906 58.759L30.6963 65.2023L41.0694 82.2568Z" fill="#0A00D8"/>
<path d="M80.943 42.1253C80.8259 41.5938 80.5641 41.0926 80.168 40.6835L75.5444 35.9087C75.0216 35.3688 74.2449 35.1573 73.5198 35.3575L73.2063 35.4441C72.1923 35.7241 71.6479 36.8225 72.0402 37.797C72.4262 38.7558 71.9058 39.8386 70.9152 40.1381L70.397 40.2948L65.0602 41.7764L42.0011 48.3783C42.2463 48.5099 42.4906 48.653 42.7338 48.8081L56.0454 57.2981L70.6501 52.5019L80.943 42.1253Z" fill="#0A00D8"/>
<path d="M27.4365 57.7611C27.0739 52.5998 31.0797 47.9944 36.0367 47.2789L11.5259 40.5323C10.4034 40.2234 9.78907 39.019 10.1989 37.9311C10.6074 36.847 9.99866 35.6462 8.88165 35.3326L8.78485 35.3055C8.03707 35.0956 7.2345 35.3207 6.70578 35.8888L1.63623 41.3354C0.777749 42.2578 0.586728 43.6167 1.15777 44.7393L3.1579 48.6712C3.51438 49.372 4.13186 49.9053 4.87781 50.1568L27.4365 57.7611Z" fill="#0A00D8"/>
<path fill-rule="evenodd" clip-rule="evenodd" d="M100.223 36.2999C100.488 36.0335 100.916 36.3612 100.727 36.6852L63.7124 100.122C63.5903 100.331 63.2885 100.334 63.1627 100.127L37.1226 57.3136C36.9468 57.0246 37.2828 56.6969 37.5682 56.8789L63.2241 73.2419C63.3511 73.3229 63.5175 73.3044 63.6235 73.1975L100.223 36.2999Z" fill="#0A00D8"/>
</svg>
