<svg width="101" height="101" viewBox="0 0 101 101" fill="none" xmlns="http://www.w3.org/2000/svg">
<path fill-rule="evenodd" clip-rule="evenodd" d="M51.7009 0.857258C50.8375 0.407929 49.8134 0.407932 48.9499 0.857267L29.6947 10.8777C28.8438 11.3205 28.8167 12.5437 29.6471 13.0248L48.8309 24.1391C49.757 24.6757 50.8939 24.6757 51.8199 24.1391L71.0037 13.0247C71.8342 12.5435 71.8071 11.3204 70.9561 10.8775L51.7009 0.857258ZM56.0389 60.759C55.2035 60.2749 55.2372 59.0423 56.0979 58.606L75.3511 48.8466C76.1958 48.4184 77.1897 48.4167 78.0359 48.8419L97.4617 58.6043C98.3274 59.0393 98.3612 60.2785 97.5205 60.7613L78.1836 71.8685C77.259 72.3995 76.1268 72.3974 75.2042 71.8629L56.0389 60.759ZM3.05692 67.025C1.85226 66.2982 0.325439 67.1782 0.325439 68.5994V88.2228C0.325439 89.2886 0.888721 90.2726 1.80181 90.801L18.3316 100.28C19.5363 100.971 21.0286 100.089 21.0286 98.6854V78.9098C21.0286 78.2639 20.6931 77.6657 20.1456 77.3354L3.05692 67.025ZM27.7644 77.3343C27.2206 77.6655 26.8879 78.2616 26.8879 78.9048V98.6696C26.8879 100.076 28.387 100.958 29.5918 100.26L46.4852 90.4738C47.0482 90.1476 47.3958 89.5405 47.3958 88.883V68.6151C47.3958 67.1905 45.8623 66.3109 44.6578 67.0446L27.7644 77.3343ZM54.1657 90.4738C53.6026 90.1476 53.2551 89.5405 53.2551 88.883V68.6151C53.2551 67.1905 54.7885 66.3109 55.9931 67.0446L72.8864 77.3343C73.4303 77.6655 73.7629 78.2616 73.7629 78.9048V98.6696C73.7629 100.076 72.2639 100.958 71.0591 100.26L54.1657 90.4738ZM80.5053 77.3354C79.9578 77.6657 79.6223 78.2639 79.6223 78.9098V98.6854C79.6223 100.089 81.1146 100.971 82.3193 100.28L98.8492 90.801C99.7623 90.2726 100.325 89.2886 100.325 88.2228V68.5994C100.325 67.1782 98.7986 66.2982 97.594 67.025L80.5053 77.3354ZM27.8869 43.516C27.2747 43.2057 26.8879 42.5713 26.8879 41.8773V20.2843C26.8879 18.8597 28.4214 17.9801 29.6259 18.7138L46.5192 29.0035C47.0631 29.3347 47.3958 29.9308 47.3958 30.574V50.4405C47.3958 51.8025 45.9819 52.6884 44.7803 52.0793L27.8869 43.516ZM25.2995 48.8466C24.4548 48.4184 23.4609 48.4167 22.6147 48.8419L3.18906 58.6043C2.32342 59.0393 2.28963 60.2785 3.13024 60.7613L22.467 71.8684C23.3916 72.3995 24.5237 72.3974 25.4463 71.8629L44.6119 60.759C45.4474 60.2749 45.4136 59.0423 44.553 58.606L25.2995 48.8466ZM55.8706 52.0793C54.6689 52.6884 53.2551 51.8025 53.2551 50.4405V30.574C53.2551 29.9308 53.5878 29.3347 54.1316 29.0035L71.025 18.7138C72.2295 17.9801 73.7629 18.8597 73.7629 20.2843V41.8773C73.7629 42.5712 73.3762 43.2057 72.7639 43.516L55.8706 52.0793Z" fill="#0A00D8"/>
</svg>
