<svg width="90" height="101" viewBox="0 0 90 101" fill="none" xmlns="http://www.w3.org/2000/svg">
<path d="M39.0878 11.2468C39.0878 12.2899 38.5634 13.2629 37.6925 13.8358L14.3128 29.2148C13.4419 29.7877 12.9174 30.7607 12.9174 31.8037V60.0189C12.9174 61.1669 12.2831 62.2208 11.2691 62.7575L5.07821 66.0343C3.0167 67.1255 0.535645 65.6297 0.535645 63.2957V25.1192C0.535645 24.0762 1.06007 23.1031 1.93098 22.5303L34.2923 1.24327C36.3506 -0.110713 39.0878 1.367 39.0878 3.83222L39.0878 11.2468Z" fill="#0A00D8"/>
<path fill-rule="evenodd" clip-rule="evenodd" d="M39.065 30.5734C37.5059 30.5734 36.1349 31.5883 35.7031 33.062L28.035 58.5233V68.3699H38.5967V58.5233H50.285V68.3699H60.8468V58.5233L53.1787 33.062C52.7468 31.5883 51.3759 30.5734 49.8168 30.5734L39.065 30.5734ZM41.0459 49.1191L43.4952 39.7149H45.3866L47.8358 49.1191H41.0459Z" fill="#0A00D8"/>
<path d="M50.9413 11.2468C50.9413 12.2899 51.4658 13.2629 52.3367 13.8358L75.7164 29.2148C76.5873 29.7877 77.1118 30.7607 77.1118 31.8037V60.0189C77.1118 61.1669 77.7461 62.2208 78.7601 62.7575L84.951 66.0343C87.0125 67.1255 89.4935 65.6297 89.4935 63.2957V25.1192C89.4935 24.0762 88.9691 23.1031 88.0982 22.5303L55.7369 1.24327C53.6785 -0.110713 50.9413 1.367 50.9413 3.83222L50.9413 11.2468Z" fill="#0A00D8"/>
<path d="M16.177 73.5293C17.0898 73.0019 18.2065 72.9695 19.1482 73.4433L44.4293 86.1612C45.371 86.6349 46.4877 86.6026 47.4005 86.0751L72.0921 71.8074C73.0967 71.2269 74.3398 71.25 75.3222 71.8674L81.3204 75.6374C83.3178 76.8927 83.2634 79.824 81.2208 81.0043L47.812 100.309C46.8992 100.837 45.7825 100.869 44.8407 100.395L9.84771 82.7917C7.62195 81.672 7.53099 78.5253 9.68835 77.2787L16.177 73.5293Z" fill="#0A00D8"/>
</svg>
