<svg width="101" height="101" viewBox="0 0 101 101" fill="none" xmlns="http://www.w3.org/2000/svg">
<path d="M51.8042 0.186279C50.9496 0.186279 50.1323 0.550696 49.5431 1.1945L28.4481 24.2449C27.3133 25.485 28.1586 27.535 29.8048 27.535H71.2619V0.186279H51.8042Z" fill="#0A00D8"/>
<path d="M74.2339 67.6458C74.2339 69.3294 76.1496 70.2198 77.3559 69.0967L99.4947 48.4867C100.156 47.871 100.534 46.9915 100.534 46.0684V23.6718H74.2339V67.6458Z" fill="#0A00D8"/>
<path d="M27.2788 72.8376V100.186H47.6361C48.5043 100.186 49.3333 99.8103 49.9239 99.1486L70.2109 76.4201C71.3189 75.1787 70.4804 73.1599 68.8517 73.1477L27.2788 72.8376Z" fill="#0A00D8"/>
<path d="M97.4127 0.186279H74.2339V23.6718H100.534V3.43212C100.534 1.63949 99.1366 0.186279 97.4127 0.186279Z" fill="#0A00D8"/>
<path d="M1.51403 52.0795C0.888588 52.6927 0.534058 53.5471 0.534058 54.441V73.1159H24.3082V34.242C24.3082 32.5344 22.3453 31.6536 21.1505 32.8251L1.51403 52.0795Z" fill="#0A00D8"/>
<path d="M24.3082 72.8376H0.534058V96.7862C0.534058 98.5788 1.93155 100.032 3.65545 100.032H24.3082V72.8376Z" fill="#0A00D8"/>
</svg>
