<svg width="164" height="163" viewBox="0 0 164 163" fill="none" xmlns="http://www.w3.org/2000/svg">
<path d="M82.2073 0C80.8612 0 79.5664 0.516913 78.5904 1.44401L43.7225 34.5643C41.6587 36.5247 43.0462 40 45.8927 40H119V0H82.2073Z" fill="#0A00D8"/>
<path d="M45 123V163H83.3072C84.676 163 85.9907 162.466 86.9713 161.511L120.495 128.861C122.514 126.895 121.134 123.47 118.316 123.453L45 123Z" fill="#0A00D8"/>
<path d="M1.6488 74.1632C0.596497 75.1554 0 76.5378 0 77.9841V118V157.748C0 160.649 2.35129 163 5.25175 163H40V118V45.3023C40 42.5394 36.6973 41.1142 34.6872 43.0097L1.6488 74.1632Z" fill="#0A00D8"/>
<path d="M124 118.444C124 121.244 127.379 122.654 129.368 120.683L162.444 87.9261C163.44 86.9397 164 85.5963 164 84.1946V38V5.25175C164 2.35129 161.649 0 158.748 0H124V38V118.444Z" fill="#0A00D8"/>
</svg>
