<svg width="101" height="101" viewBox="0 0 101 101" fill="none" xmlns="http://www.w3.org/2000/svg">
<path d="M80.987 28.0249C81.8466 29.2109 83.3891 29.7138 84.7345 29.15L90.5094 26.7304C92.1783 26.0311 92.8619 24.0068 91.8538 22.4945C84.5255 11.501 73.0162 3.57705 59.6224 1.03781C57.8597 0.703635 56.2903 2.11324 56.2903 3.92154V10.2056C56.2903 11.6909 57.3661 12.9427 58.8025 13.2731C67.8581 15.3561 75.6808 20.7047 80.987 28.0249Z" fill="#0A00D8"/>
<path d="M0.325439 50.5783C0.325439 25.9854 17.7928 5.50567 40.9017 1.06203C42.6663 0.722705 44.2421 2.13288 44.2421 3.94407V10.2329C44.2421 11.7146 43.1703 12.9647 41.7385 13.2986C24.9144 17.2219 12.3736 32.4236 12.3736 50.5783C12.3736 60.857 16.3936 70.1891 22.935 77.0637C23.9397 78.1196 24.1642 79.7305 23.3878 80.9667L20.039 86.2988C19.0697 87.8422 16.9677 88.1746 15.6621 86.908C6.20806 77.7368 0.325439 64.8502 0.325439 50.5783Z" fill="#0A00D8"/>
<path d="M30.0864 93.0068C29.1337 94.5238 29.6951 96.5463 31.3425 97.2284C37.1957 99.6521 43.6058 100.989 50.3254 100.989C77.9397 100.989 100.325 78.4191 100.325 50.5783C100.325 46.9027 99.9353 43.319 99.1944 39.867C98.8164 38.1056 96.9288 37.1949 95.2782 37.8865L89.5311 40.2946C88.1632 40.8677 87.4298 42.3613 87.6892 43.8316C88.0756 46.0217 88.2772 48.2762 88.2772 50.5783C88.2772 71.7104 71.2856 88.8415 50.3254 88.8415C45.7121 88.8415 41.291 88.0116 37.201 86.4918C35.8037 85.9726 34.2075 86.4452 33.4109 87.7136L30.0864 93.0068Z" fill="#0A00D8"/>
<path d="M52.1412 30.687C50.9726 29.5047 49.0742 29.5031 47.9036 30.6833L40.9574 37.6864L69.3052 65.7532C71.1811 67.6105 74.3505 66.3026 74.3964 63.6523L74.5521 54.6605C74.5663 53.8436 74.2514 53.0558 73.6793 52.4771L52.1412 30.687Z" fill="#0A00D8"/>
<path d="M30.5914 67.5107L49.5103 48.3228L39.845 38.8938L26.3084 53.1101C25.7731 53.6722 25.4742 54.4213 25.4742 55.2005V65.3827C25.4742 68.0762 28.708 69.4209 30.5914 67.5107Z" fill="#0A00D8"/>
</svg>
