<svg width="100" height="91" viewBox="0 0 100 91" fill="none" xmlns="http://www.w3.org/2000/svg">
<path fill-rule="evenodd" clip-rule="evenodd" d="M74.6367 67.0365C74.1432 67.2859 74.1238 67.9907 74.6029 68.2674L85.5937 74.6158C86.1228 74.9214 86.772 74.9226 87.3022 74.619L98.3915 68.2688C98.8735 67.9927 98.8542 67.2842 98.3577 67.0355L87.2175 61.4541C86.7323 61.211 86.1623 61.212 85.6779 61.4568L74.6367 67.0365ZM42.6528 72.75C42.6528 71.9375 43.5284 71.4343 44.2192 71.8499L54.0191 77.7446C54.3331 77.9335 54.5254 78.2755 54.5254 78.6447V89.951C54.5254 90.7532 53.6697 91.2577 52.9788 90.8627L43.4994 85.4433C42.9758 85.1411 42.6528 84.5785 42.6528 83.9692V72.75ZM57.8856 78.6419C57.8856 78.2741 58.0764 77.9333 58.3883 77.744L68.0762 71.8611C68.7669 71.4416 69.6463 71.9445 69.6463 72.759V84.3467C69.6463 84.7226 69.447 85.0697 69.1241 85.2562L59.4362 90.8514C58.7453 91.2504 57.8856 90.7462 57.8856 89.9419V78.6419ZM73.0065 84.3467C73.0065 84.7226 73.2058 85.0697 73.5287 85.2562L83.2166 90.8514C83.9075 91.2504 84.7671 90.7462 84.7671 89.9419V78.6419C84.7671 78.2741 84.5764 77.9333 84.2645 77.744L74.5766 71.8611C73.8859 71.4416 73.0065 71.9445 73.0065 72.759V84.3467ZM88.1273 78.6447C88.1273 78.2755 88.3197 77.9335 88.6337 77.7446L98.4336 71.8499C99.1244 71.4343 100 71.9375 100 72.75V83.9692C100 84.5785 99.6771 85.1411 99.1534 85.4433L89.674 90.8627C88.9831 91.2577 88.1273 90.7532 88.1273 89.951V78.6447ZM57.8856 57.4723C57.8856 57.869 58.1074 58.2317 58.4585 58.4092L68.1464 63.305C68.8355 63.6533 69.6463 63.1468 69.6463 62.3681V51.0099C69.6463 50.6421 69.4555 50.3013 69.1436 50.112L59.4558 44.2291C58.765 43.8096 57.8856 44.3125 57.8856 45.127V57.4723ZM55.4351 61.4541C55.9203 61.211 56.4903 61.212 56.9747 61.4568L68.016 67.0365C68.5096 67.2859 68.529 67.9907 68.0499 68.2674L57.0589 74.6158C56.5298 74.9214 55.8806 74.9226 55.3504 74.619L44.2613 68.2688C43.7792 67.9927 43.7986 67.2842 44.295 67.0355L55.4351 61.4541ZM73.0065 62.3681C73.0065 63.1468 73.8173 63.6533 74.5064 63.305L84.1942 58.4092C84.5454 58.2317 84.7671 57.869 84.7671 57.4723V45.127C84.7671 44.3125 83.8878 43.8096 83.197 44.2291L73.5091 50.112C73.1973 50.3013 73.0065 50.6421 73.0065 51.0099V62.3681Z" fill="#0A00D8"/>
<path d="M72.1152 34.02C71.62 33.7631 71.0327 33.7631 70.5376 34.02L59.4952 39.749C59.0073 40.0022 58.9917 40.7015 59.4679 40.9766L70.4693 47.3309C71.0004 47.6376 71.6524 47.6376 72.1834 47.3309L83.1848 40.9765C83.661 40.7014 83.6455 40.0021 83.1575 39.7489L72.1152 34.02Z" fill="#0A00D8"/>
<path d="M10.8401 20.5669C9.14264 21.5646 7.59143 22.7822 6.22611 24.1804C5.99707 24.3989 5.77023 24.6231 5.54573 24.8531C5.30474 25.1 5.09534 25.3658 4.91745 25.6455C1.84258 29.4129 0 34.2151 0 39.4453C0 51.5481 9.86654 61.3594 22.0375 61.3594H43.9483C44.2594 61.3594 44.5661 61.2869 44.8442 61.1475L51.7511 57.6871C52.4278 57.348 52.8552 56.6559 52.8552 55.8989V53.6198C52.8552 52.5152 51.9597 51.6198 50.8552 51.6198H22.0375C15.2759 51.6198 9.79446 46.1691 9.79446 39.4453C9.79446 36.2208 11.0522 33.283 13.1242 31.0971C16.0885 28.3198 19.0922 27.5434 21.4151 27.7659C23.9082 28.0046 26.048 29.4082 27.2354 31.6958C28.4758 34.0858 31.4298 35.0233 33.8332 33.7897C36.2366 32.5562 37.1794 29.6188 35.9389 27.2289C33.2085 21.9682 28.1249 18.6237 22.3539 18.0711C22.251 18.0613 22.1479 18.0523 22.0448 18.0442C22.0445 17.9452 22.0431 17.8461 22.0404 17.7469C22.0385 17.6755 22.0375 17.6036 22.0375 17.5313C22.0375 13.228 25.5456 9.73959 29.8731 9.73959C32.6181 9.73959 34.64 10.6347 35.8488 11.6983C36.957 12.6734 37.7087 14.0436 37.7087 16.0703C37.7087 23.3224 44.8603 28.7318 52.0233 26.4066C53.2086 26.0218 54.484 25.8099 55.8284 25.8099C58.8091 25.8099 61.8668 27.3284 64.1808 29.7893C64.8539 30.5051 65.9151 30.7647 66.7872 30.3122L68.2154 29.5712C70.166 28.5592 72.4867 28.5592 74.4374 29.5712V29.5712C74.9702 29.8477 75.538 29.3145 75.2665 28.7791C71.5532 21.4561 64.2413 16.0703 55.8284 16.0703C53.439 16.0703 51.1384 16.4485 48.9839 17.1479C48.2666 17.3807 47.5031 16.8206 47.5031 16.0703C47.5031 6.38807 39.6099 0 29.8731 0C20.1363 0 12.2431 7.84901 12.2431 17.5313C12.2431 17.6898 12.2452 17.8478 12.2494 18.0054C12.2772 19.0465 11.7418 20.0369 10.8401 20.5669Z" fill="#0A00D8"/>
</svg>
