<svg width="88" height="101" viewBox="0 0 88 101" fill="none" xmlns="http://www.w3.org/2000/svg">
<path fill-rule="evenodd" clip-rule="evenodd" d="M0.694214 3.33959C0.694214 1.68868 2.03659 0.350342 3.69249 0.350342H84.6959C86.3518 0.350342 87.6942 1.68867 87.6942 3.33959V97.3611C87.6942 99.012 86.3518 100.35 84.6959 100.35H3.69249C2.03659 100.35 0.694214 99.012 0.694214 97.3611V3.33959ZM13.488 89.5891C12.3834 89.5891 11.488 88.6936 11.488 87.5891V13.1116C11.488 12.0071 12.3834 11.1116 13.488 11.1116H74.9004C76.005 11.1116 76.9004 12.0071 76.9004 13.1116V87.5891C76.9004 88.6936 76.005 89.5891 74.9004 89.5891H13.488Z" fill="#0A00D8"/>
<path fill-rule="evenodd" clip-rule="evenodd" d="M40.4018 21.0615C40.0871 21.1248 39.8682 21.4043 39.8682 21.7266V28.7063C39.8682 28.8704 39.7546 29.0121 39.5956 29.0498C37.3983 29.5709 35.3381 30.4482 33.4788 31.6177C33.3396 31.7052 33.1584 31.6861 33.0423 31.5695L27.9263 26.4327C27.7108 26.2164 27.3822 26.1676 27.1252 26.332C26.5324 26.7115 25.3906 27.5227 24.0189 28.8999C22.9825 29.9405 22.1279 31.1481 21.7004 31.7924C21.5224 32.0605 21.5645 32.4136 21.7914 32.6415L26.895 37.7658C27.0108 37.882 27.0301 38.0633 26.9437 38.2029C25.7113 40.1941 24.8091 42.4129 24.314 44.782C24.2798 44.9459 24.1368 45.0645 23.9701 45.0645H16.9284C16.6237 45.0645 16.3569 45.2633 16.291 45.562C16.1391 46.2512 15.903 47.6355 15.903 49.5832C15.903 51.0548 16.1491 52.5155 16.3005 53.2746C16.3635 53.5906 16.6419 53.8104 16.9629 53.8104H24.1647C24.3259 53.8104 24.4657 53.9215 24.5054 54.0783C25.0727 56.3224 26.0084 58.4189 27.244 60.2992C27.3361 60.4394 27.3189 60.6257 27.2006 60.7445L21.9923 65.9739C21.7768 66.1902 21.7282 66.5202 21.892 66.7782C22.2699 67.3734 23.0779 68.5199 24.4495 69.8971C25.4859 70.9377 26.6886 71.7957 27.3303 72.225C27.5974 72.4037 27.949 72.3615 28.176 72.1336L33.5292 66.7587C33.6427 66.6447 33.819 66.6236 33.9573 66.7054C35.7348 67.7564 37.6846 68.5451 39.7539 69.0183C39.9143 69.055 40.0293 69.1973 40.0293 69.3624V77.0086C40.0293 77.3145 40.2273 77.5824 40.5248 77.6485C41.2112 77.8011 42.59 78.0381 44.5298 78.0381C45.9954 78.0381 47.4502 77.791 48.2062 77.639C48.5209 77.5757 48.7399 77.2962 48.7399 76.9739V69.3279C48.7399 69.1637 48.8536 69.022 49.0127 68.9844C51.1313 68.4833 53.1227 67.6512 54.9297 66.5453C55.0685 66.4604 55.2474 66.4804 55.3624 66.5958L61.0255 72.2818C61.2409 72.4981 61.5696 72.5469 61.8265 72.3825C62.4193 72.003 63.5611 71.1918 64.9328 69.8146C65.9692 68.774 66.8238 67.5664 67.2514 66.9221C67.4293 66.654 67.3873 66.3009 67.1603 66.073L61.5907 60.4808C61.4738 60.3634 61.4554 60.1799 61.5443 60.04C62.6353 58.3243 63.4791 56.4348 64.0253 54.4221C64.0671 54.2682 64.2055 54.1602 64.3644 54.1602H72.1585C72.4794 54.1602 72.7578 53.9404 72.8208 53.6244C72.9722 52.8653 73.2184 51.4047 73.2184 49.933C73.2184 47.9854 72.9823 46.6011 72.8303 45.9119C72.7645 45.6132 72.4977 45.4144 72.193 45.4144L64.7207 45.4144C64.5517 45.4144 64.4074 45.2925 64.3755 45.1259C63.9248 42.7679 63.072 40.5534 61.8915 38.5572C61.8093 38.4182 61.8301 38.2406 61.9439 38.1262L67.3078 32.7406C67.5233 32.5243 67.5719 32.1943 67.4081 31.9363C67.0302 31.3411 66.2222 30.1946 64.8506 28.8174C63.8142 27.7768 62.6114 26.9188 61.9698 26.4895C61.7027 26.3108 61.351 26.353 61.1241 26.5809L55.9303 31.7958C55.8123 31.9142 55.6274 31.9318 55.4878 31.84C53.4919 30.5279 51.2533 29.5571 48.8544 29.0101C48.6939 28.9735 48.5788 28.8311 48.5788 28.6659V21.6919C48.5788 21.386 48.3807 21.1181 48.0832 21.052C47.3968 20.8994 46.0181 20.6624 44.0783 20.6624C42.6126 20.6624 41.1579 20.9095 40.4018 21.0615ZM58.1323 49.0156C58.1323 56.6929 51.9796 62.9578 44.3104 62.9809C36.6183 63.0039 30.4054 56.7158 30.4054 49.0156C30.4054 41.3154 36.6183 35.0273 44.3104 35.0503C51.9796 35.0734 58.1323 41.3383 58.1323 49.0156Z" fill="#0A00D8"/>
</svg>
