<svg width="101" height="101" viewBox="0 0 101 101" fill="none" xmlns="http://www.w3.org/2000/svg">
<path fill-rule="evenodd" clip-rule="evenodd" d="M69.0458 92.9356C82.329 92.9356 93.0971 82.2751 93.0971 69.1248C93.0971 55.9744 82.329 45.3139 69.0458 45.3139C55.7627 45.3139 44.9945 55.9744 44.9945 69.1248C44.9945 82.2751 55.7627 92.9356 69.0458 92.9356ZM69.0458 100.435C86.5127 100.435 100.672 86.417 100.672 69.1248C100.672 51.8326 86.5127 37.8145 69.0458 37.8145C51.579 37.8145 37.4193 51.8326 37.4193 69.1248C37.4193 86.417 51.579 100.435 69.0458 100.435Z" fill="#0A00D8"/>
<path fill-rule="evenodd" clip-rule="evenodd" d="M56.9296 54.2675C57.6724 53.5386 58.8714 53.5437 59.6078 54.2791L83.8637 78.5031C84.6 79.2385 84.5948 80.4256 83.852 81.1546L81.162 83.7944C80.4192 84.5234 79.2202 84.5182 78.4838 83.7828L54.228 59.5588C53.4916 58.8235 53.4969 57.6364 54.2397 56.9074L56.9296 54.2675Z" fill="#0A00D8"/>
<path fill-rule="evenodd" clip-rule="evenodd" d="M54.1333 81.0261C53.3969 80.2907 53.4022 79.1036 54.145 78.3746L78.6136 54.3613C79.3564 53.6323 80.5555 53.6375 81.2918 54.3728L83.9583 57.0359C84.6947 57.7712 84.6895 58.9583 83.9467 59.6873L59.478 83.7007C58.7352 84.4296 57.5361 84.4244 56.7998 83.6891L54.1333 81.0261Z" fill="#0A00D8"/>
<path d="M13.9205 10.46C12.0775 10.46 10.5834 11.9712 10.5834 13.8353V70.743C10.5834 72.6071 12.0775 74.1183 13.9205 74.1183H32.7624C33.2516 77.6488 34.2524 81.0154 35.6874 84.1432H3.15004C1.78159 84.1432 0.672241 83.0211 0.672241 81.637V2.94129C0.672241 1.55714 1.78159 0.435059 3.15004 0.435059H69.555C70.9234 0.435059 72.0328 1.55714 72.0328 2.94129V32.9336C71.0474 32.8547 70.0513 32.8145 69.0458 32.8145C66.6796 32.8145 64.3647 33.0373 62.1216 33.4632V13.8353C62.1216 11.9712 60.6275 10.46 58.7846 10.46H13.9205Z" fill="#0A00D8"/>
<path d="M54.044 35.9919H52.791C52.6566 35.9919 52.5418 35.8939 52.5165 35.76C52.1581 33.8642 51.4799 32.0838 50.5411 30.4788C50.4757 30.367 50.4922 30.2243 50.5827 30.1323L54.8484 25.8024C55.0197 25.6284 55.0584 25.3631 54.9282 25.1557C54.6276 24.6772 53.9851 23.7554 52.8943 22.6482C52.0701 21.8116 51.1136 21.1217 50.6033 20.7765C50.3909 20.6329 50.1112 20.6668 49.9308 20.85L45.8004 25.0427C45.7066 25.1379 45.5595 25.1521 45.4485 25.0783C43.8612 24.0234 42.081 23.2428 40.1732 22.803C40.0456 22.7736 39.954 22.6592 39.954 22.5264V16.9193C39.954 16.6733 39.7966 16.458 39.56 16.4048C39.0141 16.2822 37.9177 16.0916 36.375 16.0916C35.2094 16.0916 34.0525 16.2903 33.4513 16.4125C33.201 16.4633 33.0269 16.6881 33.0269 16.9472V22.5589C33.0269 22.6907 32.9366 22.8047 32.8101 22.835C31.0627 23.2539 29.4243 23.9593 27.9457 24.8995C27.8351 24.9699 27.691 24.9545 27.5986 24.8608L23.5301 20.7309C23.3587 20.557 23.0973 20.5177 22.893 20.6499C22.4216 20.955 21.5135 21.6072 20.4227 22.7145C19.5985 23.5511 18.9189 24.522 18.5789 25.04C18.4373 25.2556 18.4708 25.5395 18.6513 25.7227L22.7099 29.8425C22.802 29.936 22.8173 30.0817 22.7486 30.1939C21.7686 31.7949 21.0511 33.5788 20.6574 35.4835C20.6302 35.6152 20.5164 35.7106 20.3839 35.7106H14.7839C14.5416 35.7106 14.3294 35.8705 14.2771 36.1106C14.1562 36.6648 13.9685 37.7777 13.9685 39.3436C13.9685 40.5268 14.1642 41.7011 14.2846 42.3115C14.3347 42.5655 14.5561 42.7422 14.8114 42.7422H20.5387C20.6668 42.7422 20.778 42.8315 20.8096 42.9576C21.2607 44.7618 22.0048 46.4474 22.9875 47.9592C23.0607 48.0719 23.047 48.2216 22.953 48.3171L18.811 52.5216C18.6397 52.6955 18.601 52.9608 18.7312 53.1682C19.0318 53.6467 19.6743 54.5685 20.7651 55.6758C21.5893 56.5124 22.5458 57.2022 23.0561 57.5474C23.2685 57.6911 23.5482 57.6571 23.7286 57.4739L27.9858 53.1525C28.0761 53.0609 28.2162 53.0439 28.3263 53.1097C29.7398 53.9547 31.2904 54.5887 32.9361 54.9692C33.0636 54.9987 33.1551 55.1131 33.1551 55.2459V61.3933C33.1551 61.473 33.1716 61.5495 33.202 61.6183C34.0861 57.4452 35.6924 53.5386 37.8842 50.0312C37.4502 50.0853 37.0082 50.1138 36.5596 50.1152C30.4424 50.1338 25.5016 45.0782 25.5016 38.8873C25.5016 32.6964 30.4424 27.6408 36.5596 27.6594C42.6586 27.6779 47.5516 32.7148 47.5516 38.8873C47.5516 39.1759 47.5409 39.4621 47.5198 39.7454C49.5479 38.283 51.7327 37.0221 54.044 35.9919Z" fill="#0A00D8"/>
</svg>
