<svg width="101" height="101" viewBox="0 0 101 101" fill="none" xmlns="http://www.w3.org/2000/svg">
<path fill-rule="evenodd" clip-rule="evenodd" d="M50.387 88.0489C71.387 88.0489 88.4109 71.025 88.4109 50.0249C88.4109 29.0249 71.387 12.001 50.387 12.001C29.3869 12.001 12.363 29.0249 12.363 50.0249C12.363 71.025 29.3869 88.0489 50.387 88.0489ZM50.387 100.025C78.0012 100.025 100.387 77.6391 100.387 50.0249C100.387 22.4107 78.0012 0.0249023 50.387 0.0249023C22.7727 0.0249023 0.386963 22.4107 0.386963 50.0249C0.386963 77.6391 22.7727 100.025 50.387 100.025Z" fill="#0A00D8"/>
<path fill-rule="evenodd" clip-rule="evenodd" d="M84.2193 48.5524L82.9206 46.4876L82.8882 46.4401C82.4299 45.7692 81.1642 43.9166 80.3883 42.8897C78.8031 40.7917 76.5045 37.983 73.6561 35.1589C68.1224 29.6725 59.7885 23.4025 50.1207 23.3783C40.431 23.354 32.2133 29.6047 26.7926 35.0808C24.0038 37.898 21.7666 40.702 20.2278 42.7966C19.4743 43.8223 18.2486 45.6747 17.8053 46.3446L17.7744 46.3912L16.5546 48.4003L17.7454 50.427L17.7594 50.4498C17.883 50.6517 18.2083 51.1833 18.4071 51.4937C18.8202 52.139 19.4213 53.0475 20.1916 54.1317C21.7274 56.2933 23.9611 59.1889 26.7458 62.1013C32.1476 67.7509 40.3711 74.252 50.1017 74.2763C59.8176 74.3006 68.169 67.8562 73.69 62.2448C76.537 59.3511 78.8339 56.4711 80.4174 54.32C81.2116 53.2412 81.8326 52.3371 82.2599 51.695C82.4736 51.3738 82.8118 50.8434 82.9268 50.6629L84.2193 48.5524ZM75.0058 48.6102C74.7857 48.307 74.5418 47.9767 74.275 47.6237C72.8465 45.7331 70.7896 43.223 68.2707 40.7257C63.0699 35.5693 56.6221 31.1863 50.1017 31.17C43.6032 31.1538 37.2911 35.4827 32.2292 40.5963C29.7766 43.0739 27.7843 45.5673 26.4038 47.4465C26.1336 47.8142 25.8878 48.1571 25.6676 48.4703C25.8971 48.8084 26.155 49.181 26.4399 49.582C27.8234 51.5292 29.8194 54.1128 32.276 56.6821C37.3569 61.996 43.6631 66.4684 50.1207 66.4846C56.5931 66.5008 63.0233 62.045 68.2368 56.7461C70.7571 54.1846 72.8157 51.6069 74.2459 49.664C74.5244 49.2857 74.7781 48.9328 75.0058 48.6102Z" fill="#0A00D8"/>
<path d="M62.6624 49.1267C62.6624 55.7409 57.3006 61.1027 50.6864 61.1027C44.0722 61.1027 38.7103 55.7409 38.7103 49.1267C38.7103 42.5125 44.0722 37.1507 50.6864 37.1507C57.3006 37.1507 62.6624 42.5125 62.6624 49.1267Z" fill="#0A00D8"/>
</svg>
