<svg width="101" height="101" viewBox="0 0 101 101" fill="none" xmlns="http://www.w3.org/2000/svg">
<path fill-rule="evenodd" clip-rule="evenodd" d="M3.89481 0.820557C2.22121 0.820557 0.864502 2.17317 0.864502 3.8417V47.6484C0.864502 49.3169 2.22121 50.6695 3.89481 50.6695H97.8342C99.5078 50.6695 100.865 49.3169 100.865 47.6484V3.8417C100.865 2.17317 99.5078 0.820557 97.8342 0.820557H3.89481ZM88.7433 15.9263C88.7433 14.2578 87.3866 12.9051 85.713 12.9051H16.016C14.3424 12.9051 12.9857 14.2578 12.9857 15.9263V35.5638C12.9857 37.2323 14.3424 38.5849 16.016 38.5849H86.6221C87.7936 38.5849 88.7433 37.6381 88.7433 36.4701V15.9263Z" fill="#0A00D8"/>
<path d="M92.6827 57.316C92.6827 55.6475 91.326 54.2949 89.6524 54.2949H83.5918C81.9182 54.2949 80.5615 55.6475 80.5615 57.316V85.7148C80.5615 87.3834 79.2048 88.736 77.5312 88.736H25.713C24.0394 88.736 22.6827 87.3834 22.6827 85.7148V57.316C22.6827 55.6475 21.326 54.2949 19.6524 54.2949H13.5918C11.9182 54.2949 10.5615 55.6475 10.5615 57.316V97.7994C10.5615 99.4679 11.9182 100.821 13.5918 100.821H89.6524C91.326 100.821 92.6827 99.4679 92.6827 97.7994V57.316Z" fill="#0A00D8"/>
<path d="M42.3797 75.4429C40.7061 75.4429 39.3494 74.0903 39.3494 72.4218V66.3795C39.3494 64.7109 40.7061 63.3583 42.3797 63.3583H59.9554C61.629 63.3583 62.9857 64.7109 62.9857 66.3795V72.4218C62.9857 74.0903 61.629 75.4429 59.9554 75.4429H42.3797Z" fill="#0A00D8"/>
</svg>
