<svg width="101" height="101" viewBox="0 0 101 101" fill="none" xmlns="http://www.w3.org/2000/svg">
<path fill-rule="evenodd" clip-rule="evenodd" d="M0.0721436 3.45613C0.0721436 1.79762 1.42886 0.453125 3.10245 0.453125H97.0418C98.7154 0.453125 100.072 1.79762 100.072 3.45613V97.4501C100.072 99.1086 98.7154 100.453 97.0418 100.453H3.10245C1.42886 100.453 0.0721436 99.1086 0.0721436 97.4501V3.45613ZM15.2237 12.4651C13.5501 12.4651 12.1934 13.8096 12.1934 15.4681V85.4381C12.1934 87.0966 13.5501 88.4411 15.2237 88.4411H84.9206C86.5942 88.4411 87.9509 87.0966 87.9509 85.4381V15.4681C87.9509 13.8096 86.5942 12.4651 84.9206 12.4651H15.2237Z" fill="#0A00D8"/>
<path fill-rule="evenodd" clip-rule="evenodd" d="M22.4964 19.6723C21.827 19.6723 21.2843 20.2101 21.2843 20.8735V43.0958C21.2843 43.7592 21.827 44.297 22.4964 44.297H42.1934C42.8628 44.297 43.4055 43.7592 43.4055 43.0958V20.8735C43.4055 20.2101 42.8628 19.6723 42.1934 19.6723H22.4964ZM28.557 38.291C27.8876 38.291 27.3449 37.7532 27.3449 37.0898V26.8796C27.3449 26.2161 27.8876 25.6784 28.557 25.6784H36.1327C36.8022 25.6784 37.3449 26.2161 37.3449 26.8796V37.0898C37.3449 37.7532 36.8022 38.291 36.1327 38.291H28.557Z" fill="#0A00D8"/>
<path fill-rule="evenodd" clip-rule="evenodd" d="M57.6479 56.9096C56.9785 56.9096 56.4358 57.4474 56.4358 58.1108V80.333C56.4358 80.9964 56.9785 81.5342 57.6479 81.5342H77.3449C78.0143 81.5342 78.557 80.9964 78.557 80.333V58.1108C78.557 57.4474 78.0143 56.9096 77.3449 56.9096H57.6479ZM63.7085 75.5282C63.0391 75.5282 62.4964 74.9904 62.4964 74.327V64.1168C62.4964 63.4534 63.0391 62.9156 63.7085 62.9156H71.2843C71.9537 62.9156 72.4964 63.4534 72.4964 64.1168V74.327C72.4964 74.9904 71.9537 75.5282 71.2843 75.5282H63.7085Z" fill="#0A00D8"/>
<path d="M64.6176 26.8796C64.6176 26.2161 64.0749 25.6784 63.4055 25.6784H60.0721C59.4027 25.6784 58.86 25.1406 58.86 24.4771V20.8735C58.86 20.2101 59.4027 19.6723 60.0721 19.6723H69.4661C70.1355 19.6723 70.6782 20.2101 70.6782 20.8735V37.0898C70.6782 37.7532 71.2209 38.291 71.8903 38.291H74.6176C75.287 38.291 75.8297 38.8288 75.8297 39.4922V43.0958C75.8297 43.7592 75.287 44.297 74.6176 44.297H60.0721C59.4027 44.297 58.86 43.7592 58.86 43.0958V39.4922C58.86 38.8288 59.4027 38.291 60.0721 38.291H63.4055C64.0749 38.291 64.6176 37.7532 64.6176 37.0898V26.8796Z" fill="#0A00D8"/>
<path d="M24.3146 61.7144C24.3146 62.3778 24.8573 62.9156 25.5267 62.9156H28.86C29.5295 62.9156 30.0721 63.4534 30.0721 64.1168V74.327C30.0721 74.9904 29.5295 75.5282 28.86 75.5282H25.5267C24.8573 75.5282 24.3146 76.066 24.3146 76.7294V80.333C24.3146 80.9964 24.8573 81.5342 25.5267 81.5342H40.0721C40.7416 81.5342 41.2843 80.9964 41.2843 80.333V76.7294C41.2843 76.066 40.7416 75.5282 40.0721 75.5282H37.3449C36.6754 75.5282 36.1327 74.9904 36.1327 74.327V58.1108C36.1327 57.4474 35.5901 56.9096 34.9206 56.9096H25.5267C24.8573 56.9096 24.3146 57.4474 24.3146 58.1108V61.7144Z" fill="#0A00D8"/>
</svg>
