<svg width="72" height="101" viewBox="0 0 72 101" fill="none" xmlns="http://www.w3.org/2000/svg">
<path fill-rule="evenodd" clip-rule="evenodd" d="M26.7659 0.486572C27.3182 0.486572 27.7659 0.934286 27.7659 1.48657V11.6624C27.7659 12.2147 28.2136 12.6624 28.7659 12.6624H34.5634C35.1157 12.6624 35.5634 12.2147 35.5634 11.6624V1.48657C35.5634 0.934287 36.0111 0.486572 36.5634 0.486572H47.4615C48.0138 0.486572 48.4615 0.934287 48.4615 1.48657V13.1066C48.4615 13.4164 48.6051 13.7087 48.8503 13.898L63.5155 25.2242C63.7607 25.4136 63.9043 25.7059 63.9043 26.0157V34.0252V42.1083C63.9043 42.3756 64.0113 42.6317 64.2013 42.8196L71.6345 50.1661C71.8245 50.354 71.9315 50.6101 71.9315 50.8774V69.8816C71.9315 70.114 71.8506 70.3391 71.7026 70.5183L58.3511 86.6882C58.1611 86.9183 57.8784 87.0515 57.58 87.0515H50.0575C49.5052 87.0515 49.0575 87.4992 49.0575 88.0515V99.4866C49.0575 100.039 48.6097 100.487 48.0575 100.487H37.1593C36.607 100.487 36.1593 100.039 36.1593 99.4866V88.0515C36.1593 87.4992 35.7116 87.0515 35.1593 87.0515H28.7659C28.2136 87.0515 27.7659 87.4992 27.7659 88.0515V99.4866C27.7659 100.039 27.3182 100.487 26.7659 100.487H15.8677C15.3154 100.487 14.8677 100.039 14.8677 99.4866V88.0515C14.8677 87.4992 14.42 87.0515 13.8677 87.0515H1.93152C1.37923 87.0515 0.931519 86.6038 0.931519 86.0515V75.2603C0.931519 74.7081 1.37923 74.2603 1.93152 74.2603H8.22599C8.77828 74.2603 9.22599 73.8126 9.22599 73.2603V26.4536C9.22599 25.9013 8.77828 25.4536 8.22599 25.4536H1.93152C1.37923 25.4536 0.931519 25.0059 0.931519 24.4536V13.6624C0.931519 13.1101 1.37923 12.6624 1.93152 12.6624H13.8677C14.42 12.6624 14.8677 12.2147 14.8677 11.6624V1.48657C14.8677 0.934287 15.3154 0.486572 15.8677 0.486572H26.7659ZM23.1242 25.4536C22.5719 25.4536 22.1242 25.9013 22.1242 26.4536V38.992C22.1242 39.5443 22.5719 39.992 23.1242 39.992H50.0061C50.5584 39.992 51.0061 39.5443 51.0061 38.992V30.6637C51.0061 30.3392 50.8486 30.0348 50.5837 29.8474L44.6336 25.6373C44.4647 25.5177 44.2629 25.4536 44.056 25.4536H23.1242ZM54.4143 53.11C54.2248 52.9018 53.9563 52.7832 53.6748 52.7832H23.1242C22.5719 52.7832 22.1242 53.2309 22.1242 53.7832V73.2603C22.1242 73.8126 22.5719 74.2603 23.1242 74.2603H50.6346C50.9291 74.2603 51.2087 74.1305 51.3987 73.9054L58.7975 65.1415C58.9498 64.9611 59.0334 64.7326 59.0334 64.4964V58.5701C59.0334 58.321 58.9404 58.0809 58.7728 57.8968L54.4143 53.11Z" fill="#0A00D8"/>
</svg>
