<svg width="101" height="101" viewBox="0 0 101 101" fill="none" xmlns="http://www.w3.org/2000/svg">
<path fill-rule="evenodd" clip-rule="evenodd" d="M69.4762 93.2638C82.6798 93.2638 93.3835 82.5602 93.3835 69.3565C93.3835 56.1529 82.6798 45.4492 69.4762 45.4492C56.2725 45.4492 45.5689 56.1529 45.5689 69.3565C45.5689 82.5602 56.2725 93.2638 69.4762 93.2638ZM69.4762 100.794C86.8384 100.794 100.913 86.7188 100.913 69.3565C100.913 51.9943 86.8384 37.9194 69.4762 37.9194C52.1139 37.9194 38.039 51.9943 38.039 69.3565C38.039 86.7188 52.1139 100.794 69.4762 100.794Z" fill="#0A00D8"/>
<path d="M67.6484 72.3018C67.0349 72.3018 66.5206 71.8382 66.4572 71.228L64.6981 54.3005C64.6247 53.5939 65.1789 52.9791 65.8893 52.9791H72.8538C73.5642 52.9791 74.1184 53.5939 74.045 54.3005L72.2859 71.228C72.2225 71.8382 71.7082 72.3018 71.0947 72.3018H67.6484Z" fill="#0A00D8"/>
<path d="M69.0787 85.734C66.4851 85.734 64.3935 83.6391 64.3935 81.0414C64.3935 78.4437 66.4851 76.265 69.0787 76.3488C71.6724 76.3488 73.764 78.4437 73.764 81.0414C73.764 83.6391 71.6724 85.734 69.0787 85.734Z" fill="#0A00D8"/>
<path d="M9.80573 12.68C9.80573 11.0265 11.1462 9.68598 12.7998 9.68598H53.0522C54.7058 9.68598 56.0462 11.0265 56.0462 12.68V34.4132C58.8622 33.3302 61.8422 32.5779 64.9386 32.2036V3.01668C64.9386 1.7889 63.9433 0.793579 62.7155 0.793579H3.13643C1.90865 0.793579 0.91333 1.7889 0.91333 3.01668V72.8221C0.91333 74.0498 1.90865 75.0452 3.13643 75.0452H32.4805C32.1977 73.1902 32.051 71.2905 32.051 69.3565C32.051 68.2773 32.0967 67.2088 32.1862 66.1528H12.7998C11.1462 66.1528 9.80573 64.8123 9.80573 63.1587V12.68Z" fill="#0A00D8"/>
<path d="M39.1082 47.4787C37.1497 50.1924 35.546 53.1792 34.3651 56.3711H22.1368C20.4832 56.3711 19.1428 55.0306 19.1428 53.3771V50.4727C19.1428 48.8191 20.4832 47.4787 22.1368 47.4787H39.1082Z" fill="#0A00D8"/>
<path d="M47.1492 39.3178C45.9723 40.194 44.8486 41.1378 43.7839 42.1433H22.1368C20.4832 42.1433 19.1428 40.8028 19.1428 39.1493V36.2449C19.1428 34.5913 20.4832 33.2509 22.1368 33.2509H44.1598C45.8134 33.2509 47.1538 34.5913 47.1538 36.2449V39.1492C47.1538 39.2058 47.1523 39.262 47.1492 39.3178Z" fill="#0A00D8"/>
<path d="M22.1368 19.4677C20.4832 19.4677 19.1428 20.8081 19.1428 22.4617V25.3661C19.1428 27.0196 20.4832 28.3601 22.1368 28.3601H44.1598C45.8134 28.3601 47.1538 27.0196 47.1538 25.3661V22.4617C47.1538 20.8081 45.8134 19.4677 44.1598 19.4677H22.1368Z" fill="#0A00D8"/>
</svg>
