<svg width="16" height="16" viewBox="0 0 16 16" fill="none" xmlns="http://www.w3.org/2000/svg">
<path fill-rule="evenodd" clip-rule="evenodd" d="M13.382 2.32498C13.5002 2.37395 13.5941 2.46787 13.6431 2.58608L15.8217 7.84579C15.8707 7.964 15.8707 8.09683 15.8217 8.21504L13.6431 13.4747C13.5941 13.593 13.5002 13.6869 13.382 13.7358L8.12227 15.9144C8.00405 15.9634 7.87123 15.9634 7.75301 15.9144L2.49331 13.7358C2.37509 13.6869 2.28118 13.593 2.23221 13.4747L0.0535706 8.21504C0.0046041 8.09683 0.00460407 7.964 0.0535706 7.84579L2.23221 2.58608C2.28118 2.46787 2.37509 2.37395 2.49331 2.32498L7.75301 0.146344C7.87123 0.0973774 8.00405 0.0973776 8.12227 0.146344L13.382 2.32498ZM7.75301 2.23517C7.87123 2.18621 8.00405 2.18621 8.12227 2.23517L11.122 3.47771L3.37305 11.1861L2.14241 8.21504C2.09344 8.09683 2.09344 7.964 2.14241 7.84579L3.70924 4.06312C3.7582 3.94489 3.85213 3.85097 3.97034 3.802L7.75301 2.23517ZM4.71922 12.569L7.75301 13.8257C7.87123 13.8746 8.00405 13.8746 8.12227 13.8257L11.9049 12.2588C12.0232 12.2098 12.1171 12.1159 12.166 11.9977L13.7329 8.21504C13.7818 8.09683 13.7818 7.964 13.7329 7.84579L12.4882 4.84075L4.71922 12.569Z" fill="#0A00D8"/>
</svg>
