<svg width="101" height="101" viewBox="0 0 101 101" fill="none" xmlns="http://www.w3.org/2000/svg">
<path fill-rule="evenodd" clip-rule="evenodd" d="M84.474 14.6766C85.2202 14.9857 85.8131 15.5786 86.1222 16.3248L99.8749 49.5267C100.184 50.2729 100.184 51.1114 99.8749 51.8576L86.1222 85.0594C85.8131 85.8057 85.2202 86.3986 84.474 86.7077L51.2722 100.46C50.5259 100.769 49.6875 100.769 48.9412 100.46L15.7394 86.7077C14.9931 86.3986 14.4003 85.8057 14.0912 85.0594L0.338515 51.8576C0.0294143 51.1114 0.0294141 50.2729 0.338515 49.5267L14.0912 16.3248C14.4003 15.5786 14.9931 14.9857 15.7394 14.6766L48.9412 0.923964C49.6875 0.614863 50.5259 0.614864 51.2722 0.923965L84.474 14.6766ZM48.9412 14.1097C49.6875 13.8006 50.5259 13.8006 51.2722 14.1097L70.2079 21.9532L21.2927 70.6123L13.5243 51.8576C13.2152 51.1114 13.2152 50.2729 13.5243 49.5267L23.4149 25.6486C23.724 24.9023 24.3169 24.3094 25.0631 24.0003L48.9412 14.1097ZM29.7904 79.342L48.9412 87.2746C49.6875 87.5837 50.5259 87.5837 51.2722 87.2746L75.1503 77.3839C75.8965 77.0748 76.4894 76.4819 76.7985 75.7357L86.6891 51.8576C86.9982 51.1114 86.9982 50.2729 86.6891 49.5267L78.8318 30.5574L29.7904 79.342Z" fill="#0A00D8"/>
</svg>
