<svg width="99" height="99" viewBox="0 0 99 99" fill="none" xmlns="http://www.w3.org/2000/svg">
<path fill-rule="evenodd" clip-rule="evenodd" d="M16.7038 34.0471C15.7492 32.7203 16.0374 30.8729 17.3507 29.8999L24.4351 24.6516C25.7746 23.6593 27.6669 23.9546 28.6405 25.3077L46.8831 50.6639C47.8377 51.9907 47.5495 53.8381 46.2361 54.8111L39.1518 60.0594C37.8123 61.0517 35.92 60.7564 34.9464 59.4033L16.7038 34.0471ZM48.301 10.6397C47.3464 9.31291 47.6346 7.46547 48.948 6.49253L55.7195 1.47604C57.0589 0.483722 58.9513 0.778954 59.9248 2.13213L67.7266 12.9762C68.6811 14.3029 68.3929 16.1504 67.0796 17.1233L60.3081 22.1398C58.9686 23.1321 57.0763 22.8369 56.1027 21.4837L48.301 10.6397ZM12.9984 36.8961C12.0249 35.5429 10.1325 35.2477 8.79306 36.24L2.02156 41.2565C0.708243 42.2294 0.420015 44.0769 1.37455 45.4036L19.6172 70.7601C20.5908 72.1133 22.4832 72.4085 23.8226 71.4162L30.5941 66.3996C31.9074 65.4267 32.1957 63.5793 31.2411 62.2525L12.9984 36.8961ZM32.6589 22.2277C31.7044 20.9009 31.9926 19.0535 33.3059 18.0805L40.3903 12.8322C41.7298 11.8399 43.6221 12.1352 44.5956 13.4883L52.3974 24.3323C53.352 25.6591 53.0637 27.5065 51.7504 28.4795L44.6661 33.7277C43.3266 34.72 41.4343 34.4248 40.4607 33.0716L32.6589 22.2277ZM73.4665 20.8837C72.4841 19.5569 70.612 19.278 69.2854 20.2608L46.9731 36.7904C45.6512 37.7697 45.3692 39.633 46.3421 40.9596L50.9779 47.2807C51.9541 48.6119 53.8246 48.8996 55.1557 47.9233L64.7304 40.9006C66.3467 39.9363 67.9326 40.3349 68.5392 41.1779C69.196 42.0906 69.0134 43.9546 67.2646 45.25L26.5806 75.3923C25.2673 76.3653 24.9792 78.2127 25.9337 79.5394L38.6568 97.2239C39.627 98.5723 41.5105 98.871 42.8502 97.8889L97.2311 58.0216C98.5669 57.0423 98.8516 55.1635 97.8659 53.8324L73.4665 20.8837Z" fill="#0A00D8"/>
</svg>
