<svg width="102" height="104" viewBox="0 0 102 104" fill="none" xmlns="http://www.w3.org/2000/svg">
<path fill-rule="evenodd" clip-rule="evenodd" d="M38.2857 12.9883C38.2857 19.6093 32.8259 24.9766 26.0908 24.9766C19.3557 24.9766 13.8959 19.6093 13.8959 12.9883C13.8959 6.36735 19.3557 1 26.0908 1C32.8259 1 38.2857 6.36735 38.2857 12.9883ZM32.1883 12.9883C32.1883 16.5165 29.3173 19.1287 26.0908 19.1287C22.8643 19.1287 19.9934 16.5165 19.9934 12.9883C19.9934 9.46012 22.8643 6.84795 26.0908 6.84795C29.3173 6.84795 32.1883 9.46012 32.1883 12.9883Z" fill="#0A00D8"/>
<path d="M7.1937 53C7.1937 52.4829 7.19249 51.9798 7.19131 51.4896C7.18468 48.7425 7.17904 46.4031 7.39338 44.3102C7.64269 41.8758 8.16487 40.1385 9.07534 38.8389C10.772 36.4171 14.7692 34.2865 26.086 34.2866C37.3761 34.2866 41.3881 36.4662 43.096 38.9213C44.0142 40.2412 44.5372 41.9924 44.7871 44.414C45.0024 46.5006 44.9969 48.8219 44.9904 51.5321L44.9904 51.5366C44.9893 52.0121 44.9881 52.4997 44.9881 53H51.0856C51.0856 52.5357 51.0869 52.0708 51.0882 51.6066L51.0882 51.6037C51.0958 48.9132 51.1034 46.2456 50.8549 43.838C50.5602 40.9818 49.8808 38.1375 48.1682 35.6756C44.6144 30.5672 37.651 28.4386 26.086 28.4386C14.5477 28.4386 7.57429 30.4959 4.01426 35.5774C2.29636 38.0295 1.61863 40.8726 1.32512 43.7385C1.07812 46.1503 1.08576 48.8353 1.09352 51.564C1.09488 52.0417 1.09624 52.5208 1.09624 53H7.1937Z" fill="#0A00D8"/>
<path fill-rule="evenodd" clip-rule="evenodd" d="M8.19375 54H0.0962862L0.096285 53C0.0962844 52.5225 0.0949267 52.0448 0.0935673 51.5668L0.0934742 51.5341C0.0857768 48.8291 0.0780128 46.1007 0.330365 43.6367C0.631924 40.6921 1.33777 37.655 3.1953 35.0036C7.06632 29.4782 14.5238 27.4386 26.086 27.4386C37.6833 27.4386 45.127 29.5529 48.9891 35.1046C50.8392 37.764 51.5467 40.8 51.8497 43.7353C52.1036 46.1956 52.0959 48.9069 52.0883 51.5743L52.0882 51.6091C52.0869 52.0735 52.0856 52.5373 52.0856 53V54H43.9881V53C43.9881 52.4983 43.9893 52.0096 43.9904 51.5342L43.9905 51.5297C43.9905 51.5297 43.9905 51.5298 43.9905 51.5297C43.997 48.8047 44.0013 46.5402 43.7924 44.5166C43.5507 42.1739 43.0558 40.6145 42.2752 39.4923C40.8747 37.4792 37.3409 35.2866 26.086 35.2866C14.7958 35.2865 11.2809 37.4337 9.89439 39.4127C9.12366 40.5128 8.62951 42.056 8.38822 44.4121C8.18029 46.4424 8.18469 48.7251 8.19135 51.4871C8.19253 51.9769 8.19375 52.4818 8.19375 53L8.19375 54ZM44.9904 51.5321C44.9969 48.8219 45.0024 46.5006 44.7871 44.414C44.5372 41.9924 44.0142 40.2412 43.096 38.9213C41.3881 36.4662 37.3761 34.2866 26.086 34.2866C14.7692 34.2865 10.772 36.4171 9.07534 38.8389C8.16487 40.1385 7.64269 41.8758 7.39338 44.3102C7.17904 46.4031 7.18468 48.7425 7.19131 51.4896C7.19171 51.658 7.19217 51.8285 7.19253 52C7.19322 52.3275 7.1937 52.6608 7.1937 53H1.09624C1.09624 52.5208 1.09488 52.0417 1.09352 51.564C1.08576 48.8353 1.07812 46.1503 1.32512 43.7385C1.61863 40.8726 2.29636 38.0295 4.01426 35.5774C7.57429 30.4959 14.5477 28.4386 26.086 28.4386C37.651 28.4386 44.6144 30.5672 48.1682 35.6756C49.8808 38.1375 50.5602 40.9818 50.8549 43.838C51.1034 46.2456 51.0958 48.9132 51.0882 51.6037L51.0882 51.6066C51.0869 52.0708 51.0856 52.5357 51.0856 53H44.9881C44.9881 52.6609 44.9887 52.3276 44.9894 52C44.9897 51.8443 44.99 51.6898 44.9904 51.5366L44.9904 51.5321ZM26.0909 18.1287C28.7882 18.1287 31.1883 15.9414 31.1883 12.9883C31.1883 10.0352 28.7882 7.84795 26.0909 7.84795C23.3936 7.84795 20.9934 10.0352 20.9934 12.9883C20.9934 15.9414 23.3936 18.1287 26.0909 18.1287ZM39.2858 12.9883C39.2858 20.1776 33.362 25.9766 26.0909 25.9766C18.8197 25.9766 12.8959 20.1776 12.8959 12.9883C12.8959 5.79902 18.8197 0 26.0909 0C33.362 0 39.2858 5.79902 39.2858 12.9883ZM26.0908 24.9766C32.8259 24.9766 38.2857 19.6093 38.2857 12.9883C38.2857 6.36735 32.8259 1 26.0908 1C19.3557 1 13.8959 6.36735 13.8959 12.9883C13.8959 19.6093 19.3557 24.9766 26.0908 24.9766ZM26.0908 19.1287C29.3173 19.1287 32.1883 16.5165 32.1883 12.9883C32.1883 9.46012 29.3173 6.84795 26.0908 6.84795C22.8643 6.84795 19.9934 9.46012 19.9934 12.9883C19.9934 16.5165 22.8643 19.1287 26.0908 19.1287Z" fill="#0A00D8"/>
<path fill-rule="evenodd" clip-rule="evenodd" d="M88.2857 64.9898C88.2857 71.6107 82.8259 76.9781 76.0908 76.9781C69.3557 76.9781 63.8959 71.6107 63.8959 64.9898C63.8959 58.3688 69.3557 53.0015 76.0908 53.0015C82.8259 53.0015 88.2857 58.3688 88.2857 64.9898ZM82.1883 64.9898C82.1883 68.518 79.3173 71.1301 76.0908 71.1301C72.8643 71.1301 69.9934 68.518 69.9934 64.9898C69.9934 61.4616 72.8643 58.8494 76.0908 58.8494C79.3173 58.8494 82.1883 61.4616 82.1883 64.9898Z" fill="#0A00D8"/>
<path d="M57.1937 103.001C57.1937 102.484 57.1925 101.981 57.1913 101.491C57.1847 98.744 57.179 96.4045 57.3934 94.3117C57.6427 91.8773 58.1649 90.1399 59.0753 88.8404C60.772 86.4185 64.7692 84.288 76.086 84.288C87.3761 84.288 91.3881 86.4677 93.096 88.9227C94.0142 90.2426 94.5372 91.9939 94.7871 94.4154C95.0024 96.5021 94.9969 98.8234 94.9904 101.534L94.9904 101.538C94.9893 102.014 94.9881 102.501 94.9881 103.001H101.086C101.086 102.537 101.087 102.072 101.088 101.608L101.088 101.605C101.096 98.9146 101.103 96.247 100.855 93.8394C100.56 90.9832 99.8808 88.139 98.1682 85.6771C94.6144 80.5687 87.651 78.4401 76.086 78.4401C64.5477 78.4401 57.5743 80.4974 54.0143 85.5789C52.2964 88.0309 51.6186 90.8741 51.3251 93.74C51.0781 96.1517 51.0858 98.8367 51.0935 101.565C51.0949 102.043 51.0962 102.522 51.0962 103.001H57.1937Z" fill="#0A00D8"/>
<path d="M57.1913 101.491C57.1925 101.981 57.1937 102.484 57.1937 103.001H94.9881C94.9881 102.501 94.9893 102.014 94.9904 101.538L94.9904 101.534C94.9969 98.8234 95.0024 96.5021 94.7871 94.4154C94.5372 91.9939 94.0142 90.2426 93.096 88.9227C91.3881 86.4677 87.3761 84.288 76.086 84.288C64.7692 84.288 60.772 86.4185 59.0753 88.8404C58.1649 90.1399 57.6427 91.8773 57.3934 94.3117C57.179 96.4045 57.1847 98.744 57.1913 101.491Z" fill="#0A00D8"/>
<path d="M76.0908 71.1301C79.3173 71.1301 82.1883 68.518 82.1883 64.9898C82.1883 61.4616 79.3173 58.8494 76.0908 58.8494C72.8643 58.8494 69.9934 61.4616 69.9934 64.9898C69.9934 68.518 72.8643 71.1301 76.0908 71.1301Z" fill="#0A00D8"/>
<path d="M43.0968 24.4853C42.58 24.0985 42.5885 23.3358 43.1137 22.96L56.1381 13.6431C56.7834 13.1815 57.6925 13.6312 57.6925 14.4119V19.2041C63.4584 19.2041 69.5891 20.4659 74.3072 24.557C79.1349 28.7433 81.625 35.135 81.625 43.583H71.8566C71.8566 36.9464 69.9509 33.5318 67.8187 31.683C65.5768 29.7389 62.1833 28.7368 57.6925 28.7368V33.4771C57.6925 34.2674 56.7638 34.7145 56.1212 34.2335L43.0968 24.4853Z" fill="#0A00D8"/>
<path d="M59.0585 73.9883C59.5753 74.3752 59.5668 75.1378 59.0415 75.5136L46.0171 84.8305C45.3719 85.2921 44.4628 84.8424 44.4628 84.0617V79.2695C38.6968 79.2695 32.5661 78.0077 27.8481 73.9166C23.0203 69.7303 20.5303 63.3386 20.5303 54.8906H30.2986C30.2986 61.5272 32.2044 64.9418 34.3365 66.7907C36.5785 68.7347 39.9719 69.7369 44.4628 69.7369V64.9965C44.4628 64.2062 45.3915 63.7592 46.0341 64.2401L59.0585 73.9883Z" fill="#0A00D8"/>
</svg>
