<svg width="101" height="101" viewBox="0 0 101 101" fill="none" xmlns="http://www.w3.org/2000/svg">
<path d="M28.6203 59.9126H24.2393C21.5999 59.9126 19.4601 57.7921 19.4601 55.1764V50.8349C19.4601 48.2192 21.5998 46.0988 24.2393 46.0988H28.6203C31.2598 46.0988 33.3995 48.2192 33.3995 50.8349V55.1764C33.3995 57.7921 31.2598 59.9126 28.6203 59.9126Z" fill="#0A00D8"/>
<path d="M28.6203 81.5342H24.2393C21.5999 81.5342 19.4601 79.4137 19.4601 76.798V72.4566C19.4601 69.8409 21.5998 67.7204 24.2393 67.7204H28.6203C31.2598 67.7204 33.3995 69.8409 33.3995 72.4566V76.798C33.3995 79.4137 31.2598 81.5342 28.6203 81.5342Z" fill="#0A00D8"/>
<path d="M40.603 59.9126H44.9839C47.6234 59.9126 49.7632 57.7921 49.7632 55.1764V50.8349C49.7632 48.2192 47.6234 46.0988 44.9839 46.0988H40.603C37.9635 46.0988 35.8238 48.2192 35.8238 50.8349V55.1764C35.8238 57.7921 37.9635 59.9126 40.603 59.9126Z" fill="#0A00D8"/>
<path d="M44.9839 81.5342H40.603C37.9635 81.5342 35.8238 79.4137 35.8238 76.798V72.4566C35.8238 69.8409 37.9635 67.7204 40.603 67.7204H44.9839C47.6234 67.7204 49.7632 69.8409 49.7632 72.4566V76.798C49.7632 79.4137 47.6234 81.5342 44.9839 81.5342Z" fill="#0A00D8"/>
<path d="M56.9666 59.9126H61.3476C63.9871 59.9126 66.1268 57.7921 66.1268 55.1764V50.8349C66.1268 48.2192 63.9871 46.0988 61.3476 46.0988H56.9666C54.3271 46.0988 52.1874 48.2192 52.1874 50.8349V55.1764C52.1874 57.7921 54.3271 59.9126 56.9666 59.9126Z" fill="#0A00D8"/>
<path d="M61.3476 81.5342H56.9666C54.3271 81.5342 52.1874 79.4137 52.1874 76.798V72.4566C52.1874 69.8409 54.3271 67.7204 56.9666 67.7204H61.3476C63.9871 67.7204 66.1268 69.8409 66.1268 72.4566V76.798C66.1268 79.4137 63.9871 81.5342 61.3476 81.5342Z" fill="#0A00D8"/>
<path d="M73.3303 59.9126H77.7112C80.3507 59.9126 82.4904 57.7921 82.4904 55.1764V50.8349C82.4904 48.2192 80.3507 46.0988 77.7112 46.0988H73.3303C70.6908 46.0988 68.551 48.2192 68.551 50.8349V55.1764C68.551 57.7921 70.6908 59.9126 73.3303 59.9126Z" fill="#0A00D8"/>
<path fill-rule="evenodd" clip-rule="evenodd" d="M3.70254 0.453125C2.02895 0.453125 0.672241 1.79762 0.672241 3.45613V97.4501C0.672241 99.1086 2.02895 100.453 3.70254 100.453H97.6419C99.3155 100.453 100.672 99.1086 100.672 97.4501V3.45613C100.672 1.79762 99.3155 0.453125 97.6419 0.453125H3.70254ZM15.8238 27.4802C14.1502 27.4802 12.7935 26.1357 12.7935 24.4771V15.4681C12.7935 13.8096 14.1502 12.4651 15.8238 12.4651H85.5207C87.1943 12.4651 88.551 13.8096 88.551 15.4681V24.4771C88.551 26.1357 87.1943 27.4802 85.5207 27.4802H15.8238ZM12.7935 42.4952C12.7935 40.8367 14.1502 39.4922 15.8238 39.4922H85.5207C87.1943 39.4922 88.551 40.8367 88.551 42.4952V85.4381C88.551 87.0966 87.1943 88.4411 85.5207 88.4411H15.8238C14.1502 88.4411 12.7935 87.0966 12.7935 85.4381V42.4952Z" fill="#0A00D8"/>
</svg>
