<svg width="101" height="101" viewBox="0 0 101 101" fill="none" xmlns="http://www.w3.org/2000/svg">
<path d="M57.3331 26.0414C57.3331 30.4272 53.7777 33.9825 49.3919 33.9825C45.0062 33.9825 41.4508 30.4272 41.4508 26.0414C41.4508 21.6556 45.0062 18.1002 49.3919 18.1002C53.7777 18.1002 57.3331 21.6556 57.3331 26.0414Z" fill="#0A00D8"/>
<path d="M80.9137 26.0414C80.9137 30.4272 77.3583 33.9825 72.9725 33.9825C68.5867 33.9825 65.0313 30.4272 65.0313 26.0414C65.0313 21.6556 68.5867 18.1002 72.9725 18.1002C77.3583 18.1002 80.9137 21.6556 80.9137 26.0414Z" fill="#0A00D8"/>
<path d="M33.2666 26.0414C33.2666 30.4272 29.7112 33.9825 25.3254 33.9825C20.9396 33.9825 17.3843 30.4272 17.3843 26.0414C17.3843 21.6556 20.9396 18.1002 25.3254 18.1002C29.7112 18.1002 33.2666 21.6556 33.2666 26.0414Z" fill="#0A00D8"/>
<path d="M58.7068 51.2039C58.7068 55.6819 55.0657 59.312 50.5743 59.312C46.0828 59.312 42.4417 55.6819 42.4417 51.2039C42.4417 46.7259 46.0828 43.0958 50.5743 43.0958C55.0657 43.0958 58.7068 46.7259 58.7068 51.2039Z" fill="#0A00D8"/>
<path d="M74.723 59.312C79.2145 59.312 82.8556 55.6819 82.8556 51.2039C82.8556 46.7259 79.2145 43.0958 74.723 43.0958C70.2316 43.0958 66.5905 46.7259 66.5905 51.2039C66.5905 55.6819 70.2316 59.312 74.723 59.312Z" fill="#0A00D8"/>
<path d="M34.0604 51.2039C34.0604 55.6819 30.4193 59.312 25.9279 59.312C21.4364 59.312 17.7953 55.6819 17.7953 51.2039C17.7953 46.7259 21.4364 43.0958 25.9279 43.0958C30.4193 43.0958 34.0604 46.7259 34.0604 51.2039Z" fill="#0A00D8"/>
<path d="M50.5743 83.9366C55.0657 83.9366 58.7068 80.3065 58.7068 75.8285C58.7068 71.3505 55.0657 67.7204 50.5743 67.7204C46.0828 67.7204 42.4417 71.3505 42.4417 75.8285C42.4417 80.3065 46.0828 83.9366 50.5743 83.9366Z" fill="#0A00D8"/>
<path d="M82.8556 75.8285C82.8556 80.3065 79.2145 83.9366 74.723 83.9366C70.2316 83.9366 66.5905 80.3065 66.5905 75.8285C66.5905 71.3505 70.2316 67.7204 74.723 67.7204C79.2145 67.7204 82.8556 71.3505 82.8556 75.8285Z" fill="#0A00D8"/>
<path d="M25.9279 83.9366C30.4193 83.9366 34.0604 80.3065 34.0604 75.8285C34.0604 71.3505 30.4193 67.7204 25.9279 67.7204C21.4364 67.7204 17.7953 71.3505 17.7953 75.8285C17.7953 80.3065 21.4364 83.9366 25.9279 83.9366Z" fill="#0A00D8"/>
<path fill-rule="evenodd" clip-rule="evenodd" d="M0.325439 0.453125H99.5907L100.325 33.4194V100.453H0.325439V0.453125ZM12.3736 12.4651V88.4411H88.2772V33.5528L87.8072 12.4651H12.3736Z" fill="#0A00D8"/>
</svg>
