<svg width="16" height="16" viewBox="0 0 16 16" fill="none" xmlns="http://www.w3.org/2000/svg">
<path d="M9.08241 4.12532C9.08241 4.8201 8.51918 5.38332 7.8244 5.38332C7.12964 5.38332 6.56641 4.8201 6.56641 4.12532C6.56641 3.43054 7.12964 2.86731 7.8244 2.86731C8.51918 2.86731 9.08241 3.43054 9.08241 4.12532Z" fill="#0A00D8"/>
<path d="M12.818 4.12532C12.818 4.8201 12.2548 5.38332 11.56 5.38332C10.8652 5.38332 10.302 4.8201 10.302 4.12532C10.302 3.43054 10.8652 2.86731 11.56 2.86731C12.2548 2.86731 12.818 3.43054 12.818 4.12532Z" fill="#0A00D8"/>
<path d="M5.26991 4.12532C5.26991 4.8201 4.70668 5.38332 4.0119 5.38332C3.31712 5.38332 2.75391 4.8201 2.75391 4.12532C2.75391 3.43054 3.31712 2.86731 4.0119 2.86731C4.70668 2.86731 5.26991 3.43054 5.26991 4.12532Z" fill="#0A00D8"/>
<path d="M9.30004 8.11148C9.30004 8.82086 8.72323 9.39593 8.01172 9.39593C7.3002 9.39593 6.72339 8.82086 6.72339 8.11148C6.72339 7.40209 7.3002 6.82703 8.01172 6.82703C8.72323 6.82703 9.30004 7.40209 9.30004 8.11148Z" fill="#0A00D8"/>
<path d="M11.8373 9.39593C12.5488 9.39593 13.1256 8.82086 13.1256 8.11148C13.1256 7.40209 12.5488 6.82703 11.8373 6.82703C11.1258 6.82703 10.549 7.40209 10.549 8.11148C10.549 8.82086 11.1258 9.39593 11.8373 9.39593Z" fill="#0A00D8"/>
<path d="M5.39574 8.11148C5.39574 8.82086 4.81893 9.39593 4.10742 9.39593C3.3959 9.39593 2.81909 8.82086 2.81909 8.11148C2.81909 7.40209 3.3959 6.82703 4.10742 6.82703C4.81893 6.82703 5.39574 7.40209 5.39574 8.11148Z" fill="#0A00D8"/>
<path d="M8.01172 13.2969C8.72323 13.2969 9.30004 12.7219 9.30004 12.0125C9.30004 11.3031 8.72323 10.728 8.01172 10.728C7.3002 10.728 6.72339 11.3031 6.72339 12.0125C6.72339 12.7219 7.3002 13.2969 8.01172 13.2969Z" fill="#0A00D8"/>
<path d="M13.1256 12.0125C13.1256 12.7219 12.5488 13.2969 11.8373 13.2969C11.1258 13.2969 10.549 12.7219 10.549 12.0125C10.549 11.3031 11.1258 10.728 11.8373 10.728C12.5488 10.728 13.1256 11.3031 13.1256 12.0125Z" fill="#0A00D8"/>
<path d="M4.10742 13.2969C4.81893 13.2969 5.39574 12.7219 5.39574 12.0125C5.39574 11.3031 4.81893 10.728 4.10742 10.728C3.3959 10.728 2.81909 11.3031 2.81909 12.0125C2.81909 12.7219 3.3959 13.2969 4.10742 13.2969Z" fill="#0A00D8"/>
<path fill-rule="evenodd" clip-rule="evenodd" d="M0.0515137 1.07178C0.0515137 0.519493 0.499229 0.0717773 1.05151 0.0717773H14.7987C15.3423 0.0717773 15.7864 0.506036 15.7985 1.04951L15.893 5.29416V14.9133C15.893 15.4656 15.4453 15.9133 14.893 15.9133H1.05151C0.499228 15.9133 0.0515137 15.4656 0.0515137 14.9133V1.07178ZM2.96013 1.97466C2.40785 1.97466 1.96013 2.42238 1.96013 2.97466V13.0105C1.96013 13.5628 2.40785 14.0105 2.96013 14.0105H12.9845C13.5367 14.0105 13.9845 13.5628 13.9845 13.0105V5.31529L13.9318 2.95238C13.9197 2.40892 13.4757 1.97466 12.932 1.97466H2.96013Z" fill="#0A00D8"/>
</svg>
