<svg width="100" height="100" viewBox="0 0 100 100" fill="none" xmlns="http://www.w3.org/2000/svg">
<path d="M66.1695 36.1559C66.7948 35.7774 67.5653 35.7774 68.1907 36.1559L86.8623 47.458C87.4877 47.8366 87.8729 48.5361 87.8729 49.2932V71.8975C87.8729 72.6545 87.4877 73.3541 86.8623 73.7326L68.1907 85.0348C67.5653 85.4133 66.7948 85.4133 66.1695 85.0348L50.6864 75.6627L38.5593 83.0034L66.1695 99.7161C66.7948 100.095 67.5653 100.095 68.1907 99.7161L98.9894 81.0733C99.6148 80.6948 100 79.9952 100 79.2381V41.9525C100 41.1955 99.6148 40.4959 98.9894 40.1174L68.1907 21.4746C67.5653 21.096 66.7948 21.096 66.1695 21.4746L35.3707 40.1174C34.7454 40.4959 34.3601 41.1955 34.3601 41.9525V56.1323L45.5297 49.0061L66.1695 36.1559Z" fill="#0A00D8"/>
<path d="M31.8093 14.9652C32.4347 14.5867 33.2052 14.5867 33.8305 14.9652L49.2383 24.2917L61.3654 16.951L33.8305 0.283901C33.2052 -0.0946341 32.4347 -0.0946332 31.8093 0.283901L1.01059 18.9267C0.385236 19.3052 0 20.0048 0 20.7619V58.0475C0 58.8045 0.385237 59.5041 1.01059 59.8826L31.7959 78.5041C32.4325 78.8891 33.2302 78.889 33.8667 78.5037L64.6755 59.8546C65.2742 59.4923 65.6399 58.8434 65.6399 58.1437V44.7673L33.8534 63.8359C33.2177 64.2172 32.4231 64.2157 31.7889 63.8318L13.1377 52.542C12.5123 52.1634 12.1271 51.4639 12.1271 50.7068V28.1025C12.1271 27.3455 12.5123 26.6459 13.1377 26.2674L31.8093 14.9652Z" fill="#0A00D8"/>
</svg>
