<svg width="101" height="101" viewBox="0 0 101 101" fill="none" xmlns="http://www.w3.org/2000/svg">
<path d="M34.4218 52.038C34.4218 55.3551 31.7247 58.0442 28.3977 58.0442C25.0707 58.0442 22.3736 55.3551 22.3736 52.038C22.3736 48.7209 25.0707 46.0318 28.3977 46.0318C31.7247 46.0318 34.4218 48.7209 34.4218 52.038Z" fill="#0A00D8"/>
<path fill-rule="evenodd" clip-rule="evenodd" d="M67.4857 45.8667C67.4857 45.5529 67.6997 45.2808 68.0073 45.2192C68.7463 45.0712 70.1683 44.8306 71.6009 44.8306C73.497 44.8306 74.8447 45.0614 75.5156 45.2099C75.8064 45.2743 76 45.5351 76 45.8329V52.6224C76 52.7832 76.1126 52.9218 76.2694 52.9574C78.6143 53.4899 80.8024 54.4351 82.7534 55.7125C82.8898 55.8018 83.0705 55.7847 83.1859 55.6694L88.2627 50.5925C88.4845 50.3707 88.8283 50.3296 89.0893 50.5035C89.7165 50.9215 90.8922 51.7568 91.9052 52.7699C93.2459 54.1106 94.0357 55.2267 94.4051 55.8062C94.5652 56.0573 94.5177 56.3786 94.3071 56.5892L89.064 61.8323C88.9527 61.9436 88.9325 62.1165 89.0128 62.2518C90.1667 64.1952 91.0003 66.3511 91.4409 68.6467C91.472 68.8089 91.6131 68.9275 91.7782 68.9275H99.0822C99.38 68.9275 99.6408 69.1211 99.7052 69.4119C99.8537 70.0828 100.084 71.4305 100.084 73.3266C100.084 74.7593 99.8439 76.1813 99.6959 76.9203C99.6343 77.2279 99.3621 77.4419 99.0484 77.4419H91.43C91.2747 77.4419 91.1394 77.5471 91.0985 77.6969C90.5646 79.6563 89.7398 81.4958 88.6734 83.1661C88.5865 83.3023 88.6045 83.4809 88.7187 83.5952L94.1629 89.0394C94.3847 89.2613 94.4258 89.605 94.2519 89.8661C93.834 90.4933 92.9986 91.6689 91.9856 92.6819C90.6448 94.0227 89.5287 94.8125 88.9493 95.1819C88.6981 95.342 88.3769 95.2945 88.1663 95.0839L82.6308 89.5483C82.5184 89.436 82.3435 89.4165 82.2078 89.4992C80.4415 90.5758 78.495 91.3859 76.4242 91.8737C76.2686 91.9103 76.1575 92.0483 76.1575 92.2081V99.6518C76.1575 99.9655 75.9435 100.238 75.6359 100.299C74.8968 100.447 73.4749 100.688 72.0422 100.688C70.1461 100.688 68.7985 100.457 68.1275 100.309C67.8367 100.244 67.6432 99.9834 67.6432 99.6856V92.2417C67.6432 92.081 67.5307 91.9424 67.374 91.9067C65.3513 91.446 63.4454 90.6783 61.708 89.6551C61.5727 89.5755 61.4005 89.596 61.2895 89.7069L56.0569 94.9396C55.835 95.1614 55.4913 95.2026 55.2302 95.0286C54.603 94.6107 53.4274 93.7753 52.4144 92.7623C51.0736 91.4215 50.2839 90.3054 49.9144 89.7259C49.7543 89.4748 49.8019 89.1535 50.0125 88.9429L55.1035 83.8519C55.2191 83.7362 55.236 83.5549 55.1459 83.4184C53.9381 81.5879 53.0235 79.5469 52.469 77.3622C52.4302 77.2095 52.2935 77.1013 52.136 77.1013H45.0964C44.7827 77.1013 44.5105 76.8873 44.449 76.5797C44.301 75.8407 44.0604 74.4187 44.0604 72.986C44.0604 71.0899 44.2912 69.7423 44.4397 69.0713C44.504 68.7805 44.7648 68.5869 45.0627 68.5869H51.9457C52.1087 68.5869 52.2485 68.4714 52.282 68.3119C52.7659 66.0055 53.6477 63.8454 54.8523 61.9069C54.9368 61.771 54.9179 61.5945 54.8048 61.4814L49.8162 56.4927C49.5943 56.2709 49.5532 55.9271 49.7272 55.666C50.1451 55.0389 50.9805 53.8632 51.9935 52.8502C53.3342 51.5094 54.4504 50.7196 55.0298 50.3502C55.2809 50.1901 55.6022 50.2377 55.8128 50.4483L60.8136 55.4491C60.9271 55.5626 61.1042 55.5812 61.2402 55.496C63.0576 54.3575 65.0714 53.5034 67.2192 52.9961C67.3746 52.9594 67.4857 52.8214 67.4857 52.6617V45.8667ZM71.8278 86.0291C79.3242 86.0067 85.3383 79.9076 85.3383 72.4335C85.3383 64.9593 79.3242 58.8602 71.8278 58.8378C64.309 58.8153 58.2361 64.937 58.2361 72.4335C58.2361 79.9299 64.309 86.0516 71.8278 86.0291Z" fill="#0A00D8"/>
<path fill-rule="evenodd" clip-rule="evenodd" d="M12.0062 10.5647C9.39157 15.5332 8.34132 21.8747 8.12853 28.5561H3.49571C1.61173 28.5561 0.0844727 30.0788 0.0844727 31.9571V74.8107C0.0844727 76.6891 1.61174 78.2118 3.49571 78.2118H38.6492C38.6084 78.0623 38.5724 77.9101 38.5414 77.7555C38.3622 76.8606 38.0363 74.9946 38.0363 72.986C38.0363 70.6041 38.3261 68.8206 38.5571 67.7769C38.6324 67.4368 38.7314 67.1109 38.8515 66.8001H14.5423C12.8788 66.8001 11.5303 65.4556 11.5303 63.797V42.9708C11.5303 41.3123 12.8788 39.9678 14.5423 39.9678H42.2531C43.9167 39.9678 45.2652 41.3123 45.2652 42.9708V51.54C45.8508 50.7257 46.7029 49.6341 47.7274 48.6095C49.4133 46.9236 50.8812 45.866 51.7845 45.2901C53.3566 44.2878 55.1113 44.0516 56.711 44.3901V31.9572C56.711 30.0788 55.1837 28.5561 53.2997 28.5561H48.8286C48.6337 22.1563 47.6906 15.8601 45.1551 10.858C43.6692 7.92669 41.5784 5.32377 38.6813 3.47176C35.7686 1.60976 32.3231 0.687862 28.434 0.687866C24.6955 0.68787 21.3439 1.56823 18.4801 3.36296C15.6304 5.14882 13.5272 7.67432 12.0062 10.5647ZM20.0079 14.7504C18.3199 17.9581 17.3843 22.643 17.1702 28.5561H39.7871C39.5901 22.8557 38.7445 18.185 37.0903 14.9216C36.1738 13.1135 35.0739 11.8677 33.804 11.0559C32.5497 10.2541 30.8521 9.6971 28.434 9.6971C26.1563 9.6971 24.5211 10.2182 23.2888 10.9905C22.0424 11.7717 20.9402 12.9787 20.0079 14.7504Z" fill="#0A00D8"/>
</svg>
