<svg width="100" height="100" viewBox="0 0 100 100" fill="none" xmlns="http://www.w3.org/2000/svg">
<path d="M71.7169 0.432949C70.6166 0.432949 68.7963 0.302689 67.2717 0.309657C66.2371 0.314386 65.5235 1.22187 65.6177 2.2521L66.14 7.96705C66.2365 9.02249 67.1395 9.81878 68.199 9.78951C68.8806 9.77068 69.5695 9.75451 69.925 9.75451C81.37 9.75451 89.4863 16.281 89.4863 27.4951C89.4863 27.8654 89.51 28.827 89.5218 29.7777C89.5367 30.9648 90.5192 32.0395 91.7055 32.0879L97.2535 32.3141C98.2767 32.3558 99.161 31.6166 99.2295 30.5949C99.3016 29.5211 99.3375 28.353 99.3375 27.4951C99.4319 12.5738 87.0406 0.432949 71.7169 0.432949Z" fill="#0A00D8"/>
<path d="M62.9797 20.5733C62.2516 19.8246 62.2127 18.628 63.0052 17.9479C65.2682 16.0061 68.2207 14.7983 71.4325 14.7983C78.3375 14.7983 84.0131 20.2663 83.9188 27.1246C83.9188 30.4936 82.4988 33.5977 80.2309 35.8209C79.5178 36.5198 78.3867 36.4155 77.6906 35.6997L62.9797 20.5733Z" fill="#0A00D8"/>
<path fill-rule="evenodd" clip-rule="evenodd" d="M33.1054 9.67166C36.2083 6.30153 41.4751 6.2359 44.6722 9.46598L91.4727 56.7492C94.6164 59.9253 94.577 65.1285 91.2272 68.226C87.5693 71.6084 83.2742 75.3056 78.117 79.3524C77.1927 80.0777 77.0773 81.4384 77.8746 82.3013L85.8335 90.9142C86.5832 91.7254 86.5333 92.9908 85.722 93.7404L79.8465 99.1698C79.0353 99.9194 77.7699 99.8695 77.0203 99.0583L67.7033 88.9758C67.0488 88.2674 65.9841 88.1287 65.1586 88.6276C59.3256 92.153 51.9843 95.6322 44.2028 97.4873C33.4823 100.043 20.912 99.6982 10.8403 90.7125C3.72493 84.3645 0.504976 76.7278 0.245268 68.6587C-0.00635306 60.8408 2.52311 53.0163 6.07342 45.8712C13.1459 31.6375 25.2768 18.1745 33.1054 9.67166ZM40.5884 22.3983C39.7812 21.5828 38.4544 21.6115 37.6892 22.4665C30.4252 30.5823 21.9779 40.8303 16.8199 51.211C13.7308 57.4278 12.076 63.2061 12.2391 68.2727C12.394 73.0879 14.1878 77.6174 18.829 81.7582C24.8392 87.1203 32.7565 87.8799 41.4199 85.8145C50.1062 83.7437 58.5204 79.0166 63.9284 75.0509C69.6417 70.8614 74.3868 67.0552 78.3942 63.5983C79.2646 62.8474 79.3086 61.5179 78.4999 60.7009L40.5884 22.3983Z" fill="#0A00D8"/>
</svg>
