<svg width="101" height="101" viewBox="0 0 101 101" fill="none" xmlns="http://www.w3.org/2000/svg">
<path d="M12.3608 9.48878C10.6973 9.48878 9.3488 10.8538 9.3488 12.5376V63.9396C9.3488 65.6234 10.6973 66.9884 12.3609 66.9884H44.1364C43.6394 67.6899 43.2659 68.5112 43.0638 69.4379C42.844 70.4461 42.5715 72.1538 42.5715 74.4271C42.5715 74.9842 42.5972 75.5294 42.6377 76.0435H2.63933C1.40415 76.0435 0.402832 75.03 0.402832 73.7797V2.69748C0.402832 1.44724 1.40414 0.433716 2.63932 0.433716H62.5773C63.8125 0.433716 64.8138 1.44724 64.8138 2.69748V50.085L63.7295 48.9634C61.7905 46.9948 58.6005 46.2831 55.8678 47.814V12.5376C55.8678 10.8538 54.5193 9.48878 52.8558 9.48878H12.3608Z" fill="#0A00D8"/>
<path d="M18.7421 36.5335C18.7421 34.8497 20.0906 33.4847 21.7541 33.4847H43.9098C45.5733 33.4847 46.9218 34.8497 46.9218 36.5335V39.491C46.9218 41.1748 45.5733 42.5397 43.9098 42.5397H21.7541C20.0906 42.5397 18.7421 41.1748 18.7421 39.491V36.5335Z" fill="#0A00D8"/>
<path d="M18.7421 51.0215C18.7421 49.3377 20.0906 47.9727 21.7541 47.9727H43.9098C45.5733 47.9727 46.9218 49.3377 46.9218 51.0215V53.979C46.9218 55.6628 45.5733 57.0278 43.9098 57.0278H21.7541C20.0906 57.0278 18.7421 55.6628 18.7421 53.979V51.0215Z" fill="#0A00D8"/>
<path d="M18.7421 22.4982C18.7421 20.8144 20.0906 19.4494 21.7541 19.4494H43.9098C45.5733 19.4494 46.9218 20.8144 46.9218 22.4982V25.4557C46.9218 27.1395 45.5733 28.5044 43.9098 28.5044H21.7541C20.0906 28.5044 18.7421 27.1395 18.7421 25.4557V22.4982Z" fill="#0A00D8"/>
<path fill-rule="evenodd" clip-rule="evenodd" d="M70.7401 48.3595C70.4556 48.4173 70.2577 48.6728 70.2577 48.9673V55.3466C70.2577 55.4965 70.155 55.626 70.0113 55.6604C68.0252 56.1367 66.163 56.9385 64.4823 58.0074C64.3566 58.0874 64.1928 58.0699 64.0878 57.9634L59.4634 53.2686C59.2687 53.0709 58.9716 53.0262 58.7394 53.1765C58.2035 53.5233 57.1714 54.2648 55.9316 55.5235C54.9948 56.4745 54.2223 57.5782 53.8359 58.167C53.675 58.4121 53.713 58.7349 53.9182 58.9431L58.5313 63.6265C58.6359 63.7327 58.6533 63.8984 58.5752 64.026C57.4613 65.8459 56.6458 67.8738 56.1984 70.0391C56.1674 70.1888 56.0381 70.2972 55.8874 70.2972H49.5224C49.247 70.2972 49.0059 70.479 48.9464 70.7519C48.809 71.3818 48.5956 72.647 48.5956 74.4271C48.5956 75.7721 48.8181 77.1071 48.9549 77.8009C49.0119 78.0897 49.2636 78.2906 49.5537 78.2906H56.0634C56.2091 78.2906 56.3355 78.3921 56.3713 78.5355C56.8841 80.5864 57.7298 82.5026 58.8467 84.2211C58.93 84.3492 58.9144 84.5195 58.8075 84.628L54.0997 89.4075C53.905 89.6052 53.861 89.9068 54.009 90.1426C54.3507 90.6866 55.081 91.7344 56.3208 92.9931C57.2576 93.9442 58.3447 94.7284 58.9247 95.1208C59.1661 95.2841 59.484 95.2455 59.6891 95.0372L64.5279 90.1248C64.6305 90.0206 64.7898 90.0014 64.9149 90.0761C66.5215 91.0367 68.284 91.7574 70.1544 92.1899C70.2993 92.2235 70.4033 92.3535 70.4033 92.5044V99.4928C70.4033 99.7724 70.5823 100.017 70.8512 100.078C71.4717 100.217 72.7179 100.434 74.4713 100.434C75.7961 100.434 77.111 100.208 77.7944 100.069C78.0789 100.011 78.2768 99.7556 78.2768 99.4611V92.4729C78.2768 92.3229 78.3796 92.1934 78.5234 92.159C80.4384 91.701 82.2384 90.9405 83.8717 89.9298C83.9972 89.8521 84.159 89.8704 84.2628 89.9759L89.3817 95.1727C89.5764 95.3704 89.8735 95.415 90.1057 95.2647C90.6416 94.9179 91.6737 94.1765 92.9135 92.9177C93.8503 91.9667 94.6228 90.863 95.0093 90.2742C95.1701 90.0291 95.1321 89.7064 94.927 89.4981L89.8926 84.3871C89.7869 84.2798 89.7703 84.1121 89.8507 83.9842C90.8368 82.4161 91.5995 80.6892 92.0932 78.8497C92.131 78.709 92.2562 78.6103 92.3998 78.6103H99.4448C99.7349 78.6103 99.9866 78.4094 100.044 78.1206C100.18 77.4268 100.403 76.0918 100.403 74.7469C100.403 72.9668 100.189 71.7016 100.052 71.0717C99.9926 70.7987 99.7514 70.617 99.476 70.617H92.7218C92.5691 70.617 92.4386 70.5056 92.4098 70.3533C92.0024 68.1982 91.2316 66.1743 90.1645 64.3498C90.0902 64.2227 90.109 64.0604 90.2119 63.9559L95.0603 59.0337C95.255 58.836 95.299 58.5344 95.1509 58.2986C94.8093 57.7546 94.079 56.7068 92.8392 55.4481C91.9024 54.497 90.8153 53.7128 90.2353 53.3204C89.9939 53.1571 89.676 53.1957 89.4708 53.404L84.7762 58.1702C84.6695 58.2784 84.5024 58.2945 84.3763 58.2106C82.5721 57.0114 80.5487 56.1241 78.3803 55.6241C78.2353 55.5907 78.1311 55.4606 78.1311 55.3096V48.9356C78.1311 48.656 77.9522 48.4112 77.6833 48.3508C77.0628 48.2113 75.8166 47.9947 74.0632 47.9947C72.7384 47.9947 71.4234 48.2206 70.7401 48.3595ZM86.7666 73.9084C86.7666 80.9251 81.2052 86.651 74.273 86.672C67.3201 86.6931 61.7043 80.946 61.7043 73.9084C61.7043 66.8707 67.3201 61.1236 74.273 61.1447C81.2052 61.1657 86.7666 66.8916 86.7666 73.9084Z" fill="#0A00D8"/>
</svg>
