<svg width="100" height="100" viewBox="0 0 100 100" fill="none" xmlns="http://www.w3.org/2000/svg">
<path fill-rule="evenodd" clip-rule="evenodd" d="M33 31.5C31.8954 31.5 31 32.3954 31 33.5V66.5C31 67.6046 31.8954 68.5 33 68.5H66.5C67.6046 68.5 68.5 67.6046 68.5 66.5V33.5C68.5 32.3954 67.6046 31.5 66.5 31.5H33ZM19 27.5C19 23.0817 22.5817 19.5 27 19.5H72.5C76.9183 19.5 80.5 23.0817 80.5 27.5V72.5C80.5 76.9183 76.9183 80.5 72.5 80.5H27C22.5817 80.5 19 76.9183 19 72.5V27.5Z" fill="#0A00D8"/>
<path fill-rule="evenodd" clip-rule="evenodd" d="M31 0C32.1046 0 33 0.89543 33 2V13C33 14.1046 32.1046 15 31 15H27C25.8954 15 25 14.1046 25 13V2C25 0.895431 25.8954 0 27 0H31Z" fill="#0A00D8"/>
<path fill-rule="evenodd" clip-rule="evenodd" d="M73 0C74.1046 0 75 0.895431 75 2V13C75 14.1046 74.1046 15 73 15H69C67.8954 15 67 14.1046 67 13V2C67 0.895431 67.8954 0 69 0H73Z" fill="#0A00D8"/>
<path fill-rule="evenodd" clip-rule="evenodd" d="M59 0C60.1046 0 61 0.895431 61 2V13C61 14.1046 60.1046 15 59 15H55C53.8954 15 53 14.1046 53 13V2C53 0.895431 53.8954 0 55 0H59Z" fill="#0A00D8"/>
<path fill-rule="evenodd" clip-rule="evenodd" d="M45 0C46.1046 0 47 0.895431 47 2V13C47 14.1046 46.1046 15 45 15H41C39.8954 15 39 14.1046 39 13V2C39 0.895431 39.8954 0 41 0H45Z" fill="#0A00D8"/>
<path fill-rule="evenodd" clip-rule="evenodd" d="M70 100C68.8954 100 68 99.1046 68 98V87C68 85.8954 68.8954 85 70 85H74C75.1046 85 76 85.8954 76 87V98C76 99.1046 75.1046 100 74 100H70Z" fill="#0A00D8"/>
<path fill-rule="evenodd" clip-rule="evenodd" d="M28 100C26.8954 100 26 99.1046 26 98L26 87C26 85.8954 26.8954 85 28 85H32C33.1046 85 34 85.8954 34 87V98C34 99.1046 33.1046 100 32 100L28 100Z" fill="#0A00D8"/>
<path fill-rule="evenodd" clip-rule="evenodd" d="M42 100C40.8954 100 40 99.1046 40 98V87C40 85.8954 40.8954 85 42 85H46C47.1046 85 48 85.8954 48 87V98C48 99.1046 47.1046 100 46 100H42Z" fill="#0A00D8"/>
<path fill-rule="evenodd" clip-rule="evenodd" d="M56 100C54.8954 100 54 99.1046 54 98V87C54 85.8954 54.8954 85 56 85H60C61.1046 85 62 85.8954 62 87V98C62 99.1046 61.1046 100 60 100H56Z" fill="#0A00D8"/>
<path fill-rule="evenodd" clip-rule="evenodd" d="M100 31C100 32.1046 99.1046 33 98 33H87C85.8954 33 85 32.1046 85 31V27C85 25.8954 85.8954 25 87 25H98C99.1046 25 100 25.8954 100 27V31Z" fill="#0A00D8"/>
<path fill-rule="evenodd" clip-rule="evenodd" d="M100 73C100 74.1046 99.1046 75 98 75H87C85.8954 75 85 74.1046 85 73V69C85 67.8954 85.8954 67 87 67H98C99.1046 67 100 67.8954 100 69V73Z" fill="#0A00D8"/>
<path fill-rule="evenodd" clip-rule="evenodd" d="M100 59C100 60.1046 99.1046 61 98 61H87C85.8954 61 85 60.1046 85 59V55C85 53.8954 85.8954 53 87 53H98C99.1046 53 100 53.8954 100 55V59Z" fill="#0A00D8"/>
<path fill-rule="evenodd" clip-rule="evenodd" d="M100 45C100 46.1046 99.1046 47 98 47H87C85.8954 47 85 46.1046 85 45V41C85 39.8954 85.8954 39 87 39H98C99.1046 39 100 39.8954 100 41V45Z" fill="#0A00D8"/>
<path fill-rule="evenodd" clip-rule="evenodd" d="M1.83588e-06 70C1.7876e-06 68.8954 0.895432 68 2 68H13C14.1046 68 15 68.8954 15 70V74C15 75.1046 14.1046 76 13 76H2C0.895433 76 2.05901e-06 75.1046 2.01072e-06 74L1.83588e-06 70Z" fill="#0A00D8"/>
<path fill-rule="evenodd" clip-rule="evenodd" d="M0 28C-4.82823e-08 26.8954 0.89543 26 2 26H13C14.1046 26 15 26.8954 15 28V32C15 33.1046 14.1046 34 13 34H2C0.895431 34 2.23128e-07 33.1046 1.74845e-07 32L0 28Z" fill="#0A00D8"/>
<path fill-rule="evenodd" clip-rule="evenodd" d="M6.11959e-07 42C5.63677e-07 40.8954 0.895431 40 2 40H13C14.1046 40 15 40.8954 15 42V46C15 47.1046 14.1046 48 13 48H2C0.895432 48 8.35087e-07 47.1046 7.86805e-07 46L6.11959e-07 42Z" fill="#0A00D8"/>
<path fill-rule="evenodd" clip-rule="evenodd" d="M1.22392e-06 56C1.17564e-06 54.8954 0.895432 54 2 54H13C14.1046 54 15 54.8954 15 56V60C15 61.1046 14.1046 62 13 62H2C0.895432 62 1.44705e-06 61.1046 1.39876e-06 60L1.22392e-06 56Z" fill="#0A00D8"/>
</svg>
