<svg width="101" height="76" viewBox="0 0 101 76" fill="none" xmlns="http://www.w3.org/2000/svg">
<path d="M53.2557 13.6664C52.6258 13.195 52.6362 12.2655 53.2763 11.8075L69.1492 0.452931C69.9356 -0.109594 71.0435 0.43842 71.0435 1.38991V7.23015C78.0705 7.23016 85.5421 8.76794 91.2919 13.7538C97.1756 18.8556 100.21 26.6452 100.21 36.9409C100.21 54.7851 86.1254 64.7387 72.4919 65.3156C65.6611 65.6046 58.5651 63.6002 53.1155 58.8243C47.5707 53.965 44.2578 46.6988 44.2578 37.5217C44.2578 31.2034 42.0648 27.6501 39.3506 25.2715C36.5413 22.8095 32.6254 21.5663 28.4442 21.7432C20.054 22.0982 12.115 27.9304 12.115 38.5113C12.115 46.5994 14.4375 50.7607 17.036 53.0139C19.7682 55.3831 23.9038 56.6045 29.3769 56.6045V50.8274C29.3769 49.8643 30.5087 49.3194 31.2918 49.9056L47.1647 61.7858C47.7946 62.2572 47.7842 63.1867 47.1441 63.6446L31.2712 74.9992C30.4848 75.5618 29.3769 75.0137 29.3769 74.0622V68.222C22.3499 68.222 14.8784 66.6842 9.12849 61.6984C3.24484 56.5965 0.210205 48.8069 0.210205 38.5113C0.210205 20.667 14.295 10.7134 27.9286 10.1366C34.7593 9.84758 41.8553 11.852 47.3049 16.6278C52.8497 21.4871 56.1626 28.3447 56.1626 37.5217C56.1626 43.8401 58.3556 47.8021 61.0698 50.1807C63.8791 52.6427 67.795 53.8859 71.9762 53.709C80.3664 53.354 88.3055 47.5217 88.3054 36.9409C88.3055 28.8528 85.9829 24.6914 83.3844 22.4382C80.6522 20.069 76.5166 18.8477 71.0435 18.8477V24.6248C71.0435 25.5879 69.9117 26.1327 69.1286 25.5466L53.2557 13.6664Z" fill="#0A00D8"/>
</svg>
