<svg width="88" height="100" viewBox="0 0 88 100" fill="none" xmlns="http://www.w3.org/2000/svg">
<path d="M45.142 48.2997C48.5328 46.3149 50.8102 42.6341 50.8102 38.4215C50.8102 32.1045 45.6893 26.9835 39.3723 26.9835C33.0553 26.9835 27.9343 32.1045 27.9343 38.4215C27.9343 42.6341 30.2625 46.3149 33.6533 48.2997L29.2364 68.4028C29.1012 69.0488 28.5942 70.6557 30.2541 70.6557H49.4739C51.1518 70.6557 50.6484 69.0174 50.4818 68.3603L45.142 48.2997Z" fill="#0A00D8"/>
<path fill-rule="evenodd" clip-rule="evenodd" d="M0 14V86C0 93.732 6.26801 100 14 100H58.0328C61.4814 100 64.8867 98.9516 67.5895 97.7724C70.5169 96.4953 73.6246 94.627 76.5083 92.1314C82.3485 87.0774 87.7377 78.9591 87.7377 67.9344C87.7377 58.0576 82.8882 51.1088 77.5627 46.4348C80.9172 42.0738 83.6066 36.3357 83.6066 29.1148C83.6066 20.0237 79.5185 12.7817 74.6012 7.98439C70.0831 3.57645 63.5484 0 56.8525 0H14C6.268 0 0 6.26802 0 14ZM75.7377 67.9344C75.7377 62.0686 72.566 57.7523 68.7446 54.6806L68.7131 54.6553C67.9364 54.033 67.1332 53.4619 66.3246 52.9396C64.7298 51.9093 63.114 51.0687 61.6392 50.398C59.8578 49.5879 59.6393 46.3176 61.2756 45.244C62.6355 44.3518 64.0964 43.2565 65.4791 41.9542C66.1559 41.3167 66.814 40.6297 67.4323 39.8925L67.4523 39.8686C69.8245 37.0324 71.6066 33.4567 71.6066 29.1148C71.6066 18.4918 62.164 12 56.8525 12H14C12.8954 12 12 12.8954 12 14V86C12 87.1046 12.8954 88 14 88H58.0328C62.7541 88 75.7377 81.5082 75.7377 67.9344Z" fill="#0A00D8"/>
</svg>
