<svg width="100" height="101" viewBox="0 0 100 101" fill="none" xmlns="http://www.w3.org/2000/svg">
<path fill-rule="evenodd" clip-rule="evenodd" d="M50 88.8052C71 88.8052 88.0239 71.7813 88.0239 50.7812C88.0239 29.7812 71 12.7573 50 12.7573C29 12.7573 11.976 29.7812 11.976 50.7812C11.976 71.7813 29 88.8052 50 88.8052ZM50 100.781C77.6142 100.781 100 78.3955 100 50.7812C100 23.167 77.6142 0.78125 50 0.78125C22.3858 0.78125 0 23.167 0 50.7812C0 78.3955 22.3858 100.781 50 100.781Z" fill="#0A00D8"/>
<path d="M54.5462 24.3077C55.0985 24.3077 55.5462 24.7555 55.5462 25.3077V52.7798L72.6749 67.4244C73.0897 67.7791 73.1435 68.4009 72.7958 68.8215L66.4738 76.471C66.1178 76.9018 65.4779 76.9572 65.0531 76.594L43.7408 58.3725V25.3077C43.7408 24.7555 44.1886 24.3077 44.7408 24.3077H54.5462Z" fill="#0A00D8"/>
</svg>
