<svg width="101" height="91" viewBox="0 0 101 91" fill="none" xmlns="http://www.w3.org/2000/svg">
<path fill-rule="evenodd" clip-rule="evenodd" d="M14.0709 26.5403C11.8983 27.8217 9.91277 29.3855 8.16522 31.1812C7.87206 31.4618 7.58171 31.7498 7.29435 32.0452C6.98589 32.3623 6.71787 32.7037 6.49018 33.0629C2.55447 37.9015 0.196045 44.0691 0.196045 50.7863C0.196045 66.3302 12.8248 78.931 28.4032 78.931H60.6847L67.5798 66.4222H28.4032C19.7486 66.4222 12.7326 59.4218 12.7326 50.7863C12.7326 46.645 14.3424 42.8718 16.9945 40.0646C20.7886 36.4976 24.6333 35.5005 27.6065 35.7861C30.7976 36.0927 33.5364 37.8954 35.0562 40.8334C36.6439 43.9029 40.4249 45.1069 43.5012 43.5227C46.5775 41.9385 47.7842 38.1659 46.1964 35.0964C42.7016 28.3401 36.1947 24.0447 28.8082 23.335C28.6764 23.3223 28.5445 23.3108 28.4125 23.3004C28.4122 23.1732 28.4103 23.0459 28.4069 22.9185C28.4044 22.8268 28.4032 22.7345 28.4032 22.6416C28.4032 17.1149 32.8934 12.6346 38.4324 12.6346C41.9458 12.6346 44.5339 13.7842 46.0811 15.1502C47.4995 16.4026 48.4616 18.1623 48.4616 20.7653C48.4616 30.0793 57.6154 37.0267 66.7838 34.0404C68.3009 33.5462 69.9333 33.274 71.6542 33.274C72.1756 33.274 72.6989 33.3105 73.2213 33.3814L82.5921 23.2505C79.2285 21.6627 75.5328 20.7653 71.6542 20.7653C68.5958 20.7653 65.6512 21.251 62.8934 22.1492C61.9753 22.4482 60.9982 21.7289 60.9982 20.7653C60.9982 8.33019 50.8951 0.125854 38.4324 0.125854C25.9697 0.125854 15.8667 10.2065 15.8667 22.6416C15.8667 22.8452 15.8694 23.0482 15.8748 23.2505C15.9104 24.5877 15.225 25.8597 14.0709 26.5403Z" fill="#0A00D8"/>
<path d="M67.8023 52.3453L97.3222 21.9275C98.2483 20.9732 99.7902 22.076 99.1864 23.2608L87.475 46.2422C87.1844 46.8125 87.4111 47.5103 87.9813 47.801L99.5631 53.7031C100.249 54.0528 100.41 54.9623 99.8847 55.5257L67.691 90.0707C66.7751 91.0535 65.2006 89.9514 65.8106 88.7544L79.7429 61.415C80.0335 60.8447 79.8068 60.1468 79.2365 59.8562L68.1077 54.1849C67.4128 53.8308 67.259 52.905 67.8023 52.3453Z" fill="#0A00D8"/>
</svg>
