<svg width="100" height="100" viewBox="0 0 100 100" fill="none" xmlns="http://www.w3.org/2000/svg">
<path fill-rule="evenodd" clip-rule="evenodd" d="M43.7888 70.3505C44.8601 69.24 46.0772 68.2728 47.4091 67.4803C48.1166 67.0594 48.5367 66.2727 48.5149 65.4457C48.5116 65.3206 48.51 65.1951 48.51 65.0691C48.51 57.3785 54.7033 51.144 62.3431 51.144C69.9829 51.144 76.1763 56.2181 76.1763 63.9087C76.1763 64.5047 76.7753 64.9495 77.3381 64.7646C79.0286 64.2091 80.8337 63.9087 82.7086 63.9087C92.2584 63.9087 100 72.8622 100 82.4755C100 92.0888 92.2584 99.8819 82.7086 99.8819H56.195C46.6452 99.8819 38.9036 92.0888 38.9036 82.4755C38.9036 78.3212 40.3494 74.5068 42.762 71.5143C42.9016 71.2921 43.0659 71.081 43.255 70.8849C43.4311 70.7022 43.6091 70.5241 43.7888 70.3505ZM62.3431 58.8802C64.4969 58.8802 66.0834 59.5912 67.0318 60.436C67.9014 61.2106 68.4912 62.2989 68.4912 63.9087C68.4912 69.669 74.1026 73.9657 79.7229 72.1189C80.653 71.8132 81.6536 71.6449 82.7086 71.6449C87.3907 71.6449 92.3149 76.4791 92.3149 82.4755C92.3149 87.8162 88.014 92.1457 82.7086 92.1457H56.195C50.8896 92.1457 46.5887 87.8162 46.5887 82.4755C46.5887 79.9143 47.5755 77.5807 49.2013 75.8445C51.5272 73.6385 53.884 73.0218 55.7066 73.1985C57.6628 73.3881 59.3418 74.503 60.2734 76.3201C61.2467 78.2184 63.5645 78.9631 65.4503 77.9833C67.3361 77.0035 68.0759 74.6703 67.1026 72.772C64.9602 68.5934 60.9714 65.9369 56.4433 65.498C56.3625 65.4901 56.2817 65.483 56.2007 65.4766C56.2005 65.3979 56.1994 65.3192 56.1973 65.2404C56.1958 65.1837 56.195 65.1266 56.195 65.0691C56.195 61.6511 58.9476 58.8802 62.3431 58.8802Z" fill="#0A00D8"/>
<path fill-rule="evenodd" clip-rule="evenodd" d="M60.8304 45.3914C68.765 41.4419 74.206 33.3354 74.206 23.9766C74.206 10.7347 63.3133 0 49.8764 0C36.4396 0 25.5468 10.7347 25.5468 23.9766C25.5468 37.2185 36.4396 47.9532 49.8764 47.9532C50.8943 47.9532 51.8977 47.8916 52.8828 47.772C55.2707 46.4488 57.9632 45.6108 60.8304 45.3914ZM49.8764 36.2573C56.3134 36.2573 62.0412 31.033 62.0412 23.9766C62.0412 16.9202 56.3134 11.6959 49.8764 11.6959C43.4394 11.6959 37.7116 16.9202 37.7116 23.9766C37.7116 31.033 43.4394 36.2573 49.8764 36.2573Z" fill="#0A00D8"/>
<path d="M48.6991 50.8808C26.3755 51.019 12.814 55.1649 5.83242 65.1548C2.40513 70.0589 1.053 75.7452 0.467436 81.4771C-0.0253331 86.3005 -0.0100983 91.6705 0.00538472 97.128C0.00809535 98.0835 0.0108135 99.0416 0.0108147 100H12.1756C12.1756 98.9659 12.1732 97.9595 12.1708 96.9791C12.1576 91.4851 12.1463 86.8061 12.574 82.6204C13.0714 77.7516 14.1131 74.2769 15.9296 71.6778C18.9375 67.3737 25.5693 63.5297 42.851 62.7267C43.3956 58.1018 45.5324 53.9609 48.6991 50.8808Z" fill="#0A00D8"/>
</svg>
