<svg width="101" height="101" viewBox="0 0 101 101" fill="none" xmlns="http://www.w3.org/2000/svg">
<path fill-rule="evenodd" clip-rule="evenodd" d="M100.161 83.0786C100.161 83.1096 100.186 83.1348 100.217 83.1348C100.248 83.1348 100.274 83.16 100.274 83.1911V98.3455C100.274 99.45 99.3781 100.345 98.2736 100.345H2.38629C1.28174 100.345 0.386292 99.45 0.386292 98.3455V89.2962C0.386292 89.2651 0.361084 89.2398 0.329956 89.2398C0.312805 89.2398 0.297485 89.2322 0.28717 89.2202C0.278687 89.2103 0.27356 89.1975 0.27356 89.1835V72.3081C0.27356 72.2842 0.292908 72.2648 0.316833 72.2648C0.339905 72.2648 0.358948 72.2465 0.360046 72.2234C0.993896 58.6847 8.25977 46.8843 18.9918 40.0706C19.5697 39.7038 19.9358 39.0769 19.9731 38.3935C21.1304 17.1874 38.5982 0.345459 59.9974 0.345459C81.5774 0.345459 99.1531 17.47 100.046 38.9197C100.047 38.9507 100.072 38.9754 100.103 38.9754C100.135 38.9754 100.161 39.0012 100.161 39.0331V83.0786ZM58.6003 41.8788C59.3585 40.9564 59.138 39.543 58.0261 38.994C51.6579 35.8494 44.7048 34.9884 36.9102 34.9884C36.6854 34.9884 36.4615 34.9903 36.2382 34.994C34.8395 35.0175 33.7667 33.7058 34.2927 32.4096C38.5056 22.0291 49.6484 11.8198 60.8839 11.8198C75.524 11.8198 87.4247 23.6243 87.6528 38.2814C87.653 38.287 87.6558 38.2919 87.66 38.2949C87.6627 38.2967 87.6659 38.2978 87.6694 38.2978C87.6785 38.2978 87.6859 38.3052 87.6859 38.3143V86.6444C87.6859 87.749 86.7905 88.6444 85.6859 88.6444H14.9802C13.8757 88.6444 12.9802 87.749 12.9802 86.6444V72.4976C13.8682 59.4732 24.6657 49.1902 37.8529 49.1902C40.4889 49.1902 44.8657 49.6081 47.7252 50.371C48.4457 50.5633 49.2291 50.4171 49.7811 49.9158L58.2998 42.1806L58.6003 41.8788Z" fill="#0A00D8"/>
</svg>
