<svg width="101" height="99" viewBox="0 0 101 99" fill="none" xmlns="http://www.w3.org/2000/svg">
<path d="M53.3502 45.8491C53.3502 54.9466 46.1084 62.3215 37.1751 62.3215C28.2418 62.3215 21 54.9466 21 45.8491C21 36.7517 28.2418 29.3767 37.1751 29.3767C46.1084 29.3767 53.3502 36.7517 53.3502 45.8491Z" fill="#0A00D8"/>
<path d="M75.516 65.6769C75.516 72.2473 70.2858 77.5736 63.834 77.5736C57.3822 77.5736 52.152 72.2473 52.152 65.6769C52.152 59.1065 57.3822 53.7802 63.834 53.7802C70.2858 53.7802 75.516 59.1065 75.516 65.6769Z" fill="#0A00D8"/>
<path d="M74.3179 35.4776C74.3179 39.8579 70.831 43.4088 66.5298 43.4088C62.2286 43.4088 58.7418 39.8579 58.7418 35.4776C58.7418 31.0974 62.2286 27.5465 66.5298 27.5465C70.831 27.5465 74.3179 31.0974 74.3179 35.4776Z" fill="#0A00D8"/>
<path fill-rule="evenodd" clip-rule="evenodd" d="M51.6696 13.9458C50.847 13.5497 49.8888 13.5497 49.0663 13.9458L21.4276 27.2559C20.605 27.6521 20.0076 28.4012 19.8044 29.2913L12.9782 59.1988C12.7751 60.0889 12.9883 61.0231 13.5575 61.7369L32.6841 85.7208C33.2533 86.4346 34.1166 86.8504 35.0296 86.8504H65.7063C66.6192 86.8504 67.4825 86.4346 68.0518 85.7208L87.1784 61.7369C87.7476 61.0231 87.9608 60.0889 87.7576 59.1988L80.9314 29.2913C80.7283 28.4012 80.1309 27.6521 79.3083 27.2559L51.6696 13.9458ZM52.1035 0.835791C51.0067 0.307625 49.7291 0.307626 48.6324 0.835792L11.4482 18.7427C10.3515 19.2709 9.55493 20.2698 9.28406 21.4565L0.100324 61.6931C-0.17055 62.8799 0.113738 64.1254 0.872711 65.0771L26.605 97.3443C27.3639 98.2961 28.515 98.8504 29.7323 98.8504H71.0036C72.2209 98.8504 73.3719 98.2961 74.1309 97.3443L99.8632 65.0771C100.622 64.1254 100.906 62.8799 100.636 61.6931L91.4518 21.4565C91.1809 20.2698 90.3844 19.2709 89.2876 18.7427L52.1035 0.835791Z" fill="#0A00D8"/>
</svg>
