<svg width="101" height="101" viewBox="0 0 101 101" fill="none" xmlns="http://www.w3.org/2000/svg">
<path fill-rule="evenodd" clip-rule="evenodd" d="M51.4252 14.0364C50.6489 13.6535 49.7432 13.6535 48.9669 14.0364L21.5452 27.5629C20.7739 27.9433 20.2143 28.6605 20.0247 29.5116L13.2207 60.0462C13.0317 60.8943 13.2304 61.784 13.761 62.4655L32.7863 86.9022C33.3211 87.5891 34.1348 87.9896 34.9957 87.9896H65.3964C66.2573 87.9896 67.071 87.5891 67.6058 86.9022L86.6311 62.4655C87.1617 61.784 87.3604 60.8943 87.1714 60.0462L80.3674 29.5116C80.1777 28.6605 79.6182 27.9433 78.8469 27.5629L51.4252 14.0364ZM90.7767 21.0885C90.587 20.2373 90.0275 19.5202 89.2561 19.1397L51.4252 0.478601C50.6489 0.0956746 49.7432 0.095675 48.9669 0.478601L11.136 19.1397C10.3646 19.5202 9.80509 20.2373 9.61542 21.0885L0.265978 63.0464C0.0769808 63.8946 0.275662 64.7843 0.80626 65.4658L26.9954 99.1039C27.5302 99.7909 28.3439 100.191 29.2048 100.191H71.1873C72.0481 100.191 72.8618 99.7909 73.3967 99.1039L99.5858 65.4658C100.116 64.7843 100.315 63.8946 100.126 63.0464L90.7767 21.0885Z" fill="#0A00D8"/>
<path d="M53.7905 46.8491C53.7905 55.9466 46.5487 63.3215 37.6154 63.3215C28.6822 63.3215 21.4403 55.9466 21.4403 46.8491C21.4403 37.7517 28.6822 30.3768 37.6154 30.3768C46.5487 30.3768 53.7905 37.7517 53.7905 46.8491Z" fill="#0A00D8"/>
<path d="M75.9563 66.6769C75.9563 73.2473 70.7261 78.5736 64.2743 78.5736C57.8225 78.5736 52.5923 73.2473 52.5923 66.6769C52.5923 60.1065 57.8225 54.7802 64.2743 54.7802C70.7261 54.7802 75.9563 60.1065 75.9563 66.6769Z" fill="#0A00D8"/>
<path d="M74.7582 36.4776C74.7582 40.8579 71.2714 44.4088 66.9702 44.4088C62.669 44.4088 59.1822 40.8579 59.1822 36.4776C59.1822 32.0974 62.669 28.5465 66.9702 28.5465C71.2714 28.5465 74.7582 32.0974 74.7582 36.4776Z" fill="#0A00D8"/>
</svg>
