<svg width="101" height="77" viewBox="0 0 101 77" fill="none" xmlns="http://www.w3.org/2000/svg">
<path d="M39.3759 14.6037C42.5301 13.1305 46.1594 12.2738 49.8912 12.1586C55.2282 11.9938 59.8721 13.348 63.0876 15.732C65.8718 14.1711 69.1907 12.9244 73.0013 12.5453C74.0107 12.4449 75.0105 12.4125 75.997 12.4438L75.9597 12.387C70.1435 3.51289 59.3659 0.0558102 49.5269 0.359606C40.5721 0.636099 30.9883 4.03207 24.5018 10.9603C16.682 11.3783 10.4022 14.7543 6.17805 19.9008C1.54707 25.5431 -0.310228 32.932 0.46297 39.9265C1.80438 52.0612 13.5431 62.7936 26.9816 61.4565C30.9387 61.0628 34.7036 59.2749 37.8321 57.3271C41.0421 55.3286 44.0697 52.8514 46.6243 50.5222C49.1365 48.2318 51.2941 45.99 52.8406 44.3017L52.9113 44.2244L54.2224 42.6223L54.2235 42.621L54.2431 42.5973L54.2637 42.5724C54.2828 42.5495 54.3082 42.519 54.3397 42.4814C54.4291 42.3746 54.5676 42.2105 54.751 41.997C55.1182 41.5697 55.6635 40.9466 56.3537 40.1907C57.7197 38.7067 59.8102 36.5335 61.9148 34.6146C64.1653 32.5628 66.6069 30.593 68.9928 29.1076C71.4602 27.5714 73.418 26.8385 74.773 26.7037C81.3703 26.0473 87.7138 31.6684 88.3899 37.7841C88.8498 41.945 87.6973 46.0823 85.2832 49.0235C82.9895 51.8181 76.5731 54.0099 73.329 53.6698C70.4569 53.6698 68.2076 52.4739 66.5406 51.0956C66.12 50.7478 65.7508 50.3992 65.4354 50.0744H51.2319C51.5484 52.2009 54.7295 55.7057 55.5198 56.6746C56.31 57.6434 58.1814 59.501 59.0183 60.193C59.6714 60.733 60.4024 61.2812 61.21 61.8099C58.0559 63.2831 54.4265 64.1398 50.6947 64.2551C45.4906 64.4157 40.9455 63.1321 37.7412 60.8578C34.5183 62.4823 30.6588 63.9103 26.5465 64.3195C25.9882 64.375 25.4405 64.4148 24.9028 64.4392C30.7795 73.008 41.374 76.3531 51.0591 76.054C60.0138 75.7775 69.5977 72.3815 76.0841 65.4533C83.904 65.0353 90.1837 61.6593 94.4079 56.5128C99.0389 50.8706 100.896 43.4816 100.123 36.4871C98.7816 24.3524 87.0428 13.62 73.6043 14.9571C69.6473 15.3508 65.8824 17.1387 62.7538 19.0865C59.5438 21.085 56.5163 23.5623 53.9616 25.8914C51.4494 28.1818 49.2211 30.5009 47.6745 32.1893L45.7975 34.3041C44.411 35.8225 40.9046 39.7627 38.6711 41.799C36.4206 43.8508 33.979 45.8206 31.5931 47.306C29.1257 48.8422 27.168 49.5751 25.8129 49.71C19.2157 50.3664 12.8721 44.7452 12.1961 38.6295C11.7361 34.4686 12.8886 30.3313 15.3027 27.3901C17.5964 24.5955 21.3246 22.5037 27.0132 22.7388L27.135 22.7438H27.2569C30.1291 22.7438 32.3784 23.9397 34.0454 25.3181C34.4659 25.6658 34.8351 26.0144 35.1505 26.3392H49.3541C48.5333 23.8597 45.0662 19.7391 45.0662 19.7391C45.4639 20.2267 44.8426 19.4212 45.0662 19.7391C44.2759 18.7702 43.1114 17.4971 41.5677 16.2206C40.9146 15.6806 40.1835 15.1324 39.3759 14.6037Z" fill="#0A00D8"/>
</svg>
