<svg width="100" height="94" viewBox="0 0 100 94" fill="none" xmlns="http://www.w3.org/2000/svg">
<path d="M7.96829 31.0963C9.71565 29.2983 11.7009 27.7324 13.8733 26.4493C15.0273 25.7678 15.7126 24.4941 15.677 23.1552C15.6716 22.9526 15.6689 22.7493 15.6689 22.5455C15.6689 10.0939 25.7708 0 38.2321 0C50.6935 0 60.7954 8.21516 60.7954 20.6667C60.7954 21.6316 61.7724 22.3518 62.6904 22.0524C65.4479 21.153 68.3922 20.6667 71.4502 20.6667C85.6881 20.6667 97.4618 32.778 99.3806 46.7461C98.1919 46.2109 96.8899 45.9227 95.5499 45.9227H86.4514C84.3725 38.5617 77.7759 33.1919 71.4502 33.1919C69.7295 33.1919 68.0973 33.4645 66.5803 33.9593C57.413 36.9495 48.2602 29.9929 48.2602 20.6667C48.2602 18.0603 47.2983 16.2982 45.8799 15.0442C44.3329 13.6764 41.7452 12.5253 38.2321 12.5253C32.6938 12.5253 28.204 17.0115 28.204 22.5455C28.204 22.6385 28.2053 22.7309 28.2077 22.8227C28.2111 22.9503 28.213 23.0778 28.2134 23.2052C28.3453 23.2155 28.4772 23.2271 28.6089 23.2397C35.9947 23.9504 42.5009 28.2515 45.9953 35.0167C47.5829 38.0902 46.3763 41.8678 43.3003 43.4541C40.2244 45.0404 36.4439 43.8348 34.8563 40.7613C33.3367 37.8193 30.5982 36.0143 27.4074 35.7073C24.4346 35.4213 20.5903 36.4197 16.7966 39.9914C14.1448 42.8024 12.5351 46.5805 12.5351 50.7273C12.5351 59.3742 19.5503 66.3839 28.204 66.3839H48.8309L48.8306 70.0676C48.8306 72.9538 50.1209 75.7111 52.3776 77.5365L53.8592 78.9091H28.204C12.6274 78.9091 0 66.2917 0 50.7273C0 44.0012 2.35816 37.8255 6.29344 32.9805C6.5211 32.6208 6.7891 32.279 7.09752 31.9615C7.38485 31.6657 7.67516 31.3773 7.96829 31.0963Z" fill="#0A00D8"/>
<path fill-rule="evenodd" clip-rule="evenodd" d="M54.6551 52.8001C55.988 50.9105 57.975 50.9139 58.2451 50.9143L95.5498 50.9143C96.8581 50.9143 98.1037 51.5052 98.9512 52.536C99.7374 53.4923 99.9998 54.5899 99.9998 55.4806V70.0677C99.9998 71.4728 99.3693 72.7992 98.291 73.6645L77.4873 93.9999L55.6152 73.737C54.4822 72.876 53.8132 71.5147 53.8132 70.0676L53.8146 55.3057C53.8362 54.7004 53.9922 53.7399 54.6551 52.8001ZM62.6953 60.0261H91.1178V67.8521L77.3409 82.55L62.6953 67.7777V60.0261Z" fill="#0A00D8"/>
</svg>
