<svg width="100" height="100" viewBox="0 0 100 100" fill="none" xmlns="http://www.w3.org/2000/svg">
<path fill-rule="evenodd" clip-rule="evenodd" d="M6.8963 0C3.08758 0 0 3.13095 0 6.99317V83.9181C0 86.6768 2.23858 88.9132 5 88.9132H49.4194C50.2579 88.9132 50.7241 87.9442 50.2002 87.2901L43.8002 79.2979C43.6105 79.0609 43.3232 78.923 43.0194 78.923H11.1902L21.0355 37.7835H89.4075L83.7999 63.0898C83.6528 63.7539 84.2058 64.373 84.8788 64.4756C87.2426 64.8361 89.3462 66.6375 90.7846 68.3461C91.3712 69.043 92.6283 68.8173 92.8253 67.9283L99.8294 36.3195C100.798 31.9479 97.5194 27.7932 93.1008 27.7932H90.1594C89.6071 27.7932 89.1594 27.3455 89.1594 26.7932V18.0314C89.1594 14.1923 86.1074 11.071 82.3216 11.0384L35.6835 10.6367V6.99317C35.6835 3.13094 32.5959 0 28.7871 0H6.8963ZM78.3075 27.7932C78.8598 27.7932 79.3075 27.3455 79.3075 26.7932V21.9945C79.3075 21.4456 78.865 20.9993 78.3161 20.9945L32.6693 20.6013C28.8836 20.5687 25.8316 17.4475 25.8316 13.6084V10.9902C25.8316 10.438 25.3839 9.99025 24.8316 9.99025H10.8519C10.2996 9.99025 9.85186 10.438 9.85186 10.9903V42.1534L12.0096 33.1372C12.76 30.0013 15.5291 27.7932 18.7114 27.7932H78.3075Z" fill="#0A00D8"/>
<path fill-rule="evenodd" clip-rule="evenodd" d="M79.1804 53.4815C79.3684 53.8031 79.4225 54.1843 79.3314 54.5446L68.3764 96.8562C68.2811 97.2329 68.0352 97.5552 67.6948 97.7493L65.9502 98.7441C65.2569 99.1395 64.3702 98.9049 63.9699 98.22L63.0678 96.6767C62.8807 96.3566 62.8262 95.9775 62.9155 95.6187L73.7538 53.1001C73.848 52.7219 74.0941 52.3979 74.4354 52.2028L76.1756 51.2079C76.8691 50.8115 77.7567 51.0459 78.1573 51.7313L79.1804 53.4815Z" fill="#0A00D8"/>
<path d="M84.4653 70.7495C83.6904 69.9536 82.3336 70.287 82.0265 71.3487L80.866 75.3597C80.7235 75.8524 80.8583 76.3828 81.2197 76.7505L87.6405 83.2842C88.1732 83.8262 88.188 84.6836 87.6744 85.2433L80.1552 92.3466C79.8305 92.7004 79.7057 93.1908 79.8224 93.6542L80.7907 97.4968C81.0671 98.5935 82.4604 98.9565 83.2485 98.1372L95.6542 85.2404C96.1882 84.6852 96.1856 83.8134 95.6481 83.2615L84.4653 70.7495Z" fill="#0A00D8"/>
<path d="M56.6739 57.1493C57.4488 56.3535 58.8056 56.6868 59.1128 57.7485L61.2732 61.7596C61.4157 62.2523 61.2809 62.7827 60.9195 63.1504L54.4987 69.684C53.966 70.226 53.9512 71.0835 54.4648 71.6431L58.984 77.7475C59.3088 78.1013 59.4335 78.5917 59.3168 79.055L58.3485 83.8966C58.0721 84.9933 56.6788 85.3564 55.8907 84.5371L45.485 71.6402C44.951 71.0851 44.9537 70.2132 45.4911 69.6613L56.6739 57.1493Z" fill="#0A00D8"/>
<path fill-rule="evenodd" clip-rule="evenodd" d="M68.2415 98.6682C68.8375 98.3283 69.2654 97.7658 69.4308 97.1119L80.3858 54.8002C80.5439 54.1748 80.4502 53.5128 80.1232 52.9533L79.1001 51.203C78.4019 50.0086 76.8466 49.5928 75.6279 50.2895L73.8876 51.2844C73.2901 51.6261 72.8621 52.1915 72.6985 52.8481L61.8602 95.3667C61.7051 95.9897 61.7995 96.6481 62.125 97.2049L63.0271 98.7482C63.7248 99.9417 65.2784 100.358 66.497 99.6631L68.2415 98.6682ZM79.3314 54.5446L68.3764 96.8562C68.2811 97.2329 68.0352 97.5552 67.6948 97.7493L65.9502 98.7441C65.2569 99.1395 64.3702 98.9049 63.9699 98.22L63.0678 96.6767C62.8807 96.3566 62.8262 95.9775 62.9155 95.6187L73.7538 53.1001C73.848 52.7219 74.0941 52.3979 74.4354 52.2028L76.1756 51.2079C76.8691 50.8115 77.7567 51.0459 78.1573 51.7313L79.1804 53.4815C79.3684 53.8031 79.4225 54.1843 79.3314 54.5446Z" fill="#0A00D8"/>
<path fill-rule="evenodd" clip-rule="evenodd" d="M62.3183 61.4697L60.1579 57.4587C59.624 55.6135 57.2491 55.0173 55.8877 56.4155L44.7048 68.9275C43.7691 69.8885 43.7645 71.4029 44.6942 72.3693L55.0999 85.2662C56.4849 86.706 58.9231 86.0563 59.4031 84.1514L60.3714 79.3098C60.574 78.5058 60.3582 77.6536 59.792 77.0367L55.2728 70.9323C55.1395 70.7871 55.1437 70.5615 55.2814 70.4214L61.7023 63.8877C62.3325 63.2464 62.5656 62.3245 62.3183 61.4697ZM61.2732 61.7596L59.1128 57.7485C58.8056 56.6868 57.4488 56.3535 56.6739 57.1493L45.4911 69.6613C44.9537 70.2132 44.951 71.0851 45.485 71.6402L55.8907 84.5371C56.6788 85.3564 58.0721 84.9933 58.3485 83.8966L59.3168 79.055C59.4335 78.5917 59.3088 78.1013 58.984 77.7475L54.4648 71.6431C53.9512 71.0835 53.966 70.226 54.4987 69.684L60.9195 63.1504C61.2809 62.7827 61.4157 62.2523 61.2732 61.7596Z" fill="#0A00D8"/>
<path fill-rule="evenodd" clip-rule="evenodd" d="M80.9813 71.0588L79.8209 75.0699C79.5736 75.9247 79.8067 76.8466 80.437 77.4879L86.8578 84.0215C86.9955 84.1617 86.9997 84.3873 86.8664 84.5325L79.5 91.4108C79.2727 91.6378 79.0455 91.968 78.8652 92.2608C78.6132 92.6697 78.5654 93.1654 78.6842 93.6307L79.7361 97.7515C80.2161 99.6564 82.6543 100.306 84.0393 98.8664L96.445 85.9695C97.3747 85.003 97.3701 83.4886 96.4344 82.5276L85.2515 70.0157C83.8901 68.6175 81.5152 69.2136 80.9813 71.0588ZM80.866 75.3597L82.0265 71.3487C82.3336 70.287 83.6904 69.9536 84.4653 70.7495L95.6481 83.2615C96.1856 83.8134 96.1882 84.6852 95.6542 85.2404L83.2485 98.1372C82.4604 98.9565 81.0671 98.5935 80.7907 97.4968L79.8224 93.6542C79.7057 93.1908 79.8305 92.7004 80.1552 92.3466L87.6744 85.2433C88.188 84.6836 88.1732 83.8262 87.6405 83.2842L81.2197 76.7505C80.8583 76.3828 80.7235 75.8524 80.866 75.3597Z" fill="#0A00D8"/>
</svg>
