<svg width="101" height="101" viewBox="0 0 101 101" fill="none" xmlns="http://www.w3.org/2000/svg">
<path d="M9.71094 63.1595C11.3745 63.1595 12.723 64.5121 12.723 66.1806V88.8392L85.0122 88.8392C86.6757 88.8392 88.0242 87.4866 88.0242 85.8181L88.0242 3.94498C88.0242 2.27644 89.3727 0.923828 91.0362 0.923828H97.0603C98.7238 0.923828 100.072 2.27644 100.072 3.94498L100.072 91.8604C100.072 96.866 96.0268 100.924 91.0362 100.924L9.10853 100.924C4.11801 100.924 0.0723877 96.866 0.0723877 91.8604V66.1806C0.0723877 64.5121 1.42093 63.1595 3.08444 63.1595H9.71094Z" fill="#0A00D8"/>
<path d="M69.2222 31.6478H75.1798C78.7692 31.6478 81.679 28.7292 81.679 25.1289V19.1533C81.679 15.5531 78.7692 12.6345 75.1798 12.6345H69.2222C65.6328 12.6345 62.723 15.5531 62.723 19.1533V25.1289C62.723 28.7292 65.6328 31.6478 69.2222 31.6478Z" fill="#0A00D8"/>
<path d="M75.1798 57.0254H69.2222C65.6328 57.0254 62.723 54.1068 62.723 50.5066V44.531C62.723 40.9307 65.6328 38.0121 69.2222 38.0121H75.1798C78.7692 38.0121 81.679 40.9307 81.679 44.531V50.5066C81.679 54.1068 78.7692 57.0254 75.1798 57.0254Z" fill="#0A00D8"/>
<path d="M43.921 82.4031H49.8786C53.468 82.4031 56.3778 79.4845 56.3778 75.8842V69.9086C56.3778 66.3083 53.468 63.3897 49.8786 63.3897H43.921C40.3316 63.3897 37.4218 66.3083 37.4218 69.9086V75.8842C37.4218 79.4845 40.3316 82.4031 43.921 82.4031Z" fill="#0A00D8"/>
<path d="M69.2222 82.4031H75.1798C78.7692 82.4031 81.679 79.4845 81.679 75.8842V69.9086C81.679 66.3083 78.7692 63.3897 75.1798 63.3897H69.2222C65.6328 63.3897 62.723 66.3083 62.723 69.9086V75.8842C62.723 79.4845 65.6328 82.4031 69.2222 82.4031Z" fill="#0A00D8"/>
<path d="M7.37963 32.8637L15.8213 24.395L25.3624 33.9668H25.5297C25.525 33.944 25.5203 33.9212 25.5155 33.8983C25.5106 33.8749 25.5057 33.8515 25.5008 33.8281C25.4572 33.6212 25.4111 33.4148 25.3624 33.209C25.0433 31.8585 24.6165 30.5326 24.0845 29.2444C22.8658 26.2932 21.1175 23.5937 18.9284 21.2791C18.7713 21.1131 18.612 20.949 18.4505 20.787C16.037 18.3662 13.1719 16.446 10.0185 15.1359C9.58842 14.9572 9.1541 14.7903 8.71605 14.6354C5.94261 13.6544 3.01996 13.1515 0.0723877 13.1515V1.1541C4.17385 1.1541 8.24226 1.82092 12.1206 3.12322C12.955 3.40341 13.7806 3.71302 14.5959 4.05174C19.2004 5.96476 23.3842 8.76871 26.9084 12.3035C29.5479 14.951 31.7786 17.9696 33.5335 21.2586C33.6439 21.4654 33.7524 21.6733 33.859 21.8823C34.3204 22.787 34.7463 23.7113 35.1353 24.6532C35.473 25.4709 35.7817 26.299 36.061 27.136C36.7732 29.2698 37.2948 31.461 37.6206 33.6836C37.6284 33.7369 37.6361 33.7903 37.6437 33.8437C37.6495 33.8847 37.6553 33.9258 37.661 33.9669H37.9031L47.0509 24.7896L55.4925 33.2584L30.7406 57.4855L7.37963 32.8637Z" fill="#0A00D8"/>
</svg>
