<svg width="101" height="97" viewBox="0 0 101 97" fill="none" xmlns="http://www.w3.org/2000/svg">
<path d="M77.2092 13.6131C74.847 8.16332 70.8353 3.60188 65.7514 0.563054C65.2773 0.279698 64.6681 0.457348 64.4016 0.941104L59.6523 9.56363C59.3858 10.0474 59.5639 10.653 60.0306 10.9483C62.8204 12.7133 65.0231 15.2804 66.3422 18.3235C67.7941 21.6731 68.0931 25.4099 67.1924 28.9478C66.2916 32.4857 64.242 35.6245 61.365 37.872C58.4881 40.1195 54.9465 41.3484 51.2958 41.3661C47.6451 41.3838 44.0917 40.1892 41.1931 37.9698C38.2945 35.7503 36.2146 32.6315 35.2795 29.1025C34.3445 25.5735 34.6073 21.834 36.0267 18.4704C37.3162 15.4147 39.4939 12.8264 42.2665 11.0344C42.7303 10.7346 42.9025 10.1273 42.6314 9.64614L37.7987 1.07005C37.5275 0.588903 36.9166 0.417169 36.4453 0.705107C31.391 3.79308 27.4238 8.39319 25.1145 13.8656C22.6754 19.6455 22.2238 26.0716 23.8306 32.1359C24.4496 34.4722 25.3606 36.7038 26.5315 38.7828C26.9152 39.464 26.4518 40.3442 25.6731 40.4139C23.9647 40.567 22.265 40.8778 20.5956 41.3475C14.6365 43.0243 9.40248 46.6317 5.71452 51.6038C2.22546 56.3078 0.306926 61.9815 0.215693 67.8208C0.207065 68.373 0.665575 68.8118 1.21775 68.8007L10.9031 68.6057C11.4553 68.5946 11.8907 68.1375 11.9135 67.5857C12.0479 64.3355 13.1545 61.1914 15.1016 58.5664C17.2477 55.673 20.2935 53.5737 23.7613 52.5979C27.2292 51.6221 30.9228 51.825 34.2629 53.1747C37.6029 54.5244 40.4005 56.9446 42.2169 60.0557C44.0332 63.1668 44.7656 66.7927 44.299 70.3649C43.8324 73.937 42.1934 77.2532 39.6389 79.7934C37.0845 82.3336 33.7591 83.9541 30.1844 84.4007C26.9413 84.8058 23.6594 84.2239 20.7629 82.7432C20.2712 82.4918 19.6592 82.6463 19.378 83.1217L14.447 91.4601C14.1659 91.9355 14.3226 92.5505 14.8078 92.8145C19.9376 95.6055 25.8217 96.7239 31.6332 95.9979C37.776 95.2305 43.4904 92.4459 47.88 88.0807C48.5502 87.4143 49.1838 86.7167 49.7791 85.9912C50.2039 85.4735 51.009 85.4729 51.435 85.9896C52.0098 86.6869 52.6205 87.3578 53.2658 87.9994C57.589 92.2985 63.2169 95.041 69.2668 95.7968C74.9854 96.5112 80.7752 95.4123 85.8243 92.6688C86.3096 92.4051 86.4663 91.7901 86.1852 91.3147L81.3442 83.1284C81.0631 82.653 80.4511 82.4986 79.9591 82.7495C77.1097 84.2028 73.8826 84.7734 70.6936 84.3751C67.173 83.9352 63.898 82.3393 61.3822 79.8375C58.8664 77.3358 57.2521 74.0697 56.7926 70.5516C56.3331 67.0335 57.0544 63.4624 58.8432 60.3984C60.6321 57.3344 63.3874 54.9508 66.6769 53.6216C69.9664 52.2923 73.6042 52.0925 77.0195 53.0535C80.4349 54.0145 83.4346 56.082 85.5483 58.9317C87.4629 61.5129 88.5523 64.6037 88.6874 67.7994C88.7108 68.3512 89.1461 68.8082 89.6983 68.8193L99.2069 69.0108C99.7591 69.022 100.218 68.5831 100.209 68.0309C100.116 62.2853 98.2265 56.7032 94.7933 52.0744C91.1611 47.1775 86.0063 43.6247 80.1373 41.9733C78.8609 41.6141 77.5664 41.3493 76.2639 41.1783C75.4938 41.0772 75.0658 40.1896 75.4673 39.5248C76.8954 37.1599 77.9794 34.5833 78.6702 31.8701C80.2181 25.7905 79.7042 19.3691 77.2092 13.6131Z" fill="#0A00D8"/>
</svg>
