<svg width="100" height="100" viewBox="0 0 100 100" fill="none" xmlns="http://www.w3.org/2000/svg">
<path fill-rule="evenodd" clip-rule="evenodd" d="M67.3926 45.3463C67.6445 46.2901 68.4667 47 69.4435 47H80C81.1046 47 82 47.8954 82 49V51C82 52.1046 81.1046 53 80 53H69.4435C68.4667 53 67.6445 53.7099 67.3926 54.6537C65.3415 62.3391 58.3318 68 50 68C41.6682 68 34.6585 62.3391 32.6074 54.6537C32.3555 53.7099 31.5333 53 30.5565 53H21C19.8954 53 19 52.1046 19 51V49C19 47.8954 19.8954 47 21 47H30.5565C31.5333 47 32.3555 46.2901 32.6074 45.3463C34.6585 37.6609 41.6682 32 50 32C58.3318 32 65.3415 37.6609 67.3926 45.3463ZM62 50C62 56.6274 56.6274 62 50 62C43.3726 62 38 56.6274 38 50C38 43.3726 43.3726 38 50 38C56.6274 38 62 43.3726 62 50Z" fill="#0A00D8"/>
<path fill-rule="evenodd" clip-rule="evenodd" d="M100 50C100 77.6142 77.6142 100 50 100C22.3858 100 0 77.6142 0 50C0 22.3858 22.3858 0 50 0C77.6142 0 100 22.3858 100 50ZM88 50C88 70.9868 70.9868 88 50 88C29.0132 88 12 70.9868 12 50C12 29.0132 29.0132 12 50 12C70.9868 12 88 29.0132 88 50Z" fill="#0A00D8"/>
</svg>
