<svg width="101" height="69" viewBox="0 0 101 69" fill="none" xmlns="http://www.w3.org/2000/svg">
<path fill-rule="evenodd" clip-rule="evenodd" d="M22.1307 9.75342C23.2357 8.50192 23.2531 6.60591 22.0726 5.42539L17.8016 1.15436C16.6225 -0.0247525 14.6993 -0.0399883 13.5765 1.19286C9.07537 6.13516 0.908936 17.0855 0.908936 34.5558C0.908936 51.7568 9.00948 62.8211 13.2895 67.6095C14.4006 68.8526 16.3203 68.8343 17.4993 67.6553L21.7699 63.3846C22.9507 62.2038 22.9344 60.3065 21.8464 59.0397C18.5114 55.1568 12.9915 47.0175 12.9915 34.5558C12.9915 21.8132 18.5949 13.758 22.1307 9.75342Z" fill="#0A00D8"/>
<path fill-rule="evenodd" clip-rule="evenodd" d="M31.4162 34.52C31.5149 29.3481 33.5918 25.5721 35.499 23.1125C36.5212 21.7941 36.5452 19.8983 35.3656 18.7186L31.0938 14.4467C29.9142 13.2671 27.9901 13.2545 26.9106 14.5265C23.7768 18.2194 19.5168 24.8091 19.3359 34.2894C19.1558 43.727 23.4061 51.0113 26.3745 54.8279C27.3988 56.1448 29.31 56.1464 30.4897 54.9668L34.7615 50.6949C35.9411 49.5152 35.9547 47.5798 35.0283 46.1924C33.3454 43.6722 31.3208 39.5176 31.4162 34.52Z" fill="#0A00D8"/>
<path fill-rule="evenodd" clip-rule="evenodd" d="M79.6872 9.75342C78.5822 8.50192 78.5648 6.60591 79.7453 5.42539L84.0162 1.15436C85.1953 -0.0247525 87.1186 -0.0399883 88.2414 1.19286C92.7425 6.13516 100.909 17.0855 100.909 34.5558C100.909 51.7568 92.8084 62.8211 88.5284 67.6095C87.4173 68.8526 85.4976 68.8343 84.3186 67.6553L80.0479 63.3846C78.8672 62.2038 78.8835 60.3065 79.9715 59.0397C83.3064 55.1568 88.8264 47.0175 88.8264 34.5558C88.8264 21.8132 83.2229 13.758 79.6872 9.75342Z" fill="#0A00D8"/>
<path fill-rule="evenodd" clip-rule="evenodd" d="M70.4016 34.52C70.3029 29.3481 68.226 25.5721 66.3189 23.1125C65.2966 21.7941 65.2726 19.8983 66.4523 18.7186L70.7241 14.4467C71.9037 13.2671 73.8278 13.2545 74.9072 14.5265C78.0411 18.2194 82.301 24.8091 82.482 34.2894C82.6621 43.727 78.4117 51.0113 75.4433 54.8279C74.4191 56.1448 72.5078 56.1464 71.3282 54.9668L67.0564 50.6949C65.8767 49.5152 65.8632 47.5798 66.7896 46.1924C68.4724 43.6722 70.497 39.5176 70.4016 34.52Z" fill="#0A00D8"/>
<path d="M63.1081 34.6638C63.1081 41.3369 57.6986 46.7465 51.0256 46.7465C44.3526 46.7465 38.943 41.3369 38.943 34.6638C38.943 27.9907 44.3526 22.5811 51.0256 22.5811C57.6986 22.5811 63.1081 27.9907 63.1081 34.6638Z" fill="#0A00D8"/>
</svg>
