<svg width="100" height="100" viewBox="0 0 100 100" fill="none" xmlns="http://www.w3.org/2000/svg">
<path d="M11.0148 8.87343C9.79815 8.87343 8.81185 9.86662 8.81185 11.0918V63.0014C8.81185 63.2014 8.83815 63.3953 8.88745 63.5797V74.0932H2.20296C0.986299 74.0932 0 73.1 0 71.8748V2.21836C0 0.993194 0.9863 0 2.20296 0H61.2424C62.459 0 63.4453 0.993193 63.4453 2.21836V9.01636H53.2101C52.9678 8.92399 52.705 8.87343 52.4305 8.87343H11.0148Z" fill="#0A00D8"/>
<path fill-rule="evenodd" clip-rule="evenodd" d="M71.3136 93.0602C83.3618 93.0602 93.1289 83.1954 93.1289 71.0264C93.1289 58.8575 83.3618 48.9926 71.3136 48.9926C59.2653 48.9926 49.4982 58.8575 49.4982 71.0264C49.4982 83.1954 59.2653 93.0602 71.3136 93.0602ZM71.3136 100C87.1566 100 99.9999 87.0281 99.9999 71.0264C99.9999 55.0248 87.1566 42.0529 71.3136 42.0529C66.9293 42.0529 62.7749 43.0462 59.0587 44.8223C50.1824 49.0645 43.8067 57.772 42.7743 68.0737C42.6771 69.0446 42.6272 70.0296 42.6272 71.0264C42.6272 87.0281 55.4705 100 71.3136 100Z" fill="#0A00D8"/>
<path fill-rule="evenodd" clip-rule="evenodd" d="M88.6665 65.5734L68.4943 85.4175C67.6874 86.2113 66.3703 86.1912 65.5889 85.3732L53.9999 73.1615L59.6888 67.5307L65.5356 74.0897C66.3088 74.9384 67.6504 74.9754 68.471 74.1705L82.9191 60L88.6665 65.5734Z" fill="#0A00D8"/>
<path d="M24.6708 21.9199C23.0316 21.9199 21.7028 23.2621 21.7028 24.9177V75.46C21.7028 77.1156 23.0316 78.4577 24.6708 78.4577H38.2532C38.9474 81.6102 40.074 84.6006 41.5676 87.3613H15.0913C13.8741 87.3613 12.8875 86.3648 12.8875 85.1354V15.2423C12.8875 14.0129 13.8741 13.0164 15.0913 13.0164H74.154C75.3711 13.0164 76.3578 14.0129 76.3578 15.2423V37.2496C74.7127 37.0022 73.0283 36.8739 71.3136 36.8739C70.0396 36.8739 68.7812 36.9451 67.5425 37.0837V24.9177C67.5425 23.2621 66.2136 21.9199 64.5744 21.9199H24.6708Z" fill="#0A00D8"/>
<path d="M57.9572 39.6342C57.5763 39.7992 57.199 39.971 56.8255 40.1495C56.5109 40.2999 56.199 40.4549 55.8899 40.6147C55.8465 40.6166 55.8029 40.6175 55.7591 40.6175H33.9269C32.2877 40.6175 30.9589 39.2754 30.9589 37.6197V34.7117C30.9589 33.0561 32.2877 31.7139 33.9269 31.7139H55.7591C57.3983 31.7139 58.7271 33.0561 58.7271 34.7117V37.6197C58.7271 38.3952 58.4356 39.102 57.9572 39.6342Z" fill="#0A00D8"/>
<path d="M48.799 45.5145C45.9727 48.0528 43.5717 51.0613 41.716 54.4181H33.9269C32.2877 54.4181 30.9589 53.0759 30.9589 51.4203V48.5122C30.9589 46.8566 32.2877 45.5145 33.9269 45.5145H48.799Z" fill="#0A00D8"/>
<path d="M39.3352 59.7602H33.9269C32.2877 59.7602 30.9589 61.1023 30.9589 62.758V65.666C30.9589 67.3216 32.2877 68.6638 33.9269 68.6638H37.5282C37.5534 68.2934 37.5844 67.9246 37.6212 67.5573C37.8922 64.8528 38.4758 62.2413 39.3352 59.7602Z" fill="#0A00D8"/>
<path d="M43.5795 78.4577C43.6571 78.7537 43.7391 79.0478 43.8256 79.34C43.8435 79.045 43.8647 78.7509 43.8894 78.4577H43.5795Z" fill="#0A00D8"/>
</svg>
