<svg width="101" height="101" viewBox="0 0 101 101" fill="none" xmlns="http://www.w3.org/2000/svg">
<path fill-rule="evenodd" clip-rule="evenodd" d="M0.908936 49.7385C0.908936 50.5292 1.22137 51.2878 1.77813 51.849L48.7703 99.2137C49.941 100.394 51.8482 100.394 53.0193 99.2143L100.039 51.8491C100.596 51.2879 100.909 50.529 100.909 49.7379V3.09467C100.909 1.44017 99.5685 0.0989374 97.9149 0.098938L3.90295 0.098973C2.2494 0.0989736 0.908936 1.44021 0.908936 3.09471V49.7385ZM53.0522 80.8983C51.871 82.1053 49.9266 82.097 48.7558 80.8798L14.8926 45.6758C14.3557 45.1176 14.0558 44.373 14.0558 43.5984V15.8521C14.0558 14.1976 15.3962 12.8563 17.0498 12.8563H85.9657C87.6192 12.8563 88.9597 14.1976 88.9597 15.8521V42.9842C88.9597 43.7678 88.6528 44.5202 88.1049 45.0801L53.0522 80.8983Z" fill="#0A00D8"/>
<path fill-rule="evenodd" clip-rule="evenodd" d="M82.5967 33.489L52.3439 63.8502C51.1337 65.0647 49.1585 65.034 47.9865 63.7825L30.6061 45.0988L39.1379 36.4837L47.9065 46.5189C49.0662 47.8174 51.0782 47.8739 52.3089 46.6426L73.9771 24.9619L82.5967 33.489Z" fill="#0A00D8"/>
</svg>
