<svg width="101" height="101" viewBox="0 0 101 101" fill="none" xmlns="http://www.w3.org/2000/svg">
<path fill-rule="evenodd" clip-rule="evenodd" d="M15.2422 13.1005C13.5787 13.1005 12.2302 14.4572 12.2302 16.1308V70.0702C12.2302 71.7437 13.5787 73.1005 15.2422 73.1005H85.4086C87.0721 73.1005 88.4207 71.7437 88.4207 70.0702V16.1308C88.4207 14.4572 87.0721 13.1005 85.4086 13.1005H15.2422ZM3.30163 0.979248C1.65793 0.979248 0.325439 2.33596 0.325439 4.00955V82.1914C0.325439 83.865 1.65793 85.2217 3.30163 85.2217H97.3493C98.993 85.2217 100.325 83.865 100.325 82.1914V4.00955C100.325 2.33596 98.993 0.979248 97.3493 0.979248H3.30163Z" fill="#0A00D8"/>
<path fill-rule="evenodd" clip-rule="evenodd" d="M25.6266 91.8883C25.6266 90.2148 26.9752 88.858 28.6387 88.858H72.0122C73.6757 88.858 75.0242 90.2148 75.0242 91.8883V97.9489C75.0242 99.6225 73.6757 100.979 72.0122 100.979H28.6387C26.9752 100.979 25.6266 99.6225 25.6266 97.9489V91.8883Z" fill="#0A00D8"/>
</svg>
