<svg width="100" height="100" viewBox="0 0 100 100" fill="none" xmlns="http://www.w3.org/2000/svg">
<mask id="path-1-inside-1_648_678" fill="white">
<path fill-rule="evenodd" clip-rule="evenodd" d="M52.2466 22.3461C51.368 21.885 50.3261 21.885 49.4475 22.3461L29.8559 32.6296C28.9901 33.0841 28.9625 34.3394 29.8075 34.8331L49.3265 46.2392C50.2687 46.7898 51.4254 46.7898 52.3676 46.2392L71.8866 34.833C72.7315 34.3392 72.7039 33.0839 71.8381 32.6294L52.2466 22.3461ZM28.0166 64.1249C27.3936 63.8064 27.0001 63.1553 27.0001 62.4431V42.2832C27.0001 40.8212 28.5603 39.9185 29.7859 40.6715L46.9744 51.2313C47.5277 51.5712 47.8662 52.1829 47.8662 52.843V73.2312C47.8662 74.629 46.4277 75.538 45.205 74.9129L28.0166 64.1249ZM56.4891 74.9129C55.2664 75.538 53.8279 74.6289 53.8279 73.2312V52.843C53.8279 52.1829 54.1664 51.5712 54.7197 51.2313L71.9082 40.6715C73.1338 39.9185 74.694 40.8212 74.694 42.2832V62.4431C74.694 63.1553 74.3005 63.8064 73.6775 64.1249L56.4891 74.9129Z"/>
<path d="M94.7788 26.4581L99.5691 17.1563C99.8112 16.6861 99.6454 16.1087 99.1908 15.8387L92.321 11.7582C91.8282 11.4655 91.1907 11.6461 90.9246 12.1537L88.2969 17.1664C90.7931 20.0096 92.9676 23.1263 94.7788 26.4581Z"/>
<path d="M78.6386 8.64496C68.4499 1.74438 56.1221 -1.17553 43.9573 0.430534C31.7925 2.03659 20.6226 8.0588 12.5335 17.3725C4.66232 26.4353 0.231949 38.0117 0.00896059 50.0423C-0.00127439 50.5945 0.447856 51.0421 1.00015 51.0416L11.5733 51.0321C12.1255 51.0316 12.5715 50.5833 12.5853 50.0312C12.8087 41.0849 16.1291 32.4875 21.9865 25.7434C28.0618 18.7483 36.451 14.2253 45.5874 13.0191C54.7238 11.8128 63.9826 14.0058 71.6348 19.1885C78.5729 23.8875 83.512 31.2753 86.1333 39.3163C86.4174 40.1879 87.6431 40.3145 88.0628 39.4995L94.7788 26.4581C92.9676 23.1263 90.7931 20.0096 88.2969 17.1664C85.47 13.9466 82.2305 11.0777 78.6386 8.64496Z"/>
<path d="M5.22137 73.5419L0.431096 82.8437C0.188975 83.3139 0.354776 83.8913 0.809455 84.1613L7.67925 88.2418C8.17203 88.5345 8.80951 88.3539 9.07561 87.8463L11.7033 82.8336C9.20712 79.9904 7.03266 76.8737 5.22137 73.5419Z"/>
<path d="M21.3616 91.355C31.5503 98.2556 43.8781 101.176 56.0429 99.5695C68.2077 97.9634 79.3776 91.9412 87.4667 82.6275C95.3379 73.5647 99.7683 61.9883 99.9913 49.9577C100.002 49.4055 99.5524 48.9579 99.0001 48.9584L88.427 48.9679C87.8747 48.9684 87.4287 49.4167 87.4149 49.9688C87.1915 58.9151 83.8711 67.5125 78.0138 74.2566C71.9384 81.2517 63.5492 85.7747 54.4128 86.9809C45.2765 88.1872 36.0176 85.9942 28.3654 80.8115C21.4274 76.1125 16.4882 68.7247 13.8669 60.6837C13.5828 59.8121 12.3571 59.6855 11.9374 60.5005L5.22137 73.5419C7.03266 76.8737 9.20712 79.9904 11.7033 82.8336C14.5302 86.0534 17.7697 88.9223 21.3616 91.355Z"/>
</mask>
<path fill-rule="evenodd" clip-rule="evenodd" d="M52.2466 22.3461C51.368 21.885 50.3261 21.885 49.4475 22.3461L29.8559 32.6296C28.9901 33.0841 28.9625 34.3394 29.8075 34.8331L49.3265 46.2392C50.2687 46.7898 51.4254 46.7898 52.3676 46.2392L71.8866 34.833C72.7315 34.3392 72.7039 33.0839 71.8381 32.6294L52.2466 22.3461ZM28.0166 64.1249C27.3936 63.8064 27.0001 63.1553 27.0001 62.4431V42.2832C27.0001 40.8212 28.5603 39.9185 29.7859 40.6715L46.9744 51.2313C47.5277 51.5712 47.8662 52.1829 47.8662 52.843V73.2312C47.8662 74.629 46.4277 75.538 45.205 74.9129L28.0166 64.1249ZM56.4891 74.9129C55.2664 75.538 53.8279 74.6289 53.8279 73.2312V52.843C53.8279 52.1829 54.1664 51.5712 54.7197 51.2313L71.9082 40.6715C73.1338 39.9185 74.694 40.8212 74.694 42.2832V62.4431C74.694 63.1553 74.3005 63.8064 73.6775 64.1249L56.4891 74.9129Z" fill="#D9D9D9"/>
<path d="M94.7788 26.4581L99.5691 17.1563C99.8112 16.6861 99.6454 16.1087 99.1908 15.8387L92.321 11.7582C91.8282 11.4655 91.1907 11.6461 90.9246 12.1537L88.2969 17.1664C90.7931 20.0096 92.9676 23.1263 94.7788 26.4581Z" fill="#D9D9D9"/>
<path d="M78.6386 8.64496C68.4499 1.74438 56.1221 -1.17553 43.9573 0.430534C31.7925 2.03659 20.6226 8.0588 12.5335 17.3725C4.66232 26.4353 0.231949 38.0117 0.00896059 50.0423C-0.00127439 50.5945 0.447856 51.0421 1.00015 51.0416L11.5733 51.0321C12.1255 51.0316 12.5715 50.5833 12.5853 50.0312C12.8087 41.0849 16.1291 32.4875 21.9865 25.7434C28.0618 18.7483 36.451 14.2253 45.5874 13.0191C54.7238 11.8128 63.9826 14.0058 71.6348 19.1885C78.5729 23.8875 83.512 31.2753 86.1333 39.3163C86.4174 40.1879 87.6431 40.3145 88.0628 39.4995L94.7788 26.4581C92.9676 23.1263 90.7931 20.0096 88.2969 17.1664C85.47 13.9466 82.2305 11.0777 78.6386 8.64496Z" fill="#D9D9D9"/>
<path d="M5.22137 73.5419L0.431096 82.8437C0.188975 83.3139 0.354776 83.8913 0.809455 84.1613L7.67925 88.2418C8.17203 88.5345 8.80951 88.3539 9.07561 87.8463L11.7033 82.8336C9.20712 79.9904 7.03266 76.8737 5.22137 73.5419Z" fill="#D9D9D9"/>
<path d="M21.3616 91.355C31.5503 98.2556 43.8781 101.176 56.0429 99.5695C68.2077 97.9634 79.3776 91.9412 87.4667 82.6275C95.3379 73.5647 99.7683 61.9883 99.9913 49.9577C100.002 49.4055 99.5524 48.9579 99.0001 48.9584L88.427 48.9679C87.8747 48.9684 87.4287 49.4167 87.4149 49.9688C87.1915 58.9151 83.8711 67.5125 78.0138 74.2566C71.9384 81.2517 63.5492 85.7747 54.4128 86.9809C45.2765 88.1872 36.0176 85.9942 28.3654 80.8115C21.4274 76.1125 16.4882 68.7247 13.8669 60.6837C13.5828 59.8121 12.3571 59.6855 11.9374 60.5005L5.22137 73.5419C7.03266 76.8737 9.20712 79.9904 11.7033 82.8336C14.5302 86.0534 17.7697 88.9223 21.3616 91.355Z" fill="#D9D9D9"/>
<path d="M83.7881 21.125C85.9898 23.6327 87.9086 26.3828 89.5075 29.3239L100.05 23.5924C98.0265 19.8699 95.5965 16.3864 92.8057 13.2078L83.7881 21.125ZM16.2121 78.875C14.0105 76.3673 12.0916 73.6172 10.4928 70.6761L-0.0500163 76.4076C1.9737 80.1301 4.40377 83.6136 7.19448 86.7922L16.2121 78.875ZM52.2466 22.3461L46.6695 32.9714L46.6695 32.9714L52.2466 22.3461ZM49.4475 22.3461L43.8704 11.7209L43.8704 11.7209L49.4475 22.3461ZM29.8559 32.6296L24.2788 22.0044L24.2788 22.0044L29.8559 32.6296ZM29.8075 34.8331L35.8619 24.4724L35.8619 24.4724L29.8075 34.8331ZM49.3265 46.2392L55.3808 35.8785H55.3808L49.3265 46.2392ZM52.3676 46.2392L46.3132 35.8786L46.3132 35.8786L52.3676 46.2392ZM71.8866 34.833L77.941 45.1936L77.9411 45.1936L71.8866 34.833ZM71.8381 32.6294L77.4152 22.0042L71.8381 32.6294ZM28.0166 64.1249L34.3958 53.9609L33.949 53.6805L33.4793 53.4404L28.0166 64.1249ZM29.7859 40.6715L23.5044 50.8961L23.5044 50.8961L29.7859 40.6715ZM46.9744 51.2313L40.6928 61.4559L40.6929 61.4559L46.9744 51.2313ZM45.205 74.9129L38.8258 85.0769L39.2726 85.3573L39.7423 85.5974L45.205 74.9129ZM56.4891 74.9129L61.9518 85.5974L62.4215 85.3573L62.8683 85.0769L56.4891 74.9129ZM54.7197 51.2313L61.0012 61.4559L61.0012 61.4559L54.7197 51.2313ZM71.9082 40.6715L78.1897 50.8961V50.8961L71.9082 40.6715ZM73.6775 64.1249L68.2148 53.4403L67.7451 53.6805L67.2983 53.9609L73.6775 64.1249ZM78.6386 8.64496L71.9094 18.5806L78.6386 8.64496ZM12.5335 17.3725L3.47352 9.50379L12.5335 17.3725ZM21.9865 25.7434L31.0464 33.6121L21.9865 25.7434ZM71.6348 19.1885L64.9056 29.1242L71.6348 19.1885ZM88.2969 17.1664L79.2792 25.0836L90.8105 38.2176L98.9251 22.7378L88.2969 17.1664ZM94.7788 26.4581L84.1104 20.9641L94.7788 26.4581ZM92.321 11.7582L98.4491 1.44095L92.321 11.7582ZM90.9246 12.1537L101.553 17.7251L90.9246 12.1537ZM99.1908 15.8387L105.319 5.52139L99.1908 15.8387ZM99.5691 17.1563L88.9007 11.6622V11.6622L99.5691 17.1563ZM11.5733 51.0321L11.5626 39.0321L11.5733 51.0321ZM12.5853 50.0312L24.5816 50.3308L12.5853 50.0312ZM86.1333 39.3163L97.5424 35.597L86.1333 39.3163ZM88.0628 39.4995L98.7312 44.9935V44.9935L88.0628 39.4995ZM0.00896059 50.0423L12.0069 50.2647L0.00896059 50.0423ZM1.00015 51.0416L1.01085 63.0416H1.01085L1.00015 51.0416ZM21.3616 91.355L28.0909 81.4194L21.3616 91.355ZM87.4667 82.6275L96.5267 90.4962L87.4667 82.6275ZM78.0138 74.2566L68.9538 66.3879L78.0138 74.2566ZM28.3654 80.8115L35.0946 70.8758L28.3654 80.8115ZM11.7033 82.8336L20.721 74.9164L9.18975 61.7824L1.07508 77.2622L11.7033 82.8336ZM5.22137 73.5419L-5.44706 68.0478H-5.44706L5.22137 73.5419ZM7.67925 88.2418L1.55112 98.5591H1.55112L7.67925 88.2418ZM9.07561 87.8463L19.7038 93.4177L19.7038 93.4177L9.07561 87.8463ZM0.809455 84.1613L6.93759 73.8441H6.93759L0.809455 84.1613ZM0.431096 82.8437L-10.2373 77.3497H-10.2373L0.431096 82.8437ZM88.427 48.9679L88.4377 60.9679L88.427 48.9679ZM87.4149 49.9688L75.4187 49.6692L87.4149 49.9688ZM13.8669 60.6837L2.45784 64.403L13.8669 60.6837ZM11.9374 60.5005L1.26899 55.0065H1.26899L11.9374 60.5005ZM99.9913 49.9577L87.9933 49.7353L99.9913 49.9577ZM99.0001 48.9584L98.9894 36.9584L99.0001 48.9584ZM57.8236 11.7208C53.4529 9.42669 48.2411 9.42673 43.8704 11.7209L55.0246 32.9713C52.4111 34.3432 49.2832 34.3432 46.6695 32.9714L57.8236 11.7208ZM43.8704 11.7209L24.2788 22.0044L35.433 43.2549L55.0247 32.9713L43.8704 11.7209ZM24.2788 22.0044C15.0452 26.851 14.7923 39.9575 23.7531 45.1938L35.8619 24.4724C43.1328 28.7212 42.935 39.3171 35.433 43.2549L24.2788 22.0044ZM23.7531 45.1938L43.2721 56.6L55.3808 35.8785L35.8619 24.4724L23.7531 45.1938ZM43.2721 56.6C47.9547 59.3363 53.7395 59.3363 58.4221 56.5999L46.3132 35.8786C49.1113 34.2434 52.5827 34.2434 55.3808 35.8785L43.2721 56.6ZM58.4221 56.5999L77.941 45.1936L65.8321 24.4723L46.3132 35.8786L58.4221 56.5999ZM77.9411 45.1936C86.9017 39.9572 86.6488 26.8508 77.4152 22.0042L66.2611 43.2547C58.7591 39.317 58.5613 28.7211 65.8321 24.4723L77.9411 45.1936ZM77.4152 22.0042L57.8236 11.7208L46.6695 32.9714L66.2611 43.2547L77.4152 22.0042ZM33.4793 53.4404C36.9591 55.2195 39.0001 58.7512 39.0001 62.4431H15.0001C15.0001 67.5594 17.8281 72.3932 22.5538 74.8093L33.4793 53.4404ZM39.0001 62.4431V42.2832H15.0001V62.4431H39.0001ZM39.0001 42.2832C39.0001 49.7258 30.6793 55.304 23.5044 50.8961L36.0674 30.4469C26.4413 24.533 15.0001 31.9166 15.0001 42.2832H39.0001ZM23.5044 50.8961L40.6928 61.4559L53.2559 41.0067L36.0674 30.4469L23.5044 50.8961ZM40.6929 61.4559C37.622 59.5693 35.8662 56.2695 35.8662 52.843H59.8662C59.8662 48.0964 57.4334 43.5731 53.2559 41.0067L40.6929 61.4559ZM35.8662 52.843V73.2312H59.8662V52.843H35.8662ZM35.8662 73.2312C35.8662 66.108 43.5115 60.5696 50.6678 64.2284L39.7423 85.5974C49.3439 90.5065 59.8662 83.1499 59.8662 73.2312H35.8662ZM51.5843 64.749L34.3958 53.9609L21.6373 74.2888L38.8258 85.0769L51.5843 64.749ZM51.0263 64.2285C58.1828 60.5695 65.8279 66.1082 65.8279 73.2312H41.8279C41.8279 83.1497 52.3501 90.5066 61.9518 85.5974L51.0263 64.2285ZM65.8279 73.2312V52.843H41.8279V73.2312H65.8279ZM65.8279 52.843C65.8279 56.2694 64.0722 59.5693 61.0012 61.4559L48.4382 41.0067C44.2607 43.5732 41.8279 48.0965 41.8279 52.843H65.8279ZM61.0012 61.4559L78.1897 50.8961L65.6267 30.4469L48.4382 41.0067L61.0012 61.4559ZM78.1897 50.8961C71.0149 55.304 62.694 49.7259 62.694 42.2832H86.694C86.694 31.9165 75.2527 24.5331 65.6267 30.4469L78.1897 50.8961ZM62.694 42.2832V62.4431H86.694V42.2832H62.694ZM62.694 62.4431C62.694 58.7512 64.735 55.2195 68.2148 53.4403L79.1402 74.8094C83.866 72.3932 86.694 67.5594 86.694 62.4431H62.694ZM67.2983 53.9609L50.1098 64.749L62.8683 85.0769L80.0568 74.2888L67.2983 53.9609ZM85.3678 -1.2907C72.7537 -9.83399 57.4741 -13.4582 42.3866 -11.4662L45.528 12.3273C54.7701 11.1071 64.1461 13.3228 71.9094 18.5806L85.3678 -1.2907ZM42.3866 -11.4662C27.3003 -9.47445 13.4723 -2.0087 3.47352 9.50379L21.5935 25.2412C27.7729 18.1263 36.2848 13.5476 45.528 12.3273L42.3866 -11.4662ZM3.47352 9.50379C-6.25358 20.7035 -11.7141 34.9902 -11.989 49.8199L12.0069 50.2647C12.178 41.0332 15.5782 32.1672 21.5935 25.2412L3.47352 9.50379ZM1.01085 63.0416L11.584 63.0321L11.5626 39.0321L0.989445 39.0416L1.01085 63.0416ZM24.5816 50.3308C24.7357 44.1561 27.028 38.2389 31.0464 33.6121L12.9265 17.8746C5.23019 26.7361 0.881644 38.0138 0.589036 49.7317L24.5816 50.3308ZM31.0464 33.6121C35.2121 28.8158 40.9432 25.7363 47.1581 24.9158L44.0167 1.12229C31.9587 2.71425 20.9115 8.68078 12.9265 17.8746L31.0464 33.6121ZM47.1581 24.9158C53.3718 24.0954 59.6788 25.5842 64.9056 29.1242L78.3641 9.25285C68.2864 2.42745 56.0758 -0.469812 44.0167 1.12229L47.1581 24.9158ZM64.9056 29.1242C69.2312 32.0539 72.7634 37.0206 74.7243 43.0356L97.5424 35.597C94.2606 25.53 87.9145 15.7212 78.3641 9.25285L64.9056 29.1242ZM105.319 5.52139L98.4491 1.44095L86.1928 22.0755L93.0626 26.1559L105.319 5.52139ZM97.3146 9.2492C93.8204 5.26932 89.8135 1.72025 85.3678 -1.2907L71.9094 18.5806C74.6476 20.4352 77.1197 22.6239 79.2792 25.0836L97.3146 9.2492ZM80.2964 6.58228L77.6687 11.595L98.9251 22.7378L101.553 17.7251L80.2964 6.58228ZM105.447 31.9522L110.238 22.6503L88.9007 11.6622L84.1104 20.9641L105.447 31.9522ZM98.7312 44.9935L105.447 31.9522L84.1104 20.9641L77.3944 34.0055L98.7312 44.9935ZM98.4491 1.44095C92.0429 -2.36412 83.7558 -0.0169763 80.2964 6.58228L101.553 17.7251C98.6256 23.3091 91.6135 25.2952 86.1928 22.0755L98.4491 1.44095ZM93.0626 26.1559C88.0611 23.1852 86.2374 16.8339 88.9007 11.6622L110.238 22.6503C113.385 16.5383 111.23 9.03226 105.319 5.52139L93.0626 26.1559ZM11.584 63.0321C18.8433 63.0257 24.4104 57.1851 24.5816 50.3308L0.589036 49.7317C0.732623 43.9815 5.40779 39.0376 11.5626 39.0321L11.584 63.0321ZM74.7243 43.0356C78.0843 53.3425 93.0963 55.9356 98.7312 44.9935L77.3944 34.0054C82.1899 24.6934 94.7506 27.0332 97.5424 35.597L74.7243 43.0356ZM-11.989 49.8199C-12.1265 57.2396 -6.1091 63.0479 1.01085 63.0416L0.989446 39.0416C7.00481 39.0362 12.124 43.9495 12.0069 50.2647L-11.989 49.8199ZM14.6324 101.291C27.2465 109.834 42.5261 113.458 57.6136 111.466L54.4722 87.6727C45.2301 88.8929 35.8541 86.6772 28.0909 81.4194L14.6324 101.291ZM57.6136 111.466C72.7 109.474 86.5279 102.009 96.5267 90.4962L78.4067 74.7588C72.2273 81.8737 63.7155 86.4524 54.4722 87.6727L57.6136 111.466ZM96.5267 90.4962C106.254 79.2965 111.714 65.0098 111.989 50.1801L87.9933 49.7353C87.8222 58.9668 84.422 67.8328 78.4067 74.7588L96.5267 90.4962ZM98.9894 36.9584L88.4163 36.9679L88.4377 60.9679L99.0108 60.9584L98.9894 36.9584ZM75.4187 49.6692C75.2645 55.8439 72.9722 61.7611 68.9538 66.3879L87.0737 82.1254C94.77 73.2639 99.1186 61.9862 99.4112 50.2683L75.4187 49.6692ZM68.9538 66.3879C64.7881 71.1842 59.057 74.2637 52.8422 75.0842L55.9835 98.8777C68.0415 97.2858 79.0887 91.3192 87.0737 82.1254L68.9538 66.3879ZM52.8422 75.0842C46.6284 75.9046 40.3214 74.4158 35.0946 70.8758L21.6362 90.7471C31.7138 97.5726 43.9244 100.47 55.9835 98.8777L52.8422 75.0842ZM35.0946 70.8758C30.769 67.9461 27.2369 62.9794 25.276 56.9644L2.45784 64.403C5.73964 74.47 12.0858 84.2788 21.6362 90.7471L35.0946 70.8758ZM-5.31868 94.4786L1.55112 98.5591L13.8074 77.9245L6.93759 73.8441L-5.31868 94.4786ZM2.68565 90.7508C6.17985 94.7307 10.1868 98.2798 14.6324 101.291L28.0909 81.4194C25.3526 79.5648 22.8805 77.3761 20.721 74.9164L2.68565 90.7508ZM19.7038 93.4177L22.3315 88.405L1.07508 77.2622L-1.55262 82.2749L19.7038 93.4177ZM-5.44706 68.0478L-10.2373 77.3497L11.0995 88.3378L15.8898 79.0359L-5.44706 68.0478ZM1.26899 55.0065L-5.44706 68.0478L15.8898 79.0359L22.6059 65.9946L1.26899 55.0065ZM1.55112 98.5591C7.95726 102.364 16.2444 100.017 19.7038 93.4177L-1.55261 82.2749C1.37459 76.6908 8.3868 74.7049 13.8074 77.9245L1.55112 98.5591ZM6.93759 73.8441C11.939 76.8148 13.7629 83.166 11.0995 88.3378L-10.2373 77.3497C-13.3849 83.4617 -11.2295 90.9678 -5.31868 94.4786L6.93759 73.8441ZM88.4163 36.9679C81.157 36.9743 75.5898 42.8148 75.4187 49.6692L99.4112 50.2683C99.2676 56.0185 94.5924 60.9624 88.4377 60.9679L88.4163 36.9679ZM25.276 56.9644C21.916 46.6575 6.90395 44.0644 1.26899 55.0065L22.6059 65.9946C17.8103 75.3066 5.24958 72.9667 2.45784 64.403L25.276 56.9644ZM111.989 50.1801C112.127 42.7604 106.109 36.9521 98.9894 36.9584L99.0108 60.9584C92.9954 60.9638 87.8763 56.0506 87.9933 49.7353L111.989 50.1801Z" fill="#0A00D8" mask="url(#path-1-inside-1_648_678)"/>
</svg>
