<svg width="100" height="100" viewBox="0 0 100 100" fill="none" xmlns="http://www.w3.org/2000/svg">
<mask id="path-1-inside-1_648_682" fill="white">
<path fill-rule="evenodd" clip-rule="evenodd" d="M45.5791 24.0016C45.5791 23.6983 45.7853 23.4352 46.0818 23.3757C46.7941 23.2326 48.1648 23 49.5456 23C51.3732 23 52.6722 23.2231 53.3189 23.3667C53.5992 23.4289 53.7858 23.681 53.7858 23.969V30.5327C53.7858 30.6881 53.8943 30.8221 54.0454 30.8565C56.3056 31.3714 58.4147 32.2851 60.2952 33.52C60.4267 33.6064 60.6009 33.5898 60.712 33.4784L65.6054 28.5703C65.8192 28.3559 66.1506 28.3161 66.4022 28.4843C67.0067 28.8883 68.1399 29.6959 69.1163 30.6753C70.4086 31.9714 71.1698 33.0505 71.5259 33.6106C71.6802 33.8534 71.6344 34.164 71.4314 34.3676L66.3778 39.4364C66.2705 39.544 66.251 39.7111 66.3285 39.842C67.4407 41.7207 68.2441 43.8049 68.6688 46.0242C68.6988 46.181 68.8348 46.2957 68.994 46.2957H76.034C76.3211 46.2957 76.5725 46.4828 76.6345 46.7639C76.7777 47.4126 77.0001 48.7154 77.0001 50.5485C77.0001 51.9335 76.7682 53.3082 76.6256 54.0227C76.5662 54.3201 76.3039 54.527 76.0015 54.527H68.6583C68.5086 54.527 68.3782 54.6286 68.3388 54.7735C67.8242 56.6677 67.0292 58.4461 66.0014 60.0608C65.9175 60.1925 65.9349 60.3652 66.045 60.4757L71.2925 65.7389C71.5063 65.9533 71.5459 66.2856 71.3783 66.538C70.9754 67.1444 70.1702 68.2809 69.1938 69.2603C67.9015 70.5565 66.8257 71.32 66.2672 71.6771C66.0251 71.8319 65.7155 71.7859 65.5125 71.5823L60.177 66.2309C60.0687 66.1222 59.9001 66.1034 59.7693 66.1834C58.0669 67.2242 56.1907 68.0074 54.1946 68.4789C54.0447 68.5143 53.9376 68.6478 53.9376 68.8022V75.9984C53.9376 76.3017 53.7313 76.5648 53.4348 76.6243C52.7225 76.7674 51.3519 77 49.971 77C48.1434 77 46.8444 76.7769 46.1977 76.6333C45.9174 76.5711 45.7309 76.319 45.7309 76.031V68.8347C45.7309 68.6793 45.6225 68.5453 45.4714 68.5108C43.5218 68.0655 41.6848 67.3232 40.0101 66.3341C39.8798 66.2571 39.7137 66.2769 39.6068 66.3842L34.5632 71.4429C34.3494 71.6573 34.018 71.6971 33.7664 71.5289C33.1619 71.1249 32.0287 70.3173 31.0523 69.3379C29.76 68.0417 28.9987 66.9627 28.6427 66.4025C28.4884 66.1597 28.5342 65.8492 28.7372 65.6456L33.6442 60.7238C33.7557 60.612 33.7719 60.4367 33.6851 60.3047C32.521 58.5351 31.6394 56.5619 31.1049 54.4499C31.0676 54.3023 30.9358 54.1977 30.784 54.1977H23.9987C23.6963 54.1977 23.434 53.9908 23.3747 53.6934C23.232 52.979 23.0001 51.6043 23.0001 50.2193C23.0001 48.3862 23.2226 47.0833 23.3657 46.4347C23.4277 46.1536 23.6791 45.9664 23.9662 45.9664H30.6006C30.7576 45.9664 30.8924 45.8548 30.9246 45.7006C31.3911 43.4708 32.241 41.3826 33.4021 39.5085C33.4836 39.3771 33.4654 39.2065 33.3563 39.0971L28.5479 34.2743C28.3341 34.0599 28.2945 33.7275 28.4622 33.4752C28.865 32.8688 29.6702 31.7323 30.6466 30.7529C31.9389 29.4567 33.0147 28.6932 33.5732 28.3361C33.8153 28.1813 34.1249 28.2273 34.3279 28.4309L39.1481 33.2654C39.2574 33.3751 39.4281 33.3931 39.5592 33.3107C41.311 32.2101 43.2521 31.3844 45.3222 30.8939C45.472 30.8585 45.5791 30.7251 45.5791 30.5707V24.0016ZM49.7643 62.8286C56.9899 62.807 62.7867 56.9107 62.7867 49.685C62.7867 42.4594 56.9899 36.5631 49.7643 36.5415C42.5172 36.5197 36.6636 42.4379 36.6636 49.685C36.6636 56.9322 42.5172 62.8504 49.7643 62.8286Z"/>
<path d="M94.7788 26.4581L99.5691 17.1563C99.8112 16.6861 99.6454 16.1087 99.1908 15.8387L92.321 11.7582C91.8282 11.4655 91.1907 11.6461 90.9246 12.1537L88.2969 17.1664C90.7931 20.0096 92.9676 23.1263 94.7788 26.4581Z"/>
<path d="M78.6386 8.64496C68.4499 1.74438 56.1221 -1.17553 43.9573 0.430534C31.7925 2.03659 20.6226 8.0588 12.5335 17.3725C4.66232 26.4353 0.231949 38.0117 0.00896059 50.0423C-0.00127439 50.5945 0.447856 51.0421 1.00015 51.0416L11.5733 51.0321C12.1255 51.0316 12.5715 50.5833 12.5853 50.0312C12.8087 41.0849 16.1291 32.4875 21.9865 25.7434C28.0618 18.7483 36.451 14.2253 45.5874 13.0191C54.7238 11.8128 63.9826 14.0058 71.6348 19.1885C78.5729 23.8875 83.512 31.2753 86.1333 39.3163C86.4174 40.1879 87.6431 40.3145 88.0628 39.4995L94.7788 26.4581C92.9676 23.1263 90.7931 20.0096 88.2969 17.1664C85.47 13.9466 82.2305 11.0777 78.6386 8.64496Z"/>
<path d="M5.22137 73.5419L0.431096 82.8437C0.188975 83.3139 0.354776 83.8913 0.809455 84.1613L7.67925 88.2418C8.17203 88.5345 8.80951 88.3539 9.07561 87.8463L11.7033 82.8336C9.20712 79.9904 7.03266 76.8737 5.22137 73.5419Z"/>
<path d="M21.3616 91.355C31.5503 98.2556 43.8781 101.176 56.0429 99.5695C68.2077 97.9634 79.3776 91.9412 87.4667 82.6275C95.3379 73.5647 99.7683 61.9883 99.9913 49.9577C100.002 49.4055 99.5524 48.9579 99.0001 48.9584L88.427 48.9679C87.8747 48.9684 87.4287 49.4167 87.4149 49.9688C87.1915 58.9151 83.8711 67.5125 78.0138 74.2566C71.9384 81.2517 63.5492 85.7747 54.4128 86.9809C45.2765 88.1872 36.0176 85.9942 28.3654 80.8115C21.4274 76.1125 16.4882 68.7247 13.8669 60.6837C13.5828 59.8121 12.3571 59.6855 11.9374 60.5005L5.22137 73.5419C7.03266 76.8737 9.20712 79.9904 11.7033 82.8336C14.5302 86.0534 17.7697 88.9223 21.3616 91.355Z"/>
</mask>
<path fill-rule="evenodd" clip-rule="evenodd" d="M45.5791 24.0016C45.5791 23.6983 45.7853 23.4352 46.0818 23.3757C46.7941 23.2326 48.1648 23 49.5456 23C51.3732 23 52.6722 23.2231 53.3189 23.3667C53.5992 23.4289 53.7858 23.681 53.7858 23.969V30.5327C53.7858 30.6881 53.8943 30.8221 54.0454 30.8565C56.3056 31.3714 58.4147 32.2851 60.2952 33.52C60.4267 33.6064 60.6009 33.5898 60.712 33.4784L65.6054 28.5703C65.8192 28.3559 66.1506 28.3161 66.4022 28.4843C67.0067 28.8883 68.1399 29.6959 69.1163 30.6753C70.4086 31.9714 71.1698 33.0505 71.5259 33.6106C71.6802 33.8534 71.6344 34.164 71.4314 34.3676L66.3778 39.4364C66.2705 39.544 66.251 39.7111 66.3285 39.842C67.4407 41.7207 68.2441 43.8049 68.6688 46.0242C68.6988 46.181 68.8348 46.2957 68.994 46.2957H76.034C76.3211 46.2957 76.5725 46.4828 76.6345 46.7639C76.7777 47.4126 77.0001 48.7154 77.0001 50.5485C77.0001 51.9335 76.7682 53.3082 76.6256 54.0227C76.5662 54.3201 76.3039 54.527 76.0015 54.527H68.6583C68.5086 54.527 68.3782 54.6286 68.3388 54.7735C67.8242 56.6677 67.0292 58.4461 66.0014 60.0608C65.9175 60.1925 65.9349 60.3652 66.045 60.4757L71.2925 65.7389C71.5063 65.9533 71.5459 66.2856 71.3783 66.538C70.9754 67.1444 70.1702 68.2809 69.1938 69.2603C67.9015 70.5565 66.8257 71.32 66.2672 71.6771C66.0251 71.8319 65.7155 71.7859 65.5125 71.5823L60.177 66.2309C60.0687 66.1222 59.9001 66.1034 59.7693 66.1834C58.0669 67.2242 56.1907 68.0074 54.1946 68.4789C54.0447 68.5143 53.9376 68.6478 53.9376 68.8022V75.9984C53.9376 76.3017 53.7313 76.5648 53.4348 76.6243C52.7225 76.7674 51.3519 77 49.971 77C48.1434 77 46.8444 76.7769 46.1977 76.6333C45.9174 76.5711 45.7309 76.319 45.7309 76.031V68.8347C45.7309 68.6793 45.6225 68.5453 45.4714 68.5108C43.5218 68.0655 41.6848 67.3232 40.0101 66.3341C39.8798 66.2571 39.7137 66.2769 39.6068 66.3842L34.5632 71.4429C34.3494 71.6573 34.018 71.6971 33.7664 71.5289C33.1619 71.1249 32.0287 70.3173 31.0523 69.3379C29.76 68.0417 28.9987 66.9627 28.6427 66.4025C28.4884 66.1597 28.5342 65.8492 28.7372 65.6456L33.6442 60.7238C33.7557 60.612 33.7719 60.4367 33.6851 60.3047C32.521 58.5351 31.6394 56.5619 31.1049 54.4499C31.0676 54.3023 30.9358 54.1977 30.784 54.1977H23.9987C23.6963 54.1977 23.434 53.9908 23.3747 53.6934C23.232 52.979 23.0001 51.6043 23.0001 50.2193C23.0001 48.3862 23.2226 47.0833 23.3657 46.4347C23.4277 46.1536 23.6791 45.9664 23.9662 45.9664H30.6006C30.7576 45.9664 30.8924 45.8548 30.9246 45.7006C31.3911 43.4708 32.241 41.3826 33.4021 39.5085C33.4836 39.3771 33.4654 39.2065 33.3563 39.0971L28.5479 34.2743C28.3341 34.0599 28.2945 33.7275 28.4622 33.4752C28.865 32.8688 29.6702 31.7323 30.6466 30.7529C31.9389 29.4567 33.0147 28.6932 33.5732 28.3361C33.8153 28.1813 34.1249 28.2273 34.3279 28.4309L39.1481 33.2654C39.2574 33.3751 39.4281 33.3931 39.5592 33.3107C41.311 32.2101 43.2521 31.3844 45.3222 30.8939C45.472 30.8585 45.5791 30.7251 45.5791 30.5707V24.0016ZM49.7643 62.8286C56.9899 62.807 62.7867 56.9107 62.7867 49.685C62.7867 42.4594 56.9899 36.5631 49.7643 36.5415C42.5172 36.5197 36.6636 42.4379 36.6636 49.685C36.6636 56.9322 42.5172 62.8504 49.7643 62.8286Z" fill="#0A00D8"/>
<path d="M94.7788 26.4581L99.5691 17.1563C99.8112 16.6861 99.6454 16.1087 99.1908 15.8387L92.321 11.7582C91.8282 11.4655 91.1907 11.6461 90.9246 12.1537L88.2969 17.1664C90.7931 20.0096 92.9676 23.1263 94.7788 26.4581Z" fill="#D9D9D9"/>
<path d="M78.6386 8.64496C68.4499 1.74438 56.1221 -1.17553 43.9573 0.430534C31.7925 2.03659 20.6226 8.0588 12.5335 17.3725C4.66232 26.4353 0.231949 38.0117 0.00896059 50.0423C-0.00127439 50.5945 0.447856 51.0421 1.00015 51.0416L11.5733 51.0321C12.1255 51.0316 12.5715 50.5833 12.5853 50.0312C12.8087 41.0849 16.1291 32.4875 21.9865 25.7434C28.0618 18.7483 36.451 14.2253 45.5874 13.0191C54.7238 11.8128 63.9826 14.0058 71.6348 19.1885C78.5729 23.8875 83.512 31.2753 86.1333 39.3163C86.4174 40.1879 87.6431 40.3145 88.0628 39.4995L94.7788 26.4581C92.9676 23.1263 90.7931 20.0096 88.2969 17.1664C85.47 13.9466 82.2305 11.0777 78.6386 8.64496Z" fill="#D9D9D9"/>
<path d="M5.22137 73.5419L0.431096 82.8437C0.188975 83.3139 0.354776 83.8913 0.809455 84.1613L7.67925 88.2418C8.17203 88.5345 8.80951 88.3539 9.07561 87.8463L11.7033 82.8336C9.20712 79.9904 7.03266 76.8737 5.22137 73.5419Z" fill="#D9D9D9"/>
<path d="M21.3616 91.355C31.5503 98.2556 43.8781 101.176 56.0429 99.5695C68.2077 97.9634 79.3776 91.9412 87.4667 82.6275C95.3379 73.5647 99.7683 61.9883 99.9913 49.9577C100.002 49.4055 99.5524 48.9579 99.0001 48.9584L88.427 48.9679C87.8747 48.9684 87.4287 49.4167 87.4149 49.9688C87.1915 58.9151 83.8711 67.5125 78.0138 74.2566C71.9384 81.2517 63.5492 85.7747 54.4128 86.9809C45.2765 88.1872 36.0176 85.9942 28.3654 80.8115C21.4274 76.1125 16.4882 68.7247 13.8669 60.6837C13.5828 59.8121 12.3571 59.6855 11.9374 60.5005L5.22137 73.5419C7.03266 76.8737 9.20712 79.9904 11.7033 82.8336C14.5302 86.0534 17.7697 88.9223 21.3616 91.355Z" fill="#D9D9D9"/>
<path d="M83.7881 21.125C85.9898 23.6327 87.9086 26.3828 89.5075 29.3239L100.05 23.5924C98.0265 19.8699 95.5965 16.3864 92.8057 13.2078L83.7881 21.125ZM16.2121 78.875C14.0105 76.3673 12.0916 73.6172 10.4928 70.6761L-0.0500163 76.4076C1.9737 80.1301 4.40377 83.6136 7.19448 86.7922L16.2121 78.875ZM46.0818 23.3757L48.4445 35.1408H48.4445L46.0818 23.3757ZM53.3189 23.3667L50.718 35.0814L53.3189 23.3667ZM54.0454 30.8565L51.3803 42.5569L51.3803 42.5569L54.0454 30.8565ZM60.2952 33.52L53.7081 43.5505L60.2952 33.52ZM60.712 33.4784L69.2099 41.951L69.21 41.9509L60.712 33.4784ZM65.6054 28.5703L57.1075 20.0977L57.1075 20.0977L65.6054 28.5703ZM66.4022 28.4843L73.0702 18.5074V18.5074L66.4022 28.4843ZM69.1163 30.6753L60.6184 39.1478L60.6184 39.1479L69.1163 30.6753ZM71.5259 33.6106L61.3986 40.0478L61.3986 40.0478L71.5259 33.6106ZM71.4314 34.3676L62.9335 25.895L62.9335 25.895L71.4314 34.3676ZM66.3778 39.4364L57.8799 30.9638L57.8798 30.9638L66.3778 39.4364ZM66.3285 39.842L56.0021 45.9548L56.0022 45.9548L66.3285 39.842ZM68.6688 46.0242L56.8826 48.2795V48.2795L68.6688 46.0242ZM76.6345 46.7639L88.3525 44.1779L88.3525 44.1778L76.6345 46.7639ZM76.6256 54.0227L88.3934 56.3719L88.3934 56.3718L76.6256 54.0227ZM68.3388 54.7735L79.9191 57.9196L79.9191 57.9195L68.3388 54.7735ZM66.0014 60.0608L76.1245 66.5047L76.1245 66.5046L66.0014 60.0608ZM66.045 60.4757L57.547 68.9482L57.547 68.9483L66.045 60.4757ZM71.2925 65.7389L62.7945 74.2114L62.7946 74.2115L71.2925 65.7389ZM71.3783 66.538L81.3734 73.1785L81.3735 73.1784L71.3783 66.538ZM69.1938 69.2603L77.6918 77.7329L77.6918 77.7329L69.1938 69.2603ZM66.2672 71.6771L59.8026 61.5673L59.8026 61.5673L66.2672 71.6771ZM65.5125 71.5823L57.0145 80.0549L57.0146 80.0549L65.5125 71.5823ZM60.177 66.2309L68.6749 57.7583L60.177 66.2309ZM59.7693 66.1834L66.0286 76.4216L66.0286 76.4216L59.7693 66.1834ZM54.1946 68.4789L51.4357 56.8004H51.4356L54.1946 68.4789ZM53.4348 76.6243L55.7975 88.3894L55.7975 88.3894L53.4348 76.6243ZM46.1977 76.6333L48.7986 64.9185L48.7985 64.9185L46.1977 76.6333ZM45.4714 68.5108L48.144 56.8122L48.1439 56.8122L45.4714 68.5108ZM40.0101 66.3341L46.1129 56.0018L46.1129 56.0018L40.0101 66.3341ZM39.6068 66.3842L31.1089 57.9115L31.1088 57.9116L39.6068 66.3842ZM34.5632 71.4429L43.061 79.9156L43.0611 79.9155L34.5632 71.4429ZM33.7664 71.5289L27.0983 81.5057L27.0984 81.5057L33.7664 71.5289ZM31.0523 69.3379L22.5543 77.8105L22.5543 77.8105L31.0523 69.3379ZM28.6427 66.4025L18.5153 72.8397L18.5154 72.8397L28.6427 66.4025ZM28.7372 65.6456L37.2351 74.1182L37.2351 74.1181L28.7372 65.6456ZM33.6442 60.7238L42.1422 69.1964L42.1422 69.1964L33.6442 60.7238ZM33.6851 60.3047L23.6599 66.8998L23.6599 66.8998L33.6851 60.3047ZM31.1049 54.4499L42.7382 51.5059L42.7382 51.5059L31.1049 54.4499ZM23.3747 53.6934L11.6068 56.0426V56.0426L23.3747 53.6934ZM23.3657 46.4347L35.0837 49.0208V49.0208L23.3657 46.4347ZM30.9246 45.7006L19.1789 43.2436L19.1789 43.2436L30.9246 45.7006ZM33.4021 39.5085L23.2013 33.1884L23.2013 33.1884L33.4021 39.5085ZM33.3563 39.0971L24.8584 47.5697L24.8584 47.5697L33.3563 39.0971ZM28.5479 34.2743L20.05 42.7469L20.05 42.7469L28.5479 34.2743ZM28.4622 33.4752L38.4573 40.1157L38.4573 40.1157L28.4622 33.4752ZM30.6466 30.7529L39.1446 39.2255V39.2255L30.6466 30.7529ZM33.5732 28.3361L27.1086 18.2262L27.1086 18.2262L33.5732 28.3361ZM34.3279 28.4309L42.8259 19.9583L42.8259 19.9583L34.3279 28.4309ZM39.1481 33.2654L47.646 24.7929L47.646 24.7928L39.1481 33.2654ZM39.5592 33.3107L33.1751 23.1499L33.1751 23.1499L39.5592 33.3107ZM45.3222 30.8939L42.5559 19.2172L42.5559 19.2172L45.3222 30.8939ZM49.7643 62.8286L49.7284 50.8287H49.7284L49.7643 62.8286ZM49.7643 36.5415L49.7284 48.5414L49.7643 36.5415ZM78.6386 8.64496L71.9094 18.5806L78.6386 8.64496ZM12.5335 17.3725L3.47352 9.50379L12.5335 17.3725ZM21.9865 25.7434L31.0464 33.6121L21.9865 25.7434ZM71.6348 19.1885L64.9056 29.1242L71.6348 19.1885ZM88.2969 17.1664L79.2792 25.0836L90.8105 38.2176L98.9251 22.7378L88.2969 17.1664ZM94.7788 26.4581L84.1104 20.9641L94.7788 26.4581ZM92.321 11.7582L98.4491 1.44095L92.321 11.7582ZM90.9246 12.1537L101.553 17.7251L90.9246 12.1537ZM99.1908 15.8387L105.319 5.52139L99.1908 15.8387ZM99.5691 17.1563L88.9007 11.6622V11.6622L99.5691 17.1563ZM11.5733 51.0321L11.5626 39.0321L11.5733 51.0321ZM12.5853 50.0312L24.5816 50.3308L12.5853 50.0312ZM86.1333 39.3163L97.5424 35.597L86.1333 39.3163ZM88.0628 39.4995L98.7312 44.9935V44.9935L88.0628 39.4995ZM0.00896059 50.0423L12.0069 50.2647L0.00896059 50.0423ZM1.00015 51.0416L1.01085 63.0416H1.01085L1.00015 51.0416ZM21.3616 91.355L28.0909 81.4194L21.3616 91.355ZM87.4667 82.6275L96.5267 90.4962L87.4667 82.6275ZM78.0138 74.2566L68.9538 66.3879L78.0138 74.2566ZM28.3654 80.8115L35.0946 70.8758L28.3654 80.8115ZM11.7033 82.8336L20.721 74.9164L9.18975 61.7824L1.07508 77.2622L11.7033 82.8336ZM5.22137 73.5419L-5.44706 68.0478H-5.44706L5.22137 73.5419ZM7.67925 88.2418L1.55112 98.5591H1.55112L7.67925 88.2418ZM9.07561 87.8463L19.7038 93.4177L19.7038 93.4177L9.07561 87.8463ZM0.809455 84.1613L6.93759 73.8441H6.93759L0.809455 84.1613ZM0.431096 82.8437L-10.2373 77.3497H-10.2373L0.431096 82.8437ZM88.427 48.9679L88.4377 60.9679L88.427 48.9679ZM87.4149 49.9688L75.4187 49.6692L87.4149 49.9688ZM13.8669 60.6837L2.45784 64.403L13.8669 60.6837ZM11.9374 60.5005L1.26899 55.0065H1.26899L11.9374 60.5005ZM99.9913 49.9577L87.9933 49.7353L99.9913 49.9577ZM99.0001 48.9584L98.9894 36.9584L99.0001 48.9584ZM57.5791 24.0016C57.5791 29.142 54.016 34.0219 48.4445 35.1408L43.7192 11.6106C37.5546 12.8485 33.5791 18.2546 33.5791 24.0016H57.5791ZM48.4445 35.1408C48.5861 35.1123 48.8111 35.0718 49.0611 35.0403C49.3277 35.0068 49.4943 35 49.5456 35V11C47.0072 11 44.7445 11.4046 43.7192 11.6106L48.4445 35.1408ZM49.5456 35C50.3966 35 50.8198 35.104 50.718 35.0814L55.9198 11.6519C54.5247 11.3422 52.3499 11 49.5456 11V35ZM50.718 35.0814C45.0473 33.8224 41.7858 28.8218 41.7858 23.969H65.7858C65.7858 18.5403 62.1511 13.0354 55.9198 11.6519L50.718 35.0814ZM41.7858 23.969V30.5327H65.7858V23.969H41.7858ZM41.7858 30.5327C41.7858 36.3668 45.8449 41.296 51.3803 42.5569L56.7105 19.1562C61.9437 20.3483 65.7858 25.0095 65.7858 30.5327H41.7858ZM51.3803 42.5569C52.2148 42.7469 52.9995 43.0851 53.7081 43.5505L66.8823 23.4896C63.8299 21.4851 60.3965 19.9958 56.7105 19.1562L51.3803 42.5569ZM53.7081 43.5505C58.5191 46.7099 65.009 46.1645 69.2099 41.951L52.2141 25.0057C56.1928 21.0152 62.3343 20.5029 66.8823 23.4896L53.7081 43.5505ZM69.21 41.9509L74.1034 37.0429L57.1075 20.0977L52.2141 25.0058L69.21 41.9509ZM74.1033 37.0429C70.4496 40.7076 64.4566 41.6174 59.7342 38.4611L73.0702 18.5074C67.8445 15.0148 61.1889 16.0041 57.1075 20.0977L74.1033 37.0429ZM59.7341 38.4611C59.8547 38.5417 60.0432 38.6731 60.243 38.8288C60.456 38.9948 60.5801 39.1095 60.6184 39.1478L77.6143 22.2027C75.8227 20.4057 73.9401 19.0888 73.0702 18.5074L59.7341 38.4611ZM60.6184 39.1479C61.2233 39.7545 61.452 40.1319 61.3986 40.0478L81.6533 27.1735C80.8877 25.969 79.594 24.1883 77.6143 22.2027L60.6184 39.1479ZM61.3986 40.0478C58.3039 35.1791 59.492 29.3468 62.9335 25.895L79.9294 42.8402C83.7768 38.9813 85.0565 32.5277 81.6532 27.1735L61.3986 40.0478ZM62.9335 25.895L57.8799 30.9638L74.8758 47.9089L79.9294 42.8402L62.9335 25.895ZM57.8798 30.9638C53.8369 35.0189 53.1884 41.2016 56.0021 45.9548L76.6548 33.7291C79.3136 38.2207 78.7042 44.069 74.8758 47.9089L57.8798 30.9638ZM56.0022 45.9548C56.4223 46.6646 56.7233 47.4467 56.8826 48.2795L80.4549 43.7688C79.765 40.1631 78.459 36.7768 76.6548 33.7291L56.0022 45.9548ZM56.8826 48.2795C57.97 53.9621 62.9462 58.2957 68.994 58.2957V34.2957C74.7233 34.2957 79.4276 38.3999 80.4549 43.7688L56.8826 48.2795ZM68.994 58.2957H76.034V34.2957H68.994V58.2957ZM76.034 58.2957C71.1273 58.2957 66.1597 54.9833 64.9165 49.3501L88.3525 44.1778C86.9852 37.9823 81.5149 34.2957 76.034 34.2957V58.2957ZM64.9165 49.35C64.8953 49.2542 65.0001 49.6862 65.0001 50.5485H89.0001C89.0001 47.7446 88.66 45.571 88.3525 44.1779L64.9165 49.35ZM65.0001 50.5485C65.0001 50.6057 64.9929 50.7774 64.9591 51.0478C64.9274 51.3015 64.8864 51.5298 64.8577 51.6736L88.3934 56.3718C88.5982 55.3459 89.0001 53.0842 89.0001 50.5485H65.0001ZM64.8578 51.6734C65.9618 46.1432 70.8059 42.527 76.0015 42.527V66.5269C81.8019 66.5269 87.1706 62.4969 88.3934 56.3719L64.8578 51.6734ZM76.0015 42.527H68.6583V66.5269H76.0015V42.527ZM68.6583 42.527C62.9755 42.527 58.1868 46.3703 56.7586 51.6274L79.9191 57.9195C78.5696 62.8869 74.0417 66.5269 68.6583 66.5269V42.527ZM56.7586 51.6274C56.566 52.3362 56.2678 53.005 55.8782 53.6171L76.1245 66.5046C77.7906 63.8871 79.0824 60.9993 79.9191 57.9196L56.7586 51.6274ZM55.8783 53.617C52.8339 58.3996 53.3965 64.7852 57.547 68.9482L74.543 52.0032C78.4732 55.9452 79.0012 61.9854 76.1245 66.5047L55.8783 53.617ZM57.547 68.9483L62.7945 74.2114L79.7904 57.2663L74.543 52.0031L57.547 68.9483ZM62.7946 74.2115C59.1506 70.5567 58.2608 64.5972 61.383 59.8976L81.3735 73.1784C84.831 67.9741 83.862 61.35 79.7904 57.2662L62.7946 74.2115ZM61.3831 59.8975C61.3023 60.0191 61.1708 60.2088 61.015 60.4099C60.8489 60.6242 60.7342 60.7492 60.6958 60.7877L77.6918 77.7329C79.4828 75.9365 80.7948 74.0495 81.3734 73.1785L61.3831 59.8975ZM60.6959 60.7877C60.0911 61.3943 59.7161 61.6226 59.8026 61.5673L72.7318 81.7869C73.9353 81.0173 75.7119 79.7187 77.6918 77.7329L60.6959 60.7877ZM59.8026 61.5673C64.6963 58.438 70.5611 59.65 74.0104 63.1097L57.0146 80.0549C60.8699 83.9218 67.3539 85.2258 72.7318 81.7869L59.8026 61.5673ZM74.0104 63.1097L68.6749 57.7583L51.679 74.7034L57.0145 80.0549L74.0104 63.1097ZM68.6749 57.7583C64.5831 53.6542 58.2975 53.0182 53.51 55.9452L66.0286 76.4216C61.5026 79.1886 55.5543 78.5903 51.679 74.7034L68.6749 57.7583ZM53.51 55.9452C52.8702 56.3363 52.1729 56.6262 51.4357 56.8004L56.9536 80.1575C60.2085 79.3885 63.2635 78.1121 66.0286 76.4216L53.51 55.9452ZM51.4356 56.8004C45.9459 58.0973 41.9376 63.0058 41.9376 68.8022H65.9376C65.9376 74.2897 62.1435 78.9314 56.9536 80.1575L51.4356 56.8004ZM41.9376 68.8022V75.9984H65.9376V68.8022H41.9376ZM41.9376 75.9984C41.9376 70.8577 45.5008 65.9781 51.0721 64.8592L55.7975 88.3894C61.9617 87.1515 65.9376 81.7457 65.9376 75.9984H41.9376ZM51.0721 64.8592C50.9305 64.8877 50.7054 64.9282 50.4555 64.9597C50.1889 64.9932 50.0223 65 49.971 65V89C52.5095 89 54.7722 88.5953 55.7975 88.3894L51.0721 64.8592ZM49.971 65C49.1201 65 48.6969 64.896 48.7986 64.9185L43.5968 88.3481C44.9919 88.6578 47.1667 89 49.971 89V65ZM48.7985 64.9185C54.4694 66.1775 57.7309 71.1784 57.7309 76.031H33.7309C33.7309 81.4596 37.3654 86.9646 43.5969 88.3481L48.7985 64.9185ZM57.7309 76.031V68.8347H33.7309V76.031H57.7309ZM57.7309 68.8347C57.7309 63.0036 53.6759 58.076 48.144 56.8122L42.7989 80.2094C37.5691 79.0147 33.7309 74.355 33.7309 68.8347H57.7309ZM48.1439 56.8122C47.4235 56.6477 46.7412 56.3729 46.1129 56.0018L33.9073 76.6663C36.6283 78.2735 39.6201 79.4833 42.7989 80.2095L48.1439 56.8122ZM46.1129 56.0018C41.3398 53.1825 35.1498 53.8586 31.1089 57.9115L48.1046 74.8568C44.2776 78.6952 38.4197 79.3316 33.9073 76.6664L46.1129 56.0018ZM31.1088 57.9116L26.0652 62.9703L43.0611 79.9155L48.1047 74.8568L31.1088 57.9116ZM26.0653 62.9702C29.719 59.3056 35.7119 58.3957 40.4344 61.5521L27.0984 81.5057C32.3242 84.9984 38.9797 84.009 43.061 79.9156L26.0653 62.9702ZM40.4345 61.5521C40.3139 61.4715 40.1254 61.3401 39.9256 61.1844C39.7126 61.0184 39.5885 60.9037 39.5502 60.8653L22.5543 77.8105C24.3459 79.6075 26.2285 80.9244 27.0983 81.5057L40.4345 61.5521ZM39.5502 60.8653C38.9453 60.2586 38.7165 59.8812 38.77 59.9654L18.5154 72.8397C19.281 74.0442 20.5746 75.8249 22.5543 77.8105L39.5502 60.8653ZM38.77 59.9654C41.8647 64.8342 40.6765 70.6665 37.2351 74.1182L20.2392 57.173C16.3919 61.0318 15.112 67.4853 18.5153 72.8397L38.77 59.9654ZM37.2351 74.1181L42.1422 69.1964L25.1463 52.2512L20.2392 57.173L37.2351 74.1181ZM42.1422 69.1964C46.3432 64.9828 46.8632 58.5023 43.7103 53.7096L23.6599 66.8998C20.6807 62.3711 21.1682 56.2413 25.1462 52.2513L42.1422 69.1964ZM43.7103 53.7097C43.2687 53.0383 42.9382 52.2962 42.7382 51.5059L19.4716 57.3938C20.3406 60.8277 21.7732 64.0319 23.6599 66.8998L43.7103 53.7097ZM42.7382 51.5059C41.3828 46.1498 36.5493 42.1977 30.784 42.1977V66.1977C25.3224 66.1977 20.7524 62.4547 19.4716 57.3939L42.7382 51.5059ZM30.784 42.1977H23.9987V66.1977H30.784V42.1977ZM23.9987 42.1977C29.1944 42.1977 34.0385 45.814 35.1425 51.3443L11.6068 56.0426C12.8295 62.1676 18.1983 66.1977 23.9987 66.1977V42.1977ZM35.1425 51.3443C35.1138 51.2006 35.0729 50.9723 35.0411 50.7186C35.0073 50.4482 35.0001 50.2765 35.0001 50.2193H11.0001C11.0001 52.755 11.402 55.0166 11.6068 56.0426L35.1425 51.3443ZM35.0001 50.2193C35.0001 49.3569 35.1049 48.9249 35.0837 49.0208L11.6477 43.8486C11.3402 45.2418 11.0001 47.4154 11.0001 50.2193H35.0001ZM35.0837 49.0208C33.8405 54.6541 28.873 57.9664 23.9662 57.9664V33.9664C18.4853 33.9664 13.015 37.6531 11.6477 43.8486L35.0837 49.0208ZM23.9662 57.9664H30.6006V33.9664H23.9662V57.9664ZM30.6006 57.9664C36.5657 57.9664 41.5015 53.7459 42.6704 48.1575L19.1789 43.2436C20.2833 37.9636 24.9495 33.9664 30.6006 33.9664V57.9664ZM42.6704 48.1575C42.8452 47.3219 43.1636 46.5378 43.603 45.8285L23.2013 33.1884C21.3185 36.2274 19.9369 39.6197 19.1789 43.2436L42.6704 48.1575ZM43.603 45.8285C46.5598 41.056 45.9644 34.7469 41.8542 30.6245L24.8584 47.5697C20.9664 43.6661 20.4073 37.6982 23.2013 33.1884L43.603 45.8285ZM41.8543 30.6245L37.0459 25.8017L20.05 42.7469L24.8584 47.5697L41.8543 30.6245ZM37.0459 25.8017C40.6898 29.4566 41.5796 35.4161 38.4573 40.1157L18.467 26.8346C15.0094 32.039 15.9784 38.6631 20.05 42.7469L37.0459 25.8017ZM38.4573 40.1157C38.5381 39.9941 38.6696 39.8044 38.8254 39.6033C38.9915 39.3889 39.1062 39.264 39.1446 39.2255L22.1486 22.2803C20.3576 24.0767 19.0456 25.9637 18.467 26.8347L38.4573 40.1157ZM39.1446 39.2255C39.7493 38.6189 40.1244 38.3906 40.0378 38.4459L27.1086 18.2262C25.9051 18.9958 24.1285 20.2945 22.1486 22.2803L39.1446 39.2255ZM40.0378 38.4459C35.144 41.5752 29.2793 40.3631 25.83 36.9035L42.8259 19.9583C38.9706 16.0915 32.4866 14.7874 27.1086 18.2262L40.0378 38.4459ZM25.83 36.9034L30.6501 41.738L47.646 24.7928L42.8259 19.9583L25.83 36.9034ZM30.6501 41.738C34.7833 45.8836 41.1461 46.4858 45.9434 43.4716L33.1751 23.1499C37.7102 20.3004 43.7315 20.8666 47.646 24.7929L30.6501 41.738ZM45.9433 43.4716C46.6023 43.0576 47.3241 42.7518 48.0886 42.5707L42.5559 19.2172C39.18 20.017 36.0197 21.3626 33.1751 23.1499L45.9433 43.4716ZM48.0886 42.5707C53.5745 41.2711 57.5791 36.3644 57.5791 30.5707H33.5791C33.5791 25.0858 37.3695 20.4459 42.5559 19.2172L48.0886 42.5707ZM57.5791 30.5707V24.0016H33.5791V30.5707H57.5791ZM49.8003 74.8286C63.7369 74.7868 74.7867 63.426 74.7867 49.685H50.7867C50.7867 50.3954 50.243 50.8271 49.7284 50.8287L49.8003 74.8286ZM74.7867 49.685C74.7867 35.9441 63.7369 24.5833 49.8003 24.5415L49.7284 48.5414C50.243 48.5429 50.7867 48.9747 50.7867 49.685H74.7867ZM49.8003 24.5415C35.8139 24.4996 24.6636 35.8946 24.6636 49.685H48.6636C48.6636 48.9811 49.2205 48.5399 49.7284 48.5414L49.8003 24.5415ZM24.6636 49.685C24.6636 63.4754 35.8139 74.8705 49.8003 74.8286L49.7284 50.8287C49.2205 50.8302 48.6636 50.389 48.6636 49.685H24.6636ZM85.3678 -1.2907C72.7537 -9.83399 57.4741 -13.4582 42.3866 -11.4662L45.528 12.3273C54.7701 11.1071 64.1461 13.3228 71.9094 18.5806L85.3678 -1.2907ZM42.3866 -11.4662C27.3003 -9.47445 13.4723 -2.0087 3.47352 9.50379L21.5935 25.2412C27.7729 18.1263 36.2848 13.5476 45.528 12.3273L42.3866 -11.4662ZM3.47352 9.50379C-6.25358 20.7035 -11.7141 34.9902 -11.989 49.8199L12.0069 50.2647C12.178 41.0332 15.5782 32.1672 21.5935 25.2412L3.47352 9.50379ZM1.01085 63.0416L11.584 63.0321L11.5626 39.0321L0.989445 39.0416L1.01085 63.0416ZM24.5816 50.3308C24.7357 44.1561 27.028 38.2389 31.0464 33.6121L12.9265 17.8746C5.23019 26.7361 0.881644 38.0138 0.589036 49.7317L24.5816 50.3308ZM31.0464 33.6121C35.2121 28.8158 40.9432 25.7363 47.1581 24.9158L44.0167 1.12229C31.9587 2.71425 20.9115 8.68078 12.9265 17.8746L31.0464 33.6121ZM47.1581 24.9158C53.3718 24.0954 59.6788 25.5842 64.9056 29.1242L78.3641 9.25285C68.2864 2.42745 56.0758 -0.469812 44.0167 1.12229L47.1581 24.9158ZM64.9056 29.1242C69.2312 32.0539 72.7634 37.0206 74.7243 43.0356L97.5424 35.597C94.2606 25.53 87.9145 15.7212 78.3641 9.25285L64.9056 29.1242ZM105.319 5.52139L98.4491 1.44095L86.1928 22.0755L93.0626 26.1559L105.319 5.52139ZM97.3146 9.2492C93.8204 5.26932 89.8135 1.72025 85.3678 -1.2907L71.9094 18.5806C74.6476 20.4352 77.1197 22.6239 79.2792 25.0836L97.3146 9.2492ZM80.2964 6.58228L77.6687 11.595L98.9251 22.7378L101.553 17.7251L80.2964 6.58228ZM105.447 31.9522L110.238 22.6503L88.9007 11.6622L84.1104 20.9641L105.447 31.9522ZM98.7312 44.9935L105.447 31.9522L84.1104 20.9641L77.3944 34.0055L98.7312 44.9935ZM98.4491 1.44095C92.0429 -2.36412 83.7558 -0.0169763 80.2964 6.58228L101.553 17.7251C98.6256 23.3091 91.6135 25.2952 86.1928 22.0755L98.4491 1.44095ZM93.0626 26.1559C88.0611 23.1852 86.2374 16.8339 88.9007 11.6622L110.238 22.6503C113.385 16.5383 111.23 9.03226 105.319 5.52139L93.0626 26.1559ZM11.584 63.0321C18.8433 63.0257 24.4104 57.1851 24.5816 50.3308L0.589036 49.7317C0.732623 43.9815 5.40779 39.0376 11.5626 39.0321L11.584 63.0321ZM74.7243 43.0356C78.0843 53.3425 93.0963 55.9356 98.7312 44.9935L77.3944 34.0054C82.1899 24.6934 94.7506 27.0332 97.5424 35.597L74.7243 43.0356ZM-11.989 49.8199C-12.1265 57.2396 -6.1091 63.0479 1.01085 63.0416L0.989446 39.0416C7.00481 39.0362 12.124 43.9495 12.0069 50.2647L-11.989 49.8199ZM14.6324 101.291C27.2465 109.834 42.5261 113.458 57.6136 111.466L54.4722 87.6727C45.2301 88.8929 35.8541 86.6772 28.0909 81.4194L14.6324 101.291ZM57.6136 111.466C72.7 109.474 86.5279 102.009 96.5267 90.4962L78.4067 74.7588C72.2273 81.8737 63.7155 86.4524 54.4722 87.6727L57.6136 111.466ZM96.5267 90.4962C106.254 79.2965 111.714 65.0098 111.989 50.1801L87.9933 49.7353C87.8222 58.9668 84.422 67.8328 78.4067 74.7588L96.5267 90.4962ZM98.9894 36.9584L88.4163 36.9679L88.4377 60.9679L99.0108 60.9584L98.9894 36.9584ZM75.4187 49.6692C75.2645 55.8439 72.9722 61.7611 68.9538 66.3879L87.0737 82.1254C94.77 73.2639 99.1186 61.9862 99.4112 50.2683L75.4187 49.6692ZM68.9538 66.3879C64.7881 71.1842 59.057 74.2637 52.8422 75.0842L55.9835 98.8777C68.0415 97.2858 79.0887 91.3192 87.0737 82.1254L68.9538 66.3879ZM52.8422 75.0842C46.6284 75.9046 40.3214 74.4158 35.0946 70.8758L21.6362 90.7471C31.7138 97.5726 43.9244 100.47 55.9835 98.8777L52.8422 75.0842ZM35.0946 70.8758C30.769 67.9461 27.2369 62.9794 25.276 56.9644L2.45784 64.403C5.73964 74.47 12.0858 84.2788 21.6362 90.7471L35.0946 70.8758ZM-5.31868 94.4786L1.55112 98.5591L13.8074 77.9245L6.93759 73.8441L-5.31868 94.4786ZM2.68565 90.7508C6.17985 94.7307 10.1868 98.2798 14.6324 101.291L28.0909 81.4194C25.3526 79.5648 22.8805 77.3761 20.721 74.9164L2.68565 90.7508ZM19.7038 93.4177L22.3315 88.405L1.07508 77.2622L-1.55262 82.2749L19.7038 93.4177ZM-5.44706 68.0478L-10.2373 77.3497L11.0995 88.3378L15.8898 79.0359L-5.44706 68.0478ZM1.26899 55.0065L-5.44706 68.0478L15.8898 79.0359L22.6059 65.9946L1.26899 55.0065ZM1.55112 98.5591C7.95726 102.364 16.2444 100.017 19.7038 93.4177L-1.55261 82.2749C1.37459 76.6908 8.3868 74.7049 13.8074 77.9245L1.55112 98.5591ZM6.93759 73.8441C11.939 76.8148 13.7629 83.166 11.0995 88.3378L-10.2373 77.3497C-13.3849 83.4617 -11.2295 90.9678 -5.31868 94.4786L6.93759 73.8441ZM88.4163 36.9679C81.157 36.9743 75.5898 42.8148 75.4187 49.6692L99.4112 50.2683C99.2676 56.0185 94.5924 60.9624 88.4377 60.9679L88.4163 36.9679ZM25.276 56.9644C21.916 46.6575 6.90395 44.0644 1.26899 55.0065L22.6059 65.9946C17.8103 75.3066 5.24958 72.9667 2.45784 64.403L25.276 56.9644ZM111.989 50.1801C112.127 42.7604 106.109 36.9521 98.9894 36.9584L99.0108 60.9584C92.9954 60.9638 87.8763 56.0506 87.9933 49.7353L111.989 50.1801Z" fill="#0A00D8" mask="url(#path-1-inside-1_648_682)"/>
</svg>
