<svg width="91" height="101" viewBox="0 0 91 101" fill="none" xmlns="http://www.w3.org/2000/svg">
<path d="M47.1963 0.545038C46.3396 0.0655988 45.2877 0.0636496 44.4291 0.539912L2.41444 23.8453C1.53931 24.3307 0.998535 25.2386 0.998535 26.2225V73.2976C0.998535 74.2665 1.52309 75.163 2.37728 75.6539L7.9207 78.8397C9.78388 79.9105 12.1317 78.5968 12.1317 76.4835V31.9566C12.1317 30.9814 12.6631 30.0802 13.526 29.5915L51.8583 7.8841C53.7229 6.82822 53.7159 4.19343 51.8459 3.14695L47.1963 0.545038Z" fill="#0A00D8"/>
<path d="M63.6143 9.73256C62.7498 9.24879 61.6874 9.25147 60.8254 9.73957L19.6618 33.0503C18.7989 33.539 18.2676 34.4403 18.2676 35.4154V83.2224C18.2676 84.1912 18.7921 85.0877 19.6463 85.5786L26.3551 89.4342C28.2183 90.505 30.5662 89.1913 30.5662 87.078V42.5247C30.5662 41.5496 31.0975 40.6483 31.9604 40.1596L70.5167 18.3254C72.3813 17.2695 72.3743 14.6347 70.5043 13.5882L63.6143 9.73256Z" fill="#0A00D8"/>
<path d="M47.2273 99.8125C46.3545 100.31 45.2751 100.308 44.4042 99.8073L38.0807 96.1731C37.2265 95.6822 36.702 94.7857 36.702 93.8168V89.2367C36.702 87.1382 39.0203 85.8226 40.8836 86.8638L43.6735 88.4227C44.5404 88.9072 45.6058 88.9025 46.4683 88.4106L86.7097 65.4594C88.5565 64.406 90.8796 65.6879 90.9124 67.7784L90.9982 73.263C91.0137 74.2504 90.4832 75.1692 89.6106 75.6663L47.2273 99.8125Z" fill="#0A00D8"/>
<path d="M90.6669 52.0987C90.6824 53.0856 90.1524 54.004 89.2805 54.5013L46.4254 78.9433C45.5629 79.4352 44.4975 79.4398 43.6306 78.9554L38.1102 75.8707C37.2394 75.3841 36.702 74.4785 36.702 73.4978V68.56C36.702 66.4591 39.0252 65.1438 40.8885 66.1898L43.1395 67.4537C44.0024 67.9381 45.0637 67.9374 45.9259 67.4519L86.3976 44.6608C88.2444 43.6208 90.5543 44.9036 90.5869 46.9874L90.6669 52.0987Z" fill="#0A00D8"/>
<path d="M38.0962 43.6184C37.2333 44.1071 36.702 45.0084 36.702 45.9835V52.8027C36.702 53.7815 37.2372 54.6855 38.1053 55.1729L43.1332 57.9957C43.9961 58.4802 45.0573 58.4795 45.9196 57.9939L88.9425 33.7662C89.822 33.2709 90.3578 32.3483 90.3423 31.356L90.2614 26.1875C90.2463 25.2224 89.7117 24.3367 88.855 23.8573L82.2727 20.1738C81.4082 19.6901 80.3458 19.6927 79.4838 20.1808L38.0962 43.6184Z" fill="#0A00D8"/>
</svg>
