<svg width="101" height="100" viewBox="0 0 101 100" fill="none" xmlns="http://www.w3.org/2000/svg">
<path fill-rule="evenodd" clip-rule="evenodd" d="M48.3224 0.359621C49.1027 -0.00835 50.0053 -0.0148295 50.7909 0.341902L98.7797 22.1347C99.6194 22.5161 100.159 23.3531 100.159 24.2753V25.8956V72.5623C100.159 73.4464 99.6625 74.2558 98.8746 74.6571L50.9005 99.0929C50.0546 99.5238 49.0526 99.5195 48.2105 99.0814L25.0862 87.0512L1.43979 74.9684C0.653434 74.5666 0.158569 73.758 0.158569 72.8749L0.158574 24.5621C0.158574 23.6521 0.683741 22.8238 1.50682 22.4357L48.3224 0.359621ZM50.8223 10.0715C50.0192 9.69344 49.0883 9.69859 48.2894 10.0855L18.212 24.655C17.2631 25.1023 17.2737 26.488 18.2292 26.9201L29.5734 32.05L29.615 32.0688L29.6563 32.0885L48.3121 41.1055C49.098 41.4854 50.0121 41.4962 50.8068 41.135L81.9314 26.9906C82.8921 26.5562 82.896 25.1605 81.9377 24.7205L50.8223 10.0715ZM91.0677 34.9486C91.0677 34.051 90.1675 33.4497 89.3662 33.812L54.829 49.4293C54.3896 49.628 54.1062 50.0737 54.1062 50.5658V85.044C54.1062 85.9647 55.0493 86.5654 55.8549 86.1579L90.3921 68.6837C90.8058 68.4744 91.0677 68.0426 91.0677 67.5698V34.9486ZM43.2553 86.0412C44.0616 86.4599 45.0152 85.8595 45.0152 84.9331V50.4821C45.0152 49.999 44.7419 49.5597 44.3145 49.3559L32.833 44.0391C32.4435 43.8587 31.9983 44.1432 31.9983 44.5724V58.5916C31.9768 59.0963 31.9983 59.3048 32.1664 59.4069C33.1889 60.028 36.6846 61.69 36.6846 61.69C37.0998 61.8937 37.364 62.3236 37.364 62.7953V67.2613C37.364 68.3336 36.9191 68.2979 36.5222 68.1025L32.6869 66.2392C31.8885 65.8462 31.8957 65.9676 31.884 66.8753L31.7328 79.2785C31.7267 79.7525 31.9844 80.1888 32.397 80.403L43.2553 86.0412ZM22.1769 60.7605C22.6023 60.9699 22.8858 61.2702 22.8642 61.8966L22.6225 73.3642C22.6042 74.2328 21.6822 74.7821 20.9096 74.3847L9.91377 68.7286C9.50629 68.517 9.24948 68.0886 9.24948 67.6205V34.0995C9.24948 33.6645 9.70563 33.3802 10.0961 33.5719L22.4206 39.62C22.8652 39.8211 23.1497 40.2749 23.1433 40.7729L22.9783 53.0089C22.9666 54.537 22.9783 54.6504 22.4206 54.4379L18.7523 52.8909C18.3555 52.6962 17.8963 52.9927 17.8963 53.4436V57.8827C17.8963 58.3539 18.1599 58.7834 18.5744 58.9874L22.1769 60.7605ZM85.9161 42.0323C85.9161 41.5688 85.4387 41.2686 85.0355 41.4786L81.3224 43.1661C80.5089 43.5898 79.9965 44.4457 79.9965 45.3809V67.1614C79.9965 67.6249 80.4739 67.9251 80.8771 67.7151L85.222 65.7651C85.6444 65.5756 85.9161 65.1557 85.9161 64.6927V42.0323ZM76.4447 46.2528C76.4447 45.7892 75.9672 45.489 75.564 45.699L71.8509 47.4783C71.0374 47.902 70.525 48.7579 70.525 49.6931V72.0947C70.525 72.5582 71.0025 72.8584 71.4057 72.6484L75.8058 70.3908C76.198 70.1895 76.4447 69.7858 76.4447 69.3449V46.2528ZM65.5006 50.5888C65.9038 50.3788 66.3813 50.679 66.3813 51.1425V74.3762C66.3813 74.8245 66.1262 75.2339 65.7237 75.4314L61.3423 77.5817C60.9391 77.7917 60.4616 77.4915 60.4616 77.028V54.6264C60.4616 53.6912 60.974 52.8353 61.7875 52.4116L65.5006 50.5888Z" fill="#0A00D8"/>
</svg>
