<svg width="100" height="100" viewBox="0 0 100 100" fill="none" xmlns="http://www.w3.org/2000/svg">
<path d="M20 69.5C19.4477 69.5 19 69.9477 19 70.5V72.5C19 76.9183 22.5817 80.5 27 80.5H73.5C77.9183 80.5 81.5 76.9183 81.5 72.5V70.5C81.5 69.9477 81.0523 69.5 80.5 69.5H20Z" fill="#0A00D8"/>
<path d="M80.5 28.5C81.0523 28.5 81.5 28.0523 81.5 27.5V25.5C81.5 21.0817 77.9183 17.5 73.5 17.5H27C22.5817 17.5 19 21.0817 19 25.5V27.5C19 28.0523 19.4477 28.5 20 28.5H80.5Z" fill="#0A00D8"/>
<path d="M26.1972 57.5587H8.82631V41.4391H26.1972V33H0V65.9976H26.1972V57.5587Z" fill="#0A00D8"/>
<path d="M91.5609 33H100V66.1969H69.9072V33H78.3465V57.3706H91.5609V33Z" fill="#0A00D8"/>
<path fill-rule="evenodd" clip-rule="evenodd" d="M33 33V66H41.5V55.5H63V33H33ZM41.5 41.5V47.5H54.5V41.5H41.5Z" fill="#0A00D8"/>
<path fill-rule="evenodd" clip-rule="evenodd" d="M30 0C31.1046 0 32 0.89543 32 2V12C32 13.1046 31.1046 14 30 14H26C24.8954 14 24 13.1046 24 12V2C24 0.895431 24.8954 0 26 0H30Z" fill="#0A00D8"/>
<path fill-rule="evenodd" clip-rule="evenodd" d="M72 0C73.1046 0 74 0.89543 74 2V12C74 13.1046 73.1046 14 72 14H68C66.8954 14 66 13.1046 66 12V2C66 0.895431 66.8954 0 68 0H72Z" fill="#0A00D8"/>
<path fill-rule="evenodd" clip-rule="evenodd" d="M58 0C59.1046 0 60 0.89543 60 2V12C60 13.1046 59.1046 14 58 14H54C52.8954 14 52 13.1046 52 12V2C52 0.895431 52.8954 0 54 0H58Z" fill="#0A00D8"/>
<path fill-rule="evenodd" clip-rule="evenodd" d="M44 0C45.1046 0 46 0.89543 46 2V12C46 13.1046 45.1046 14 44 14H40C38.8954 14 38 13.1046 38 12V2C38 0.895431 38.8954 0 40 0H44Z" fill="#0A00D8"/>
<path fill-rule="evenodd" clip-rule="evenodd" d="M30 85C31.1046 85 32 85.8954 32 87V98C32 99.1046 31.1046 100 30 100H26C24.8954 100 24 99.1046 24 98V87C24 85.8954 24.8954 85 26 85H30Z" fill="#0A00D8"/>
<path fill-rule="evenodd" clip-rule="evenodd" d="M72 85C73.1046 85 74 85.8954 74 87V98C74 99.1046 73.1046 100 72 100H68C66.8954 100 66 99.1046 66 98V87C66 85.8954 66.8954 85 68 85H72Z" fill="#0A00D8"/>
<path fill-rule="evenodd" clip-rule="evenodd" d="M58 85C59.1046 85 60 85.8954 60 87V98C60 99.1046 59.1046 100 58 100H54C52.8954 100 52 99.1046 52 98V87C52 85.8954 52.8954 85 54 85H58Z" fill="#0A00D8"/>
<path fill-rule="evenodd" clip-rule="evenodd" d="M44 85C45.1046 85 46 85.8954 46 87V98C46 99.1046 45.1046 100 44 100H40C38.8954 100 38 99.1046 38 98V87C38 85.8954 38.8954 85 40 85H44Z" fill="#0A00D8"/>
</svg>
