<svg width="101" height="101" viewBox="0 0 101 101" fill="none" xmlns="http://www.w3.org/2000/svg">
<path fill-rule="evenodd" clip-rule="evenodd" d="M50.7378 88.4612C71.7378 88.4612 88.7617 71.4373 88.7617 50.4373C88.7617 29.4372 71.7378 12.4133 50.7378 12.4133C29.7377 12.4133 12.7138 29.4372 12.7138 50.4373C12.7138 71.4373 29.7377 88.4612 50.7378 88.4612ZM50.7378 100.437C78.352 100.437 100.738 78.0515 100.738 50.4373C100.738 22.823 78.352 0.437256 50.7378 0.437256C23.1236 0.437256 0.737793 22.823 0.737793 50.4373C0.737793 78.0515 23.1236 100.437 50.7378 100.437Z" fill="#0A00D8"/>
<path fill-rule="evenodd" clip-rule="evenodd" d="M26.7907 35.4672C24.0961 33.3714 24.3955 23.4911 32.9931 23.4911H67.9877C72.5094 23.4911 76.1446 27.4696 75.5547 31.9526V36.9771C75.5547 37.9693 74.7505 38.7735 73.7583 38.7735H68.4459C67.4537 38.7735 66.6495 37.9693 66.6495 36.9771V34.2696C66.6495 33.2775 65.8452 32.4732 64.8531 32.4732H41.9828C40.2993 32.4732 39.5406 34.5808 40.8378 35.6538L50.7808 43.8783C54.2231 46.8751 54.205 52.2284 50.7427 55.202L40.5836 64.3733C39.3625 65.4756 40.1423 67.5031 41.7874 67.5031H64.8531C65.8452 67.5031 66.6495 66.6988 66.6495 65.7067V62.5468C66.6495 61.5547 67.4537 60.7504 68.4459 60.7504H73.7583C74.7505 60.7504 75.5547 61.5547 75.5547 62.5468V68.2246C76.0148 72.6414 72.52 76.4852 68.0794 76.4852H33.6747C23.4973 76.4852 24.6949 67.5031 28.798 63.3218L42.0928 50.9026C42.8815 50.1659 42.8471 48.9049 42.0195 48.2122L26.7907 35.4672Z" fill="#0A00D8"/>
</svg>
