<svg width="100" height="100" viewBox="0 0 100 100" fill="none" xmlns="http://www.w3.org/2000/svg">
<path fill-rule="evenodd" clip-rule="evenodd" d="M60.9389 33.6789L50.0469 52.3586L39.1549 33.6789L31.5493 37.851L45.0704 60.9874L47.1361 64.5907C47.6056 65.7282 48.7324 66.4868 50.0469 66.4868C51.0798 66.4868 52.0187 66.0126 52.5822 65.1595H52.6761L68.6387 37.851L60.9389 33.6789ZM73.8031 33.4892V41.9283H91.1737V45.816H80.7512V54.2551H91.1737V58.1427H73.8031V66.582H100V33.4892H73.8031ZM26.1972 58.0479H8.82631V41.9283H26.1972V33.4892H1.11759e-08V66.4868H26.1972V58.0479Z" fill="#0A00D8"/>
<path d="M75.5453 22.8311C76.2804 23.1356 76.8644 23.7196 77.1689 24.4547L78.2232 27H90.792L86.1944 15.9004C85.8015 14.952 85.048 14.1985 84.0996 13.8056L51.4812 0.294638C50.5328 -0.0982126 49.4672 -0.0982129 48.5188 0.294638L15.9004 13.8056C14.952 14.1985 14.1985 14.952 13.8056 15.9004L9.208 27H21.7768L22.8311 24.4547C23.1356 23.7196 23.7196 23.1356 24.4547 22.8311L48.8519 12.7254C49.587 12.4209 50.413 12.4209 51.148 12.7254L75.5453 22.8311Z" fill="#0A00D8"/>
<path d="M21.7768 73H9.208L13.8056 84.0996C14.1985 85.048 14.952 85.8015 15.9004 86.1944L48.5188 99.7054C49.4672 100.098 50.5328 100.098 51.4812 99.7054L84.0996 86.1944C85.048 85.8015 85.8015 85.048 86.1944 84.0996L90.792 73H78.2232L77.1689 75.5453C76.8644 76.2804 76.2804 76.8644 75.5453 77.1689L51.1481 87.2746C50.413 87.5791 49.587 87.5791 48.852 87.2746L24.4547 77.1689C23.7196 76.8644 23.1356 76.2804 22.8311 75.5453L21.7768 73Z" fill="#0A00D8"/>
<path d="M0.620361 52.2676V47.7324L0.294638 48.5188C-0.0982127 49.4672 -0.0982129 50.5328 0.294638 51.4812L0.620361 52.2676Z" fill="#0A00D8"/>
</svg>
