<svg width="101" height="101" viewBox="0 0 101 101" fill="none" xmlns="http://www.w3.org/2000/svg">
<path d="M50.3895 60.7813C56.2017 60.7813 60.9135 56.0278 60.9135 50.164C60.9135 44.3002 56.2017 39.5466 50.3895 39.5466C44.5773 39.5466 39.8656 44.3002 39.8656 50.164C39.8656 56.0278 44.5773 60.7813 50.3895 60.7813Z" fill="#0A00D8"/>
<path fill-rule="evenodd" clip-rule="evenodd" d="M5.43672 95.6525C13.8079 104.098 31.8753 100.414 50.7298 87.9376C69.7515 100.153 87.8671 103.588 96.1232 95.0278C104.304 86.5454 100.551 68.621 88.1996 49.9551C100.297 31.1207 103.808 13.1463 95.5123 4.77737C87.1411 -3.66816 69.0736 0.015581 50.2191 12.4924C31.1974 0.276634 13.0818 -3.15776 4.82577 5.40232C-3.3554 13.8847 0.397692 31.8091 12.7493 50.4749C0.651549 69.3093 -2.85852 87.2837 5.43672 95.6525ZM15.7686 85.2289C16.5606 85.5084 19.917 86.4443 28.1817 83.3493C31.2705 82.1926 34.6059 80.6024 38.0888 78.592C35.3972 76.3323 32.7271 73.9104 30.1041 71.3355C27.3007 68.5834 24.6691 65.7724 22.2212 62.9335C20.288 66.3667 18.7539 69.6553 17.6317 72.7057C14.564 81.0438 15.4917 84.4299 15.7686 85.2289ZM83.6187 72.2511C82.4553 69.2165 80.8768 65.9493 78.8972 62.543C76.488 65.4153 73.8947 68.2623 71.1289 71.0527C68.541 73.6636 65.9039 76.1221 63.2431 78.4187C66.7529 80.3809 70.1095 81.9251 73.2138 83.0391C81.5197 86.0199 84.863 85.0378 85.6511 84.7475C85.9173 83.9448 86.799 80.5462 83.6187 72.2511ZM60.8647 60.6974C64.3488 57.1824 67.4823 53.6144 70.2538 50.0787C67.4346 46.5816 64.2531 43.0571 60.7218 39.5904C57.2807 36.2123 53.7942 33.1707 50.3408 30.4752C46.9243 33.218 43.4793 36.3074 40.0843 39.7325C36.6002 43.2475 33.4667 46.8156 30.6951 50.3513C33.5143 53.8485 36.6958 57.373 40.2272 60.8397C43.6682 64.2178 47.1547 67.2593 50.6081 69.9549C54.0246 67.212 57.4696 64.1226 60.8647 60.6974ZM83.3173 27.7242C82.195 30.7746 80.661 34.0633 78.7277 37.4965C76.2798 34.6577 73.6482 31.8467 70.8448 29.0946C68.2218 26.5196 65.5517 24.0977 62.8601 21.838C66.343 19.8276 69.6784 18.2373 72.7673 17.0806C81.032 13.9857 84.3884 14.9216 85.1803 15.201C85.4573 16 86.385 19.3862 83.3173 27.7242ZM27.7352 17.391C30.8394 18.505 34.196 20.0491 37.7057 22.0114C35.045 24.3079 32.408 26.7663 29.8201 29.3772C27.0542 32.1676 24.4609 35.0147 22.0517 37.887C20.0721 34.4808 18.4937 31.2136 17.3302 28.179C14.15 19.884 15.0317 16.4853 15.2978 15.6826C16.0859 15.3923 19.4293 14.4102 27.7352 17.391Z" fill="#0A00D8"/>
</svg>
