<svg width="101" height="101" viewBox="0 0 101 101" fill="none" xmlns="http://www.w3.org/2000/svg">
<path d="M50.4745 62.1175C57.1019 62.1175 62.4745 56.7449 62.4745 50.1175C62.4745 43.4901 57.1019 38.1175 50.4745 38.1175C43.8471 38.1175 38.4745 43.4901 38.4745 50.1175C38.4745 56.7449 43.8471 62.1175 50.4745 62.1175Z" fill="#0A00D8"/>
<path fill-rule="evenodd" clip-rule="evenodd" d="M5.22584 4.86882C13.7041 -3.60946 31.6919 -0.247741 50.4745 11.7907C69.2571 -0.247741 87.2448 -3.60946 95.7231 4.86882C104.201 13.3471 100.84 31.3349 88.8012 50.1174C100.84 68.9001 104.201 86.8879 95.7232 95.3662C87.2449 103.844 69.2571 100.483 50.4745 88.4442C31.6919 100.483 13.7041 103.844 5.22576 95.3662C-3.25254 86.8879 0.109202 68.9001 12.1477 50.1174C0.109275 31.3348 -3.25244 13.3471 5.22584 4.86882ZM29.3383 85.7872C18.3107 89.79 14.3028 87.4726 13.711 86.8809C13.1193 86.2892 10.8019 82.2813 14.8048 71.2536C16.0099 67.9334 17.6749 64.3704 19.7824 60.6703C22.6767 64.2526 25.8654 67.8045 29.3265 71.2655C32.7875 74.7266 36.3394 77.9152 39.9216 80.8095C36.2215 82.917 32.6585 84.582 29.3383 85.7872ZM37.8118 62.7803C33.6361 58.6046 29.9463 54.3377 26.765 50.1174C29.9463 45.8972 33.6361 41.6303 37.8117 37.4547C41.9873 33.2791 46.2542 29.5893 50.4745 26.408C54.6947 29.5893 58.9616 33.2791 63.1373 37.4547C67.3129 41.6303 71.0027 45.8972 74.1839 50.1174C71.0027 54.3377 67.3128 58.6046 63.1372 62.7803C58.9616 66.9559 54.6947 70.6457 50.4745 73.8269C46.2542 70.6457 41.9874 66.9559 37.8118 62.7803ZM29.3384 14.4478C32.6585 15.653 36.2215 17.318 39.9216 19.4254C36.3393 22.3197 32.7874 25.5084 29.3264 28.9694C25.8654 32.4305 22.6767 35.9823 19.7824 39.5645C17.675 35.8645 16.01 32.3015 14.8049 28.9814C10.802 17.9537 13.1194 13.9458 13.7111 13.3541C14.3028 12.7624 18.3107 10.445 29.3384 14.4478ZM71.6226 28.9694C68.1615 25.5084 64.6096 22.3197 61.0274 19.4254C64.7274 17.318 68.2904 15.653 71.6105 14.4478C82.6382 10.445 86.6461 12.7624 87.2378 13.3541C87.8295 13.9458 90.1469 17.9537 86.1441 28.9814C84.939 32.3015 83.2739 35.8645 81.1665 39.5646C78.2722 35.9823 75.0836 32.4305 71.6226 28.9694ZM71.6225 71.2655C75.0835 67.8045 78.2722 64.2526 81.1666 60.6703C83.274 64.3704 84.939 67.9334 86.1442 71.2536C90.147 82.2813 87.8296 86.2892 87.2379 86.8809C86.6462 87.4726 82.6383 89.79 71.6106 85.7872C68.2905 84.582 64.7275 82.917 61.0274 80.8095C64.6096 77.9152 68.1614 74.7266 71.6225 71.2655Z" fill="#0A00D8"/>
</svg>
