<svg width="101" height="75" viewBox="0 0 101 75" fill="none" xmlns="http://www.w3.org/2000/svg">
<path d="M51.1179 28.8631C52.8052 28.8631 54.4546 29.3634 55.8575 30.3009C57.2605 31.2383 58.3539 32.5706 58.9996 34.1295C59.6453 35.6883 59.8143 37.4037 59.4851 39.0585C59.1559 40.7134 58.3434 42.2335 57.1503 43.4266C55.9572 44.6197 54.4371 45.4322 52.7822 45.7614C51.1274 46.0905 49.4121 45.9216 47.8532 45.2759C46.2943 44.6302 44.962 43.5367 44.0246 42.1338C43.0872 40.7309 42.5868 39.0815 42.5868 37.3942L51.1179 37.3942V28.8631Z" fill="#0A00D8"/>
<path d="M51.1179 25.5608C53.8692 25.5608 56.5345 26.5194 58.6554 28.2719C60.7763 30.0244 62.2203 32.4611 62.7391 35.163C63.2578 37.8649 62.8189 40.6631 61.4978 43.0765C60.1767 45.4898 58.0559 47.3673 55.5003 48.3862C52.9446 49.4051 50.1138 49.5017 47.4947 48.6593C44.8756 47.8169 42.6318 46.0882 41.1493 43.7705C39.6669 41.4528 39.0383 38.691 39.3717 35.96C39.7052 33.229 40.9798 30.6996 42.9764 28.8067L35.4659 20.8849C34.0638 22.2142 32.8468 23.7069 31.8356 25.3221C30.0787 28.1284 28.9429 31.3047 28.536 34.637C27.895 39.8873 29.1034 45.1969 31.9535 49.6526C34.8036 54.1083 39.1171 57.4317 44.1524 59.0512C49.1876 60.6706 54.6298 60.485 59.5429 58.5262C64.4561 56.5674 68.5332 52.9578 71.0731 48.3182C73.6129 43.6787 74.4567 38.2991 73.4594 33.1047C72.4621 27.9104 69.686 23.2258 65.6086 19.8567C63.0206 17.7184 60.0111 16.1948 56.8053 15.367C54.9602 14.8906 53.0501 14.6446 51.1179 14.6446V25.5608Z" fill="#0A00D8"/>
<path fill-rule="evenodd" clip-rule="evenodd" d="M55.8575 30.3009C54.4546 29.3634 52.8052 28.8631 51.1179 28.8631V37.3942L42.5868 37.3942C42.5868 39.0815 43.0872 40.7309 44.0246 42.1338C44.962 43.5367 46.2943 44.6302 47.8532 45.2759C49.4121 45.9216 51.1274 46.0905 52.7822 45.7614C54.4371 45.4322 55.9572 44.6197 57.1503 43.4266C58.3434 42.2335 59.1559 40.7134 59.4851 39.0585C59.8143 37.4037 59.6453 35.6883 58.9996 34.1295C58.3539 32.5706 57.2605 31.2383 55.8575 30.3009ZM58.6554 28.2719C56.5345 26.5194 53.8692 25.5608 51.1179 25.5608V14.6446C53.0501 14.6446 54.9602 14.8906 56.8053 15.367C60.0111 16.1948 63.0206 17.7184 65.6086 19.8567C69.686 23.2258 72.4621 27.9104 73.4594 33.1047C74.4567 38.2991 73.6129 43.6787 71.0731 48.3182C68.5332 52.9578 64.4561 56.5674 59.5429 58.5262C54.6298 60.485 49.1876 60.6706 44.1524 59.0512C39.1171 57.4317 34.8036 54.1083 31.9535 49.6526C29.1034 45.1969 27.895 39.8873 28.536 34.637C28.9429 31.3047 30.0787 28.1284 31.8356 25.3221C32.8468 23.7069 34.0638 22.2142 35.4659 20.8849L42.9764 28.8067C40.9798 30.6996 39.7052 33.229 39.3717 35.96C39.0383 38.691 39.6669 41.4528 41.1493 43.7705C42.6318 46.0882 44.8756 47.8169 47.4947 48.6593C50.1138 49.5017 52.9446 49.4051 55.5003 48.3862C58.0559 47.3673 60.1767 45.4898 61.4978 43.0765C62.8189 40.6631 63.2578 37.8649 62.7391 35.163C62.2203 32.4611 60.7763 30.0244 58.6554 28.2719Z" fill="#0A00D8"/>
<path fill-rule="evenodd" clip-rule="evenodd" d="M100.941 37.2773L99.0215 34.263L98.9736 34.1937C98.2962 33.2143 96.4257 30.5098 95.2791 29.0107C92.9363 25.948 89.5393 21.8476 85.3297 17.7249C77.1515 9.71561 64.8352 0.562399 50.5473 0.52708C36.2271 0.491681 24.0824 9.61674 16.0712 17.611C11.9498 21.7237 8.64341 25.817 6.36933 28.8747C5.25568 30.3721 3.44423 33.0763 2.78912 34.0543L2.74348 34.1224L0.940796 37.0553L2.70068 40.014L2.72124 40.0472C2.90393 40.342 3.38475 41.1181 3.67846 41.5712C4.28908 42.5133 5.17735 43.8395 6.31585 45.4223C8.58556 48.5779 11.8866 52.805 16.002 57.0566C23.9852 65.3041 36.1385 74.7947 50.5192 74.8302C64.8781 74.8657 77.2204 65.4579 85.3798 57.2661C89.5873 53.0418 92.9819 48.8374 95.322 45.6972C96.4958 44.1222 97.4136 42.8025 98.045 41.8651C98.3609 41.3962 98.8606 40.6218 99.0306 40.3583L100.941 37.2773ZM87.3244 37.3618C86.9992 36.9191 86.6386 36.4369 86.2444 35.9216C84.1332 33.1617 81.0934 29.4973 77.3708 25.8516C69.6846 18.3241 60.1556 11.9256 50.5192 11.9018C40.9152 11.8781 31.5868 18.1976 24.1059 25.6627C20.4812 29.2796 17.5368 32.9196 15.4966 35.6629C15.0973 36.1997 14.7341 36.7003 14.4086 37.1575C14.7478 37.6511 15.129 38.1949 15.5501 38.7804C17.5947 41.623 20.5444 45.3946 24.1751 49.1454C31.6839 56.9028 41.0038 63.4319 50.5473 63.4555C60.1126 63.4791 69.6157 56.9744 77.3207 49.2388C81.0453 45.4994 84.0877 41.7365 86.2014 38.9002C86.613 38.3479 86.9879 37.8327 87.3244 37.3618Z" fill="#0A00D8"/>
</svg>
