<svg width="101" height="85" viewBox="0 0 101 85" fill="none" xmlns="http://www.w3.org/2000/svg">
<path fill-rule="evenodd" clip-rule="evenodd" d="M99.7521 6.51746C100.962 7.71781 100.97 9.67201 99.7701 10.8823L58.0775 52.9194C56.8772 54.1296 54.923 54.1377 53.7127 52.9373L49.33 48.5905C48.1197 47.3901 48.1116 45.4359 49.312 44.2257L91.0045 2.18857C92.2049 0.978297 94.1591 0.970255 95.3693 2.17061L99.7521 6.51746Z" fill="#0A00D8"/>
<path d="M83.3468 31.8242C84.1911 33.2741 84.9404 34.7844 85.5875 36.3465C88.4267 43.2011 89.1696 50.7437 87.7222 58.0206C86.476 64.2855 83.6545 70.1111 79.546 74.9581C78.4438 76.2584 78.4328 78.205 79.6381 79.4103L84.1028 83.875C85.3081 85.0803 87.2704 85.0863 88.3991 83.809C94.2401 77.1984 98.2411 69.1444 99.9692 60.4566C101.898 50.7576 100.908 40.7043 97.1239 31.568C95.8337 28.4533 94.2386 25.4929 92.3706 22.7258L83.3468 31.8242Z" fill="#0A00D8"/>
<path d="M79.3452 9.56127C79.1342 9.41552 78.9219 9.27131 78.7084 9.12867C70.486 3.6346 60.819 0.702148 50.9299 0.702148C41.0409 0.702148 31.3739 3.6346 23.1514 9.12866C14.929 14.6227 8.52036 22.4317 4.73598 31.568C0.951597 40.7043 -0.0385706 50.7576 1.89069 60.4566C3.61879 69.1444 7.61975 77.1984 13.4608 83.809C14.5895 85.0863 16.5517 85.0803 17.757 83.875L22.2218 79.4103C23.4271 78.205 23.4161 76.2584 22.3139 74.9581C18.2054 70.1111 15.3839 64.2855 14.1377 58.0206C12.6902 50.7437 13.4331 43.2011 16.2724 36.3465C19.1117 29.4919 23.9198 23.6332 30.0888 19.5112C36.2578 15.3892 43.5106 13.1891 50.9299 13.1891C57.7927 13.1891 64.5129 15.0715 70.3647 18.616L79.3452 9.56127Z" fill="#0A00D8"/>
</svg>
