<svg width="101" height="101" viewBox="0 0 101 101" fill="none" xmlns="http://www.w3.org/2000/svg">
<path fill-rule="evenodd" clip-rule="evenodd" d="M100.599 61.4633C100.599 59.2564 99.754 57.6305 98.9859 56.7427C98.1048 55.7781 97.0995 54.9468 95.9992 54.2729C95.1397 53.7692 94.252 53.3203 93.3411 52.9286L91.8478 52.3347L90.3545 51.8345L88.5625 51.3343C87.6366 51.1154 86.6809 50.9278 85.5759 50.7715L83.4851 50.584C82.0864 50.4284 80.6805 50.3554 79.2739 50.3651C77.8675 50.36 76.4618 50.433 75.0628 50.584L73.002 50.8341C71.9866 50.9904 71.0308 51.1779 70.0154 51.3968L68.2234 51.897L66.7301 52.3972L65.2368 52.9912C64.3257 53.3828 63.438 53.8317 62.5786 54.3355C61.4783 55.0093 60.473 55.8406 59.592 56.8052C58.8815 57.649 58.0986 59.6937 58.0986 60.8693L58.0987 90.6517C58.3675 94.5595 62.7877 97.4153 69.209 99.1347C72.5362 100.218 78.2921 100.364 79.3374 100.364C80.3827 100.364 86.8621 99.7812 89.3988 99.1347C94.8018 97.7578 100.24 94.5282 100.599 90.6517V61.4633ZM73.7785 56.0862C73.3567 56.1176 72.9375 56.1803 72.5241 56.2737C68.0143 57.024 64.9381 58.6184 64.9978 60.588C64.9978 61.5258 65.7146 62.2762 67.0287 62.8701C67.6026 63.0777 68.7739 63.6296 68.7739 63.6296C69.3727 63.7341 65.6739 63.1036 68.7739 63.6296C71.8738 64.1555 76.1339 64.9388 79.2739 64.8913C82.3848 64.9569 85.4946 64.4246 88.5625 63.8807L91.4894 63.0054C92.8035 62.4114 93.5203 61.3695 93.5203 60.4317C93.5502 58.6184 90.4739 57.024 85.9641 56.2737C85.5508 56.1803 85.1314 56.1176 84.7096 56.0862C82.9083 55.828 81.092 55.7027 79.2739 55.711C77.4361 55.705 75.6001 55.8304 73.7785 56.0862ZM81.4243 93.6325C86.0307 93.5159 90.5489 91.9939 94.6254 89.7458V82.4093C90.5298 84.3572 83.7713 85.4205 79.2739 85.5355C74.7767 85.4205 68.0182 84.3572 63.9226 82.4093V89.7458C67.9991 91.9939 72.5172 93.5159 77.1236 93.6325H81.4243ZM79.0649 79.0641C84.3262 79.2007 89.9531 77.9425 94.6254 75.4064L94.715 68.2473C91.88 69.6443 88.8591 70.5824 85.7551 71.0297C83.6107 71.3764 81.4436 71.5436 79.2739 71.5299C77.0852 71.525 74.8994 71.3578 72.7332 71.0297C69.6803 70.5671 66.7106 69.6293 63.9226 68.2473V75.3751C68.592 77.9221 73.801 79.1911 79.0649 79.0641Z" fill="#0A00D8"/>
<path fill-rule="evenodd" clip-rule="evenodd" d="M0.598633 7.35743C0.598633 3.49521 3.68621 0.364258 7.49494 0.364258H29.3858C33.1945 0.364258 36.2821 3.4952 36.2821 7.35743V9.01811C36.2821 10.116 37.1671 11.0086 38.2649 11.018L82.9203 11.4027C86.706 11.4353 89.758 14.5566 89.758 18.3956V27.1575C89.758 27.7098 90.2057 28.1575 90.758 28.1575H93.6995C98.118 28.1575 101.397 32.3122 100.428 36.6838L98.1551 46.9578C97.8795 48.2035 96.4882 48.8392 95.3161 48.3353L95.253 48.3081L93.5671 47.6375L91.8216 47.0528L89.8102 46.4914L89.7126 46.4683C88.9072 46.278 88.3843 45.4836 88.5629 44.6754L89.4685 40.5795C89.7445 39.331 88.7942 38.1477 87.5156 38.1477H23.2119C22.2867 38.1477 21.4822 38.7824 21.2669 39.6823L12.3789 76.8217C12.078 78.0791 13.0311 79.2872 14.324 79.2872H51.0987C52.2032 79.2872 53.0987 80.1826 53.0987 81.2872L53.0987 87.2775C53.0987 88.382 52.2033 89.2775 51.0987 89.2775H5.59863C2.83721 89.2775 0.598633 87.0411 0.598633 84.2823V7.35743ZM79.9061 27.1575C79.9061 27.7098 79.4584 28.1575 78.9061 28.1575H19.31C16.1277 28.1575 13.3587 30.3655 12.6082 33.5015C12.3064 34.7624 10.4505 34.5434 10.4505 33.2469V11.3545C10.4505 10.8022 10.8982 10.3545 11.4505 10.3545H25.4302C25.9825 10.3545 26.4302 10.8022 26.4302 11.3545V13.9727C26.4302 17.8117 29.4822 20.933 33.2679 20.9656L78.9147 21.3588C79.4637 21.3635 79.9061 21.8098 79.9061 22.3588V27.1575Z" fill="#0A00D8"/>
</svg>
