<svg width="86" height="101" viewBox="0 0 86 101" fill="none" xmlns="http://www.w3.org/2000/svg">
<path fill-rule="evenodd" clip-rule="evenodd" d="M85.4019 22.4686C85.4019 18.0548 83.7126 14.8029 82.1763 13.0274C80.4142 11.0981 78.4036 9.43561 76.203 8.08789C74.4839 7.08042 72.7086 6.18262 70.8868 5.39929L67.9002 4.21131L64.9135 3.21091L61.3296 2.21051C59.4779 1.77283 57.5664 1.39768 55.3563 1.08506L51.1748 0.709906C48.3774 0.398847 45.5655 0.252724 42.7525 0.272231C39.9396 0.261946 37.1282 0.408043 34.3302 0.709906L30.2086 1.21011C28.1777 1.52273 26.2662 1.89788 24.2353 2.33556L20.6514 3.33596L17.6647 4.33636L14.6781 5.52434C12.856 6.30767 11.0806 7.20547 9.36189 8.21294C7.1611 9.56066 5.15061 11.2231 3.38862 13.1524C1.96764 14.84 0.401855 18.9294 0.401855 21.2807L0.401985 80.8453C0.939579 88.661 9.78002 94.3726 22.6226 97.8114C29.2771 99.979 40.7888 100.271 42.8794 100.271C44.9701 100.271 57.9288 99.1043 63.0021 97.8114C73.8081 95.0576 84.6851 88.5984 85.4019 80.8453V22.4686ZM31.7617 11.7143C30.918 11.7772 30.0796 11.9026 29.2529 12.0895C20.2332 13.5901 14.0808 16.7789 14.2002 20.7179C14.2002 22.5937 15.6338 24.0943 18.2621 25.2823C19.4098 25.6973 21.7523 26.8011 21.7523 26.8011C22.95 27.0102 15.5524 25.7493 21.7523 26.8011C27.9522 27.853 36.4724 29.4196 42.7525 29.3246C48.9742 29.4557 55.1938 28.3912 61.3296 27.3034L67.1834 25.5527C69.8116 24.3648 71.2452 22.2811 71.2452 20.4053C71.3049 16.7789 65.1525 13.5901 56.1328 12.0895C55.3061 11.9026 54.4675 11.7772 53.6238 11.7143C50.0213 11.1981 46.3886 10.9473 42.7525 10.964C39.0768 10.952 35.4047 11.2027 31.7617 11.7143ZM47.0532 86.807C56.266 86.5738 65.3024 83.5297 73.4553 79.0336V64.3605C65.2642 68.2565 51.7473 70.3829 42.7525 70.613C33.758 70.3829 20.2411 68.2565 12.0499 64.3605V79.0336C20.2028 83.5297 29.2391 86.5738 38.4517 86.807H47.0532ZM42.3343 57.6702C52.857 57.9435 64.1107 55.427 73.4553 50.3548L73.6345 36.0366C67.9647 38.8305 61.9227 40.7068 55.7147 41.6013C51.4261 42.2947 47.0917 42.6293 42.7525 42.6017C38.3749 42.5919 34.0035 42.2576 29.671 41.6013C23.5651 40.6762 17.6257 38.8006 12.0499 36.0366V50.2923C21.3885 55.3861 31.8066 57.9242 42.3343 57.6702Z" fill="#0A00D8"/>
</svg>
