<svg width="96" height="101" viewBox="0 0 96 101" fill="none" xmlns="http://www.w3.org/2000/svg">
<path d="M13.4707 18.2137L13.8186 15.6361C13.8254 15.5856 13.8328 15.5355 13.8407 15.4856C13.2242 16.1263 12.6279 16.7808 12.0521 17.4475C3.72002 27.095 0.398724 39.7446 0.982472 52.2069C2.13343 76.7783 20.3821 100.353 51.1124 100.5C38.7558 97.3642 30.3272 90.484 24.9238 84.212C22.0227 80.8445 19.9884 77.6473 18.6764 75.2856C18.02 74.104 17.5431 73.1293 17.228 72.4438C17.0704 72.1011 16.9531 71.8304 16.874 71.6421C16.8344 71.548 16.8044 71.4744 16.7835 71.4227L16.7592 71.3617L16.7522 71.3437L16.7492 71.3359C16.7492 71.3359 16.7486 71.3344 18.1466 70.7946L16.7486 71.3344L15.2005 67.316L18.9566 69.5313L19.1069 69.6193C19.2179 69.6842 19.3737 69.7749 19.5705 69.8889C18.0594 66.2356 16.9897 62.4838 16.3194 58.7103C15.4607 55.0825 15.121 51.1344 15.6374 47.0325C16.3448 40.6906 19.3036 34.6662 24.057 29.1624C27.6154 25.0422 32.2522 21.6966 37.9082 19.7084C38.8781 19.3425 39.8804 19.027 40.9346 18.7637C43.344 17.7868 46.3425 17.0754 48.7108 16.6091C49.9136 16.3723 50.9685 16.196 51.7233 16.0787C52.1009 16.0201 52.4039 15.9761 52.6133 15.9467C52.7181 15.9321 52.7994 15.921 52.8551 15.9136L52.919 15.9051L52.9418 15.9021C52.9418 15.9021 52.9425 15.902 53.069 16.894L52.9418 15.9021L55.5197 15.5727L53.8267 17.5456C53.7323 17.6556 53.6355 17.7611 53.5364 17.8622C61.7379 18.5964 67.5083 21.9376 71.4108 26.2601C75.9798 31.3208 78.4167 36.8959 78.5576 43.8448C78.6996 50.845 75.5365 57.5588 73.4456 59.8547C70.0621 63.5698 66.1591 66.9923 58.5987 66.9923C51.4373 66.9923 46.6353 64.905 42.9357 59.3904C42.4935 58.7774 42.0798 58.1262 41.6939 57.4085C40.6004 55.3744 39.7594 52.8602 39.0669 49.2334L38.3888 45.6823L40.2702 47.793C40.7524 45.4486 41.846 43.3216 43.378 41.5962C47.0593 37.4502 54.6811 38.026 57.1194 40.1582C63.3479 45.6046 60.6092 53.9677 54.2706 57.5588C55.5038 58.4364 69.0006 51.8487 66.7829 41.5962C65.8524 37.2943 64.5218 34.5249 60.6092 31.5528C54.6811 27.0495 41.8934 27.3013 35.3256 32.1466C28.7577 36.992 25.6206 43.7928 25.6206 52.2374C25.6206 64.8581 33.3694 79.6014 54.6811 83.1374C65.9062 84.9998 83.4964 78.1879 91.4966 62.5065C91.813 61.6185 92.0638 60.7597 92.2596 59.9294C93.4732 54.781 92.6228 50.5439 91.8479 46.7891L90.8205 41.8112L94.3829 45.4332L93.3152 46.4856C94.3829 45.4332 94.3829 45.4332 94.3829 45.4332L94.3837 45.434L94.3847 45.4351L94.3875 45.4379L94.3959 45.4465L94.4236 45.4752C94.4468 45.4993 94.4793 45.5333 94.5201 45.5767C94.6016 45.6632 94.7161 45.7872 94.8551 45.9431C95.1236 46.2443 95.4864 46.6685 95.8789 47.1765C95.892 47.0618 95.9046 46.9473 95.9168 46.8331C95.9664 37.5421 93.4243 30.4234 90.4639 25.2785C88.3546 21.6126 86.0194 18.9268 84.2196 17.1634C83.3203 16.2822 82.5565 15.6332 82.0247 15.2094C81.7589 14.9975 81.5513 14.8421 81.414 14.7422C81.3454 14.6923 81.2944 14.6563 81.2625 14.634L81.2291 14.611L81.2257 14.6087L81.2244 14.6078L81.2236 14.6073L76.4968 11.4492L82.0907 11.8594C74.3982 4.85418 62.9672 0.500244 50.078 0.500244C40.0651 0.500244 31.4226 3.07474 24.2825 7.25213C24.1805 7.36525 24.0771 7.47803 23.9723 7.5905C22.482 9.72275 20.3531 11.9532 18.6197 13.6346C17.7393 14.4886 16.9502 15.2112 16.3807 15.7208C16.0957 15.9757 15.8654 16.1777 15.7057 16.3164C15.6258 16.3858 15.5636 16.4394 15.5209 16.476L15.4719 16.5179L15.4589 16.5289L15.4544 16.5328C15.4544 16.5328 15.4538 16.5333 14.8085 15.77L15.4544 16.5328L13.4707 18.2137Z" fill="#0A00D8"/>
<path d="M82.1625 11.925L82.1632 11.9257C82.1543 12.0415 82.1293 12.3788 82.0574 13.361L82.1625 11.925Z" fill="#0A00D8"/>
<path d="M86.2797 80.2216C81.1913 81.8184 78.2072 83.0507 76.6503 89.0803C76.6503 89.0803 82.9277 88.6239 88.4123 84.4755C91.9405 81.8069 95.9579 76.4315 94.0273 70.9632C94.0273 70.9632 91.3681 78.6248 86.2797 80.2216Z" fill="#0A00D8"/>
</svg>
