<svg width="101" height="101" viewBox="0 0 101 101" fill="none" xmlns="http://www.w3.org/2000/svg">
<path fill-rule="evenodd" clip-rule="evenodd" d="M84.9304 49.8928L83.62 47.8218L83.5872 47.7742C83.1248 47.1013 81.8476 45.2431 81.0647 44.2131C79.4651 42.1089 77.1457 39.2917 74.2715 36.4591C68.6876 30.9562 60.2782 24.6674 50.5228 24.6431C40.7453 24.6188 32.4531 30.8883 26.9832 36.3808C24.1692 39.2065 21.9116 42.0189 20.359 44.1197C19.5986 45.1485 18.3617 47.0065 17.9145 47.6784L17.8833 47.7252L16.6525 49.7403L17.8541 51.7731L17.8681 51.7959C17.9928 51.9985 18.3211 52.5317 18.5217 52.843C18.9386 53.4903 19.5451 54.4014 20.3224 55.489C21.8721 57.657 24.126 60.5613 26.9359 63.4824C32.3867 69.149 40.6848 75.6696 50.5036 75.694C60.3075 75.7184 68.7346 69.2547 74.3057 63.6264C77.1785 60.724 79.4962 57.8353 81.094 55.6778C81.8954 54.5957 82.5221 53.6889 82.9532 53.0449C83.1689 52.7227 83.5101 52.1907 83.6262 52.0096L84.9304 49.8928ZM75.6334 49.9509C75.4113 49.6467 75.1652 49.3154 74.896 48.9613C73.4546 47.0651 71.379 44.5475 68.8373 42.0426C63.5893 36.8708 57.0831 32.4747 50.5036 32.4583C43.9462 32.442 37.5769 36.7839 32.4691 41.9128C29.9943 44.3979 27.9839 46.8988 26.5909 48.7836C26.3182 49.1525 26.0702 49.4964 25.848 49.8105C26.0796 50.1496 26.3398 50.5233 26.6274 50.9256C28.0234 52.8786 30.0374 55.4699 32.5163 58.047C37.6432 63.3768 44.0067 67.8627 50.5228 67.8789C57.0538 67.8951 63.5423 63.4259 68.8031 58.1111C71.3462 55.5419 73.4234 52.9566 74.8667 51.0078C75.1477 50.6284 75.4037 50.2744 75.6334 49.9509Z" fill="#0A00D8"/>
<path d="M63.1781 50.4689C63.1781 57.1029 57.7677 62.4809 51.0935 62.4809C44.4194 62.4809 39.009 57.1029 39.009 50.4689C39.009 43.8348 44.4194 38.4569 51.0935 38.4569C57.7677 38.4569 63.1781 43.8348 63.1781 50.4689Z" fill="#0A00D8"/>
<path fill-rule="evenodd" clip-rule="evenodd" d="M63.4803 3.32173C63.4803 1.66322 64.8329 0.318726 66.5014 0.318726H91.2748C96.2804 0.318726 100.338 4.3522 100.338 9.32773V34.553C100.338 36.2115 98.9856 37.556 97.3171 37.556H91.2748C89.6063 37.556 88.2537 36.2115 88.2537 34.553V15.3337C88.2537 13.6752 86.9011 12.3307 85.2325 12.3307H66.5014C64.8329 12.3307 63.4803 10.9862 63.4803 9.32773V3.32173Z" fill="#0A00D8"/>
<path fill-rule="evenodd" clip-rule="evenodd" d="M63.4803 97.3157C63.4803 98.9742 64.8329 100.319 66.5014 100.319H91.2748C96.2804 100.319 100.338 96.2853 100.338 91.3097V66.0845C100.338 64.426 98.9856 63.0815 97.3171 63.0815H91.2748C89.6063 63.0815 88.2537 64.426 88.2537 66.0845V85.3037C88.2537 86.9622 86.9011 88.3067 85.2325 88.3067H66.5014C64.8329 88.3067 63.4803 89.6512 63.4803 91.3097V97.3157Z" fill="#0A00D8"/>
<path fill-rule="evenodd" clip-rule="evenodd" d="M37.1963 3.32173C37.1963 1.66322 35.8437 0.318726 34.1751 0.318726H9.4017C4.3961 0.318726 0.338257 4.3522 0.338257 9.32773V34.553C0.338257 36.2115 1.69087 37.556 3.3594 37.556H9.4017C11.0702 37.556 12.4228 36.2115 12.4228 34.553V15.3337C12.4228 13.6752 13.7755 12.3307 15.444 12.3307H34.1751C35.8437 12.3307 37.1963 10.9862 37.1963 9.32773V3.32173Z" fill="#0A00D8"/>
<path fill-rule="evenodd" clip-rule="evenodd" d="M37.1963 97.3157C37.1963 98.9742 35.8437 100.319 34.1751 100.319H9.4017C4.3961 100.319 0.338257 96.2853 0.338257 91.3097V66.0845C0.338257 64.426 1.69087 63.0815 3.3594 63.0815H9.4017C11.0702 63.0815 12.4228 64.426 12.4228 66.0845V85.3037C12.4228 86.9622 13.7755 88.3067 15.444 88.3067H34.1751C35.8437 88.3067 37.1963 89.6512 37.1963 91.3097V97.3157Z" fill="#0A00D8"/>
</svg>
