<svg width="100" height="100" viewBox="0 0 100 100" fill="none" xmlns="http://www.w3.org/2000/svg">
<path fill-rule="evenodd" clip-rule="evenodd" d="M50.2327 47.6836C63.7655 47.6836 74.736 37.0092 74.736 23.8418C74.736 10.6743 63.7655 0 50.2327 0C36.6999 0 25.7293 10.6743 25.7293 23.8418C25.7293 37.0092 36.6999 47.6836 50.2327 47.6836ZM50.2327 36.0534C56.7157 36.0534 62.4844 30.8585 62.4844 23.8418C62.4844 16.8251 56.7157 11.6301 50.2327 11.6301C43.7497 11.6301 37.981 16.8251 37.981 23.8418C37.981 30.8585 43.7497 36.0534 50.2327 36.0534Z" fill="#0A00D8"/>
<path d="M12.2578 96.4346C12.2601 97.4091 12.2626 98.4098 12.2626 99.4377H0.0108919C0.0108908 98.4847 0.00815318 97.5319 0.00542318 96.5818C-0.0101704 91.1551 -0.025514 85.8153 0.470775 81.0189C1.06053 75.3193 2.42231 69.665 5.87409 64.7884C13.0273 54.6826 27.0389 50.5911 50.223 50.5911C52.3229 50.5911 54.3473 50.6257 56.2979 50.6961C52.3264 53.8518 48.4069 57.6779 44.8523 62.3069C26.181 62.9295 19.1692 66.8586 16.0434 71.2747C14.2139 73.8593 13.1647 77.3144 12.6638 82.1558C12.2331 86.318 12.2444 90.9715 12.2578 96.4346Z" fill="#0A00D8"/>
<path fill-rule="evenodd" clip-rule="evenodd" d="M82.0412 52.4361C82.2292 52.758 82.2833 53.1395 82.1922 53.5002L71.2372 96.8532C71.1419 97.2302 70.8959 97.5528 70.5556 97.7471L68.811 98.7429C68.1177 99.1387 67.231 98.9038 66.8307 98.2182L65.9286 96.6734C65.7415 96.3531 65.687 95.9736 65.7763 95.6144L76.6146 52.0543C76.7088 51.6757 76.9549 51.3514 77.2962 51.1562L79.0364 50.1603C79.7299 49.7634 80.6175 49.9981 81.0181 50.6842L82.0412 52.4361Z" fill="#0A00D8"/>
<path d="M86.3261 68.7209C85.5512 67.9243 84.1944 68.258 83.8872 69.3207L82.7268 73.3357C82.5843 73.8289 82.7191 74.3598 83.0805 74.7278L89.5013 81.2679C90.034 81.8104 90.0488 82.6687 89.5352 83.2289L83.016 90.3392C82.6912 90.6933 82.5665 91.1842 82.6832 91.648L83.6515 95.4943C83.9279 96.5921 85.3212 96.9555 86.1093 96.1354L98.515 83.226C99.049 82.6703 99.0464 81.7976 98.5089 81.2451L86.3261 68.7209Z" fill="#0A00D8"/>
<path d="M61.5347 56.1075C62.3096 55.3109 63.6664 55.6445 63.9735 56.7073L65.134 60.7222C65.2765 61.2154 65.1416 61.7463 64.7803 62.1144L58.3594 68.6544C57.8268 69.197 57.812 70.0552 58.3256 70.6154L64.8448 77.7257C65.1695 78.0799 65.2943 78.5707 65.1776 79.0346L64.2093 82.8809C63.9329 83.9786 62.5396 84.3421 61.7515 83.522L49.3458 70.6125C48.8118 70.0569 48.8144 69.1841 49.3518 68.6317L61.5347 56.1075Z" fill="#0A00D8"/>
<path fill-rule="evenodd" clip-rule="evenodd" d="M83.2466 53.7561L72.2916 97.1091C72.1262 97.7636 71.6983 98.3267 71.1023 98.6669L69.3578 99.6627C68.1392 100.358 66.5855 99.9417 65.8879 98.747L64.9858 97.2022C64.6603 96.6448 64.5659 95.9857 64.721 95.3622L75.5593 51.8021C75.7229 51.1448 76.1509 50.5788 76.7484 50.2369L78.4887 49.241C79.7074 48.5436 81.2627 48.9598 81.9609 50.1554L82.984 51.9073C83.311 52.4674 83.4047 53.1301 83.2466 53.7561ZM81.6817 73.0456L82.8421 69.0306C83.376 67.1836 85.7509 66.5869 87.1123 67.9864L99.2952 80.5106C100.231 81.4725 100.235 82.9884 99.3058 83.9558L86.9001 96.8652C85.5151 98.3065 83.0769 97.6561 82.5969 95.7493L81.6286 91.903C81.426 91.0983 81.6418 90.2452 82.208 89.6277L88.7272 82.5174C88.8605 82.372 88.8563 82.1462 88.7186 82.0059L82.2977 75.4659C81.6675 74.824 81.4344 73.9012 81.6817 73.0456ZM65.0187 56.4171L66.1791 60.4321C66.4264 61.2878 66.1933 62.2105 65.563 62.8525L59.1422 69.3925C59.0045 69.5328 59.0003 69.7586 59.1336 69.9039L65.6528 77.0142C66.219 77.6317 66.4348 78.4848 66.2322 79.2896L65.2639 83.1359C64.7839 85.0426 62.3457 85.693 60.9607 84.2518L48.555 71.3424C47.6253 70.3749 47.6299 68.8591 48.5656 67.8972L60.7485 55.373C62.1099 53.9734 64.4848 54.5701 65.0187 56.4171ZM82.0412 52.4361C82.2292 52.758 82.2833 53.1395 82.1922 53.5002L71.2372 96.8532C71.1419 97.2302 70.8959 97.5528 70.5556 97.7471L68.811 98.7429C68.1177 99.1387 67.231 98.9038 66.8307 98.2182L65.9286 96.6734C65.7415 96.3531 65.687 95.9736 65.7763 95.6144L76.6146 52.0543C76.7088 51.6757 76.9549 51.3514 77.2962 51.1562L79.0364 50.1603C79.7299 49.7634 80.6175 49.9981 81.0181 50.6842L82.0412 52.4361ZM86.3261 68.7209C85.5512 67.9243 84.1944 68.258 83.8872 69.3207L82.7268 73.3357C82.5843 73.8289 82.7191 74.3598 83.0805 74.7278L89.5013 81.2679C90.034 81.8104 90.0488 82.6687 89.5352 83.2289L83.016 90.3392C82.6912 90.6933 82.5665 91.1842 82.6832 91.648L83.6515 95.4943C83.9279 96.5921 85.3212 96.9555 86.1093 96.1354L98.515 83.226C99.049 82.6703 99.0464 81.7976 98.5089 81.2451L86.3261 68.7209ZM63.9735 56.7073C63.6664 55.6445 62.3096 55.3109 61.5347 56.1075L49.3518 68.6317C48.8144 69.1841 48.8118 70.0569 49.3458 70.6125L61.7515 83.522C62.5396 84.3421 63.9329 83.9786 64.2093 82.8809L65.1776 79.0346C65.2943 78.5707 65.1695 78.0799 64.8448 77.7257L58.3256 70.6154C57.812 70.0552 57.8268 69.197 58.3594 68.6544L64.7803 62.1144C65.1416 61.7463 65.2765 61.2154 65.134 60.7222L63.9735 56.7073Z" fill="#0A00D8"/>
</svg>
