<svg width="101" height="101" viewBox="0 0 101 101" fill="none" xmlns="http://www.w3.org/2000/svg">
<path fill-rule="evenodd" clip-rule="evenodd" d="M49.1769 48.3443C62.1718 48.3443 72.7063 37.6096 72.7063 24.3677C72.7063 11.1258 62.1718 0.391113 49.1769 0.391113C36.1819 0.391113 25.6475 11.1258 25.6475 24.3677C25.6475 37.6096 36.1819 48.3443 49.1769 48.3443ZM49.1769 36.6484C55.4022 36.6484 60.9416 31.4241 60.9416 24.3677C60.9416 17.3113 55.4022 12.087 49.1769 12.087C42.9516 12.087 37.4122 17.3113 37.4122 24.3677C37.4122 31.4241 42.9516 36.6484 49.1769 36.6484Z" fill="#0A00D8"/>
<path d="M12.7113 97.3702C12.7136 98.3506 12.716 99.357 12.716 100.391H0.951255C0.951254 99.4327 0.948625 98.4746 0.946004 97.5191C0.93103 92.0616 0.916296 86.6917 1.39286 81.8682C1.95917 76.1364 3.26682 70.45 6.5814 65.5459C13.4503 55.383 26.905 51.2683 49.1676 51.2683C69.1958 51.2683 84.4702 57.1163 89.457 64.5427C84.1761 65.3034 79.0918 68.1592 77.3929 68.7415C72.9063 64.6644 60.1864 62.9642 49.1676 62.9642C27.3325 62.9642 19.6202 67.2253 16.3465 72.0689C14.5898 74.668 13.5823 78.1427 13.1012 83.0115C12.6877 87.1972 12.6986 91.8762 12.7113 97.3702Z" fill="#0A00D8"/>
<path fill-rule="evenodd" clip-rule="evenodd" d="M44.8801 79.3769C43.9896 80.5072 43.3714 82.2362 43.3714 84.2172C43.3714 86.1983 43.9896 87.9273 44.8801 89.0576C45.7022 90.1011 46.7473 90.6647 48.1141 90.6647C48.1141 90.6647 48.1396 90.6646 48.1942 90.6589C48.2486 90.6531 48.3246 90.6425 48.4238 90.6236C48.6259 90.5851 48.891 90.5186 49.223 90.4123C49.8953 90.1969 50.7147 89.8594 51.6621 89.3991C53.5605 88.4769 55.6881 87.2021 57.7367 85.8604C58.7282 85.211 59.6806 84.5596 60.5545 83.9453C58.9488 82.6542 57.3556 81.4894 55.7809 80.5189C52.7428 78.6465 50.2035 77.7698 48.1141 77.7698C46.7473 77.7698 45.7022 78.3334 44.8801 79.3769ZM75.8256 84.2172C76.5754 84.7674 77.3814 85.3432 78.2181 85.9172C80.1653 87.253 82.1875 88.5166 84.0001 89.4278C84.904 89.8822 85.6842 90.2125 86.3235 90.4219C86.6387 90.5252 86.8896 90.5891 87.0797 90.6258C87.1731 90.6438 87.2444 90.6539 87.295 90.6592C87.3459 90.6646 87.3692 90.6647 87.3692 90.6647C88.4255 90.6647 89.285 90.2056 90.071 89.0436C90.9352 87.7659 91.4513 85.923 91.4513 84.2172C91.4513 82.5115 90.9352 80.6686 90.071 79.3908C89.285 78.2289 88.4255 77.7698 87.3692 77.7698C87.3692 77.7698 87.3459 77.7699 87.295 77.7753C87.2444 77.7806 87.1731 77.7906 87.0797 77.8087C86.8896 77.8454 86.6387 77.9093 86.3235 78.0126C85.6842 78.222 84.904 78.5523 84.0001 79.0067C82.1875 79.9179 80.1653 81.1815 78.2181 82.5173C77.3814 83.0913 76.5754 83.6671 75.8256 84.2172ZM68.0516 90.2001C66.662 91.2171 64.887 92.4746 62.9572 93.7385C60.744 95.1879 58.239 96.7042 55.8283 97.8753C53.6071 98.9543 50.7675 100.099 48.1141 100.099C38.5445 100.099 33.882 91.4622 33.882 84.2172C33.882 76.9723 38.5445 68.3359 48.1141 68.3359C52.7346 68.3359 57.0604 70.2078 60.7809 72.5007C63.388 74.1075 65.9116 76.0566 68.2782 78.0605C69.5506 77.0863 71.1233 75.9225 72.8283 74.7528C74.9494 73.2976 77.3664 71.77 79.7179 70.5879C81.8891 69.4964 84.6911 68.3359 87.3692 68.3359C92.248 68.3359 95.8019 70.9573 97.9456 74.1266C100.011 77.1801 100.941 80.9195 100.941 84.2172C100.941 87.515 100.011 91.2544 97.9456 94.3079C95.8019 97.4772 92.248 100.099 87.3692 100.099C84.6911 100.099 81.8891 98.9381 79.7179 97.8466C77.3664 96.6645 74.9494 95.1369 72.8283 93.6817C71.0206 92.4416 69.3616 91.208 68.0516 90.2001Z" fill="#0A00D8"/>
</svg>
