<svg width="101" height="101" viewBox="0 0 101 101" fill="none" xmlns="http://www.w3.org/2000/svg">
<path d="M44.6264 51.3862C25.254 52.1236 13.1869 56.3689 6.71933 65.5459C3.26309 70.45 1.89954 76.1364 1.30903 81.8682C0.8121 86.6917 0.827463 92.0616 0.843077 97.5191C0.84581 98.4746 0.848551 99.4327 0.848552 100.391H13.1161C13.1161 99.357 13.1136 98.3506 13.1112 97.3702C13.0979 91.8762 13.0866 87.1972 13.5178 83.0115C14.0194 78.1427 15.07 74.668 16.9017 72.0689C19.8794 67.8439 26.3786 64.0621 43.1015 63.1651L43.1021 56.6981L43.1057 56.5967C43.15 55.3457 43.4389 53.3954 44.6264 51.3862Z" fill="#0A00D8"/>
<path fill-rule="evenodd" clip-rule="evenodd" d="M54.0335 51.8531L54.0219 51.8531C53.7191 51.8526 51.4913 51.8488 49.9968 53.9776C49.2535 55.0362 49.0786 56.1183 49.0545 56.8002L49.0529 73.4302C49.0529 75.0604 49.8029 76.594 51.0733 77.564L75.5964 100.391L98.9217 77.4823C100.131 76.5075 100.838 75.0133 100.838 73.4304V56.9973C100.838 55.9938 100.543 54.7573 99.662 53.6801C98.7117 52.5187 97.3151 51.8531 95.8483 51.8531H54.0335ZM90.879 62.118H59.0115V70.8506L75.4323 87.4922L90.879 70.9344V62.118Z" fill="#0A00D8"/>
<path fill-rule="evenodd" clip-rule="evenodd" d="M75.6703 24.3677C75.6703 37.6096 64.6856 48.3443 51.1353 48.3443C37.5849 48.3443 26.6002 37.6096 26.6002 24.3677C26.6002 11.1258 37.5849 0.391113 51.1353 0.391113C64.6856 0.391113 75.6703 11.1258 75.6703 24.3677ZM63.4028 24.3677C63.4028 31.4241 57.6266 36.6484 51.1353 36.6484C44.6439 36.6484 38.8677 31.4241 38.8677 24.3677C38.8677 17.3113 44.6439 12.087 51.1353 12.087C57.6266 12.087 63.4028 17.3113 63.4028 24.3677Z" fill="#0A00D8"/>
</svg>
