<svg width="100" height="83" viewBox="0 0 100 83" fill="none" xmlns="http://www.w3.org/2000/svg">
<path d="M0.582457 50.6538C0.282596 51.5734 0.906531 52.5354 1.86845 52.6367L13.196 53.8291C13.9187 53.9051 14.5942 53.459 14.8079 52.7644L25.2183 18.9305C25.6519 17.5213 27.6364 17.4927 28.1104 18.8888L39.2509 51.7026C45.5932 52.9264 51.8262 54.1538 56.4782 55.0763L36.4672 0.992544C36.2465 0.396021 35.6777 0 35.0417 0H18.2031C17.5452 0 16.962 0.423271 16.758 1.04877L0.582457 50.6538Z" fill="#0A00D8"/>
<path d="M56.4782 55.0763C51.8262 54.1538 45.5932 52.9264 39.2509 51.7026L41.4453 58.1663C48.0539 59.3427 54.46 60.5148 58.7856 61.3124L56.4782 55.0763Z" fill="#0A00D8"/>
<path d="M63.4624 73.9526L58.7856 61.3124C54.46 60.5148 48.0539 59.3427 41.4453 58.1663L47.1499 74.9687C47.3592 75.5852 47.938 76 48.5892 76H62.0369C63.0953 76 63.8297 74.9452 63.4624 73.9526Z" fill="#0A00D8"/>
<path d="M100 82.6098C100 82.6098 72.4617 50.7233 1.03782 47.0512C0.481641 47.0226 0 47.4659 0 48.0228V54.3567C0 54.8798 0.418218 55.3098 0.940737 55.3338C57.5442 57.9362 100 82.6098 100 82.6098Z" fill="#0A00D8"/>
</svg>
