<svg width="101" height="89" viewBox="0 0 101 89" fill="none" xmlns="http://www.w3.org/2000/svg">
<mask id="path-1-inside-1_216_784" fill="white">
<path fill-rule="evenodd" clip-rule="evenodd" d="M50.5592 51.6761C51.0229 51.2214 51.7678 51.2284 52.2229 51.6918L63.9646 63.6478C64.4196 64.1112 64.4126 64.8554 63.9488 65.3101L61.4296 67.7799C60.9659 68.2346 60.221 68.2276 59.7659 67.7642L48.0242 55.8082C47.5692 55.3448 47.5762 54.6006 48.04 54.1459L50.5592 51.6761Z"/>
<path fill-rule="evenodd" clip-rule="evenodd" d="M63.1551 39.3269C63.6189 38.8722 64.3637 38.8792 64.8188 39.3426L76.5605 51.2986C77.0156 51.762 77.0085 52.5062 76.5447 52.9609L74.0256 55.4308C73.5618 55.8855 72.8169 55.8784 72.3619 55.415L60.6202 43.459C60.1651 42.9956 60.1722 42.2514 60.6359 41.7967L63.1551 39.3269Z"/>
<path d="M12.6552 11.0576C11.6759 10.0775 11.5124 8.58861 12.1706 7.43865C8.24342 12.6469 3.83264 20.1824 2.52489 24.5243C-0.392201 34.2094 -0.298414 44.5511 2.79385 54.1817C5.88611 63.8124 11.8312 72.2785 19.8429 78.4604C27.8547 84.6424 37.5557 88.249 47.6632 88.8034C57.7707 89.3577 67.8085 86.8338 76.4494 81.5652C85.0902 76.2966 91.9271 68.5316 96.0558 59.297C100.185 50.0623 101.411 39.7931 99.5722 29.8472C97.9164 20.8899 93.8451 12.5749 87.8236 5.78626C86.7203 4.54236 84.8056 4.54811 83.6293 5.72339L79.3146 10.0344C78.1384 11.2097 78.1487 13.1079 79.2278 14.3729C83.526 19.4111 86.4381 25.5031 87.6479 32.0477C89.0406 39.5815 88.1118 47.3603 84.9843 54.3554C81.8569 61.3504 76.6781 67.2323 70.1329 71.2231C63.5876 75.214 55.9841 77.1259 48.3278 76.7059C40.6716 76.286 33.3233 73.554 27.2545 68.8713C21.1858 64.1886 16.6825 57.7757 14.3401 50.4807C11.9978 43.1856 11.9268 35.352 14.1364 28.0157C15.2645 24.2704 16.9598 20.7448 19.1453 17.5531L12.6552 11.0576Z"/>
<path d="M30.9834 25.0748L35.7723 20.1459C36.9182 18.9665 36.905 17.0867 35.7428 15.9234L21.5345 1.70329C20.4223 0.590141 18.6312 0.549709 17.4957 1.63918C15.5799 3.47729 12.9075 6.15119 12.1706 7.43865C11.5124 8.58861 11.6759 10.0775 12.6552 11.0576L19.1453 17.5531L26.6906 25.1048C27.8789 26.2941 29.8118 26.2806 30.9834 25.0748Z"/>
<path fill-rule="evenodd" clip-rule="evenodd" d="M37.3083 26.0866C33.3431 29.9741 30.6066 33.883 29.2338 37.9447C27.8138 42.1461 27.9872 46.122 29.211 49.7476C30.3829 53.2196 32.4501 56.1764 34.5232 58.6473C36.2434 60.6975 38.2202 62.6967 39.9861 64.4826C40.327 64.8273 40.66 65.1641 40.9818 65.4918L45.201 69.788L81.1044 34.5878L76.8853 30.2916C76.6171 30.0186 76.3387 29.7327 76.0502 29.4364C72.5571 25.8493 67.5847 20.7431 61.4635 18.5747C57.855 17.2965 53.8362 16.9914 49.5431 18.2739C45.3624 19.5228 41.3161 22.1573 37.3083 26.0866ZM45.3815 52.7456L64.0156 34.4766C61.6838 32.2859 59.6115 30.6909 57.4375 29.9207C56.0308 29.4225 54.6354 29.3172 52.9945 29.8074C51.2412 30.3312 48.8336 31.6525 45.7466 34.679C42.6171 37.7472 41.2207 40.1038 40.6487 41.7962C40.1239 43.3489 40.1937 44.6159 40.6274 45.9007C41.1129 47.3391 42.1173 48.9603 43.7563 50.9138C44.2714 51.5276 44.8129 52.1337 45.3815 52.7456Z"/>
</mask>
<path d="M12.6552 11.0576L16.8128 6.9034L16.8128 6.9034L12.6552 11.0576ZM16.8128 6.9034C17.7514 7.84271 17.899 9.26198 17.2715 10.3583L7.06969 4.51897C5.1257 7.91523 5.60035 12.3122 8.49751 15.2118L16.8128 6.9034ZM23.3029 13.3989L16.8128 6.9034L8.4975 15.2118L14.9876 21.7073L23.3029 13.3989ZM48.04 54.1459L56.2692 62.5396L56.2692 62.5396L48.04 54.1459ZM48.0242 55.8082L56.4109 47.5718L56.4109 47.5718L48.0242 55.8082ZM61.4296 67.7799L53.2004 59.3863L53.2004 59.3863L61.4296 67.7799ZM59.7659 67.7642L51.3792 76.0006L51.3792 76.0006L59.7659 67.7642ZM63.9488 65.3101L72.1781 73.7038L72.1781 73.7038L63.9488 65.3101ZM63.9646 63.6478L72.3513 55.4114L72.3513 55.4114L63.9646 63.6478ZM50.5592 51.6761L42.3299 43.2824L42.3299 43.2824L50.5592 51.6761ZM52.2229 51.6918L43.8362 59.9282L43.8362 59.9282L52.2229 51.6918ZM60.6359 41.7967L52.4067 33.4031L52.4067 33.4031L60.6359 41.7967ZM60.6202 43.459L69.0069 35.2227L69.0069 35.2227L60.6202 43.459ZM74.0256 55.4308L82.2548 63.8244L82.2548 63.8244L74.0256 55.4308ZM72.3619 55.415L63.9752 63.6514L63.9752 63.6514L72.3619 55.415ZM76.5447 52.9609L68.3155 44.5673L68.3155 44.5673L76.5447 52.9609ZM76.5605 51.2986L84.9472 43.0623L84.9472 43.0623L76.5605 51.2986ZM63.1551 39.3269L71.3844 47.7205L71.3844 47.7205L63.1551 39.3269ZM64.8188 39.3426L56.4321 47.579L56.4321 47.579L64.8188 39.3426ZM12.1706 7.43865L21.5562 14.5157L22.0034 13.9226L22.3723 13.278L12.1706 7.43865ZM2.52489 24.5243L-8.73042 21.1343L2.52489 24.5243ZM19.8429 78.4604L12.662 87.7668L12.662 87.7668L19.8429 78.4604ZM99.5722 29.8472L111.131 27.7104L111.131 27.7104L99.5722 29.8472ZM87.8236 5.78626L79.0298 13.5864L79.0298 13.5864L87.8236 5.78626ZM83.6293 5.72339L91.9376 14.0388L91.9376 14.0388L83.6293 5.72339ZM79.3146 10.0344L71.0063 1.719L71.0063 1.71901L79.3146 10.0344ZM79.2278 14.3729L88.1705 6.7438L88.1705 6.74379L79.2278 14.3729ZM87.6479 32.0477L76.089 34.1844L76.089 34.1844L87.6479 32.0477ZM14.1364 28.0157L2.8811 24.6257L2.8811 24.6257L14.1364 28.0157ZM19.1453 17.5531L27.4606 9.24473L17.449 -0.775258L9.44636 10.9119L19.1453 17.5531ZM30.9834 25.0748L39.4141 33.2661L39.4141 33.2661L30.9834 25.0748ZM35.7723 20.1459L44.203 28.3372L44.203 28.3372L35.7723 20.1459ZM35.7428 15.9234L27.4274 24.2318L27.4274 24.2318L35.7428 15.9234ZM21.5345 1.70329L29.8499 -6.6051L29.8499 -6.6051L21.5345 1.70329ZM17.4957 1.63918L9.35742 -6.84275L9.35742 -6.84274L17.4957 1.63918ZM26.6906 25.1048L18.3753 33.4131L18.3753 33.4132L26.6906 25.1048ZM37.3083 26.0866L45.5376 34.4803L45.5376 34.4803L37.3083 26.0866ZM29.2338 37.9447L18.0979 34.1809L18.0979 34.1809L29.2338 37.9447ZM29.211 49.7476L40.3484 45.9884L40.3484 45.9883L29.211 49.7476ZM34.5232 58.6473L25.5181 66.2026L25.5181 66.2026L34.5232 58.6473ZM39.9861 64.4826L31.6276 72.7476L31.6276 72.7476L39.9861 64.4826ZM40.9818 65.4918L32.5951 73.7282L32.5952 73.7282L40.9818 65.4918ZM45.201 69.788L36.8143 78.0244L45.0437 86.404L53.4303 78.1817L45.201 69.788ZM81.1044 34.5878L89.3337 42.9815L97.7345 34.7452L89.4911 26.3514L81.1044 34.5878ZM76.8853 30.2916L68.4986 38.5279L68.4986 38.528L76.8853 30.2916ZM76.0502 29.4364L67.6287 37.6372L67.6287 37.6372L76.0502 29.4364ZM61.4635 18.5747L65.3884 7.49462L65.3884 7.49461L61.4635 18.5747ZM49.5431 18.2739L52.9078 29.5368L52.9078 29.5368L49.5431 18.2739ZM45.3815 52.7456L36.7709 60.7476L44.9897 69.5915L53.6108 61.1393L45.3815 52.7456ZM64.0156 34.4766L72.2448 42.8702L80.9906 34.2957L72.0641 25.9095L64.0156 34.4766ZM57.4375 29.9207L61.3625 18.8406L61.3625 18.8406L57.4375 29.9207ZM52.9945 29.8074L56.3591 41.0703L56.3592 41.0703L52.9945 29.8074ZM45.7466 34.679L53.9759 43.0726L45.7466 34.679ZM40.6487 41.7962L51.7846 45.56L51.7846 45.56L40.6487 41.7962ZM40.6274 45.9007L29.49 49.66L29.49 49.66L40.6274 45.9007ZM43.7563 50.9138L34.7512 58.4691L34.7512 58.4691L43.7563 50.9138ZM69.6589 76.1736L72.1781 73.7038L55.7196 56.9164L53.2004 59.3863L69.6589 76.1736ZM42.3299 43.2824L39.8107 45.7523L56.2692 62.5396L58.7884 60.0697L42.3299 43.2824ZM72.3513 55.4114L60.6096 43.4554L43.8362 59.9282L55.5779 71.8842L72.3513 55.4114ZM39.6375 64.0446L51.3792 76.0006L68.1526 59.5279L56.4109 47.5718L39.6375 64.0446ZM39.8107 45.7522C34.7086 50.7545 34.6308 58.9465 39.6375 64.0446L56.4109 47.5718C60.5075 51.7432 60.4438 58.4467 56.2692 62.5396L39.8107 45.7522ZM53.2004 59.3863C57.3694 55.299 64.0614 55.362 68.1526 59.5279L51.3792 76.0006C56.3805 81.0932 64.5624 81.1703 69.6589 76.1736L53.2004 59.3863ZM72.1781 73.7038C77.2802 68.7016 77.358 60.5095 72.3513 55.4114L55.5779 71.8842C51.4813 67.7128 51.5449 61.0093 55.7196 56.9164L72.1781 73.7038ZM58.7884 60.0697C54.6194 64.1571 47.9273 64.094 43.8362 59.9282L60.6096 43.4554C55.6083 38.3629 47.4265 38.2856 42.3299 43.2824L58.7884 60.0697ZM82.2548 63.8244L84.774 61.3546L68.3155 44.5673L65.7963 47.0371L82.2548 63.8244ZM54.9259 30.9332L52.4067 33.4031L68.8652 50.1904L71.3844 47.7205L54.9259 30.9332ZM84.9472 43.0623L73.2055 31.1063L56.4321 47.579L68.1738 59.535L84.9472 43.0623ZM52.2335 51.6954L63.9752 63.6514L80.7486 47.1787L69.0069 35.2227L52.2335 51.6954ZM52.4067 33.4031C47.3045 38.4053 47.2268 46.5973 52.2335 51.6954L69.0069 35.2227C73.1034 39.394 73.0398 46.0976 68.8652 50.1904L52.4067 33.4031ZM65.7963 47.0371C69.9653 42.9498 76.6574 43.0128 80.7486 47.1787L63.9752 63.6514C68.9765 68.744 77.1583 68.8211 82.2548 63.8244L65.7963 47.0371ZM84.774 61.3546C89.8761 56.3524 89.954 48.1604 84.9472 43.0623L68.1738 59.535C64.0772 55.3636 64.1409 48.66 68.3155 44.5673L84.774 61.3546ZM71.3844 47.7205C67.2153 51.8079 60.5232 51.7448 56.4321 47.579L73.2055 31.1063C68.2043 26.0137 60.0224 25.9365 54.9259 30.9332L71.3844 47.7205ZM2.78496 0.361616C-1.43906 5.96354 -6.82663 14.8135 -8.73042 21.1343L13.7802 27.9144C14.4919 25.5514 17.9259 19.3302 21.5562 14.5157L2.78496 0.361616ZM-8.73042 21.1343C-12.3344 33.0999 -12.2185 45.877 -8.39814 57.7753L13.9858 50.5882C11.6217 43.2252 11.55 35.3189 13.7802 27.9144L-8.73042 21.1343ZM-8.39814 57.7753C-4.57779 69.6736 2.76657 80.1314 12.662 87.7668L27.0238 69.154C20.8958 64.4256 16.35 57.9513 13.9858 50.5882L-8.39814 57.7753ZM12.662 87.7668C22.5574 95.4022 34.538 99.8559 47.0194 100.54L48.307 77.0663C40.5735 76.6421 33.152 73.8826 27.0238 69.154L12.662 87.7668ZM47.0194 100.54C59.5009 101.225 71.897 98.1084 82.5688 91.6015L70.33 71.5289C63.7201 75.5592 56.0405 77.4904 48.307 77.0663L47.0194 100.54ZM82.5688 91.6015C93.2407 85.0945 101.686 75.5032 106.787 64.0947L85.3247 54.4992C82.1679 61.5599 76.9398 67.4987 70.33 71.5289L82.5688 91.6015ZM106.787 64.0947C111.888 52.6861 113.403 39.9986 111.131 27.7104L88.0132 31.9839C89.4188 39.5875 88.4815 47.4385 85.3247 54.4992L106.787 64.0947ZM111.131 27.7104C109.085 16.6437 104.056 6.37174 96.6175 -2.01388L79.0298 13.5864C83.6347 18.778 86.7474 25.136 88.0132 31.9839L111.131 27.7104ZM96.6175 -2.01388C90.7124 -8.67131 80.9447 -8.21103 75.3209 -2.59198L91.9376 14.0388C88.6664 17.3072 82.7282 17.756 79.0298 13.5864L96.6175 -2.01388ZM75.3209 -2.59199L71.0063 1.719L87.623 18.3498L91.9376 14.0388L75.3209 -2.59199ZM71.0063 1.71901C65.082 7.63829 65.6118 16.5238 70.2851 22.0019L88.1705 6.74379C90.6857 9.69201 91.1947 14.781 87.623 18.3497L71.0063 1.71901ZM70.2851 22.0019C73.2484 25.4754 75.2553 29.6745 76.089 34.1844L99.2069 29.911C97.6209 21.3317 93.8036 13.3468 88.1705 6.7438L70.2851 22.0019ZM76.089 34.1844C77.0487 39.376 76.4088 44.7365 74.2533 49.5576L95.7154 59.1531C99.8148 49.9841 101.033 39.7871 99.2069 29.911L76.089 34.1844ZM74.2533 49.5576C72.0978 54.3788 68.5277 58.4344 64.0134 61.1868L76.2523 81.2594C84.8286 76.0302 91.616 68.3221 95.7154 59.1531L74.2533 49.5576ZM64.0134 61.1868C59.4991 63.9394 54.2539 65.2585 48.9716 64.9688L47.6841 88.443C57.7143 88.9932 67.6761 86.4886 76.2523 81.2594L64.0134 61.1868ZM48.9716 64.9688C43.6894 64.6791 38.6206 62.7943 34.4354 59.5649L20.0736 78.1777C28.0259 84.3138 37.6539 87.8929 47.6841 88.443L48.9716 64.9688ZM34.4354 59.5649C30.2504 56.3357 27.1464 51.9146 25.5321 46.8871L3.14815 54.0742C6.21857 63.6369 12.1211 72.0415 20.0736 78.1777L34.4354 59.5649ZM25.5321 46.8871C23.9179 41.8597 23.869 36.4615 25.3917 31.4058L2.8811 24.6257C-0.0154342 34.2425 0.0777039 44.5115 3.14815 54.0742L25.5321 46.8871ZM25.3917 31.4058C26.1691 28.8246 27.3375 26.3947 28.8442 24.1943L9.44636 10.9119C6.5821 15.095 4.35979 19.7163 2.8811 24.6257L25.3917 31.4058ZM39.4141 33.2661L44.203 28.3372L27.3416 11.9546L22.5527 16.8834L39.4141 33.2661ZM44.203 28.3372C49.8256 22.5503 49.7609 13.3226 44.0581 7.61502L27.4274 24.2318C24.0492 20.8508 24.0108 15.3828 27.3416 11.9546L44.203 28.3372ZM44.0581 7.61502L29.8499 -6.6051L13.2192 10.0117L27.4274 24.2318L44.0581 7.61502ZM29.8499 -6.6051C24.3296 -12.13 15.2269 -12.4744 9.35742 -6.84275L25.6339 10.1211C22.0354 13.5738 16.515 13.3103 13.2192 10.0117L29.8499 -6.6051ZM9.35742 -6.84274C8.33772 -5.86436 7.03364 -4.58482 5.84266 -3.32297C4.97184 -2.40035 3.13823 -0.443765 1.96881 1.59928L22.3723 13.278C22.1647 13.6408 22.0073 13.8523 21.9949 13.8692C21.9667 13.9074 21.985 13.8801 22.0705 13.7776C22.2463 13.5669 22.5333 13.2441 22.9395 12.8138C23.7479 11.9573 24.7379 10.9808 25.6339 10.1211L9.35742 -6.84274ZM10.8299 25.8615L18.3753 33.4131L35.0059 16.7964L27.4606 9.24473L10.8299 25.8615ZM18.3753 33.4132C24.2003 39.243 33.671 39.177 39.4141 33.2661L22.5527 16.8834C25.9526 13.3842 31.5576 13.3451 35.0059 16.7964L18.3753 33.4132ZM29.0791 17.6929C24.2991 22.3793 20.2533 27.804 18.0979 34.1809L40.3697 41.7085C40.96 39.962 42.3872 37.5689 45.5376 34.4803L29.0791 17.6929ZM18.0979 34.1809C15.8024 40.9726 16.0784 47.596 18.0735 53.5069L40.3484 45.9883C39.896 44.648 39.8252 43.3197 40.3697 41.7085L18.0979 34.1809ZM18.0735 53.5069C19.9154 58.9638 23.0194 63.2244 25.5181 66.2026L43.5283 51.092C41.8809 49.1284 40.8503 47.4755 40.3484 45.9884L18.0735 53.5069ZM25.5181 66.2026C27.5996 68.6835 29.9216 71.0222 31.6276 72.7476L48.3446 56.2176C46.5188 54.3711 44.8872 52.7116 43.5283 51.092L25.5181 66.2026ZM31.6276 72.7476C31.9713 73.0952 32.2899 73.4174 32.5951 73.7282L49.3686 57.2555C49.0302 56.9109 48.6827 56.5595 48.3446 56.2176L31.6276 72.7476ZM32.5952 73.7282L36.8143 78.0244L53.5877 61.5516L49.3685 57.2555L32.5952 73.7282ZM53.4303 78.1817L89.3337 42.9815L72.8752 26.1941L36.9718 61.3943L53.4303 78.1817ZM89.4911 26.3514L85.272 22.0553L68.4986 38.528L72.7177 42.8242L89.4911 26.3514ZM85.272 22.0553C85.0244 21.8031 84.7636 21.5354 84.4716 21.2356L67.6287 37.6372C67.9138 37.9299 68.2099 38.234 68.4986 38.5279L85.272 22.0553ZM84.4717 21.2356C81.3284 18.0078 74.5213 10.7298 65.3884 7.49462L57.5385 29.6548C58.8699 30.1265 60.4574 31.0679 62.3086 32.5792C64.161 34.0915 65.8389 35.7992 67.6287 37.6372L84.4717 21.2356ZM65.3884 7.49461C59.6357 5.45678 53.0595 4.95535 46.1785 7.01099L52.9078 29.5368C54.613 29.0274 56.0743 29.1362 57.5385 29.6548L65.3884 7.49461ZM46.1785 7.01099C39.6298 8.96731 33.9848 12.8833 29.0791 17.6929L45.5376 34.4803C48.6474 31.4314 51.095 30.0784 52.9078 29.5368L46.1785 7.01099ZM53.6108 61.1393L72.2448 42.8702L55.7863 26.0829L37.1523 44.352L53.6108 61.1393ZM72.0641 25.9095C69.5113 23.5112 65.9577 20.4684 61.3625 18.8406L53.5125 41.0008C53.3044 40.9271 53.3963 40.9192 53.8555 41.2458C54.3302 41.5833 54.9979 42.1332 55.967 43.0437L72.0641 25.9095ZM61.3625 18.8406C57.8023 17.5795 53.85 17.2838 49.6298 18.5445L56.3592 41.0703C56.047 41.1636 55.5211 41.2645 54.864 41.2399C54.2176 41.2157 53.7387 41.081 53.5125 41.0008L61.3625 18.8406ZM49.6298 18.5445C45.5112 19.7749 41.505 22.3758 37.5174 26.2853L53.9759 43.0726C56.1621 40.9292 56.9711 40.8875 56.3591 41.0703L49.6298 18.5445ZM37.5174 26.2853C33.5715 30.1539 30.8668 34.0263 29.5128 38.0324L51.7846 45.56C51.5746 46.1812 51.6628 45.3404 53.9759 43.0726L37.5174 26.2853ZM29.5128 38.0324C28.1152 42.1677 28.2822 46.0817 29.49 49.66L51.7648 42.1414C51.8713 42.4569 52.0258 43.0593 52.0329 43.8428C52.04 44.6302 51.895 45.2335 51.7846 45.56L29.5128 38.0324ZM29.49 49.66C30.6472 53.0884 32.6923 56.0151 34.7512 58.4691L52.7614 43.3584C52.1977 42.6865 51.8891 42.2438 51.7361 41.9982C51.5834 41.753 51.654 41.8132 51.7648 42.1414L29.49 49.66ZM34.7512 58.4691C35.4237 59.2705 36.1027 60.0285 36.7709 60.7476L53.9921 44.7436C53.5231 44.239 53.119 43.7847 52.7614 43.3584L34.7512 58.4691Z" fill="#0A00D8" mask="url(#path-1-inside-1_216_784)"/>
</svg>
