<svg width="101" height="91" viewBox="0 0 101 91" fill="none" xmlns="http://www.w3.org/2000/svg">
<path fill-rule="evenodd" clip-rule="evenodd" d="M97.9994 35.9475C100.241 35.9136 101.409 38.1367 99.9322 39.7334C96.4701 43.4757 90.1464 48.6541 82.0356 48.0635C73.6513 93.979 41.8071 90.2415 38.0416 89.7995C38.0102 89.7959 37.9807 89.7924 37.9533 89.7892C12.0331 86.7727 3.754 69.0392 0.807855 57.2356C-0.499553 51.9975 4.27628 47.02 9.96257 47.02H68.4576C73.0024 47.02 74.3275 45.8917 75.3251 45.0424C75.651 44.7649 75.942 44.5171 76.2989 44.3482C73.173 38.7789 74.0783 32.2557 75.2642 28.0058C75.8478 25.9143 78.5079 25.6252 79.6727 27.4864C81.4877 30.3867 83.6189 34.422 84.1491 38.0608C88.6452 36.4241 94.1318 36.006 97.9994 35.9475ZM18.9315 54.351C16.4302 54.351 14.4025 56.2703 14.4025 58.6378C14.4025 61.0054 16.4302 62.9247 18.9315 62.9247C21.4328 62.9247 23.4605 61.0054 23.4605 58.6378C23.4605 56.2703 21.4328 54.351 18.9315 54.351Z" fill="#0A00D8"/>
<path fill-rule="evenodd" clip-rule="evenodd" d="M30.7068 20.0561H37.3493C41.3514 20.0561 44.5957 16.9852 44.5957 13.1971V6.90965C44.5957 3.12153 41.3514 0.0506592 37.3493 0.0506592H30.7068C26.7047 0.0506592 23.4604 3.12154 23.4604 6.90965V13.1971C23.4604 16.9852 26.7047 20.0561 30.7068 20.0561ZM30.7068 14.3402H37.3493C38.0163 14.3402 38.5571 13.8284 38.5571 13.1971V6.90965C38.5571 6.2783 38.0163 5.76649 37.3493 5.76649H30.7068C30.0398 5.76649 29.4991 6.2783 29.4991 6.90965V13.1971C29.4991 13.8284 30.0398 14.3402 30.7068 14.3402Z" fill="#0A00D8"/>
<path fill-rule="evenodd" clip-rule="evenodd" d="M43.9919 43.4909H50.6344C54.6365 43.4909 57.8808 40.4201 57.8808 36.632V30.3445C57.8808 26.5564 54.6365 23.4856 50.6344 23.4856H43.9919C39.9898 23.4856 36.7455 26.5564 36.7455 30.3445V36.632C36.7455 40.4201 39.9898 43.4909 43.9919 43.4909ZM43.9919 37.7751H50.6344C51.3014 37.7751 51.8421 37.2633 51.8421 36.632V30.3445C51.8421 29.7132 51.3014 29.2014 50.6344 29.2014H43.9919C43.3249 29.2014 42.7841 29.7132 42.7841 30.3445V36.632C42.7841 37.2633 43.3249 37.7751 43.9919 37.7751Z" fill="#0A00D8"/>
<path fill-rule="evenodd" clip-rule="evenodd" d="M25.8759 43.4909H19.2333C15.2312 43.4909 11.9869 40.4201 11.9869 36.632V30.3445C11.9869 26.5564 15.2312 23.4856 19.2333 23.4856H25.8759C29.8779 23.4856 33.1223 26.5564 33.1223 30.3445V36.632C33.1223 40.4201 29.8779 43.4909 25.8759 43.4909ZM25.8759 37.7751H19.2333C18.5663 37.7751 18.0256 37.2633 18.0256 36.632V30.3445C18.0256 29.7132 18.5663 29.2014 19.2333 29.2014H25.8759C26.5429 29.2014 27.0836 29.7132 27.0836 30.3445V36.632C27.0836 37.2633 26.5429 37.7751 25.8759 37.7751Z" fill="#0A00D8"/>
</svg>
