<svg width="101" height="101" viewBox="0 0 101 101" fill="none" xmlns="http://www.w3.org/2000/svg">
<path fill-rule="evenodd" clip-rule="evenodd" d="M30.282 3.20407C30.282 1.58108 31.5976 0.265381 33.2206 0.265381H68.7511C70.3741 0.265381 71.6898 1.58107 71.6898 3.20407V9.50668C71.6898 11.1297 70.3741 12.4454 68.7511 12.4454H59.9826C58.3596 12.4454 57.0439 13.7611 57.0439 15.3841V33.4126C57.0439 35.0356 58.3596 36.3513 59.9826 36.3513H84.6893C86.3123 36.3513 87.628 37.667 87.628 39.29V60.0935C87.628 61.7165 88.9437 63.0322 90.5667 63.0322H97.6103C99.2333 63.0322 100.549 64.3479 100.549 65.9709V97.3267C100.549 98.9497 99.2333 100.265 97.6103 100.265H67.0908C65.4678 100.265 64.1521 98.9497 64.1521 97.3267V65.9709C64.1521 64.3479 65.4678 63.0322 67.0908 63.0322H72.5732C74.1962 63.0322 75.5119 61.7165 75.5119 60.0935V51.47C75.5119 49.847 74.1962 48.5313 72.5732 48.5313H26.9636C25.3406 48.5313 24.0249 49.847 24.0249 51.47V60.0935C24.0249 61.7165 25.3406 63.0322 26.9636 63.0322H34.0071C35.6301 63.0322 36.9458 64.3479 36.9458 65.9709V97.3267C36.9458 98.9497 35.6301 100.265 34.0071 100.265H3.48764C1.86465 100.265 0.54895 98.9497 0.54895 97.3267V65.9709C0.54895 64.3479 1.86465 63.0322 3.48764 63.0322H8.97006C10.5931 63.0322 11.9088 61.7165 11.9088 60.0935V39.29C11.9088 37.667 13.2244 36.3513 14.8474 36.3513H41.9891C43.6121 36.3513 44.9278 35.0356 44.9278 33.4126V15.3841C44.9278 13.7611 43.6121 12.4454 41.9891 12.4454H33.2206C31.5976 12.4454 30.282 11.1297 30.282 9.50668V3.20407ZM15.6038 75.2122C13.9808 75.2122 12.6651 76.5279 12.6651 78.1509V85.1467C12.6651 86.7697 13.9808 88.0854 15.6038 88.0854H21.891C23.514 88.0854 24.8297 86.7697 24.8297 85.1467V78.1509C24.8297 76.5279 23.514 75.2122 21.891 75.2122H15.6038ZM79.2069 75.2122C77.5839 75.2122 76.2682 76.5279 76.2682 78.1509V85.1467C76.2682 86.7697 77.5839 88.0854 79.2069 88.0854H85.4941C87.1171 88.0854 88.4328 86.7697 88.4328 85.1467V78.1509C88.4328 76.5279 87.1171 75.2122 85.4941 75.2122H79.2069Z" fill="#0A00D8"/>
</svg>
