<svg width="101" height="101" viewBox="0 0 101 101" fill="none" xmlns="http://www.w3.org/2000/svg">
<path d="M74.5063 52.2157L66.0136 43.7169L56.8103 52.9267L56.9296 0.783932L44.919 0.783931L44.7997 52.9267L35.2007 43.3208L26.7079 51.8196L50.2105 76.5289L74.5063 52.2157Z" fill="#0A00D8"/>
<path fill-rule="evenodd" clip-rule="evenodd" d="M85.177 88.6564C86.8149 88.6564 88.1427 87.3286 88.1427 85.6907L88.1427 65.8511C88.1427 64.2132 89.4705 62.8854 91.1084 62.8854L97.2982 62.8854C98.9361 62.8854 100.264 64.2132 100.264 65.8511L100.264 91.6883C100.264 96.7117 96.1938 100.784 91.173 100.784L9.35482 100.784C4.33406 100.784 0.263916 96.7117 0.263917 91.6883L0.263919 65.8511C0.263919 64.2132 1.59169 62.8854 3.22959 62.8854L9.41944 62.8854C11.0573 62.8854 12.3851 64.2132 12.3851 65.8511L12.3851 85.6907C12.3851 87.3286 13.7129 88.6564 15.3508 88.6564L85.177 88.6564Z" fill="#0A00D8"/>
</svg>
