<svg width="98" height="98" viewBox="0 0 98 98" fill="none" xmlns="http://www.w3.org/2000/svg">
<path fill-rule="evenodd" clip-rule="evenodd" d="M20.2254 11.0397C20.8285 11.6963 21.1009 12.5912 20.9658 13.4725L16.4724 42.8041C16.3263 43.7579 16.6577 44.7226 17.3591 45.3852L47.0964 73.4783C48.2428 74.5613 50.0396 74.5463 51.1678 73.4444L79.861 45.4188C80.5598 44.7363 80.8738 43.7511 80.6988 42.79L75.581 14.6904C75.416 13.7846 75.685 12.8539 76.3078 12.1759L85.5501 2.11353C86.1964 1.40985 87.3677 1.73034 87.5658 2.66506L97.1978 48.1268C97.4012 49.0869 97.1119 50.0852 96.4266 50.7878L51.2443 97.1109C50.0941 98.2902 48.1992 98.2937 47.0445 97.1187L1.52754 50.7968C0.832605 50.0896 0.541156 49.0796 0.752461 48.1109L10.5414 3.23305C10.7443 2.30264 11.9114 1.98707 12.5556 2.68844L20.2254 11.0397ZM56.3801 14.0366C56.5606 14.4055 56.6618 14.8081 56.6771 15.2186L58.0445 51.7947C58.0751 52.6142 57.7619 53.4092 57.1806 53.9876L51.1243 60.0136C50.0166 61.1159 48.2399 61.1584 47.0808 60.1103L40.347 54.0222C39.6881 53.4265 39.334 52.5647 39.3837 51.6778L41.429 15.2039C41.4515 14.8029 41.5559 14.4109 41.7358 14.0518L48.085 1.38177C48.5208 0.512081 49.7641 0.517935 50.1918 1.39169L56.3801 14.0366Z" fill="#0A00D8"/>
</svg>
