<svg width="101" height="101" viewBox="0 0 101 101" fill="none" xmlns="http://www.w3.org/2000/svg">
<path d="M48.292 99.5933L19.5057 70.5787H38.0037L48.2776 81.2594C49.4483 82.4765 51.3928 82.4849 52.574 81.2779L63.0445 70.5787H81.3447L52.5411 99.5939C51.37 100.774 49.4628 100.773 48.292 99.5933Z" fill="#0A00D8"/>
<path d="M100.431 25.1024V3.47425C100.431 1.81975 99.0902 0.478515 97.4367 0.478516L50.4307 0.478533L3.42467 0.47855C1.77113 0.478551 0.430664 1.81979 0.430664 3.47429V25.1024H13.5775V15.6178C13.5775 13.9633 14.918 12.6221 16.5715 12.6221H85.4874C87.141 12.6221 88.4814 13.9633 88.4814 15.6178V25.1024H100.431Z" fill="#0A00D8"/>
<path d="M56.7737 40.2335V64.5737H47.736V40.2335H35.3383V31.6783H69.1715V40.2335H56.7737Z" fill="#0A00D8"/>
<path fill-rule="evenodd" clip-rule="evenodd" d="M81.7254 31.6783C80.3913 31.6783 79.2181 32.5615 78.8485 33.8442L72.287 56.004V64.5737H81.3247V56.004H91.3264V64.5737H100.364V56.004L93.8026 33.8442C93.433 32.5615 92.2598 31.6783 90.9257 31.6783L81.7254 31.6783ZM83.4205 47.8192L85.5163 39.6344H87.1348L89.2306 47.8192H83.4205Z" fill="#0A00D8"/>
<path fill-rule="evenodd" clip-rule="evenodd" d="M0.430664 64.5737H24.2605L32.1007 55.5865V41.0253L24.2605 31.6783L0.430664 31.6783V64.5737ZM18.8713 40.2335H9.46839V56.004H18.8713L23.0629 51.2108V45.8184L18.8713 40.2335Z" fill="#0A00D8"/>
</svg>
