<svg width="89" height="101" viewBox="0 0 89 101" fill="none" xmlns="http://www.w3.org/2000/svg">
<path d="M55.1074 8.87745C55.543 8.01668 55.2312 6.96555 54.3967 6.48152L45.2 1.14719C44.2573 0.600415 43.0938 0.60139 42.152 1.14975L33.8264 5.99755C32.9937 6.48239 32.6833 7.53223 33.1184 8.39194L36.9598 15.9825C37.4326 16.9167 38.5944 17.2602 39.4992 16.7334L42.7731 14.8271C43.3382 14.4981 44.0363 14.4975 44.6019 14.8255L48.7295 17.2197C49.6342 17.7444 50.794 17.4004 51.2663 16.4672L55.1074 8.87745Z" fill="#0A00D8"/>
<path d="M55.0365 20.8779C54.202 20.3939 53.8903 19.3427 54.3259 18.482L58.1669 10.8922C58.6392 9.95902 59.799 9.615 60.7037 10.1398L72.6994 17.0976C73.5821 17.6096 73.8713 18.7471 73.3405 19.6185L68.9212 26.8729C68.4062 27.7182 67.3101 27.9969 66.454 27.5003L55.0365 20.8779Z" fill="#0A00D8"/>
<path d="M14.8206 19.2118C14.2904 18.3413 14.5783 17.2052 15.4591 16.6923L27.5249 9.66673C28.4298 9.13985 29.5915 9.48338 30.0644 10.4176L33.9058 18.0081C34.3409 18.8679 34.0304 19.9177 33.1978 20.4025L21.7096 27.0918C20.8532 27.5904 19.7553 27.3122 19.2398 26.4659L14.8206 19.2118Z" fill="#0A00D8"/>
<path d="M72.7522 31.1535C71.8695 30.6415 71.5802 29.5039 72.1111 28.6325L76.5304 21.3781C77.0453 20.5328 78.1414 20.2541 78.9976 20.7507L86.5915 25.1554C87.5377 25.7042 88.1151 26.72 88.1025 27.8139L88.0205 34.9465C88.0128 35.6203 87.6333 36.2347 87.0343 36.5433L78.4907 40.9452C77.2713 41.5734 75.8217 40.6781 75.8375 39.3065L75.8979 34.0473C75.9055 33.391 75.559 32.7815 74.9913 32.4522L72.7522 31.1535Z" fill="#0A00D8"/>
<path d="M47.5941 60.958C47.8027 60.8505 48.0339 60.7945 48.2686 60.7945C49.082 60.7945 49.7414 61.4539 49.7414 62.2672V81.3467C49.7414 82.7027 51.1712 83.5824 52.3816 82.9711L74.483 71.8091C75.0892 71.503 75.4745 70.8847 75.4823 70.2056L75.7428 47.5439C75.7505 46.8701 76.13 46.2557 76.729 45.9471L85.2727 41.5452C86.492 40.917 87.9416 41.8123 87.9259 43.1839L87.5374 76.9764C87.5244 78.1082 86.8823 79.1386 85.8719 79.6489L44.5014 100.542C43.9823 100.805 43.3692 100.803 42.8515 100.538L2.09143 79.6637C1.07827 79.1448 0.440918 78.1024 0.440918 76.9641V44.6779C0.440918 43.334 1.84753 42.4537 3.05623 43.0412L11.5487 47.1687C12.1753 47.4732 12.5731 48.1087 12.5731 48.8054V70.2884C12.5731 70.9714 12.9555 71.5969 13.5634 71.9082L34.9599 82.8657C36.1708 83.4859 37.6092 82.6065 37.6092 81.246V62.4001C37.6092 61.5133 38.3281 60.7945 39.2148 60.7945C39.458 60.7945 39.698 60.8497 39.9167 60.956L41.6847 61.8153C43.0598 62.4836 44.6695 62.4648 46.0286 61.7646L47.5941 60.958Z" fill="#0A00D8"/>
<path d="M9.95775 42.3487C11.1665 42.9361 12.5731 42.0558 12.5731 40.7119V33.4579C12.5731 32.8102 12.9174 32.2112 13.4772 31.8853L15.4178 30.7553C16.2986 30.2425 16.5865 29.1063 16.0562 28.2359L11.6371 20.9818C11.1215 20.1355 10.0236 19.8573 9.16723 20.3559L1.94777 24.5596C1.0148 25.1029 0.440918 26.1011 0.440918 27.1807V36.5844C0.440918 37.2811 0.838659 37.9166 1.46525 38.2212L9.95775 42.3487Z" fill="#0A00D8"/>
<path fill-rule="evenodd" clip-rule="evenodd" d="M33.943 45.6946C34.472 44.84 35.5936 44.5761 36.4482 45.1051L42.9958 49.1583C43.5798 49.5198 44.3175 49.5217 44.9033 49.1633L51.5419 45.1022C52.3993 44.5777 53.5195 44.8475 54.044 45.7049L55.3102 47.7747C55.8347 48.6321 55.5648 49.7523 54.7075 50.2768L44.8845 56.2859C44.2987 56.6443 43.5609 56.6424 42.977 56.2809L33.2553 50.2629C32.4008 49.7339 32.1368 48.6123 32.6659 47.7577L33.943 45.6946Z" fill="#0A00D8"/>
<path fill-rule="evenodd" clip-rule="evenodd" d="M33.5998 30.9447C34.1288 31.7992 35.2505 32.0632 36.105 31.5342L42.6526 27.481C43.2366 27.1195 43.9743 27.1175 44.5602 27.4759L51.1988 31.5371C52.0561 32.0616 53.1763 31.7917 53.7008 30.9344L54.967 28.8645C55.4915 28.0072 55.2217 26.887 54.3643 26.3625L44.5414 20.3533C43.9555 19.9949 43.2178 19.9969 42.6338 20.3583L32.9122 26.3763C32.0576 26.9053 31.7937 28.027 32.3227 28.8815L33.5998 30.9447Z" fill="#0A00D8"/>
<path d="M26.3262 36.7961C25.2582 37.5115 25.2901 39.0925 26.386 39.7643L28.3391 40.9616C29.1946 41.486 29.4641 42.6038 28.9418 43.4605L27.7115 45.4782C27.1747 46.3585 26.0145 46.6175 25.1543 46.049L15.4708 39.6616C14.4753 38.9018 14.5268 37.3871 15.5715 36.6967L24.8112 30.5902C25.6714 30.0218 26.8316 30.2807 27.3683 31.161L28.5986 33.1787C29.121 34.0354 28.8514 35.1533 27.996 35.6777L26.3262 36.7961Z" fill="#0A00D8"/>
<path d="M62.0118 36.7603C63.0798 37.4757 63.048 39.0567 61.952 39.7285L59.9989 40.9258C59.1435 41.4502 58.8739 42.568 59.3963 43.4247L60.6265 45.4424C61.1633 46.3227 62.3235 46.5817 63.1837 46.0132L72.8673 39.6258C73.8627 38.866 73.8113 37.3513 72.7666 36.6609L63.5269 30.5544C62.6667 29.986 61.5065 30.2449 60.9697 31.1252L59.7394 33.1429C59.2171 33.9996 59.4866 35.1175 60.3421 35.6419L62.0118 36.7603Z" fill="#0A00D8"/>
</svg>
