<svg width="100" height="101" viewBox="0 0 100 101" fill="none" xmlns="http://www.w3.org/2000/svg">
<path d="M55.4283 45.5606C55.2342 45.0034 54.603 44.7383 54.0468 44.9351C52.7563 45.3918 51.3944 45.628 50.0183 45.6301C48.5199 45.6323 47.0374 45.357 45.645 44.8213C45.0867 44.6066 44.4396 44.8645 44.238 45.4278L41.2366 53.8137C41.0563 54.3174 41.3037 54.8759 41.8065 55.0585C44.4379 56.0143 47.2229 56.5047 50.0361 56.5004C52.6739 56.4964 55.2855 56.0577 57.7676 55.2087C58.2775 55.0343 58.5346 54.4743 58.3573 53.9654L55.4283 45.5606Z" fill="#0A00D8"/>
<path d="M61.0152 61.5925C60.8016 60.9797 60.0694 60.7298 59.4993 61.0398C59.4382 61.0731 59.3763 61.1062 59.3135 61.1394C56.6028 62.5707 53.5987 63.3579 50.5344 63.44C47.4701 63.5222 44.4282 62.8969 41.6447 61.6129C41.1046 61.3637 40.577 61.0911 40.0634 60.796C39.5005 60.4726 38.7663 60.7157 38.5475 61.327L35.7736 69.0772C35.6038 69.5516 35.8131 70.0793 36.2673 70.2978C36.5114 70.4152 36.7604 70.5324 37.0146 70.6497C41.3406 72.6453 46.0682 73.617 50.8305 73.4893C55.1229 73.3743 59.3393 72.369 63.2144 70.543C63.6675 70.3294 63.8774 69.8058 63.7125 69.3327L61.0152 61.5925Z" fill="#0A00D8"/>
<path d="M66.4783 77.2692C66.267 76.6628 65.547 76.4099 64.99 76.7295C64.2742 77.1403 63.4266 77.5928 62.4478 78.0613C58.8303 79.7928 54.8914 80.7506 50.8828 80.8734C46.8741 80.9962 42.8839 80.2813 39.1673 78.7744C37.3466 78.0362 35.8511 77.3559 34.471 76.5154C33.9058 76.1712 33.1493 76.4095 32.9263 77.0327L30.0617 85.0362C29.9007 85.486 30.079 85.9897 30.5034 86.2093C31.4726 86.7108 32.6154 87.1727 34.2465 87.832C34.4778 87.9255 34.7189 88.0229 34.9707 88.125C37.8359 89.2867 40.9614 90.1311 44.0002 90.6033C46.4303 90.981 48.7534 91.1128 51.2247 91.0371C52.774 90.9897 53.9016 90.9112 55.4283 90.6858C58.922 90.17 62.751 89.1341 65.9965 87.718L66.0092 87.7124C66.4324 87.5276 66.8528 87.3353 67.27 87.1356C67.3612 87.0919 67.4503 87.0496 67.5372 87.0085C67.9729 86.8026 68.356 86.6283 68.6953 86.478C69.1781 86.2643 69.4225 85.7178 69.2487 85.2191L66.4783 77.2692Z" fill="#0A00D8"/>
<path d="M44.0002 90.6033L50 100.056L55.4283 90.6858C53.9016 90.9112 52.774 90.9897 51.2247 91.0371C48.7534 91.1128 46.4303 90.981 44.0002 90.6033Z" fill="#0A00D8"/>
<path fill-rule="evenodd" clip-rule="evenodd" d="M56.1885 35.9999C57.0247 35.9998 57.8229 35.6508 58.3906 35.0369L72.2695 20.031C73.4144 18.7299 73.5907 16.8403 72.7085 15.3505L72.7046 15.3437C72.6999 15.3358 72.6978 15.3322 72.6909 15.3219C72.4241 14.9242 65.5001 0.0327148 50.0001 0.0327148C35.3542 0.0327148 27.576 14.9244 27.3092 15.3221C27.3023 15.3324 27.3002 15.336 27.2956 15.3439L27.2916 15.3507C26.4094 16.8405 26.5857 18.7301 27.7306 20.0312L41.6095 35.0371C42.1773 35.651 42.9755 36.0001 43.8116 36.0001L56.1885 35.9999ZM54.2535 28.0005C54.8202 28.0005 55.3604 27.76 55.7397 27.3389L63.4942 18.6168C64.09 17.9552 64.1748 16.9833 63.6459 16.2671C61.7003 13.6322 57.0001 8.16154 50.0001 8.08077C43.0001 8 38.2999 13.6324 36.3542 16.2673C35.8253 16.9835 35.9101 17.9554 36.5059 18.617L44.2604 27.3391C44.6397 27.7603 45.1799 28.0007 45.7467 28.0007L54.2535 28.0005Z" fill="#0A00D8"/>
<path fill-rule="evenodd" clip-rule="evenodd" d="M80.9196 23.1694C80.157 22.2716 78.7903 22.229 77.9686 23.073L61.8834 39.5935C61.344 40.1475 61.1723 40.9627 61.4423 41.6872L80.5885 93.0549C80.9088 93.9141 82.1202 93.9252 82.456 93.0719L99.6438 49.4056C99.8687 48.8343 99.8196 48.193 99.5031 47.6668C98.0974 45.3304 93.9698 38.6217 90.5001 34.5001C86.2686 29.4737 82.7683 25.3456 80.9196 23.1694ZM77.4747 35.6731C78.2795 34.8275 79.621 34.8542 80.4046 35.683C80.4988 35.7826 80.5914 35.8847 80.6949 35.9745C82.5459 37.5804 83.7786 39.0368 85.5001 41.5C87.7386 44.7029 89.4574 47.919 90.5055 49.6642C90.8222 50.1915 90.8655 50.8333 90.6351 51.4037L82.4776 69.08C82.1342 69.9304 80.9228 69.9086 80.6102 69.0464L71.0686 43.7478C70.8101 43.0347 70.9772 42.2367 71.5001 41.6872L77.4747 35.6731Z" fill="#0A00D8"/>
<path fill-rule="evenodd" clip-rule="evenodd" d="M18.8631 23.1694C19.6258 22.2716 20.9924 22.2291 21.8142 23.0731L37.8993 39.5935C38.4387 40.1475 38.6104 40.9628 38.3404 41.6873L19.1942 93.0549C18.874 93.9142 17.6626 93.9252 17.3267 93.072L0.13891 49.4057C-0.0859866 48.8343 -0.0369066 48.193 0.279641 47.6669C1.68532 45.3305 5.81292 38.6218 9.28268 34.5001C13.5141 29.4738 17.0145 25.3457 18.8631 23.1694ZM22.308 35.6732C21.5032 34.8275 20.1617 34.8543 19.3781 35.6831C19.2839 35.7827 19.1913 35.8847 19.0878 35.9746C17.2368 37.5805 16.0042 39.0369 14.2826 41.5001C12.0441 44.703 10.3253 47.9191 9.27719 49.6643C8.9605 50.1916 8.91726 50.8334 9.14759 51.4037L17.3052 69.0801C17.6486 69.9304 18.8599 69.9086 19.1725 69.0465L28.7141 43.7478C28.9727 43.0347 28.8056 42.2367 28.2826 41.6873L22.308 35.6732Z" fill="#0A00D8"/>
</svg>
