<svg width="100" height="101" viewBox="0 0 100 101" fill="none" xmlns="http://www.w3.org/2000/svg">
<path d="M55.4282 45.5606C55.2341 45.0034 54.6029 44.7383 54.0468 44.9351C52.7563 45.3918 51.3943 45.628 50.0182 45.6301C48.5198 45.6323 47.0374 45.357 45.6449 44.8213C45.0866 44.6066 44.4395 44.8645 44.2379 45.4278L41.2365 53.8137C41.0562 54.3174 41.3036 54.8759 41.8064 55.0585C44.4378 56.0143 47.2228 56.5047 50.0361 56.5004C52.6738 56.4964 55.2854 56.0577 57.7675 55.2087C58.2774 55.0343 58.5345 54.4743 58.3572 53.9654L55.4282 45.5606Z" fill="#0A00D8"/>
<path d="M61.0151 61.5925C60.8015 60.9797 60.0693 60.7298 59.4992 61.0398C59.4381 61.0731 59.3762 61.1062 59.3134 61.1394C56.6027 62.5707 53.5986 63.3579 50.5343 63.44C47.47 63.5222 44.4281 62.8969 41.6446 61.6129C41.1045 61.3637 40.5769 61.0911 40.0633 60.796C39.5004 60.4726 38.7662 60.7157 38.5474 61.327L35.7735 69.0772C35.6037 69.5516 35.813 70.0793 36.2672 70.2978C36.5113 70.4152 36.7603 70.5324 37.0145 70.6497C41.3405 72.6453 46.0681 73.617 50.8304 73.4893C55.1228 73.3743 59.3392 72.369 63.2143 70.543C63.6674 70.3294 63.8773 69.8058 63.7124 69.3327L61.0151 61.5925Z" fill="#0A00D8"/>
<path d="M66.4782 77.2692C66.2669 76.6628 65.5469 76.4099 64.99 76.7295C64.2741 77.1403 63.4265 77.5928 62.4477 78.0613C58.8302 79.7928 54.8913 80.7506 50.8827 80.8734C46.874 80.9962 42.8838 80.2813 39.1672 78.7744C37.3465 78.0362 35.851 77.3559 34.4709 76.5154C33.9057 76.1712 33.1492 76.4095 32.9262 77.0327L30.0616 85.0362C29.9006 85.486 30.0789 85.9897 30.5033 86.2093C31.4725 86.7108 32.6153 87.1727 34.2464 87.832C34.4777 87.9255 34.7188 88.0229 34.9707 88.125C37.8358 89.2867 40.9613 90.1311 44.0001 90.6033C46.4302 90.981 48.7533 91.1128 51.2246 91.0371C52.7739 90.9897 53.9015 90.9112 55.4282 90.6858C58.9219 90.17 62.7509 89.1341 65.9964 87.718L66.0091 87.7124C66.4323 87.5276 66.8527 87.3353 67.2699 87.1356C67.3611 87.0919 67.4502 87.0496 67.5371 87.0085C67.9728 86.8026 68.3559 86.6283 68.6952 86.478C69.178 86.2643 69.4224 85.7178 69.2486 85.2191L66.4782 77.2692Z" fill="#0A00D8"/>
<path d="M44.0001 90.6033L50 100.056L55.4282 90.6858C53.9015 90.9112 52.7739 90.9897 51.2246 91.0371C48.7533 91.1128 46.4302 90.981 44.0001 90.6033Z" fill="#0A00D8"/>
<path fill-rule="evenodd" clip-rule="evenodd" d="M56.1884 35.9999C57.0246 35.9998 57.8228 35.6508 58.3905 35.0369L72.2694 20.031C73.4143 18.7299 73.5906 16.8403 72.7085 15.3505L72.7045 15.3437C72.6998 15.3358 72.6977 15.3322 72.6908 15.3219C72.424 14.9242 65.5 0.0327148 50 0.0327148C35.3541 0.0327148 27.5759 14.9244 27.3092 15.3221C27.3022 15.3324 27.3001 15.336 27.2955 15.3439L27.2915 15.3507C26.4093 16.8405 26.5856 18.7301 27.7306 20.0312L41.6094 35.0371C42.1772 35.651 42.9754 36.0001 43.8115 36.0001L56.1884 35.9999ZM54.2534 29.0005C54.8202 29.0005 55.3603 28.76 55.7396 28.3389L64.4941 18.6168C65.0899 17.9552 65.1747 16.9833 64.6458 16.2671C62.7002 13.6322 57 7.16154 50 7.08077C43 7 37.2998 13.6324 35.3541 16.2673C34.8252 16.9835 34.91 17.9554 35.5058 18.617L44.2603 28.3391C44.6396 28.7603 45.1798 29.0007 45.7466 29.0007L54.2534 29.0005Z" fill="#0A00D8"/>
<path fill-rule="evenodd" clip-rule="evenodd" d="M19.0804 23.1694C19.8431 22.2716 21.2097 22.229 22.0315 23.073L38.1166 39.5935C38.656 40.1475 38.8277 40.9627 38.5577 41.6872L19.4115 93.0549C19.0913 93.9141 17.8799 93.9252 17.544 93.0719L0.356195 49.4056C0.131299 48.8343 0.180378 48.193 0.496926 47.6668C1.9026 45.3304 6.0302 38.6217 9.49996 34.5001C13.7314 29.4737 17.2317 25.3456 19.0804 23.1694ZM22.5253 33.6731C21.6725 32.7771 20.2171 32.8605 19.4614 33.8398C18.1858 35.4928 16.2558 37.9485 14.5 40.0001C12.0894 42.8167 9.54261 46.919 8.49448 48.6642C8.17779 49.1915 8.13454 49.8333 8.36487 50.4037L17.5225 73.08C17.8659 73.9304 19.0772 73.9086 19.3898 73.0464L30.1707 43.3136C30.4293 42.6005 30.2622 41.8025 29.7392 41.253L22.5253 33.6731Z" fill="#0A00D8"/>
<path fill-rule="evenodd" clip-rule="evenodd" d="M80.9195 23.1694C80.1569 22.2716 78.7902 22.229 77.9685 23.073L61.8833 39.5935C61.344 40.1475 61.1722 40.9627 61.4422 41.6872L80.5884 93.0549C80.9087 93.9141 82.1201 93.9252 82.4559 93.0719L99.6437 49.4056C99.8686 48.8343 99.8195 48.193 99.503 47.6668C98.0973 45.3304 93.9697 38.6217 90.5 34.5001C86.2686 29.4737 82.7682 25.3456 80.9195 23.1694ZM77.4747 33.6731C78.3274 32.7771 79.7828 32.8605 80.5385 33.8398C81.8141 35.4928 83.7441 37.9485 85.5 40.0001C87.9105 42.8167 90.4573 46.919 91.5054 48.6642C91.8221 49.1915 91.8654 49.8333 91.6351 50.4037L82.4775 73.08C82.1341 73.9304 80.9227 73.9086 80.6101 73.0464L69.8292 43.3136C69.5707 42.6005 69.7378 41.8025 70.2607 41.253L77.4747 33.6731Z" fill="#0A00D8"/>
</svg>
