<svg width="101" height="101" viewBox="0 0 101 101" fill="none" xmlns="http://www.w3.org/2000/svg">
<path fill-rule="evenodd" clip-rule="evenodd" d="M97.3927 15.1367L85.0596 2.77966C81.4106 -0.876398 75.5056 -0.865203 71.8704 2.80466L12.6745 62.5645C12.0699 63.1749 11.5907 63.8991 11.2643 64.6951L0.670941 90.5275C-1.60485 96.0771 3.78532 101.691 9.37931 99.5964L35.8785 89.6762C36.7611 89.3458 37.5619 88.8274 38.2261 88.1569L97.4176 28.4015C101.053 24.7316 101.042 18.7928 97.3927 15.1367ZM74.5364 17.833C76.7176 15.6311 80.2606 15.6244 82.4499 17.818C84.6393 20.0117 84.646 23.575 82.4649 25.7769L39.9834 68.6631L32.0698 60.7042L74.5364 17.833ZM23.2936 69.5641L22.3896 70.4767C22.3385 70.5283 22.2967 70.5885 22.2662 70.6545L17.1746 81.6756C16.6945 82.7149 17.7413 83.8022 18.7896 83.3531L30.2178 78.457C30.2913 78.4255 30.3582 78.38 30.4146 78.323L31.2071 77.5229L23.2936 69.5641Z" fill="#0A00D8"/>
</svg>
