<svg width="100" height="100" viewBox="0 0 100 100" fill="none" xmlns="http://www.w3.org/2000/svg">
<path d="M62.3762 34.0975C63.6964 34.8634 63.6964 36.7784 62.3762 37.5443L43.0693 48.7466C41.7492 49.5126 40.099 48.5552 40.099 47.0232V24.6186C40.099 23.0866 41.7492 22.1292 43.0693 22.8951L62.3762 34.0975Z" fill="#0A00D8"/>
<path d="M16.3898 13.3275C25.0312 12.7416 38.8286 11.9403 49.505 11.9403C60.2931 11.9403 74.675 12.7582 83.5937 13.3457C85.4356 13.467 86.8464 14.8688 87.0127 16.6384C87.5481 22.3342 88.1188 29.7515 88.1188 35.3234C88.1188 40.8953 87.5481 48.3126 87.0127 54.0084C86.9752 54.4077 87.1951 54.7964 87.582 54.8949C89.3378 55.3421 90.266 55.8333 91.5842 56.7164C92.9782 57.6504 93.8383 58.8978 94.2537 59.6183C94.4522 59.9627 94.8112 60.1987 95.2055 60.2355C95.5083 60.2637 95.8894 60.3138 96.289 60.4027C96.8275 60.5225 97.4105 60.2761 97.5976 59.7547C98.0275 58.5574 98.7141 56.4837 98.8412 55.1314C99.3811 49.3881 100 41.4958 100 35.3234C100 29.151 99.3811 21.2587 98.8412 15.5154C98.1191 7.83292 91.9557 1.93055 84.3708 1.43093C75.437 0.842476 60.7163 0 49.505 0C38.3985 0 24.2591 0.82652 15.5901 1.41425C8.01766 1.92763 1.88194 7.82727 1.16122 15.4893C0.620744 21.2352 0 29.1419 0 35.3234C0 41.5048 0.620744 49.4115 1.16122 55.1574C1.88194 62.8195 8.01767 68.7191 15.5901 69.2325C23.4856 69.7678 35.9188 70.5012 46.4656 70.6278C46.816 70.632 47.1405 70.4501 47.3434 70.1628C47.9017 69.3719 49.1817 67.7571 50.9901 66.6667C52.4126 65.8089 54.3742 65.4305 55.5135 65.2742C56.0311 65.2032 56.4356 64.7654 56.4356 64.2405V59.6337C56.4356 59.0747 55.9776 58.6256 55.4215 58.6376C53.3722 58.6817 51.3841 58.7065 49.505 58.7065C38.8286 58.7065 25.0312 57.9052 16.3898 57.3193C14.5596 57.1952 13.1559 55.8005 12.9897 54.0337C12.4536 48.335 11.8812 40.9038 11.8812 35.3234C11.8812 29.743 12.4536 22.3118 12.9897 16.6131C13.1559 14.8463 14.5596 13.4515 16.3898 13.3275Z" fill="#0A00D8"/>
<path fill-rule="evenodd" clip-rule="evenodd" d="M62.4831 47.594C62.4831 44.9386 64.625 42.7861 67.2672 42.7861H71.0945C73.7367 42.7861 75.8786 44.9386 75.8786 47.594V55.7674C75.8786 56.2984 76.307 56.729 76.8354 56.729H78.7491C80.9303 56.729 82.7706 58.196 83.3463 60.2019C83.4826 60.6768 83.8842 61.0561 84.3761 61.0561H85.9252C88.2419 61.0561 90.1739 62.7109 90.6148 64.9085C90.7193 65.4291 91.1377 65.864 91.6661 65.864H93.5797C96.2219 65.864 98.3638 68.0165 98.3638 70.6718V88.559C98.3638 89.9085 97.7996 91.1946 96.811 92.1046C96.776 92.1367 96.7429 92.1708 96.7125 92.2073L91.2921 98.7307C91.2617 98.7672 91.2288 98.8016 91.1929 98.8327C90.3249 99.5852 89.216 100 88.0681 100H68.9722C67.7696 100 66.611 99.5448 65.7273 98.725L49.8162 84.0387C48.0445 82.3951 47.7667 79.6832 49.1682 77.7113L52.761 73.0411C54.3492 70.8066 57.4738 70.3604 59.6184 72.062L61.2434 73.3512C61.7453 73.7495 62.4831 73.3901 62.4831 72.7474V47.594ZM91.6661 71.6334C91.1377 71.6334 90.7093 72.0639 90.7093 72.595V76.9221C90.7093 77.4532 90.2809 77.8837 89.7525 77.8837H85.9252C85.3968 77.8837 84.9684 77.4532 84.9684 76.9221V67.5467C84.9684 67.1484 84.6471 66.8255 84.2508 66.8255C83.8544 66.8255 83.5331 67.1484 83.5331 67.5467V74.0374C83.5331 74.5684 83.1048 74.999 82.5763 74.999H78.7491C78.2206 74.999 77.7922 74.5684 77.7922 74.0374V63.46C77.7922 62.9289 77.3639 62.4984 76.8354 62.4984C76.307 62.4984 75.8786 62.9289 75.8786 63.46V72.1142C75.8786 72.6453 75.4502 73.0758 74.9218 73.0758H71.0945C70.5661 73.0758 70.1377 72.6453 70.1377 72.1142V49.5171C70.1377 48.9861 69.7093 48.5555 69.1809 48.5555C68.6524 48.5555 68.2241 48.9861 68.2241 49.5171V76.3191C68.2241 78.4018 67.6409 80.0927 66.3103 80.7684C64.1898 81.8452 61.9862 81.2913 60.4755 80.0927L57.5946 77.807C57.182 77.4796 56.5838 77.5482 56.2551 77.9605L54.8897 79.673C54.5749 80.0679 54.6184 80.6404 54.9893 80.9826L69.0719 93.9772C69.2484 94.1401 69.4793 94.2305 69.719 94.2305H87.248C87.5366 94.2305 87.8098 94.0996 87.9915 93.8741L92.4097 88.3918C92.5476 88.2206 92.6229 88.007 92.6229 87.7867V72.595C92.6229 72.0639 92.1945 71.6334 91.6661 71.6334Z" fill="#0A00D8"/>
</svg>
