<svg width="94" height="101" viewBox="0 0 94 101" fill="none" xmlns="http://www.w3.org/2000/svg">
<path d="M93.2409 15.0949C93.2409 23.0719 86.5211 29.5386 78.2318 29.5386C69.9425 29.5386 63.2227 23.0719 63.2227 15.0949C63.2227 7.1178 69.9425 0.651123 78.2318 0.651123C86.5211 0.651123 93.2409 7.1178 93.2409 15.0949Z" fill="#0A00D8"/>
<path d="M60.9445 6.28285L54.5882 1.91174C52.5562 0.626565 49.8541 2.02919 49.8541 4.36914L49.8541 11.407C49.8541 12.397 50.3718 13.3206 51.2316 13.8644L59.5849 19.8282C57.9934 16.0225 58.4778 13.739 58.5931 12.5858C58.8222 10.2952 59.4927 8.34176 60.9445 6.28285Z" fill="#0A00D8"/>
<path d="M78.2318 34.4172C81.7948 34.4172 85.1161 33.4216 87.9118 31.7037V61.821C87.9118 64.0365 85.4626 65.4563 83.4275 64.4206L77.316 61.3103C76.315 60.8008 75.6888 59.8005 75.6888 58.7108V34.9294C75.6888 34.6923 75.6591 34.459 75.6021 34.2338C76.4605 34.3547 77.3386 34.4172 78.2318 34.4172Z" fill="#0A00D8"/>
<path d="M36.2701 13.9802C37.1204 13.4348 37.6312 12.5165 37.6312 11.5332L37.6312 4.46544C37.6312 2.11696 34.9115 0.716022 32.8808 2.01844L1.54578 23.1254C0.695466 23.6708 0.184692 24.589 0.184692 25.5724V60.7324C0.184692 62.9479 2.6339 64.3677 4.66898 63.332L11.856 59.6743C12.1954 59.5016 12.4076 59.1625 12.4076 58.7931V31.8686C12.4076 30.8853 12.9184 29.967 13.7687 29.4216L36.2701 13.9802Z" fill="#0A00D8"/>
<path d="M13.6045 73.4564C14.5536 72.929 15.7148 72.8967 16.6941 73.3704L42.9821 86.086C43.9613 86.5596 45.1225 86.5273 46.0716 85.9999L71.7467 71.7348C72.7913 71.1543 74.0839 71.1774 75.1055 71.7948L81.3426 75.5641C83.4195 76.8192 83.363 79.7499 81.2391 80.93L46.4995 100.231C45.5503 100.759 44.3892 100.791 43.4099 100.317L7.02311 82.7171C4.70869 81.5976 4.61411 78.4515 6.85739 77.2051L13.6045 73.4564Z" fill="#0A00D8"/>
<path fill-rule="evenodd" clip-rule="evenodd" d="M21.9626 52.3916C21.7142 52.1507 21.5749 51.8249 21.5749 51.4854V31.4597C21.5749 30.7494 22.1729 30.1735 22.9106 30.1735L64.8529 30.1735C65.5906 30.1735 66.1886 30.7494 66.1886 31.4597V51.4852C66.1886 51.8248 66.0491 52.1507 65.8006 52.3916L44.8233 72.7271C44.3008 73.2336 43.4499 73.2335 42.9276 72.7269L21.9626 52.3916ZM42.9212 62.503C43.4435 63.0255 44.311 63.0291 44.838 62.5109L58.0317 49.4854C58.2761 49.2451 58.413 48.922 58.413 48.5856V39.2894C58.413 38.5791 57.815 38.0032 57.0773 38.0032H31.2205C30.4828 38.0032 29.8847 38.5791 29.8847 39.2894V48.8493C29.8847 49.1819 30.0186 49.5016 30.2581 49.7412L42.9212 62.503Z" fill="#0A00D8"/>
</svg>
