<svg width="89" height="101" viewBox="0 0 89 101" fill="none" xmlns="http://www.w3.org/2000/svg">
<path d="M14.8301 73.5293C15.7429 73.0019 16.8596 72.9695 17.8014 73.4433L43.0824 86.1612C44.0242 86.6349 45.1409 86.6026 46.0537 86.0751L70.7452 71.8074C71.7499 71.2269 72.993 71.25 73.9754 71.8674L79.9736 75.6374C81.9709 76.8927 81.9165 79.824 79.874 81.0043L46.4651 100.309C45.5523 100.837 44.4356 100.869 43.4939 100.395L8.50087 82.7917C6.27511 81.672 6.18415 78.5253 8.34151 77.2787L14.8301 73.5293Z" fill="#0A00D8"/>
<path d="M49.7546 11.2468C49.7546 12.2899 50.279 13.2629 51.1499 13.8358L74.5297 29.2148C75.4006 29.7877 75.925 30.7607 75.925 31.8037V60.0189C75.925 61.1669 76.5593 62.2208 77.5733 62.7575L83.7642 66.0343C85.8257 67.1255 88.3068 65.6297 88.3068 63.2957V25.1192C88.3068 24.0762 87.7824 23.1031 86.9115 22.5303L54.5502 1.24327C52.4918 -0.110713 49.7546 1.367 49.7546 3.83222L49.7546 11.2468Z" fill="#0A00D8"/>
<path fill-rule="evenodd" clip-rule="evenodd" d="M21.1078 52.4067C21.1078 52.7643 21.249 53.1075 21.5006 53.3613L42.738 74.7852C43.2672 75.319 44.1291 75.3191 44.6583 74.7855L65.9083 53.3613C66.16 53.1075 66.3014 52.7642 66.3014 52.4064V31.3088C66.3014 30.5605 65.6956 29.9538 64.9483 29.9538L22.4609 29.9538C21.7136 29.9538 21.1078 30.5605 21.1078 31.3089V52.4067ZM44.6732 64.0224C44.1394 64.5683 43.2606 64.5646 42.7315 64.014L29.9039 50.569C29.6612 50.3166 29.5257 49.9798 29.5257 49.6294V39.5577C29.5257 38.8093 30.1315 38.2027 30.8788 38.2027H57.0716C57.8189 38.2027 58.4247 38.8093 58.4247 39.5577V49.3516C58.4247 49.706 58.286 50.0464 58.0384 50.2996L44.6732 64.0224Z" fill="#0A00D8"/>
<path d="M38.7369 11.2468C38.7369 12.2899 38.2125 13.2629 37.3416 13.8358L13.9618 29.2148C13.0909 29.7877 12.5665 30.7607 12.5665 31.8037V60.0189C12.5665 61.1669 11.9322 62.2208 10.9181 62.7575L4.72726 66.0343C2.66574 67.1255 0.184692 65.6297 0.184692 63.2957V25.1192C0.184692 24.0762 0.709115 23.1031 1.58003 22.5303L33.9413 1.24327C35.9997 -0.110713 38.7369 1.367 38.7369 3.83222L38.7369 11.2468Z" fill="#0A00D8"/>
</svg>
