<svg width="100" height="100" viewBox="0 0 100 100" fill="none" xmlns="http://www.w3.org/2000/svg">
<path d="M83.0581 39.9572C88.0892 31.4808 88.809 18.6092 78.5922 8.48376C68.3754 -1.64171 52.0273 -3.42127 43.0168 7.07346C42.0634 8.18385 41.5683 8.85136 40.8229 10.1083C38.0107 14.8509 38.5366 18.6888 38.224 23.9568C38.0736 26.4926 38.0245 29.1637 38.031 31.9826L38.0367 32.4042L38.0445 32.979C38.0615 34.2445 38.0786 35.5702 38.0909 36.9611L38.0933 37.2402C38.113 38.2777 38.136 39.3337 38.1605 40.4089C38.1727 40.9476 38.1854 41.4909 38.1981 42.0388C38.246 44.1015 38.2954 46.2294 38.3329 48.42C38.3404 48.86 38.3474 49.3026 38.3539 49.7477C38.4024 53.0933 38.4177 56.5827 38.3534 60.2114L38.0917 63.5348C37.6613 68.3623 36.7485 70.1513 35.2827 71.8123C32.0871 75.4334 29.1988 76.0644 26.6975 75.816C23.6574 75.5141 19.719 73.6862 15.8654 69.8671C9.77396 63.8301 10.2173 56.5995 13.1074 51.7217C13.9528 50.3071 15.2427 48.9166 20.8242 48.2912C23.9292 47.9433 28.4738 47.9603 33.098 48.1421C33.6802 48.165 34.1708 47.6979 34.1705 47.1205C34.1699 46.0368 34.172 44.289 34.174 42.5499C34.1761 40.7827 34.1782 39.0245 34.1774 37.981C34.1771 37.4549 33.7578 37.0292 33.2272 37.0102C18.3897 36.4805 8.45086 37.9691 3.57293 46.1502C-1.45819 54.6266 -2.17804 67.4982 8.03879 77.6237C18.2556 87.7491 32.7771 91.3139 43.6142 79.034C47.7237 74.3773 48.8011 69.5089 48.9541 61.3294C49.0143 58.111 49.0562 53.5147 48.9541 48.7102C48.8189 42.3457 48.8019 32.4098 48.8019 32.4098C48.7032 28.8799 48.5762 24.9687 48.8019 22.4376C49.2322 17.6101 49.8824 15.9561 51.3483 14.2951C54.5439 10.674 57.4322 10.043 59.9335 10.2914C62.9736 10.5933 66.912 12.4212 70.7656 16.2404C76.857 22.2773 76.4137 29.5079 73.5235 34.3858C72.6782 35.8003 71.3883 37.1909 65.8068 37.8162C63.1994 38.1084 58.0144 38.03 53.9874 37.9159C53.4195 37.8998 52.9506 38.351 52.9506 38.914V47.9249C52.9506 48.4599 53.3797 48.9 53.9192 48.9191C68.4705 49.4334 78.2266 48.0603 83.0581 39.9572Z" fill="#0A00D7"/>
<path fill-rule="evenodd" clip-rule="evenodd" d="M58.1004 56.8419C57.8294 56.8414 55.8355 56.8381 54.4979 58.7309C53.8327 59.6722 53.6762 60.6343 53.6546 61.2406L53.6532 76.0274C53.6532 77.4769 54.3244 78.8405 55.4614 79.703L77.4094 100L98.2852 79.6303C99.3673 78.7636 100 77.435 100 76.0275V61.4158C100 60.5236 99.7367 59.4242 98.9478 58.4663C98.0973 57.4337 96.8474 56.8419 95.5345 56.8419L58.1004 56.8419ZM91.0872 65.969H62.566V73.7336L77.2625 88.5308L91.0872 73.8082V65.969Z" fill="#0A00D7"/>
</svg>
