<svg width="101" height="101" viewBox="0 0 101 101" fill="none" xmlns="http://www.w3.org/2000/svg">
<path fill-rule="evenodd" clip-rule="evenodd" d="M0.91333 3.68454C0.91333 2.06155 2.22903 0.74585 3.85202 0.74585H54.4515C56.0745 0.74585 57.3902 2.06155 57.3902 3.68454V6.2253C57.3902 7.84829 58.7059 9.16399 60.3289 9.16399H97.9746C99.5976 9.16399 100.913 10.4797 100.913 12.1027V69.7982C100.913 71.4212 99.5976 72.7369 97.9746 72.7369H48.1802C46.5573 72.7369 45.2416 71.4212 45.2416 69.7982V66.6821C45.2416 65.0591 43.9259 63.7434 42.3029 63.7434H16.0007C14.3777 63.7434 13.062 65.0591 13.062 66.6821V97.8072C13.062 99.4302 11.7463 100.746 10.1233 100.746H3.85202C2.22903 100.746 0.91333 99.4302 0.91333 97.8072V3.68454ZM13.062 48.6504C13.062 50.2734 14.3777 51.5891 16.0007 51.5891H54.4515C56.0745 51.5891 57.3902 52.9048 57.3902 54.5278V57.6439C57.3902 59.2668 58.7059 60.5825 60.3289 60.5825H85.826C87.449 60.5825 88.7647 59.2668 88.7647 57.6438V24.257C88.7647 22.634 87.449 21.3183 85.826 21.3183H48.1802C46.5573 21.3183 45.2416 20.0026 45.2416 18.3796V15.8389C45.2416 14.2159 43.9259 12.9002 42.3029 12.9002H16.0007C14.3777 12.9002 13.062 14.2159 13.062 15.8389V48.6504Z" fill="#0A00D8"/>
</svg>
