<svg width="101" height="101" viewBox="0 0 101 101" fill="none" xmlns="http://www.w3.org/2000/svg">
<path d="M91.1488 23.2952C89.5916 21.0971 86.5037 20.5474 84.2517 22.0673C81.9998 23.5873 81.4366 26.6014 82.9938 28.7994C84.3407 31.2766 85.8252 34.5286 87.0956 38.2786C88.8581 43.4813 90.2087 49.6427 90.2087 56.0246C90.2087 58.8318 92.5334 60.8552 95.27 60.8378C98.0079 60.8205 100.212 58.7293 100.194 56.0569C100.173 55.4761 100.111 53.6003 100.038 52.5789C99.8926 50.5405 99.6101 47.7035 99.0605 44.4849C97.984 38.1803 95.793 29.8507 91.1488 23.2952Z" fill="#0A00D8"/>
<path fill-rule="evenodd" clip-rule="evenodd" d="M28.0635 4.36093C42.6868 -1.50849 61.6826 -2.27721 81.3644 11.0845C83.6121 12.6104 84.1669 15.626 82.6036 17.8199C81.0402 20.0139 77.9508 20.5554 75.7031 19.0294C59.0808 7.74486 43.6897 8.55298 31.8342 13.3114C17.2718 19.1564 10.1093 35.8059 10.1092 50.2037C10.1092 52.8761 7.88968 55.0425 5.15176 55.0425C2.41384 55.0425 0.194326 52.8761 0.194336 50.2036C0.194401 33.6798 8.33348 12.28 28.0635 4.36093ZM56.8538 26.1515C51.5534 24.6087 44.6075 24.8022 35.7477 28.3501C33.2147 29.3644 30.3188 28.1824 29.2796 25.71C28.2404 23.2375 29.4514 20.4109 31.9844 19.3966C42.427 15.2149 51.7365 14.5631 59.6873 16.8774C67.6442 19.1936 73.6696 24.3156 77.8341 30.6502C86.021 43.1034 87.4366 60.7924 82.602 74.4842C81.7099 77.0107 78.8883 78.353 76.2998 77.4822C73.7113 76.6114 72.3361 73.8573 73.2282 71.3307C77.1786 60.1431 75.8721 45.5855 69.4894 35.8767C66.3691 31.1303 62.1479 27.6926 56.8538 26.1515ZM26.2223 31.3206C28.5004 32.803 29.116 35.8073 27.5973 38.0309C26.4861 39.6577 25.7492 41.8266 25.2931 44.7366C24.8331 47.6707 24.6956 51.3661 24.5618 55.1766C24.3085 62.4244 23.9975 71.3237 20.1904 79.4991C19.0574 81.932 16.1184 83.0077 13.6259 81.9019C11.1334 80.796 10.0312 77.9273 11.1642 75.4944C14.0919 69.2075 14.3979 62.1016 14.6667 54.4444L14.671 54.3215C14.7988 50.6804 14.9338 46.8356 15.4922 43.2729C16.0607 39.6461 17.1179 35.9272 19.3475 32.6627C20.8663 30.4391 23.9442 29.8382 26.2223 31.3206ZM55.6224 43.5831C54.128 41.7251 52.0007 40.5311 48.0716 40.9947C45.4968 41.2984 43.8949 42.054 42.8423 42.8734C41.7795 43.7008 40.9861 44.8204 40.3982 46.2812C39.1306 49.4314 39.071 53.3993 39.071 57.4484C39.071 61.4681 38.8464 66.8961 37.9415 72.4786C37.0464 78.0015 35.4335 84.0168 32.4554 88.9948C31.0748 91.3026 28.0389 92.081 25.6745 90.7334C23.3102 89.3858 22.5127 86.4225 23.8934 84.1147C25.9847 80.619 27.3414 75.9459 28.1484 70.9664C28.9459 66.0465 29.156 60.8578 29.156 57.148C29.1544 53.454 29.152 47.7573 31.1697 42.7432C32.2522 40.0529 33.9644 37.4059 36.66 35.3074C39.3658 33.201 42.7751 31.8714 46.8819 31.3869C54.0611 30.5399 59.6709 32.9444 63.4211 37.6071C66.8864 41.9155 68.4102 47.7047 69.0185 53.2511C70.2438 64.4242 68.0221 77.321 66.1024 83.8954C65.352 86.4655 62.6091 87.9551 59.976 87.2226C57.343 86.4901 55.8168 83.8128 56.5673 81.2428C58.2535 75.4681 60.211 63.8653 59.1599 54.2812C58.63 49.4491 57.4017 45.7953 55.6224 43.5831ZM48.5458 47.8091C51.2674 47.5169 53.7162 49.4335 54.0156 52.0899C55.4792 65.0781 52.0787 84.8934 47.8797 97.0406C47.0043 99.5727 44.1917 100.933 41.5975 100.078C39.0033 99.2241 37.6098 96.4787 38.4851 93.9466C42.3853 82.6641 45.4185 64.3148 44.1601 53.148C43.8608 50.4916 45.8243 48.1013 48.5458 47.8091Z" fill="#0A00D8"/>
</svg>
