<svg width="101" height="101" viewBox="0 0 101 101" fill="none" xmlns="http://www.w3.org/2000/svg">
<path d="M87.0124 66.8765C87.0124 65.2386 88.3402 63.9108 89.9781 63.9108H96.0289C97.6668 63.9108 98.9946 65.2386 98.9946 66.8765V91.9344C98.9946 96.8219 94.9712 100.784 90.008 100.784L9.12802 100.784C4.16483 100.784 0.141357 96.8219 0.141357 91.9344L0.141365 5.51952C0.141365 3.88162 1.46915 2.55385 3.10705 2.55385L9.1579 2.55385C10.7958 2.55385 12.1236 3.88163 12.1236 5.51953L12.1236 86.0188C12.1236 87.6567 13.4514 88.9845 15.0893 88.9845L84.0467 88.9845C85.6846 88.9845 87.0124 87.6567 87.0124 86.0188V66.8765Z" fill="#0A00D8"/>
<path d="M67.7225 9.05123L76.1195 0.783936L100.141 24.4348L75.7281 47.3134L67.3312 39.0461L76.822 29.7019C34.4755 29.7019 37.1234 64.7957 37.1234 80.4284L24.5629 80.4284C24.5629 68.6305 20.9818 18.0102 76.822 18.0102L67.7225 9.05123Z" fill="#0A00D8"/>
</svg>
