<svg width="100" height="101" viewBox="0 0 100 101" fill="none" xmlns="http://www.w3.org/2000/svg">
<path fill-rule="evenodd" clip-rule="evenodd" d="M99.6505 74.2746C99.5573 71.3008 97.7917 59.6838 77.9967 58.4756C75.1154 58.2898 72.0485 58.3827 68.9816 58.4756C65.3573 53.7359 58.8518 45.0001 54.8557 38.4017C57.3649 30.3164 61.2681 16.5621 61.5469 10.0567C61.8258 -0.259088 46.3057 0.29852 46.3057 0.29852C24.7448 2.71482 34.8747 30.7811 40.2649 42.9555C39.5214 45.8365 38.4062 49.461 37.1051 52.9925C35.7111 55.9664 34.2241 58.9403 32.6443 61.6354C31.9937 62.7506 31.3432 63.7727 30.7856 64.8883C30.6926 64.9808 30.5997 65.074 30.5068 65.1671C30.5068 65.1671 -4.06495 68.7915 1.32527 95.4634C1.32527 95.4634 1.78994 97.0434 3.46277 98.3446C3.74157 98.6234 4.11331 98.9021 4.57798 99.0878C7.45896 100.668 12.7562 101.318 22.3285 97.0434C28.5551 94.2553 34.503 85.8915 39.4285 76.784C50.2089 73.4383 61.1752 71.3933 61.1752 71.3933C68.4241 83.0102 83.5723 89.5159 83.5723 88.9584C96.3042 92.2109 99.2786 85.1477 99.8361 79.8509C100.115 78.1777 100.022 76.1334 99.6505 74.2746ZM10.6187 89.3296C7.92365 89.144 16.9383 76.4121 25.7671 76.2259C25.7671 76.2259 17.31 89.8877 10.6187 89.3296ZM48.722 10.986C54.8556 12.1012 46.3057 28.3648 46.3057 28.3648C43.2388 22.8816 42.4953 9.87079 48.722 10.986ZM46.4915 61.6354C48.1644 57.7321 49.4654 54.2936 50.3019 51.8772C51.7888 54.0147 53.4616 55.9664 54.9486 58.1039C55.4132 58.7544 55.785 59.312 56.2497 59.9626C52.904 60.4273 49.6513 60.9849 46.4915 61.6354ZM73.071 68.1408C73.071 68.1408 85.8961 66.4677 89.9848 73.9027C94.9104 83.0102 81.3423 79.8509 73.071 68.1408Z" fill="#0A00D8"/>
</svg>
