<svg width="101" height="101" viewBox="0 0 101 101" fill="none" xmlns="http://www.w3.org/2000/svg">
<path fill-rule="evenodd" clip-rule="evenodd" d="M50.4038 88.6649C71.4039 88.6649 88.4278 71.641 88.4278 50.641C88.4278 29.6409 71.4039 12.617 50.4038 12.617C29.4038 12.617 12.3799 29.6409 12.3799 50.641C12.3799 71.641 29.4038 88.6649 50.4038 88.6649ZM50.4038 100.641C78.018 100.641 100.404 78.2552 100.404 50.641C100.404 23.0268 78.018 0.640991 50.4038 0.640991C22.7896 0.640991 0.403809 23.0268 0.403809 50.641C0.403809 78.2552 22.7896 100.641 50.4038 100.641Z" fill="#0A00D8"/>
<path fill-rule="evenodd" clip-rule="evenodd" d="M31.2486 26.9153C32.4229 25.7512 34.3186 25.7595 35.4827 26.9338L73.8301 65.6175C74.9942 66.7919 74.9859 68.6876 73.8116 69.8517L69.559 74.0673C68.3847 75.2314 66.489 75.2232 65.3249 74.0488L26.9775 35.3651C25.8134 34.1907 25.8216 32.2951 26.996 31.1309L31.2486 26.9153Z" fill="#0A00D8"/>
<path fill-rule="evenodd" clip-rule="evenodd" d="M26.8278 69.6465C25.6637 68.4721 25.6719 66.5765 26.8463 65.4123L65.53 27.065C66.7044 25.9008 68.6 25.9091 69.7642 27.0834L73.9798 31.3361C75.1439 32.5104 75.1356 34.4061 73.9613 35.5702L35.2776 73.9176C34.1032 75.0817 32.2075 75.0734 31.0434 73.8991L26.8278 69.6465Z" fill="#0A00D8"/>
</svg>
