<svg width="100" height="100" viewBox="0 0 100 100" fill="none" xmlns="http://www.w3.org/2000/svg">
<path d="M44.5984 13.0314C44.8901 13.4702 44.7647 14.0564 44.3439 14.3735C43.1187 15.2966 40.6237 17.2957 38.5158 19.7408C38.0304 20.3038 37.1156 20.2152 36.7851 19.5493C34.8906 15.7328 32.2324 11.1824 24.5 11C19.062 10.8717 10 18.1119 10 28.5C10 38.8257 14.446 48.3844 25.3023 61.7569C25.4296 61.9137 25.5085 62.1031 25.5317 62.3038C25.6857 63.6344 26.4872 69.2484 29.7486 77.4143C30.1443 78.4049 28.9631 79.2742 28.1865 78.543C18.7863 69.6931 9.19534 56.9588 6 51C2.456 44.391 0 37.1145 0 29.8293C0 14.9705 11.115 0.792167 25.7713 0.792167C32.7318 0.792167 37.872 4.86145 41.0683 8.47682C42.4017 9.98499 43.7202 11.7103 44.5984 13.0314Z" fill="#0A00D8"/>
<path fill-rule="evenodd" clip-rule="evenodd" d="M72.3247 0C75 0.5 83.7728 4.88576 86.9245 7.33881C93.2257 12.2431 100 20.6022 100 33.5521C100 40.4483 97.0832 46.7535 93.1703 52.323C89.2413 57.9155 83.3513 63.5638 78 68.5C75.3509 70.8308 69.3865 76.7983 67 79C62.0822 83.5371 50.5 96.5 48.4655 100C42.3061 93 36.5 81.5 34.9314 77.0251C32.8194 71 30.5187 63.734 30.5187 54.027C30.5187 41.8957 35.0109 33.4527 42.3061 25.6908C47.0312 20.6635 53.2372 15.6379 60.2812 9.93374C63.6006 7.24569 69 3 72.3247 0ZM73.5 11C84.7261 14.5 89.8617 27 89.8617 33.5521C89.8617 37.6379 88.1201 42.0355 84.7261 46.8663C81.3484 51.6741 78.2425 54.6641 73 59.5C70.3933 61.9045 60.2812 71 60.2812 71C62.7409 68.7307 57.6594 73.3067 60.2812 71C60.2812 71 51.2649 79.4591 48.7015 82.5238C42.546 73.5 40.657 62.4811 40.657 54.027C40.657 44.9389 43.7945 38.6771 49.97 32.1066C54.299 27.5006 66.7707 16.4453 73.5 11Z" fill="#0A00D8"/>
</svg>
