<svg width="101" height="101" viewBox="0 0 101 101" fill="none" xmlns="http://www.w3.org/2000/svg">
<path fill-rule="evenodd" clip-rule="evenodd" d="M56.3762 77.4985C56.3762 77.8431 56.5109 78.1737 56.751 78.4183L77.0166 99.0616C77.5215 99.5759 78.344 99.576 78.8491 99.0619L99.1266 78.4183C99.3668 78.1737 99.5017 77.843 99.5017 77.4982V57.1694C99.5017 56.4483 98.9236 55.8638 98.2105 55.8638L57.6674 55.8638C56.9543 55.8638 56.3762 56.4483 56.3762 57.1694V77.4985ZM78.8632 91.0791C78.3539 91.6051 77.5153 91.6015 77.0104 91.071L62.4067 75.7278C62.1752 75.4845 62.0458 75.16 62.0458 74.8224V62.7295C62.0458 62.0084 62.6239 61.4239 63.337 61.4239H93.0573C93.7704 61.4239 94.3485 62.0084 94.3485 62.7295V74.5547C94.3485 74.8962 94.2162 75.2241 93.9799 75.4682L78.8632 91.0791Z" fill="#0A00D8"/>
<path fill-rule="evenodd" clip-rule="evenodd" d="M98.2105 56.6161L57.6674 56.6161C57.3658 56.6161 57.1206 56.8634 57.1206 57.1694V77.4985C57.1206 77.6447 57.1778 77.7848 57.2795 77.8885L77.5451 98.5317C77.7589 98.7495 78.1069 98.7495 78.3208 98.5318L98.5983 77.8883C98.7001 77.7847 98.7573 77.6445 98.7573 77.4982V57.1694C98.7573 56.8634 98.5121 56.6161 98.2105 56.6161ZM57.6674 55.1114L98.2105 55.1114C99.3351 55.1114 100.246 56.0332 100.246 57.1694V77.4982C100.246 78.0415 100.034 78.5628 99.6549 78.9484L79.3774 99.5919C78.5811 100.402 77.2842 100.402 76.4882 99.5914L56.2226 78.9482C55.8441 78.5626 55.6318 78.0415 55.6318 77.4985V57.1694C55.6318 56.0332 56.5427 55.1115 57.6674 55.1114ZM63.337 62.1762C63.0354 62.1762 62.7902 62.4235 62.7902 62.7295V74.8224C62.7902 74.9656 62.8451 75.1032 62.9432 75.2063L77.5469 90.5495C77.7607 90.7741 78.1155 90.7756 78.3312 90.5529L93.4479 74.942C93.548 74.8386 93.6041 74.6996 93.6041 74.5547V62.7295C93.6041 62.4235 93.3589 62.1762 93.0573 62.1762H63.337ZM61.3014 62.7295C61.3014 61.5934 62.2124 60.6716 63.337 60.6716H93.0573C94.182 60.6716 95.0929 61.5934 95.0929 62.7295V74.5547C95.0929 75.0929 94.8844 75.6097 94.5119 75.9944L79.3953 91.6053C78.5922 92.4346 77.2699 92.4289 76.4739 91.5925L61.8702 76.2493C61.5052 75.8659 61.3014 75.3544 61.3014 74.8224V62.7295Z" fill="#0A00D8"/>
<path d="M42.0482 0.254027C41.8205 0.181363 41.5761 0.181606 41.3485 0.254725L5.87384 11.6518C5.39297 11.8063 5.06637 12.2575 5.06637 12.7675V16.1145C5.06637 16.761 5.58501 17.2852 6.22479 17.2852H77.888C78.5277 17.2852 79.0464 16.761 79.0464 16.1145V12.9173C79.0464 12.4065 78.7187 11.9547 78.2367 11.8009L42.0482 0.254027Z" fill="#0A00D8"/>
<path fill-rule="evenodd" clip-rule="evenodd" d="M72.4637 31.6722C72.4637 31.0256 72.9824 30.5015 73.6221 30.5015L77.995 30.5015C78.6348 30.5015 79.1534 29.9773 79.1534 29.3308V23.2643C79.1534 22.6178 78.6348 22.0936 77.995 22.0936L6.26013 22.0936C5.62035 22.0936 5.10171 22.6177 5.10171 23.2643L5.10171 29.3307C5.10171 29.9773 5.62035 30.5015 6.26013 30.5015L10.9765 30.5015C11.6163 30.5015 12.1349 31.0256 12.1349 31.6722V62.9623C12.1349 63.6089 11.6163 64.133 10.9765 64.133L6.26013 64.133C5.62035 64.133 5.10171 64.6572 5.10171 65.3037L5.10171 71.3702C5.10171 72.0168 5.62035 72.5409 6.26013 72.5409L50.4209 72.5409V57.1694C50.4209 53.8882 52.5569 51.1075 55.5038 50.1771V31.6722C55.5038 31.0256 56.0224 30.5015 56.6622 30.5015L61.3219 30.5015C61.9617 30.5015 62.4803 31.0256 62.4803 31.6722V49.8452L72.4637 49.8452V31.6722ZM45.5204 31.6722C45.5204 31.0256 45.0017 30.5015 44.362 30.5015H39.7023C39.0625 30.5015 38.5439 31.0256 38.5439 31.6722V62.9623C38.5439 63.6089 39.0625 64.133 39.7023 64.133H44.362C45.0017 64.133 45.5204 63.6089 45.5204 62.9623V31.6722ZM28.5605 31.6722C28.5605 31.0256 28.0418 30.5015 27.402 30.5015L23.2767 30.5015C22.637 30.5015 22.1183 31.0256 22.1183 31.6722V62.9623C22.1183 63.6089 22.637 64.133 23.2767 64.133L27.402 64.133C28.0418 64.133 28.5605 63.6089 28.5605 62.9623V31.6722Z" fill="#0A00D8"/>
<path d="M50.422 77.6218C50.4534 79.5093 51.205 81.3142 52.5234 82.6572L57.4851 87.7113H1.40451C0.764734 87.7113 0.246094 87.1871 0.246094 86.5406V78.7925C0.246094 78.1459 0.764734 77.6218 1.40451 77.6218H50.422Z" fill="#0A00D8"/>
</svg>
