<svg width="87" height="101" viewBox="0 0 87 101" fill="none" xmlns="http://www.w3.org/2000/svg">
<path fill-rule="evenodd" clip-rule="evenodd" d="M74.9185 40.7353C74.9185 39.1123 73.6028 37.7966 71.9798 37.7966H52.9306C51.2671 37.7966 49.9185 36.4481 49.9185 34.7846V15.7353C49.9185 14.1123 48.6028 12.7966 46.9798 12.7966H15.28C13.6165 12.7966 12.2679 14.1451 12.2679 15.8086V85.0858C12.2679 86.7493 13.6165 88.0978 15.28 88.0978H71.9065C73.57 88.0978 74.9185 86.7493 74.9185 85.0858V40.7353ZM86.1049 30.8939C86.6573 31.4571 86.9667 32.2144 86.9667 33.0032V97.134C86.9667 98.7975 85.6182 100.146 83.9547 100.146H3.23177C1.56827 100.146 0.219727 98.7975 0.219727 97.134V3.15805C0.219727 1.49454 1.56827 0.145996 3.23177 0.145996H54.678C55.4869 0.145996 56.2618 0.47134 56.8282 1.04878L86.1049 30.8939Z" fill="#0A00D8"/>
<path fill-rule="evenodd" clip-rule="evenodd" d="M24.9185 47.7364C24.9185 46.0729 26.2671 44.7243 27.9306 44.7243H59.8583C61.5218 44.7243 62.8703 46.0729 62.8703 47.7364V53.7605C62.8703 55.424 61.5218 56.7725 59.8583 56.7725H27.9306C26.2671 56.7725 24.9185 55.424 24.9185 53.7605V47.7364Z" fill="#0A00D8"/>
<path fill-rule="evenodd" clip-rule="evenodd" d="M24.9185 67.0135C24.9185 65.35 26.2671 64.0014 27.9306 64.0014H59.8583C61.5218 64.0014 62.8703 65.35 62.8703 67.0135V73.0376C62.8703 74.7011 61.5218 76.0496 59.8583 76.0496H27.9306C26.2671 76.0496 24.9185 74.7011 24.9185 73.0376V67.0135Z" fill="#0A00D8"/>
<path fill-rule="evenodd" clip-rule="evenodd" d="M24.9185 29.0617C24.9185 27.3982 26.2671 26.0496 27.9306 26.0496H39.6776C41.3411 26.0496 42.6896 27.3982 42.6896 29.0617V35.0858C42.6896 36.7493 41.3411 38.0978 39.6776 38.0978H27.9306C26.2671 38.0978 24.9185 36.7493 24.9185 35.0858V29.0617Z" fill="#0A00D8"/>
</svg>
