<svg width="101" height="101" viewBox="0 0 101 101" fill="none" xmlns="http://www.w3.org/2000/svg">
<path fill-rule="evenodd" clip-rule="evenodd" d="M0.96106 3.82564C0.96106 2.18189 2.30791 0.849365 3.96933 0.849365H97.9528C99.6142 0.849365 100.961 2.18189 100.961 3.82564V12.2657C100.961 12.9659 100.712 13.6436 100.256 14.1798L58.1681 63.7605C57.7129 64.2967 57.4634 64.9744 57.4634 65.6746V87.153C57.4634 87.7406 57.2876 88.3151 56.9582 88.804L49.7383 99.5185C48.0873 101.969 44.227 100.812 44.227 97.8676V65.6819C44.227 64.9846 43.9795 64.3093 43.5277 63.7741L1.66042 14.1782C1.20858 13.6429 0.96106 12.9677 0.96106 12.2703V3.82564ZM48.5396 49.119C49.7314 50.5574 51.9498 50.5741 53.1635 49.1537L79.5725 18.2475C81.2256 16.3129 79.8357 13.3497 77.2752 13.3497H25.2601C22.721 13.3497 21.3239 16.2699 22.9336 18.2128L48.5396 49.119Z" fill="#0A00D8"/>
</svg>
