<svg width="81" height="101" viewBox="0 0 81 101" fill="none" xmlns="http://www.w3.org/2000/svg">
<path d="M27.7997 91.4943C27.7997 89.8157 29.1605 88.4549 30.8391 88.4549H49.0753C50.7539 88.4549 52.1147 89.8157 52.1147 91.4943V97.5731C52.1147 99.2516 50.7539 100.612 49.0753 100.612H30.8391C29.1605 100.612 27.7997 99.2516 27.7997 97.5731V91.4943Z" fill="#0A00D8"/>
<path d="M0.445312 59.8848C0.445312 58.2062 1.80609 56.8454 3.48469 56.8454H21.7209C23.3995 56.8454 24.7603 58.2062 24.7603 59.8848V65.9636C24.7603 67.6422 23.3995 69.0029 21.7209 69.0029H3.48469C1.80609 69.0029 0.445312 67.6422 0.445312 65.9636V59.8848Z" fill="#0A00D8"/>
<path d="M28.1738 59.8848C28.1738 58.2062 29.5346 56.8454 31.2132 56.8454H49.4494C51.128 56.8454 52.4888 58.2062 52.4888 59.8848V65.9636C52.4888 67.6422 51.128 69.0029 49.4494 69.0029H31.2132C29.5346 69.0029 28.1738 67.6422 28.1738 65.9636V59.8848Z" fill="#0A00D8"/>
<path d="M55.7619 59.8848C55.7619 58.2062 57.1227 56.8454 58.8013 56.8454H77.0376C78.7162 56.8454 80.0769 58.2062 80.0769 59.8848V65.9636C80.0769 67.6422 78.7162 69.0029 77.0376 69.0029H58.8013C57.1227 69.0029 55.7619 67.6422 55.7619 65.9636V59.8848Z" fill="#0A00D8"/>
<path d="M14.0523 75.6896C14.0523 74.011 15.4131 72.6502 17.0917 72.6502H35.3279C37.0065 72.6502 38.3673 74.011 38.3673 75.6896V81.7683C38.3673 83.4469 37.0065 84.8077 35.3279 84.8077H17.0917C15.4131 84.8077 14.0523 83.4469 14.0523 81.7683V75.6896Z" fill="#0A00D8"/>
<path d="M41.6048 75.6896C41.6048 74.011 42.9656 72.6502 44.6442 72.6502H62.8804C64.559 72.6502 65.9198 74.011 65.9198 75.6896V81.7683C65.9198 83.4469 64.559 84.8077 62.8804 84.8077H44.6442C42.9656 84.8077 41.6048 83.4469 41.6048 81.7683V75.6896Z" fill="#0A00D8"/>
<path d="M9.63258 53.8061H21.7209C23.641 53.8061 25.3531 54.6962 26.4671 56.0864C27.5811 54.6962 29.2932 53.8061 31.2132 53.8061H49.4494C51.3296 53.8061 53.0103 54.6596 54.1254 56.0004C55.2404 54.6596 56.9212 53.8061 58.8013 53.8061H72.2445C71.9054 44.97 69.1063 41.2976 67.8036 40.0561C67.5006 39.7673 67.0581 39.9518 66.9766 40.3625C66.1561 44.4976 65.3843 47.3784 62.7785 49.1588C62.3486 49.4526 61.8326 49.0338 61.9427 48.525C63.06 43.3594 61.8191 40.2685 61.6438 39.8691C61.6307 39.8393 61.6204 39.8136 61.611 39.7824C61.4431 39.2267 59.6284 33.3336 56.6792 28.2295C55.023 25.3595 54.4047 20.0408 55.8407 15.0851C56.0174 14.4756 55.3369 14.0066 54.9243 14.4888C51.1976 18.8443 48.4953 26.7451 47.4678 33.7179C47.3643 34.4203 46.4444 34.4515 46.3752 33.7449C46.3074 33.0517 46.2454 32.3442 46.1831 31.6343C45.9249 28.6893 45.6631 25.7037 44.9697 23.5353C43.9848 20.4573 42.9634 17.9202 42.0884 15.7469C40.1843 11.0175 38.735 5.02596 40.0598 1.36159C40.2267 0.900112 39.889 0.429644 39.4693 0.683966C36.4547 2.51083 33.5263 10.5889 33.5263 15.1224C33.5263 15.5943 33.5314 16.0825 33.5366 16.5844C33.5814 20.8809 33.6366 26.1898 30.6059 31.0115C30.3016 31.4957 29.5746 31.2752 29.5091 30.7071C28.6574 23.3227 23.5173 19.8247 20.4465 19.0236C20.0115 18.9101 19.6804 19.3429 19.8276 19.7677C21.1449 23.57 20.9764 26.4249 20.5052 30.7068C20.3104 32.4771 19.8945 33.9742 19.5047 35.3773C18.9738 37.2882 18.4914 39.0249 18.6816 41.0407C18.8741 43.081 19.5438 45.7323 19.8436 46.8509C19.9252 47.1553 19.7586 47.4663 19.4437 47.4776C18.4952 47.5117 16.5051 47.0265 15.0229 42.8666C14.8734 42.4471 14.3654 42.3115 14.0851 42.6576C12.988 44.0125 10.7555 47.4263 9.63258 53.8061Z" fill="#0A00D8"/>
</svg>
