<svg width="100" height="89" viewBox="0 0 100 89" fill="none" xmlns="http://www.w3.org/2000/svg">
<path fill-rule="evenodd" clip-rule="evenodd" d="M6.8963 0.0844727C3.08758 0.0844727 0 3.21542 0 7.07765V84.0026C0 86.7613 2.23858 88.9977 5 88.9977H84.1794C86.5247 88.9977 88.5548 87.3676 89.0614 85.0777L99.8294 36.404C100.798 32.0324 97.5194 27.8777 93.1008 27.8777H90.1594C89.6071 27.8777 89.1594 27.43 89.1594 26.8777V18.1158C89.1594 14.2768 86.1074 11.1555 82.3216 11.1229L35.6835 10.7212V7.07765C35.6835 3.21542 32.5959 0.0844727 28.7871 0.0844727H6.8963ZM78.3075 27.8777C78.8598 27.8777 79.3075 27.43 79.3075 26.8777V22.079C79.3075 21.53 78.865 21.0837 78.3161 21.079L32.6693 20.6858C28.8836 20.6532 25.8316 17.532 25.8316 13.6929V11.0747C25.8316 10.5224 25.3839 10.0747 24.8316 10.0747H10.8519C10.2996 10.0747 9.85186 10.5224 9.85186 11.0747V42.2379L12.0096 33.2217C12.76 30.0858 15.5291 27.8777 18.7114 27.8777H78.3075ZM89.4075 37.868H21.0355L11.1902 79.0074H80.3121L89.4075 37.868Z" fill="#0A00D8"/>
</svg>
