<svg width="101" height="101" viewBox="0 0 101 101" fill="none" xmlns="http://www.w3.org/2000/svg">
<path fill-rule="evenodd" clip-rule="evenodd" d="M68.8397 93.2637C82.0434 93.2637 92.747 82.5601 92.747 69.3565C92.747 56.1528 82.0434 45.4492 68.8397 45.4492C55.6361 45.4492 44.9325 56.1528 44.9325 69.3565C44.9325 82.5601 55.6361 93.2637 68.8397 93.2637ZM68.8397 100.794C86.202 100.794 100.277 86.7187 100.277 69.3565C100.277 51.9942 86.202 37.9193 68.8397 37.9193C51.4775 37.9193 37.4026 51.9942 37.4026 69.3565C37.4026 86.7187 51.4775 100.794 68.8397 100.794Z" fill="#0A00D8"/>
<path fill-rule="evenodd" clip-rule="evenodd" d="M56.796 54.4391C57.5344 53.7071 58.7263 53.7123 59.4582 54.4507L83.5688 78.7728C84.3008 79.5112 84.2956 80.7031 83.5572 81.435L80.8834 84.0855C80.1451 84.8175 78.9532 84.8123 78.2212 84.0739L54.1106 59.7518C53.3787 59.0134 53.3839 57.8215 54.1222 57.0896L56.796 54.4391Z" fill="#0A00D8"/>
<path fill-rule="evenodd" clip-rule="evenodd" d="M54.0165 81.306C53.2845 80.5676 53.2897 79.3757 54.0281 78.6438L78.3502 54.5332C79.0886 53.8012 80.2805 53.8064 81.0124 54.5448L83.663 57.2186C84.3949 57.9569 84.3897 59.1488 83.6513 59.8808L59.3292 83.9914C58.5909 84.7233 57.399 84.7181 56.667 83.9798L54.0165 81.306Z" fill="#0A00D8"/>
<path d="M9.16925 12.68C9.16925 11.0264 10.5097 9.68597 12.1633 9.68597H52.4157C54.0692 9.68597 55.4097 11.0264 55.4097 12.68V34.4132C58.2257 33.3302 61.2056 32.5778 64.3021 32.2036V3.01668C64.3021 1.78889 63.3068 0.793579 62.079 0.793579H2.49995C1.27217 0.793579 0.276855 1.78889 0.276855 3.01668V72.822C0.276855 74.0498 1.27217 75.0451 2.49996 75.0451H31.8441C31.5613 73.1901 31.4146 71.2904 31.4146 69.3565C31.4146 68.2772 31.4603 67.2087 31.5498 66.1527H12.1633C10.5097 66.1527 9.16925 64.8122 9.16925 63.1587V12.68Z" fill="#0A00D8"/>
<path d="M38.4718 47.4786C36.5133 50.1924 34.9096 53.1792 33.7287 56.371H21.5003C19.8467 56.371 18.5063 55.0305 18.5063 53.377V50.4726C18.5063 48.8191 19.8467 47.4786 21.5003 47.4786H38.4718Z" fill="#0A00D8"/>
<path d="M46.5126 39.3179C45.3358 40.194 44.2122 41.1377 43.1475 42.1432H21.5003C19.8467 42.1432 18.5063 40.8028 18.5063 39.1492V36.2448C18.5063 34.5913 19.8467 33.2508 21.5003 33.2508H43.5233C45.1768 33.2508 46.5173 34.5913 46.5173 36.2448V39.1492C46.5173 39.2058 46.5157 39.262 46.5126 39.3179Z" fill="#0A00D8"/>
<path d="M21.5003 19.4676C19.8467 19.4676 18.5063 20.8081 18.5063 22.4617V25.366C18.5063 27.0196 19.8467 28.36 21.5003 28.36H43.5233C45.1768 28.36 46.5173 27.0196 46.5173 25.366V22.4617C46.5173 20.8081 45.1768 19.4676 43.5233 19.4676H21.5003Z" fill="#0A00D8"/>
</svg>
