<svg width="101" height="101" viewBox="0 0 101 101" fill="none" xmlns="http://www.w3.org/2000/svg">
<path d="M97.3113 0.96405C98.9719 0.96405 100.318 2.31827 100.318 3.98878L100.318 34.6938C100.318 37.3779 97.1013 38.7322 95.2009 36.8482L64.2273 6.14322C62.3118 4.24425 63.6484 0.964052 66.3378 0.964051L97.3113 0.96405Z" fill="#0A00D8"/>
<path d="M3.32489 0.96405C1.6643 0.96405 0.318117 2.31827 0.318117 3.98878L0.318115 34.6938C0.318115 37.3779 3.53492 38.7322 5.43535 36.8482L36.4089 6.14322C38.3244 4.24425 36.9878 0.964052 34.2984 0.964051L3.32489 0.96405Z" fill="#0A00D8"/>
<path d="M97.3113 100.964C98.9719 100.964 100.318 99.6098 100.318 97.9393L100.318 67.2343C100.318 64.5502 97.1013 63.1959 95.2009 65.0799L64.2273 95.7849C62.3118 97.6838 63.6484 100.964 66.3378 100.964H97.3113Z" fill="#0A00D8"/>
<path d="M3.32489 100.964C1.6643 100.964 0.318117 99.6098 0.318117 97.9393L0.318115 67.2343C0.318115 64.5502 3.53492 63.1959 5.43535 65.0799L36.4089 95.7849C38.3244 97.6838 36.9878 100.964 34.2984 100.964H3.32489Z" fill="#0A00D8"/>
</svg>
