<svg width="101" height="101" viewBox="0 0 101 101" fill="none" xmlns="http://www.w3.org/2000/svg">
<path fill-rule="evenodd" clip-rule="evenodd" d="M67.043 5.99195C67.4193 6.64937 67.5276 7.42853 67.3452 8.165L45.4207 96.6985C45.23 97.4684 44.7377 98.1272 44.0565 98.5239L40.5652 100.558C39.1774 101.366 37.403 100.886 36.6018 99.4861L34.7964 96.3314C34.422 95.6772 34.3128 94.9022 34.4917 94.1687L56.1827 5.21227C56.3712 4.43919 56.8637 3.77693 57.5467 3.37813L61.0295 1.34443C62.4174 0.533993 64.1938 1.01315 64.9956 2.41424L67.043 5.99195Z" fill="#0A00D8"/>
<path d="M75.6185 39.2481C74.0677 37.6213 71.3523 38.3027 70.7376 40.4729L68.4152 48.6721C68.1299 49.6793 68.3999 50.7635 69.123 51.5151L81.9733 64.8709C83.0393 65.9788 83.0689 67.7316 82.041 68.8755L68.9939 83.3959C68.344 84.1191 68.0943 85.1215 68.328 86.0688L70.2658 93.9235C70.8189 96.1653 73.6075 96.9075 75.1847 95.2327L100.013 68.8697C101.081 67.7349 101.076 65.9526 100 64.8244L75.6185 39.2481Z" fill="#0A00D8"/>
<path d="M26.0028 13.4896C27.5537 11.8627 30.269 12.5441 30.8837 14.7143L33.2061 22.9135C33.4914 23.9207 33.2215 25.0049 32.4983 25.7566L19.648 39.1123C18.582 40.2202 18.5524 41.973 19.5803 43.117L32.6275 57.6373C33.2773 58.3605 33.527 59.363 33.2933 60.3102L31.3555 68.1649C30.8025 70.4067 28.0139 71.1489 26.4366 69.4741L1.60868 43.1111C0.539968 41.9763 0.545337 40.1941 1.62086 39.0659L26.0028 13.4896Z" fill="#0A00D8"/>
</svg>
