<svg width="86" height="101" viewBox="0 0 86 101" fill="none" xmlns="http://www.w3.org/2000/svg">
<path d="M33.2918 0.113647C31.6176 0.113647 30.2603 1.44581 30.2603 3.08918V12.4593H3.06964C1.39533 12.4593 0.0380859 13.7915 0.0380859 15.4349V21.8295C0.0380859 23.4729 1.39533 24.805 3.06964 24.805H82.0065C83.6808 24.805 85.0381 23.4729 85.0381 21.8295V15.4349C85.0381 13.7915 83.6808 12.4593 82.0065 12.4593H55.4455V3.08918C55.4455 1.44581 54.0882 0.113647 52.4139 0.113647H33.2918Z" fill="#0A00D8"/>
<path d="M36.871 48.8657C36.7996 47.2023 35.3518 45.9199 33.6587 46.0205L30.2792 46.2211C28.6297 46.319 27.3642 47.6957 27.4337 49.3161L28.6868 78.5223C28.7581 80.1856 30.2059 81.4681 31.899 81.3675L35.2785 81.1667C36.928 81.0688 38.1936 79.6923 38.124 78.0718L36.871 48.8657Z" fill="#0A00D8"/>
<path d="M54.6349 46.1992C56.2839 46.2826 57.5615 47.6458 57.5087 49.2657L56.5566 78.4831C56.5023 80.1484 55.0656 81.4455 53.3704 81.3598L49.9882 81.1887C48.3393 81.1053 47.0617 79.742 47.1145 78.1222L48.0666 48.9049C48.1209 47.2396 49.5576 45.9425 51.2529 46.0282L54.6349 46.1992Z" fill="#0A00D8"/>
<path fill-rule="evenodd" clip-rule="evenodd" d="M3.81583 27.8914L9.63758 94.6699C9.90595 97.7486 12.5304 100.114 15.6786 100.114H69.3975C72.5457 100.114 75.1702 97.7486 75.4386 94.6699L81.2603 27.8914H3.81583ZM17.0239 39.7935L21.245 88.2115H63.8311L68.0521 39.7935H17.0239Z" fill="#0A00D8"/>
</svg>
