<svg width="101" height="101" viewBox="0 0 101 101" fill="none" xmlns="http://www.w3.org/2000/svg">
<path fill-rule="evenodd" clip-rule="evenodd" d="M100.338 50.9792C100.338 78.5935 77.9525 100.979 50.3383 100.979C22.724 100.979 0.338257 78.5935 0.338257 50.9792C0.338257 23.365 22.724 0.979248 50.3383 0.979248C77.9525 0.979248 100.338 23.365 100.338 50.9792ZM88.3622 50.9792C88.3622 71.9793 71.3383 89.0032 50.3383 89.0032C29.3382 89.0032 12.3143 71.9793 12.3143 50.9792C12.3143 45.5545 13.4503 40.3952 15.4973 35.726L16.1436 35.6013C22.7111 34.3339 27.2889 36.3509 30.3366 38.6321C31.0599 39.1735 31.6995 39.7336 32.2548 40.2746C30.2669 42.8928 28.8322 45.5275 27.9901 48.2154C26.6711 52.4253 26.9306 56.376 28.2263 59.9552C29.4671 63.3828 31.5863 66.2784 33.7007 68.6905C35.4551 70.6919 37.4634 72.6369 39.2574 74.3744C39.6038 74.7098 39.9423 75.0377 40.2693 75.3566L44.5564 79.5371L53.5446 70.3197L60.404 77.0086C60.8775 77.4704 61.6357 77.4608 62.0975 76.9873L64.6058 74.415C65.0676 73.9414 65.0581 73.1832 64.5845 72.7215L57.7251 66.0326L66.0862 57.4583L72.9456 64.1472C73.4191 64.609 74.1774 64.5994 74.6391 64.1259L77.1474 61.5536C77.6092 61.08 77.5997 60.3218 77.1261 59.86L70.2667 53.1712L79.4639 43.7395L75.1767 39.559C74.9043 39.2933 74.6213 39.015 74.3281 38.7266C70.7781 35.2355 65.7246 30.2658 59.5939 28.2433C55.9799 27.051 51.9795 26.8357 47.7413 28.2054C45.3693 28.972 43.0515 30.1927 40.7694 31.851C39.8399 30.9329 38.756 29.9747 37.513 29.0443C34.1544 26.5305 29.6552 24.2497 24.0629 23.4942C30.8902 16.9655 40.1459 12.9553 50.3383 12.9553C71.3383 12.9553 88.3622 29.9792 88.3622 50.9792ZM62.479 44.0035L44.3619 62.5826C43.7834 61.9865 43.2319 61.3955 42.7066 60.7962C41.035 58.8892 40.0012 57.2988 39.4872 55.8788C39.028 54.6104 38.9309 53.3518 39.4183 51.796C39.9497 50.1001 41.2857 47.7256 44.3284 44.6053C47.3297 41.5275 49.6933 40.1605 51.4242 39.6011C53.0441 39.0776 54.4331 39.1516 55.842 39.6164C58.0194 40.3347 60.1137 41.8758 62.479 44.0035Z" fill="#0A00D8"/>
</svg>
