<svg width="101" height="101" viewBox="0 0 101 101" fill="none" xmlns="http://www.w3.org/2000/svg">
<mask id="path-1-inside-1_224_765" fill="white">
<path d="M51.8978 26.7862L43.4523 35.2278L52.6043 44.3756L0.789185 44.2571L0.789185 56.1953L52.6043 56.3139L43.0588 65.855L51.5042 74.2967L76.0582 50.9357L51.8978 26.7862Z"/>
<path d="M17.5421 17.3817C16.3656 16.2054 16.3598 14.2907 17.6051 13.1873C24.2278 7.31951 32.3047 3.3009 41.0192 1.56794C50.7208 -0.361324 60.7767 0.628841 69.9154 4.41322C79.054 8.1976 86.865 14.6062 92.3605 22.8287C97.856 31.0511 100.789 40.7181 100.789 50.6072C100.789 60.4962 97.856 70.1632 92.3605 78.3857C86.865 86.6081 79.054 93.0167 69.9154 96.8011C60.7767 100.586 50.7208 101.576 41.0192 99.6464C32.3048 97.9135 24.2278 93.8949 17.6051 88.027C16.3598 86.9237 16.3656 85.0089 17.5422 83.8327L21.2604 80.1154C22.4369 78.9392 24.3374 78.9492 25.6019 80.0306C30.6321 84.3322 36.6956 87.2845 43.2206 88.5821C50.7333 90.0761 58.5204 89.3093 65.5972 86.3788C72.674 83.4482 78.7226 78.4855 82.9782 72.1182C87.2338 65.751 89.5052 58.265 89.5052 50.6072C89.5052 42.9493 87.2338 35.4634 82.9782 29.0961C78.7226 22.7288 72.674 17.7661 65.5972 14.8356C58.5204 11.905 50.7333 11.1383 43.2206 12.6322C36.6955 13.9298 30.6321 16.8822 25.6019 21.1838C24.3374 22.2651 22.4369 22.2752 21.2603 21.0989L17.5421 17.3817Z"/>
</mask>
<path d="M43.4523 35.2278L35.066 26.8377C32.8402 29.0625 31.5896 32.0807 31.5896 35.2278C31.5896 38.3749 32.8402 41.3931 35.066 43.6179L43.4523 35.2278ZM51.8978 26.7862L60.2841 18.3961C55.6518 13.7659 48.1437 13.7659 43.5114 18.3961L51.8978 26.7862ZM0.789185 56.1953H-11.0735C-11.0735 62.7363 -5.77894 68.0431 0.762045 68.058L0.789185 56.1953ZM0.789185 44.2571L0.816325 32.3944C-2.33456 32.3872 -5.35886 33.6338 -7.58943 35.8593C-9.81999 38.0848 -11.0735 41.1062 -11.0735 44.2571H0.789185ZM51.5042 74.2967L43.1178 82.6867C47.6695 87.2363 55.0185 87.327 59.681 82.8911L51.5042 74.2967ZM43.0588 65.855L34.6725 57.4649C32.4466 59.6898 31.1961 62.7079 31.196 65.855C31.196 69.0021 32.4466 72.0203 34.6724 74.2451L43.0588 65.855ZM76.0582 50.9357L84.235 59.5301C86.5518 57.3258 87.8806 54.2796 87.92 51.082C87.9594 47.8844 86.7062 44.8063 84.4445 42.5456L76.0582 50.9357ZM52.6043 44.3756L52.5772 56.2383C57.3806 56.2493 61.7166 53.3625 63.5594 48.9266C65.4021 44.4907 64.388 39.3813 60.9906 35.9855L52.6043 44.3756ZM52.6043 56.3139L60.9906 64.704C64.3809 61.3152 65.3986 56.219 63.5697 51.788C61.7409 47.357 57.425 44.4621 52.6314 44.4512L52.6043 56.3139ZM41.0192 1.56794L38.7055 -10.067L41.0192 1.56794ZM41.0192 99.6464L38.7055 111.281L41.0192 99.6464ZM43.2206 88.5821L40.9069 100.217L43.2206 88.5821ZM43.2206 12.6322L40.9069 0.997337L43.2206 12.6322ZM25.6019 21.1838L17.892 12.1681V12.1681L25.6019 21.1838ZM21.2603 21.0989L12.8732 29.4882H12.8732L21.2603 21.0989ZM21.2604 80.1154L12.8732 71.7261L12.8732 71.7261L21.2604 80.1154ZM25.6019 80.0306L33.3117 71.0149L25.6019 80.0306ZM17.6051 88.027L25.472 79.1481L17.6051 88.027ZM17.5422 83.8327L25.9293 92.222H25.9293L17.5422 83.8327ZM17.6051 13.1873L25.472 22.0663L17.6051 13.1873ZM17.5421 17.3817L25.9293 8.9924V8.9924L17.5421 17.3817ZM51.8387 43.6179L60.2841 35.1763L43.5114 18.3961L35.066 26.8377L51.8387 43.6179ZM12.6519 56.1953L12.6519 44.2571L-11.0735 44.2571L-11.0735 56.1953H12.6519ZM59.8905 65.9066L51.4451 57.465L34.6724 74.2451L43.1178 82.6867L59.8905 65.9066ZM43.5114 35.1763L67.6719 59.3258L84.4445 42.5456L60.2841 18.3961L43.5114 35.1763ZM60.9906 35.9855L51.8387 26.8377L35.066 43.6179L44.218 52.7657L60.9906 35.9855ZM0.762045 56.1198L52.5772 56.2383L52.6315 32.5129L0.816325 32.3944L0.762045 56.1198ZM52.6314 44.4512L0.816325 44.3326L0.762045 68.058L52.5772 68.1766L52.6314 44.4512ZM51.4451 74.2452L60.9906 64.704L44.218 47.9237L34.6725 57.4649L51.4451 74.2452ZM59.681 82.8911L84.235 59.5301L67.8814 42.3413L43.3273 65.7023L59.681 82.8911ZM25.472 22.0663C30.5236 17.5905 36.685 14.5248 43.3329 13.2028L38.7055 -10.067C27.9245 -7.92304 17.9319 -2.95142 9.73819 4.30836L25.472 22.0663ZM43.3329 13.2028C50.7339 11.7311 58.4053 12.4865 65.3767 15.3734L74.454 -6.54692C63.1481 -11.2288 50.7076 -12.4537 38.7055 -10.067L43.3329 13.2028ZM65.3767 15.3734C72.3481 18.2603 78.3061 23.1488 82.4978 29.4204L102.223 16.2369C95.4238 6.0636 85.76 -1.86506 74.454 -6.54692L65.3767 15.3734ZM82.4978 29.4204C86.6894 35.692 88.9265 43.065 88.9265 50.6072L112.652 50.6072C112.652 38.3712 109.023 26.4103 102.223 16.2369L82.4978 29.4204ZM88.9265 50.6072C88.9265 58.1493 86.6894 65.5224 82.4978 71.7939L102.223 84.9774C109.023 74.8041 112.652 62.8431 112.652 50.6072L88.9265 50.6072ZM82.4978 71.7939C78.3062 78.0655 72.3481 82.9541 65.3767 85.841L74.454 107.761C85.76 103.079 95.4239 95.1507 102.223 84.9774L82.4978 71.7939ZM65.3767 85.841C58.4053 88.7279 50.734 89.4833 43.3329 88.0115L38.7055 111.281C50.7076 113.668 63.1481 112.443 74.454 107.761L65.3767 85.841ZM43.3329 88.0115C36.685 86.6895 30.5237 83.6239 25.472 79.1481L9.7382 96.906C17.932 104.166 27.9245 109.137 38.7055 111.281L43.3329 88.0115ZM25.9293 92.222L29.6475 88.5047L12.8732 71.7261L9.15502 75.4434L25.9293 92.222ZM17.892 89.0462C24.4631 94.6656 32.3836 98.5221 40.9069 100.217L45.5343 76.9472C41.0075 76.047 36.801 73.9988 33.3117 71.0149L17.892 89.0462ZM40.9069 100.217C50.7201 102.168 60.8918 101.167 70.1358 97.3389L61.0585 75.4186C56.149 77.4517 50.7465 77.9837 45.5343 76.9472L40.9069 100.217ZM70.1358 97.3389C79.3799 93.5109 87.2814 87.0282 92.8409 78.71L73.1155 65.5265C70.1637 69.9429 65.968 73.3856 61.0585 75.4186L70.1358 97.3389ZM92.8409 78.71C98.4004 70.3918 101.368 60.612 101.368 50.6072L77.6425 50.6072C77.6425 55.9181 76.0672 61.1101 73.1155 65.5265L92.8409 78.71ZM101.368 50.6072C101.368 40.6024 98.4004 30.8225 92.8409 22.5043L73.1155 35.6879C76.0672 40.1043 77.6425 45.2962 77.6425 50.6072L101.368 50.6072ZM92.8409 22.5043C87.2814 14.1862 79.3799 7.70344 70.1358 3.87542L61.0585 25.7957C65.968 27.8288 70.1638 31.2714 73.1155 35.6879L92.8409 22.5043ZM70.1358 3.87542C60.8918 0.0474036 50.7201 -0.954129 40.9069 0.997337L45.5343 24.2671C50.7465 23.2306 56.149 23.7626 61.0585 25.7957L70.1358 3.87542ZM40.9069 0.997337C32.3836 2.69228 24.4631 6.54879 17.892 12.1681L33.3117 30.1995C36.801 27.2156 41.0075 25.1673 45.5343 24.2671L40.9069 0.997337ZM29.6475 12.7096L25.9293 8.9924L9.15502 25.771L12.8732 29.4882L29.6475 12.7096ZM17.892 12.1681C20.8871 9.60684 26.0404 9.10348 29.6475 12.7096L12.8732 29.4882C18.8335 35.4469 27.7877 34.9234 33.3117 30.1995L17.892 12.1681ZM29.6475 88.5047C26.0404 92.1109 20.8871 91.6075 17.892 89.0462L33.3117 71.0149C27.7877 66.291 18.8335 65.7674 12.8732 71.7261L29.6475 88.5047ZM25.472 79.1481C29.6965 82.891 29.2435 88.9087 25.9293 92.222L9.15503 75.4434C3.4877 81.1092 3.02317 90.9564 9.7382 96.906L25.472 79.1481ZM9.73819 4.30836C3.02315 10.258 3.48769 20.1051 9.15502 25.771L25.9293 8.9924C29.2434 12.3057 29.6965 18.3233 25.472 22.0663L9.73819 4.30836Z" fill="#0A00D8" mask="url(#path-1-inside-1_224_765)"/>
</svg>
