<svg width="101" height="101" viewBox="0 0 101 101" fill="none" xmlns="http://www.w3.org/2000/svg">
<path d="M38.3791 51.3579C38.3791 56.2885 35.7718 60.2843 32.5804 60.2843C29.3891 60.2843 26.7818 56.2885 26.7818 51.3579C26.7818 46.4273 29.3766 42.427 32.5804 42.427C35.7843 42.427 38.3791 46.425 38.3791 51.3579Z" fill="#0A00D8"/>
<path d="M69.112 60.2843C72.3033 60.2843 74.9106 56.2885 74.9106 51.3579C74.9106 46.425 72.3158 42.427 69.112 42.427C65.9081 42.427 63.3133 46.4273 63.3133 51.3579C63.3133 56.2885 65.9206 60.2843 69.112 60.2843Z" fill="#0A00D8"/>
<path d="M94.6657 0.765593C94.5164 0.774113 94.8669 0.751255 94.6657 0.765593C100.46 0.995762 100.7 6.06195 100.7 7.17969C100.7 8.29743 100.594 8.91751 100.521 9.76148C100.377 11.4446 100.126 13.784 99.701 16.4261C99.0391 20.5393 97.8847 25.853 95.7949 30.5933C99.249 37.3743 100.139 45.2721 100.139 50.5037C100.139 61.7419 96.0895 71.1644 89.1163 77.7385C84.9401 81.6757 79.8603 84.4578 74.254 86.0438C74.6758 87.0428 75.0155 88.0463 75.2878 89.0287C76.5195 93.4717 76.5182 98.1668 76.5175 100.761H64.9202C64.9202 98.0316 64.8889 95.0126 64.1334 92.287C63.4242 89.7287 62.2503 88.022 60.2234 87.0619C57.7508 85.8906 56.4053 83.1108 56.9894 80.3804C57.5735 77.65 59.9298 75.7047 62.6531 75.7047C70.3562 75.7047 76.8078 73.1788 81.2716 68.9705C85.6769 64.8172 88.5413 58.6629 88.5413 50.5037C88.5413 45.4193 87.4398 38.6501 84.4139 34.2398C83.0894 32.3093 83.0018 29.7576 84.1906 27.7361C86.1938 24.3298 87.6418 18.2809 88.4052 13.5374C84.3035 14.3329 79.7036 15.7147 76.4756 17.8725C74.7146 19.0496 72.4709 19.1566 70.6112 18.1521C66.3027 15.8249 58.2555 12.7821 50.7013 12.6683C43.147 12.7821 35.0998 15.8249 30.7913 18.1521C28.9316 19.1566 26.6879 19.0496 24.9269 17.8725C21.6989 15.7147 17.0991 14.3329 12.9974 13.5374C13.7607 18.2809 15.2088 24.3298 17.2119 27.7361C18.4007 29.7576 18.3131 32.3093 16.9886 34.2398C13.9627 38.6501 12.8612 45.4193 12.8612 50.5037C12.8612 58.6629 15.7256 64.8172 20.1309 68.9705C24.5948 73.1788 31.0463 75.7047 38.7495 75.7047C41.4727 75.7047 43.829 77.65 44.4132 80.3804C44.9973 83.1108 43.6518 85.8906 41.1791 87.0619C39.1522 88.022 37.9784 89.7287 37.2692 92.287C36.5136 95.0126 36.4824 98.0316 36.4824 100.761H24.885L24.885 100.733C24.8849 100.288 24.8849 100.18 24.8918 99.6096C19.8043 99.6096 14.373 94.6842 10.701 90.3296C8.6167 87.6637 6.36936 83.4644 4.93151 79.7057C4.21534 77.8335 3.66377 75.7785 3.46942 74.369C3.40827 73.8098 4.01576 73.6842 4.30056 74.165C5.13553 75.5589 6.241 77.089 7.37525 78.4743C9.88938 81.5448 12.8412 84.4018 14.9118 86.1928C17.9865 88.7775 23.0879 90.9408 25.8215 90.184C25.9105 89.7992 26.008 89.4137 26.1147 89.0287C26.387 88.0463 26.7267 87.0428 27.1485 86.0438C21.5423 84.4578 16.4624 81.6757 12.2862 77.7385C5.31302 71.1644 1.26391 61.7419 1.26391 50.5037C1.26391 45.2721 2.15352 37.3743 5.60758 30.5933C3.51784 25.853 2.36339 20.5393 1.70151 16.4261C1.27634 13.784 1.02598 11.4446 0.881271 9.76148C0.808709 8.91751 0.731214 7.66284 0.702476 7.17969C0.665763 3.69762 0.953586 0.996264 6.74791 0.766095C7.18114 0.796964 8.51787 0.89126 9.27024 0.969281C10.7704 1.12485 12.8569 1.3947 15.2326 1.85543C18.9924 2.58459 23.8638 3.86242 28.3127 6.16598C33.8347 3.63348 42.4342 0.94145 50.7013 0.76255C58.9683 0.94145 67.5679 3.63348 73.0898 6.16598C77.5387 3.86242 82.4101 2.58459 86.1699 1.85543C88.5456 1.3947 90.6321 1.12485 92.1323 0.969281C92.8846 0.89126 94.2325 0.796461 94.6657 0.765593Z" fill="#0A00D8"/>
</svg>
