<svg width="101" height="101" viewBox="0 0 101 101" fill="none" xmlns="http://www.w3.org/2000/svg">
<path d="M50.1584 62.5062C56.7925 62.5062 62.1705 57.1282 62.1705 50.4941C62.1705 43.8601 56.7925 38.4821 50.1584 38.4821C43.5244 38.4821 38.1464 43.8601 38.1464 50.4941C38.1464 57.1282 43.5244 62.5062 50.1584 62.5062Z" fill="#0A00D8"/>
<path fill-rule="evenodd" clip-rule="evenodd" d="M50.4587 13.2569C29.7273 13.2569 12.9212 30.063 12.9212 50.7944C12.9212 71.5259 29.7273 88.332 50.4587 88.332C71.1902 88.332 87.9963 71.5259 87.9963 50.7944C87.9963 30.063 71.1902 13.2569 50.4587 13.2569ZM24.9332 50.7944C24.9332 36.6971 36.3614 25.2689 50.4587 25.2689C64.5561 25.2689 75.9843 36.6971 75.9843 50.7944C75.9843 64.8918 64.5561 76.32 50.4587 76.32C36.3614 76.32 24.9332 64.8918 24.9332 50.7944Z" fill="#0A00D8"/>
<path d="M44.3026 15.8095C44.3026 17.468 45.6471 18.8125 47.3056 18.8125H53.3116C54.9701 18.8125 56.3146 17.468 56.3146 15.8095V3.49714C56.3146 1.83863 54.9701 0.494141 53.3116 0.494141H47.3056C45.6471 0.494141 44.3026 1.83863 44.3026 3.49714V15.8095Z" fill="#0A00D8"/>
<path d="M84.9933 44.4881C83.3348 44.4881 81.9903 45.8326 81.9903 47.4911V53.4971C81.9903 55.1557 83.3348 56.5002 84.9933 56.5002H97.3056C98.9641 56.5002 100.309 55.1557 100.309 53.4971V47.4911C100.309 45.8326 98.9641 44.4881 97.3056 44.4881H84.9933Z" fill="#0A00D8"/>
<path d="M0.308594 47.4911C0.308594 45.8326 1.65308 44.4881 3.3116 44.4881H15.6239C17.2824 44.4881 18.6269 45.8326 18.6269 47.4911V53.4971C18.6269 55.1557 17.2824 56.5002 15.6239 56.5002H3.3116C1.65308 56.5002 0.308594 55.1557 0.308594 53.4971V47.4911Z" fill="#0A00D8"/>
<path d="M44.3026 97.4911C44.3026 99.1497 45.6471 100.494 47.3056 100.494H53.3116C54.9701 100.494 56.3146 99.1497 56.3146 97.4911V85.1788C56.3146 83.5203 54.9701 82.1758 53.3116 82.1758H47.3056C45.6471 82.1758 44.3026 83.5203 44.3026 85.1788V97.4911Z" fill="#0A00D8"/>
</svg>
