<svg width="101" height="101" viewBox="0 0 101 101" fill="none" xmlns="http://www.w3.org/2000/svg">
<g opacity="0.5">
<path fill-rule="evenodd" clip-rule="evenodd" d="M0.550293 0.5H100.55V100.5H0.550293V0.5ZM1.0821 0.811527L6.78082 6.51025V0.811527H1.0821ZM7.09235 0.811527V6.73053H13.0114V0.811527H7.09235ZM13.3229 0.811527V6.73053H19.2419V0.811527H13.3229ZM19.5534 0.811527V6.73053H25.4724V0.811527H19.5534ZM25.7839 0.811527V6.73053H26.6946C28.312 5.85147 29.9836 5.05935 31.7029 4.36043V0.811527H25.7839ZM25.7839 7.04206H26.1301C26.0144 7.10688 25.899 7.17215 25.7839 7.23787V7.04206ZM26.774 7.04206C26.4417 7.22337 26.1116 7.40838 25.7839 7.59703V12.9611H31.7029V7.04206H26.774ZM25.4724 7.04206V7.41723C23.4001 8.6203 21.4225 9.96842 19.5534 11.4477V7.04206H25.4724ZM25.4724 7.77789C23.3985 8.99207 21.4207 10.3528 19.5534 11.8458V12.9611H25.4724V7.77789ZM19.2419 7.04206V11.6963C18.73 12.108 18.2264 12.5297 17.7314 12.9611H13.3229V7.04206H19.2419ZM19.2419 12.0969C18.8932 12.3803 18.5484 12.6684 18.2076 12.9611H19.2419V12.0969ZM13.5432 13.2726H17.3773C16.701 13.8732 16.0412 14.4919 15.3986 15.128L13.5432 13.2726ZM17.8483 13.2726C17.0841 13.9417 16.3405 14.634 15.6188 15.3483L19.2419 18.9713V13.2726H17.8483ZM13.3229 13.4929L15.1778 15.3478C14.5421 15.9849 13.9235 16.6391 13.3229 17.3097V13.4929ZM15.3981 15.5681C14.6843 16.2835 13.9921 17.0207 13.3229 17.7785V19.1916H19.0216L15.3981 15.5681ZM13.0114 13.2726V17.6608C12.5706 18.1622 12.1397 18.6726 11.7191 19.1916H7.09235V13.2726H13.0114ZM13.0114 18.1346C12.7097 18.4827 12.4129 18.8351 12.1209 19.1916H13.0114V18.1346ZM7.09235 19.5031H11.4686C9.97895 21.3713 8.62073 23.349 7.40796 25.4221H7.09235V19.5031ZM11.8679 19.5031C10.3643 21.3696 8.99334 23.3473 7.76932 25.4221H13.0114V19.5031H11.8679ZM7.09235 25.7337H7.22722C7.18206 25.8122 7.1371 25.8908 7.09235 25.9696V25.7337ZM7.58706 25.7337C7.41931 26.0228 7.25439 26.3138 7.09235 26.6066V31.6527H13.0114V25.7337H7.58706ZM6.78082 25.7337V26.5262C5.86919 28.18 5.04874 29.891 4.32625 31.6527H0.86182V25.7337H6.78082ZM6.78082 27.1785C6.00339 28.6282 5.29601 30.1211 4.66323 31.6527H6.78082V27.1785ZM0.86182 31.9642H4.19972C3.4287 33.8811 2.77337 35.857 2.24238 37.8832H0.86182V31.9642ZM4.53576 31.9642C3.75932 33.8805 3.09933 35.8564 2.56457 37.8832H6.78082V31.9642H4.53576ZM0.86182 38.1947H2.16182C1.66932 40.1251 1.28951 42.1006 1.0298 44.1137H0.86182V38.1947ZM2.48347 38.1947C1.98773 40.1247 1.60539 42.1003 1.34396 44.1137H6.78082V38.1947H2.48347ZM0.86182 44.4252H0.990602C0.943238 44.8115 0.900293 45.1992 0.86182 45.5881V44.4252ZM1.30451 44.4252C1.06504 46.3657 0.937804 48.3409 0.929489 50.3442H6.78082V44.4252H1.30451ZM0.86182 56.5748V55.5204C0.896694 55.8729 0.935241 56.2244 0.977424 56.5748H0.86182ZM0.929155 50.6558C0.933174 52.6589 1.0561 54.6341 1.29125 56.5748H6.78082V50.6558H0.929155ZM0.86182 56.8863H1.01592C1.27113 58.8992 1.64638 60.8747 2.13428 62.8053H0.86182V56.8863ZM1.32999 56.8863C1.58689 58.8996 1.96464 60.8751 2.45574 62.8053H6.78082V56.8863H1.32999ZM0.86182 63.1168H2.21409C2.74011 65.1428 3.39037 67.1187 4.15624 69.0358H0.86182V63.1168ZM2.53609 63.1168C3.06583 65.1433 3.72071 67.1193 4.49196 69.0358H6.78082V63.1168H2.53609ZM0.86182 69.3474H4.28192C5.01512 71.1472 5.85049 72.8946 6.78082 74.5823V75.2664H0.86182V69.3474ZM4.61857 69.3474C5.26268 70.9169 5.98505 72.4461 6.78082 73.93V69.3474H4.61857ZM7.09235 75.2664V75.1389C7.11651 75.1814 7.14073 75.2239 7.16501 75.2664H7.09235ZM7.09235 74.5018C7.23414 74.7581 7.37814 75.0129 7.52432 75.2664H13.0114V69.3474H7.09235V74.5018ZM7.09235 75.5779H7.34469C8.55009 77.6504 9.90063 79.628 11.3824 81.4969H7.09235V75.5779ZM7.70552 75.5779C8.92206 77.652 10.2852 79.6298 11.7807 81.4969H13.0114V75.5779H7.70552ZM7.09235 81.8084H11.6314C12.0798 82.3648 12.5399 82.9114 13.0114 83.4477V87.7274H7.09235V81.8084ZM12.0323 81.8084C12.3528 82.202 12.6792 82.5905 13.0114 82.9739V81.8084H12.0323ZM13.3229 87.5071V83.7988C13.9065 84.4503 14.507 85.0864 15.1237 85.7063L13.3229 87.5071ZM13.3229 83.33C13.9752 84.0686 14.6493 84.7876 15.344 85.486L19.0216 81.8084H13.3229V83.33ZM13.5432 87.7274L15.3441 85.9265C15.9653 86.5433 16.6027 87.1438 17.2556 87.7274H13.5432ZM15.5644 85.7062C16.2642 86.401 16.9847 87.0751 17.7249 87.7274H19.2419V82.0287L15.5644 85.7062ZM13.3229 88.039H17.6074C18.1422 88.5081 18.6872 88.966 19.2419 89.4122V93.958H13.3229V88.039ZM18.0817 88.039C18.4634 88.3689 18.8502 88.6932 19.2419 89.0116V88.039H18.0817ZM19.5534 93.958V89.6608C21.4225 91.1401 23.4001 92.4882 25.4724 93.6912V93.958H19.5534ZM19.5534 89.2627C21.4207 90.7557 23.3985 92.1164 25.4724 93.3306V88.039H19.5534V89.2627ZM25.7839 93.958V93.8706C25.8351 93.8998 25.8863 93.9289 25.9376 93.958H25.7839ZM25.7839 93.5114C26.0465 93.6626 26.3107 93.8115 26.5763 93.958H31.7029V88.039H25.7839V93.5114ZM25.7839 94.2695H26.4961C28.1752 95.192 29.9131 96.0205 31.7029 96.748V100.188H25.7839V94.2695ZM27.1501 94.2695C28.6248 95.0575 30.144 95.7731 31.7029 96.4115V94.2695H27.1501ZM32.0145 100.188V96.8735C33.9317 97.6377 35.9076 98.2864 37.9335 98.8108V100.188H32.0145ZM32.0145 96.5378C33.9311 97.3074 35.907 97.9607 37.9335 98.4889V94.2695H32.0145V96.5378ZM38.245 100.188V98.8904C40.1757 99.3768 42.1511 99.7506 44.164 100.004V100.188H38.245ZM38.245 98.569C40.1753 99.0586 42.1508 99.4349 44.164 99.6904V94.2695H38.245V98.569ZM44.4755 100.188V100.043C44.9337 100.098 45.3938 100.146 45.8557 100.188H44.4755ZM44.4755 99.7289C46.4162 99.9627 48.3914 100.084 50.3945 100.087V94.2695H44.4755V99.7289ZM56.6251 100.188H55.0678C55.5893 100.141 56.1084 100.085 56.6251 100.021V100.188ZM50.7061 100.086C52.7094 100.077 54.6846 99.9481 56.6251 99.7073V94.2695H50.7061V100.086ZM56.9366 100.188V99.9818C58.9498 99.7206 60.9252 99.3394 62.8556 98.8454V100.188H56.9366ZM56.9366 99.6676C58.9501 99.4047 60.9256 99.0209 62.8556 98.5237V94.2695H56.9366V99.6676ZM63.1671 100.188V98.7646C65.1934 98.2321 67.1693 97.5751 69.0861 96.8025V100.188H63.1671ZM63.1671 98.4424C65.194 97.906 67.1699 97.2444 69.0861 96.4663V94.2695H63.1671V98.4424ZM69.3977 100.188V96.6757C71.1251 95.9657 72.8038 95.1615 74.4275 94.2695H75.3167V100.188H69.3977ZM69.3977 96.3386C70.8947 95.7188 72.3547 95.0277 73.7735 94.2695H69.3977V96.3386ZM75.3167 93.958H74.986C75.0965 93.8954 75.2067 93.8324 75.3167 93.769V93.958ZM74.3473 93.958C74.6726 93.7785 74.9958 93.5955 75.3167 93.409V88.039H69.3977V93.958H74.3473ZM75.6282 93.958V93.588C77.7015 92.3729 79.6792 91.0122 81.5472 89.52V93.958H75.6282ZM75.6282 93.2264C77.7032 92.0001 79.6809 90.6266 81.5472 89.1205V88.039H75.6282V93.2264ZM81.8587 93.958V89.2691C82.3524 88.8682 82.8383 88.4581 83.3162 88.039H87.7777V93.958H81.8587ZM81.8587 88.867C82.19 88.5952 82.5177 88.3191 82.8418 88.039H81.8587V88.867ZM87.5574 87.7274H83.668C84.352 87.116 85.019 86.486 85.6682 85.8382L87.5574 87.7274ZM83.1987 87.7274C83.9701 87.0475 84.7202 86.344 85.4479 85.6179L81.8587 82.0287V87.7274H83.1987ZM87.7777 87.5071L85.888 85.6175C86.5362 84.9626 87.1664 84.2899 87.7777 83.6001V87.5071ZM85.6677 85.3972C86.3942 84.6632 87.0979 83.9065 87.7777 83.1285V81.8084H82.079L85.6677 85.3972ZM88.0892 87.7274V83.2452C88.499 82.774 88.9 82.2949 89.2921 81.8084H94.0082V87.7274H88.0892ZM88.0892 82.7684C88.3605 82.4519 88.6279 82.1318 88.8912 81.8084H88.0892V82.7684ZM94.0082 81.4969H89.5412C91.0229 79.628 92.3735 77.6504 93.5788 75.5779H94.0082V81.4969ZM89.1428 81.4969C90.6383 79.6298 92.0015 77.652 93.218 75.5779H88.0892V81.4969H89.1428ZM94.0082 75.2664H93.7585C93.8425 75.1196 93.9257 74.9723 94.0082 74.8246V75.2664ZM93.3992 75.2664C93.6066 74.9068 93.8097 74.5443 94.0082 74.1791V69.3474H88.0892V75.2664H93.3992ZM94.3198 75.2664V74.2583C95.1793 72.6712 95.9552 71.0323 96.6416 69.3474H100.239V75.2664H94.3198ZM94.3198 73.5968C95.0459 72.2175 95.709 70.7997 96.305 69.3474H94.3198V73.5968ZM100.239 69.0358H96.7673C97.5332 67.1187 98.1834 65.1428 98.7095 63.1168H100.239V69.0358ZM96.4316 69.0358C97.2028 67.1193 97.8577 65.1433 98.3875 63.1168H94.3198V69.0358H96.4316ZM100.239 62.8053H98.7893C99.2772 60.8747 99.6524 58.8992 99.9076 56.8863H100.239V62.8053ZM98.4678 62.8053C98.9589 60.8751 99.3367 58.8996 99.5936 56.8863H94.3198V62.8053H98.4678ZM100.239 56.5748H99.9461C100.082 55.4496 100.18 54.313 100.239 53.166V56.5748ZM99.6323 56.5748C99.8674 54.6341 99.9904 52.6589 99.9944 50.6558H94.3198V56.5748H99.6323ZM100.239 44.4252V47.9424C100.178 46.7586 100.075 45.5858 99.9329 44.4252H100.239ZM99.9941 50.3442C99.9857 48.3409 99.8585 46.3657 99.619 44.4252H94.3198V50.3442H99.9941ZM100.239 44.1137H99.8937C99.634 42.1006 99.2542 40.1251 98.7617 38.1947H100.239V44.1137ZM99.5796 44.1137C99.3181 42.1003 98.9358 40.1247 98.4401 38.1947H94.3198V44.1137H99.5796ZM100.239 37.8832H98.6812C98.1502 35.857 97.4948 33.8811 96.7238 31.9642H100.239V37.8832ZM98.359 37.8832C97.8242 35.8564 97.1642 33.8805 96.3878 31.9642H94.3198V37.8832H98.359ZM100.239 31.6527H96.5973C95.9219 30.0058 95.1609 28.4032 94.3198 26.8502V25.7337H100.239V31.6527ZM96.2603 31.6527C95.6759 30.2382 95.0279 28.8566 94.3198 27.5117V31.6527H96.2603ZM94.0082 25.7337V26.2839C93.9054 26.0997 93.8014 25.9163 93.6963 25.7337H94.0082ZM94.0082 26.9294C93.7897 26.5274 93.5657 26.1288 93.3365 25.7337H88.0892V31.6527H94.0082V26.9294ZM94.0082 25.4221H93.5156C92.3028 23.349 90.9446 21.3713 89.4549 19.5031H94.0082V25.4221ZM93.1542 25.4221C91.9302 23.3473 90.5593 21.3696 89.0557 19.5031H88.0892V25.4221H93.1542ZM94.0082 19.1916H89.2045C88.8403 18.7423 88.4685 18.2995 88.0892 17.8633V13.2726H94.0082V19.1916ZM88.8026 19.1916C88.568 18.905 88.3302 18.6212 88.0892 18.34V19.1916H88.8026ZM87.7777 13.4929V17.5084C87.1494 16.7995 86.5012 16.1086 85.834 15.4365L87.7777 13.4929ZM87.7777 17.98C87.0811 17.1827 86.3594 16.4079 85.6138 15.6568L82.079 19.1916H87.7777V17.98ZM87.5574 13.2726L85.6139 15.2162C84.9432 14.549 84.2537 13.9009 83.5462 13.2726H87.5574ZM85.3936 15.4364C84.6441 14.6909 83.8709 13.9692 83.0752 13.2726H81.8587V18.9713L85.3936 15.4364ZM87.7777 12.9611H83.1921C82.7543 12.5796 82.3098 12.2056 81.8587 11.8393V7.04206H87.7777V12.9611ZM82.7159 12.9611C82.4329 12.718 82.1472 12.4782 81.8587 12.2415V12.9611H82.7159ZM81.5472 7.04206V11.5884C79.6792 10.0963 77.7015 8.73561 75.6282 7.5205V7.04206H81.5472ZM81.5472 11.988C79.6809 10.4819 77.7032 9.10842 75.6282 7.88203V12.9611H81.5472V11.988ZM75.3167 7.04206V7.33943C75.1429 7.23929 74.9685 7.14016 74.7934 7.04206H75.3167ZM75.3167 7.69944C74.9309 7.47522 74.5418 7.25606 74.1495 7.04206H69.3977V12.9611H75.3167V7.69944ZM75.3167 6.73053H74.229C72.6671 5.88167 71.0548 5.11388 69.3977 4.43279V0.811527H75.3167V6.73053ZM73.5693 6.73053C72.2147 6.01479 70.823 5.36002 69.3977 4.76987V6.73053H73.5693ZM69.0861 0.811527V4.30599C67.1693 3.53335 65.1934 2.87641 63.1671 2.34384V0.811527H69.0861ZM69.0861 4.64213C67.1699 3.86405 65.194 3.20244 63.1671 2.6661V6.73053H69.0861V4.64213ZM62.8556 0.811527V2.26305C60.9252 1.76909 58.9498 1.38784 56.9366 1.1267V0.811527H62.8556ZM62.8556 2.58475C60.9256 2.08756 58.9501 1.70376 56.9366 1.44088V6.73053H62.8556V2.58475ZM56.6251 0.811527V1.08728C55.6482 0.966822 54.6627 0.874622 53.6692 0.811527H56.6251ZM56.6251 1.40122C54.6846 1.16038 52.7094 1.03178 50.7061 1.02211V6.73053H56.6251V1.40122ZM44.4755 0.811527H47.2544C46.3209 0.870812 45.3944 0.955794 44.4755 1.06577V0.811527ZM50.3945 1.02156C48.3914 1.02422 46.4162 1.14579 44.4755 1.37957V6.73053H50.3945V1.02156ZM44.164 0.811527V1.10405C42.1511 1.35783 40.1757 1.73164 38.245 2.21809V0.811527H44.164ZM44.164 1.4181C42.1508 1.67355 40.1753 2.04985 38.245 2.5395V6.73053H44.164V1.4181ZM37.9335 0.811527V2.29766C35.9076 2.82211 33.9317 3.47077 32.0145 4.23502V0.811527H37.9335ZM37.9335 2.6196C35.907 3.14776 33.9311 3.80102 32.0145 4.57064V6.73053H37.9335V2.6196ZM31.7029 6.73053V4.69697C30.2158 5.30596 28.7648 5.98519 27.3542 6.73053H31.7029ZM75.6282 0.811527V6.73053H81.5472V0.811527H75.6282ZM81.8587 0.811527V6.73053H87.7777V0.811527H81.8587ZM88.0892 0.811527V6.73053H94.0082V0.811527H88.0892ZM94.3198 0.811527V6.51025L100.018 0.811527H94.3198ZM100.239 1.03181L94.54 6.73053H100.239V1.03181ZM100.239 7.04206H94.3198V12.9611H100.239V7.04206ZM100.239 13.2726H94.3198V19.1916H100.239V13.2726ZM100.239 19.5031H94.3198V25.4221H100.239V19.5031ZM100.239 75.5779H94.3198V81.4969H100.239V75.5779ZM100.239 81.8084H94.3198V87.7274H100.239V81.8084ZM100.239 88.039H94.3198V93.958H100.239V88.039ZM100.239 94.2695H94.54L100.239 99.9682V94.2695ZM100.018 100.188L94.3198 94.4898V100.188H100.018ZM94.0082 100.188V94.2695H88.0892V100.188H94.0082ZM87.7777 100.188V94.2695H81.8587V100.188H87.7777ZM81.5472 100.188V94.2695H75.6282V100.188H81.5472ZM25.4724 100.188V94.2695H19.5534V100.188H25.4724ZM19.2419 100.188V94.2695H13.3229V100.188H19.2419ZM13.0114 100.188V94.2695H7.09235V100.188H13.0114ZM6.78082 100.188V94.4898L1.0821 100.188H6.78082ZM0.86182 99.9682L6.56054 94.2695H0.86182V99.9682ZM0.86182 93.958H6.78082V88.039H0.86182V93.958ZM0.86182 87.7274H6.78082V81.8084H0.86182V87.7274ZM0.86182 81.4969H6.78082V75.5779H0.86182V81.4969ZM0.86182 25.4221H6.78082V19.5031H0.86182V25.4221ZM0.86182 19.1916H6.78082V13.2726H0.86182V19.1916ZM0.86182 12.9611H6.78082V7.04206H0.86182V12.9611ZM0.86182 6.73053H6.56054L0.86182 1.03181V6.73053ZM7.09235 7.26234V12.9611H12.7911L7.09235 7.26234ZM13.3229 25.4221V19.5031H19.2419V25.4221H13.3229ZM13.3229 31.6527V25.7337H19.2419V31.6527H13.3229ZM13.0114 31.9642H7.09235V37.8832H13.0114V31.9642ZM13.3229 37.8832V31.9642H19.2419V37.8832H13.3229ZM13.0114 38.1947H7.09235V44.1137H13.0114V38.1947ZM13.3229 44.1137V38.1947H19.2419V44.1137H13.3229ZM13.0114 44.4252H7.09235V50.3442H13.0114V44.4252ZM13.3229 50.3442V44.4252H19.2419V50.3442H13.3229ZM13.0114 50.6558H7.09235V56.5748H13.0114V50.6558ZM13.3229 56.5748V50.6558H19.2419V56.5748H13.3229ZM13.0114 56.8863H7.09235V62.8053H13.0114V56.8863ZM13.3229 62.8053V56.8863H19.2419V62.8053H13.3229ZM13.0114 63.1168H7.09235V69.0358H13.0114V63.1168ZM13.3229 69.0358V63.1168H19.2419V69.0358H13.3229ZM13.3229 75.2664V69.3474H19.2419V75.2664H13.3229ZM13.3229 81.4969V75.5779H19.2419V81.4969H13.3229ZM12.7911 88.039H7.09235V93.7377L12.7911 88.039ZM7.31263 93.958L13.0114 88.2592V93.958H7.31263ZM19.5534 81.8084V87.7274H25.4724V81.8084H19.5534ZM25.7839 81.8084V87.7274H31.7029V81.8084H25.7839ZM31.7029 81.4969H25.7839V75.5779H31.7029V81.4969ZM32.0145 81.8084V87.7274H37.9335V81.8084H32.0145ZM37.9335 81.4969H32.0145V75.6666C33.8447 77.0165 35.828 78.1708 37.9335 79.0988V81.4969ZM37.9335 78.7579C35.9803 77.8866 34.1344 76.8182 32.4211 75.5779H37.9335V78.7579ZM38.245 78.8948V75.5779H44.164V80.771C42.1085 80.3428 40.1281 79.71 38.245 78.8948ZM38.245 79.2341C40.1296 80.0402 42.1099 80.6658 44.164 81.0892V81.4969H38.245V79.2341ZM44.4755 81.1518V81.4969H46.6471C45.9151 81.4069 45.1909 81.2916 44.4755 81.1518ZM44.4755 80.8342V75.5779H50.3945V81.4194C48.3697 81.4135 46.3907 81.2125 44.4755 80.8342ZM50.7061 81.4188V75.5779H56.6251V80.8085C54.7104 81.1952 52.7314 81.4046 50.7061 81.4188ZM54.3248 81.4969C55.1007 81.4015 55.8678 81.2777 56.6251 81.1263V81.4969H54.3248ZM56.9366 81.0624V81.4969H62.8556V79.1787C60.9718 79.9945 58.9915 80.6297 56.9366 81.0624ZM56.9366 80.7439C58.9929 80.3063 60.9733 79.6638 62.8556 78.8388V75.5779H56.9366V80.7439ZM63.1671 78.7002V75.5779H68.5508C66.8751 76.7909 65.0727 77.8395 63.1671 78.7002ZM63.1671 79.0417C65.2706 78.1031 67.251 76.9382 69.0772 75.5779H69.0861V81.4969H63.1671V79.0417ZM69.4883 75.2664H75.0964L72.4754 72.6454C71.537 73.5806 70.5392 74.4563 69.4883 75.2664ZM69.3977 74.9426C70.4015 74.1623 71.3558 73.3213 72.2551 72.4251L69.3977 69.5676V74.9426ZM69.0861 75.1816V69.3474H63.1671V75.2664H68.9736C69.0112 75.2382 69.0487 75.2099 69.0861 75.1816ZM72.4747 72.2041L69.6179 69.3474H74.9604C74.1903 70.3501 73.3599 71.3042 72.4747 72.2041ZM72.695 72.4244C73.6317 71.4722 74.5077 70.46 75.3167 69.3941V75.0461L72.695 72.4244ZM75.6282 68.9765V69.0358H81.5472V63.1168H79.0125C78.0958 65.1994 76.9578 67.1625 75.6282 68.9765ZM75.6282 68.4445C76.8108 66.7832 77.8328 64.9998 78.6717 63.1168H75.6282V68.4445ZM75.3167 68.8742V63.1168H69.3977V69.0358H75.1965C75.2368 68.9821 75.2768 68.9282 75.3167 68.8742ZM78.8085 62.8053H75.6282V56.8863H80.6815C80.2543 58.9417 79.6225 60.9221 78.8085 62.8053ZM79.1476 62.8053H81.5472V56.8863H80.9996C80.5772 58.9403 79.9527 60.9206 79.1476 62.8053ZM81.062 56.5748H81.5472V52.9832C81.4542 54.2013 81.2911 55.3999 81.062 56.5748ZM81.327 50.6558H75.6282V56.5748H80.7445C81.1219 54.6595 81.322 52.6806 81.327 50.6558ZM81.3262 50.3442H75.6282V44.4252H80.7132C81.1008 46.3399 81.3112 48.3188 81.3262 50.3442ZM81.5472 48.1736V44.4252H81.031C81.2765 45.6503 81.45 46.9013 81.5472 48.1736ZM80.967 44.1137H81.5472V38.1947H79.0801C79.897 40.0784 80.5333 42.0587 80.967 44.1137ZM78.943 37.8832C78.0385 35.8588 76.9244 33.9487 75.6282 32.1804V31.9642H81.5472V37.8832H78.943ZM75.6282 32.7124C76.7779 34.3274 77.7759 36.0579 78.6013 37.8832H75.6282V32.7124ZM75.3167 32.2826V37.8832H69.3977V31.9642H75.0784C75.1585 32.0698 75.2379 32.176 75.3167 32.2826ZM74.8391 31.6527H69.6179L72.3968 28.8738C73.2648 29.75 74.0806 30.6779 74.8391 31.6527ZM72.1764 28.6536L69.3977 31.4324V26.2143C70.3723 26.9719 71.3002 27.7867 72.1764 28.6536ZM72.3967 28.4333C71.4542 27.5007 70.4525 26.6278 69.3977 25.8209V25.7337H75.0964L72.3967 28.4333ZM72.6171 28.6535L75.3167 25.9539V31.6527H75.2327C74.4247 30.5977 73.5508 29.596 72.6171 28.6535ZM68.8648 25.4221H69.0861V19.5031H63.1671V22.1151C65.1893 23.0174 67.0977 24.1289 68.8648 25.4221ZM68.3322 25.4221C66.7187 24.2754 64.9901 23.28 63.1671 22.4567V25.4221H68.3322ZM68.7627 25.7337H63.1671V31.6527H69.0861V25.9753C68.9788 25.894 68.871 25.8135 68.7627 25.7337ZM62.8556 22.3181V25.4221H56.9366V20.4129C58.9929 20.8505 60.9733 21.493 62.8556 22.3181ZM62.8556 21.9782C60.9718 21.1623 58.9915 20.5271 56.9366 20.0944V19.5031H62.8556V21.9782ZM56.6251 20.0305V19.5031H52.6984C54.0322 19.5967 55.3428 19.7743 56.6251 20.0305ZM56.6251 20.3483C54.7104 19.9616 52.7314 19.7522 50.7061 19.7381V25.4221H56.6251V20.3483ZM50.3945 19.7374V25.4221H44.4755V20.3226C46.3907 19.9443 48.3697 19.7433 50.3945 19.7374ZM48.2735 19.5031C46.9843 19.5936 45.7167 19.7625 44.4755 20.0051V19.5031H48.2735ZM44.164 20.0676V19.5031H38.245V21.9228C40.1296 21.1167 42.1099 20.491 44.164 20.0676ZM44.164 20.3858C42.1085 20.8141 40.1281 21.4469 38.245 22.262V25.4221H44.164V20.3858ZM37.9335 22.3989V25.4221H32.6397C34.2912 24.2485 36.0631 23.2333 37.9335 22.3989ZM37.9335 22.0581C35.8635 22.9704 33.9116 24.1015 32.1071 25.4221H32.0145V19.5031H37.9335V22.0581ZM31.6888 25.7337H26.0042L28.64 28.3694C29.5977 27.4272 30.6161 26.5465 31.6888 25.7337ZM31.7029 26.1148C30.7053 26.8819 29.756 27.7086 28.8603 28.5897L31.7029 31.4324V26.1148ZM32.0145 25.8784V31.6527H37.9335V25.7337H32.2093C32.1441 25.7816 32.0792 25.8299 32.0145 25.8784ZM28.6393 28.8093L31.4827 31.6527H26.1328C26.91 30.654 27.7473 29.7044 28.6393 28.8093ZM28.419 28.589C27.4784 29.5329 26.598 30.5367 25.7839 31.5944V25.9539L28.419 28.589ZM25.4724 32.0061V31.9642H19.5534V37.8832H22.0289C22.9632 35.7922 24.1212 33.823 25.4724 32.0061ZM25.4724 32.533C24.2684 34.1991 23.2267 35.9902 22.3706 37.8832H25.4724V32.533ZM25.7839 32.1096V37.8832H31.7029V31.9642H25.8935C25.8568 32.0125 25.8203 32.061 25.7839 32.1096ZM22.2318 38.1947H25.4724V44.1137H20.3235C20.7621 42.0573 21.4057 40.0769 22.2318 38.1947ZM21.8918 38.1947H19.5534V44.1137H20.0049C20.4386 42.0587 21.0749 40.0784 21.8918 38.1947ZM19.9409 44.4252H19.5534V46.8559C19.6511 46.0355 19.7807 45.2248 19.9409 44.4252ZM19.6457 50.3442H25.4724V44.4252H20.2587C19.8711 46.3399 19.6608 48.3188 19.6457 50.3442ZM19.6449 50.6558H25.4724V56.5748H20.2274C19.85 54.6595 19.6499 52.6806 19.6449 50.6558ZM19.5534 54.3009V56.5748H19.9099C19.7639 55.8261 19.6447 55.0678 19.5534 54.3009ZM19.9723 56.8863H19.5534V62.8053H21.8243C21.0193 60.9206 20.3947 58.9403 19.9723 56.8863ZM22.1635 62.8053H25.4724V56.8863H20.2905C20.7176 58.9417 21.3494 60.9221 22.1635 62.8053ZM22.3002 63.1168H25.4724V68.6238C24.2352 66.9118 23.1694 65.0678 22.3002 63.1168ZM21.9594 63.1168C22.8861 65.2221 24.039 67.2054 25.3874 69.0358H19.5534V63.1168H21.9594ZM25.7839 69.5625V75.0461L28.3408 72.4892C27.4296 71.5683 26.5754 70.5908 25.7839 69.5625ZM26.0115 69.3474C26.8002 70.3742 27.652 71.35 28.5611 72.2689L31.4827 69.3474H26.0115ZM28.7813 72.4893L31.7029 69.5676V75.042C30.676 74.2524 29.7002 73.3995 28.7813 72.4893ZM28.561 72.7095C29.4807 73.6206 30.4568 74.4748 31.4836 75.2664H26.0042L28.561 72.7095ZM78.7401 38.1947H75.6282V44.1137H80.6484C80.2098 42.0573 79.5663 40.0769 78.7401 38.1947ZM38.245 81.8084V87.7274H44.164V81.8084H38.245ZM44.4755 81.8084V87.7274H50.3945V81.8084H44.4755ZM50.7061 81.8084V87.7274H56.6251V81.8084H50.7061ZM56.9366 81.8084V87.7274H62.8556V81.8084H56.9366ZM63.1671 81.8084V87.7274H69.0861V81.8084H63.1671ZM69.3977 81.8084V87.7274H75.3167V81.8084H69.3977ZM75.3167 81.4969H69.3977V75.5779H75.3167V81.4969ZM75.6282 81.8084V87.7274H81.5472V81.8084H75.6282ZM88.0892 93.958H93.788L88.0892 88.2592V93.958ZM88.3095 88.039L94.0082 93.7377V88.039H88.3095ZM81.8587 81.4969H87.7777V75.5779H81.8587V81.4969ZM81.8587 75.2664H87.7777V69.3474H81.8587V75.2664ZM81.5472 69.3474V75.2664H75.6282V69.3474H81.5472ZM81.8587 69.0358H87.7777V63.1168H81.8587V69.0358ZM81.8587 62.8053H87.7777V56.8863H81.8587V62.8053ZM81.8587 56.5748H87.7777V50.6558H81.8587V56.5748ZM81.8587 50.3442H87.7777V44.4252H81.8587V50.3442ZM81.8587 44.1137H87.7777V38.1947H81.8587V44.1137ZM81.8587 37.8832H87.7777V31.9642H81.8587V37.8832ZM81.8587 31.6527H87.7777V25.7337H81.8587V31.6527ZM81.5472 25.7337V31.6527H75.6282V25.7337H81.5472ZM81.8587 25.4221H87.7777V19.5031H81.8587V25.4221ZM94.0082 12.9611V7.26234L88.3095 12.9611H94.0082ZM88.0892 12.7408L93.788 7.04206H88.0892V12.7408ZM81.5472 19.1916V13.2726H75.6282V19.1916H81.5472ZM75.3167 19.1916V13.2726H69.3977V19.1916H75.3167ZM69.3977 19.5031H75.3167V25.4221H69.3977V19.5031ZM69.0861 19.1916V13.2726H63.1671V19.1916H69.0861ZM62.8556 19.1916V13.2726H56.9366V19.1916H62.8556ZM56.6251 19.1916V13.2726H50.7061V19.1916H56.6251ZM50.3945 19.1916V13.2726H44.4755V19.1916H50.3945ZM44.164 19.1916V13.2726H38.245V19.1916H44.164ZM37.9335 19.1916V13.2726H32.0145V19.1916H37.9335ZM31.7029 19.1916V13.2726H25.7839V19.1916H31.7029ZM25.7839 19.5031H31.7029V25.4221H25.7839V19.5031ZM25.4724 19.1916V13.2726H19.5534V19.1916H25.4724ZM13.0114 7.04206H7.31263L13.0114 12.7408V7.04206ZM32.0145 7.04206V12.9611H37.9335V7.04206H32.0145ZM38.245 7.04206V12.9611H44.164V7.04206H38.245ZM44.4755 7.04206V12.9611H50.3945V7.04206H44.4755ZM50.7061 7.04206V12.9611H56.6251V7.04206H50.7061ZM56.9366 7.04206V12.9611H62.8556V7.04206H56.9366ZM63.1671 7.04206V12.9611H69.0861V7.04206H63.1671ZM19.5534 19.7234V25.4221H25.2521L19.5534 19.7234ZM25.4724 25.7337H19.5534V31.6527H25.4724V25.7337ZM25.7839 44.1137V38.1947H31.7029V44.1137H25.7839ZM25.7839 50.3442V44.4252H31.7029V50.3442H25.7839ZM25.7839 56.5748V50.6558H31.7029V56.5748H25.7839ZM25.7839 62.8053V56.8863H31.7029V62.8053H25.7839ZM25.7839 69.0358V63.1168H31.7029V69.0358H25.7839ZM25.4724 69.3474H19.5534V75.2664H25.4724V69.3474ZM25.2521 75.5779H19.5534V81.2766L25.2521 75.5779ZM19.7737 81.4969H25.4724V75.7982L19.7737 81.4969ZM32.0145 69.3474V75.2664H37.9335V69.3474H32.0145ZM38.245 69.3474V75.2664H44.164V69.3474H38.245ZM44.164 69.0358H38.245V63.1168H44.164V69.0358ZM44.4755 69.3474V75.2664H50.3945V69.3474H44.4755ZM50.3945 69.0358H44.4755V63.1168H50.3945V69.0358ZM50.7061 69.3474V75.2664H56.6251V69.3474H50.7061ZM56.6251 69.0358H50.7061V63.1168H56.6251V69.0358ZM56.9366 69.3474V75.2664H62.8556V69.3474H56.9366ZM62.8556 69.0358H56.9366V63.1168H62.8556V69.0358ZM75.8484 75.5779H81.5472V81.2766L75.8484 75.5779ZM81.3269 81.4969H75.6282V75.7982L81.3269 81.4969ZM69.0861 68.8156V63.1168H63.3874L69.0861 68.8156ZM63.1671 62.8053H69.0861V56.8863H63.1671V62.8053ZM63.1671 56.5748H69.0861V50.6558H63.1671V56.5748ZM62.8556 50.6558V56.5748H56.9366V50.6558H62.8556ZM63.1671 50.3442H69.0861V44.4252H63.1671V50.3442ZM62.8556 44.4252V50.3442H56.9366V44.4252H62.8556ZM63.1671 44.1137H69.0861V38.1947H63.1671V44.1137ZM63.3874 37.8832H69.0861V32.1845L63.3874 37.8832ZM68.8658 31.9642H63.1671V37.6629L68.8658 31.9642ZM62.8556 37.8832V31.9642H56.9366V37.8832H62.8556ZM56.6251 37.8832V31.9642H50.7061V37.8832H56.6251ZM50.7061 38.1947H56.6251V44.1137H50.7061V38.1947ZM50.3945 37.8832V31.9642H44.4755V37.8832H50.3945ZM44.4755 38.1947H50.3945V44.1137H44.4755V38.1947ZM44.164 37.8832V31.9642H38.245V37.8832H44.164ZM37.9335 37.6629V31.9642H32.2347L37.9335 37.6629ZM32.0145 32.1845V37.8832H37.7132L32.0145 32.1845ZM37.9335 38.1947H32.0145V44.1137H37.9335V38.1947ZM37.9335 44.4252H32.0145V50.3442H37.9335V44.4252ZM38.245 50.3442V44.4252H44.164V50.3442H38.245ZM37.9335 50.6558H32.0145V56.5748H37.9335V50.6558ZM38.245 56.5748V50.6558H44.164V56.5748H38.245ZM37.9335 56.8863H32.0145V62.8053H37.9335V56.8863ZM37.7132 63.1168H32.0145V68.8156L37.7132 63.1168ZM32.2347 69.0358H37.9335V63.3371L32.2347 69.0358ZM38.4653 62.8053H44.164V57.1066L38.4653 62.8053ZM44.4755 56.8863V62.8053H50.3945V56.8863H44.4755ZM50.7061 56.8863V62.8053H56.6251V56.8863H50.7061ZM56.9366 57.1066V62.8053H62.6353L56.9366 57.1066ZM62.8556 62.585V56.8863H57.1569L62.8556 62.585ZM56.6251 56.3545V50.6558H50.9263L56.6251 56.3545ZM50.9263 50.3442H56.6251V44.6455L50.9263 50.3442ZM56.9366 43.8934V38.1947H62.6353L56.9366 43.8934ZM62.8556 38.415V44.1137H57.1569L62.8556 38.415ZM56.4048 44.4252L50.7061 50.124V44.4252H56.4048ZM50.3945 44.4252H44.6958L50.3945 50.124V44.4252ZM50.1743 50.3442L44.4755 44.6455V50.3442H50.1743ZM44.4755 50.6558V56.3545L50.1743 50.6558H44.4755ZM50.3945 50.876V56.5748H44.6958L50.3945 50.876ZM50.7061 50.876V56.5748H56.4048L50.7061 50.876ZM43.9437 56.8863H38.245V62.585L43.9437 56.8863ZM43.9437 44.1137H38.245V38.415L43.9437 44.1137ZM38.4653 38.1947H44.164V43.8934L38.4653 38.1947ZM63.1671 63.3371V69.0358H68.8658L63.1671 63.3371ZM25.4724 25.2018V19.5031H19.7737L25.4724 25.2018ZM38.245 25.7337V31.6527H44.164V25.7337H38.245ZM44.4755 25.7337V31.6527H50.3945V25.7337H44.4755ZM50.7061 25.7337V31.6527H56.6251V25.7337H50.7061ZM56.9366 25.7337V31.6527H62.8556V25.7337H56.9366ZM75.6282 25.2018V19.5031H81.3269L75.6282 25.2018ZM81.5472 19.7234V25.4221H75.8484L81.5472 19.7234ZM75.3167 38.1947H69.3977V44.1137H75.3167V38.1947ZM75.3167 44.4252H69.3977V50.3442H75.3167V44.4252ZM75.3167 50.6558H69.3977V56.5748H75.3167V50.6558ZM75.3167 56.8863H69.3977V62.8053H75.3167V56.8863ZM94.0082 31.9642H88.0892V37.8832H94.0082V31.9642ZM94.0082 38.1947H88.0892V44.1137H94.0082V38.1947ZM94.0082 44.4252H88.0892V50.3442H94.0082V44.4252ZM94.0082 50.6558H88.0892V56.5748H94.0082V50.6558ZM94.0082 56.8863H88.0892V62.8053H94.0082V56.8863ZM94.0082 63.1168H88.0892V69.0358H94.0082V63.1168ZM69.0861 93.958V88.039H63.1671V93.958H69.0861ZM62.8556 93.958V88.039H56.9366V93.958H62.8556ZM56.6251 93.958V88.039H50.7061V93.958H56.6251ZM50.3945 93.958V88.039H44.4755V93.958H50.3945ZM44.164 93.958V88.039H38.245V93.958H44.164ZM37.9335 93.958V88.039H32.0145V93.958H37.9335Z" fill="#787878"/>
<path d="M41.8198 35.6956C41.8198 38.9933 39.1698 41.6667 35.9008 41.6667C32.6319 41.6667 29.9818 38.9933 29.9818 35.6956C29.9818 32.3979 32.6319 29.7245 35.9008 29.7245C39.1698 29.7245 41.8198 32.3979 41.8198 35.6956Z" fill="#0A00D8"/>
<path d="M65.4958 41.6667C68.7648 41.6667 71.4148 38.9933 71.4148 35.6956C71.4148 32.3979 68.7648 29.7245 65.4958 29.7245C62.2268 29.7245 59.5768 32.3979 59.5768 35.6956C59.5768 38.9933 62.2268 41.6667 65.4958 41.6667Z" fill="#0A00D8"/>
<path fill-rule="evenodd" clip-rule="evenodd" d="M50.6983 0.965088C34.0016 0.965088 20.8087 8.08447 12.3952 18.6282C3.14308 29.7245 0.97876 38.4781 0.97876 56.4959V59.9589C0.97876 61.6077 2.30377 62.9444 3.93826 62.9444H19.5769V97.3975C19.5769 99.0464 20.9019 100.383 22.5364 100.383H29.0784C30.7129 100.383 32.0379 99.0464 32.0379 97.3975V62.9444H44.4678V97.3975C44.4678 99.0464 45.7928 100.383 47.4273 100.383H53.9693C55.6038 100.383 56.9288 99.0464 56.9288 97.3975V62.9444H69.3276V97.3975C69.3276 99.0464 70.6526 100.383 72.2871 100.383H78.8291C80.4636 100.383 81.7886 99.0464 81.7886 97.3975V62.9444H97.1624C98.7969 62.9444 100.122 61.6077 100.122 59.9589V56.4959C100.122 42.0949 98.7762 31.4129 89.8478 20.403C81.755 9.45984 68.217 0.965088 50.6983 0.965088ZM16.2843 50.5249C14.551 50.5249 13.1816 49.0265 13.4162 47.2939C14.6014 38.5414 17.5308 31.9782 22.0887 26.2662C28.0288 18.8222 37.2081 13.9014 50.6983 13.9014C64.5503 13.9014 73.6535 19.4584 79.4704 27.3241C83.7803 33.152 86.4499 39.497 87.6091 47.2664C87.8689 49.0074 86.4957 50.5249 84.7505 50.5249H16.2843Z" fill="#0A00D8"/>
</g>
</svg>
