<svg width="101" height="101" viewBox="0 0 101 101" fill="none" xmlns="http://www.w3.org/2000/svg">
<path opacity="0.5" fill-rule="evenodd" clip-rule="evenodd" d="M0.550293 0.784668H100.55V100.785H0.550293V0.784668ZM1.0821 1.09619L6.78082 6.79492V1.09619H1.0821ZM7.09235 1.09619V7.0152H13.0114V1.09619H7.09235ZM13.3229 1.09619V7.0152H19.2419V1.09619H13.3229ZM19.5534 1.09619V7.0152H25.4724V1.09619H19.5534ZM25.7839 1.09619V7.0152H26.6946C28.312 6.13614 29.9836 5.34401 31.7029 4.64509V1.09619H25.7839ZM25.7839 7.32673H26.1301C26.0144 7.39155 25.899 7.45682 25.7839 7.52254V7.32673ZM26.774 7.32673C26.4417 7.50804 26.1116 7.69304 25.7839 7.88169V13.2457H31.7029V7.32673H26.774ZM25.4724 7.32673V7.7019C23.4001 8.90497 21.4225 10.2531 19.5534 11.7323V7.32673H25.4724ZM25.4724 8.06256C23.3985 9.27674 21.4207 10.6374 19.5534 12.1304V13.2457H25.4724V8.06256ZM19.2419 7.32673V11.9809C18.73 12.3927 18.2264 12.8144 17.7314 13.2457H13.3229V7.32673H19.2419ZM19.2419 12.3816C18.8932 12.665 18.5484 12.9531 18.2076 13.2457H19.2419V12.3816ZM13.5432 13.5573H17.3773C16.701 14.1579 16.0412 14.7766 15.3986 15.4126L13.5432 13.5573ZM17.8483 13.5573C17.0841 14.2264 16.3405 14.9186 15.6188 15.6329L19.2419 19.256V13.5573H17.8483ZM13.3229 13.7775L15.1778 15.6325C14.5421 16.2696 13.9235 16.9238 13.3229 17.5944V13.7775ZM15.3981 15.8528C14.6843 16.5682 13.9921 17.3053 13.3229 18.0631V19.4763H19.0216L15.3981 15.8528ZM13.0114 13.5573V17.9455C12.5706 18.4469 12.1397 18.9573 11.7191 19.4763H7.09235V13.5573H13.0114ZM13.0114 18.4193C12.7097 18.7674 12.4129 19.1197 12.1209 19.4763H13.0114V18.4193ZM7.09235 19.7878H11.4686C9.97895 21.656 8.62073 23.6337 7.40796 25.7068H7.09235V19.7878ZM11.8679 19.7878C10.3643 21.6542 8.99334 23.632 7.76932 25.7068H13.0114V19.7878H11.8679ZM7.09235 26.0183H7.22722C7.18206 26.0968 7.1371 26.1755 7.09235 26.2542V26.0183ZM7.58706 26.0183C7.4193 26.3075 7.25439 26.5985 7.09235 26.8913V31.9373H13.0114V26.0183H7.58706ZM6.78082 26.0183V26.8109C5.86919 28.4646 5.04874 30.1757 4.32625 31.9373H0.86182V26.0183H6.78082ZM6.78082 27.4632C6.00339 28.9129 5.29601 30.4058 4.66323 31.9373H6.78082V27.4632ZM0.86182 32.2488H4.19972C3.4287 34.1658 2.77337 36.1416 2.24238 38.1679H0.86182V32.2488ZM4.53576 32.2488C3.75932 34.1651 3.09933 36.1411 2.56457 38.1679H6.78082V32.2488H4.53576ZM0.86182 38.4794H2.16182C1.66932 40.4098 1.28951 42.3853 1.0298 44.3984H0.86182V38.4794ZM2.48347 38.4794C1.98773 40.4094 1.60539 42.3849 1.34396 44.3984H6.78082V38.4794H2.48347ZM0.86182 44.7099H0.990602C0.943238 45.0962 0.900293 45.4838 0.86182 45.8728V44.7099ZM1.30451 44.7099C1.06504 46.6504 0.937804 48.6256 0.929489 50.6289H6.78082V44.7099H1.30451ZM0.86182 56.8594V55.805C0.896694 56.1576 0.935241 56.5091 0.977424 56.8594H0.86182ZM0.929155 50.9404C0.933174 52.9436 1.0561 54.9188 1.29125 56.8594H6.78082V50.9404H0.929155ZM0.86182 57.171H1.01592C1.27113 59.1839 1.64638 61.1594 2.13428 63.09H0.86182V57.171ZM1.32999 57.171C1.58689 59.1842 1.96464 61.1597 2.45574 63.09H6.78082V57.171H1.32999ZM0.86182 63.4015H2.21409C2.74011 65.4275 3.39037 67.4033 4.15624 69.3205H0.86182V63.4015ZM2.53609 63.4015C3.06583 65.428 3.72071 67.4039 4.49196 69.3205H6.78082V63.4015H2.53609ZM0.86182 69.632H4.28192C5.01512 71.4319 5.85049 73.1793 6.78082 74.8669V75.551H0.86182V69.632ZM4.61857 69.632C5.26268 71.2016 5.98505 72.7307 6.78082 74.2147V69.632H4.61857ZM7.09235 75.551V75.4236C7.11651 75.4661 7.14073 75.5086 7.16501 75.551H7.09235ZM7.09235 74.7865C7.23414 75.0427 7.37814 75.2976 7.52432 75.551H13.0114V69.632H7.09235V74.7865ZM7.09235 75.8626H7.34469C8.55009 77.935 9.90063 79.9127 11.3824 81.7816H7.09235V75.8626ZM7.70552 75.8626C8.92206 77.9367 10.2852 79.9144 11.7807 81.7816H13.0114V75.8626H7.70552ZM7.09235 82.0931H11.6314C12.0798 82.6495 12.5399 83.196 13.0114 83.7324V88.0121H7.09235V82.0931ZM12.0323 82.0931C12.3528 82.4866 12.6792 82.8752 13.0114 83.2586V82.0931H12.0323ZM13.3229 87.7918V84.0834C13.9065 84.735 14.507 85.371 15.1237 85.991L13.3229 87.7918ZM13.3229 83.6147C13.9752 84.3533 14.6493 85.0723 15.344 85.7707L19.0216 82.0931H13.3229V83.6147ZM13.5432 88.0121L15.3441 86.2112C15.9653 86.828 16.6027 87.4285 17.2556 88.0121H13.5432ZM15.5644 85.9909C16.2642 86.6857 16.9847 87.3598 17.7249 88.0121H19.2419V82.3134L15.5644 85.9909ZM13.3229 88.3236H17.6074C18.1422 88.7928 18.6872 89.2506 19.2419 89.6969V94.2426H13.3229V88.3236ZM18.0817 88.3236C18.4634 88.6536 18.8502 88.9779 19.2419 89.2962V88.3236H18.0817ZM19.5534 94.2426V89.9455C21.4225 91.4247 23.4001 92.7728 25.4724 93.9759V94.2426H19.5534ZM19.5534 89.5474C21.4207 91.0404 23.3985 92.4011 25.4724 93.6153V88.3236H19.5534V89.5474ZM25.7839 94.2426V94.1553C25.8351 94.1845 25.8863 94.2136 25.9376 94.2426H25.7839ZM25.7839 93.7961C26.0465 93.9473 26.3107 94.0961 26.5763 94.2426H31.7029V88.3236H25.7839V93.7961ZM25.7839 94.5542H26.4961C28.1752 95.4766 29.9131 96.3052 31.7029 97.0327V100.473H25.7839V94.5542ZM27.1501 94.5542C28.6248 95.3422 30.144 96.0578 31.7029 96.6962V94.5542H27.1501ZM32.0145 100.473V97.1581C33.9317 97.9224 35.9076 98.571 37.9335 99.0955V100.473H32.0145ZM32.0145 96.8225C33.9311 97.5921 35.907 98.2454 37.9335 98.7735V94.5542H32.0145V96.8225ZM38.245 100.473V99.1751C40.1757 99.6615 42.1511 100.035 44.164 100.289V100.473H38.245ZM38.245 98.8536C40.1753 99.3433 42.1508 99.7196 44.164 99.975V94.5542H38.245V98.8536ZM44.4755 100.473V100.327C44.9337 100.382 45.3938 100.431 45.8557 100.473H44.4755ZM44.4755 100.014C46.4162 100.247 48.3914 100.369 50.3945 100.372V94.5542H44.4755V100.014ZM56.6251 100.473H55.0678C55.5893 100.425 56.1084 100.37 56.6251 100.306V100.473ZM50.7061 100.371C52.7094 100.361 54.6846 100.233 56.6251 99.9919V94.5542H50.7061V100.371ZM56.9366 100.473V100.266C58.9498 100.005 60.9252 99.6241 62.8556 99.1301V100.473H56.9366ZM56.9366 99.9523C58.9501 99.6894 60.9256 99.3056 62.8556 98.8084V94.5542H56.9366V99.9523ZM63.1671 100.473V99.0493C65.1934 98.5167 67.1693 97.8598 69.0861 97.0872V100.473H63.1671ZM63.1671 98.727C65.194 98.1907 67.1699 97.5291 69.0861 96.751V94.5542H63.1671V98.727ZM69.3976 100.473V96.9603C71.1251 96.2504 72.8038 95.4462 74.4275 94.5542H75.3166V100.473H69.3976ZM69.3976 96.6233C70.8947 96.0034 72.3547 95.3123 73.7735 94.5542H69.3976V96.6233ZM75.3166 94.2426H74.986C75.0965 94.1801 75.2067 94.1171 75.3166 94.0537V94.2426ZM74.3473 94.2426C74.6726 94.0632 74.9958 93.8802 75.3166 93.6937V88.3236H69.3976V94.2426H74.3473ZM75.6282 94.2426V93.8726C77.7015 92.6575 79.6792 91.2969 81.5472 89.8047V94.2426H75.6282ZM75.6282 93.5111C77.7032 92.2847 79.6809 90.9113 81.5472 89.4052V88.3236H75.6282V93.5111ZM81.8587 94.2426V89.5538C82.3524 89.1529 82.8383 88.7428 83.3162 88.3236H87.7777V94.2426H81.8587ZM81.8587 89.1517C82.19 88.8798 82.5177 88.6038 82.8418 88.3236H81.8587V89.1517ZM87.5574 88.0121H83.668C84.3519 87.4007 85.019 86.7707 85.6682 86.1229L87.5574 88.0121ZM83.1987 88.0121C83.9701 87.3322 84.7202 86.6286 85.4479 85.9026L81.8587 82.3134V88.0121H83.1987ZM87.7777 87.7918L85.888 85.9021C86.5362 85.2473 87.1664 84.5745 87.7777 83.8847V87.7918ZM85.6677 85.6818C86.3942 84.9478 87.0979 84.1912 87.7777 83.4131V82.0931H82.079L85.6677 85.6818ZM88.0892 88.0121V83.5299C88.499 83.0586 88.9 82.5796 89.2921 82.0931H94.0082V88.0121H88.0892ZM88.0892 83.0531C88.3605 82.7365 88.6279 82.4165 88.8912 82.0931H88.0892V83.0531ZM94.0082 81.7816H89.5412C91.0229 79.9127 92.3735 77.935 93.5788 75.8626H94.0082V81.7816ZM89.1428 81.7816C90.6383 79.9144 92.0015 77.9367 93.218 75.8626H88.0892V81.7816H89.1428ZM94.0082 75.551H93.7585C93.8425 75.4043 93.9257 75.257 94.0082 75.1093V75.551ZM93.3992 75.551C93.6066 75.1914 93.8097 74.829 94.0082 74.4637V69.632H88.0892V75.551H93.3992ZM94.3198 75.551V74.5429C95.1793 72.9559 95.9552 71.317 96.6416 69.632H100.239V75.551H94.3198ZM94.3198 73.8815C95.0459 72.5021 95.709 71.0844 96.305 69.632H94.3198V73.8815ZM100.239 69.3205H96.7673C97.5332 67.4033 98.1834 65.4275 98.7095 63.4015H100.239V69.3205ZM96.4316 69.3205C97.2028 67.4039 97.8577 65.428 98.3875 63.4015H94.3198V69.3205H96.4316ZM100.239 63.09H98.7893C99.2772 61.1594 99.6524 59.1839 99.9076 57.171H100.239V63.09ZM98.4678 63.09C98.9589 61.1597 99.3367 59.1842 99.5936 57.171H94.3198V63.09H98.4678ZM100.239 56.8594H99.9461C100.082 55.7343 100.18 54.5976 100.239 53.4507V56.8594ZM99.6323 56.8594C99.8674 54.9188 99.9904 52.9436 99.9944 50.9404H94.3198V56.8594H99.6323ZM100.239 44.7099V48.2271C100.178 47.0433 100.075 45.8704 99.9329 44.7099H100.239ZM99.9941 50.6289C99.9857 48.6256 99.8585 46.6504 99.619 44.7099H94.3198V50.6289H99.9941ZM100.239 44.3984H99.8937C99.634 42.3853 99.2542 40.4098 98.7617 38.4794H100.239V44.3984ZM99.5796 44.3984C99.3182 42.3849 98.9358 40.4094 98.4401 38.4794H94.3198V44.3984H99.5796ZM100.239 38.1679H98.6812C98.1502 36.1416 97.4948 34.1658 96.7238 32.2488H100.239V38.1679ZM98.359 38.1679C97.8242 36.1411 97.1642 34.1651 96.3878 32.2488H94.3198V38.1679H98.359ZM100.239 31.9373H96.5973C95.9219 30.2905 95.1609 28.6878 94.3198 27.1349V26.0183H100.239V31.9373ZM96.2603 31.9373C95.6759 30.5228 95.0279 29.1413 94.3198 27.7963V31.9373H96.2603ZM94.0082 26.0183V26.5685C93.9054 26.3844 93.8014 26.201 93.6963 26.0183H94.0082ZM94.0082 27.2141C93.7897 26.8121 93.5657 26.4135 93.3365 26.0183H88.0892V31.9373H94.0082V27.2141ZM94.0082 25.7068H93.5156C92.3028 23.6337 90.9446 21.656 89.4549 19.7878H94.0082V25.7068ZM93.1542 25.7068C91.9302 23.632 90.5593 21.6542 89.0557 19.7878H88.0892V25.7068H93.1542ZM94.0082 19.4763H89.2045C88.8403 19.027 88.4685 18.5841 88.0892 18.148V13.5573H94.0082V19.4763ZM88.8026 19.4763C88.568 19.1897 88.3301 18.9058 88.0892 18.6247V19.4763H88.8026ZM87.7777 13.7775V17.7931C87.1494 17.0841 86.5012 16.3932 85.834 15.7212L87.7777 13.7775ZM87.7777 18.2647C87.0811 17.4673 86.3594 16.6925 85.6138 15.9415L82.079 19.4763H87.7777V18.2647ZM87.5574 13.5573L85.6139 15.5008C84.9432 14.8337 84.2537 14.1856 83.5462 13.5573H87.5574ZM85.3936 15.7211C84.6441 14.9756 83.8709 14.2539 83.0752 13.5573H81.8587V19.256L85.3936 15.7211ZM87.7777 13.2457H83.1921C82.7543 12.8642 82.3098 12.4903 81.8587 12.124V7.32673H87.7777V13.2457ZM82.7159 13.2457C82.4329 13.0027 82.1472 12.7628 81.8587 12.5261V13.2457H82.7159ZM81.5472 7.32673V11.8731C79.6792 10.3809 77.7015 9.02027 75.6282 7.80517V7.32673H81.5472ZM81.5472 12.2726C79.6809 10.7665 77.7032 9.39309 75.6282 8.1667V13.2457H81.5472V12.2726ZM75.3166 7.32673V7.6241C75.1429 7.52396 74.9685 7.42483 74.7934 7.32673H75.3166ZM75.3166 7.98411C74.9309 7.75989 74.5418 7.54073 74.1495 7.32673H69.3976V13.2457H75.3166V7.98411ZM75.3166 7.0152H74.229C72.6671 6.16634 71.0548 5.39855 69.3976 4.71746V1.09619H75.3166V7.0152ZM73.5693 7.0152C72.2147 6.29946 70.823 5.64469 69.3976 5.05454V7.0152H73.5693ZM69.0861 1.09619V4.59066C67.1693 3.81801 65.1934 3.16108 63.1671 2.62851V1.09619H69.0861ZM69.0861 4.9268C67.1699 4.14872 65.194 3.48711 63.1671 2.95077V7.0152H69.0861V4.9268ZM62.8556 1.09619V2.54771C60.9252 2.05376 58.9498 1.6725 56.9366 1.41136V1.09619H62.8556ZM62.8556 2.86942C60.9256 2.37222 58.9501 1.98842 56.9366 1.72555V7.0152H62.8556V2.86942ZM56.6251 1.09619V1.37195C55.6482 1.25149 54.6627 1.15929 53.6692 1.09619H56.6251ZM56.6251 1.68589C54.6846 1.44505 52.7094 1.31645 50.7061 1.30678V7.0152H56.6251V1.68589ZM44.4755 1.09619H47.2544C46.3209 1.15548 45.3944 1.24046 44.4755 1.35044V1.09619ZM50.3945 1.30623C48.3914 1.30889 46.4162 1.43045 44.4755 1.66424V7.0152H50.3945V1.30623ZM44.164 1.09619V1.38872C42.1511 1.6425 40.1757 2.01631 38.245 2.50276V1.09619H44.164ZM44.164 1.70276C42.1508 1.95822 40.1753 2.33452 38.245 2.82416V7.0152H44.164V1.70276ZM37.9335 1.09619V2.58233C35.9076 3.10678 33.9317 3.75544 32.0145 4.51969V1.09619H37.9335ZM37.9335 2.90427C35.907 3.43243 33.9311 4.08569 32.0145 4.85531V7.0152H37.9335V2.90427ZM31.7029 7.0152V4.98164C30.2158 5.59063 28.7648 6.26986 27.3542 7.0152H31.7029ZM75.6282 1.09619V7.0152H81.5472V1.09619H75.6282ZM81.8587 1.09619V7.0152H87.7777V1.09619H81.8587ZM88.0892 1.09619V7.0152H94.0082V1.09619H88.0892ZM94.3198 1.09619V6.79492L100.018 1.09619H94.3198ZM100.239 1.31647L94.54 7.0152H100.239V1.31647ZM100.239 7.32673H94.3198V13.2457H100.239V7.32673ZM100.239 13.5573H94.3198V19.4763H100.239V13.5573ZM100.239 19.7878H94.3198V25.7068H100.239V19.7878ZM100.239 75.8626H94.3198V81.7816H100.239V75.8626ZM100.239 82.0931H94.3198V88.0121H100.239V82.0931ZM100.239 88.3236H94.3198V94.2426H100.239V88.3236ZM100.239 94.5542H94.54L100.239 100.253V94.5542ZM100.018 100.473L94.3198 94.7744V100.473H100.018ZM94.0082 100.473V94.5542H88.0892V100.473H94.0082ZM87.7777 100.473V94.5542H81.8587V100.473H87.7777ZM81.5472 100.473V94.5542H75.6282V100.473H81.5472ZM25.4724 100.473V94.5542H19.5534V100.473H25.4724ZM19.2419 100.473V94.5542H13.3229V100.473H19.2419ZM13.0114 100.473V94.5542H7.09235V100.473H13.0114ZM6.78082 100.473V94.7744L1.0821 100.473H6.78082ZM0.86182 100.253L6.56054 94.5542H0.86182V100.253ZM0.86182 94.2426H6.78082V88.3236H0.86182V94.2426ZM0.86182 88.0121H6.78082V82.0931H0.86182V88.0121ZM0.86182 81.7816H6.78082V75.8626H0.86182V81.7816ZM0.86182 25.7068H6.78082V19.7878H0.86182V25.7068ZM0.86182 19.4763H6.78082V13.5573H0.86182V19.4763ZM0.86182 13.2457H6.78082V7.32673H0.86182V13.2457ZM0.86182 7.0152H6.56054L0.86182 1.31648V7.0152ZM7.09235 7.54701V13.2457H12.7911L7.09235 7.54701ZM13.3229 25.7068V19.7878H19.2419V25.7068H13.3229ZM13.3229 31.9373V26.0183H19.2419V31.9373H13.3229ZM13.0114 32.2488H7.09235V38.1679H13.0114V32.2488ZM13.3229 38.1679V32.2488H19.2419V38.1679H13.3229ZM13.0114 38.4794H7.09235V44.3984H13.0114V38.4794ZM13.3229 44.3984V38.4794H19.2419V44.3984H13.3229ZM13.0114 44.7099H7.09235V50.6289H13.0114V44.7099ZM13.3229 50.6289V44.7099H19.2419V50.6289H13.3229ZM13.0114 50.9404H7.09235V56.8594H13.0114V50.9404ZM13.3229 56.8594V50.9404H19.2419V56.8594H13.3229ZM13.0114 57.171H7.09235V63.09H13.0114V57.171ZM13.3229 63.09V57.171H19.2419V63.09H13.3229ZM13.0114 63.4015H7.09235V69.3205H13.0114V63.4015ZM13.3229 69.3205V63.4015H19.2419V69.3205H13.3229ZM13.3229 75.551V69.632H19.2419V75.551H13.3229ZM13.3229 81.7816V75.8626H19.2419V81.7816H13.3229ZM12.7911 88.3236H7.09235V94.0224L12.7911 88.3236ZM7.31263 94.2426L13.0114 88.5439V94.2426H7.31263ZM19.5534 82.0931V88.0121H25.4724V82.0931H19.5534ZM25.7839 82.0931V88.0121H31.7029V82.0931H25.7839ZM31.7029 81.7816H25.7839V75.8626H31.7029V81.7816ZM32.0145 82.0931V88.0121H37.9335V82.0931H32.0145ZM37.9335 81.7816H32.0145V75.9513C33.8447 77.3011 35.828 78.4554 37.9335 79.3835V81.7816ZM37.9335 79.0426C35.9803 78.1713 34.1344 77.1028 32.4211 75.8626H37.9335V79.0426ZM38.245 79.1795V75.8626H44.164V81.0557C42.1085 80.6275 40.1281 79.9947 38.245 79.1795ZM38.245 79.5187C40.1296 80.3248 42.1099 80.9505 44.164 81.3739V81.7816H38.245V79.5187ZM44.4755 81.4364V81.7816H46.6471C45.9151 81.6916 45.1909 81.5763 44.4755 81.4364ZM44.4755 81.1189V75.8626H50.3945V81.7041C48.3697 81.6982 46.3907 81.4972 44.4755 81.1189ZM50.7061 81.7034V75.8626H56.6251V81.0932C54.7104 81.4799 52.7314 81.6893 50.7061 81.7034ZM54.3248 81.7816C55.1007 81.6862 55.8678 81.5623 56.6251 81.411V81.7816H54.3248ZM56.9366 81.3471V81.7816H62.8556V79.4633C60.9718 80.2792 58.9915 80.9144 56.9366 81.3471ZM56.9366 81.0286C58.9929 80.591 60.9733 79.9485 62.8556 79.1234V75.8626H56.9366V81.0286ZM63.1671 78.9848V75.8626H68.5508C66.8751 77.0755 65.0727 78.1242 63.1671 78.9848ZM63.1671 79.3264C65.2706 78.3878 67.251 77.2229 69.0772 75.8626H69.0861V81.7816H63.1671V79.3264ZM69.4883 75.551H75.0964L72.4754 72.9301C71.537 73.8652 70.5392 74.7409 69.4883 75.551ZM69.3976 75.2272C70.4015 74.4469 71.3558 73.6059 72.2551 72.7098L69.3976 69.8523V75.2272ZM69.0861 75.4662V69.632H63.1671V75.551H68.9736C69.0112 75.5229 69.0487 75.4946 69.0861 75.4662ZM72.4747 72.4888L69.6179 69.632H74.9604C74.1903 70.6348 73.3599 71.5888 72.4747 72.4888ZM72.695 72.7091C73.6317 71.7569 74.5077 70.7447 75.3166 69.6788V75.3308L72.695 72.7091ZM75.6282 69.2611V69.3205H81.5472V63.4015H79.0125C78.0958 65.4841 76.9578 67.4472 75.6282 69.2611ZM75.6282 68.7291C76.8108 67.0679 77.8328 65.2845 78.6717 63.4015H75.6282V68.7291ZM75.3166 69.1589V63.4015H69.3976V69.3205H75.1965C75.2368 69.2668 75.2768 69.2129 75.3166 69.1589ZM78.8085 63.09H75.6282V57.171H80.6815C80.2543 59.2264 79.6225 61.2068 78.8085 63.09ZM79.1476 63.09H81.5472V57.171H80.9996C80.5772 59.225 79.9527 61.2052 79.1476 63.09ZM81.062 56.8594H81.5472V53.2679C81.4542 54.486 81.2911 55.6845 81.062 56.8594ZM81.327 50.9404H75.6282V56.8594H80.7445C81.1219 54.9442 81.322 52.9652 81.327 50.9404ZM81.3262 50.6289H75.6282V44.7099H80.7132C81.1008 46.6245 81.3112 48.6035 81.3262 50.6289ZM81.5472 48.4583V44.7099H81.031C81.2765 45.9349 81.45 47.1859 81.5472 48.4583ZM80.967 44.3984H81.5472V38.4794H79.0801C79.897 40.3631 80.5333 42.3434 80.967 44.3984ZM78.943 38.1679C78.0385 36.1435 76.9244 34.2334 75.6282 32.465V32.2488H81.5472V38.1679H78.943ZM75.6282 32.9971C76.7779 34.6121 77.7759 36.3426 78.6013 38.1679H75.6282V32.9971ZM75.3166 32.5673V38.1679H69.3976V32.2488H75.0784C75.1585 32.3545 75.2379 32.4606 75.3166 32.5673ZM74.8392 31.9373H69.6179L72.3968 29.1585C73.2648 30.0346 74.0806 30.9626 74.8392 31.9373ZM72.1764 28.9383L69.3976 31.717V26.4989C70.3723 27.2565 71.3002 28.0713 72.1764 28.9383ZM72.3967 28.718C71.4542 27.7854 70.4525 26.9125 69.3976 26.1055V26.0183H75.0964L72.3967 28.718ZM72.6171 28.9382L75.3166 26.2386V31.9373H75.2327C74.4247 30.8824 73.5508 29.8806 72.6171 28.9382ZM68.8648 25.7068H69.0861V19.7878H63.1671V22.3998C65.1893 23.3021 67.0977 24.4136 68.8648 25.7068ZM68.3322 25.7068C66.7187 24.5601 64.9901 23.5647 63.1671 22.7414V25.7068H68.3322ZM68.7627 26.0183H63.1671V31.9373H69.0861V26.2599C68.9788 26.1787 68.871 26.0982 68.7627 26.0183ZM62.8556 22.6027V25.7068H56.9366V20.6976C58.9929 21.1352 60.9733 21.7777 62.8556 22.6027ZM62.8556 22.2628C60.9718 21.447 58.9915 20.8118 56.9366 20.3791V19.7878H62.8556V22.2628ZM56.6251 20.3152V19.7878H52.6984C54.0322 19.8814 55.3428 20.0589 56.6251 20.3152ZM56.6251 20.633C54.7104 20.2463 52.7314 20.0369 50.7061 20.0227V25.7068H56.6251V20.633ZM50.3945 20.0221V25.7068H44.4755V20.6073C46.3907 20.229 48.3697 20.028 50.3945 20.0221ZM48.2735 19.7878C46.9843 19.8782 45.7167 20.0472 44.4755 20.2898V19.7878H48.2735ZM44.164 20.3523V19.7878H38.245V22.2075C40.1296 21.4013 42.1099 20.7757 44.164 20.3523ZM44.164 20.6705C42.1085 21.0987 40.1281 21.7315 38.245 22.5467V25.7068H44.164V20.6705ZM37.9335 22.6836V25.7068H32.6397C34.2912 24.5331 36.0631 23.518 37.9335 22.6836ZM37.9335 22.3427C35.8635 23.2551 33.9116 24.3862 32.1071 25.7068H32.0145V19.7878H37.9335V22.3427ZM31.6888 26.0183H26.0042L28.64 28.6541C29.5977 27.7119 30.6161 26.8312 31.6888 26.0183ZM31.7029 26.3995C30.7053 27.1666 29.756 27.9933 28.8603 28.8744L31.7029 31.717V26.3995ZM32.0145 26.163V31.9373H37.9335V26.0183H32.2093C32.1441 26.0663 32.0792 26.1146 32.0145 26.163ZM28.6393 29.0939L31.4827 31.9373H26.1328C26.91 30.9386 27.7473 29.989 28.6393 29.0939ZM28.419 28.8736C27.4784 29.8175 26.598 30.8214 25.7839 31.879V26.2386L28.419 28.8736ZM25.4724 32.2908V32.2488H19.5534V38.1679H22.0289C22.9632 36.0768 24.1212 34.1077 25.4724 32.2908ZM25.4724 32.8177C24.2684 34.4837 23.2267 36.2749 22.3706 38.1679H25.4724V32.8177ZM25.7839 32.3942V38.1679H31.7029V32.2488H25.8935C25.8568 32.2972 25.8203 32.3457 25.7839 32.3942ZM22.2318 38.4794H25.4724V44.3984H20.3235C20.7621 42.342 21.4057 40.3615 22.2318 38.4794ZM21.8918 38.4794H19.5534V44.3984H20.0049C20.4386 42.3434 21.0749 40.3631 21.8918 38.4794ZM19.9409 44.7099H19.5534V47.1406C19.6511 46.3202 19.7807 45.5095 19.9409 44.7099ZM19.6457 50.6289H25.4724V44.7099H20.2587C19.8711 46.6245 19.6608 48.6035 19.6457 50.6289ZM19.6449 50.9404H25.4724V56.8594H20.2274C19.85 54.9442 19.6499 52.9652 19.6449 50.9404ZM19.5534 54.5856V56.8594H19.9099C19.7639 56.1107 19.6447 55.3524 19.5534 54.5856ZM19.9723 57.171H19.5534V63.09H21.8243C21.0193 61.2052 20.3947 59.225 19.9723 57.171ZM22.1635 63.09H25.4724V57.171H20.2905C20.7176 59.2264 21.3494 61.2068 22.1635 63.09ZM22.3002 63.4015H25.4724V68.9085C24.2352 67.1965 23.1694 65.3525 22.3002 63.4015ZM21.9594 63.4015C22.8861 65.5068 24.039 67.4901 25.3874 69.3205H19.5534V63.4015H21.9594ZM25.7839 69.8472V75.3308L28.3408 72.7739C27.4296 71.8529 26.5754 70.8754 25.7839 69.8472ZM26.0115 69.632C26.8002 70.6589 27.652 71.6347 28.5611 72.5536L31.4827 69.632H26.0115ZM28.7813 72.7739L31.7029 69.8523V75.3267C30.676 74.5371 29.7002 73.6842 28.7813 72.7739ZM28.561 72.9942C29.4807 73.9053 30.4568 74.7595 31.4836 75.551H26.0042L28.561 72.9942ZM78.7401 38.4794H75.6282V44.3984H80.6484C80.2098 42.342 79.5663 40.3615 78.7401 38.4794ZM38.245 82.0931V88.0121H44.164V82.0931H38.245ZM44.4755 82.0931V88.0121H50.3945V82.0931H44.4755ZM50.7061 82.0931V88.0121H56.6251V82.0931H50.7061ZM56.9366 82.0931V88.0121H62.8556V82.0931H56.9366ZM63.1671 82.0931V88.0121H69.0861V82.0931H63.1671ZM69.3976 82.0931V88.0121H75.3166V82.0931H69.3976ZM75.3166 81.7816H69.3976V75.8626H75.3166V81.7816ZM75.6282 82.0931V88.0121H81.5472V82.0931H75.6282ZM88.0892 94.2426H93.788L88.0892 88.5439V94.2426ZM88.3095 88.3236L94.0082 94.0224V88.3236H88.3095ZM81.8587 81.7816H87.7777V75.8626H81.8587V81.7816ZM81.8587 75.551H87.7777V69.632H81.8587V75.551ZM81.5472 69.632V75.551H75.6282V69.632H81.5472ZM81.8587 69.3205H87.7777V63.4015H81.8587V69.3205ZM81.8587 63.09H87.7777V57.171H81.8587V63.09ZM81.8587 56.8594H87.7777V50.9404H81.8587V56.8594ZM81.8587 50.6289H87.7777V44.7099H81.8587V50.6289ZM81.8587 44.3984H87.7777V38.4794H81.8587V44.3984ZM81.8587 38.1679H87.7777V32.2488H81.8587V38.1679ZM81.8587 31.9373H87.7777V26.0183H81.8587V31.9373ZM81.5472 26.0183V31.9373H75.6282V26.0183H81.5472ZM81.8587 25.7068H87.7777V19.7878H81.8587V25.7068ZM94.0082 13.2457V7.54701L88.3095 13.2457H94.0082ZM88.0892 13.0255L93.788 7.32673H88.0892V13.0255ZM81.5472 19.4763V13.5573H75.6282V19.4763H81.5472ZM75.3166 19.4763V13.5573H69.3976V19.4763H75.3166ZM69.3976 19.7878H75.3166V25.7068H69.3976V19.7878ZM69.0861 19.4763V13.5573H63.1671V19.4763H69.0861ZM62.8556 19.4763V13.5573H56.9366V19.4763H62.8556ZM56.6251 19.4763V13.5573H50.7061V19.4763H56.6251ZM50.3945 19.4763V13.5573H44.4755V19.4763H50.3945ZM44.164 19.4763V13.5573H38.245V19.4763H44.164ZM37.9335 19.4763V13.5573H32.0145V19.4763H37.9335ZM31.7029 19.4763V13.5573H25.7839V19.4763H31.7029ZM25.7839 19.7878H31.7029V25.7068H25.7839V19.7878ZM25.4724 19.4763V13.5573H19.5534V19.4763H25.4724ZM13.0114 7.32673H7.31263L13.0114 13.0254V7.32673ZM32.0145 7.32673V13.2457H37.9335V7.32673H32.0145ZM38.245 7.32673V13.2457H44.164V7.32673H38.245ZM44.4755 7.32673V13.2457H50.3945V7.32673H44.4755ZM50.7061 7.32673V13.2457H56.6251V7.32673H50.7061ZM56.9366 7.32673V13.2457H62.8556V7.32673H56.9366ZM63.1671 7.32673V13.2457H69.0861V7.32673H63.1671ZM19.5534 20.0081V25.7068H25.2521L19.5534 20.0081ZM25.4724 26.0183H19.5534V31.9373H25.4724V26.0183ZM25.7839 44.3984V38.4794H31.7029V44.3984H25.7839ZM25.7839 50.6289V44.7099H31.7029V50.6289H25.7839ZM25.7839 56.8594V50.9404H31.7029V56.8594H25.7839ZM25.7839 63.09V57.171H31.7029V63.09H25.7839ZM25.7839 69.3205V63.4015H31.7029V69.3205H25.7839ZM25.4724 69.632H19.5534V75.551H25.4724V69.632ZM25.2521 75.8626H19.5534V81.5613L25.2521 75.8626ZM19.7737 81.7816H25.4724V76.0828L19.7737 81.7816ZM32.0145 69.632V75.551H37.9335V69.632H32.0145ZM38.245 69.632V75.551H44.164V69.632H38.245ZM44.164 69.3205H38.245V63.4015H44.164V69.3205ZM44.4755 69.632V75.551H50.3945V69.632H44.4755ZM50.3945 69.3205H44.4755V63.4015H50.3945V69.3205ZM50.7061 69.632V75.551H56.6251V69.632H50.7061ZM56.6251 69.3205H50.7061V63.4015H56.6251V69.3205ZM56.9366 69.632V75.551H62.8556V69.632H56.9366ZM62.8556 69.3205H56.9366V63.4015H62.8556V69.3205ZM75.8485 75.8626H81.5472V81.5613L75.8485 75.8626ZM81.3269 81.7816H75.6282V76.0828L81.3269 81.7816ZM69.0861 69.1002V63.4015H63.3874L69.0861 69.1002ZM63.1671 63.09H69.0861V57.171H63.1671V63.09ZM63.1671 56.8594H69.0861V50.9404H63.1671V56.8594ZM62.8556 50.9404V56.8594H56.9366V50.9404H62.8556ZM63.1671 50.6289H69.0861V44.7099H63.1671V50.6289ZM62.8556 44.7099V50.6289H56.9366V44.7099H62.8556ZM63.1671 44.3984H69.0861V38.4794H63.1671V44.3984ZM63.3874 38.1679H69.0861V32.4691L63.3874 38.1679ZM68.8658 32.2488H63.1671V37.9476L68.8658 32.2488ZM62.8556 38.1679V32.2488H56.9366V38.1679H62.8556ZM56.6251 38.1679V32.2488H50.7061V38.1679H56.6251ZM50.7061 38.4794H56.6251V44.3984H50.7061V38.4794ZM50.3945 38.1679V32.2488H44.4755V38.1679H50.3945ZM44.4755 38.4794H50.3945V44.3984H44.4755V38.4794ZM44.164 38.1679V32.2488H38.245V38.1679H44.164ZM37.9335 37.9476V32.2488H32.2347L37.9335 37.9476ZM32.0145 32.4691V38.1679H37.7132L32.0145 32.4691ZM37.9335 38.4794H32.0145V44.3984H37.9335V38.4794ZM37.9335 44.7099H32.0145V50.6289H37.9335V44.7099ZM38.245 50.6289V44.7099H44.164V50.6289H38.245ZM37.9335 50.9404H32.0145V56.8594H37.9335V50.9404ZM38.245 56.8594V50.9404H44.164V56.8594H38.245ZM37.9335 57.171H32.0145V63.09H37.9335V57.171ZM37.7132 63.4015H32.0145V69.1002L37.7132 63.4015ZM32.2347 69.3205H37.9335V63.6218L32.2347 69.3205ZM38.4653 63.09H44.164V57.3913L38.4653 63.09ZM44.4755 57.171V63.09H50.3945V57.171H44.4755ZM50.7061 57.171V63.09H56.6251V57.171H50.7061ZM56.9366 57.3913V63.09H62.6353L56.9366 57.3913ZM62.8556 62.8697V57.171H57.1569L62.8556 62.8697ZM56.6251 56.6392V50.9404H50.9263L56.6251 56.6392ZM50.9263 50.6289H56.6251V44.9302L50.9263 50.6289ZM56.9366 44.1781V38.4794H62.6353L56.9366 44.1781ZM62.8556 38.6997V44.3984H57.1569L62.8556 38.6997ZM56.4048 44.7099L50.7061 50.4086V44.7099H56.4048ZM50.3945 44.7099H44.6958L50.3945 50.4086V44.7099ZM50.1743 50.6289L44.4755 44.9302V50.6289H50.1743ZM44.4755 50.9404V56.6392L50.1743 50.9404H44.4755ZM50.3945 51.1607V56.8594H44.6958L50.3945 51.1607ZM50.7061 51.1607V56.8594H56.4048L50.7061 51.1607ZM43.9437 57.171H38.245V62.8697L43.9437 57.171ZM43.9437 44.3984H38.245V38.6997L43.9437 44.3984ZM38.4653 38.4794H44.164V44.1781L38.4653 38.4794ZM63.1671 63.6218V69.3205H68.8658L63.1671 63.6218ZM25.4724 25.4865V19.7878H19.7737L25.4724 25.4865ZM38.245 26.0183V31.9373H44.164V26.0183H38.245ZM44.4755 26.0183V31.9373H50.3945V26.0183H44.4755ZM50.7061 26.0183V31.9373H56.6251V26.0183H50.7061ZM56.9366 26.0183V31.9373H62.8556V26.0183H56.9366ZM75.6282 25.4865V19.7878H81.3269L75.6282 25.4865ZM81.5472 20.0081V25.7068H75.8485L81.5472 20.0081ZM75.3166 38.4794H69.3976V44.3984H75.3166V38.4794ZM75.3166 44.7099H69.3976V50.6289H75.3166V44.7099ZM75.3166 50.9404H69.3976V56.8594H75.3166V50.9404ZM75.3166 57.171H69.3976V63.09H75.3166V57.171ZM94.0082 32.2488H88.0892V38.1679H94.0082V32.2488ZM94.0082 38.4794H88.0892V44.3984H94.0082V38.4794ZM94.0082 44.7099H88.0892V50.6289H94.0082V44.7099ZM94.0082 50.9404H88.0892V56.8594H94.0082V50.9404ZM94.0082 57.171H88.0892V63.09H94.0082V57.171ZM94.0082 63.4015H88.0892V69.3205H94.0082V63.4015ZM69.0861 94.2426V88.3236H63.1671V94.2426H69.0861ZM62.8556 94.2426V88.3236H56.9366V94.2426H62.8556ZM56.6251 94.2426V88.3236H50.7061V94.2426H56.6251ZM50.3945 94.2426V88.3236H44.4755V94.2426H50.3945ZM44.164 94.2426V88.3236H38.245V94.2426H44.164ZM37.9335 94.2426V88.3236H32.0145V94.2426H37.9335Z" fill="black"/>
</svg>
