<svg width="101" height="101" viewBox="0 0 101 101" fill="none" xmlns="http://www.w3.org/2000/svg">
<path d="M29.1248 100.345H17.9839L18.0758 75.8213C18.1528 74.9172 18.2953 73.6649 18.5604 72.1781C19.0856 69.2323 20.1178 65.2163 22.1793 61.1293C24.2512 57.0217 27.4249 52.7255 32.2569 49.4667C37.1309 46.1796 43.346 44.1838 51.0849 44.1838C58.822 44.1838 65.0106 46.1794 69.8342 49.498C74.6167 52.7883 77.6906 57.1248 79.6545 61.2579C81.6074 65.3679 82.5247 69.4 82.9642 72.3495C83.1862 73.8393 83.2923 75.0935 83.3428 75.9984L83.388 100.345H72.2472L72.2474 86.0956C72.2503 80.7191 72.2543 73.4713 69.8934 67.5699C68.5866 64.3035 66.4689 61.1711 63.0796 58.9147C59.7116 56.6725 55.6058 55.6399 50.9035 55.6399C46.2224 55.6399 42.1259 56.6434 38.741 58.8183C35.3288 61.0108 33.1346 64.0758 31.7478 67.3301C29.1469 73.4335 29.1248 80.9843 29.1248 86.6497V100.345Z" fill="#0A00D8"/>
<path fill-rule="evenodd" clip-rule="evenodd" d="M29.5742 38.9558C29.5742 45.25 24.5039 50.4169 18.1189 50.4169C11.7339 50.4169 6.66347 45.1561 6.66347 38.8619C6.66347 32.5677 11.7339 27.4008 18.1189 27.4008C24.4099 27.4008 29.5742 32.6616 29.5742 38.9558ZM24.1753 38.8125C24.1753 42.1185 21.489 44.7985 18.1753 44.7985C14.8616 44.7985 12.1753 42.1185 12.1753 38.8125C12.1753 35.5065 14.8616 32.8264 18.1753 32.8264C21.489 32.8264 24.1753 35.5065 24.1753 38.8125Z" fill="#0A00D8"/>
<path fill-rule="evenodd" clip-rule="evenodd" d="M94.2689 38.9558C94.2689 45.25 89.1989 50.4169 82.8139 50.4169C76.4289 50.4169 71.3583 45.1561 71.3583 38.8619C71.3583 32.5677 76.4289 27.4008 82.8139 27.4008C89.1046 27.4008 94.2689 32.6616 94.2689 38.9558ZM82.6748 44.7985C85.9885 44.7985 88.6748 42.1185 88.6748 38.8125C88.6748 35.5065 85.9885 32.8264 82.6748 32.8264C79.3611 32.8264 76.6748 35.5065 76.6748 38.8125C76.6748 42.1185 79.3611 44.7985 82.6748 44.7985Z" fill="#0A00D8"/>
<path fill-rule="evenodd" clip-rule="evenodd" d="M69.8558 19.5096C69.8558 30.1251 61.3114 38.674 50.7011 38.674C40.0907 38.674 31.5461 30.1251 31.5461 19.5096C31.5461 8.89398 40.0907 0.345215 50.7011 0.345215C61.3114 0.345215 69.8558 8.89398 69.8558 19.5096ZM50.5602 29.3255C56.0164 29.3255 60.4396 24.9126 60.4396 19.469C60.4396 14.0254 56.0164 9.61244 50.5602 9.61244C45.1039 9.61244 40.6807 14.0254 40.6807 19.469C40.6807 24.9126 45.1039 29.3255 50.5602 29.3255Z" fill="#0A00D8"/>
<path d="M100.466 74.8423V75.7813L100.56 100.019H90.1377L90.0439 77.2847C90.0439 74.2786 88.8233 71.5543 86.9452 69.6749C86.1002 64.6959 84.3158 59.999 81.6871 55.8655C92.1096 55.9595 100.466 64.4147 100.466 74.8423Z" fill="#0A00D8"/>
<path d="M0.560181 74.8423C0.560181 64.4147 9.38649 55.7716 19.9029 55.7716C17.4616 59.6233 15.6776 63.9445 14.8325 68.6417C12.2034 70.4269 11.4193 73.6207 11.4193 77.2847V100.113H0.560181V74.8423Z" fill="#0A00D8"/>
</svg>
