<svg width="101" height="101" viewBox="0 0 101 101" fill="none" xmlns="http://www.w3.org/2000/svg">
<mask id="path-1-inside-1_224_630" fill="white">
<path d="M67.0111 43.4602L53.5687 55.9857C52.3313 57.1386 52.2998 59.0807 53.4991 60.2726L57.6328 64.3811C58.1958 64.9407 58.9594 65.2551 59.7557 65.2551H65.6229C66.0803 65.2551 66.5283 65.1541 66.9282 64.9334C68.7539 63.9259 74.0528 60.6557 74.1241 56.6015C74.1711 53.9283 72.8912 48.6405 71.8441 44.7872C71.2651 42.6564 68.6311 41.9507 67.0111 43.4602Z"/>
<path d="M34.1023 43.4602L47.5447 55.9857C48.782 57.1386 48.8135 59.0807 47.6142 60.2726L43.4806 64.3811C42.9176 64.9407 42.1539 65.2551 41.3577 65.2551H35.4905C35.0331 65.2551 34.5851 65.1541 34.1852 64.9334C32.3595 63.9259 27.0605 60.6557 26.9892 56.6015C26.9422 53.9283 28.2221 48.6405 29.2693 44.7872C29.8483 42.6564 32.4823 41.9507 34.1023 43.4602Z"/>
<path d="M80.0111 20.1264L52.3688 49.204C51.1738 50.461 49.1573 50.4484 47.9784 49.1764L21.0058 20.0756C19.968 18.9559 19.9438 17.2533 21.0168 16.1667C25.5935 11.532 38.0214 0.203857 50.1587 0.203857C62.2702 0.203857 75.1717 11.4839 79.9785 16.1371C81.1065 17.229 81.0925 18.9889 80.0111 20.1264Z"/>
<path d="M49.5098 63.2692C49.9874 62.7373 50.8245 62.7373 51.302 63.2692L57.4612 70.13C58.1518 70.8993 57.6024 72.1183 56.5651 72.1183H44.2467C43.2094 72.1183 42.66 70.8993 43.3506 70.13L49.5098 63.2692Z"/>
<path d="M49.7965 94.4985C43.2152 94.4985 36.5764 92.7081 32.3732 90.3209L29.3709 70.9248C15.7806 64.8184 15.1695 44.5268 24.1463 31.8327L17.2162 25.0667C15.9966 23.8761 14.0431 23.9433 12.9934 25.2843C9.72461 29.4602 3.28234 38.6694 0.37199 49.6361C0.301685 49.901 0.270736 50.1816 0.279538 50.4554C1.40188 85.3733 30.6684 101.06 50.1586 100.168C70.4273 100.168 101.16 82.7245 100.259 50.4862C100.25 50.1919 100.194 49.8916 100.096 49.6137C95.9467 37.7973 90.9819 29.658 88.3281 25.7784C87.3463 24.3432 85.3512 24.1966 84.0817 25.3882L76.1339 32.848C84.3824 45.5826 83.4555 64.9787 70.2221 70.9248L67.2198 90.3209C63.0166 92.7081 56.3778 94.4985 49.7965 94.4985Z"/>
</mask>
<path d="M67.0111 43.4602L53.5687 55.9857C52.3313 57.1386 52.2998 59.0807 53.4991 60.2726L57.6328 64.3811C58.1958 64.9407 58.9594 65.2551 59.7557 65.2551H65.6229C66.0803 65.2551 66.5283 65.1541 66.9282 64.9334C68.7539 63.9259 74.0528 60.6557 74.1241 56.6015C74.1711 53.9283 72.8912 48.6405 71.8441 44.7872C71.2651 42.6564 68.6311 41.9507 67.0111 43.4602Z" fill="#0A00D8"/>
<path d="M34.1023 43.4602L47.5447 55.9857C48.782 57.1386 48.8135 59.0807 47.6142 60.2726L43.4806 64.3811C42.9176 64.9407 42.1539 65.2551 41.3577 65.2551H35.4905C35.0331 65.2551 34.5851 65.1541 34.1852 64.9334C32.3595 63.9259 27.0605 60.6557 26.9892 56.6015C26.9422 53.9283 28.2221 48.6405 29.2693 44.7872C29.8483 42.6564 32.4823 41.9507 34.1023 43.4602Z" fill="#0A00D8"/>
<path d="M80.0111 20.1264L52.3688 49.204C51.1738 50.461 49.1573 50.4484 47.9784 49.1764L21.0058 20.0756C19.968 18.9559 19.9438 17.2533 21.0168 16.1667C25.5935 11.532 38.0214 0.203857 50.1587 0.203857C62.2702 0.203857 75.1717 11.4839 79.9785 16.1371C81.1065 17.229 81.0925 18.9889 80.0111 20.1264Z" fill="#0A00D8"/>
<path d="M49.5098 63.2692C49.9874 62.7373 50.8245 62.7373 51.302 63.2692L57.4612 70.13C58.1518 70.8993 57.6024 72.1183 56.5651 72.1183H44.2467C43.2094 72.1183 42.66 70.8993 43.3506 70.13L49.5098 63.2692Z" fill="#0A00D8"/>
<path d="M49.7965 94.4985C43.2152 94.4985 36.5764 92.7081 32.3732 90.3209L29.3709 70.9248C15.7806 64.8184 15.1695 44.5268 24.1463 31.8327L17.2162 25.0667C15.9966 23.8761 14.0431 23.9433 12.9934 25.2843C9.72461 29.4602 3.28234 38.6694 0.37199 49.6361C0.301685 49.901 0.270736 50.1816 0.279538 50.4554C1.40188 85.3733 30.6684 101.06 50.1586 100.168C70.4273 100.168 101.16 82.7245 100.259 50.4862C100.25 50.1919 100.194 49.8916 100.096 49.6137C95.9467 37.7973 90.9819 29.658 88.3281 25.7784C87.3463 24.3432 85.3512 24.1966 84.0817 25.3882L76.1339 32.848C84.3824 45.5826 83.4555 64.9787 70.2221 70.9248L67.2198 90.3209C63.0166 92.7081 56.3778 94.4985 49.7965 94.4985Z" fill="#0A00D8"/>
<path d="M67.0111 43.4602L71.0546 47.7997L67.0111 43.4602ZM53.5687 55.9857L49.5252 51.6462L49.5252 51.6462L53.5687 55.9857ZM57.6328 64.3811L61.814 60.1742L61.814 60.1742L57.6328 64.3811ZM66.9282 64.9334L64.0625 59.7403L64.0625 59.7403L66.9282 64.9334ZM74.1241 56.6015L80.0546 56.7058L74.1241 56.6015ZM71.8441 44.7872L77.5679 43.2317V43.2317L71.8441 44.7872ZM34.1023 43.4602L30.0588 47.7997L34.1023 43.4602ZM47.5447 55.9857L51.5882 51.6462L51.5882 51.6462L47.5447 55.9857ZM43.4806 64.3811L39.2993 60.1742L39.2993 60.1742L43.4806 64.3811ZM34.1852 64.9334L37.0509 59.7403L37.0509 59.7403L34.1852 64.9334ZM26.9892 56.6015L21.0588 56.7058L26.9892 56.6015ZM29.2693 44.7872L23.5455 43.2317L29.2693 44.7872ZM80.0111 20.1264L75.7122 16.0398L75.7122 16.0398L80.0111 20.1264ZM52.3688 49.204L48.0699 45.1173L48.0699 45.1173L52.3688 49.204ZM47.9784 49.1764L52.3285 45.1444L52.3285 45.1444L47.9784 49.1764ZM21.0058 20.0756L16.6557 24.1076L21.0058 20.0756ZM21.0168 16.1667L16.7964 11.9991V11.9991L21.0168 16.1667ZM79.9785 16.1371L84.104 11.8754V11.8754L79.9785 16.1371ZM49.5098 63.2692L53.9235 67.2316H53.9235L49.5098 63.2692ZM51.302 63.2692L46.8883 67.2316H46.8883L51.302 63.2692ZM57.4612 70.13L53.0475 74.0924L57.4612 70.13ZM43.3506 70.13L38.9369 66.1676L43.3506 70.13ZM32.3732 90.3209L26.5116 91.2282L26.9503 94.0622L29.444 95.4784L32.3732 90.3209ZM29.3709 70.9248L35.2325 70.0175L34.7398 66.8346L31.8019 65.5145L29.3709 70.9248ZM24.1463 31.8327L28.9891 35.2574L31.9116 31.1246L28.2898 27.5886L24.1463 31.8327ZM17.2162 25.0667L21.3597 20.8227H21.3597L17.2162 25.0667ZM12.9934 25.2843L17.664 28.9404V28.9404L12.9934 25.2843ZM0.37199 49.6361L6.10491 51.1575L6.10491 51.1575L0.37199 49.6361ZM0.279538 50.4554L-5.64876 50.646L0.279538 50.4554ZM50.1586 100.168V94.2366H50.023L49.8875 94.2428L50.1586 100.168ZM100.259 50.4862L94.3297 50.6518L94.3297 50.6519L100.259 50.4862ZM100.096 49.6137L105.693 47.6485L105.693 47.6484L100.096 49.6137ZM88.3281 25.7784L93.2236 22.4296V22.4296L88.3281 25.7784ZM84.0817 25.3882L88.141 29.7129V29.7129L84.0817 25.3882ZM76.1339 32.848L72.0747 28.5233L68.4621 31.9141L71.1557 36.0726L76.1339 32.848ZM70.2221 70.9248L67.7911 65.5145L64.8532 66.8346L64.3605 70.0175L70.2221 70.9248ZM67.2198 90.3209L70.149 95.4784L72.6427 94.0622L73.0813 91.2282L67.2198 90.3209ZM62.9676 39.1207L49.5252 51.6462L57.6122 60.3252L71.0546 47.7997L62.9676 39.1207ZM49.5252 51.6462C45.8268 55.0923 45.7311 60.9146 49.3179 64.4795L57.6804 56.0657C58.8686 57.2467 58.8359 59.1849 57.6122 60.3252L49.5252 51.6462ZM49.3179 64.4795L53.4515 68.588L61.814 60.1742L57.6804 56.0657L49.3179 64.4795ZM53.4515 68.588C55.1296 70.2559 57.398 71.1864 59.7557 71.1864V59.3237C60.5209 59.3237 61.262 59.6255 61.814 60.1742L53.4515 68.588ZM59.7557 71.1864H65.6229V59.3237H59.7557V71.1864ZM65.6229 71.1864C66.9514 71.1864 68.4084 70.8911 69.7939 70.1266L64.0625 59.7403C64.6482 59.4171 65.2091 59.3237 65.6229 59.3237V71.1864ZM69.7939 70.1266C70.8905 69.5214 73.148 68.1804 75.22 66.2564C77.1012 64.5097 79.975 61.2311 80.0546 56.7058L68.1937 56.4971C68.1987 56.2087 68.2943 56.1636 68.1399 56.421C67.9786 56.6899 67.6647 57.0838 67.1481 57.5635C66.0964 58.54 64.7916 59.3379 64.0625 59.7403L69.7939 70.1266ZM80.0546 56.7058C80.0908 54.6446 79.6496 52.0819 79.2013 49.9281C78.7224 47.6273 78.1069 45.2154 77.5679 43.2317L66.1203 46.3426C66.6284 48.2122 67.1765 50.3708 67.5875 52.3456C68.0292 54.4674 68.2044 55.8851 68.1937 56.4971L80.0546 56.7058ZM77.5679 43.2317C75.7706 36.6179 67.7199 34.6926 62.9676 39.1207L71.0546 47.7997C69.5423 49.2089 66.7596 48.6949 66.1203 46.3426L77.5679 43.2317ZM30.0588 47.7997L43.5012 60.3252L51.5882 51.6462L38.1458 39.1207L30.0588 47.7997ZM43.5012 60.3252C42.2775 59.185 42.2448 57.2467 43.433 56.0657L51.7955 64.4795C55.3823 60.9146 55.2865 55.0923 51.5882 51.6462L43.5012 60.3252ZM43.433 56.0657L39.2993 60.1742L47.6619 68.588L51.7955 64.4795L43.433 56.0657ZM39.2993 60.1742C39.8514 59.6255 40.5925 59.3237 41.3577 59.3237V71.1864C43.7153 71.1864 45.9837 70.2559 47.6619 68.588L39.2993 60.1742ZM41.3577 59.3237H35.4905V71.1864H41.3577V59.3237ZM35.4905 59.3237C35.9043 59.3237 36.4652 59.4171 37.0509 59.7403L31.3195 70.1266C32.7049 70.8911 34.1619 71.1864 35.4905 71.1864V59.3237ZM37.0509 59.7403C36.3218 59.3379 35.017 58.54 33.9653 57.5635C33.4487 57.0838 33.1347 56.6899 32.9734 56.421C32.819 56.1636 32.9146 56.2087 32.9197 56.4971L21.0588 56.7058C21.1384 61.2311 24.0122 64.5097 25.8933 66.2564C27.9653 68.1804 30.2229 69.5214 31.3195 70.1266L37.0509 59.7403ZM32.9197 56.4971C32.9089 55.8851 33.0842 54.4674 33.5258 52.3456C33.9369 50.3708 34.485 48.2122 34.993 46.3426L23.5455 43.2317C23.0064 45.2154 22.391 47.6273 21.9121 49.9281C21.4637 52.0819 21.0225 54.6446 21.0588 56.7058L32.9197 56.4971ZM34.993 46.3426C34.3538 48.6949 31.5711 49.2089 30.0588 47.7997L38.1458 39.1207C33.3934 34.6926 25.3428 36.6179 23.5455 43.2317L34.993 46.3426ZM75.7122 16.0398L48.0699 45.1173L56.6676 53.2907L84.31 24.2131L75.7122 16.0398ZM48.0699 45.1173C49.2332 43.8937 51.1801 43.9054 52.3285 45.1444L43.6282 53.2084C47.1345 56.9914 53.1144 57.0284 56.6676 53.2907L48.0699 45.1173ZM52.3285 45.1444L25.356 16.0436L16.6557 24.1076L43.6282 53.2084L52.3285 45.1444ZM25.356 16.0436C26.3391 17.1043 26.5327 19.0224 25.2372 20.3343L16.7964 11.9991C13.3549 15.4841 13.5968 20.8074 16.6557 24.1076L25.356 16.0436ZM25.2372 20.3343C27.372 18.1724 31.2941 14.5001 36.0077 11.4056C40.8396 8.2334 45.8023 6.13522 50.1587 6.13522V-5.7275C42.3778 -5.7275 35.0579 -2.16161 29.4974 1.48895C23.8185 5.2172 19.2382 9.52627 16.7964 11.9991L25.2372 20.3343ZM50.1587 6.13522C54.5293 6.13522 59.619 8.24174 64.6212 11.4282C69.4944 14.5324 73.5997 18.2174 75.8531 20.3987L84.104 11.8754C81.5505 9.4036 76.8016 5.122 70.9945 1.4229C65.3165 -2.194 57.8996 -5.7275 50.1587 -5.7275V6.13522ZM75.8531 20.3987C74.5034 19.0922 74.6868 17.1185 75.7122 16.0398L84.3099 24.2131C87.4982 20.8594 87.7095 15.3658 84.104 11.8754L75.8531 20.3987ZM53.9235 67.2316C52.0442 69.325 48.7676 69.325 46.8883 67.2316L55.7157 59.3069C52.8813 56.1496 47.9305 56.1496 45.0961 59.3069L53.9235 67.2316ZM46.8883 67.2316L53.0475 74.0924L61.8749 66.1676L55.7157 59.3069L46.8883 67.2316ZM53.0475 74.0924C50.2606 70.9881 52.5446 66.1869 56.5651 66.1869V78.0496C62.6602 78.0496 66.0429 70.8104 61.8749 66.1676L53.0475 74.0924ZM56.5651 66.1869H44.2467V78.0496H56.5651V66.1869ZM44.2467 66.1869C48.2672 66.1869 50.5512 70.9881 47.7643 74.0924L38.9369 66.1676C34.7689 70.8104 38.1516 78.0496 44.2467 78.0496V66.1869ZM47.7643 74.0924L53.9235 67.2316L45.0961 59.3069L38.9369 66.1676L47.7643 74.0924ZM49.7965 88.5671C44.1147 88.5671 38.5081 86.9839 35.3024 85.1633L29.444 95.4784C34.6447 98.4322 42.3156 100.43 49.7965 100.43V88.5671ZM38.2348 89.4135L35.2325 70.0175L23.5093 71.8321L26.5116 91.2282L38.2348 89.4135ZM31.8019 65.5145C27.4931 63.5785 24.7866 59.2493 24.1989 53.269C23.6071 47.247 25.3343 40.4256 28.9891 35.2574L19.3035 28.408C13.9815 35.9339 11.5259 45.6053 12.393 54.4292C13.2643 63.2948 17.6584 72.1647 26.9399 76.3351L31.8019 65.5145ZM28.2898 27.5886L21.3597 20.8227L13.0726 29.3108L20.0028 36.0768L28.2898 27.5886ZM21.3597 20.8227C17.7886 17.3362 11.6981 17.3164 8.3228 21.6283L17.664 28.9404C16.3882 30.5702 14.2045 30.4159 13.0726 29.3108L21.3597 20.8227ZM8.3228 21.6283C4.86806 26.0417 -2.14633 36.0015 -5.36093 48.1147L6.10491 51.1575C8.71102 41.3372 14.5812 32.8787 17.664 28.9404L8.3228 21.6283ZM-5.36093 48.1147C-5.58323 48.9524 -5.67562 49.8103 -5.64876 50.646L6.20784 50.2649C6.21709 50.5528 6.1866 50.8497 6.10491 51.1575L-5.36093 48.1147ZM-5.64876 50.646C-4.40051 89.4809 28.2814 107.106 50.4296 106.093L49.8875 94.2428C33.0554 95.0128 7.20428 81.2657 6.20784 50.2649L-5.64876 50.646ZM50.1586 106.099C61.7721 106.099 75.8433 101.192 86.9366 91.9795C98.1825 82.6407 106.698 68.5738 106.188 50.3205L94.3297 50.6519C94.7206 64.6369 88.3203 75.4108 79.358 82.8533C70.2431 90.4225 58.8137 94.2366 50.1586 94.2366V106.099ZM106.188 50.3206C106.162 49.4007 105.99 48.4939 105.693 47.6485L94.5001 51.5789C94.3984 51.2893 94.3389 50.9831 94.3297 50.6518L106.188 50.3206ZM105.693 47.6484C101.338 35.247 96.1077 26.6457 93.2236 22.4296L83.4325 29.1272C85.8561 32.6703 90.5558 40.3475 94.5002 51.579L105.693 47.6484ZM93.2236 22.4296C90.0333 17.7656 83.7409 17.5732 80.0225 21.0634L88.141 29.7129C86.9615 30.82 84.6594 30.9208 83.4325 29.1272L93.2236 22.4296ZM80.0225 21.0634L72.0747 28.5233L80.1932 37.1728L88.141 29.7129L80.0225 21.0634ZM71.1557 36.0726C74.535 41.2899 76.0335 47.936 75.3439 53.7313C74.6603 59.4767 71.9934 63.6263 67.7911 65.5145L72.6531 76.3351C81.6842 72.2772 86.0975 63.7557 87.1235 55.133C88.1436 46.56 85.9814 37.1408 81.1122 29.6235L71.1557 36.0726ZM64.3605 70.0175L61.3582 89.4135L73.0813 91.2282L76.0836 71.8321L64.3605 70.0175ZM64.2906 85.1633C61.0849 86.9839 55.4783 88.5671 49.7965 88.5671V100.43C57.2774 100.43 64.9482 98.4322 70.149 95.4784L64.2906 85.1633Z" fill="#0A00D8" mask="url(#path-1-inside-1_224_630)"/>
</svg>
