<svg width="100" height="101" viewBox="0 0 100 101" fill="none" xmlns="http://www.w3.org/2000/svg">
<path d="M66.733 43.4602L53.2906 55.9857C52.0533 57.1386 52.0218 59.0807 53.2211 60.2726L57.3547 64.3811C57.9177 64.9407 58.6814 65.2551 59.4776 65.2551H65.3448C65.8022 65.2551 66.2502 65.1541 66.6501 64.9334C68.4758 63.9259 73.7747 60.6557 73.846 56.6015C73.8931 53.9283 72.6131 48.6405 71.566 44.7872C70.987 42.6564 68.353 41.9507 66.733 43.4602Z" fill="#0A00D8"/>
<path d="M33.8242 43.4602L47.2666 55.9857C48.5039 57.1386 48.5355 59.0807 47.3362 60.2726L43.2025 64.3811C42.6395 64.9407 41.8758 65.2551 41.0796 65.2551H35.2124C34.755 65.2551 34.307 65.1541 33.9071 64.9334C32.0814 63.9259 26.7825 60.6557 26.7112 56.6015C26.6641 53.9283 27.9441 48.6405 28.9912 44.7872C29.5702 42.6564 32.2042 41.9507 33.8242 43.4602Z" fill="#0A00D8"/>
<path d="M79.733 20.1264L52.0907 49.204C50.8957 50.461 48.8792 50.4484 47.7003 49.1764L20.7278 20.0756C19.6899 18.9559 19.6657 17.2533 20.7387 16.1667C25.3154 11.532 37.7433 0.203857 49.8806 0.203857C61.9921 0.203857 74.8936 11.4839 79.7004 16.1371C80.8284 17.229 80.8144 18.9889 79.733 20.1264Z" fill="#0A00D8"/>
<path d="M49.2318 63.2692C49.7093 62.7373 50.5464 62.7373 51.0239 63.2692L57.1831 70.13C57.8737 70.8993 57.3243 72.1183 56.287 72.1183H43.9686C42.9313 72.1183 42.382 70.8993 43.0725 70.13L49.2318 63.2692Z" fill="#0A00D8"/>
<path d="M49.5184 94.4985C42.9371 94.4985 36.2983 92.7081 32.0951 90.3209L29.0928 70.9248C15.5025 64.8184 14.8914 44.5268 23.8682 31.8327L16.9381 25.0667C15.7185 23.8761 13.7651 23.9433 12.7153 25.2843C9.44653 29.4602 3.00427 38.6694 0.0939139 49.6361C0.0236087 49.901 -0.00733968 50.1816 0.00146232 50.4554C1.12381 85.3733 30.3904 101.06 49.8805 100.168C70.1492 100.168 100.882 82.7245 99.9806 50.4862C99.9724 50.1919 99.916 49.8916 99.8184 49.6137C95.6686 37.7973 90.7038 29.658 88.05 25.7784C87.0682 24.3432 85.0731 24.1966 83.8036 25.3882L75.8559 32.848C84.1044 45.5826 83.1774 64.9787 69.944 70.9248L66.9417 90.3209C62.7385 92.7081 56.0998 94.4985 49.5184 94.4985Z" fill="#0A00D8"/>
</svg>
