<svg width="101" height="76" viewBox="0 0 101 76" fill="none" xmlns="http://www.w3.org/2000/svg">
<path d="M0.321289 3.21639C0.321289 1.55289 1.66983 0.204346 3.33334 0.204346H97.3092C98.9728 0.204346 100.321 1.55289 100.321 3.21639V9.24049C100.321 10.904 98.9728 12.2525 97.3092 12.2525H3.33334C1.66983 12.2525 0.321289 10.904 0.321289 9.24049V3.21639Z" fill="#0A00D8"/>
<path d="M0.321289 34.5417C0.321289 32.8782 1.66983 31.5296 3.33334 31.5296H97.3092C98.9728 31.5296 100.321 32.8782 100.321 34.5417V40.5658C100.321 42.2293 98.9728 43.5778 97.3092 43.5778H3.33334C1.66983 43.5778 0.321289 42.2293 0.321289 40.5658V34.5417Z" fill="#0A00D8"/>
<path d="M3.33334 63.1562C1.66983 63.1562 0.321289 64.5047 0.321289 66.1682V72.1923C0.321289 73.8558 1.66983 75.2043 3.33334 75.2043H97.3092C98.9728 75.2043 100.321 73.8558 100.321 72.1923V66.1682C100.321 64.5047 98.9728 63.1562 97.3092 63.1562H3.33334Z" fill="#0A00D8"/>
</svg>
