<svg width="101" height="101" viewBox="0 0 101 101" fill="none" xmlns="http://www.w3.org/2000/svg">
<path fill-rule="evenodd" clip-rule="evenodd" d="M49.7623 6.12757C46.1065 3.73109 41.7066 2.01076 37.3883 1.08674C31.1086 -0.256955 23.4911 -0.230849 17.434 3.39862C5.13448 10.7685 -0.174387 20.7896 0.0199072 31.8432C0.202861 42.2515 5.25562 52.6431 11.3251 61.5602C23.5369 79.5009 42.0688 94.6217 46.1192 97.5926L49.7702 100.271L53.4213 97.5926C57.3657 94.6994 76.3861 79.7769 88.778 61.9011C94.9349 53.0194 100.037 42.5933 100.015 32.0586C99.9911 20.8785 94.2232 10.8448 81.4352 3.36535C75.4707 -0.123145 68.0489 -0.168905 61.8808 1.15834C57.6531 2.06806 53.3568 3.75995 49.7623 6.12757ZM34.8007 13.0486C30.0725 12.0369 26.0788 12.5032 23.7827 13.8791C14.8274 19.2451 12.211 25.4039 12.3205 31.6293C12.3765 34.8165 13.1554 38.2438 14.5326 41.8227H30.8369C32.0143 41.8227 33.1209 42.3813 33.816 43.3265L38.5749 49.7981L46.4143 34.8333C47.7303 32.3211 51.2903 32.1754 52.8094 34.5716L57.4064 41.8227H60.9443C62.0304 40.0899 63.9639 38.9368 66.1682 38.9368C69.5654 38.9368 72.3194 41.6758 72.3194 45.0545C72.3194 48.4333 69.5654 51.1723 66.1682 51.1723C63.8203 51.1723 61.7796 49.864 60.743 47.9405H56.049C54.7817 47.9405 53.603 47.2938 52.9271 46.2276L49.8905 41.4378L42.2 56.1183C40.9358 58.5317 37.5631 58.7857 35.9479 56.5891L29.5881 47.9405H17.3758C18.5747 50.1638 19.9626 52.4236 21.5127 54.701C30.3922 67.7462 43.2274 79.409 49.8078 84.8752C56.5435 79.4313 69.6716 67.9071 78.6495 54.956C84.2998 46.8051 87.7266 38.9029 87.7123 32.0842C87.6993 25.9109 84.8652 19.566 75.1988 13.9123C72.9251 12.5825 69.0433 12.1358 64.4824 13.1172C59.9601 14.0903 56.1605 16.1787 54.2858 18.1943L49.7702 23.0495L45.2546 18.1943C43.3962 16.1961 39.4875 14.0515 34.8007 13.0486Z" fill="#0A00D8"/>
</svg>
