<svg width="100" height="100" viewBox="0 0 100 100" fill="none" xmlns="http://www.w3.org/2000/svg">
<path fill-rule="evenodd" clip-rule="evenodd" d="M38.2518 0L63.5645 1.35506C64.4159 1.40251 65.1409 1.95858 65.3671 2.73776L67.9035 11.4742C68.0835 12.0939 67.5708 12.6989 66.8933 12.6663L38.2588 11.3375L12.236 12.6563C11.5259 12.6923 11.0061 12.0316 11.2455 11.3971L14.5633 2.6017C14.8305 1.89337 15.5163 1.40318 16.3086 1.35428L38.2518 0Z" fill="#0A00D8"/>
<path fill-rule="evenodd" clip-rule="evenodd" d="M57.5473 82.8762C57.353 82.189 56.8071 81.6576 56.1149 81.4819L41.2829 77.7164C40.5959 77.542 40.0593 77.0335 39.8752 76.3826L35.337 60.3352C35.1529 59.6843 35.3493 58.9898 35.8522 58.5133L48.2508 46.7658C48.7537 46.2893 49.4868 46.1032 50.1738 46.2776L62.1264 49.3121C62.7913 49.4809 63.4962 49.2972 63.9942 48.8254L75.1265 38.2776C75.6295 37.8011 76.3625 37.615 77.0495 37.7894L93.9862 42.0893C94.6732 42.2637 95.2098 42.7722 95.3939 43.4231L99.9321 59.4704C100.116 60.1214 99.9198 60.8159 99.4169 61.2924L90.5076 69.7339C89.9677 70.2454 89.7563 71.0143 89.9586 71.7299L93.9597 85.878C94.1438 86.529 93.9474 87.2235 93.4445 87.7L81.0459 99.4475C80.543 99.924 79.81 100.11 79.123 99.9357L62.1862 95.6358C61.4992 95.4614 60.9626 94.953 60.7785 94.302L57.5473 82.8762ZM92.6901 59.6632C93.23 59.1517 93.4415 58.3828 93.2391 57.6672L90.534 48.1018C90.3397 47.4147 89.7938 46.8833 89.1016 46.7076L78.7921 44.0902C78.1272 43.9214 77.4223 44.1051 76.9244 44.5769L69.5369 51.5764C68.997 52.0879 68.7856 52.8568 68.988 53.5725L70.348 58.3815L71.7232 63.2442C71.9175 63.9313 72.4634 64.4627 73.1555 64.6385L83.3528 67.2273C84.0176 67.3961 84.7226 67.2124 85.2205 66.7406L92.6901 59.6632ZM63.0007 80.296C62.7983 79.5803 63.0098 78.8114 63.5496 78.2999L71.2032 71.0483C71.7011 70.5765 72.4061 70.3928 73.0709 70.5616L83.1292 73.1152C83.8214 73.2909 84.3673 73.8223 84.5616 74.5094L87.2667 84.0747C87.4691 84.7904 87.2576 85.5593 86.7177 86.0708L79.2481 93.1482C78.7502 93.62 78.0452 93.8037 77.3804 93.6349L67.0708 91.0175C66.3787 90.8418 65.8328 90.3104 65.6384 89.6233L63.0007 80.296ZM58.0935 75.165C57.5956 75.6368 56.8907 75.8205 56.2258 75.6517L46.1675 73.0981C45.4754 72.9224 44.9294 72.391 44.7351 71.7038L42.03 62.1385C41.8276 61.4229 42.0391 60.654 42.579 60.1425L50.0486 53.0651C50.5466 52.5933 51.2515 52.4096 51.9164 52.5784L62.1136 55.1672C62.8057 55.3429 63.3516 55.8743 63.546 56.5615L66.2138 65.9952C66.4162 66.7109 66.2047 67.4797 65.6649 67.9913L58.0935 75.165Z" fill="#0A00D8"/>
<path d="M39.4033 15.0945C39.3016 15.0871 39.1995 15.0871 39.0979 15.0945L10.2183 17.1993C9.40516 17.2586 8.71238 17.7818 8.4701 18.5197L0.0898893 44.0416C-0.101415 44.6242 0.0165384 45.2585 0.406482 45.7441L20.264 70.4721C20.6405 70.9409 21.2266 71.2162 21.8483 71.2162H30.9089C31.5722 71.2162 32.0517 70.5823 31.8712 69.9441L29.568 61.7998C29.4825 61.4976 29.4176 61.1931 29.3727 60.8878C29.2927 60.3442 28.8533 59.8987 28.3038 59.8987H27.7691C27.1474 59.8987 26.5613 59.6234 26.1848 59.1546L13.6414 43.5347C13.2515 43.0491 13.1336 42.4148 13.3249 41.8322L17.4678 29.2149C17.7101 28.477 18.4028 27.9538 19.216 27.8945L39.0979 26.4455C39.1995 26.4381 39.3016 26.4381 39.4033 26.4455L59.514 27.9112C60.2983 27.9684 60.9735 28.4577 61.237 29.16L64.6591 38.2792C64.9105 38.9492 65.7637 39.146 66.2832 38.6538L70.9033 34.2763C71.7608 33.4638 72.7856 32.8624 73.8921 32.4937C74.4847 32.2963 74.8521 31.6588 74.6326 31.074L69.8915 18.4398C69.628 17.7375 68.9527 17.2482 68.1684 17.191L39.4033 15.0945Z" fill="#0A00D8"/>
</svg>
