<svg width="101" height="79" viewBox="0 0 101 79" fill="none" xmlns="http://www.w3.org/2000/svg">
<path fill-rule="evenodd" clip-rule="evenodd" d="M0.699951 40.4489C0.699951 37.0486 3.46363 34.2921 6.87279 34.2921H40.2061C43.6153 34.2921 46.379 37.0486 46.379 40.4489C46.379 43.8492 43.6153 46.6057 40.2061 46.6057H6.87279C3.46362 46.6057 0.699951 43.8492 0.699951 40.4489ZM11.9722 40.4489C11.9722 42.1491 10.5903 43.5273 8.88575 43.5273C7.18116 43.5273 5.79933 42.1491 5.79933 40.4489C5.79933 38.7488 7.18116 37.3705 8.88575 37.3705C10.5903 37.3705 11.9722 38.7488 11.9722 40.4489ZM6.87279 49.6841C3.46363 49.6841 0.699951 52.4406 0.699951 55.841C0.699951 59.2413 3.46362 61.9978 6.87279 61.9978H40.2061C43.6153 61.9978 46.379 59.2413 46.379 55.841C46.379 52.4406 43.6153 49.6841 40.2061 49.6841H6.87279ZM8.88575 58.9194C10.5903 58.9194 11.9722 57.5411 11.9722 55.841C11.9722 54.1408 10.5903 52.7626 8.88575 52.7626C7.18116 52.7626 5.79933 54.1408 5.79933 55.841C5.79933 57.5411 7.18116 58.9194 8.88575 58.9194ZM6.82806 65.0763C3.41889 65.0763 0.699951 67.8327 0.699951 71.233C0.699951 74.6333 3.46362 77.3898 6.87279 77.3898H40.2061C43.6153 77.3898 46.379 74.6333 46.379 71.233C46.379 67.8327 43.6153 65.0762 40.2061 65.0762L6.82806 65.0763ZM8.88575 74.3114C10.5903 74.3114 11.9722 72.9331 11.9722 71.233C11.9722 69.5328 10.5903 68.1546 8.88575 68.1546C7.18116 68.1546 5.79933 69.5328 5.79933 71.233C5.79933 72.9331 7.18116 74.3114 8.88575 74.3114Z" fill="#0A00D8"/>
<path d="M47.7383 15.2197C46.2147 13.875 43.6661 12.7433 40.2061 12.7433C34.7515 12.7433 29.7123 17.7694 29.7123 23.2099C29.7123 23.3013 29.7135 23.3922 29.7159 23.4825C29.758 25.0629 29.5635 26.6307 29.1501 28.1353H13.8937C14.4446 27.7555 15.0129 27.3928 15.5982 27.0478C16.7347 26.3777 17.4096 25.1256 17.3746 23.8093C17.3693 23.6101 17.3666 23.4103 17.3666 23.2099C17.3666 10.9688 27.9331 0.429688 40.2061 0.429688C52.4791 0.429688 62.4283 8.50603 62.4283 20.7472C62.4283 21.6957 63.3906 22.4038 64.2947 22.1095C67.0105 21.2252 69.9104 20.7472 72.9222 20.7472C88.2634 20.7472 100.7 34.9984 100.7 50.2998C100.7 65.6012 88.2634 78.0055 72.9222 78.0055H54.1699H50.5184C51.8037 76.0625 52.5518 73.7349 52.5518 71.233C52.5518 69.2399 52.077 67.3574 51.2342 65.6918H54.1704H72.9222C81.4451 65.6918 88.3543 58.8006 88.3543 50.2998C88.3543 40.7554 80.4438 33.0608 72.9222 33.0608C71.2275 33.0608 69.6199 33.3287 68.1259 33.8152C59.0971 36.7549 50.0827 29.9158 50.0827 20.7472C50.0827 18.1848 49.1352 16.4525 47.7383 15.2197Z" fill="#0A00D8"/>
</svg>
