<svg width="101" height="77" viewBox="0 0 101 77" fill="none" xmlns="http://www.w3.org/2000/svg">
<path fill-rule="evenodd" clip-rule="evenodd" d="M23.169 23.2596C23.169 22.9532 23.3773 22.6875 23.6768 22.6273C24.3963 22.4828 25.7808 22.2479 27.1756 22.2479C29.0217 22.2479 30.3338 22.4732 30.987 22.6183C31.2701 22.6811 31.4586 22.9358 31.4586 23.2266V29.8566C31.4586 30.0137 31.5682 30.149 31.7208 30.1838C34.0039 30.7038 36.1343 31.6268 38.0337 32.8742C38.1666 32.9614 38.3425 32.9447 38.4548 32.8321L43.3976 27.8744C43.6136 27.6578 43.9483 27.6177 44.2024 27.7875C44.8131 28.1957 45.9577 29.0114 46.944 30.0007C48.2494 31.3099 49.0182 32.3998 49.3779 32.9657C49.5338 33.2109 49.4875 33.5247 49.2825 33.7303L44.1778 38.8503C44.0694 38.9589 44.0497 39.1278 44.128 39.2599C45.2514 41.1577 46.063 43.2629 46.4919 45.5046C46.5222 45.663 46.6596 45.7789 46.8204 45.7789L53.9316 45.7789C54.2215 45.7789 54.4754 45.9679 54.5381 46.2518C54.6827 46.907 54.9074 48.223 54.9074 50.0746C54.9074 51.4737 54.6731 52.8623 54.5291 53.5839C54.4691 53.8843 54.2041 54.0933 53.8987 54.0933H46.4813C46.3301 54.0933 46.1984 54.196 46.1586 54.3423C45.6388 56.2557 44.8358 58.052 43.7975 59.6831C43.7129 59.8161 43.7304 59.9905 43.8416 60.1021L49.1421 65.4184C49.3581 65.6351 49.3981 65.9707 49.2288 66.2257C48.8218 66.8381 48.0085 67.9862 47.0222 68.9754C45.7169 70.2847 44.6302 71.0559 44.0661 71.4167C43.8216 71.573 43.5088 71.5266 43.3037 71.3209L37.9144 65.9154C37.805 65.8057 37.6346 65.7867 37.5025 65.8674C35.7829 66.9188 33.8878 67.7099 31.8715 68.1862C31.7201 68.222 31.6119 68.3567 31.6119 68.5127V75.7816C31.6119 76.088 31.4035 76.3537 31.1041 76.4139C30.3845 76.5584 29.0001 76.7933 27.6053 76.7933C25.7592 76.7933 24.4471 76.568 23.7939 76.4229C23.5107 76.3601 23.3223 76.1054 23.3223 75.8146V68.5455C23.3223 68.3886 23.2128 68.2533 23.0602 68.2184C21.0909 67.7685 19.2353 67.0188 17.5437 66.0197C17.4121 65.9419 17.2444 65.9619 17.1363 66.0703L12.0418 71.1801C11.8258 71.3967 11.4912 71.4369 11.237 71.267C10.6263 70.8588 9.48173 70.0431 8.49544 69.0539C7.19007 67.7446 6.42117 66.6547 6.0615 66.0888C5.90562 65.8436 5.95191 65.5299 6.15695 65.3242L11.1136 60.3527C11.2262 60.2398 11.2426 60.0627 11.1549 59.9294C9.97895 58.1419 9.08849 56.1488 8.54861 54.0154C8.51088 53.8663 8.3778 53.7607 8.22442 53.7607H1.37063C1.0652 53.7607 0.800227 53.5517 0.740262 53.2513C0.596201 52.5297 0.361938 51.1411 0.361938 49.7421C0.361938 47.8905 0.586626 46.5745 0.731225 45.9193C0.793893 45.6353 1.0478 45.4463 1.33777 45.4463L8.03917 45.4463C8.19782 45.4463 8.33394 45.3335 8.36652 45.1777C8.83765 42.9255 9.6962 40.8161 10.869 38.9231C10.9513 38.7904 10.9329 38.6181 10.8228 38.5076L5.9658 33.6361C5.74983 33.4195 5.70979 33.0838 5.87916 32.8288C6.28606 32.2164 7.09937 31.0683 8.08567 30.0791C9.39104 28.7698 10.4777 27.9986 11.0419 27.6379C11.2864 27.4815 11.5991 27.5279 11.8042 27.7336L16.673 32.617C16.7835 32.7278 16.9559 32.746 17.0883 32.6628C18.8578 31.551 20.8184 30.717 22.9095 30.2216C23.0609 30.1857 23.169 30.051 23.169 29.8951V23.2596ZM27.3965 60.8457C35.3885 60.8457 39.5706 55.5493 39.5706 49.2025C39.5706 41.1866 33.9505 37.5592 27.3965 37.5592C19.4045 37.5592 15.7966 43.1427 15.7966 49.2025C15.7966 55.2622 19.4045 60.8457 27.3965 60.8457Z" fill="#0A00D8"/>
<path d="M54.6667 64.6721C54.6705 64.6907 54.6743 64.7098 54.6779 64.7285L54.6784 64.6721H54.6667Z" fill="#0A00D8"/>
<path d="M40.968 12.5509C44.365 12.5509 46.8673 13.6649 48.3633 14.9886C49.7347 16.2022 50.665 17.9074 50.665 20.4297C50.665 29.4551 59.5155 36.1873 68.3801 33.2935C69.847 32.8147 71.4253 32.5509 73.0892 32.5509C80.4741 32.5509 88.2407 40.1253 88.2407 49.5206C88.2407 57.8885 81.4572 64.6721 73.0892 64.6721H54.6784L54.6779 64.7285C54.8249 65.4862 54.8296 66.2741 54.6779 67.0491C54.5296 67.8066 54.232 68.5517 53.772 69.2441C53.2852 69.9768 52.2415 71.466 50.885 72.8266C50.4681 73.2447 50.0653 73.6225 49.6824 73.9623C48.5793 74.9412 47.6409 75.6051 47.0045 76.0121C46.423 76.3839 45.8141 76.6404 45.1983 76.7933H73.0892C88.1515 76.7933 100.362 64.5829 100.362 49.5206C100.362 34.4583 88.1515 20.4297 73.0892 20.4297C70.1322 20.4297 67.285 20.9003 64.6186 21.7707C63.731 22.0605 62.7862 21.3634 62.7862 20.4297C62.7862 8.37984 53.0178 0.429688 40.968 0.429688C29.9999 0.429688 20.9221 8.52285 19.3806 19.0631C20.2053 18.1862 21.3039 17.5404 22.6029 17.2796C23.4647 17.1065 25.2546 16.7933 27.1756 16.7933C29.4656 16.7933 31.1758 17.0728 32.1692 17.2934C32.3054 17.3236 32.4391 17.358 32.5701 17.3962C34.2472 14.4995 37.38 12.5509 40.968 12.5509Z" fill="#0A00D8"/>
</svg>
