<svg width="101" height="101" viewBox="0 0 101 101" fill="none" xmlns="http://www.w3.org/2000/svg">
<path d="M46.0391 15.0695C44.4867 13.6994 41.89 12.5463 38.3648 12.5463C32.8072 12.5463 28.3019 17.0401 28.3019 22.5834C28.3019 22.6766 28.3031 22.7692 28.3056 22.8612C28.309 22.9889 28.3109 23.1166 28.3112 23.2442C28.4437 23.2546 28.576 23.2662 28.7082 23.2789C36.1196 23.9907 42.6483 28.299 46.1549 35.0757C47.7479 38.1544 46.5372 41.9383 43.4506 43.5273C40.3639 45.1162 36.5703 43.9086 34.9772 40.8299C33.4523 37.883 30.7043 36.075 27.5025 35.7674C24.5193 35.4809 20.6617 36.481 16.8549 40.0587C14.1938 42.8744 12.5786 46.6589 12.5786 50.8127C12.5786 59.4741 19.6182 66.4956 28.3019 66.4956H40.133C40.9314 66.4956 41.4556 67.4197 41.1902 68.1726C40.7595 69.3947 40.4959 70.9876 41 72.5C41.5207 74.062 42.7756 75.8618 43.9101 77.2537C44.4711 77.942 43.994 79.0419 43.106 79.0419H28.3019C12.6712 79.0419 0 66.4032 0 50.8127C0 44.0753 2.36634 37.8891 6.31527 33.036C6.54373 32.6757 6.81265 32.3333 7.12214 32.0153C7.41047 31.719 7.70179 31.4301 7.99594 31.1486C9.74935 29.3476 11.7415 27.779 13.9215 26.4938C15.0794 25.8111 15.7671 24.5353 15.7314 23.1942C15.726 22.9912 15.7233 22.7876 15.7233 22.5834C15.7233 10.1109 25.8602 0 38.3648 0C50.8693 0 61.0063 8.22898 61.0063 20.7015C61.0063 21.668 61.9867 22.3894 62.9079 22.0895C65.6749 21.1886 68.6295 20.7015 71.6981 20.7015C87.3288 20.7015 100 35.2221 100 50.8127C100 56.6864 98.2014 62.1412 95.1236 66.659C94.7326 67.233 93.8639 67.2174 93.38 66.7191C92.2978 65.6045 90.6102 64.3109 88.9736 63.7648C88.2958 63.5387 87.7923 62.7669 88.0244 62.0911C89.0995 58.9613 91.1528 51.4722 87.4214 48.5C86.1466 40.0226 78.661 33.2478 71.6981 33.2478C69.9714 33.2478 68.3336 33.5208 66.8113 34.0165C57.6122 37.0117 48.4277 30.0434 48.4277 20.7015C48.4277 18.0907 47.4623 16.3257 46.0391 15.0695Z" fill="#0A00D8"/>
<path d="M72.3955 97.1377C72.2304 97.7913 71.8031 98.3535 71.2079 98.6932L69.4658 99.6876C68.249 100.382 66.6974 99.9661 66.0008 98.7732L65.0999 97.2307C64.7749 96.6741 64.6806 96.016 64.8355 95.3933L75.6587 52.8955C75.822 52.2392 76.2495 51.674 76.8462 51.3325L78.584 50.3381C79.801 49.6418 81.3542 50.0573 82.0514 51.2512L83.073 53.0006C83.3996 53.5598 83.4932 54.2215 83.3353 54.8466L72.3955 97.1377Z" fill="#0A00D8"/>
<path d="M82.7712 75.1064L83.93 71.0973C84.4631 69.253 86.8347 68.6572 88.1942 70.0547L99.3615 82.5605C100.296 83.521 100.301 85.0347 99.3721 86.0007L86.9837 98.8913C85.6006 100.33 83.1659 99.6809 82.6865 97.777L81.636 93.6582C81.5174 93.1931 81.5652 92.6977 81.8168 92.2889C81.9968 91.9963 82.2238 91.6663 82.4507 91.4393L89.8069 84.5644C89.94 84.4192 89.9358 84.1938 89.7983 84.0537L83.3864 77.5232C82.757 76.8822 82.5242 75.9608 82.7712 75.1064Z" fill="#0A00D8"/>
<path d="M65.293 61.5129L63.1355 57.5038C62.6024 55.6595 60.2308 55.0636 58.8713 56.4611L47.704 68.967C47.704 68.967 47 69.7004 47 70.6871C47 71.5383 47.6934 72.4072 47.6934 72.4072L58.0846 85.2977C59.4677 86.7368 61.9025 86.0874 62.3818 84.1834L63.3487 79.3442C63.551 78.5407 63.3356 77.6888 62.7702 77.0722L58.2572 70.9709C58.1241 70.8257 58.1283 70.6002 58.2658 70.4602L64.6777 63.9297C65.3071 63.2887 65.5399 62.3673 65.293 61.5129Z" fill="#0A00D8"/>
</svg>
