<svg width="101" height="84" viewBox="0 0 101 84" fill="none" xmlns="http://www.w3.org/2000/svg">
<path fill-rule="evenodd" clip-rule="evenodd" d="M25.7497 32.7539C26.054 33.8068 27.4556 33.5353 27.4875 32.4398C27.7046 24.9785 29.1411 17.8338 34.0003 10.5076C35.6148 8.07353 38.0151 5.57249 40.2695 3.48046C44.7514 1.38822 49.9252 0.122504 55.8862 0.00904483C63.8087 -0.141748 70.2378 1.60114 75.3872 4.62286C76.1733 5.08414 76.9217 5.57058 77.6343 6.07816C70.0316 8.54957 60.8906 14.982 56.5004 22.0076C52.0327 29.1572 49.1606 37.1052 51.099 45.1384C51.3246 46.0734 52.5832 46.0446 52.9034 45.1376C55.5952 37.5121 60.15 31.4391 65.9994 26.0075C72.1638 20.2834 82.2058 19.9878 89.2959 21.3647C90.1128 23.3504 90.7154 25.2111 91.1764 26.8022C91.5254 28.0064 91.8103 29.1209 92.026 29.9647C92.0793 30.1731 92.1284 30.3654 92.1732 30.538C92.2724 30.9208 92.3426 31.1794 92.395 31.3573L95.5567 36.9368C87.3959 45.1474 76.0019 56.4602 53.5001 59.0073C33.8417 61.2325 22.7132 55.7536 12.1538 49.5107C13.9686 40.4597 17.3161 28.8211 23.1625 19.3579C24.0077 17.9898 24.917 16.6557 25.8944 15.3692C24.2176 21.4583 24.0755 26.9617 25.7497 32.7539ZM92.4658 31.5784C92.4658 31.5784 92.459 31.5622 92.4462 31.5232C92.4595 31.5578 92.4658 31.5784 92.4658 31.5784Z" fill="#0A00D8"/>
<path d="M10.6105 50.82C10.3417 51.053 10.0647 51.2959 9.78162 51.5473C7.40006 53.6629 4.18966 56.7374 2.07704 59.8025C0.0987518 62.6727 0.464273 66.5655 3.00844 69.009C5.91138 71.7971 11.399 75.7625 18.3888 78.8537C25.4148 81.961 34.3562 84.3605 44.0417 83.4832C54.5196 82.534 66.7361 76.179 76.4484 70.1184C86.4281 63.891 94.8571 57.2618 98.0019 54.716C101.114 52.1969 101.769 47.8995 99.9006 44.6025L98.2677 41.721C92.0023 50.7566 72.4186 64.542 50.5001 66.0073C33.3963 67.1508 20.7167 58.8514 10.6105 50.82Z" fill="#0A00D8"/>
</svg>
