<svg width="100" height="100" viewBox="0 0 100 100" fill="none" xmlns="http://www.w3.org/2000/svg">
<path fill-rule="evenodd" clip-rule="evenodd" d="M0.30127 90.9201C0.30127 89.2485 1.64981 87.8935 3.31332 87.8935H96.6868C98.3503 87.8935 99.6989 89.2485 99.6989 90.9201V96.9734C99.6989 98.6449 98.3503 100 96.6868 100H3.31332C1.64981 100 0.30127 98.6449 0.30127 96.9734V90.9201Z" fill="#0A00D8"/>
<path fill-rule="evenodd" clip-rule="evenodd" d="M54.7903 18.5394C54.8919 18.2957 55.1454 18.1537 55.4029 18.2055C56.0215 18.3301 57.1976 18.6039 58.304 19.0682C59.7682 19.6826 60.7341 20.2985 61.2041 20.6313C61.4078 20.7755 61.4727 21.0408 61.3762 21.2721L59.1759 26.5459C59.1238 26.6708 59.1658 26.8149 59.2754 26.8934C60.9136 28.0669 62.2971 29.5101 63.3897 31.1345C63.4661 31.2481 63.6112 31.2933 63.7376 31.2411L69.3034 28.9427C69.5466 28.8423 69.8254 28.9218 69.9706 29.1415C70.3195 29.6693 70.9566 30.6992 71.4106 31.8143C72.0115 33.2902 72.2596 34.4131 72.3571 34.9829C72.3993 35.2298 72.2585 35.464 72.0277 35.5593L66.2797 37.9329C66.1576 37.9833 66.086 38.1111 66.1041 38.2422C66.3654 40.1257 66.3105 42.0704 65.9067 43.9962C65.8782 44.1323 65.9487 44.2702 66.0762 44.3237L71.7166 46.6904C71.9466 46.787 72.0852 47.0218 72.0407 47.2685C71.938 47.8378 71.6794 48.9594 71.0649 50.4322C70.6007 51.545 69.954 52.5716 69.6002 53.0977C69.453 53.3167 69.1735 53.3947 68.9312 53.2931L63.048 50.8244C62.9281 50.7741 62.7895 50.8119 62.7094 50.9151C61.6621 52.2641 60.4291 53.4256 59.0643 54.3775C58.953 54.4551 58.9089 54.5997 58.9602 54.7255L61.4 60.7184C61.4994 60.9626 61.4197 61.2429 61.2008 61.3893C60.6748 61.7411 59.6487 62.3836 58.5381 62.8422C57.0682 63.4492 55.9504 63.701 55.3832 63.8002C55.1374 63.8432 54.9047 63.7021 54.8103 63.4703L52.3296 57.3769C52.2792 57.2532 52.1504 57.1814 52.0188 57.2017C50.306 57.4656 48.5403 57.4641 46.783 57.172C46.6511 57.15 46.5205 57.2212 46.4687 57.3453L44.0564 63.1272C43.9547 63.3709 43.7013 63.5129 43.4437 63.4611C42.8251 63.3366 41.649 63.0627 40.5427 62.5985C39.0785 61.9841 38.1126 61.3681 37.6426 61.0353C37.4389 60.8911 37.3739 60.6258 37.4704 60.3945L39.8828 54.6124C39.9349 54.4876 39.8929 54.3435 39.7835 54.265C38.3708 53.2518 37.1478 52.0378 36.1377 50.6801C36.0591 50.5744 35.9194 50.5345 35.7978 50.5847L30.0612 52.9537C29.818 53.0541 29.5392 52.9747 29.394 52.7549C29.0451 52.2271 28.408 51.1972 27.954 50.0821C27.3531 48.6062 27.1049 47.4833 27.0075 46.9135C26.9652 46.6666 27.106 46.4325 27.3369 46.3371L32.9182 44.0323C33.045 43.9799 33.1168 43.8446 33.0915 43.7093C32.752 41.8961 32.7072 40.0144 32.987 38.1377C33.0065 38.0066 32.936 37.8783 32.8144 37.8272L27.3782 35.5461C27.1359 35.4445 26.9951 35.1901 27.0472 34.9312C27.1725 34.3092 27.4475 33.1267 27.9118 32.0139C28.5263 30.541 29.1412 29.569 29.4734 29.096C29.6173 28.891 29.8814 28.8251 30.1114 28.9216L35.4267 31.152C35.5526 31.2048 35.698 31.1604 35.7755 31.0473C36.8966 29.4126 38.2776 28.0205 39.8361 26.9051C39.9454 26.8269 39.988 26.6837 39.9373 26.5591L37.7017 21.0677C37.6023 20.8235 37.6819 20.5431 37.9008 20.3967C38.4268 20.045 39.4529 19.4025 40.5635 18.9439C42.0334 18.3369 43.1513 18.0851 43.7185 17.9859C43.9643 17.9429 44.197 18.0839 44.2913 18.3158L46.5324 23.8206C46.5833 23.9455 46.714 24.0174 46.8467 23.9953C48.6191 23.6998 50.451 23.689 52.274 23.9909C52.4059 24.0127 52.5364 23.9415 52.5882 23.8175L54.7903 18.5394ZM45.1277 51.1427C50.9239 53.5545 57.5448 50.7657 59.967 44.9602C62.3892 39.1546 59.7215 32.4683 53.9398 30.0218C48.1408 27.568 41.4672 30.3552 39.0378 36.1781C36.6083 42.0009 39.3142 48.7238 45.1277 51.1427Z" fill="#0A00D8"/>
<path fill-rule="evenodd" clip-rule="evenodd" d="M83.0653 41.3811C83.1957 41.1086 83.1957 40.7919 83.0653 40.5194L78.3274 30.6227C78.1339 30.2185 78.2335 29.7352 78.571 29.4402L81.6034 26.79C82.0764 26.3767 82.8094 26.4964 83.1259 27.0387L90.9506 40.4473C91.132 40.7581 91.132 41.1424 90.9506 41.4532L83.1259 54.8618C82.8094 55.4041 82.0764 55.5238 81.6034 55.1105L78.571 52.4603C78.2335 52.1654 78.1339 51.682 78.3274 51.2778L83.0653 41.3811Z" fill="#0A00D8"/>
<path fill-rule="evenodd" clip-rule="evenodd" d="M17.179 41.3811C17.0485 41.1087 17.0485 40.7919 17.179 40.5194L21.9169 30.6227C22.1104 30.2186 22.0108 29.7352 21.6732 29.4402L18.6408 26.7901C18.1678 26.3767 17.4348 26.4964 17.1184 27.0388L9.29361 40.4473C9.11222 40.7582 9.11222 41.1424 9.29361 41.4532L17.1184 54.8618C17.4348 55.4041 18.1678 55.5239 18.6408 55.1105L21.6732 52.4604C22.0108 52.1654 22.1104 51.682 21.9169 51.2779L17.179 41.3811Z" fill="#0A00D8"/>
<path fill-rule="evenodd" clip-rule="evenodd" d="M2.97619 0C1.33249 0 0 1.35507 0 3.02663V81.1138C0 82.7854 1.33249 84.1404 2.97619 84.1404H97.0238C98.6675 84.1404 100 82.7854 100 81.1138V3.02663C100 1.35507 98.6675 0 97.0238 0H2.97619ZM14.9168 12.1065C13.2533 12.1065 11.9048 13.4616 11.9048 15.1332V24.0723L4.10995 37.4296C2.84023 39.6054 2.84023 42.2951 4.10995 44.4709L11.9048 57.8282V69.0073C11.9048 70.6788 13.2533 72.0339 14.9168 72.0339H85.0832C86.7467 72.0339 88.0952 70.6788 88.0952 69.0073V58.2239C88.1693 58.1119 88.2408 57.9971 88.3094 57.8795L96.1342 44.4709C97.4039 42.2951 97.4039 39.6054 96.1342 37.4296L88.3094 24.021C88.2408 23.9034 88.1693 23.7886 88.0952 23.6767V15.1332C88.0952 13.4616 86.7467 12.1065 85.0832 12.1065H14.9168Z" fill="#0A00D8"/>
</svg>
