<?xml version="1.0" encoding="UTF-8"?>
<svg id="Layer_1" data-name="Layer 1" xmlns="http://www.w3.org/2000/svg" viewBox="0 0 100.1 87.9">
  <defs>
    <style>
      .cls-1 {
        fill: #0a00d8;
        fill-rule: evenodd;
      }
    </style>
  </defs>
  <path class="cls-1" d="m68.4,29.7c0,.2,0,.4.1.6,0-.2,0-.4-.1-.6Zm.1.6c0,.1,0,.2,0,.3,0,0,0-.1,0-.3Zm22.1,11.2c0,0-.1,0-.2,0C89.3,18.4,71.7,0,50.1,0S13.9,15.4,10.3,35.8c-1.6-2.1-4.4-4-9.5-4.6,0,0-.5,8.9,4.5,11.9-3.2,1.5-5.4,4.8-5.4,8.6s4.2,9.5,9.5,9.5,2.2-.2,3.2-.6c6.1,16,20.5,27.2,37.4,27.2s31.7-11.5,37.6-27.8c.9.3,1.9.5,2.9.5,5.2,0,9.5-4.3,9.5-9.5s-4.2-9.5-9.5-9.5ZM9.5,55.9c-2.3,0-4.2-1.9-4.2-4.2s1.9-4.2,4.2-4.2.2,0,.3,0c.2,2.8.6,5.4,1.3,8-.5.2-1,.3-1.6.3Zm40.6,22.5c-14.9,0-27.3-11.3-30.6-26.4,6.2,3.7,17.6,6.7,31.1,6.7s23.4-2.5,29.8-5.9c-3.5,14.7-15.8,25.6-30.4,25.6Zm-31.1-39.3c1-7.8,4.4-14.7,9.4-19.8,3.2,2.5,9.6,5.8,21.1,5.8,0,0,17.1-1.9,18.9,4.6-.7-2.9-3.9-11.6-19.1-11.6,0,0-9,.2-12.2-5.2,4-2,8.3-3.1,13-3.1,15.8,0,28.8,12.7,31,29.2-33.1-11.4-55.4-3.1-62.1.1Zm71.6,16c-.5,0-1-.1-1.4-.3.6-2.6,1-5.3,1.2-8.1,0,0,.1,0,.2,0,2.3,0,4.2,1.9,4.2,4.2s-1.9,4.2-4.2,4.2Z"/>
</svg>