<svg width="101" height="101" viewBox="0 0 101 101" fill="none" xmlns="http://www.w3.org/2000/svg">
<path fill-rule="evenodd" clip-rule="evenodd" d="M81.8379 33.489L51.5851 63.8502C50.3749 65.0647 48.3997 65.034 47.2277 63.7825L29.8473 45.0988L38.3792 36.4837L47.1477 46.5189C48.3074 47.8174 50.3194 47.874 51.5501 46.6426L73.2183 24.9619L81.8379 33.489Z" fill="#0A00D8"/>
<path d="M0.150146 49.7385V3.03763C0.150146 1.41464 1.46584 0.098938 3.08884 0.098938H10.3583C11.9813 0.098938 13.297 1.41463 13.297 3.03763V43.5984C13.297 44.3731 13.5969 45.1176 14.1338 45.6758L47.997 80.8798C49.1678 82.097 51.1122 82.1053 52.2934 80.8983L87.3461 45.0801C87.894 44.5202 88.2009 43.7678 88.2009 42.9842V3.03763C88.2009 1.41463 89.5166 0.098938 91.1396 0.098938H97.2115C98.8345 0.098938 100.15 1.41463 100.15 3.03763V49.7379C100.15 50.529 99.8375 51.2879 99.2803 51.8491L52.2605 99.2144C51.0895 100.394 49.1822 100.394 48.0115 99.2137L1.01934 51.849C0.462585 51.2879 0.150146 50.5292 0.150146 49.7385Z" fill="#0A00D8"/>
</svg>
