<svg width="99" height="101" viewBox="0 0 99 101" fill="none" xmlns="http://www.w3.org/2000/svg">
<path d="M48.6278 50.7163C49.1444 50.8642 49.6918 50.8663 50.2095 50.7225L93.6483 38.6595C94.4676 38.432 95.1467 37.858 95.5074 37.0881L98.6174 30.4508C99.1329 29.3506 98.9117 28.046 98.0624 27.1771L72.5737 1.10516C72.0251 0.544023 71.2734 0.227846 70.4887 0.228173L28.2099 0.245822C27.4059 0.246157 26.6377 0.578639 26.0872 1.16459L0.881953 27.9924C0.0380476 28.8906 -0.149547 30.2226 0.413444 31.319L3.20617 36.7576C3.57412 37.4741 4.22224 38.0064 4.99664 38.2281L48.6278 50.7163ZM31.1915 8.12559C31.7441 7.42485 32.5873 7.01595 33.4798 7.01595H65.8985C66.8045 7.01595 67.659 7.43733 68.2105 8.15611L81.4356 25.3917C82.7237 27.0705 81.8496 29.5192 79.7896 30.0028L50.0116 36.9938C49.5714 37.0972 49.1132 37.0967 48.6732 36.9923L19.2111 30.0066C17.1386 29.5152 16.2762 27.0389 17.5952 25.3665L31.1915 8.12559ZM89.0364 65.6411C87.8994 65.9504 87.3015 67.1964 87.7715 68.2769C88.2225 69.3138 87.6909 70.5147 86.6202 70.878L50.5666 83.1109C49.9682 83.3139 49.32 83.3169 48.7197 83.1195L13.0733 71.3949C11.8702 70.9991 11.2824 69.6417 11.817 68.4935C12.3691 67.3079 11.7234 65.9105 10.4628 65.5625L10.0948 65.4609C9.22283 65.2202 8.2893 65.4821 7.66981 66.1412L0.825178 73.4237C0.00935221 74.2917 -0.196042 75.5689 0.306498 76.6489L3.26601 83.0093C3.59658 83.7198 4.19931 84.2672 4.93822 84.528L48.4596 99.8895C49.0801 100.108 49.7564 100.111 50.3785 99.8968L93.7201 84.9694C94.4965 84.702 95.124 84.1195 95.4483 83.3652L98.7039 75.7937C99.1702 74.7091 98.9361 73.4504 98.1111 72.606L91.7935 66.1398C91.1985 65.5308 90.3203 65.2918 89.4987 65.5153L89.0364 65.6411ZM89.139 43.0306C87.9071 43.3676 87.2462 44.7051 87.727 45.8884C88.2001 47.0527 87.5681 48.3714 86.3642 48.732L85.7083 48.9285L79.1516 50.7318L50.4149 58.882C49.9048 59.0267 49.3648 59.0295 48.8532 58.89L13.3573 49.2113C11.9936 48.8395 11.2476 47.373 11.7501 46.0518C12.2509 44.7352 11.5116 43.2729 10.1544 42.8955L9.9973 42.8519C9.08683 42.5987 8.11108 42.8715 7.46399 43.5603L0.882033 50.5655C0.0380829 51.4638 -0.149533 52.7958 0.413472 53.8922L3.24026 59.3971C3.58811 60.0745 4.1873 60.5888 4.9096 60.83L48.5067 75.3884C49.0984 75.586 49.738 75.5885 50.3312 75.3955L93.7377 61.2743C94.5042 61.025 95.1331 60.4694 95.4751 59.7396L98.6175 53.0331C99.1329 51.9329 98.9118 50.6284 98.0626 49.7596L92.0263 43.5842C91.3868 42.93 90.4429 42.6739 89.5604 42.9153L89.139 43.0306Z" fill="#0A00D8"/>
</svg>
