<svg width="101" height="101" viewBox="0 0 101 101" fill="none" xmlns="http://www.w3.org/2000/svg">
<path fill-rule="evenodd" clip-rule="evenodd" d="M43.3839 42.2075C42.8181 42.3603 42.2191 42.358 41.6546 42.2009L4.81173 31.9476C3.97524 31.7148 3.27706 31.1598 2.88375 30.4151L0.803863 26.4769C0.210447 25.3532 0.40916 23.9945 1.30204 23.0704L22.3756 1.26123C22.9702 0.64588 23.8056 0.295918 24.6808 0.295563L60.2459 0.281128C61.1003 0.280782 61.9181 0.61374 62.5109 1.20334L83.8257 22.4023C84.7247 23.2965 84.9591 24.6277 84.4158 25.7549L82.0462 30.6722C81.6609 31.4718 80.9296 32.0697 80.0449 32.3086L43.3839 42.2075ZM29.2211 5.92389C28.2506 5.92389 27.3346 6.35339 26.7391 7.08761L15.8806 20.4756C14.4794 22.2031 15.4072 24.7406 17.6272 25.2524L41.7219 30.8073C42.2029 30.9182 42.7045 30.9188 43.1857 30.8089L67.5606 25.2448C69.7673 24.7411 70.7076 22.2318 69.3393 20.498L58.7814 7.11921C58.1872 6.36635 57.2592 5.92389 56.2741 5.92389H29.2211Z" fill="#0A00D8"/>
<path d="M56.0643 65.039L43.7197 69.1115C43.0663 69.3271 42.3569 69.3303 41.7013 69.1206L11.4637 59.4504C10.4209 59.1169 9.91083 57.9899 10.3693 57.0325C10.843 56.0434 10.2821 54.8827 9.1884 54.5891L8.91466 54.5157C8.15967 54.313 7.34982 54.5322 6.81704 55.0834L1.24237 60.8504C0.379205 61.7434 0.161726 63.0464 0.691181 64.1527L2.94877 68.8703C3.3015 69.6074 3.94949 70.1771 4.74617 70.4505L41.4712 83.0542C42.1487 83.2867 42.8889 83.2895 43.5681 83.062L64.9687 75.8954L65.8344 74.2794L61.9871 72.4143C58.7735 70.8564 56.7385 68.0823 56.0643 65.039Z" fill="#0A00D8"/>
<path d="M73.9589 40.647L59.0214 55.2796C58.0221 56.2591 57.2645 57.3581 56.7374 58.5191L43.5166 62.7011C42.8687 62.906 42.1687 62.9034 41.5225 62.6936L4.71649 50.7432C3.93699 50.4901 3.29218 49.9542 2.92056 49.2505L0.803892 45.2426C0.210462 44.119 0.409203 42.7602 1.30213 41.8361L6.64156 36.3106C7.19759 35.7352 8.04333 35.5071 8.83098 35.72L8.92262 35.7448C10.1 36.0631 10.7417 37.2779 10.3123 38.3755C9.88152 39.4769 10.5292 40.6953 11.7123 41.009L41.8491 48.9989C42.4082 49.1471 42.9992 49.1442 43.5566 48.9905L67.9407 42.2661L73.5467 40.767L73.9589 40.647Z" fill="#0A00D8"/>
<path d="M66.1899 61.9944L98.07 30.765C99.0482 29.8062 100.677 30.9142 100.039 32.1047L86.9687 55.8622C86.6617 56.4351 86.9012 57.1364 87.5035 57.4283L99.7365 63.3587C100.461 63.7101 100.631 64.6239 100.076 65.19L66.0723 99.9C65.1049 100.888 63.4419 99.7802 64.0862 98.5774L78.8019 71.1074C79.1088 70.5344 78.8694 69.8332 78.267 69.5412L66.5125 63.8428C65.7784 63.487 65.6161 62.5568 66.1899 61.9944Z" fill="#0A00D8"/>
</svg>
