<svg width="101" height="101" viewBox="0 0 101 101" fill="none" xmlns="http://www.w3.org/2000/svg">
<path d="M27.4922 44.3261L18.9995 52.744L43.2953 76.8256L66.7979 52.3517L58.3051 43.9338L48.7061 53.4482C48.7061 10.9965 84.757 13.6509 100.816 13.6509L100.816 1.05921C88.6964 1.05921 36.6955 -2.5308 36.6955 53.4483L27.4922 44.3261Z" fill="#0A00D8"/>
<path d="M88.6964 66.2121C88.6964 64.5742 90.0242 63.2464 91.6621 63.2464H97.852C99.4899 63.2464 100.818 64.5742 100.818 66.2121V91.7749C100.818 96.7505 96.7475 100.784 91.7267 100.784L9.90854 100.784C4.88777 100.784 0.817627 96.7505 0.817627 91.7749L0.817635 3.74962C0.817635 2.11172 2.14541 0.783936 3.78331 0.783936H9.97317C11.6111 0.783936 12.9388 2.11172 12.9388 3.74962L12.9388 85.8062C12.9388 87.4441 14.2666 88.7719 15.9045 88.7719L85.7307 88.7719C87.3686 88.7719 88.6964 87.4441 88.6964 85.8062V66.2121Z" fill="#0A00D8"/>
</svg>
