<svg width="101" height="68" viewBox="0 0 101 68" fill="none" xmlns="http://www.w3.org/2000/svg">
<path d="M39.0713 10.4676L30.5747 18.8413L39.7822 27.9156L0.989746 27.798V39.6402L39.7821 39.7578L30.1788 49.2223L38.6753 57.596L63.3782 34.4229L39.0713 10.4676Z" fill="#0A00D8"/>
<path fill-rule="evenodd" clip-rule="evenodd" d="M79.6947 9.71408C78.5899 8.48072 78.573 6.59598 79.7522 5.43361L84.0999 1.14794C85.254 0.0103124 87.1206 -0.00254321 88.2223 1.1859C92.7269 6.0452 100.99 16.8945 100.99 34.2465C100.99 51.3361 92.7887 62.3016 88.5093 67.0035C87.4186 68.2018 85.5573 68.184 84.4033 67.0464L80.0559 62.7611C78.8764 61.5985 78.8922 59.7123 79.9802 58.4637C83.3267 54.6229 88.8654 46.5722 88.8654 34.2465C88.8654 21.6427 83.2427 13.6752 79.6947 9.71408Z" fill="#0A00D8"/>
<path fill-rule="evenodd" clip-rule="evenodd" d="M70.3768 34.2111C70.2778 29.0964 68.1945 25.3619 66.281 22.929C65.2581 21.6285 65.2348 19.7438 66.4131 18.5822L70.7618 14.2957C71.9164 13.1575 73.7826 13.1457 74.8434 14.3717C77.993 18.0122 82.3164 24.5514 82.499 33.983C82.6808 43.3723 78.3648 50.607 75.384 54.3638C74.3763 55.6338 72.5226 55.6341 71.368 54.496L67.0193 50.2094C65.841 49.0479 65.8268 47.1232 66.7546 45.7532C68.4428 43.2601 70.4725 39.1521 70.3768 34.2111Z" fill="#0A00D8"/>
</svg>
