<svg width="101" height="101" viewBox="0 0 101 101" fill="none" xmlns="http://www.w3.org/2000/svg">
<path fill-rule="evenodd" clip-rule="evenodd" d="M50.1143 88.3969C71.1143 88.3969 88.1382 71.373 88.1382 50.3729C88.1382 29.3729 71.1143 12.349 50.1143 12.349C29.1142 12.349 12.0903 29.3729 12.0903 50.3729C12.0903 71.373 29.1142 88.3969 50.1143 88.3969ZM50.1143 100.373C77.7285 100.373 100.114 77.9872 100.114 50.3729C100.114 22.7587 77.7285 0.37291 50.1143 0.37291C22.5 0.37291 0.114258 22.7587 0.114258 50.3729C0.114258 77.9872 22.5 100.373 50.1143 100.373Z" fill="#0A00D8"/>
<path d="M43.8268 44.6843C43.8268 43.0307 45.1673 41.6903 46.8208 41.6903H52.8089C54.4624 41.6903 55.8029 43.0307 55.8029 44.6843V72.828C55.8029 74.4815 54.4624 75.822 52.8089 75.822H46.8208C45.1673 75.822 43.8268 74.4815 43.8268 72.828V44.6843Z" fill="#0A00D8"/>
<path d="M55.8029 30.6124C55.8029 34.0849 52.9879 36.8999 49.5155 36.8999C46.043 36.8999 43.228 34.0849 43.228 30.6124C43.228 27.14 46.043 24.325 49.5155 24.325C52.9879 24.325 55.8029 27.14 55.8029 30.6124Z" fill="#0A00D8"/>
</svg>
