<svg width="101" height="101" viewBox="0 0 101 101" fill="none" xmlns="http://www.w3.org/2000/svg">
<path d="M25.0466 55.1491C27.5269 55.1491 29.5376 53.1384 29.5376 50.6581C29.5376 48.1778 27.5269 46.1671 25.0466 46.1671C22.5663 46.1671 20.5556 48.1778 20.5556 50.6581C20.5556 53.1384 22.5663 55.1491 25.0466 55.1491Z" fill="#0A00D8"/>
<path d="M25.0466 84.4905C27.5269 84.4905 29.5376 82.4798 29.5376 79.9994C29.5376 77.5191 27.5269 75.5084 25.0466 75.5084C22.5663 75.5084 20.5556 77.5191 20.5556 79.9994C20.5556 82.4798 22.5663 84.4905 25.0466 84.4905Z" fill="#0A00D8"/>
<path d="M29.5376 21.3168C29.5376 23.7971 27.5269 25.8078 25.0466 25.8078C22.5663 25.8078 20.5556 23.7971 20.5556 21.3168C20.5556 18.8365 22.5663 16.8258 25.0466 16.8258C27.5269 16.8258 29.5376 18.8365 29.5376 21.3168Z" fill="#0A00D8"/>
<path fill-rule="evenodd" clip-rule="evenodd" d="M15.9311 0.0593262C11.41 0.0593262 7.5112 2.23068 4.85661 4.93423C2.23477 7.60443 0.196289 11.4372 0.196289 15.6425V27.1022C0.196289 30.7941 1.84322 33.8777 3.92293 36.1336C1.87975 38.7255 0.196289 42.1771 0.196289 45.8832V45.8926L0.226457 55.5542L0.226461 55.5651C0.229938 59.4999 2.11888 62.9784 4.3528 65.4743C2.14323 68.1912 0.226627 71.9493 0.226627 75.8965L0.226627 84.3094C0.226627 88.9043 2.93043 92.8013 5.43425 95.216C7.90389 97.5977 11.7586 100.059 15.9615 100.059H83.8863C88.0079 100.059 91.9691 97.6679 94.5487 95.3479C97.1127 93.0418 100.196 89.1048 100.196 84.3094V76.0633C100.196 72.0921 98.2448 68.2573 95.924 65.4706C98.2653 62.912 100.196 59.3569 100.196 55.3874V55.3779L100.166 45.8832L100.166 45.8709C100.162 41.8865 98.2666 38.465 96.1132 35.9761C98.2285 33.8281 100.166 30.7649 100.166 26.9354V15.8093C100.166 11.2013 97.437 7.28757 94.8113 4.84156C92.1529 2.36509 88.1833 0.0593262 83.856 0.0593262H15.9311ZM15.9514 41.534C15.953 41.5337 15.955 41.5333 15.955 41.5333H83.7828C83.7853 41.534 83.7895 41.535 83.7954 41.5364C83.8562 41.5506 84.097 41.6068 84.5146 41.8118C85.1023 42.1002 85.7869 42.5624 86.4306 43.1626C87.9003 44.5329 88.1899 45.6445 88.1899 45.8832V45.8928L88.2201 55.3874L88.2201 55.3902C88.2175 55.5398 88.0034 56.5191 86.815 57.6672C85.6671 58.7762 84.5035 59.1613 83.8862 59.1613H15.9613C15.7278 59.1613 14.7125 58.9127 13.5646 57.7887C12.4113 56.6595 12.2025 55.7076 12.2025 55.5542V55.5448L12.1723 45.8832L12.1724 45.8807C12.1732 45.8231 12.2033 45.4823 12.4831 44.8876C12.757 44.3055 13.187 43.6624 13.7364 43.0698C14.2882 42.4744 14.858 42.0404 15.3365 41.7808C15.7127 41.5768 15.9182 41.54 15.9514 41.534ZM16.026 71.1374H83.8862C84.0849 71.1374 85.1734 71.4004 86.5183 72.8996C87.1084 73.5574 87.574 74.2768 87.8739 74.9318C88.1883 75.6187 88.2202 76.0101 88.2202 76.0633V84.2242C88.2046 84.2798 88.1495 84.4522 87.9797 84.7442C87.6914 85.2404 87.2044 85.846 86.5401 86.4434C85.8799 87.0372 85.1771 87.5035 84.571 87.7974C84.1389 88.0069 83.891 88.0649 83.8273 88.0798C83.8203 88.0814 83.8156 88.0825 83.813 88.0833H16.0497C16.0017 88.0715 15.8053 88.0223 15.4607 87.8478C14.9442 87.586 14.3314 87.1585 13.7477 86.5955C13.1633 86.0319 12.7263 85.447 12.4609 84.9487C12.2475 84.5483 12.2098 84.3301 12.2036 84.2944C12.2031 84.2917 12.2027 84.2894 12.2027 84.2894L12.2027 75.8965C12.2027 75.834 12.2359 75.4469 12.5441 74.7708C12.8388 74.1242 13.2946 73.4163 13.8657 72.7688C14.4411 72.1165 15.0254 71.6479 15.5022 71.3731C15.8037 71.1992 15.9778 71.1495 16.026 71.1374ZM13.1552 28.4198C14.101 29.1999 15.2237 29.5573 15.9311 29.5573H83.8558C83.8558 29.5573 83.883 29.5571 83.9388 29.5506C83.9968 29.5438 84.0776 29.5313 84.1809 29.509C84.391 29.4636 84.6589 29.3853 84.9709 29.2632C85.6074 29.0142 86.287 28.6377 86.8877 28.1806C87.4985 27.7158 87.888 27.2746 88.0892 26.9616C88.1401 26.8825 88.1714 26.8239 88.1899 26.7853V15.8356C88.1899 15.8356 88.1895 15.8335 88.1892 15.8319C88.1829 15.7976 88.1448 15.5918 87.9416 15.2163C87.6804 14.734 87.2445 14.16 86.6481 13.6044C86.0543 13.0513 85.4115 12.6192 84.8318 12.3446C84.2293 12.0591 83.8944 12.0354 83.856 12.0354H15.9311C15.3098 12.0354 14.3352 12.3744 13.402 13.3248C12.436 14.3086 12.1723 15.2735 12.1723 15.6425V27.1022C12.1723 27.1051 12.1723 27.1286 12.1866 27.18C12.2016 27.2345 12.2344 27.3258 12.3037 27.4509C12.4482 27.7119 12.7197 28.0606 13.1552 28.4198Z" fill="#0A00D8"/>
</svg>
