<svg width="100" height="101" viewBox="0 0 100 101" fill="none" xmlns="http://www.w3.org/2000/svg">
<path fill-rule="evenodd" clip-rule="evenodd" d="M81.1804 53.5337C81.3684 53.8556 81.4225 54.2372 81.3314 54.5978L70.3764 96.9508C70.2811 97.3278 70.0352 97.6504 69.6948 97.8447L67.9502 98.8405C67.2569 99.2363 66.3702 99.0014 65.9699 98.3158L65.0678 96.771C64.8807 96.4507 64.8262 96.0712 64.9155 95.712L75.7538 53.1519C75.848 52.7733 76.0941 52.449 76.4354 52.2538L78.1756 51.2579C78.8691 50.8611 79.7567 51.0957 80.1573 51.7818L81.1804 53.5337Z" fill="#0A00D8"/>
<path d="M86.4653 70.8186C85.6904 70.0219 84.3336 70.3556 84.0265 71.4183L82.866 75.4333C82.7235 75.9265 82.8583 76.4574 83.2197 76.8254L89.6405 83.3655C90.1732 83.908 90.188 84.7663 89.6744 85.3265L82.1552 92.4368C81.8305 92.7909 81.7057 93.2818 81.8224 93.7456L82.7907 97.5919C83.0671 98.6897 84.4604 99.0531 85.2485 98.233L97.6542 85.3236C98.1882 84.7679 98.1856 83.8952 97.6481 83.3427L86.4653 70.8186Z" fill="#0A00D8"/>
<path d="M58.6739 57.2051C59.4488 56.4085 60.8056 56.7421 61.1128 57.8049L63.2732 61.8198C63.4157 62.313 63.2809 62.8439 62.9195 63.212L56.4987 69.752C55.966 70.2946 55.9512 71.1529 56.4648 71.713L60.984 77.8233C61.3088 78.1775 61.4335 78.6684 61.3168 79.1322L60.3485 83.9785C60.0721 85.0763 58.6788 85.4397 57.8907 84.6196L47.485 71.7102C46.951 71.1545 46.9537 70.2818 47.4911 69.7293L58.6739 57.2051Z" fill="#0A00D8"/>
<path fill-rule="evenodd" clip-rule="evenodd" d="M70.2415 98.7645C70.8375 98.4243 71.2654 97.8612 71.4308 97.2067L82.3858 54.8537C82.5439 54.2277 82.4502 53.5651 82.1232 53.005L81.1001 51.253C80.4019 50.0574 78.8466 49.6412 77.6279 50.3386L75.8876 51.3345C75.2901 51.6764 74.8621 52.2425 74.6985 52.8997L63.8602 95.4598C63.7051 96.0833 63.7995 96.7424 64.125 97.2998L65.0271 98.8446C65.7248 100.039 67.2784 100.456 68.497 99.7603L70.2415 98.7645ZM81.3314 54.5978L70.3764 96.9508C70.2811 97.3278 70.0352 97.6504 69.6948 97.8447L67.9502 98.8405C67.2569 99.2363 66.3702 99.0014 65.9699 98.3158L65.0678 96.771C64.8807 96.4507 64.8262 96.0712 64.9155 95.712L75.7538 53.1519C75.848 52.7733 76.0941 52.449 76.4354 52.2538L78.1756 51.2579C78.8691 50.8611 79.7567 51.0957 80.1573 51.7818L81.1804 53.5337C81.3684 53.8556 81.4225 54.2372 81.3314 54.5978Z" fill="#0A00D8"/>
<path fill-rule="evenodd" clip-rule="evenodd" d="M64.3183 61.5297L62.1579 57.5148C61.624 55.6678 59.2491 55.071 57.8877 56.4706L46.7048 68.9948C45.7691 69.9567 45.7645 71.4726 46.6942 72.44L57.0999 85.3494C58.4849 86.7906 60.9231 86.1403 61.4031 84.2335L62.3714 79.3872C62.574 78.5825 62.3582 77.7293 61.792 77.1119L57.2728 71.0016C57.1395 70.8562 57.1437 70.6304 57.2814 70.4901L63.7023 63.9501C64.3325 63.3081 64.5656 62.3854 64.3183 61.5297ZM63.2732 61.8198L61.1128 57.8049C60.8056 56.7421 59.4488 56.4085 58.6739 57.2051L47.4911 69.7293C46.9537 70.2818 46.951 71.1545 47.485 71.7102L57.8907 84.6196C58.6788 85.4397 60.0721 85.0763 60.3485 83.9785L61.3168 79.1322C61.4335 78.6684 61.3088 78.1775 60.984 77.8233L56.4648 71.713C55.9512 71.1529 55.966 70.2946 56.4987 69.752L62.9195 63.212C63.2809 62.8439 63.4157 62.313 63.2732 61.8198Z" fill="#0A00D8"/>
<path fill-rule="evenodd" clip-rule="evenodd" d="M82.9813 71.1282L81.8209 75.1432C81.5736 75.9988 81.8067 76.9216 82.437 77.5635L88.8578 84.1035C88.9955 84.2438 88.9997 84.4696 88.8664 84.615L81.3472 91.7253C80.781 92.3428 80.5652 92.1959 80.7678 93.0006L81.7361 97.8469C82.2161 99.7537 84.6543 100.404 86.0393 98.9629L98.445 86.0534C99.3747 85.086 99.3701 83.5701 98.4344 82.6082L87.2515 70.084C85.8901 68.6845 83.5152 69.2812 82.9813 71.1282ZM82.866 75.4333L84.0265 71.4183C84.3336 70.3556 85.6904 70.0219 86.4653 70.8186L97.6481 83.3427C98.1856 83.8952 98.1882 84.7679 97.6542 85.3236L85.2485 98.233C84.4604 99.0531 83.0671 98.6897 82.7907 97.5919L81.8224 93.7456C81.7057 93.2818 81.8305 92.7909 82.1552 92.4368L89.6744 85.3265C90.188 84.7663 90.1732 83.908 89.6405 83.3655L83.2197 76.8254C82.8583 76.4574 82.7235 75.9265 82.866 75.4333Z" fill="#0A00D8"/>
<path d="M29.3413 21.2575C29.3413 23.7378 27.3306 25.7485 24.8503 25.7485C22.37 25.7485 20.3593 23.7378 20.3593 21.2575C20.3593 18.7772 22.37 16.7665 24.8503 16.7665C27.3306 16.7665 29.3413 18.7772 29.3413 21.2575Z" fill="#0A00D8"/>
<path d="M29.3413 50.5988C29.3413 53.0791 27.3306 55.0898 24.8503 55.0898C22.37 55.0898 20.3593 53.0791 20.3593 50.5988C20.3593 48.1185 22.37 46.1078 24.8503 46.1078C27.3306 46.1078 29.3413 48.1185 29.3413 50.5988Z" fill="#0A00D8"/>
<path d="M29.3413 79.9401C29.3413 82.4204 27.3306 84.4311 24.8503 84.4311C22.37 84.4311 20.3593 82.4204 20.3593 79.9401C20.3593 77.4598 22.37 75.4491 24.8503 75.4491C27.3306 75.4491 29.3413 77.4598 29.3413 79.9401Z" fill="#0A00D8"/>
<path fill-rule="evenodd" clip-rule="evenodd" d="M24.8503 25.7485C27.3306 25.7485 29.3413 23.7378 29.3413 21.2575C29.3413 18.7772 27.3306 16.7665 24.8503 16.7665C22.37 16.7665 20.3593 18.7772 20.3593 21.2575C20.3593 23.7378 22.37 25.7485 24.8503 25.7485Z" fill="#0A00D8"/>
<path fill-rule="evenodd" clip-rule="evenodd" d="M15.7348 0C11.2137 0 7.31491 2.17135 4.66032 4.8749C2.03849 7.54511 0 11.3778 0 15.5832V27.0429C0 30.7348 1.64693 33.8184 3.72664 36.0743C1.68346 38.6662 0 42.1178 0 45.8239V45.8332L0.0301675 55.4949L0.0301721 55.5057C0.0336487 59.4406 1.92259 62.919 4.15651 65.415C1.94694 68.1319 0.0303377 71.89 0.0303377 75.8372L0.0303383 84.2501C0.0303383 88.845 2.73414 92.742 5.23796 95.1566C7.7076 97.5383 11.5623 100 15.7652 100H56.947C57.719 100 58.2291 99.1386 58.0333 98.3918C57.796 97.4872 57.7393 96.5187 57.9477 95.6813L59.1177 92.1529C59.3158 91.5555 58.9499 90.7932 58.453 90.4069C57.7118 89.8307 56.8286 88.9679 56.219 88.4256C55.9115 88.1521 55.5114 88.0239 55.0999 88.0239H15.8534C15.8054 88.0121 15.609 87.963 15.2645 87.7885C14.7479 87.5267 14.1352 87.0992 13.5514 86.5362C12.967 85.9726 12.53 85.3876 12.2646 84.8894C12.0512 84.489 12.0135 84.2708 12.0073 84.2351L12.0064 84.2301L12.0064 75.8372C12.0064 75.7747 12.0397 75.3876 12.3478 74.7115C12.6425 74.0649 13.0983 73.3569 13.6694 72.7095C14.2449 72.0572 14.8291 71.5886 15.3059 71.3137C15.6074 71.1399 15.7815 71.0902 15.8298 71.078H37.9359C38.5186 71.078 38.9695 70.5781 39.0399 69.9997C39.1786 68.8616 39.678 67.759 40.5376 66.8753L46.4481 60.7993C47.0646 60.1654 46.6155 59.102 45.7312 59.102H15.765C15.5315 59.102 14.5162 58.8534 13.3683 57.7294C12.215 56.6001 12.0062 55.6482 12.0062 55.4949V55.4855L11.976 45.8239L11.9761 45.8213C11.977 45.7637 12.007 45.423 12.2868 44.8283C12.5607 44.2462 12.9907 43.6031 13.5401 43.0104C14.0919 42.4151 14.6618 41.9811 15.1402 41.7215C15.5164 41.5175 15.722 41.4806 15.7551 41.4747L15.7587 41.474H83.5865L83.5991 41.477C83.6599 41.4912 83.9007 41.5475 84.3184 41.7525C84.906 42.0409 85.5906 42.5031 86.2343 43.1032C87.704 44.4736 87.9936 45.5852 87.9936 45.8239V45.8334L87.3814 56.1385C87.3743 56.2583 87.3564 56.3773 87.3279 56.4939L86.1839 61.1835C85.9972 61.9487 86.7842 62.6575 87.5363 62.8915C88.5398 63.2036 89.5007 64.0975 90.9093 65.3319C90.969 65.3842 91.0336 65.429 91.106 65.4617C91.6742 65.7186 94.4122 66.7816 96.5 64.5C98 63 100 60.5 99.9999 56.3281V56.3186L99.9697 45.8239L99.9697 45.8116C99.9658 41.8272 98.0703 38.4057 95.9169 35.9168C98.0322 33.7687 99.9697 30.7056 99.9697 26.8761V15.7499C99.9697 11.142 97.2407 7.22824 94.615 4.78223C91.9566 2.30576 87.987 0 83.6597 0H15.7348ZM15.7348 29.498C15.0274 29.498 13.9047 29.1406 12.9589 28.3605C12.5234 28.0012 12.2519 27.6525 12.1074 27.3916C12.0381 27.2664 12.0054 27.1751 11.9903 27.1207C11.976 27.0693 11.976 27.0457 11.976 27.0429V15.5832C11.976 15.2141 12.2397 14.2493 13.2057 13.2655C14.1389 12.3151 15.1135 11.976 15.7348 11.976H83.6597C83.6981 11.976 84.0331 11.9998 84.6355 12.2852C85.2152 12.5599 85.858 12.9919 86.4518 13.5451C87.0482 14.1006 87.4841 14.6747 87.7453 15.157C87.9485 15.5325 87.9866 15.7383 87.9929 15.7726L87.9936 15.7763V26.726C87.9751 26.7646 87.9438 26.8232 87.8929 26.9023C87.6918 27.2153 87.3022 27.6564 86.6914 28.1213C86.0908 28.5784 85.4111 28.9548 84.7746 29.2039C84.4626 29.326 84.1947 29.4042 83.9846 29.4496C83.8814 29.4719 83.8005 29.4845 83.7425 29.4912C83.6867 29.4977 83.6595 29.498 83.6595 29.498H15.7348Z" fill="#0A00D8"/>
<path fill-rule="evenodd" clip-rule="evenodd" d="M24.8503 25.7485C27.3306 25.7485 29.3413 23.7378 29.3413 21.2575C29.3413 18.7772 27.3306 16.7665 24.8503 16.7665C22.37 16.7665 20.3593 18.7772 20.3593 21.2575C20.3593 23.7378 22.37 25.7485 24.8503 25.7485Z" fill="#0A00D8"/>
</svg>
