<svg width="101" height="101" viewBox="0 0 101 101" fill="none" xmlns="http://www.w3.org/2000/svg">
<path d="M26.165 25.9319L17.6963 34.4247L26.8736 43.628L0.292969 43.5087V55.5193L26.8735 55.6386L17.3016 65.2376L25.7704 73.7304L50.3922 50.2278L26.165 25.9319Z" fill="#0A00D8"/>
<path fill-rule="evenodd" clip-rule="evenodd" d="M0.595084 3.23062C0.595084 1.55703 1.9477 0.200317 3.61623 0.200317H91.2295C96.2351 0.200317 100.293 4.27046 100.293 9.29123V91.1094C100.293 96.1302 96.2351 100.2 91.2295 100.2H3.61623C1.9477 100.2 0.595084 98.8436 0.595084 97.17V91.1094C0.595084 89.4358 1.9477 88.0791 3.61623 88.0791H85.1872C86.8558 88.0791 88.2084 86.7224 88.2084 85.0488V15.3518C88.2084 13.6782 86.8558 12.3215 85.1872 12.3215H3.61623C1.9477 12.3215 0.595084 10.9648 0.595084 9.29123V3.23062Z" fill="#0A00D8"/>
<path fill-rule="evenodd" clip-rule="evenodd" d="M75.5196 47.17C75.5196 45.4964 76.8722 44.1397 78.5407 44.1397H91.2295C92.8981 44.1397 94.2507 45.4964 94.2507 47.17V53.2306C94.2507 54.9042 92.8981 56.2609 91.2295 56.2609H78.5407C76.8722 56.2609 75.5196 54.9042 75.5196 53.2306V47.17Z" fill="#0A00D8"/>
<path fill-rule="evenodd" clip-rule="evenodd" d="M57.6948 47.17C57.6948 45.4964 59.0474 44.1397 60.7159 44.1397H66.7582C68.4268 44.1397 69.7794 45.4964 69.7794 47.17V53.2306C69.7794 54.9042 68.4268 56.2609 66.7582 56.2609H60.7159C59.0474 56.2609 57.6948 54.9042 57.6948 53.2306V47.17Z" fill="#0A00D8"/>
</svg>
