<svg width="101" height="101" viewBox="0 0 101 101" fill="none" xmlns="http://www.w3.org/2000/svg">
<path fill-rule="evenodd" clip-rule="evenodd" d="M17.7113 87.4441C17.7143 88.2068 17.1638 88.8268 16.4838 88.8268H9.57623C8.13551 88.8268 6.96757 90.1368 6.96757 91.7528V97.5604C6.96757 99.1764 8.13551 100.486 9.57622 100.486H90.9661C92.4068 100.486 93.5748 99.1764 93.5748 97.5604V91.7528C93.5748 90.1368 92.4068 88.8268 90.9661 88.8268H86.7642C85.325 88.8268 84.1586 87.5195 84.1514 85.9052C84.0894 72.0772 83.6323 58.1737 80.2906 47.2416C78.2714 40.6359 75.0755 34.6412 69.9263 30.3357C64.7367 25.9964 58.1044 23.8246 50.0022 23.8246C41.9192 23.8246 35.3516 25.9694 30.2945 30.3609C25.2786 34.7168 22.3479 40.765 20.5935 47.348C17.5993 58.5833 17.6558 73.1364 17.7113 87.4441ZM28.4744 87.4431C28.4765 88.2079 29.0299 88.8268 29.7118 88.8268H70.7839C72.2271 88.8268 73.3969 87.512 73.3882 85.8933C73.3146 72.1066 72.8598 60.0096 70.0778 50.9082C68.4995 45.745 66.2993 42.0295 63.3543 39.567C60.4497 37.1383 56.2897 35.4843 50.0022 35.4843C43.6955 35.4843 39.7062 37.1289 37.0221 39.4598C34.2968 41.8264 32.3021 45.4337 30.9297 50.5833C28.3985 60.0813 28.4336 72.7497 28.4744 87.4431Z" fill="#0A00D8"/>
<path d="M47.9649 0.486328C47.2989 0.486328 46.7591 1.03628 46.7591 1.71469V13.271C46.7591 13.9494 47.2989 14.4994 47.9649 14.4994H51.5794C52.2453 14.4994 52.7852 13.9494 52.7852 13.271V1.71469C52.7852 1.03628 52.2453 0.486328 51.5794 0.486328H47.9649Z" fill="#0A00D8"/>
<path d="M82.7483 13.3253C83.2144 12.8211 83.9972 12.8088 84.4783 13.2982L87.0374 15.9012C87.4989 16.3707 87.5104 17.1288 87.0633 17.6125L78.7756 26.5779C78.3096 27.0821 77.5267 27.0943 77.0457 26.605L74.4865 24.002C74.025 23.5325 74.0136 22.7743 74.4607 22.2906L82.7483 13.3253Z" fill="#0A00D8"/>
<path d="M99.0653 47.8494C99.7313 47.8494 100.271 48.3994 100.271 49.0778V52.7612C100.271 53.4396 99.7313 53.9895 99.0653 53.9895H87.6832C87.0172 53.9895 86.4774 53.4396 86.4774 52.7612V49.0778C86.4774 48.3994 87.0172 47.8494 87.6832 47.8494H99.0653Z" fill="#0A00D8"/>
<path d="M16.0181 13.8865C16.4894 13.4071 17.2528 13.4077 17.7234 13.8877L25.9609 22.2899C26.4315 22.7699 26.431 23.5478 25.9597 24.0271L23.3998 26.6309C22.9286 27.1103 22.1652 27.1097 21.6946 26.6297L13.4571 18.2275C12.9864 17.7475 12.987 16.9697 13.4583 16.4903L16.0181 13.8865Z" fill="#0A00D8"/>
<path d="M12.8942 47.9221C13.5602 47.9259 14.0969 48.4789 14.093 49.1573L14.0718 52.8407C14.0679 53.519 13.5249 54.0659 12.8589 54.0621L1.47699 53.9967C0.81103 53.9928 0.274322 53.4398 0.278219 52.7614L0.299384 49.0781C0.303282 48.3997 0.84631 47.8528 1.51227 47.8567L12.8942 47.9221Z" fill="#0A00D8"/>
</svg>
