<svg width="101" height="101" viewBox="0 0 101 101" fill="none" xmlns="http://www.w3.org/2000/svg">
<path d="M48.3443 0.114502C47.6783 0.114502 47.1384 0.657188 47.1384 1.32662V12.7302C47.1384 13.3996 47.6783 13.9423 48.3443 13.9423H51.9587C52.6247 13.9423 53.1646 13.3996 53.1646 12.7302V1.32662C53.1646 0.657187 52.6247 0.114502 51.9587 0.114502H48.3443Z" fill="#0A00D8"/>
<path d="M83.1277 12.7837C83.5937 12.2862 84.3766 12.2741 84.8576 12.757L87.4168 15.3256C87.8783 15.7889 87.8898 16.537 87.4426 17.0143L79.155 25.8612C78.6889 26.3587 77.9061 26.3708 77.425 25.8879L74.8659 23.3193C74.4044 22.8561 74.3929 22.1079 74.84 21.6306L83.1277 12.7837Z" fill="#0A00D8"/>
<path d="M99.4447 46.8515C100.111 46.8515 100.651 47.3942 100.651 48.0636V51.6983C100.651 52.3677 100.111 52.9104 99.4447 52.9104H88.0626C87.3966 52.9104 86.8567 52.3678 86.8567 51.6983V48.0636C86.8567 47.3942 87.3966 46.8515 88.0626 46.8515H99.4447Z" fill="#0A00D8"/>
<path d="M16.3975 13.3375C16.8687 12.8645 17.6322 12.8651 18.1027 13.3387L26.3403 21.6298C26.8109 22.1035 26.8104 22.8711 26.3391 23.3441L23.7792 25.9135C23.3079 26.3865 22.5445 26.386 22.0739 25.9123L13.8364 17.6212C13.3658 17.1475 13.3663 16.3799 13.8376 15.9069L16.3975 13.3375Z" fill="#0A00D8"/>
<path d="M13.2385 46.8515C13.9044 46.8515 14.4443 47.3942 14.4443 48.0636V51.6983C14.4443 52.3677 13.9044 52.9104 13.2385 52.9104H1.85636C1.19039 52.9104 0.650514 52.3678 0.650513 51.6983L0.650514 48.0636C0.650514 47.3942 1.19039 46.8515 1.85636 46.8515H13.2385Z" fill="#0A00D8"/>
<path d="M85.4352 86.407C84.9639 86.8801 84.2004 86.8795 83.7298 86.4058L76.698 79.3269C76.2275 78.8532 76.228 78.0857 76.6993 77.6127L79.2592 75.0433C79.7305 74.5703 80.4939 74.5709 80.9645 75.0446L87.9963 82.1235C88.4669 82.5972 88.4663 83.3646 87.9951 83.8376L85.4352 86.407Z" fill="#0A00D8"/>
<path d="M17.5591 87.0119C17.0885 87.4856 16.3251 87.4862 15.8538 87.0132L13.2939 84.4438C12.8227 83.9707 12.8221 83.2032 13.2927 82.7295L20.9274 75.0445C21.3979 74.5708 22.1614 74.5703 22.6326 75.0433L25.1925 77.6127C25.6638 78.0857 25.6644 78.8532 25.1938 79.3269L17.5591 87.0119Z" fill="#0A00D8"/>
<path fill-rule="evenodd" clip-rule="evenodd" d="M82.3148 50.4175C82.3148 67.8228 68.278 81.9326 50.9628 81.9326C33.6475 81.9326 19.6107 67.8228 19.6107 50.4175C19.6107 33.0122 33.6475 18.9024 50.9628 18.9024C68.278 18.9024 82.3148 33.0122 82.3148 50.4175ZM45.235 68.9425V58.5993H44.9335C41.6037 58.5993 38.9043 55.8859 38.9043 52.5387C38.9043 49.1915 41.6037 46.4781 44.9335 46.4781H57.5949C60.9248 46.4781 63.6242 49.1915 63.6242 52.5387C63.6242 55.8859 60.9248 58.5993 57.5949 58.5993H57.2935V68.7433C64.8395 66.1096 70.2563 58.8994 70.2563 50.4175C70.2563 39.7065 61.6183 31.0236 50.9628 31.0236C40.3072 31.0236 31.6692 39.7065 31.6692 50.4175C31.6692 59.1237 37.3763 66.49 45.235 68.9425Z" fill="#0A00D8"/>
<path d="M50.812 84.963C46.5044 84.963 42.6629 84.0351 40.5706 83.4127C39.7589 83.1713 38.9043 83.7772 38.9043 84.628V91.8317C38.9043 93.6954 39.6701 97.4204 43.5405 98.9822C45.3129 99.6974 47.6873 100.115 50.9628 100.115C54.4355 100.115 56.9916 99.649 58.8931 98.6657C62.3485 96.8789 62.7198 93.4012 62.7198 92.1264V84.628C62.7198 83.7772 61.8652 83.1713 61.0535 83.4127C58.9612 84.0351 55.1196 84.963 50.812 84.963Z" fill="#0A00D8"/>
</svg>
