<svg width="100" height="100" viewBox="0 0 100 100" fill="none" xmlns="http://www.w3.org/2000/svg">
<path fill-rule="evenodd" clip-rule="evenodd" d="M49.4107 35.9803C59.8883 35.9803 68.3259 27.9553 68.3259 17.99C68.3259 8.025 59.8883 0 49.4107 0C38.9331 0 30.4953 8.025 30.4953 17.99C30.4953 27.9553 38.9331 35.9803 49.4107 35.9803ZM59.0274 17.952C59.0274 23.062 54.6596 27.2045 49.2716 27.2045C43.8835 27.2045 39.5158 23.062 39.5158 17.952C39.5158 12.8419 43.8835 8.69948 49.2716 8.69948C54.6596 8.69948 59.0274 12.8419 59.0274 17.952Z" fill="#0A00D8"/>
<path fill-rule="evenodd" clip-rule="evenodd" d="M17.236 47.0036C23.5411 47.0036 28.5483 42.1532 28.5483 36.2447C28.5483 30.3362 23.4486 25.3978 17.236 25.3978C10.9309 25.3978 5.92398 30.248 5.92398 36.1565C5.92398 42.065 10.9309 47.0036 17.236 47.0036ZM17.2919 41.7295C20.564 41.7295 23.2169 39.2135 23.2169 36.1102C23.2169 33.0069 20.564 30.4909 17.2919 30.4909C14.0197 30.4909 11.367 33.0069 11.367 36.1102C11.367 39.2135 14.0197 41.7295 17.2919 41.7295Z" fill="#0A00D8"/>
<path d="M17.2813 69.9987C17.3652 69.2747 17.4891 68.4068 17.6721 67.4312C18.1907 64.6661 19.21 60.8961 21.2458 57.0594C23.2916 53.2036 26.4257 49.1708 31.1973 46.1116C36.0104 43.026 42.1477 41.1524 49.7897 41.1524C57.43 41.1524 63.5413 43.0257 68.3044 46.141C73.0273 49.2297 76.0626 53.3004 78.0019 57.1802C79.9303 61.0384 80.8361 64.8236 81.2703 67.5923C81.4335 68.6337 81.5333 69.5525 81.5943 70.3044C77.5947 71.206 73.8937 72.1411 70.4935 73.0789C70.2425 69.7118 69.6694 66.2101 68.363 63.1054C67.0724 60.0392 64.9813 57.0988 61.6345 54.9807C58.3085 52.8757 54.2541 51.9065 49.6105 51.9065C44.988 51.9065 40.9428 52.8486 37.6003 54.8902C34.2307 56.9482 32.064 59.8254 30.6947 62.8804C29.3048 65.9809 28.6606 69.4792 28.3621 72.8795C25.0257 71.8972 21.3395 70.9262 17.2813 69.9987Z" fill="#0A00D8"/>
<path d="M0 68.0958C1.00678 59.1493 9.27026 52.0302 18.9979 52.0302C16.587 55.6458 14.8254 59.7023 13.9907 64.1115C12.3477 65.1722 11.4345 66.7624 10.9853 68.6587C8.88042 68.2423 6.68895 67.8391 4.40851 67.453C2.84627 67.1883 1.30958 67.4459 0 68.0958Z" fill="#0A00D8"/>
<path d="M98.3705 67.4252C97.6401 67.3187 96.8794 67.3226 96.1123 67.4521C93.1983 67.9443 90.4005 68.4632 87.7189 69.0009C87.1938 67.4848 86.3145 66.1405 85.2014 65.0816C84.367 60.4075 82.6049 55.9985 80.0091 52.1182C89.4065 52.1989 97.1034 58.8229 98.3705 67.4252Z" fill="#0A00D8"/>
<path fill-rule="evenodd" clip-rule="evenodd" d="M92.4335 36.2447C92.4335 42.1532 87.4269 47.0036 81.1218 47.0036C74.8166 47.0036 69.8095 42.065 69.8095 36.1565C69.8095 30.248 74.8166 25.3978 81.1218 25.3978C87.3338 25.3978 92.4335 30.3362 92.4335 36.2447ZM80.9846 41.7295C84.2566 41.7295 86.9095 39.2135 86.9095 36.1102C86.9095 33.0069 84.2566 30.4909 80.9846 30.4909C77.7123 30.4909 75.0596 33.0069 75.0596 36.1102C75.0596 39.2135 77.7123 41.7295 80.9846 41.7295Z" fill="#0A00D8"/>
<path d="M48.7664 86.228C48.2739 86.4028 47.7364 86.3781 47.2611 86.1607C45.7975 85.4914 42.4374 83.9684 39.7319 82.8446C32.0668 79.6605 19.3085 75.8672 2.36905 72.998C1.83213 72.9071 1.31721 73.2488 1.22376 73.7595L0.531786 83.008C0.43834 83.5187 0.801699 84.0052 1.3386 84.0962C17.404 86.8207 28.2452 90.3663 34.987 93.1668C38.4268 94.5957 40.8049 95.8328 42.2702 96.6724C43.0032 97.0924 43.8221 97.628 44.1188 97.8245C44.9405 98.2753 46.1321 98.9449 46.9779 99.4221C47.6096 99.7784 48.383 99.7668 49.0082 99.3991C50.2098 98.6924 52.2224 97.5397 53.5562 96.9399C55.5647 96.0365 58.6368 94.749 62.7649 93.281C70.8582 90.4028 83.0147 86.829 99.1793 84.0959C99.7162 84.0051 100.079 83.5187 99.9853 83.008L99.2933 73.7595C99.1999 73.2488 98.6858 72.907 98.1488 72.9977C81.2142 75.8583 67.3484 79.6238 58.6129 82.7304C55.1127 83.9752 50.5539 85.5935 48.7664 86.228Z" fill="#0A00D8"/>
</svg>
