<svg width="101" height="101" viewBox="0 0 101 101" fill="none" xmlns="http://www.w3.org/2000/svg">
<path d="M26.999 24.3746L18.7506 32.7163L28.2434 42.4506L0.749023 42.3244V55.0279L28.2433 55.1541L18.3424 65.3069L27.9365 75.0156L51.9991 50.0156L26.999 24.3746Z" fill="#0A00D8"/>
<path d="M44.0386 1.87043C44.0386 1.30879 44.4109 0.821559 44.946 0.711295C46.2316 0.446393 48.7054 0.015625 51.1977 0.015625C54.4962 0.015625 56.8407 0.428787 58.0079 0.694679C58.5138 0.809915 58.8505 1.2768 58.8505 1.81V13.965C58.8505 14.2529 59.0463 14.501 59.3191 14.5648C63.3984 15.5182 67.205 17.2103 70.5991 19.4972C70.8364 19.6571 71.1508 19.6264 71.3514 19.42L80.1832 10.331C80.5692 9.93387 81.1672 9.86024 81.6213 10.1717C82.7124 10.9199 84.7576 12.4154 86.5199 14.2291C88.8524 16.6294 90.2262 18.6276 90.8689 19.665C91.1474 20.1146 91.0647 20.6897 90.6984 21.0668L81.5773 30.4533C81.3837 30.6526 81.3485 30.9621 81.4883 31.2044C83.4956 34.6836 84.9457 38.5432 85.7122 42.653C85.7664 42.9434 86.0118 43.1558 86.2991 43.1558L99.0054 43.1558C99.5235 43.1558 99.9772 43.5023 100.089 44.0229C100.348 45.2241 100.749 47.6368 100.749 51.0314C100.749 53.5962 100.33 56.142 100.073 57.4651C99.9659 58.0158 99.4924 58.3989 98.9467 58.3989H85.6933C85.4231 58.3989 85.1877 58.5872 85.1166 58.8554C84.1878 62.3633 82.753 65.6565 80.8979 68.6468C80.7466 68.8906 80.7779 69.2105 80.9767 69.415L90.4476 79.1617C90.8335 79.5588 90.905 80.1742 90.6024 80.6416C89.8753 81.7645 88.4221 83.8692 86.6598 85.6828C84.3273 88.0832 82.3857 89.497 81.3777 90.1584C80.9408 90.445 80.3819 90.3599 80.0155 89.9829L70.3857 80.0728C70.1903 79.8716 69.8859 79.8368 69.6499 79.9848C66.5772 81.9123 63.191 83.3626 59.5884 84.2359C59.3178 84.3014 59.1245 84.5485 59.1245 84.8345V98.1608C59.1245 98.7225 58.7522 99.2097 58.217 99.32C56.9314 99.5849 54.4577 100.016 51.9654 100.016C48.6668 100.016 46.3224 99.6025 45.1551 99.3366C44.6493 99.2213 44.3126 98.7544 44.3126 98.2213V84.8947C44.3126 84.6069 44.1169 84.3589 43.8443 84.295C40.3255 83.4702 36.0616 82.0669 31.7622 78.9313L41.4695 68.6063C44.4991 70.5285 47.6226 70.7784 51.5924 70.7784C65.8725 70.7784 73.3451 61.0683 73.3451 49.4324C73.3451 34.7366 63.303 28.0864 51.5924 28.0864C48.2867 28.0864 44.8116 28.8618 42.3304 30.2182L32.5865 19.712C35.4366 17.3233 39.8387 15.5423 43.575 14.634C43.8454 14.5683 44.0386 14.3214 44.0386 14.0355V1.87043Z" fill="#0A00D8"/>
</svg>
