<svg width="86" height="100" viewBox="0 0 86 100" fill="none" xmlns="http://www.w3.org/2000/svg">
<path fill-rule="evenodd" clip-rule="evenodd" d="M28.7832 15.4127C28.5777 16.8959 27.313 18 25.8196 18H20.9446C19.2921 18 17.9525 19.3431 17.9525 21V27C17.9525 28.6569 19.2921 30 20.9446 30H64.8285C66.481 30 67.8206 28.6569 67.8206 27V21C67.8206 19.3431 66.481 18 64.8285 18H60.9509C59.4574 18 58.1927 16.8959 57.9872 15.4127L56.2106 2.58729C56.0052 1.10415 54.7404 0 53.247 0H33.5234C32.03 0 30.7653 1.10414 30.5598 2.58729L28.7832 15.4127ZM42.8865 4.00012C46.1915 4.00012 48.8707 6.68641 48.8707 10.0001C48.8707 13.3138 46.1915 16.0001 42.8865 16.0001C39.5816 16.0001 36.9024 13.3138 36.9024 10.0001C36.9024 6.68641 39.5816 4.00012 42.8865 4.00012Z" fill="#0A00D8"/>
<path d="M65.2635 11.9762C64.2793 11.9762 63.4421 11.2563 63.2921 10.2809L62.0656 2.30491C61.8792 1.09319 62.8142 0.0001336 64.037 0.000132902L83.0139 0.00012207C84.6631 0.00012207 86 1.34059 86 2.99413V97.0061C86 98.6597 84.6631 100 83.0139 100H2.98611C1.33693 100 0 98.6597 0 97.0061V2.99413C0 1.34059 1.33693 0.00012207 2.98611 0.00012207H22.7335C23.9563 0.00012207 24.8912 1.09317 24.7049 2.30489L23.4783 10.2809C23.3283 11.2563 22.4912 11.9762 21.5069 11.9762H14.9306C13.2814 11.9762 11.9444 13.3166 11.9444 14.9702V85.0301C11.9444 86.6836 13.2814 88.0241 14.9306 88.0241H71.0694C72.7186 88.0241 74.0555 86.6836 74.0555 85.0301V14.9702C74.0555 13.3166 72.7186 11.9762 71.0694 11.9762H65.2635Z" fill="#0A00D8"/>
<path d="M24.4861 46.7067C24.4861 45.0532 25.823 43.7127 27.4722 43.7127H59.125C60.7742 43.7127 62.1111 45.0532 62.1111 46.7067V52.6947C62.1111 54.3483 60.7742 55.6887 59.125 55.6887H27.4722C25.823 55.6887 24.4861 54.3483 24.4861 52.6947V46.7067Z" fill="#0A00D8"/>
<path d="M27.4722 62.8744C25.823 62.8744 24.4861 64.2148 24.4861 65.8684V71.8564C24.4861 73.51 25.823 74.8504 27.4722 74.8504H59.125C60.7742 74.8504 62.1111 73.51 62.1111 71.8564V65.8684C62.1111 64.2148 60.7742 62.8744 59.125 62.8744H27.4722Z" fill="#0A00D8"/>
</svg>
