<svg width="88" height="101" viewBox="0 0 88 101" fill="none" xmlns="http://www.w3.org/2000/svg">
<path fill-rule="evenodd" clip-rule="evenodd" d="M51.4507 50.4141C54.3303 50.243 57.5176 49.8194 60.3509 48.8406C62.4651 48.1102 64.6919 46.9684 66.4242 45.1075C68.2514 43.1447 69.3168 40.6008 69.3168 37.6031C69.3168 34.4545 68.3248 31.7328 66.3651 29.6399C64.5032 27.6514 62.6993 26.5117 59.89 25.3992C56.7889 24.1711 54.7839 24.0848 51.4507 24.0997H42.664V60.5H51.4507V50.4141ZM52.8872 41.5306C52.3356 41.5462 51.8424 41.5602 51.4507 41.5881V33.3039C57.7133 33.2072 58.401 33.9615 59.6599 35.3423C59.7551 35.4467 59.8536 35.5549 59.958 35.6664C60.2041 35.9292 60.5084 36.8146 60.5302 37.6031C60.5533 38.4426 60.3598 38.9286 59.9996 39.6869C59.209 41.3516 55.429 41.4586 52.8872 41.5306Z" fill="#0A00D8"/>
<path d="M27.4548 60.5H36.2414V24.0998H27.4548V60.5Z" fill="#0A00D8"/>
<path fill-rule="evenodd" clip-rule="evenodd" d="M43.8356 0.437256C53.0703 0.437252 63.7629 3.45258 72.2742 10.1558C80.9748 17.0081 87.2143 27.6019 87.2143 41.9959C87.2143 56.2274 80.2549 65.3795 72.2067 72.8967C69.563 75.3659 66.6021 77.834 63.7312 80.2271L63.7295 80.2285C62.4133 81.3257 61.116 82.4071 59.8769 83.4656C57.0418 85.8874 54.3163 88.344 51.7882 90.9964C50.6619 92.1781 49.5748 93.3987 48.5346 94.6723L43.8266 100.437L39.1294 94.6636C38.0993 93.3974 37.0161 92.1716 35.8886 90.9743C33.3804 88.3108 30.6529 85.7881 27.8029 83.2752C26.5544 82.1742 25.252 81.0502 23.9328 79.9116L23.9299 79.9091L23.9291 79.9084C21.0339 77.4097 18.056 74.8395 15.3777 72.2817C7.40371 64.6666 0.153564 55.4316 0.153564 41.9958C0.153566 18.9339 21.6753 0.437265 43.8356 0.437256ZM51.9957 74.2396C49.3133 76.531 46.5444 79.002 43.8541 81.7467C41.2186 79.0221 38.4881 76.5196 35.828 74.174C34.5303 73.0298 33.1864 71.8699 31.8838 70.7457L31.8571 70.7227C28.9145 68.183 26.1758 65.8156 23.7579 63.5066C16.5589 56.6315 12.2875 50.3966 12.2875 41.9958C12.2875 26.5556 27.4177 12.5712 43.8356 12.5712C50.6801 12.5711 58.6429 14.8654 64.7667 19.6884C70.7046 24.3648 75.0804 31.5178 75.0804 41.9959C75.0804 51.4183 70.8239 57.5848 63.9243 64.0291C61.5757 66.2227 58.8873 68.4682 55.962 70.9067L55.9551 70.9124L55.9466 70.9195L55.9323 70.9314L55.9316 70.932C54.6352 72.0126 53.2908 73.1333 51.9957 74.2396Z" fill="#0A00D8"/>
</svg>
