<svg width="171" height="171" viewBox="0 0 171 171" fill="none" xmlns="http://www.w3.org/2000/svg">
<path d="M67.9257 48.5074C70.0612 45.2725 74.0272 42.3732 79.854 42.068C81.6339 41.955 84.8383 42.1036 87.1438 42.5625C87.4487 42.6232 87.6474 42.9126 87.6076 43.2209L86.8368 49.1855C86.7907 49.542 86.4457 49.7798 86.0939 49.7062C78.8675 48.1941 76.1109 50.6041 74.3037 53.3307C72.9733 55.3598 72.4693 57.6853 72.2901 58.8462C72.2313 59.2271 71.8506 59.4879 71.4801 59.3824L65.3616 57.6403C65.0936 57.5639 64.9135 57.3158 64.9397 57.0383C65.0617 55.7468 65.6033 52.017 67.9257 48.5074Z" fill="#0A00D8"/>
<path d="M79.5764 69.8912C79.6834 69.5444 80.0684 69.3688 80.4056 69.5029C84.3087 71.0538 88.9293 71.4285 92.423 70.7965C94.0539 70.5015 96.1118 69.4887 97.3037 68.8456C97.7284 68.6164 98.2572 68.9341 98.2398 69.4164L98.0161 75.5982C98.0096 75.7784 97.9247 75.9453 97.7797 76.0523C97.0978 76.5553 95.0228 78.0218 93.6128 78.3241C90.3098 79.0616 83.0008 78.6299 78.0529 76.6704C77.7649 76.5564 77.6193 76.2382 77.7106 75.9422L79.5764 69.8912Z" fill="#0A00D8"/>
<path d="M106.716 58.9019L108.708 58.8624C109.096 58.8547 109.428 59.1361 109.494 59.5184C109.935 62.0943 112.039 71.5773 119.941 78.7327C121.496 80.1461 123.047 81.3999 124.476 82.5552C125.202 83.1424 125.911 83.6579 126.567 84.1357L126.568 84.1363L126.569 84.137C128.734 85.7122 130.336 86.8775 130.161 88.8505C130.026 90.369 128.749 92.5368 126.213 95.2416C123.161 98.4971 120.243 100.072 115.946 101.278C111.08 102.643 103.814 101.31 101.569 100.838C101.181 100.756 100.937 100.382 101.005 99.9912L102.034 94.0863C102.109 93.6557 102.531 93.377 102.957 93.4743C105.262 94.0004 112.068 95.4073 115.391 94.5151C118.477 93.6864 121.886 91.4831 122.264 89.6969C122.598 88.1194 121.453 87.1636 119.081 85.184L119.079 85.1826C118.766 84.9211 119.435 85.4837 119.079 85.1826C117.983 84.2544 115.77 82.388 114.52 81.2573C104.73 72.3668 105.633 62.0015 106.027 59.4849C106.08 59.1455 106.373 58.9088 106.716 58.9019Z" fill="#0A00D8"/>
<path d="M109.296 111.783C115.196 111.783 125.698 107.453 128.746 106.141C129.014 106.025 129.268 106.311 129.112 106.558C126.995 109.893 118.177 122.637 107.228 122.31C94.9307 121.943 89.802 115.303 86.5922 105.366C86.5084 105.107 86.7894 104.882 87.0268 105.016C96.1794 110.17 101.028 111.783 109.296 111.783Z" fill="#0A00D8"/>
<path fill-rule="evenodd" clip-rule="evenodd" d="M85.5 171C132.72 171 171 132.72 171 85.5C171 38.2797 132.72 0 85.5 0C38.2797 0 0 38.2797 0 85.5C0 132.72 38.2797 171 85.5 171ZM124.723 28.839C128.564 33.0864 130.553 36.4216 133.12 41.4724C133.183 41.5961 133.06 41.7355 132.928 41.6912C130.869 40.9964 128.011 40.7305 126.286 40.8167C122.565 41.0343 119.166 42.4768 117.912 43.0676C117.622 43.2045 117.506 43.5471 117.639 43.8392L120.134 49.2948C120.263 49.5768 120.582 49.7172 120.878 49.6232C122.235 49.1916 125.903 48.0741 127.507 48.0741C127.738 48.0741 127.968 48.0713 128.197 48.0685C130.916 48.0357 133.514 48.0044 136.201 52.6274C136.447 53.5787 136.68 54.4079 136.896 55.18C137.613 57.7353 138.156 59.6708 138.451 63.3788C138.476 63.6968 138.331 64.0039 138.064 64.1794C137.19 64.7553 135.135 66.0338 133.516 66.4563C131.052 67.0995 127.435 66.324 125.71 65.8737C125.181 65.7357 124.634 66.0677 124.532 66.6045L123.167 73.8007L123.293 73.836C126.805 74.8274 129.704 75.6455 133.791 75.0586C136.395 74.6846 137.803 73.2842 138.382 72.5398C138.477 72.4169 138.715 72.487 138.719 72.6427C139.152 89.4391 136.134 101.764 132.906 110.002C129.276 119.158 125.523 123.156 125.523 123.156L123.449 125.445V125.475C120.398 128.436 113.503 133.245 101.819 134.069C85.5894 135.259 75.5646 125.475 70.9281 119.714C67.1737 115.734 65.688 112.374 65.1618 110.861C64.9981 110.39 64.5123 110.08 64.0232 110.176L58.8431 111.193C58.3125 111.297 57.99 111.834 58.1613 112.347C58.8176 114.312 60.4361 118.862 62.2789 121.839C62.4545 122.123 62.6235 122.398 62.7877 122.665C64.7406 125.838 66.0256 127.926 70.0754 131.72C70.4329 132.055 70.2799 132.656 69.8026 132.766C66.8956 133.434 59.2414 135.184 57.496 135.479C52.7565 133.346 42.5831 125.281 38.9526 109.867C38.7955 109.2 39.131 108.521 39.6692 108.098C40.9893 107.058 42.5628 105.119 43.6901 102.106C43.7901 101.838 43.6824 101.539 43.4389 101.39L41.2116 100.029C40.9155 99.848 40.5293 99.9527 40.352 100.251C39.3885 101.872 38.3833 102.882 37.0337 103.398C36.0616 103.771 34.8216 103.948 33.2273 103.594C31.6331 103.239 28.9759 101.468 26.558 98.741C23.6293 95.6281 21.8599 90.4399 21.8904 85.7706C21.9209 81.0707 23.3852 77.2224 26.558 75.6049C28.9903 74.3649 32.7895 72.9528 34.4674 73.319C36.1452 73.6852 37.1245 74.082 38.6998 76.3709C39.9099 78.1291 40.593 83.0126 41.1766 87.1845L41.1818 87.2221C41.3411 88.3607 42.3791 88.4451 42.547 87.3077C43.2006 82.8829 43.2516 75.8435 41.6895 73.6242C40.1032 71.3963 38.3645 69.8552 36.5931 69.2401C33.375 68.1227 28.3496 69.6516 25.044 70.9499C23.4313 71.5833 21.5683 70.4713 21.5287 68.7392C20.2115 11.0869 95.8834 4.40742 115.132 13.1588C116.134 13.6146 116.747 14.5934 116.894 15.6848L117.118 17.3473C117.257 18.3787 116.352 19.2435 115.327 19.0633C84.9779 13.7267 33.8689 18.9192 50.588 84.4141C50.7797 85.1653 51.5225 85.6812 52.2888 85.5633L57.6095 84.7445C58.5579 84.5985 59.1181 83.5761 58.8009 82.6705C38.4407 24.5331 88.2209 18.4268 115.599 22.2847C118.433 22.6841 121.669 25.4611 124.723 28.839ZM123.279 133.757C124.55 133.428 125.4 133.684 126.211 134.359C127.021 135.004 128.437 137.337 128.779 139.462C129.147 141.484 129.461 144.32 129.57 146.57C129.635 147.932 129.325 149.194 129.124 150.006L129.123 150.011L129.078 150.171C128.879 150.881 128.772 151.262 128.363 151.612C126.01 153.623 123.8 153.126 121.106 152.521C120.617 152.411 120.112 152.297 119.587 152.195C118.598 151.999 117.38 151.465 116.348 151.013C115.741 150.746 115.198 150.508 114.804 150.384C114.383 150.313 113.94 150.131 113.416 149.915C112.179 149.407 110.489 148.712 107.565 148.853C106.193 148.919 103.792 150.362 102.011 151.432C101.211 151.913 100.536 152.319 100.136 152.49C99.027 153.186 97.9668 154.146 96.8545 155.152C94.4708 157.309 91.8478 159.682 87.9929 160.151C86.1173 160.36 84.9858 159.842 84.3357 159.397C83.7155 158.951 83.1393 158.176 82.6509 156.742C81.9788 154.829 81.5954 151.986 81.1487 148.675C80.9264 147.027 80.6884 145.262 80.3913 143.438C80.0164 141.255 80.35 140.109 80.7963 139.433C81.2202 138.791 82.0485 138.572 82.9666 138.328L83.1122 138.29C84.3133 137.969 86.5802 138.123 86.5802 138.123C86.5802 138.123 87.6901 138.084 90.1976 139.183L100.494 142.887C100.911 143.003 101.283 143.109 101.62 143.205C104.055 143.898 104.651 144.068 106.938 143.696C109.741 143.239 112.044 142.26 112.875 141.445C112.94 141.389 113.005 141.333 112.878 141.443C114.416 140.111 116.07 138.678 117.796 137.351C119.065 136.368 120.279 135.477 121.296 134.833C122.312 134.19 123.191 133.79 123.279 133.757Z" fill="#0A00D8"/>
</svg>
