<svg width="79" height="101" viewBox="0 0 79 101" fill="none" xmlns="http://www.w3.org/2000/svg">
<path d="M33.2355 25.0736C34.5291 23.114 36.9314 21.3579 40.4609 21.173C41.539 21.1045 43.48 21.1946 44.8765 21.4725C45.0612 21.5093 45.1816 21.6846 45.1575 21.8713L44.6906 25.4843C44.6627 25.7003 44.4537 25.8443 44.2406 25.7997C39.8633 24.8838 38.1936 26.3436 37.0989 27.9952C36.293 29.2243 35.9877 30.6329 35.8792 31.3361C35.8435 31.5668 35.613 31.7248 35.3885 31.6609L31.6823 30.6056C31.52 30.5594 31.4109 30.4091 31.4268 30.241C31.5007 29.4587 31.8288 27.1995 33.2355 25.0736Z" fill="#0A00D8"/>
<path d="M66.4961 59.4145C64.6499 60.2096 58.289 61.6209 54.7147 61.6209C54.3803 61.6209 54.0552 61.6219 53.7379 61.6229C49.3027 61.6372 46.3996 61.6465 41.2257 58.7332C41.0819 58.6522 40.9117 58.7881 40.9625 58.9452C42.9068 64.9645 46.0134 68.9862 53.4622 69.2086C60.0943 69.4066 65.4356 61.6874 66.718 59.6672C66.8128 59.5178 66.6586 59.3446 66.4961 59.4145Z" fill="#0A00D8"/>
<path d="M37.9242 35.6398C37.989 35.4297 38.2222 35.3234 38.4265 35.4046C40.7907 36.344 43.5896 36.571 45.7058 36.1882C46.6937 36.0095 47.9403 35.396 48.6622 35.0064C48.9195 34.8676 49.2398 35.06 49.2293 35.3522L49.0938 40.3081C49.0898 40.4173 49.0384 40.5184 48.9505 40.5832C48.5375 40.8879 47.2806 41.7762 46.4265 41.9593C44.4258 42.406 39.9985 42.1445 37.0014 40.9576C36.827 40.8885 36.7388 40.6958 36.794 40.5165L37.9242 35.6398Z" fill="#0A00D8"/>
<path d="M54.9647 30.1707L52.5465 30.1947C52.3384 30.1988 52.1614 30.3422 52.1292 30.5478C51.8906 32.0722 53.5458 38.9286 56.9586 43.2777C57.6764 44.1924 58.4342 45.1341 59.2505 45.9622C59.4973 46.2125 59.7458 46.449 59.9833 46.6749C60.9062 47.5529 61.6623 48.2722 61.5016 49.0322C61.2728 50.1141 60.8821 50.659 59.0124 51.161C56.9994 51.7015 52.8772 51.4549 51.4808 51.1363C51.2227 51.0773 50.9675 51.2462 50.922 51.507L50.2984 55.0838C50.2571 55.3205 50.405 55.5472 50.6402 55.5967C52 55.8827 56.4015 56.6901 59.3489 55.8631C61.8783 55.1535 63.3871 53.9457 65.5521 52.2126L65.7417 52.0608C66.2431 51.6597 67.8618 49.9408 67.959 48.3355C67.959 46.8321 66.8195 46.0679 64.9326 44.8025C64.7974 44.7118 64.6583 44.6185 64.5156 44.5222C63.5928 43.8998 62.9981 43.3465 62.3213 42.717C62.145 42.553 61.963 42.3837 61.7684 42.2068C56.9823 37.8726 55.7077 32.1284 55.4404 30.5681C55.4007 30.3365 55.1996 30.1661 54.9647 30.1707Z" fill="#0A00D8"/>
<path d="M29.7869 83.3068L30.138 89.6163C30.8057 93.0651 31.7211 96.5805 33.1666 99.4139C34.262 101.561 38.2913 99.7136 42.6077 97.0857C45.7026 95.2015 49.5508 92.6217 51.9653 92.1889C54.9896 91.6468 57.6086 92.9478 60.7256 94.2053C63.5678 95.352 68.1378 96.4625 70.5677 96.1069C76.1867 94.811 71.9543 80.7003 69.7891 78.2986C66.3475 75.6844 61.8916 80.0724 59.7857 81.9118C57.4551 83.9473 56.3336 86.5141 51.5189 87.1522C47.2265 84.8445 29.7869 73.5758 29.7869 83.3068Z" fill="#0A00D8"/>
<path fill-rule="evenodd" clip-rule="evenodd" d="M11.6663 63.2669C11.9275 63.3249 12.4375 63.3459 13.0541 63.3412C13.3295 65.3706 13.7304 67.9797 14.1025 70.3282C14.3877 72.1278 14.6632 73.8187 14.8673 75.0593C14.9694 75.6798 15.0537 76.188 15.1125 76.5414C15.1419 76.7181 15.0968 76.4474 15.1125 76.5414L15.2631 77.4408L15.4697 77.9277C15.5092 78.0167 15.3984 77.7768 15.4697 77.9277C15.612 78.229 15.9849 79.0093 16.2542 79.5053C16.7889 80.49 17.5911 81.8192 18.655 83.1654C20.685 85.7339 25.2343 89.6163 30.138 89.6163L29.7869 83.3068C27.7247 83.3068 25.0874 81.5353 23.4073 79.4095C22.6161 78.4084 21.9986 77.3904 21.5774 76.6147C21.3694 76.2317 21.1878 75.7588 21.0876 75.5467C21.0293 75.1966 21.189 76.1629 21.0876 75.5467C20.8848 74.3139 20.3679 71.1645 20.0852 69.3802C19.698 66.9369 19.3062 64.3729 19.049 62.4746C20.0536 62.1451 21.3873 61.7036 22.5605 61.2668C25.0158 67.8608 27.8219 72.5151 32.0568 75.4306C36.9699 78.8129 43.2211 79.4401 51.2501 79.3185C57.7403 79.2201 62.8632 77.3664 66.8283 74.373C70.7614 71.4038 73.3727 67.453 75.1103 63.4232C78.5507 55.444 78.765 46.6728 78.765 42.9748C78.765 38.2881 78.4549 33.2579 77.9906 28.9301C77.5356 24.6891 76.9054 20.8527 76.1867 18.6964C74.8974 14.8285 70.8962 5.58287 59.4275 2.10751C59.2515 2.05418 59.604 2.12818 59.4275 2.10751C43.5358 -2.35386 4.21168 -0.105315 2.44267 30.5681C2.46664 31.6173 2.98192 37.8258 5.20351 38.495C3.28167 39.4748 0.34111 43.4595 0.322632 46.3064C0.322623 50.7778 1.36094 53.719 2.23596 56.1978L2.23621 56.1985C2.30629 56.397 2.37531 56.5925 2.44267 56.7857C4.25984 60.0414 8.52201 62.5681 11.6663 63.2669ZM25.6421 41.8953C19.2555 7.22122 43.3947 6.50122 59.5774 8.48573C66.2178 10.3205 68.9318 16.3929 70.1371 19.7354C68.8988 19.34 67.2337 19.1891 66.2178 19.2399C63.9641 19.3717 61.9048 20.2454 61.1454 20.6033C60.9695 20.6863 60.8993 20.8938 60.9802 21.0707L62.4913 24.3754C62.5694 24.5462 62.7629 24.6312 62.9419 24.5743C63.7638 24.3128 65.9857 23.6359 66.9573 23.6359C67.0972 23.6359 67.2366 23.6342 67.3754 23.6325C68.745 23.616 70.0635 23.6001 71.4048 25.2053C71.6031 26.4911 71.7947 27.9631 71.9678 29.5762C72.0931 30.7443 72.2066 31.9658 72.305 33.2175C72.2652 33.2862 72.2097 33.3461 72.1409 33.3914C71.6113 33.7403 70.3664 34.5147 69.3859 34.7706C67.8933 35.1602 65.7023 34.6905 64.6571 34.4177C64.3369 34.3341 64.0054 34.5353 63.9438 34.8604L63.1173 39.2193L63.1932 39.8465C65.4389 40.5519 67.0768 40.9425 69.5522 40.587C71.1298 40.3605 72.1866 39.5745 72.5371 39.1236C72.6115 40.8268 72.7077 41.3202 72.7077 42.9748C72.7077 43.7156 72.6974 44.6345 72.6549 45.686C72.4928 49.7034 71.862 55.658 69.5479 61.0249C68.1054 64.3706 66.0601 67.3633 63.1787 69.5386C60.3294 71.6896 56.4799 73.1812 51.1583 73.2618C45.3494 73.3498 41.383 72.9821 38.4184 71.9203C37.3194 71.5267 36.3581 71.0377 35.4916 70.4412C33.0819 68.7823 31.0711 66.0548 29.0687 61.2607C28.4251 59.7199 27.7824 57.9656 27.1275 55.9647C26.6072 54.3749 24.8968 53.508 23.307 54.0283C22.7175 54.2212 22.2273 54.5779 21.8704 55.0314C20.4749 55.3702 13.8845 56.9605 13.3458 56.9067C10.3172 56.6041 7.28856 53.2723 6.68282 49.335C6.46921 46.8765 6.6993 43.4347 9.84911 43.2776C12.9989 43.1206 13.9316 45.6122 13.972 47.5569L17.586 47.215L22.6565 46.3159C24.7045 45.9528 26.0189 43.9409 25.6421 41.8953Z" fill="#0A00D8"/>
</svg>
