<svg width="101" height="101" viewBox="0 0 101 101" fill="none" xmlns="http://www.w3.org/2000/svg">
<path fill-rule="evenodd" clip-rule="evenodd" d="M57.1608 77.4694C57.1608 77.8145 57.2955 78.1455 57.5354 78.3904L77.7861 99.0601C78.2906 99.5751 79.1125 99.5752 79.6172 99.0604L99.8798 78.3905C100.12 78.1456 100.255 77.8144 100.255 77.4692V57.1143C100.255 56.3923 99.677 55.807 98.9644 55.807L58.4511 55.807C57.7385 55.807 57.1608 56.3923 57.1608 57.1143V77.4694ZM79.6314 91.0674C79.1224 91.5941 78.2844 91.5905 77.7799 91.0593L63.1869 75.6965C62.9556 75.4529 62.8263 75.128 62.8263 74.7899V62.6816C62.8263 61.9596 63.404 61.3743 64.1165 61.3743H93.815C94.5276 61.3743 95.1053 61.9596 95.1053 62.6816V74.5219C95.1053 74.8638 94.973 75.1922 94.7369 75.4365L79.6314 91.0674Z" fill="#0A00D8"/>
<path fill-rule="evenodd" clip-rule="evenodd" d="M98.9644 56.5603L58.4511 56.5603C58.1497 56.5603 57.9047 56.8079 57.9047 57.1143V77.4694C57.9047 77.6158 57.9618 77.7561 58.0634 77.8599L78.3142 98.5296C78.5278 98.7476 78.8756 98.7477 79.0893 98.5297L99.3519 77.8598C99.4536 77.756 99.5108 77.6156 99.5108 77.4692V57.1143C99.5108 56.8079 99.2658 56.5603 98.9644 56.5603ZM58.4511 55.0537L98.9644 55.0537C100.088 55.0537 100.999 55.9767 100.999 57.1143V77.4692C100.999 78.0131 100.786 78.5351 100.408 78.9212L80.1451 99.5911C79.3495 100.403 78.0535 100.403 77.2581 99.5907L57.0073 78.921C56.6291 78.535 56.417 78.0132 56.417 77.4694V57.1143C56.417 55.9767 57.3272 55.0537 58.4511 55.0537ZM64.1165 62.1275C63.8152 62.1275 63.5702 62.3752 63.5702 62.6816V74.7899C63.5702 74.9333 63.625 75.0711 63.723 75.1743L78.316 90.5371C78.5296 90.762 78.8842 90.7635 79.0997 90.5405L94.2053 74.9096C94.3053 74.8061 94.3614 74.6669 94.3614 74.5219V62.6816C94.3614 62.3752 94.1164 62.1275 93.815 62.1275H64.1165ZM62.0824 62.6816C62.0824 61.5439 62.9927 60.621 64.1165 60.621H93.815C94.9389 60.621 95.8491 61.5439 95.8491 62.6816V74.5219C95.8491 75.0607 95.6408 75.5782 95.2686 75.9634L80.163 91.5943C79.3605 92.4247 78.0392 92.4189 77.2438 91.5815L62.6508 76.2187C62.2861 75.8347 62.0824 75.3226 62.0824 74.7899V62.6816Z" fill="#0A00D8"/>
<path fill-rule="evenodd" clip-rule="evenodd" d="M49.2512 12.7727C49.2512 13.2242 49.5727 13.6059 50.004 13.6829C55.7223 14.7027 60.8919 17.3944 65.0316 21.2574C65.3581 21.562 65.851 21.5858 66.1957 21.3032L74.6649 14.3576C75.0463 14.0449 75.6013 14.1101 75.9047 14.5034L80.2981 20.2004C80.6014 20.5937 80.5381 21.1661 80.1567 21.4789L71.6345 28.4679C71.2933 28.7477 71.2026 29.2418 71.41 29.6372C73.7532 34.106 75.085 39.2317 75.085 44.6811C75.085 45.3762 75.072 45.9432 75.0206 46.7498C74.9764 47.4447 74.8576 48.5253 74.8576 48.5253H58.4511C53.7629 48.5253 49.9702 52.3751 49.9702 57.1143V75.6854C48.31 75.9795 46.6037 76.1326 44.863 76.1326C41.9991 76.1326 39.2282 75.7181 36.6027 74.9434C36.1779 74.8181 35.7237 75.0226 35.5362 75.4353L30.3957 86.7508C30.1887 87.2063 29.6625 87.4022 29.2211 87.1881L22.8624 84.1031C22.422 83.8894 22.2326 83.3483 22.439 82.8938L27.6359 71.4544C27.8195 71.0503 27.6909 70.5696 27.3395 70.309C22.7936 66.9365 19.1831 62.2868 16.9916 56.8632C16.8218 56.443 16.3839 56.2046 15.9546 56.3105L3.74551 59.3205C3.27211 59.4372 2.79648 59.1366 2.68254 58.6486L1.02325 51.542C0.909056 51.0529 1.20142 50.5611 1.6759 50.4441L14.0043 47.4046C14.4269 47.3004 14.7117 46.8945 14.6879 46.4471C14.6568 45.8626 14.641 45.2738 14.641 44.6811C14.641 39.2841 15.9473 34.2045 18.2488 29.7662C18.4541 29.3703 18.3617 28.8773 18.0201 28.5989L8.88908 21.1578C8.50675 20.8463 8.44175 20.2741 8.74388 19.8798L13.1203 14.1689C13.4225 13.7746 13.9773 13.7076 14.3596 14.0192L23.4244 21.4063C23.7703 21.6882 24.2639 21.6624 24.5894 21.3558C28.7446 17.442 33.9503 14.7139 39.7137 13.6843C40.145 13.6073 40.4664 13.2256 40.4664 12.7742L40.4663 1.10957C40.4663 0.606355 40.8624 0.1987 41.3504 0.199709L48.3706 0.214227C48.8572 0.215233 49.2511 0.622295 49.2511 1.12408L49.2512 12.7727ZM49.2512 23.9227C49.2512 23.3444 49.768 22.912 50.3099 23.0609C53.0396 23.8105 55.5618 25.1101 57.7568 26.8424C58.1986 27.191 58.1879 27.8703 57.7525 28.2273L49.8576 34.7019C49.7457 34.7936 49.5925 34.8091 49.4638 34.745C49.3351 34.6809 49.2512 34.5476 49.2512 34.4002L49.2512 23.9227ZM40.4664 23.925C40.4664 23.3466 39.9493 22.9142 39.4073 23.0633C36.6418 23.824 34.0896 25.1494 31.8749 26.9172C31.4357 27.2678 31.4491 27.9458 31.8849 28.3009L39.7594 34.718C39.8905 34.8248 40.0696 34.8417 40.2197 34.7661C40.3689 34.691 40.4664 34.5361 40.4664 34.3648L40.4664 23.925ZM63.1662 35.4126C63.6067 35.0514 64.2589 35.2018 64.4818 35.7347C65.6258 38.4688 66.2618 41.4928 66.2618 44.6811C66.2618 45.0267 65.9458 45.2753 65.6201 45.1938L55.6199 42.6923C55.4305 42.6449 55.2864 42.4867 55.2444 42.2905C55.2023 42.0941 55.2689 41.8892 55.4215 41.764L63.1662 35.4126ZM49.0534 65.4727C49.2958 65.9994 49.0019 66.6228 48.4446 66.7212C47.2789 66.927 46.0822 67.034 44.863 67.034C43.4394 67.034 42.0464 66.8881 40.6976 66.6094C40.1544 66.4972 39.8744 65.886 40.1094 65.3687L44.4957 55.7135C44.5019 55.6999 44.5153 55.6914 44.5298 55.6919C44.5435 55.6923 44.5558 55.7006 44.5617 55.7133L49.0534 65.4727ZM32.2384 61.3232C31.9977 61.8531 31.3409 62.0146 30.9129 61.6304C28.8507 59.7786 27.1279 57.5222 25.8604 54.9749C25.6074 54.4664 25.8964 53.8594 26.4353 53.7266L36.1226 51.3382C36.2607 51.3042 36.4048 51.3586 36.4921 51.4741C36.576 51.585 36.5943 51.7349 36.5365 51.8622L32.2384 61.3232ZM23.8357 44.9808C23.6466 45.0274 23.4642 44.8816 23.4642 44.6811C23.4642 41.5367 24.0828 38.552 25.1973 35.8477C25.4177 35.3128 26.0704 35.1593 26.5126 35.5196L34.4146 41.9591C34.4874 42.0184 34.5198 42.1159 34.4991 42.2091C34.4787 42.3009 34.4101 42.3737 34.3213 42.3957L23.8357 44.9808ZM50.2025 44.6811C50.2025 47.7501 47.8118 50.238 44.8629 50.238C41.9139 50.238 39.5233 47.7501 39.5233 44.6811C39.5233 41.6122 41.9139 39.1243 44.8629 39.1243C47.8118 39.1243 50.2025 41.6122 50.2025 44.6811Z" fill="#0A00D8"/>
</svg>
