<svg width="92" height="101" viewBox="0 0 92 101" fill="none" xmlns="http://www.w3.org/2000/svg">
<path d="M39.7327 11.3662C39.7327 12.4211 39.2018 13.4052 38.3203 13.9846L14.6551 29.5382C13.7735 30.1176 13.2427 31.1017 13.2427 32.1566V60.6921C13.2427 61.8531 12.6006 62.919 11.5742 63.4618L5.30775 66.7758C3.22106 67.8794 0.709717 66.3666 0.709717 64.0061V25.3962C0.709717 24.3413 1.24054 23.3572 2.12209 22.7778L34.8785 1.2491C36.9621 -0.120248 39.7327 1.37425 39.7327 3.86746L39.7327 11.3662Z" fill="#0A00D8"/>
<path d="M41.8797 44.6791V61.3309L65.9916 30.9124H52.4501L41.8797 44.6791Z" fill="#0A00D8"/>
<path d="M31.2111 69.7646H41.8797V30.9123H31.2111V69.7646Z" fill="#0A00D8"/>
<path d="M51.7486 48.8287L44.9735 57.3512L54.2461 69.4545H67.5568L51.7486 48.8287Z" fill="#0A00D8"/>
<path d="M52.0613 11.3662C52.0613 12.4211 52.5921 13.4052 53.4737 13.9846L77.1389 29.5382C78.0204 30.1176 78.5513 31.1017 78.5513 32.1566V60.6921C78.5513 61.8531 79.1933 62.919 80.2197 63.4618L86.4862 66.7758C88.5729 67.8794 91.0843 66.3666 91.0843 64.0061V25.3962C91.0843 24.3413 90.5534 23.3572 89.6719 22.7778L56.9154 1.2491C54.8319 -0.120248 52.0613 1.37425 52.0613 3.86746L52.0613 11.3662Z" fill="#0A00D8"/>
<path d="M16.5087 73.5293C17.4222 73.0019 18.5399 72.9695 19.4824 73.4433L44.7849 86.1612C45.7274 86.6349 46.845 86.6026 47.7586 86.0751L72.4711 71.8074C73.4766 71.2269 74.7207 71.25 75.704 71.8675L81.7073 75.6374C83.7063 76.8927 83.6518 79.824 81.6076 81.0043L48.1704 100.309C47.2568 100.837 46.1392 100.869 45.1967 100.395L10.174 82.7917C7.94638 81.672 7.85534 78.5253 10.0145 77.2787L16.5087 73.5293Z" fill="#0A00D8"/>
</svg>
