<svg width="99" height="97" viewBox="0 0 99 97" fill="none" xmlns="http://www.w3.org/2000/svg">
<path fill-rule="evenodd" clip-rule="evenodd" d="M55.9463 15.571C55.4573 15.4864 55.093 15.0668 55.093 14.5707L55.0929 1.76803C55.0929 1.21653 54.6464 0.76914 54.0949 0.768034L46.1384 0.752077C45.5854 0.750968 45.1364 1.19901 45.1364 1.75208L45.1365 14.5723C45.1365 15.0684 44.7723 15.4879 44.2835 15.5726C37.7513 16.7042 31.8513 19.7026 27.1419 24.0041C26.773 24.341 26.2136 24.3693 25.8216 24.0595L15.5477 15.9406C15.1144 15.5982 14.4855 15.6719 14.1431 16.1052L9.18294 22.3819C8.84051 22.8152 8.91419 23.444 9.3475 23.7865L19.6964 31.9647C20.0835 32.2706 20.1882 32.8125 19.9556 33.2476C17.3471 38.1257 15.8667 43.7084 15.8667 49.6402C15.8667 50.2915 15.8845 50.9386 15.9197 51.5811C15.9467 52.0728 15.624 52.5189 15.145 52.6335L1.17225 55.974C0.634491 56.1026 0.303128 56.6432 0.432556 57.1807L2.31316 64.9913C2.44229 65.5277 2.98136 65.8581 3.5179 65.7299L17.3554 62.4216C17.842 62.3053 18.3383 62.5673 18.5307 63.0291C21.0145 68.99 25.1066 74.1003 30.2588 77.8069C30.657 78.0934 30.8028 78.6216 30.5947 79.0658L24.7047 91.6385C24.4707 92.138 24.6854 92.7327 25.1846 92.9676L32.3913 96.3582C32.8917 96.5935 33.488 96.3782 33.7226 95.8775L39.5488 83.4411C39.7612 82.9875 40.276 82.7627 40.7575 82.9005C43.7331 83.7518 46.8736 84.2075 50.1195 84.2075C53.1714 84.2075 56.13 83.8047 58.9461 83.0489C59.4217 82.9213 59.9249 83.1446 60.1361 83.5895L66.129 96.2165C66.366 96.716 66.9635 96.9283 67.4626 96.6904L74.6527 93.2638C75.1507 93.0265 75.3624 92.4307 75.1259 91.9323L69.1785 79.4014C68.9647 78.9508 69.1165 78.4128 69.5261 78.1281C74.8025 74.4604 79.0095 69.3384 81.5789 63.3356C81.7748 62.8779 82.2699 62.6206 82.7537 62.738L95.0582 65.7228C95.5943 65.8529 96.1345 65.5242 96.2654 64.9882L98.1715 57.1837C98.3026 56.6466 97.9731 56.105 97.4358 55.9747L85.0703 52.9751C84.5894 52.8584 84.2677 52.4076 84.2995 51.9138C84.3479 51.1622 84.3724 50.4041 84.3724 49.6402C84.3724 43.6509 82.8631 38.0174 80.2073 33.1059C79.9723 32.6713 80.075 32.1282 80.4617 31.8207L90.1206 24.1393C90.5529 23.7956 90.6246 23.1665 90.2809 22.7342L85.3014 16.4728C84.9577 16.0406 84.3286 15.9688 83.8963 16.3126L74.2975 23.9462C73.9069 24.2568 73.3482 24.2307 72.9781 23.8959C68.2863 19.6503 62.4272 16.6918 55.9463 15.571ZM56.2929 25.878C55.6788 25.7145 55.093 26.1897 55.093 26.8252L55.093 38.3408C55.093 38.5027 55.1881 38.6493 55.3339 38.7197C55.4799 38.7901 55.6534 38.7731 55.7803 38.6723L64.7282 31.5563C65.2217 31.1639 65.2338 30.4173 64.7331 30.0342C62.2453 28.1303 59.3867 26.7019 56.2929 25.878ZM43.9362 25.8807C44.5505 25.7168 45.1365 26.192 45.1365 26.8278L45.1365 38.3019C45.1365 38.4901 45.026 38.6603 44.8569 38.7429C44.6868 38.826 44.4838 38.8074 44.3352 38.69L35.4104 31.6372C34.9165 31.2469 34.9013 30.5018 35.3991 30.1164C37.9092 28.1735 40.8018 26.7168 43.9362 25.8807ZM72.355 39.8074C72.1023 39.2218 71.3632 39.0565 70.864 39.4534L62.0863 46.434C61.9133 46.5716 61.8379 46.7968 61.8855 47.0126C61.9332 47.2283 62.0965 47.4022 62.3111 47.4542L73.6451 50.2036C74.0142 50.2931 74.3724 50.02 74.3724 49.6402C74.3724 46.136 73.6516 42.8123 72.355 39.8074ZM71.5092 61.2364C71.8049 60.6781 71.4804 60.0034 70.8664 59.8544L60.0619 57.2335C59.7778 57.1646 59.4812 57.2697 59.2921 57.4926C59.0956 57.7244 59.0445 58.0491 59.1748 58.3237L63.9352 68.3537C64.2055 68.9233 64.9299 69.1043 65.4165 68.7035C67.9012 66.6573 69.9811 64.1216 71.5092 61.2364ZM54.1788 73.8637C54.8105 73.7556 55.1436 73.0704 54.8688 72.4915L49.778 61.7653C49.7714 61.7513 49.7574 61.7422 49.7419 61.7417C49.7254 61.7412 49.7102 61.7505 49.7032 61.7655L44.7319 72.3772C44.4655 72.9458 44.7829 73.6175 45.3986 73.7408C46.9273 74.0471 48.506 74.2075 50.1195 74.2075C51.5013 74.2075 52.8576 74.0898 54.1788 73.8637ZM34.3088 68.2685C34.7939 68.6908 35.5383 68.5133 35.8111 67.9309L40.6824 57.5327C40.748 57.3927 40.7272 57.228 40.6322 57.1061C40.5332 56.9792 40.3699 56.9194 40.2133 56.9568L29.234 59.5817C28.6232 59.7277 28.2957 60.3949 28.5824 60.9537C30.019 63.7534 31.9715 66.2333 34.3088 68.2685ZM25.8667 49.6402C25.8667 49.8605 26.0734 50.0207 26.2876 49.9695L38.1718 47.1283C38.2725 47.1042 38.3502 47.0242 38.3733 46.9232C38.3967 46.8207 38.36 46.7137 38.2776 46.6485L29.3216 39.571C28.8204 39.175 28.0806 39.3438 27.8308 39.9316C26.5677 42.9039 25.8667 46.1842 25.8667 49.6402ZM50.1194 55.7475C53.4617 55.7475 56.1712 53.0132 56.1712 49.6402C56.1712 46.2672 53.4617 43.5328 50.1194 43.5328C46.7771 43.5328 44.0676 46.2672 44.0676 49.6402C44.0676 53.0132 46.7771 55.7475 50.1194 55.7475Z" fill="#0A00D8"/>
</svg>
