<svg width="101" height="91" viewBox="0 0 101 91" fill="none" xmlns="http://www.w3.org/2000/svg">
<path d="M99.957 16.1076C99.9137 16.0787 99.8649 16.0601 99.8158 16.0441L92.0145 13.5047C91.7095 13.4054 91.6421 12.9902 91.899 12.7932C92.8227 12.0851 93.0171 10.7365 92.3321 9.7808C91.6483 8.82546 90.344 8.6246 89.4202 9.33271C89.1352 9.55125 88.7309 9.34228 88.7287 8.97527L88.6801 0.792746C88.6797 0.7386 88.6768 0.683997 88.6624 0.631959C88.5757 0.32012 88.2982 0.1973 88.0415 0.394358L84.3452 3.33271C84.0671 3.54573 83.9771 4.03268 83.9771 4.42129L84.0271 12.9389C84.0291 13.2688 83.8787 13.5799 83.6225 13.7763L82.8398 14.3761C82.1821 14.8802 81.2495 14.398 81.2445 13.5513L81.2032 6.48718C81.2029 6.43245 81.1999 6.37725 81.1852 6.32469C81.0978 6.01325 80.821 5.89101 80.5639 6.08785L76.8677 9.02627C76.5896 9.23929 76.4996 9.58394 76.4996 10.1148L76.5502 18.67C76.5522 18.9999 76.4019 19.311 76.1456 19.5074L39.8605 47.7513C39.9745 46.1836 41.3048 44.5 42.0649 43.692L45.536 39.9422C44.3998 39.4117 43.1393 39.116 41.8117 39.116C36.8 39.116 32.7372 43.3187 32.7372 48.5028C32.7372 53.6869 36.8 57.8896 41.8117 57.8896C44.3177 57.8896 46.5862 56.839 48.2284 55.1402C49.8706 53.4415 50.8864 51.0947 50.8864 48.5028C50.8864 47.1852 50.6234 45.9314 50.1495 44.7935L56.4223 39.9856C57.5117 43.1425 58.9939 49.4362 58.9939 50.7708C59.0417 51.1142 59.0338 51.4677 58.976 51.8084C58.9587 51.9119 58.937 52.0144 58.9106 52.1151C58.856 52.3226 58.7819 52.5226 58.6895 52.7089C58.6826 52.7763 58.5652 52.9849 58.4508 53.188C58.3441 53.3775 58.24 53.5623 58.2304 53.6242C57.9984 55.1179 52.7136 62.3721 51.7246 63.3955C51.4538 63.711 51.1327 63.9819 50.7857 64.1959C50.498 64.3744 50.1927 64.514 49.8829 64.6077L49.8815 64.6084C48.7496 65.4773 42.0065 65.9919 40.4883 65.9919C39.7363 65.9919 36.3184 65.8665 35.642 65.6337C35.3247 65.5859 35.01 65.4954 34.7102 65.3693C34.3169 65.2038 33.9488 64.9756 33.6338 64.6982C31.705 63.6852 25.2957 55.3048 24.9689 53.0074C24.9358 52.9343 24.9047 52.8597 24.8753 52.7838C24.7701 52.5108 24.6941 52.2204 24.6487 51.9225C24.641 51.8721 24.6345 51.8215 24.6287 51.7708C24.5905 51.4407 24.5897 51.1033 24.6296 50.7729C24.6296 49.0347 27.0235 39.4119 28.0331 38.1838C28.171 37.8467 28.3666 37.533 28.6059 37.2584C28.8045 37.0309 29.0333 36.8303 29.2855 36.6665C30.4318 35.5409 40.8813 31.1634 40.8813 31.1634C40.8813 31.1634 41.453 31.0268 41.744 31.0166C42.0777 31.0178 42.8412 31.1695 42.8412 31.1695C42.8412 31.1695 47.6308 32.9109 50.6103 34.4606L55.6924 28.9705C51.0859 26.3234 48.3975 25.1124 43.5295 23.1989C42.9233 22.9606 42.1513 22.9186 41.6533 22.9174C41.1733 22.9809 40.8805 23.0818 40.388 23.1989C33.0469 24.9448 23.7699 30.8873 23.0058 31.6379C22.6084 31.8603 22.2553 32.154 21.9599 32.499C21.6035 32.9153 21.3317 33.4064 21.1709 33.9401C20.4981 34.759 16.522 51.883 16.522 53.042C16.4422 53.501 16.4375 53.975 16.502 54.4364C16.512 54.5074 16.5229 54.5781 16.5361 54.6485C16.6138 55.0639 16.7485 55.4661 16.9365 55.8348C16.9887 55.9373 17.0447 56.0371 17.1037 56.1345C17.3213 57.6661 28.2748 71.8447 29.5607 72.5209C29.9663 72.9567 30.4722 73.3039 31.0242 73.5366C31.4445 73.7137 31.8915 73.8249 32.3418 73.8566H32.3429C32.794 74.0118 38.6631 74.0945 39.1643 74.0945C40.1763 74.0945 51.7932 73.7493 52.5479 73.17H52.55C53.0064 73.1073 53.4586 72.9586 53.8798 72.7382C54.3881 72.4724 54.851 72.1026 55.2199 71.6507C55.8793 70.9687 65.5346 58.2416 65.689 57.2456C65.6954 57.204 65.8947 56.9134 66.0991 56.6157C66.3153 56.3006 66.537 55.9775 66.5415 55.9328C66.7152 55.664 66.8546 55.3682 66.9571 55.0578C67.0058 54.9091 67.0465 54.7574 67.0777 54.6033C67.1846 54.0908 67.1965 53.5542 67.1008 53.0384C67.1014 52.0571 64.0807 38.8782 62.8935 35.0256L69.4392 30.0085C70.2668 32.8365 75.2096 54.7744 75.2096 55.3036C75.3533 55.9914 75.3383 56.7113 75.1827 57.3955C75.1365 57.6003 75.0771 57.8014 75.0058 57.9981C74.8546 58.4116 74.6508 58.8028 74.3952 59.1545C74.393 59.1765 74.0731 59.6065 73.7582 60.0299L73.7572 60.0313C73.4528 60.4405 73.1533 60.8432 73.1502 60.8645C73.0727 61.3623 59.0475 79.5619 58.7178 79.9027C58.2505 80.491 57.6457 80.9603 56.9764 81.2771C56.4218 81.5396 55.8228 81.698 55.2195 81.7297H55.2166C54.8394 82.0193 38.3483 82.1945 37.8423 82.1945C37.5915 82.1945 29.2704 82.1544 29.0448 82.0768H29.0431C28.46 82.0607 27.8805 81.9294 27.3396 81.7012C26.6289 81.4013 25.9848 80.9351 25.4885 80.3397C24.8456 80.0016 9.34815 60.0246 9.23934 59.2592C9.15403 59.1376 9.07365 59.0122 8.99828 58.8829C8.72753 58.4187 8.53453 57.9051 8.42428 57.3721C8.40547 57.282 8.38997 57.191 8.37615 57.0999C8.28584 56.5068 8.29609 55.8967 8.41547 55.309C8.41547 54.7295 13.973 30.1043 14.3098 29.6947C14.4931 28.9638 14.8415 28.2955 15.3149 27.7375C15.7071 27.2751 16.1846 26.8886 16.7272 26.6073C17.1093 26.232 39.334 15.26 39.896 15.2327C40.4225 14.9885 40.9959 14.8465 41.5752 14.8156C41.579 14.8154 41.5828 14.8149 41.5865 14.8145C41.5903 14.814 41.594 14.8136 41.5978 14.8134C41.6643 14.8104 41.8242 14.8082 41.8295 14.8082C42.4915 14.8095 43.1535 14.9557 43.7536 15.2349C44.1313 15.2593 54.0408 20.0993 60.7831 23.4712L65.8758 17.9697L44.2094 7.26854C44.0235 7.17629 43.8319 7.09528 43.6368 7.0252C43.3442 6.92027 43.0417 6.84954 42.7361 6.79589C42.4305 6.74216 42.1565 6.71506 41.6562 6.73193C40.7521 6.76243 39.8928 7.02552 39.4027 7.26822L10.4475 21.5788C10.2756 21.6638 10.1087 21.7575 9.94797 21.8595C9.46553 22.165 9.03553 22.5437 8.6689 22.9784C8.52134 23.1534 8.38409 23.3373 8.25797 23.5297C7.8799 24.1061 7.60215 24.756 7.44753 25.4517L0.307899 57.5784C0.148634 58.2946 0.132794 59.0413 0.249529 59.766C0.267421 59.8772 0.287661 59.9884 0.311712 60.0983C0.454552 60.7487 0.705912 61.3745 1.05964 61.9338C1.1579 62.0896 1.2629 62.2402 1.37436 62.3857L21.416 88.1617C22.0029 88.9156 22.7848 89.5019 23.6542 89.8685C23.985 90.0075 24.3285 90.1155 24.6787 90.1885C25.0289 90.2616 25.3858 90.2991 25.7437 90.2991L57.8877 90.2913C58.6377 90.2913 59.3836 90.1239 60.0717 89.8194C60.6947 89.5433 61.2704 89.1548 61.7576 88.6712C61.9201 88.5102 62.0726 88.3389 62.214 88.1572L82.2471 62.3779C82.4165 62.1613 82.5683 61.9305 82.7027 61.69C82.8371 61.4495 82.954 61.1987 83.0533 60.9401C83.1471 60.697 83.2246 60.4455 83.2852 60.1908C83.3877 59.7628 83.444 59.3232 83.4502 58.8823C83.4565 58.442 83.4127 58.0013 83.3171 57.5714L76.1633 25.4259C76.1627 25.4229 76.1618 25.4199 76.1609 25.417C76.1599 25.414 76.159 25.4109 76.1583 25.4077C76.1236 25.2535 76.0828 25.1016 76.036 24.9523L78.6076 22.9812C78.8649 22.784 79.1978 22.7262 79.5032 22.8256L87.634 25.4723C87.9858 25.5723 88.4696 25.6379 88.7477 25.4249L92.5196 22.4865C92.7773 22.2891 92.7436 21.9779 92.4791 21.8015C92.4361 21.7728 92.3875 21.7543 92.3387 21.7384L85.7114 19.581C84.9321 19.3273 84.7598 18.2663 85.4163 17.7632L86.0514 17.2764C86.3086 17.0792 86.6415 17.0214 86.9469 17.1208L95.1115 19.7787C95.3414 19.8685 95.9477 19.9443 96.2258 19.7314L99.9971 16.793C100.254 16.5951 100.221 16.2842 99.957 16.1076Z" fill="#0A00D8"/>
</svg>
