<svg width="101" height="101" viewBox="0 0 101 101" fill="none" xmlns="http://www.w3.org/2000/svg">
<path d="M36.2244 22.1568C36.2244 21.2552 36.9553 19.8954 37.857 19.8954H49.9943C50.673 19.8954 51.8833 20.9442 52.1236 21.579L66.8642 60.2318C67.1743 61.0513 67.4737 62.7377 68.3049 62.4606L74.2872 60.2391C75.6631 59.8439 76.0785 61.0517 76.3572 61.9156L77.9399 66.8221C78.9764 69.2778 78.0728 70.2212 76.827 70.782L63.6493 75.7347C62.4101 76.1961 62.1089 75.2527 61.0823 72.2328L52.3993 49.6411C51.9187 48.3907 50.8221 48.2194 50.1015 49.3487L35.9018 70.6603C35.602 71.1303 34.3981 73.3016 32.7183 73.3016H26.2313C24.4583 73.3016 23.5593 71.2489 24.2526 70.1621L45.4435 37.5733C45.728 37.1275 46.7691 36.259 46.1451 34.6866C45.7703 33.7424 45.7095 33.3411 44.7112 30.7152C44.47 30.0805 43.8615 29.6585 43.1825 29.6585H37.857C36.9553 29.6585 36.2244 28.9276 36.2244 28.026V22.1568Z" fill="#0A00D8"/>
<path fill-rule="evenodd" clip-rule="evenodd" d="M100.362 50.7244C100.362 78.3386 77.9762 100.724 50.3619 100.724C22.7477 100.724 0.361938 78.3386 0.361938 50.7244C0.361938 23.1101 22.7477 0.724365 50.3619 0.724365C77.9762 0.724365 100.362 23.1101 100.362 50.7244ZM88.3138 50.7244C88.3138 71.6846 71.3221 88.6762 50.3619 88.6762C29.4017 88.6762 12.4101 71.6846 12.4101 50.7244C12.4101 29.7642 29.4017 12.7726 50.3619 12.7726C71.3221 12.7726 88.3138 29.7642 88.3138 50.7244Z" fill="#0A00D8"/>
</svg>
