<svg width="168" height="167" viewBox="0 0 168 167" fill="none" xmlns="http://www.w3.org/2000/svg">
<path d="M167.66 84.1699C167.66 102.481 161.789 119.422 151.827 133.211C151.378 132.817 150.923 132.4 150.465 131.96C145.69 127.366 140.818 120.435 139.651 110.511C139.019 105.145 138.504 99.7212 137.987 94.2358L137.935 93.6764C137.439 88.4109 136.937 83.08 136.335 77.8793C135.097 67.183 133.377 56.4246 130.093 46.8657C126.788 37.2437 121.686 28.2061 113.282 21.639C104.778 14.9939 93.891 11.6556 80.5004 11.6556C63.5909 11.6556 50.8253 17.0023 41.7808 26.2334C32.999 35.1964 28.6592 46.8743 26.4532 57.9466C24.2381 69.0649 24.0045 80.4633 24.1153 89.6637C24.1462 92.2315 24.213 94.9721 24.2724 97.4055C24.3128 99.0647 24.3498 100.581 24.3695 101.802C24.4274 105.386 24.362 107.406 24.2106 108.394C24.0296 109.575 22.9551 112.465 20.408 117.08C18.3652 120.782 15.7712 124.904 13.0013 129.032C4.76794 116.06 0 100.672 0 84.1699C0 37.8718 37.532 0.339844 83.8301 0.339844C130.128 0.339844 167.66 37.8718 167.66 84.1699Z" fill="#0A00D8"/>
<path fill-rule="evenodd" clip-rule="evenodd" d="M130.026 111.643C131.688 125.78 139.283 135.174 145.705 140.731C133.433 154.148 116.855 163.56 98.158 166.78C98.1682 166.733 98.1781 166.685 98.1878 166.637C98.1938 166.607 98.1997 166.577 98.2055 166.546C100.215 156.123 87.222 138.435 70.7566 135.26C52.2212 131.686 35.9252 140.522 32.1325 150.166C27.3193 146.39 22.9294 142.099 19.046 137.376C24.9864 128.754 30.9 119.241 33.0523 112.773C32.9249 112.667 32.7988 112.56 32.6741 112.453C31.1301 111.134 29.7534 109.814 28.6462 108.543C27.5715 107.309 26.601 105.953 26.0611 104.555L25.3801 102.793L26.5825 101.335C28.2089 99.3638 30.8519 97.2106 33.9103 95.1388L33.9116 95.1379C33.2796 68.6119 33.188 21.347 80.5004 21.347C121.387 21.347 124.7 56.511 128.29 94.6241L128.29 94.6252C128.821 100.268 129.359 105.975 130.026 111.643ZM69.1976 76.3209C69.136 78.5157 69.4349 80.113 69.5431 80.9907C72.0054 81.0915 75.3957 82.6107 78.4124 83.4639C78.4439 82.8882 78.4943 82.2639 78.5492 81.5845C78.6743 80.036 78.8224 78.2013 78.8224 76.0045C78.8224 70.7023 81.395 64.6256 84.2496 64.6256C87.1042 64.6256 89.1598 67.0484 89.1598 76.0045C89.1598 80.5159 89.1598 84.4317 88.5322 87.0459C90.5126 87.8685 92.4774 88.7498 94.3646 89.658C95.957 90.4243 97.5088 91.2167 98.9796 92.0168C102.439 73.7373 96.0154 51.1748 86.6031 50.7529C72.8444 50.1363 69.5431 64 69.1976 76.3209ZM43.8905 88.1727C45.0075 87.5363 46.3219 86.8288 47.7938 86.1088C47.5225 84.5259 47.272 82.1157 47.0034 78.5164C47.0034 72.0209 48.2977 64.6255 51.6876 64.6255C55.0774 64.6255 57.1402 69.9699 58.1485 76.3867C58.2863 77.2641 58.4504 78.0887 58.6043 78.8624C58.824 79.9671 59.0231 80.9681 59.096 81.8712C60.4912 81.5149 61.9272 81.2142 63.3898 80.9907C63.3222 80.5089 63.2451 79.9825 63.158 79.4189C62.7122 76.5357 62.0105 72.7255 60.9849 68.9439C59.9469 65.117 58.633 61.5333 57.0444 58.9757C55.3895 56.3111 53.979 55.5803 52.9442 55.5803C49.8891 55.5803 47.8625 56.8671 46.3467 59.0989C44.7138 61.503 43.6754 65.0505 43.1844 69.2972C42.4448 75.6931 43.0302 82.8869 43.8905 88.1727ZM42.4366 111.788C48.0847 112.993 54.1609 113.565 60.0821 113.647C71.9662 113.812 83.9555 112.013 91.6927 108.797C93.3401 108.112 94.1204 106.221 93.4355 104.574C92.7506 102.926 90.8599 102.146 89.2125 102.831C82.5742 105.591 71.5468 107.345 60.1718 107.187C50.6674 107.055 41.4246 105.593 34.5973 102.627C35.4461 101.955 36.4279 101.237 37.5339 100.488C40.3677 98.5682 43.837 96.5639 47.5696 94.7465C55.1494 91.0558 63.335 88.3693 69.2935 88.3693C71.5579 88.3693 75.0058 89.0965 79.1056 90.4274C83.1301 91.7338 87.5193 93.5339 91.563 95.4799C95.6219 97.4331 99.2283 99.4831 101.726 101.262C102.989 102.162 103.847 102.908 104.334 103.455L104.357 103.481C104.221 103.807 104.003 104.241 103.661 104.785C103.058 105.743 102.185 106.866 101.054 108.098C98.7923 110.56 95.6631 113.279 92.063 115.779C84.7098 120.885 76.1528 124.557 69.5284 124.074C66.9381 123.885 63.4207 122.874 59.4072 121.198C55.4459 119.543 51.2098 117.329 47.2433 114.911C45.5676 113.89 43.9523 112.839 42.4366 111.788Z" fill="#0A00D8"/>
</svg>
