<svg width="101" height="101" viewBox="0 0 101 101" fill="none" xmlns="http://www.w3.org/2000/svg">
<path fill-rule="evenodd" clip-rule="evenodd" d="M100.644 100.633C100.644 89.6842 89.4617 90.8679 84.9646 62.2371C84.4895 58.3759 84.1063 54.4875 83.7275 50.6431L83.7274 50.6424C81.1685 24.6759 78.8075 0.718628 49.6642 0.718628C15.9409 0.718628 16.0062 32.9202 16.4566 50.9924L16.4557 50.993C14.2757 52.4046 12.3918 53.8715 11.2326 55.2146L10.3755 56.2076L10.8609 57.4084C11.2458 58.3605 11.9375 59.2848 12.7035 60.1255C13.4928 60.9916 14.474 61.8905 15.5746 62.7893C15.6635 62.8619 15.7533 62.9347 15.8441 63.0076C16.4566 76.9315 2.19227 87.0209 0.644287 100.633H13.6474C16.3508 94.063 19.0385 76.3676 42.719 78.3279C56.4467 79.4643 63.6827 93.5318 62.2501 100.633C62.246 100.69 62.2162 100.793 62.2501 100.633H100.644ZM41.6077 38.1724C41.5639 39.6677 41.7769 40.7559 41.854 41.3539C43.6091 41.4226 46.0256 42.4576 48.1759 43.0389C48.1984 42.6467 48.2343 42.2213 48.2734 41.7585C48.3625 40.7035 48.4681 39.4535 48.4681 37.9568C48.4681 34.3444 50.3018 30.2044 52.3365 30.2044C54.3712 30.2044 55.8364 31.855 55.8364 37.9568C55.8364 41.0305 55.8364 43.6983 55.3891 45.4793C56.8006 46.0398 58.2011 46.6402 59.5463 47.259C60.6813 47.781 61.7874 48.3209 62.8357 48.866C65.3016 36.4122 60.7229 21.0403 54.0141 20.7529C44.2071 20.3328 41.854 29.7782 41.6077 38.1724ZM23.5694 46.247C24.3655 45.8135 25.9216 44.7396 26.9708 44.2491C26.7774 43.1706 26.5989 42.1204 26.4074 39.6682C26.4074 35.2428 26.7108 31.388 29.127 31.388C31.5432 31.388 32.3943 33.8455 33.113 38.2172C33.2112 38.815 33.3281 39.3768 33.4378 39.9039C33.5945 40.6566 33.7364 41.3385 33.7884 41.9538C34.7828 41.711 36.4255 41.5062 37.4681 41.3539C37.4199 41.0257 37.365 40.667 37.3029 40.2831C36.9851 38.3187 36.485 35.7228 35.7539 33.1465C35.014 30.5392 34.0775 28.0976 32.9452 26.3551C31.7657 24.5397 30.7603 24.0418 30.0226 24.0418C27.8451 24.0418 26.4005 24.9185 25.3201 26.439C24.1562 28.077 23.416 30.4939 23.0661 33.3871C22.5389 37.7447 22.9562 42.6458 23.5694 46.247ZM22.5331 62.3364C26.5589 63.1574 30.8899 63.5469 35.1104 63.6029C43.5811 63.7154 52.1269 62.4897 57.6418 60.2983C58.816 59.8316 59.3722 58.5435 58.884 57.4211C58.3959 56.2987 57.0482 55.7671 55.874 56.2337C51.1423 58.1139 43.2822 59.3092 35.1744 59.2015C28.3998 59.1116 21.8117 58.1156 16.9454 56.0945C17.5504 55.637 18.2502 55.1478 19.0385 54.6374C21.0584 53.3295 23.5313 51.964 26.1918 50.7258C31.5945 48.2113 37.429 46.381 41.6761 46.381C43.2901 46.381 45.7477 46.8764 48.67 47.7831C51.5385 48.6732 54.6671 49.8996 57.5494 51.2254C60.4425 52.5561 63.013 53.9528 64.7931 55.1649C65.6937 55.7781 66.305 56.2859 66.6523 56.659L66.6685 56.6766C66.572 56.899 66.4162 57.1945 66.1724 57.565C65.7428 58.2179 65.1205 58.983 64.314 59.8222C62.7022 61.4996 60.4718 63.3522 57.9057 65.0553C52.6645 68.534 46.5653 71.0359 41.8436 70.7068C39.9972 70.5781 37.4901 69.8894 34.6294 68.7472C31.8059 67.6199 28.7864 66.1113 25.9592 64.4639C24.7648 63.768 23.6135 63.0524 22.5331 62.3364Z" fill="#0A00D8"/>
</svg>
