<svg width="88" height="100" viewBox="0 0 88 100" fill="none" xmlns="http://www.w3.org/2000/svg">
<path d="M51 66C51 68.3858 49.8065 70.4928 47.9839 71.7565L47.9886 72.2549C48.0397 77.5693 48.092 83 44 83C39.908 83 39.9603 77.5693 40.0114 72.2549L40.0161 71.7565C38.1935 70.4928 37 68.3858 37 66C37 62.134 40.134 59 44 59C47.866 59 51 62.134 51 66Z" fill="#0A00D8"/>
<path fill-rule="evenodd" clip-rule="evenodd" d="M18.5407 13.1912C23.2341 5.54309 31.3016 0 43.5903 0C55.8518 0 64.0691 5.51035 68.9664 13.0595C73.0336 19.3289 73.8351 34.9525 73.9736 43H83C85.7614 43 88 45.058 88 47.5968V95.4032C88 97.942 85.7614 100 83 100H5C2.23858 100 0 97.942 0 95.4032V47.5968C0 45.058 2.23858 43 5 43H61.9832C61.9036 36.3214 61.4563 23.7382 58.9926 19.9405C56.3079 15.8022 51.8204 12.375 43.5903 12.375C35.3873 12.375 31.1596 15.7694 28.6808 19.8088C26.8297 22.8253 26.2562 28.2957 26.079 33.0375C26.0382 34.1269 25.1518 35 24.0616 35H16.0851C14.9625 35 14.0574 34.0771 14.1038 32.9554C14.3668 26.5964 15.2929 18.4837 18.5407 13.1912ZM12 57.0323C12 55.3754 13.3431 54.0323 15 54.0323H73C74.6569 54.0323 76 55.3754 76 57.0323V85.9677C76 87.6246 74.6569 88.9677 73 88.9677H15C13.3431 88.9677 12 87.6246 12 85.9677V57.0323Z" fill="#0A00D8"/>
</svg>
