<svg width="101" height="101" viewBox="0 0 101 101" fill="none" xmlns="http://www.w3.org/2000/svg">
<path d="M22.1479 24.8055C21.9525 25.0183 21.6761 25.142 21.3849 25.142H8.67655C7.89991 25.142 7.41429 24.3184 7.82093 23.6659C16.7549 9.33163 33.4384 0.329834 52.1893 0.329834C65.969 0.329834 78.6894 4.60509 87.9658 13.8741C90.8375 16.7434 93.3132 20.0253 95.3633 23.702C95.7278 24.3558 95.2393 25.142 94.4827 25.142H82.3057C81.9914 25.142 81.6956 24.9978 81.4996 24.7555C80.7971 23.887 80.0619 23.0716 79.2975 22.3079C72.7693 15.7849 63.43 12.3372 52.1893 12.3372C39.9108 12.3372 29.2259 17.0996 22.1479 24.8055Z" fill="#0A00D8"/>
<path d="M12.1014 70.6604C12.6619 70.6604 13.1163 71.1084 13.1163 71.661V87.2907C13.1163 87.8433 13.5706 88.2913 14.1311 88.2913H52.2841L52.3789 88.2942C68.1287 88.778 77.2641 83.0134 82.6461 76.151C83.8833 74.5734 84.9427 72.9098 85.8427 71.2108C86.0206 70.8749 86.3708 70.6604 86.7551 70.6604H97.9068C98.6096 70.6604 99.0992 71.3475 98.8428 71.9926C97.2868 75.9063 95.1459 79.8416 92.2798 83.4961C84.4242 93.5125 71.5297 100.87 52.0964 100.299H1.95307C1.3926 100.299 0.938232 99.8507 0.938232 99.2981V71.661C0.938232 71.1084 1.3926 70.6604 1.95307 70.6604H12.1014Z" fill="#0A00D8"/>
<path d="M10.0861 55.9031H27.9666V64.3848H1.00092V31.2212H10.0861V55.9031Z" fill="#0A00D8"/>
<path fill-rule="evenodd" clip-rule="evenodd" d="M33.8623 31.2212V64.3848H63.7276V31.2212H33.8623ZM42.9476 55.9031V39.7026H54.6423V55.9031H42.9476Z" fill="#0A00D8"/>
<path d="M80.1582 39.7026V55.9031H91.8529V51.71H84.1211V43.7051H100.938V64.3848H71.0729V31.2212H100.938V39.6073L80.1582 39.7026Z" fill="#0A00D8"/>
</svg>
