<svg width="101" height="101" viewBox="0 0 101 101" fill="none" xmlns="http://www.w3.org/2000/svg">
<mask id="path-1-inside-1_224_766" fill="white">
<path d="M83.7811 17.3817C84.9577 16.2054 84.9634 14.2907 83.7181 13.1873C77.0954 7.31951 69.0185 3.3009 60.304 1.56794C50.6025 -0.361324 40.5465 0.628841 31.4079 4.41322C22.2692 8.1976 14.4583 14.6062 8.96276 22.8287C3.46726 31.0511 0.534059 40.7181 0.534058 50.6072C0.534056 60.4962 3.46726 70.1632 8.96275 78.3857C14.4582 86.6081 22.2692 93.0167 31.4079 96.8011C40.5465 100.586 50.6025 101.576 60.304 99.6464C69.0185 97.9135 77.0954 93.8949 83.7181 88.027C84.9634 86.9237 84.9577 85.0089 83.7811 83.8327L80.0629 80.1154C78.8863 78.9392 76.9858 78.9492 75.7214 80.0306C70.6912 84.3322 64.6277 87.2845 58.1026 88.5821C50.59 90.0761 42.8028 89.3093 35.7261 86.3788C28.6493 83.4482 22.6006 78.4855 18.345 72.1182C14.0895 65.751 11.818 58.265 11.818 50.6072C11.818 42.9493 14.0895 35.4634 18.345 29.0961C22.6006 22.7288 28.6493 17.7661 35.7261 14.8356C42.8029 11.905 50.59 11.1383 58.1026 12.6322C64.6277 13.9298 70.6912 16.8822 75.7214 21.1838C76.9858 22.2651 78.8863 22.2752 80.0629 21.0989L83.7811 17.3817Z"/>
<path d="M76.3736 26.7862L67.9282 35.2278L77.0802 44.3756L25.2651 44.2571V56.1953L77.0802 56.3138L67.5347 65.855L75.98 74.2966L100.534 50.9356L76.3736 26.7862Z"/>
</mask>
<path d="M60.304 1.56794L62.6178 -10.067L60.304 1.56794ZM60.304 99.6464L62.6177 111.281L60.304 99.6464ZM58.1026 88.5821L60.4164 100.217L58.1026 88.5821ZM58.1026 12.6322L60.4164 0.997337L58.1026 12.6322ZM75.7214 21.1838L83.4312 12.1681V12.1681L75.7214 21.1838ZM80.0629 21.0989L88.45 29.4882L88.45 29.4882L80.0629 21.0989ZM80.0629 80.1154L88.45 71.7261L88.45 71.7261L80.0629 80.1154ZM75.7214 80.0306L68.0115 71.0149L75.7214 80.0306ZM83.7181 88.027L75.8512 79.1481L83.7181 88.027ZM83.7811 83.8327L75.394 92.222L75.394 92.222L83.7811 83.8327ZM83.7181 13.1873L75.8512 22.0663L83.7181 13.1873ZM83.7811 17.3817L75.394 8.9924V8.9924L83.7811 17.3817ZM67.9282 35.2278L59.5419 26.8377C57.3161 29.0625 56.0655 32.0807 56.0655 35.2278C56.0655 38.3749 57.3161 41.393 59.5419 43.6179L67.9282 35.2278ZM76.3736 26.7862L84.76 18.3961C80.1277 13.7659 72.6196 13.7659 67.9873 18.3961L76.3736 26.7862ZM25.2651 56.1953H13.4023C13.4023 62.7363 18.6969 68.043 25.2379 68.058L25.2651 56.1953ZM25.2651 44.2571L25.2922 32.3944C22.1413 32.3872 19.117 33.6338 16.8865 35.8593C14.6559 38.0847 13.4023 41.1062 13.4023 44.2571H25.2651ZM75.98 74.2966L67.5937 82.6867C72.1453 87.2363 79.4944 87.327 84.1569 82.891L75.98 74.2966ZM67.5347 65.855L59.1484 57.4649C56.9225 59.6897 55.6719 62.7079 55.6719 65.855C55.6719 69.0021 56.9225 72.0203 59.1483 74.2451L67.5347 65.855ZM100.534 50.9356L108.711 59.5301C111.028 57.3258 112.356 54.2796 112.396 51.082C112.435 47.8843 111.182 44.8063 108.92 42.5455L100.534 50.9356ZM77.0802 44.3756L77.0531 56.2383C81.8565 56.2493 86.1925 53.3625 88.0353 48.9266C89.878 44.4907 88.8639 39.3813 85.4665 35.9855L77.0802 44.3756ZM77.0802 56.3138L85.4665 64.704C88.8568 61.3152 89.8745 56.219 88.0456 51.788C86.2168 47.357 81.9009 44.4621 77.1073 44.4512L77.0802 56.3138ZM91.5851 4.30836C83.3913 -2.95142 73.3988 -7.92304 62.6178 -10.067L57.9903 13.2028C64.6382 14.5248 70.7996 17.5905 75.8512 22.0663L91.5851 4.30836ZM62.6178 -10.067C50.6157 -12.4537 38.1751 -11.2288 26.8692 -6.54692L35.9465 15.3734C42.918 12.4865 50.5893 11.7311 57.9903 13.2028L62.6178 -10.067ZM26.8692 -6.54692C15.5633 -1.86506 5.89941 6.0636 -0.899946 16.2369L18.8255 29.4204C23.0171 23.1488 28.9751 18.2603 35.9465 15.3734L26.8692 -6.54692ZM-0.899946 16.2369C-7.69933 26.4103 -11.3287 38.3712 -11.3287 50.6072L12.3968 50.6072C12.3968 43.065 14.6339 35.692 18.8255 29.4204L-0.899946 16.2369ZM-11.3287 50.6072C-11.3287 62.8431 -7.69933 74.8041 -0.899958 84.9774L18.8255 71.7939C14.6338 65.5224 12.3968 58.1493 12.3968 50.6072L-11.3287 50.6072ZM-0.899958 84.9774C5.89939 95.1507 15.5632 103.079 26.8692 107.761L35.9465 85.841C28.9751 82.9541 23.0171 78.0655 18.8255 71.7939L-0.899958 84.9774ZM26.8692 107.761C38.1751 112.443 50.6157 113.668 62.6177 111.281L57.9903 88.0115C50.5893 89.4833 42.9179 88.7279 35.9465 85.841L26.8692 107.761ZM62.6177 111.281C73.3988 109.137 83.3913 104.166 91.585 96.906L75.8512 79.1481C70.7996 83.6239 64.6382 86.6895 57.9903 88.0115L62.6177 111.281ZM92.1682 75.4434L88.45 71.7261L71.6758 88.5047L75.394 92.222L92.1682 75.4434ZM68.0115 71.0149C64.5222 73.9988 60.3157 76.047 55.7889 76.9472L60.4164 100.217C68.9396 98.5221 76.8601 94.6656 83.4312 89.0462L68.0115 71.0149ZM55.7889 76.9472C50.5768 77.9837 45.1743 77.4517 40.2647 75.4186L31.1874 97.3389C40.4314 101.167 50.6031 102.168 60.4164 100.217L55.7889 76.9472ZM40.2647 75.4186C35.3552 73.3856 31.1595 69.9429 28.2078 65.5265L8.48234 78.71C14.0418 87.0282 21.9433 93.5109 31.1874 97.3389L40.2647 75.4186ZM28.2078 65.5265C25.256 61.1101 23.6808 55.9181 23.6808 50.6072L-0.0446847 50.6072C-0.0446866 60.612 2.92287 70.3918 8.48234 78.71L28.2078 65.5265ZM23.6808 50.6072C23.6808 45.2962 25.256 40.1043 28.2078 35.6879L8.48234 22.5043C2.92287 30.8225 -0.0446829 40.6024 -0.0446847 50.6072L23.6808 50.6072ZM28.2078 35.6879C31.1595 31.2714 35.3552 27.8288 40.2647 25.7957L31.1874 3.87542C21.9433 7.70344 14.0418 14.1862 8.48234 22.5043L28.2078 35.6879ZM40.2647 25.7957C45.1743 23.7626 50.5768 23.2306 55.7889 24.2671L60.4164 0.997337C50.6032 -0.954129 40.4314 0.0474036 31.1874 3.87542L40.2647 25.7957ZM55.7889 24.2671C60.3158 25.1673 64.5222 27.2156 68.0115 30.1995L83.4312 12.1681C76.8601 6.54879 68.9396 2.69228 60.4164 0.997337L55.7889 24.2671ZM88.45 29.4882L92.1682 25.771L75.394 8.9924L71.6758 12.7096L88.45 29.4882ZM68.0115 30.1995C73.5355 34.9234 82.4898 35.4469 88.45 29.4882L71.6758 12.7096C75.2829 9.10348 80.4361 9.60684 83.4312 12.1681L68.0115 30.1995ZM88.45 71.7261C82.4898 65.7674 73.5355 66.291 68.0115 71.0149L83.4312 89.0462C80.4361 91.6075 75.2828 92.1109 71.6758 88.5047L88.45 71.7261ZM91.585 96.906C98.3 90.9564 97.8356 81.1093 92.1682 75.4434L75.394 92.222C72.0798 88.9086 71.6268 82.891 75.8512 79.1481L91.585 96.906ZM75.8512 22.0663C71.6267 18.3233 72.0798 12.3057 75.394 8.9924L92.1682 25.771C97.8355 20.1051 98.3001 10.258 91.5851 4.30836L75.8512 22.0663ZM76.3146 43.6179L84.76 35.1763L67.9873 18.3961L59.5419 26.8377L76.3146 43.6179ZM37.1278 56.1953V44.2571H13.4023V56.1953H37.1278ZM84.3664 65.9066L75.921 57.4649L59.1483 74.2451L67.5937 82.6867L84.3664 65.9066ZM67.9873 35.1763L92.1478 59.3258L108.92 42.5455L84.76 18.3961L67.9873 35.1763ZM85.4665 35.9855L76.3145 26.8377L59.5419 43.6179L68.6939 52.7657L85.4665 35.9855ZM25.2379 56.1198L77.0531 56.2383L77.1074 32.5129L25.2922 32.3944L25.2379 56.1198ZM77.1073 44.4512L25.2922 44.3326L25.2379 68.058L77.053 68.1765L77.1073 44.4512ZM75.921 74.2451L85.4665 64.704L68.6939 47.9237L59.1484 57.4649L75.921 74.2451ZM84.1569 82.891L108.711 59.5301L92.3572 42.3412L67.8032 65.7022L84.1569 82.891Z" fill="#0A00D8" mask="url(#path-1-inside-1_224_766)"/>
</svg>
