<svg width="101" height="101" viewBox="0 0 101 101" fill="none" xmlns="http://www.w3.org/2000/svg">
<path d="M9.06166 100.197H17.0135C21.8044 100.197 25.6882 96.3137 25.6882 91.5228V83.571C25.6882 78.7801 21.8044 74.8963 17.0135 74.8963H9.06166C4.27076 74.8963 0.386963 78.7801 0.386963 83.571V91.5228C0.386963 96.3137 4.27076 100.197 9.06166 100.197Z" fill="#0A00D8"/>
<path d="M9.06166 62.8481H17.0135C21.8044 62.8481 25.6882 58.9643 25.6882 54.1734V46.2216C25.6882 41.4307 21.8044 37.5469 17.0135 37.5469H9.06166C4.27076 37.5469 0.386963 41.4307 0.386963 46.2216V54.1734C0.386963 58.9643 4.27076 62.8481 9.06166 62.8481Z" fill="#0A00D8"/>
<path d="M9.06166 25.4987H17.0135C21.8044 25.4987 25.6882 21.6149 25.6882 16.824V8.87217C25.6882 4.08127 21.8044 0.197464 17.0135 0.197464H9.06166C4.27076 0.197464 0.386963 4.08127 0.386963 8.87217V16.824C0.386963 21.6149 4.27076 25.4987 9.06166 25.4987Z" fill="#0A00D8"/>
<path d="M46.4111 100.197H54.3629C59.1538 100.197 63.0376 96.3137 63.0376 91.5228V83.571C63.0376 78.7801 59.1538 74.8963 54.3629 74.8963H46.4111C41.6202 74.8963 37.7364 78.7801 37.7364 83.571V91.5228C37.7364 96.3137 41.6202 100.197 46.4111 100.197Z" fill="#0A00D8"/>
<path d="M46.4111 62.8481H54.3629C59.1538 62.8481 63.0376 58.9643 63.0376 54.1734V46.2216C63.0376 41.4307 59.1538 37.5469 54.3629 37.5469H46.4111C41.6202 37.5469 37.7364 41.4307 37.7364 46.2216V54.1734C37.7364 58.9643 41.6202 62.8481 46.4111 62.8481Z" fill="#0A00D8"/>
<path d="M46.4111 25.4987H54.3629C59.1538 25.4987 63.0376 21.6149 63.0376 16.824V8.87217C63.0376 4.08127 59.1538 0.197464 54.3629 0.197464H46.4111C41.6202 0.197464 37.7364 4.08127 37.7364 8.87217V16.824C37.7364 21.6149 41.6202 25.4987 46.4111 25.4987Z" fill="#0A00D8"/>
<path d="M83.7605 100.197H91.7123C96.5032 100.197 100.387 96.3137 100.387 91.5228V83.571C100.387 78.7801 96.5032 74.8963 91.7123 74.8963H83.7605C78.9696 74.8963 75.0858 78.7801 75.0858 83.571V91.5228C75.0858 96.3137 78.9696 100.197 83.7605 100.197Z" fill="#0A00D8"/>
<path d="M83.7605 62.8481H91.7123C96.5032 62.8481 100.387 58.9643 100.387 54.1734V46.2216C100.387 41.4307 96.5032 37.5469 91.7123 37.5469H83.7605C78.9696 37.5469 75.0858 41.4307 75.0858 46.2216V54.1734C75.0858 58.9643 78.9696 62.8481 83.7605 62.8481Z" fill="#0A00D8"/>
<path d="M83.7605 25.4987H91.7123C96.5032 25.4987 100.387 21.6149 100.387 16.824V8.87217C100.387 4.08127 96.5032 0.197464 91.7123 0.197464H83.7605C78.9696 0.197464 75.0858 4.08127 75.0858 8.87217V16.824C75.0858 21.6149 78.9696 25.4987 83.7605 25.4987Z" fill="#0A00D8"/>
</svg>
