<svg width="101" height="100" viewBox="0 0 101 100" fill="none" xmlns="http://www.w3.org/2000/svg">
<path d="M2 69.5C1.44772 69.5 1 69.9477 1 70.5V72.5C1 76.9183 4.58173 80.5 9 80.5H92.5C96.9183 80.5 100.5 76.9183 100.5 72.5V70.5C100.5 69.9477 100.052 69.5 99.5 69.5H2Z" fill="#0A00D8"/>
<path d="M99.5 28.5C100.052 28.5 100.5 28.0523 100.5 27.5V25.5C100.5 21.0817 96.9183 17.5 92.5 17.5H9C4.58172 17.5 1 21.0817 1 25.5V27.5C1 28.0523 1.44772 28.5 2 28.5H99.5Z" fill="#0A00D8"/>
<path fill-rule="evenodd" clip-rule="evenodd" d="M16 86C17.1046 86 18 86.8954 18 88V98C18 99.1046 17.1046 100 16 100H12C10.8954 100 10 99.1046 10 98V88C10 86.8954 10.8954 86 12 86H16Z" fill="#0A00D8"/>
<path fill-rule="evenodd" clip-rule="evenodd" d="M61 86C62.1046 86 63 86.8954 63 88V98C63 99.1046 62.1046 100 61 100H57C55.8954 100 55 99.1046 55 98V88C55 86.8954 55.8954 86 57 86H61Z" fill="#0A00D8"/>
<path fill-rule="evenodd" clip-rule="evenodd" d="M46 86C47.1046 86 48 86.8954 48 88V98C48 99.1046 47.1046 100 46 100H42C40.8954 100 40 99.1046 40 98V88C40 86.8954 40.8954 86 42 86H46Z" fill="#0A00D8"/>
<path fill-rule="evenodd" clip-rule="evenodd" d="M31 86C32.1046 86 33 86.8954 33 88V98C33 99.1046 32.1046 100 31 100H27C25.8954 100 25 99.1046 25 98V88C25 86.8954 25.8954 86 27 86H31Z" fill="#0A00D8"/>
<path fill-rule="evenodd" clip-rule="evenodd" d="M76 86C77.1046 86 78 86.8954 78 88V98C78 99.1046 77.1046 100 76 100H72C70.8954 100 70 99.1046 70 98V88C70 86.8954 70.8954 86 72 86H76Z" fill="#0A00D8"/>
<path fill-rule="evenodd" clip-rule="evenodd" d="M91 0C92.1046 0 93 0.89543 93 2V12C93 13.1046 92.1046 14 91 14H87C85.8954 14 85 13.1046 85 12V2C85 0.895431 85.8954 0 87 0H91Z" fill="#0A00D8"/>
<path fill-rule="evenodd" clip-rule="evenodd" d="M91 86C92.1046 86 93 86.8954 93 88V98C93 99.1046 92.1046 100 91 100H87C85.8954 100 85 99.1046 85 98V88C85 86.8954 85.8954 86 87 86H91Z" fill="#0A00D8"/>
<path fill-rule="evenodd" clip-rule="evenodd" d="M16 0C17.1046 0 18 0.89543 18 2V12C18 13.1046 17.1046 14 16 14H12C10.8954 14 10 13.1046 10 12V2C10 0.895431 10.8954 0 12 0H16Z" fill="#0A00D8"/>
<path fill-rule="evenodd" clip-rule="evenodd" d="M61 0C62.1046 0 63 0.89543 63 2V12C63 13.1046 62.1046 14 61 14H57C55.8954 14 55 13.1046 55 12V2C55 0.895431 55.8954 0 57 0H61Z" fill="#0A00D8"/>
<path fill-rule="evenodd" clip-rule="evenodd" d="M46 0C47.1046 0 48 0.89543 48 2V12C48 13.1046 47.1046 14 46 14H42C40.8954 14 40 13.1046 40 12V2C40 0.895431 40.8954 0 42 0H46Z" fill="#0A00D8"/>
<path fill-rule="evenodd" clip-rule="evenodd" d="M31 0C32.1046 0 33 0.89543 33 2V12C33 13.1046 32.1046 14 31 14H27C25.8954 14 25 13.1046 25 12V2C25 0.895431 25.8954 0 27 0H31Z" fill="#0A00D8"/>
<path fill-rule="evenodd" clip-rule="evenodd" d="M76 0C77.1046 0 78 0.89543 78 2V12C78 13.1046 77.1046 14 76 14H72C70.8954 14 70 13.1046 70 12V2C70 0.895431 70.8954 0 72 0H76Z" fill="#0A00D8"/>
<path fill-rule="evenodd" clip-rule="evenodd" d="M64.1968 32V40.4391H46.8262V44.3268H57.2487V52.7659H46.8262V56.6535H64.1968V65.0928H37.9999V32H64.1968Z" fill="#0A00D8"/>
<path d="M8.63077 65H0V32H8.63077L16.2462 42L24.3692 32H33V65H24.3692V44.5L16.2462 55L8.63077 44.5V65Z" fill="#0A00D8"/>
<path d="M76.5 65H68V32H76.5L84 42L92 32H100.5V65H92V44.5L84 55L76.5 44.5V65Z" fill="#0A00D8"/>
</svg>
