<svg width="87" height="101" viewBox="0 0 87 101" fill="none" xmlns="http://www.w3.org/2000/svg">
<path d="M14.5436 73.0407C15.4736 72.5038 16.6113 72.4709 17.5708 72.9531L43.3278 85.8995C44.2872 86.3817 45.4249 86.3488 46.3549 85.8119L71.5113 71.2879C72.5349 70.6969 73.8014 70.7204 74.8023 71.349L80.9134 75.1866C82.9484 76.4645 82.893 79.4485 80.812 80.6499L46.7741 100.302C45.8442 100.839 44.7064 100.872 43.747 100.389L8.09517 82.4695C5.82751 81.3297 5.73483 78.1264 7.9328 76.8574L14.5436 73.0407Z" fill="#0A00D8"/>
<path d="M24.1718 66.6968H32.5827V50.8104L24.1718 29.5711V66.6968Z" fill="#0A00D8"/>
<path d="M39.407 66.6968H47.8588L32.5827 29.5711V50.8104L39.407 66.6968Z" fill="#0A00D8"/>
<path d="M32.5827 29.5711H24.1718L32.5827 50.8104V29.5711Z" fill="#0A00D8"/>
<path d="M63.094 66.6968H54.6831V50.8104L63.094 29.5711V66.6968Z" fill="#0A00D8"/>
<path d="M47.8588 66.6968H39.407L54.6831 29.5711V50.8104L47.8588 66.6968Z" fill="#0A00D8"/>
<path d="M54.6831 29.5711H63.094L54.6831 50.8104V29.5711Z" fill="#0A00D8"/>
<path d="M36.9098 3.82604C36.9098 1.43493 34.2451 0.00856771 32.2554 1.33463L1.55332 21.7962C0.720182 22.3515 0.219727 23.2864 0.219727 24.2876V60.0858C0.219727 62.3415 2.61947 63.787 4.61343 62.7325L11.6553 59.0084C11.9878 58.8326 12.1958 58.4873 12.1958 58.1112V30.6982C12.1958 29.6969 12.6962 28.762 13.5294 28.2067L35.5762 13.5135C36.4094 12.9582 36.9098 12.0233 36.9098 11.0221L36.9098 3.82604Z" fill="#0A00D8"/>
<path d="M48.8859 10.8935C48.8859 11.9016 49.3931 12.8419 50.2355 13.3955L72.8491 28.258C73.6914 28.8116 74.1987 29.752 74.1987 30.76V58.0274C74.1987 59.1369 74.8122 60.1555 75.793 60.6741L81.781 63.8409C83.775 64.8954 86.1747 63.4498 86.1747 61.1942V24.3C86.1747 23.292 85.6675 22.3516 84.8251 21.798L53.5243 1.22599C51.5334 -0.0825099 48.8859 1.34558 48.8859 3.728L48.8859 10.8935Z" fill="#0A00D8"/>
</svg>
