<svg width="96" height="101" viewBox="0 0 96 101" fill="none" xmlns="http://www.w3.org/2000/svg">
<path d="M68.8273 97.3088L41.833 1.66351L52.9498 1.66352C57.4947 1.66352 61.9979 4.60657 63.3941 8.79339L63.4029 8.81888L94.3967 96.4206C94.7162 97.4018 93.9862 98.3918 92.9855 98.3918H70.2539C69.599 98.3918 69.0152 97.9566 68.8284 97.3123C68.828 97.3111 68.8277 97.31 68.8273 97.3088ZM2.53239 96.3727L2.53506 96.3652L34.4004 6.97729C34.4806 6.7856 34.6669 6.47105 34.9351 6.16256C35.1888 5.87075 35.4237 5.6903 35.5839 5.60835C35.6119 5.64825 35.6467 5.70415 35.6862 5.78078C35.7915 5.98538 35.9117 6.30305 36.0207 6.77614C36.0211 6.77777 36.0215 6.77941 36.0218 6.78106L36.0237 6.78986L36.0363 6.84615L36.0852 7.06592L36.2717 7.9031C36.4328 8.62608 36.6642 9.66299 36.9452 10.9189C37.5072 13.4307 38.2675 16.8188 39.061 20.3237C40.6408 27.3016 42.3714 34.8306 42.9146 36.7444C42.9958 37.0303 42.9989 37.2934 42.9298 37.562C42.4514 39.42 41.3227 43.1872 40.0792 47.3372C38.843 51.4626 37.5013 55.9402 36.617 59.1613C36.4508 59.7666 35.9051 60.1847 35.2509 60.1847H25.2134C19.0432 60.1847 14.8762 68.6252 20.5514 74.9027C23.114 77.7373 27.3018 82.5915 29.349 84.9645C29.6617 85.3269 29.9244 85.6314 30.1237 85.862C30.5645 86.3718 30.7075 86.8691 30.6429 87.2409L27.1056 97.0959C27.0878 97.1456 27.0727 97.1961 27.0602 97.2474C26.8961 97.9243 26.2964 98.3918 25.6175 98.3918H3.92712C2.90663 98.3918 2.17285 97.3643 2.53239 96.3727ZM58.4575 96.73C58.4602 96.7397 58.4629 96.7493 58.4657 96.7589C58.8965 98.226 57.1983 99.2591 56.1079 98.333C51.7508 94.6324 46.9913 89.706 42.2175 84.7107C41.8919 84.3699 41.5661 84.0288 41.2404 83.6878C36.8209 79.0598 32.4142 74.4452 28.4217 70.895C27.7177 70.2689 27.5852 69.5671 27.6719 69.226C27.7081 69.0836 27.7882 68.9466 27.9823 68.8226C28.1956 68.6864 28.6118 68.5289 29.3485 68.5265C29.3495 68.5265 29.3504 68.5265 29.3514 68.5265L49.665 68.5368C50.3137 68.5371 50.8929 68.9643 51.085 69.5995L58.4575 96.73Z" fill="#0A00D8" stroke="#0A00D8" stroke-width="2.96568" stroke-linejoin="round"/>
</svg>
