<svg width="101" height="101" viewBox="0 0 101 101" fill="none" xmlns="http://www.w3.org/2000/svg">
<path d="M45.2083 0.927861C44.5546 0.968557 44.0517 1.50999 44.0517 2.16226V14.4566C44.0517 14.7496 43.8471 15.0028 43.5607 15.0701C39.603 16.0011 35.8923 17.5683 32.5433 19.6575C32.2927 19.8138 31.9663 19.7797 31.7572 19.5715L22.2491 10.1028C21.7933 9.64889 21.0698 9.61396 20.5845 10.0364C19.6017 10.8919 17.826 12.4905 15.5045 14.8023C13.7235 16.576 12.0468 18.4283 11.1141 19.481C10.6807 19.9701 10.7096 20.707 11.1727 21.1682L20.6848 30.6408C20.8933 30.8485 20.928 31.1723 20.7724 31.4217C18.5526 34.979 16.9277 38.9428 16.036 43.1752C15.9743 43.4679 15.7167 43.6799 15.4164 43.6799H2.31847C1.67388 43.6799 1.1375 44.1646 1.0943 44.8051C1.00682 46.1021 0.88623 48.4829 0.88623 51.7523C0.88623 54.2606 1.01586 56.7511 1.10381 58.1522C1.14468 58.8032 1.68837 59.304 2.34335 59.304H15.767C16.0573 59.304 16.3092 59.5025 16.3806 59.7827C17.4024 63.7917 19.0877 67.537 21.3133 70.8961C21.4793 71.1466 21.4482 71.4794 21.2352 71.6916L11.5609 81.3257C11.1051 81.7796 11.07 82.5001 11.4943 82.9834C12.3533 83.9621 13.9585 85.7305 16.28 88.0423C18.061 89.816 19.9211 91.4857 20.9782 92.4145C21.4693 92.8461 22.2093 92.8173 22.6725 92.3561L32.6341 82.4358C32.8386 82.2322 33.156 82.1945 33.4052 82.3406C36.6068 84.2183 40.1188 85.6271 43.846 86.4725C44.1348 86.538 44.3421 86.7923 44.3421 87.0872V99.2849C44.3421 99.9268 44.8288 100.461 45.472 100.504C46.7743 100.591 49.1651 100.711 52.4482 100.711C54.9669 100.711 57.4677 100.582 58.8747 100.494C59.3112 100.467 59.6805 100.217 59.8777 99.8592V73.6031C57.4228 74.436 54.7908 74.8879 52.0529 74.8879C38.66 74.8879 27.8028 64.0758 27.8028 50.7384C27.8028 37.401 38.66 26.5889 52.0529 26.5889C61.8477 26.5889 70.2862 32.3718 74.1134 40.6961L94.0223 21.0084C94.215 20.5877 94.1583 20.082 93.8352 19.7139C92.9762 18.7352 91.3709 16.9668 89.0494 14.655C87.2684 12.8814 85.4084 11.2116 84.3513 10.2828C83.8602 9.85122 83.1202 9.87998 82.657 10.3412L72.9824 19.9757C72.7699 20.1874 72.4369 20.2188 72.1855 20.0548C68.5904 17.7107 64.5583 15.9763 60.2373 14.9991C59.9484 14.9338 59.7409 14.6794 59.7409 14.3844V2.13748C59.7409 1.49557 59.2542 0.961412 58.611 0.918391C57.3086 0.831274 54.9179 0.711182 51.6348 0.711182C49.1161 0.711182 46.6153 0.840269 45.2083 0.927861Z" fill="#0A00D8"/>
<path d="M65.8024 58.7191L97.7737 25.912C98.7767 24.8828 100.447 26.0722 99.7927 27.3501L87.1088 52.1366C86.794 52.7517 87.0396 53.5044 87.6572 53.8178L100.201 60.1836C100.944 60.5608 101.118 61.5417 100.549 62.1494L65.6819 99.4078C64.6899 100.468 62.9847 99.2792 63.6454 97.9882L78.7346 68.5012C79.0493 67.8862 78.8038 67.1335 78.1862 66.82L66.1332 60.7033C65.3805 60.3213 65.2141 59.3228 65.8024 58.7191Z" fill="#0A00D8"/>
</svg>
