<svg width="101" height="101" viewBox="0 0 101 101" fill="none" xmlns="http://www.w3.org/2000/svg">
<path d="M82.1339 43.7258L82.2246 43.6339C82.6849 43.1673 82.9433 42.5364 82.9433 41.8788V3.1031C82.9433 1.72767 81.8356 0.612671 80.4692 0.612671L63.0765 0.61268C62.4754 0.61268 61.9712 1.06614 61.9076 1.66384L61.0297 9.91842C60.9559 10.6129 61.5002 11.2182 62.1986 11.2182H70.595C71.9614 11.2182 73.0691 12.3332 73.0691 13.7086V36.2642C73.0691 36.9157 72.8155 37.5412 72.3627 38.0066L70.5451 39.8752C71.1864 39.8122 71.8859 39.7693 72.6045 39.7693C74.936 39.7693 76.6838 40.0556 77.7099 40.2847C79.7737 40.7457 81.2964 42.0789 82.1339 43.7258Z" fill="#0A00D8"/>
<path d="M20.462 0.612691C21.063 0.612691 21.5673 1.06615 21.6308 1.66385L22.5087 9.91843C22.5826 10.6129 22.0382 11.2182 21.3398 11.2182H13.6465C12.2801 11.2182 11.1725 12.3332 11.1725 13.7086V36.7748C11.1725 37.4189 11.4203 38.0378 11.864 38.5018L39.8467 67.7679C40.0038 67.9321 40.1776 68.0698 40.3629 68.1811C40.3547 68.2157 40.3468 68.2505 40.3392 68.2854C40.1127 69.3177 39.8295 71.0774 39.8295 73.4256C39.8295 75.4093 40.1484 77.2501 40.3234 78.1318C40.7307 80.1845 42.0168 81.793 43.6835 82.692L43.3699 83.0098C42.4022 83.9905 40.8261 83.9903 39.8587 83.0093L1.02685 43.6338C0.566776 43.1673 0.308594 42.5366 0.308594 41.8793V3.10313C0.308594 1.72771 1.41628 0.6127 2.78269 0.6127L20.462 0.612691Z" fill="#0A00D8"/>
<path fill-rule="evenodd" clip-rule="evenodd" d="M68.6019 46.8102C68.6019 46.5023 68.81 46.2352 69.1092 46.1748C69.828 46.0295 71.211 45.7934 72.6045 45.7934C74.4487 45.7934 75.7595 46.0199 76.4121 46.1656C76.6949 46.2288 76.8832 46.4848 76.8832 46.7771V53.4404C76.8832 53.5982 76.9927 53.7342 77.1452 53.7691C79.4259 54.2918 81.5542 55.2194 83.4518 56.473C83.5845 56.5607 83.7602 56.5439 83.8724 56.4307L88.8103 51.4482C89.026 51.2305 89.3604 51.1901 89.6143 51.3609C90.2244 51.771 91.3678 52.5909 92.3531 53.5851C93.6572 54.901 94.4253 55.9963 94.7846 56.565C94.9403 56.8115 94.8941 57.1268 94.6893 57.3335L89.5897 62.4791C89.4815 62.5884 89.4617 62.7581 89.5399 62.8909C90.6622 64.7982 91.473 66.914 91.9015 69.1669C91.9318 69.3261 92.069 69.4425 92.2297 69.4425H99.3337C99.6234 69.4425 99.8771 69.6325 99.9397 69.9179C100.084 70.5764 100.309 71.899 100.309 73.7599C100.309 75.1659 100.075 76.5615 99.9307 77.2868C99.8708 77.5887 99.606 77.7987 99.3009 77.7987H91.8909C91.7399 77.7987 91.6083 77.9019 91.5685 78.0489C91.0492 79.9719 90.247 81.7773 89.2098 83.4165C89.1252 83.5502 89.1427 83.7255 89.2539 83.8376L94.5491 89.1807C94.7648 89.3984 94.8048 89.7358 94.6356 89.992C94.2291 90.6075 93.4166 91.7613 92.4313 92.7555C91.1272 94.0714 90.0417 94.8465 89.4781 95.209C89.2338 95.3661 88.9213 95.3195 88.7165 95.1128L83.3325 89.6801C83.2232 89.5699 83.0531 89.5508 82.9211 89.6319C81.2032 90.6885 79.3099 91.4836 77.2957 91.9623C77.1445 91.9983 77.0363 92.1337 77.0363 92.2905V99.5959C77.0363 99.9038 76.8282 100.171 76.529 100.231C75.8102 100.377 74.4271 100.613 73.0337 100.613C71.1895 100.613 69.8787 100.386 69.2261 100.24C68.9433 100.177 68.755 99.9213 68.755 99.629V92.3235C68.755 92.1657 68.6456 92.0297 68.4932 91.9947C66.5259 91.5426 64.6721 90.7891 62.9822 89.7849C62.8507 89.7068 62.6832 89.7269 62.5752 89.8358L57.4858 94.9712C57.27 95.1889 56.9357 95.2293 56.6818 95.0586C56.0717 94.6484 54.9283 93.8286 53.943 92.8344C52.6389 91.5185 51.8708 90.4231 51.5114 89.8544C51.3557 89.608 51.402 89.2927 51.6068 89.086L56.5585 84.0895C56.6709 83.976 56.6873 83.7981 56.5997 83.6641C55.425 81.8676 54.5354 79.8645 53.9961 77.7204C53.9584 77.5706 53.8254 77.4644 53.6722 77.4644H46.8253C46.5201 77.4644 46.2554 77.2544 46.1955 76.9525C46.0516 76.2272 45.8176 74.8317 45.8176 73.4256C45.8176 71.5647 46.042 70.2421 46.1865 69.5836C46.2491 69.2982 46.5027 69.1083 46.7924 69.1083H53.4871C53.6456 69.1083 53.7816 68.9949 53.8142 68.8384C54.2848 66.5748 55.1425 64.4549 56.3142 62.5523C56.3963 62.419 56.378 62.2458 56.268 62.1347L51.4158 57.2388C51.2001 57.0211 51.1601 56.6837 51.3293 56.4275C51.7358 55.8119 52.5483 54.6581 53.5336 53.6639C54.8377 52.3481 55.9232 51.573 56.4868 51.2104C56.7311 51.0533 57.0436 51.1 57.2484 51.3067L62.1123 56.2146C62.2227 56.3259 62.395 56.3442 62.5273 56.2606C64.295 55.1432 66.2537 54.305 68.3427 53.8071C68.4938 53.7711 68.6019 53.6357 68.6019 53.479V46.8102ZM72.8251 86.2263C80.1164 86.2043 85.966 80.2185 85.966 72.8833C85.966 65.5481 80.1164 59.5623 72.8251 59.5403C65.5121 59.5182 59.6053 65.5262 59.6053 72.8833C59.6053 80.2404 65.5121 86.2484 72.8251 86.2263Z" fill="#0A00D8"/>
<path d="M38.0256 32.9516C37.4245 32.9516 36.9203 32.4981 36.8567 31.9004L33.6675 1.91246C33.5937 1.21799 34.138 0.612671 34.8364 0.612671H48.7021C49.4005 0.612671 49.9448 1.21799 49.871 1.91246L46.6816 31.9004C46.6181 32.4981 46.1138 32.9516 45.5128 32.9516H38.0256Z" fill="#0A00D8"/>
<path d="M41.2676 55.432C36.8253 55.432 33.2427 51.9259 33.2427 47.5784C33.2427 43.2308 36.8253 39.5845 41.2676 39.7247C45.7101 39.7247 49.2927 43.2308 49.2927 47.5784C49.2927 51.9259 45.7101 55.432 41.2676 55.432Z" fill="#0A00D8"/>
</svg>
