<svg width="19" height="80" viewBox="0 0 19 80" fill="none" xmlns="http://www.w3.org/2000/svg">
<path fill-rule="evenodd" clip-rule="evenodd" d="M18.0823 9.08242C18.0823 13.9514 14.1352 17.8985 9.26626 17.8985C4.39728 17.8985 0.450195 13.9514 0.450195 9.08242C0.450195 4.21344 4.39728 0.266357 9.26626 0.266357C14.1352 0.266357 18.0823 4.21344 18.0823 9.08242ZM18.0824 39.6447C18.0824 44.5137 14.1353 48.4608 9.26631 48.4608C4.39733 48.4608 0.450245 44.5137 0.450245 39.6447C0.450245 34.7758 4.39733 30.8287 9.26631 30.8287C14.1353 30.8287 18.0824 34.7758 18.0824 39.6447ZM9.26631 79.0233C14.1353 79.0233 18.0824 75.0762 18.0824 70.2073C18.0824 65.3383 14.1353 61.3912 9.26631 61.3912C4.39733 61.3912 0.450245 65.3383 0.450245 70.2073C0.450245 75.0762 4.39733 79.0233 9.26631 79.0233Z" fill="#0A00D8"/>
</svg>
