<svg width="92" height="101" viewBox="0 0 92 101" fill="none" xmlns="http://www.w3.org/2000/svg">
<path d="M39.7327 11.1843C39.7327 12.2392 39.2018 13.2233 38.3203 13.8027L14.6551 29.3563C13.7735 29.9357 13.2427 30.9198 13.2427 31.9747V60.5102C13.2427 61.6713 12.6006 62.7371 11.5742 63.2799L5.30775 66.594C3.22106 67.6975 0.709717 66.1847 0.709717 63.8242V25.2143C0.709717 24.1594 1.24054 23.1753 2.12209 22.5959L34.8785 1.06722C36.9621 -0.302133 39.7327 1.19236 39.7327 3.68558L39.7327 11.1843Z" fill="#0A00D8"/>
<path d="M52.0613 11.1843C52.0613 12.2392 52.5921 13.2233 53.4737 13.8027L77.1389 29.3563C78.0204 29.9357 78.5513 30.9198 78.5513 31.9747V60.5102C78.5513 61.6713 79.1933 62.7371 80.2197 63.2799L86.4862 66.594C88.5729 67.6975 91.0843 66.1847 91.0843 63.8242V25.2143C91.0843 24.1594 90.5534 23.1753 89.6719 22.5959L56.9154 1.06722C54.8319 -0.302133 52.0613 1.19236 52.0613 3.68558L52.0613 11.1843Z" fill="#0A00D8"/>
<path d="M16.5087 73.3474C17.4222 72.82 18.5399 72.7877 19.4824 73.2614L44.7849 85.9793C45.7274 86.453 46.845 86.4207 47.7586 85.8933L72.4711 71.6255C73.4766 71.045 74.7207 71.0681 75.704 71.6856L81.7073 75.4555C83.7063 76.7109 83.6518 79.6421 81.6076 80.8224L48.1704 100.127C47.2568 100.655 46.1392 100.687 45.1967 100.213L10.174 82.6098C7.94638 81.4901 7.85534 78.3434 10.0145 77.0968L16.5087 73.3474Z" fill="#0A00D8"/>
<path d="M28.6883 69.5061H39.5828V29.8308H28.6883V69.5061Z" fill="#0A00D8"/>
<path d="M39.5828 29.8308H28.6883L52.2112 69.1895L63.1057 69.192L39.5828 29.8308Z" fill="#0A00D8"/>
<path d="M52.2112 69.192H63.1057V29.5167H52.2112V69.192Z" fill="#0A00D8"/>
</svg>
