<svg width="101" height="74" viewBox="0 0 101 74" fill="none" xmlns="http://www.w3.org/2000/svg">
<path d="M40.9841 35.013C39.6857 36.4327 38.7779 44.4792 40.4381 49.1059C37.1324 47.4224 33.5117 40.8817 33.7054 33.7449C31.9839 34.8524 29.4211 48.3356 32.8068 56.9056C27.8593 55.3317 22.5626 41.0663 25.721 30.0642C16.0591 41.5816 23.1063 59.9427 24.9355 64.7081C9.59958 53.3188 15.5228 24.3988 15.5228 24.3988C4.39988 42.3135 10.4029 57.9681 14.6109 68.9418C15.2642 70.6453 15.8742 72.2361 16.3701 73.705C12.1785 70.7876 -18.2413 34.3467 19.3799 0.412842L60.7038 40.1292C61.9474 38.3315 62.8234 29.5124 61.2742 25.0322C64.5602 26.7539 68.1046 33.3361 67.828 40.4702C69.5623 39.3827 72.2815 25.9301 68.9956 17.3214C73.9245 18.9525 79.0551 33.2784 75.7691 44.2432C85.5642 32.8384 78.8954 14.8428 77.1217 10.0566C77.0607 9.89206 77.0055 9.74315 76.957 9.61065C92.1596 21.1768 85.9009 50.0262 85.9009 50.0262C97.2311 32.2416 91.4104 16.5186 87.33 5.49682C86.6966 3.78583 86.1051 2.18813 85.6263 0.713607C89.7838 3.67929 119.778 40.4702 81.7655 73.9659L40.9841 35.013Z" fill="#0A00D8"/>
</svg>
