<svg width="101" height="101" viewBox="0 0 101 101" fill="none" xmlns="http://www.w3.org/2000/svg">
<path fill-rule="evenodd" clip-rule="evenodd" d="M100.457 50.5449C100.457 78.1592 78.071 100.545 50.4568 100.545C22.8426 100.545 0.456787 78.1592 0.456787 50.5449C0.456787 22.9307 22.8426 0.544922 50.4568 0.544922C78.071 0.544922 100.457 22.9307 100.457 50.5449ZM51.2555 88.5367C50.9899 88.5422 50.7237 88.5449 50.4568 88.5449C50.3937 88.5449 50.3306 88.5448 50.2676 88.5445C48.914 86.4235 47.2461 83.5822 45.5831 80.1707C42.209 73.2488 38.9118 64.096 38.2138 53.9124H62.5262C61.7934 64.1376 58.6929 73.3173 55.5514 80.2461C54.0251 83.6126 52.4998 86.4239 51.2555 88.5367ZM42.8071 87.7747C41.9604 86.2787 41.0742 84.6141 40.1898 82.7997C36.5635 75.3605 32.9074 65.2829 32.2009 53.9124H12.6039C14.0833 70.76 26.557 84.4534 42.8071 87.7747ZM12.5466 47.9124H32.1115C32.4905 35.4424 36.0418 25.2008 39.5556 18.0075C40.37 16.3404 41.1836 14.8343 41.9574 13.4991C25.89 17.1702 13.7021 31.0256 12.5466 47.9124ZM57.1053 13.1246C58.0562 14.5086 59.0603 16.0817 60.0638 17.8329C64.1947 25.0412 68.3585 35.3445 68.67 47.9124H88.367C87.1675 30.383 74.0799 16.1199 57.1053 13.1246ZM88.3096 53.9124C86.8453 70.5891 74.6084 84.1753 58.5996 87.6704C59.3807 86.1819 60.1985 84.5268 61.016 82.7238C64.3859 75.2913 67.7979 65.2407 68.5404 53.9124H88.3096ZM54.8581 20.8161C58.6244 27.3885 62.3582 36.6652 62.6679 47.9124H38.1145C38.4908 36.5669 41.7289 27.2285 44.9468 20.641C46.5828 17.2918 48.2077 14.6664 49.4337 12.8668L49.4729 12.9152C50.9326 14.718 52.8939 17.3886 54.8581 20.8161Z" fill="#0A00D8"/>
</svg>
