<svg width="101" height="101" viewBox="0 0 101 101" fill="none" xmlns="http://www.w3.org/2000/svg">
<path d="M94.2092 74.9207C94.572 74.2668 94.0951 73.474 93.352 73.474H81.4518C81.1414 73.474 80.8495 73.6211 80.6588 73.8681C75.7662 80.2054 68.926 84.9385 61.0448 87.1534C60.2333 87.3815 59.5721 86.5212 59.9467 85.7604C60.4182 84.8023 60.8972 83.7889 61.3762 82.7238C62.4511 80.3332 63.5304 77.6717 64.5244 74.784C64.746 74.1404 64.2684 73.474 63.5927 73.474H59.3731C58.9537 73.474 58.5802 73.7402 58.4362 74.1374C57.6434 76.3231 56.8016 78.3674 55.9568 80.2461C54.5553 83.363 53.1547 86.004 51.9753 88.0554C51.8028 88.3554 51.487 88.542 51.1431 88.5442C51.0635 88.5447 50.984 88.5449 50.9043 88.5449C50.7874 88.5449 50.6788 88.4847 50.6162 88.3852C49.2921 86.2821 47.6792 83.4975 46.071 80.1707C45.1698 78.3065 44.2741 76.2805 43.4329 74.1162C43.2828 73.7301 42.9148 73.474 42.5036 73.474H38.2489C37.5653 73.474 37.087 74.155 37.3243 74.8015C38.3935 77.7131 39.5594 80.3943 40.7222 82.7997C41.2395 83.8697 41.7573 84.8876 42.2674 85.8495C42.6687 86.6063 42.018 87.4924 41.1956 87.272C33.1325 85.1104 26.1316 80.3208 21.1498 73.8681C20.9591 73.6211 20.6672 73.474 20.3568 73.474H8.45666C7.71358 73.474 7.23665 74.2668 7.59944 74.9207C16.0816 90.2093 32.2959 100.545 50.9043 100.545C69.5127 100.545 85.727 90.2093 94.2092 74.9207Z" fill="#0A00D8"/>
<path d="M94.3293 26.387C94.6879 27.0408 94.2107 27.8296 93.4697 27.8296H81.6157C81.3028 27.8296 81.0089 27.6802 80.8184 27.4299C75.6646 20.6586 68.3004 15.6874 59.8137 13.6131C58.959 13.4042 58.3301 14.3653 58.8023 15.1134C59.3398 15.9651 59.8859 16.8722 60.4319 17.8329C61.8633 20.3514 63.2986 23.2478 64.5736 26.4866C64.8287 27.1345 64.35 27.8296 63.6588 27.8296H59.3547C58.9539 27.8296 58.5931 27.5859 58.4354 27.2143C57.4378 24.8651 56.3548 22.7264 55.2692 20.8161C53.3212 17.3886 51.3762 14.718 49.9286 12.9152C49.9092 12.8911 49.8725 12.8922 49.8552 12.9179C48.6435 14.7159 47.0471 17.3233 45.4399 20.641C44.4992 22.5828 43.5567 24.7637 42.6858 27.1645C42.5414 27.5623 42.1676 27.8296 41.7475 27.8296H37.5293C36.8565 27.8296 36.3792 27.1683 36.5975 26.5266C37.6795 23.3452 38.8886 20.4942 40.0933 18.0075C40.5193 17.1282 40.945 16.2937 41.3649 15.5055C41.775 14.7356 41.1009 13.8329 40.2694 14.0791C32.511 16.3759 25.7915 21.1218 20.9902 27.4299C20.7997 27.6802 20.5058 27.8296 20.193 27.8296H8.3389C7.59791 27.8296 7.12078 27.0408 7.47932 26.387C15.9279 10.9788 32.2077 0.544922 50.9043 0.544922C69.6009 0.544922 85.8807 10.9788 94.3293 26.387Z" fill="#0A00D8"/>
<path d="M13.9789 35.1248L10.6291 55.18L7.28131 35.1248H0.791016L5.93028 68.3454H13.928L17.439 44.904L19.9583 68.3454H28.0069L33.1462 35.1248H26.6559L23.7463 55.18L21.2021 35.1248H13.9789Z" fill="#0A00D8"/>
<path d="M47.9146 35.1248L44.5649 55.18L41.217 35.1248H34.7267L39.866 68.3454H47.8637L51.3748 44.904L53.8941 68.3454H61.9426L67.0819 35.1248H60.5916L57.6821 55.18L55.1379 35.1248H47.9146Z" fill="#0A00D8"/>
<path d="M81.6237 35.1248L78.274 55.18L74.9261 35.1248H68.4359L73.5751 68.3454H81.5728L85.0839 44.904L87.6032 68.3454H95.6518L100.791 35.1248H94.3007L91.3912 55.18L88.847 35.1248H81.6237Z" fill="#0A00D8"/>
</svg>
