<svg width="90" height="101" viewBox="0 0 90 101" fill="none" xmlns="http://www.w3.org/2000/svg">
<path d="M37.0421 13.2442C37.9042 12.6696 38.422 11.7022 38.422 10.6662L38.422 3.22005C38.422 0.745844 35.6647 -0.730091 33.6058 0.642055L1.83673 21.8148C0.974636 22.3894 0.456787 23.3568 0.456787 24.3928V61.4351C0.456787 63.7692 2.93993 65.265 5.00319 64.1738L12.2898 60.3203C12.6339 60.1384 12.8491 59.7811 12.8491 59.3919V37.0896L38.8728 51.7987V82.8107L19.0969 71.2957C18.7852 71.1142 18.402 71.1064 18.0832 71.275L10.6222 75.2207C8.47302 76.3573 8.41063 79.4133 10.5116 80.6367L43.0701 99.5946C44.0278 100.152 45.2106 100.156 46.1717 99.604L78.2149 81.2042C80.3305 79.9894 80.2771 76.9194 78.1205 75.7789L71.6431 72.3533C70.7032 71.8563 69.5741 71.8759 68.6521 72.4054L51.2651 82.3892V51.7192L77.0069 36.5082V59.3052C77.0069 60.4533 77.6417 61.5072 78.6566 62.0439L84.8527 65.3207C86.916 66.4118 89.3991 64.916 89.3991 62.582V24.4056C89.3991 23.3626 88.8743 22.3895 88.0026 21.8166L55.6139 0.529642C53.5538 -0.824336 50.8143 0.653379 50.8143 3.1186L50.8143 10.5332C50.8143 11.5762 51.3392 12.5493 52.2108 13.1221L71.1542 25.5724L45.0001 41.0271L18.1369 25.8436L37.0421 13.2442Z" fill="#0A00D8"/>
</svg>
