<svg width="101" height="101" viewBox="0 0 101 101" fill="none" xmlns="http://www.w3.org/2000/svg">
<path fill-rule="evenodd" clip-rule="evenodd" d="M57.0962 18.1826C59.9975 16.4791 61.94 13.3649 61.94 9.80526C61.94 4.41794 57.4906 0.0506592 52.0019 0.0506592C46.5133 0.0506592 42.0639 4.41794 42.0639 9.80526C42.0639 13.5803 44.2486 16.8545 47.4448 18.4761V38.1152C44.3911 39.0315 41.7364 40.8445 39.7994 43.2416L19.0286 36.7682C18.2258 32.4719 14.3914 29.2161 9.78223 29.2161C4.59027 29.2161 0.381348 33.3473 0.381348 38.4434C0.381348 43.5395 4.59027 47.6707 9.78223 47.6707C12.0012 47.6707 14.0406 46.9162 15.6486 45.6542L36.4469 52.1361C36.4393 52.3329 36.4354 52.5306 36.4354 52.7292C36.4354 55.4543 37.1623 58.0128 38.436 60.2281L25.8971 72.2141C23.9559 71.0849 21.6901 70.4366 19.27 70.4366C12.0807 70.4366 6.25265 76.1571 6.25265 83.2137C6.25265 90.2702 12.0807 95.9907 19.27 95.9907C26.4593 95.9907 32.2873 90.2702 32.2873 83.2137C32.2873 82.0252 32.122 80.8745 31.8127 79.7828L45.5593 66.6424C47.5226 67.5197 49.7041 68.0084 52.002 68.0084C54.9304 68.0084 57.6699 67.2147 60.0095 65.8345L80.1659 87.0535C79.8018 88.068 79.6037 89.1593 79.6037 90.2961C79.6037 95.6834 84.0531 100.051 89.5417 100.051C95.0304 100.051 99.4798 95.6834 99.4798 90.2961C99.4798 84.9087 95.0304 80.5415 89.5417 80.5415C88.804 80.5415 88.085 80.6204 87.393 80.7701L66.3641 58.6326C67.1399 56.8164 67.5686 54.8219 67.5686 52.7292C67.5686 51.8491 67.4928 50.9864 67.3472 50.147L79.9163 42.4949C82.0444 44.0047 84.6678 44.8958 87.5055 44.8958C94.6166 44.8958 100.381 39.2997 100.381 32.3966C100.381 25.4934 94.6166 19.8973 87.5055 19.8973C80.3944 19.8973 74.6296 25.4934 74.6296 32.3966C74.6296 33.0993 74.6894 33.7885 74.8042 34.4596L62.8284 41.7505C61.2148 40.2172 59.2642 39.0235 57.0962 38.2869V18.1826ZM61.1343 52.7292C61.1343 57.6797 57.0456 61.6929 52.002 61.6929C46.9584 61.6929 42.8697 57.6797 42.8697 52.7292C42.8697 47.7787 46.9584 43.7655 52.002 43.7655C57.0456 43.7655 61.1343 47.7787 61.1343 52.7292Z" fill="#0A00D8"/>
</svg>
