<svg width="101" height="101" viewBox="0 0 101 101" fill="none" xmlns="http://www.w3.org/2000/svg">
<path fill-rule="evenodd" clip-rule="evenodd" d="M12.8894 66.0708C12.8928 66.8615 12.2573 67.5043 11.4721 67.5043H3.4963C1.8328 67.5043 0.484253 68.8624 0.484253 70.5378V76.5587C0.484253 78.234 1.83279 79.5922 3.4963 79.5922H97.4722C99.1357 79.5922 100.484 78.234 100.484 76.5587V70.5378C100.484 68.8624 99.1357 67.5043 97.4722 67.5043H92.6205C90.9588 67.5043 89.612 66.1489 89.6037 64.4754C89.5321 50.1394 89.0043 35.7252 85.1459 24.3916C82.8145 17.5433 79.1243 11.3283 73.1789 6.86466C67.1868 2.36599 59.5288 0.114502 50.1737 0.114502C40.8408 0.114502 33.2575 2.33804 27.4185 6.89087C21.6268 11.4067 18.243 17.6771 16.2173 24.5019C12.76 36.1499 12.8253 51.2375 12.8894 66.0708ZM25.3168 66.0697C25.3193 66.8627 25.9582 67.5043 26.7456 67.5043H74.1691C75.8354 67.5043 77.1861 66.1412 77.1761 64.463C77.0911 50.1699 76.566 37.6286 73.3537 28.1928C71.5314 22.84 68.991 18.988 65.5906 16.4351C62.2368 13.9172 57.4335 12.2024 50.1737 12.2024C42.8917 12.2024 38.2856 13.9074 35.1863 16.324C32.0397 18.7775 29.7364 22.5173 28.1519 27.856C25.2292 37.7029 25.2698 50.8367 25.3168 66.0697Z" fill="#0A00D8"/>
<path d="M35.5287 84.4458C34.8349 84.4458 34.2804 85.0364 34.3751 85.7286C35.4869 93.8555 42.4104 100.115 50.7855 100.115C59.1605 100.115 66.084 93.8555 67.1958 85.7286C67.2905 85.0364 66.736 84.4458 66.0422 84.4458H35.5287Z" fill="#0A00D8"/>
</svg>
