<svg width="101" height="101" viewBox="0 0 101 101" fill="none" xmlns="http://www.w3.org/2000/svg">
<path d="M26.2571 63.2731C25.7277 63.2731 25.3154 63.7436 25.4232 64.2681C26.5677 69.8363 31.4436 74.0201 37.2851 74.0201C43.1265 74.0201 48.0025 69.8363 49.147 64.2681C49.2548 63.7436 48.8425 63.2731 48.3131 63.2731H26.2571Z" fill="#0A00D8"/>
<path fill-rule="evenodd" clip-rule="evenodd" d="M70.7105 49.6806C70.7105 49.3896 70.906 49.1372 71.187 49.08C71.8623 48.9428 73.1616 48.7196 74.4706 48.7196C76.2032 48.7196 77.4345 48.9337 78.0476 49.0714C78.3133 49.1311 78.4902 49.373 78.4902 49.6492V55.9464C78.4902 56.0956 78.593 56.2241 78.7363 56.2571C80.8789 56.7511 82.8783 57.6277 84.6609 58.8125C84.7856 58.8953 84.9507 58.8794 85.0561 58.7725L89.6948 54.0637C89.8975 53.858 90.2117 53.8199 90.4502 53.9812C91.0233 54.3688 92.0975 55.1436 93.0231 56.0832C94.2482 57.3268 94.9698 58.362 95.3073 58.8994C95.4536 59.1323 95.4102 59.4303 95.2177 59.6256L90.4271 64.4886C90.3254 64.5918 90.3069 64.7522 90.3803 64.8777C91.4346 66.6802 92.1963 68.6797 92.5988 70.8089C92.6273 70.9593 92.7562 71.0694 92.9071 71.0694H99.5809C99.853 71.0694 100.091 71.2489 100.15 71.5186C100.286 72.1409 100.497 73.3908 100.497 75.1495C100.497 76.4783 100.277 77.7972 100.142 78.4826C100.085 78.7679 99.8367 78.9664 99.55 78.9664H92.5889C92.447 78.9664 92.3233 79.0639 92.286 79.2029C91.7982 81.0202 91.0446 82.7263 90.0702 84.2755C89.9907 84.4019 90.0072 84.5676 90.1116 84.6735L95.086 89.723C95.2887 89.9288 95.3263 90.2476 95.1673 90.4897C94.7855 91.0714 94.0222 92.1618 93.0966 93.1014C91.8715 94.345 90.8517 95.0775 90.3222 95.4201C90.0927 95.5686 89.7992 95.5245 89.6068 95.3292L84.5489 90.195C84.4462 90.0908 84.2863 90.0727 84.1624 90.1495C82.5485 91.148 80.77 91.8994 78.8777 92.3518C78.7356 92.3858 78.6341 92.5138 78.6341 92.6619V99.5659C78.6341 99.8569 78.4385 100.109 78.1575 100.166C77.4822 100.304 76.1829 100.527 74.8739 100.527C73.1413 100.527 71.91 100.313 71.2969 100.175C71.0312 100.115 70.8543 99.8735 70.8543 99.5972V92.6931C70.8543 92.544 70.7516 92.4155 70.6084 92.3824C68.7602 91.9551 67.0188 91.243 65.4312 90.294C65.3077 90.2202 65.1503 90.2392 65.0489 90.3421L60.2677 95.1954C60.065 95.4011 59.7509 95.4393 59.5124 95.2779C58.9393 94.8903 57.8651 94.1155 56.9395 93.1759C55.7144 91.9324 54.9928 90.8972 54.6552 90.3597C54.5089 90.1268 54.5524 89.8288 54.7448 89.6335L59.3965 84.9116C59.5022 84.8043 59.5176 84.6362 59.4353 84.5096C58.3317 82.8118 57.496 80.9187 56.9894 78.8924C56.9539 78.7508 56.8291 78.6505 56.6851 78.6505H50.2529C49.9662 78.6505 49.7176 78.452 49.6613 78.1667C49.5261 77.4813 49.3062 76.1624 49.3062 74.8336C49.3062 73.0749 49.5171 71.825 49.6528 71.2027C49.7116 70.933 49.9499 70.7535 50.222 70.7535H56.5113C56.6601 70.7535 56.7879 70.6463 56.8185 70.4984C57.2606 68.3592 58.0664 66.3558 59.1671 64.5578C59.2442 64.4317 59.227 64.268 59.1236 64.1631L54.5654 59.5361C54.3627 59.3304 54.3251 59.0116 54.4841 58.7694C54.866 58.1877 55.6293 57.0973 56.5549 56.1577C57.78 54.9142 58.7998 54.1817 59.3292 53.839C59.5587 53.6905 59.8523 53.7346 60.0447 53.93L64.614 58.5682C64.7177 58.6734 64.8795 58.6907 65.0038 58.6117C66.6645 57.5557 68.5045 56.7636 70.467 56.293C70.609 56.259 70.7105 56.131 70.7105 55.9829V49.6806ZM74.6779 86.931C81.5276 86.9102 87.0228 81.2533 87.0228 74.3211C87.0228 67.3889 81.5276 61.732 74.6779 61.7112C67.8079 61.6904 62.2589 67.3682 62.2589 74.3211C62.2589 81.274 67.8079 86.9518 74.6779 86.931Z" fill="#0A00D8"/>
<path d="M8.53281 50.0543C9.10704 50.0543 9.57186 49.5819 9.56935 49.0007C9.52245 38.0992 9.47475 27.0107 12.0033 18.4501C13.4848 13.4343 15.9596 8.82596 20.1954 5.50707C24.4658 2.16102 30.0119 0.526855 36.8377 0.526855C43.6797 0.526855 49.2804 2.18157 53.6628 5.48782C58.0111 8.76835 60.7099 13.336 62.415 18.3691C65.1015 26.2991 65.5803 36.2812 65.6652 46.3121C65.0797 47.3236 64.7581 48.4873 64.7581 49.6806V50.1823L64.2599 49.6767C62.3382 47.7259 59.173 47.0244 56.4674 48.5549C56.5458 48.3244 56.5877 48.0769 56.5862 47.8192C56.524 37.3145 56.14 28.0975 53.7907 21.1627C52.4579 17.2287 50.5999 14.3978 48.113 12.5215C45.6601 10.671 42.1473 9.41074 36.8377 9.41074C31.5119 9.41074 28.1432 10.6638 25.8765 12.4398C23.5751 14.243 21.8906 16.9916 20.7317 20.9152C18.5942 28.1521 18.6239 37.8046 18.6583 49C18.6601 49.5827 19.1274 50.0543 19.7032 50.0543H54.3639C53.7536 50.5528 53.0681 51.165 52.3396 51.9044C51.0099 53.2542 49.9953 54.7213 49.5262 55.4358C48.8094 56.5277 48.4594 57.7395 48.433 58.9382H2.6996C1.48298 58.9382 0.496704 57.94 0.496704 56.7087V52.2837C0.496704 51.0524 1.48298 50.0543 2.6996 50.0543H8.53281Z" fill="#0A00D8"/>
</svg>
