<svg width="101" height="101" viewBox="0 0 101 101" fill="none" xmlns="http://www.w3.org/2000/svg">
<path fill-rule="evenodd" clip-rule="evenodd" d="M50.1501 88.9106C71.1502 88.9106 88.1741 71.8867 88.1741 50.8866C88.1741 29.8866 71.1502 12.8627 50.1501 12.8627C29.1501 12.8627 12.1262 29.8866 12.1262 50.8866C12.1262 71.8867 29.1501 88.9106 50.1501 88.9106ZM50.1501 100.887C77.7644 100.887 100.15 78.5009 100.15 50.8866C100.15 23.2724 77.7644 0.886627 50.1501 0.886627C22.5359 0.886627 0.150146 23.2724 0.150146 50.8866C0.150146 78.5009 22.5359 100.887 50.1501 100.887Z" fill="#0A00D8"/>
<path fill-rule="evenodd" clip-rule="evenodd" d="M52.8448 26.6351C54.4983 26.6351 55.8388 27.9756 55.8388 29.6291V72.1441C55.8388 73.7977 54.4983 75.1381 52.8448 75.1381H46.8567C45.2032 75.1381 43.8627 73.7977 43.8627 72.1441V29.6291C43.8627 27.9756 45.2032 26.6351 46.8567 26.6351H52.8448Z" fill="#0A00D8"/>
</svg>
