<svg width="101" height="101" viewBox="0 0 101 101" fill="none" xmlns="http://www.w3.org/2000/svg">
<path fill-rule="evenodd" clip-rule="evenodd" d="M79.3163 41.0432L46.9923 73.4575C45.8179 74.6352 43.9011 74.6044 42.7651 73.3897L24.3559 53.7049L32.7855 45.198L42.6862 56.3368C43.8095 57.6006 45.765 57.6581 46.9606 56.4625L70.8 32.6232L79.3163 41.0432Z" fill="#0A00D8"/>
<path fill-rule="evenodd" clip-rule="evenodd" d="M50.4038 88.9106C71.4039 88.9106 88.4278 71.8867 88.4278 50.8866C88.4278 29.8866 71.4039 12.8627 50.4038 12.8627C29.4038 12.8627 12.3799 29.8866 12.3799 50.8866C12.3799 71.8867 29.4038 88.9106 50.4038 88.9106ZM50.4038 100.887C78.018 100.887 100.404 78.5009 100.404 50.8866C100.404 23.2724 78.018 0.886627 50.4038 0.886627C22.7896 0.886627 0.403809 23.2724 0.403809 50.8866C0.403809 78.5009 22.7896 100.887 50.4038 100.887Z" fill="#0A00D8"/>
</svg>
