<svg width="101" height="101" viewBox="0 0 101 101" fill="none" xmlns="http://www.w3.org/2000/svg">
<path d="M17.1128 17.2381C15.9365 16.0616 14.0217 16.0559 12.9184 17.301C7.05059 23.9228 3.03198 31.9988 1.29902 40.7121C-0.630245 50.4124 0.359921 60.467 4.1443 69.6045C7.92868 78.742 14.3373 86.5519 22.5598 92.0467C30.7822 97.5415 40.4492 100.474 50.3382 100.474C60.2273 100.474 69.8943 97.5415 78.1167 92.0467C86.3392 86.552 92.7478 78.742 96.5322 69.6045C100.317 60.467 101.307 50.4124 99.3775 40.7121C97.6445 31.9988 93.6259 23.9229 87.7581 17.301C86.6548 16.0559 84.74 16.0616 83.5638 17.2381L79.8465 20.9558C78.6702 22.1322 78.6803 24.0325 79.7616 25.2967C84.0633 30.3263 87.0156 36.389 88.3132 42.9132C89.8072 50.4249 89.0404 58.211 86.1099 65.2869C83.1793 72.3628 78.2166 78.4106 71.8493 82.6656C65.482 86.9207 57.9961 89.1918 50.3382 89.1918C42.6804 89.1918 35.1945 86.9207 28.8272 82.6656C22.4599 78.4106 17.4972 72.3628 14.5666 65.2869C11.6361 58.211 10.8693 50.4249 12.3633 42.9132C13.6609 36.389 16.6133 30.3263 20.9149 25.2967C21.9962 24.0324 22.0063 22.1322 20.83 20.9558L17.1128 17.2381Z" fill="#0A00D8"/>
<path fill-rule="evenodd" clip-rule="evenodd" d="M53.3891 0.474335C55.0526 0.474335 56.4012 1.82305 56.4012 3.48677V46.2634C56.4012 47.9271 55.0526 49.2758 53.3891 49.2758H47.365C45.7015 49.2758 44.353 47.9271 44.353 46.2634V3.48677C44.353 1.82305 45.7015 0.474335 47.365 0.474335H53.3891Z" fill="#0A00D8"/>
</svg>
