<svg width="100" height="90" viewBox="0 0 100 90" fill="none" xmlns="http://www.w3.org/2000/svg">
<path d="M64.0145 68.892C64.7885 69.8801 66.2253 70.0608 67.1391 69.2003C70.3897 66.1393 72.7719 62.2527 74.0185 57.9364C75.4759 52.89 75.3067 47.5126 73.535 42.5677C71.7633 37.6228 68.4791 33.3616 64.1485 30.3889C59.818 27.4161 54.6611 25.883 49.4098 26.007C44.1586 26.131 39.0798 27.9058 34.8944 31.0797C30.7089 34.2535 27.6295 38.665 26.0932 43.688C24.5569 48.711 24.6417 54.0903 26.3357 59.0624C27.7846 63.315 30.3476 67.0848 33.739 69.989C34.6924 70.8054 36.1191 70.5571 36.8456 69.5335L40.4465 64.4602C41.173 63.4366 40.9162 62.0293 40.0212 61.1493C38.4466 59.6011 37.2461 57.7 36.5273 55.5901C35.5629 52.7594 35.5145 49.6968 36.3892 46.8371C37.2639 43.9773 39.0171 41.4657 41.4 39.6588C43.7828 37.8519 46.6743 36.8414 49.664 36.7708C52.6537 36.7002 55.5896 37.5731 58.0552 39.2655C60.5207 40.958 62.3905 43.384 63.3991 46.1993C64.4078 49.0146 64.5041 52.076 63.6744 54.9491C63.0559 57.0905 61.9465 59.0462 60.4467 60.667C59.5942 61.5882 59.4042 63.0061 60.1782 63.9942L64.0145 68.892Z" fill="#0A00D8"/>
<path d="M79.5987 87.7878C80.2798 88.6574 81.5398 88.8132 82.3814 88.0979C89.855 81.7458 95.3074 73.3243 98.0369 63.8729C100.952 53.7799 100.613 43.0253 97.07 33.1355C93.5266 23.2457 86.9582 14.7232 78.2971 8.77774C69.6359 2.83229 59.3222 -0.234057 48.8197 0.0139403C38.3172 0.261938 28.1596 3.81168 19.7888 10.1593C11.4179 16.5069 5.25906 25.33 2.18643 35.376C-0.886202 45.422 -0.716502 56.1806 2.67144 66.1247C5.84405 75.4368 11.6879 83.5916 19.4529 89.5838C20.3274 90.2586 21.5786 90.0435 22.2179 89.1428L27.9855 81.0166C28.6248 80.1159 28.4089 78.8717 27.545 78.1834C22.1677 73.8991 18.1165 68.1555 15.8902 61.6211C13.4485 54.4544 13.3262 46.7006 15.5407 39.4604C17.7551 32.2202 22.1938 25.8615 28.2267 21.2867C34.2596 16.712 41.5802 14.1537 49.1493 13.975C56.7185 13.7962 64.1517 16.0061 70.3938 20.291C76.6359 24.5759 81.3697 30.7181 83.9235 37.8457C86.4772 44.9733 86.721 52.7242 84.6203 59.9982C82.7049 66.6303 78.9293 72.5588 73.7602 77.0921C72.9297 77.8204 72.7728 79.0734 73.4539 79.943L79.5987 87.7878Z" fill="#0A00D8"/>
</svg>
