<svg width="100" height="93" viewBox="0 0 100 93" fill="none" xmlns="http://www.w3.org/2000/svg">
<path d="M90.4201 45.6747C89.9576 39.9218 88.4288 34.3098 85.9144 29.1505L74.0613 33.3605C73.478 33.5677 73.2221 34.2494 73.5025 34.8013C75.726 39.1785 76.8662 44.0664 76.7523 49.0281C76.7357 49.7509 77.4433 50.2899 78.1246 50.0477L90.4201 45.6747ZM98.0803 44.2311C98.044 43.5709 97.3787 43.1425 96.7574 43.3686L85.2419 47.5588C85.0574 47.626 84.9296 47.7949 84.912 47.9905C84.874 48.4135 84.826 48.8326 84.7776 49.2582C84.7576 49.3789 84.7476 49.5096 84.7276 49.6303C84.6669 50.0729 84.5969 50.5154 84.5063 50.9478C84.4863 51.0384 84.4763 51.1389 84.4557 51.2294C84.2344 52.3357 83.9532 53.432 83.6007 54.5282C83.2288 55.6949 82.7763 56.8417 82.2532 57.9779C74.8058 77.9385 55.5531 84.792 35.8679 75.5854C34.3191 74.861 32.6305 73.3018 31.2728 72.3568C31.0515 72.2056 30.8302 72.045 30.619 71.8837C30.1061 71.5118 29.6133 71.1194 29.1406 70.7275C28.9596 70.5762 28.7785 70.4156 28.5975 70.265C28.1067 69.8342 27.6232 69.3961 27.1661 68.9381C27.0263 68.798 26.8182 68.7494 26.6323 68.8173L24.4037 69.6312L14.9397 73.141L23.3677 70.0941C19.2543 65.8697 16.5187 60.5291 15.4325 54.8167L26.5144 50.5418C26.9662 50.3675 27.2263 49.8949 27.148 49.417C26.9012 47.9104 26.7705 46.3773 26.762 44.8299C26.762 44.6085 26.7519 44.3772 26.7519 44.156C26.7552 43.9586 26.752 43.7334 26.7477 43.4983C26.7349 42.8057 26.05 42.2776 25.3843 42.4691L19.5229 44.156C19.7945 40.6762 20.6392 35.1963 22.1981 31.8472C29.1578 16.9322 48.7955 7.30361 66.8544 17.415C70.0949 18.928 73.9961 21.6712 76.4572 24.1118C76.5928 24.2463 76.792 24.2948 76.9733 24.2346L79.9246 23.255C80.1064 23.1946 80.3072 23.2432 80.4383 23.3829C80.7317 23.6957 81.0147 24.0176 81.2982 24.333C81.6094 24.695 81.9113 25.0571 82.2032 25.4292C83.2288 26.7166 84.1444 28.0843 84.9388 29.5125L99.1535 24.3401C99.7108 24.1373 99.9709 23.4963 99.6994 22.969C99.1322 21.8673 98.523 20.7881 97.8726 19.7267C97.5111 19.1369 97.1173 18.5308 96.7189 17.9442C96.4647 17.5699 95.9876 17.4207 95.5625 17.5756L89.9626 19.6166C89.7513 19.6935 89.515 19.62 89.383 19.438C84.9589 13.3389 78.973 8.23426 71.6832 4.83184C48.7324 -5.86917 21.3462 4.09766 10.6452 27.0384C7.37362 34.0368 6.04227 41.4554 6.41509 48.6788C6.44914 49.3385 7.11485 49.7657 7.73555 49.5395L12.5595 47.7814C12.8708 47.6679 13.205 47.8831 13.2382 48.2128C13.2696 48.5255 13.3051 48.8367 13.3406 49.1444C13.3996 49.6071 13.4587 50.0697 13.5271 50.5324C13.5301 50.5524 13.5317 50.5728 13.5366 50.5924V50.5924C13.5416 50.6124 13.5433 50.6331 13.5464 50.6534C13.7544 52.0223 14.0189 53.3831 14.3397 54.7213C14.3994 54.9702 14.2642 55.2252 14.0237 55.3128L1.04322 60.0398C0.56167 60.2152 0.289486 60.7266 0.424125 61.2211C1.78501 66.2192 3.98592 70.9825 6.9304 75.2723C7.185 75.6432 7.65942 75.79 8.0822 75.6362L14.9397 73.141V73.141C14.9397 73.141 14.9532 73.1558 14.959 73.1639C15.5496 73.9943 16.17 74.7945 16.8104 75.5854C16.9712 75.786 17.1523 75.9672 17.3132 76.1685C17.8261 76.7716 18.3391 77.3654 18.8822 77.9385C18.9313 77.9879 18.9708 78.0463 19.0195 78.0962C19.0217 78.0985 19.0248 78.0997 19.0279 78.0997V78.0997C19.0312 78.0997 19.0343 78.1011 19.0366 78.1034C22.8677 82.1443 27.4929 85.573 32.8519 88.066C55.8027 98.7672 83.1888 88.8004 93.8894 65.8497C96.4031 60.4807 97.7511 54.8703 98.0735 49.28C98.0737 49.2773 98.0759 49.2752 98.0787 49.2752V49.2752C98.0815 49.2752 98.0838 49.2729 98.0838 49.27C98.0838 49.2114 98.0838 49.1525 98.0838 49.0841C98.1338 48.2393 98.1438 47.4045 98.1438 46.5597C98.1438 46.3686 98.1538 46.1775 98.1538 45.9965C98.1366 45.4127 98.1127 44.8224 98.0803 44.2311Z" fill="#0A00D8"/>
</svg>
