<svg width="101" height="101" viewBox="0 0 101 101" fill="none" xmlns="http://www.w3.org/2000/svg">
<path fill-rule="evenodd" clip-rule="evenodd" d="M70.5367 49.6068C70.5367 49.3158 70.7358 49.0634 71.0219 49.0063C71.7095 48.8691 73.0324 48.6459 74.3652 48.6459C76.1293 48.6459 77.383 48.8599 78.0072 48.9977C78.2778 49.0574 78.4578 49.2993 78.4578 49.5755V55.8727C78.4578 56.0218 78.5626 56.1504 78.7085 56.1834C80.89 56.6773 82.9257 57.554 84.7408 58.7387C84.8677 58.8216 85.0358 58.8057 85.1431 58.6988L89.8662 53.99C90.0726 53.7843 90.3924 53.7461 90.6353 53.9075C91.2188 54.2951 92.3126 55.0699 93.255 56.0095C94.5024 57.253 95.2371 58.2882 95.5808 58.8257C95.7297 59.0586 95.6855 59.3566 95.4896 59.5519L90.6118 64.4148C90.5082 64.5181 90.4894 64.6784 90.5641 64.804C91.6376 66.6064 92.4132 68.606 92.823 70.7351C92.852 70.8856 92.9832 70.9956 93.1369 70.9956H99.932C100.209 70.9956 100.452 71.1751 100.512 71.4449C100.65 72.0672 100.865 73.3171 100.865 75.0757C100.865 76.4045 100.641 77.7234 100.503 78.4089C100.446 78.6942 100.192 78.8926 99.9006 78.8926H92.8129C92.6685 78.8926 92.5425 78.9902 92.5046 79.1292C92.0078 80.9465 91.2405 82.6526 90.2484 84.2018C90.1675 84.3281 90.1843 84.4938 90.2906 84.5998L95.3555 89.6493C95.5618 89.855 95.6001 90.1738 95.4382 90.416C95.0494 90.9977 94.2723 92.0881 93.3298 93.0277C92.0825 94.2712 91.0441 95.0037 90.505 95.3464C90.2714 95.4949 89.9725 95.4508 89.7766 95.2555L84.6267 90.1213C84.5222 90.0171 84.3594 89.999 84.2332 90.0757C82.59 91.0743 80.7791 91.8257 78.8525 92.2781C78.7078 92.312 78.6044 92.44 78.6044 92.5882V99.4922C78.6044 99.7832 78.4053 100.036 78.1191 100.093C77.4316 100.23 76.1086 100.453 74.7758 100.453C73.0118 100.453 71.758 100.239 71.1338 100.101C70.8633 100.042 70.6832 99.7997 70.6832 99.5235V92.6194C70.6832 92.4703 70.5786 92.3418 70.4328 92.3087C68.551 91.8814 66.7779 91.1693 65.1615 90.2203C65.0357 90.1464 64.8754 90.1655 64.7722 90.2684L59.9041 95.1217C59.6977 95.3274 59.3779 95.3655 59.135 95.2042C58.5515 94.8166 57.4578 94.0418 56.5153 93.1022C55.268 91.8586 54.5332 90.8234 54.1895 90.286C54.0406 90.0531 54.0848 89.7551 54.2807 89.5598L59.0171 84.8379C59.1247 84.7306 59.1403 84.5624 59.0565 84.4358C57.9329 82.738 57.082 80.845 56.5661 78.8187C56.5301 78.6771 56.4029 78.5768 56.2563 78.5768H49.7072C49.4153 78.5768 49.1621 78.3783 49.1048 78.093C48.9671 77.4075 48.7433 76.0886 48.7433 74.7599C48.7433 73.0012 48.958 71.7513 49.0962 71.129C49.156 70.8593 49.3987 70.6797 49.6758 70.6797H56.0793C56.2309 70.6797 56.361 70.5726 56.3921 70.4247C56.8423 68.2855 57.6627 66.282 58.7834 64.484C58.862 64.358 58.8444 64.1943 58.7392 64.0894L54.0981 59.4624C53.8917 59.2567 53.8535 58.9378 54.0153 58.6957C54.4041 58.114 55.1813 57.0236 56.1237 56.084C57.3711 54.8404 58.4095 54.1079 58.9485 53.7653C59.1822 53.6168 59.4811 53.6609 59.677 53.8562L64.3294 58.4945C64.435 58.5997 64.5998 58.617 64.7263 58.538C66.4171 57.482 68.2906 56.6898 70.2888 56.2193C70.4334 56.1852 70.5367 56.0573 70.5367 55.9092V49.6068ZM74.5763 86.8572C81.5505 86.8365 87.1456 81.1796 87.1456 74.2474C87.1456 67.3151 81.5505 61.6582 74.5763 61.6375C67.5813 61.6166 61.9314 67.2945 61.9314 74.2474C61.9314 81.2002 67.5813 86.8781 74.5763 86.8572Z" fill="#0A00D8"/>
<path fill-rule="evenodd" clip-rule="evenodd" d="M3.89481 0.453125C2.22122 0.453125 0.864502 1.80167 0.864502 3.46517V47.1399C0.864502 48.8034 2.22122 50.1519 3.89481 50.1519H53.6818C54.4869 49.4907 55.1761 49.0127 55.6836 48.6901C58.5112 46.8929 61.9284 47.5687 63.9689 49.6029L64.4761 50.1086V49.6068C64.4761 46.5831 66.5788 43.7488 69.8287 43.1001C70.6743 42.9313 72.4478 42.6218 74.3652 42.6218C76.6225 42.6218 78.3186 42.8956 79.3208 43.1168C82.597 43.8398 84.5184 46.7186 84.5184 49.5755V50.1519H85.1579L85.5744 49.7367C87.7341 47.5835 91.248 47.0688 94.003 48.899C94.3983 49.1616 95.0227 49.5923 95.7302 50.1519H97.8342C99.5078 50.1519 100.865 48.8034 100.865 47.1399V3.46517C100.865 1.80167 99.5078 0.453125 97.8342 0.453125H3.89481ZM86.6221 38.1037C87.7936 38.1037 88.7433 37.1597 88.7433 35.9953V15.5134C88.7433 13.8499 87.3866 12.5013 85.713 12.5013H16.016C14.3424 12.5013 12.9857 13.8499 12.9857 15.5134V35.0917C12.9857 36.7552 14.3424 38.1037 16.016 38.1037H86.6221Z" fill="#0A00D8"/>
<path d="M48.319 88.1037H25.713C24.0394 88.1037 22.6827 86.7552 22.6827 85.0917V56.7784C22.6827 55.1149 21.326 53.7664 19.6524 53.7664H13.5918C11.9182 53.7664 10.5615 55.1149 10.5615 56.7784V97.1399C10.5615 98.8034 11.9182 100.152 13.5918 100.152H55.6763C54.9306 99.6519 53.5226 98.6508 52.2234 97.3555C50.6289 95.7658 49.6252 94.3784 49.0747 93.5175C47.9657 91.7833 47.8001 89.8253 48.319 88.1037Z" fill="#0A00D8"/>
</svg>
