<svg width="99" height="100" viewBox="0 0 99 100" fill="none" xmlns="http://www.w3.org/2000/svg">
<path d="M8.3126 26.6877L9.56307 31.4872C9.73573 32.0118 10.301 32.2971 10.8256 32.1244L38.6129 21.9792C40.7839 25.0685 44.3751 27.0874 48.4377 27.0874C55.0651 27.0874 60.4343 21.4249 60.4343 14.7975L87.9258 5.74967C88.4504 5.57701 88.7357 5.01177 88.5631 4.48717L87.3126 0.687652C87.1399 0.163049 86.5747 -0.122262 86.0501 0.0503918L58.7936 9.02089C56.7094 5.47078 52.8519 3.08738 48.4377 3.08738C41.8103 3.08738 35.5 10 36.5041 16.3567L8.94986 25.4252C8.42526 25.5978 8.13994 26.163 8.3126 26.6877Z" fill="#0A00D8"/>
<path fill-rule="evenodd" clip-rule="evenodd" d="M16.3619 31.9983L18.7669 34.7729C19.7583 35.9165 21.0625 37.0157 22.6434 38.2719C22.9053 38.4801 23.1759 38.6933 23.4526 38.9114C24.7739 39.9526 26.2359 41.1048 27.5791 42.3519C30.9193 45.4533 34 49.5672 34 55.7379C34 60.6538 32.8511 65.4173 29.9278 69.0072C26.9223 72.698 22.3762 74.7379 16.5 74.7379C10.4853 74.7379 6.24113 71.7337 3.61629 67.8575C1.06616 64.0916 0 59.4804 0 55.7379C0 50.0798 2.95834 45.9859 6.0082 42.8379C7.21584 41.5914 8.52622 40.4068 9.719 39.3286C10.0154 39.0607 10.3045 38.7993 10.5829 38.5452C12.0438 37.2121 13.2406 36.0542 14.1225 34.9083L16.3619 31.9983ZM16.6306 41.082C15.9705 41.7406 15.2905 42.3721 14.6272 42.9773C14.3042 43.2721 13.985 43.5608 13.6699 43.8459C12.4934 44.91 11.373 45.9234 10.3175 47.0128C8.51427 48.874 7.16134 50.7022 6.48399 52.7379H27.5871C26.91 50.4195 25.4422 48.5553 23.4965 46.7488C22.3483 45.6827 21.1172 44.7116 19.8031 43.6752C19.5097 43.4438 19.2122 43.2091 18.9105 42.9694C18.1614 42.3741 17.3866 41.7473 16.6306 41.082Z" fill="#0A00D8"/>
<path d="M43.6783 33.0361C43.6218 33.0125 43.5613 33 43.5 33C42.9477 33 42.5 33.4477 42.5 34V87C42.5 87.5523 42.0523 88 41.5 88H25C24.4477 88 24 88.4477 24 89V99C24 99.5523 24.4477 100 25 100H72.5C73.0523 100 73.5 99.5523 73.5 99V89C73.5 88.4477 73.0523 88 72.5 88H55.5C54.9477 88 54.5 87.5523 54.5 87V34C54.5 33.4477 54.0523 33 53.5 33C53.4387 33 53.3782 33.0125 53.3217 33.0361C51.8379 33.657 50.209 34 48.5 34C46.791 34 45.1621 33.657 43.6783 33.0361Z" fill="#0A00D8"/>
<path fill-rule="evenodd" clip-rule="evenodd" d="M81.3619 9.5L83.7669 12.2746C84.7583 13.4182 86.0625 14.5174 87.6434 15.7737C87.9053 15.9818 88.1759 16.195 88.4526 16.4131C89.7739 17.4543 91.2359 18.6065 92.5791 19.8536C95.9193 22.955 99 27.0689 99 33.2396C99 38.1555 97.8511 42.919 94.9278 46.5089C91.9223 50.1998 87.3762 52.2396 81.5 52.2396C75.4853 52.2396 71.2411 49.2354 68.6163 45.3592C66.0662 41.5933 65 36.9821 65 33.2396C65 27.5815 67.9583 23.4876 71.0082 20.3396C72.2158 19.0931 73.5262 17.9085 74.719 16.8303C75.0154 16.5624 75.3045 16.3011 75.5829 16.047C77.0438 14.7138 78.2406 13.556 79.1225 12.41L81.3619 9.5ZM81.6306 18.5837C80.9705 19.2423 80.2905 19.8738 79.6272 20.4791C79.3042 20.7738 78.985 21.0625 78.6699 21.3476C77.4934 22.4117 76.373 23.4251 75.3175 24.5145C73.5143 26.3757 72.1613 28.2039 71.484 30.2396H92.5871C91.91 27.9212 90.4422 26.0571 88.4966 24.2505C87.3483 23.1844 86.1172 22.2133 84.8031 21.1769C84.5097 20.9455 84.2122 20.7108 83.9105 20.4711C83.1614 19.8758 82.3866 19.249 81.6306 18.5837Z" fill="#0A00D8"/>
</svg>
