<svg width="101" height="68" viewBox="0 0 101 68" fill="none" xmlns="http://www.w3.org/2000/svg">
<path d="M61.9272 10.4676L70.4238 18.8413L61.2164 27.9156L100.009 27.798V39.6402L61.2164 39.7578L70.8198 49.2223L62.3232 57.596L37.6204 34.4229L61.9272 10.4676Z" fill="#0A00D8"/>
<path fill-rule="evenodd" clip-rule="evenodd" d="M21.3039 9.71408C22.4086 8.48072 22.4256 6.59598 21.2464 5.43361L16.8986 1.14794C15.7445 0.0103124 13.8779 -0.00254321 12.7762 1.1859C8.27168 6.0452 0.00878906 16.8945 0.00878906 34.2465C0.00878906 51.3361 8.20985 62.3016 12.4893 67.0035C13.5799 68.2018 15.4413 68.184 16.5952 67.0464L20.9426 62.7611C22.1221 61.5985 22.1063 59.7123 21.0183 58.4637C17.6718 54.6229 12.1331 46.5722 12.1331 34.2465C12.1331 21.6427 17.7559 13.6752 21.3039 9.71408Z" fill="#0A00D8"/>
<path fill-rule="evenodd" clip-rule="evenodd" d="M30.6217 34.2111C30.7207 29.0964 32.8041 25.3619 34.7175 22.929C35.7404 21.6285 35.7637 19.7438 34.5854 18.5822L30.2368 14.2957C29.0821 13.1575 27.2159 13.1457 26.1552 14.3717C23.0055 18.0122 18.6822 24.5514 18.4995 33.983C18.3177 43.3723 22.6338 50.607 25.6145 54.3638C26.6222 55.6338 28.4759 55.6341 29.6305 54.496L33.9792 50.2094C35.1575 49.0479 35.1717 47.1232 34.244 45.7532C32.5558 43.2601 30.526 39.1521 30.6217 34.2111Z" fill="#0A00D8"/>
</svg>
