<svg width="96" height="98" viewBox="0 0 96 98" fill="none" xmlns="http://www.w3.org/2000/svg">
<path fill-rule="evenodd" clip-rule="evenodd" d="M44.8278 1.096C46.2469 0.321083 48.0254 0.838155 48.8079 2.25312L78.051 55.1362L95.4876 84.9962C96.0731 85.9988 96.0133 87.2522 95.3351 88.1946L89.8014 95.8839C88.5488 97.6243 85.9143 97.4806 84.8585 95.6144L71.1198 71.332C70.3639 69.996 68.7072 69.4669 67.3168 70.1174L10.4881 96.7048C9.2515 97.2833 7.77939 96.9341 6.93448 95.8618L0.828328 88.1122C0.122836 87.2168 -0.00121485 85.9942 0.510052 84.9754L36.9231 12.4131C37.3739 11.5148 37.3343 10.4484 36.8181 9.58593L36.5314 9.10676C35.6745 7.67507 36.1802 5.81807 37.6446 5.01843L44.8278 1.096ZM60.6921 57.9841C62.2167 57.2672 62.8277 55.4178 62.0302 53.9338L48.4531 28.6672C47.3156 26.5503 44.2563 26.6195 43.2156 28.7857L23.5713 69.6747C22.3738 72.1672 24.9683 74.7834 27.4707 73.6067L60.6921 57.9841Z" fill="#0A00D8"/>
</svg>
