<svg width="101" height="101" viewBox="0 0 101 101" fill="none" xmlns="http://www.w3.org/2000/svg">
<path d="M51.7451 12.4014C38.3797 12.4014 24.9539 19.8826 18.2597 29.5011C18.2465 29.5202 18.2331 29.5391 18.2197 29.558C18.2958 29.577 18.3744 29.5869 18.4539 29.5869L30.4644 29.587C31.0067 29.587 31.4462 30.035 31.4462 30.5876L31.4462 38.1341C31.4462 38.6868 31.0066 39.1347 30.4644 39.1347L1.57653 39.1345C1.03431 39.1345 0.594746 38.6865 0.59475 38.1339L0.594992 10.0015C0.594996 9.44196 1.04517 8.99117 1.59407 9.00103L9.18907 9.13737C9.72448 9.14698 10.1536 9.59207 10.1536 10.1378L10.1535 20.5237C19.3995 8.75731 35.5165 0.394043 51.7451 0.394043C65.3235 0.394043 77.5867 5.46435 86.4371 14.9712C95.2791 24.469 100.319 37.9602 100.319 54.1194C100.319 62.4453 97.9242 74.1846 90.5117 83.8512C82.8815 93.8016 70.3958 100.932 51.6553 100.362H0.637643V77.754C0.637643 76.6488 1.51617 75.7528 2.60063 75.7528H10.4562C11.5406 75.7528 12.4192 76.6488 12.4192 77.754V88.3548H51.8369L51.9286 88.3577C67.2256 88.8435 76.0525 83.2076 81.2288 76.4574C86.6353 69.4069 88.5373 60.4855 88.5373 54.1194C88.5373 40.5317 84.3384 30.162 77.8904 23.2357C71.4507 16.3184 62.3723 12.4014 51.7451 12.4014Z" fill="#0A00D8"/>
<path d="M54.0469 22.2198C54.5991 22.2198 55.0469 22.6675 55.0469 23.2198V50.6919L72.1414 65.337C72.5553 65.6916 72.6091 66.3123 72.2623 66.7327L65.9541 74.3809C65.5981 74.8126 64.9571 74.8681 64.5321 74.504L43.2653 56.2846V23.2198C43.2653 22.6675 43.7131 22.2198 44.2653 22.2198H54.0469Z" fill="#0A00D8"/>
<path d="M6.7005 55.9948C10.225 55.9948 13.0822 53.0829 13.0822 49.4908C13.0822 45.8988 10.225 42.9869 6.7005 42.9869C3.17601 42.9869 0.318848 45.8988 0.318848 49.4908C0.318848 53.0829 3.17601 55.9948 6.7005 55.9948Z" fill="#0A00D8"/>
<path d="M13.0822 65.4219C13.0822 69.0139 10.225 71.9259 6.7005 71.9259C3.17601 71.9259 0.318848 69.0139 0.318848 65.4219C0.318848 61.8299 3.17601 58.9179 6.7005 58.9179C10.225 58.9179 13.0822 61.8299 13.0822 65.4219Z" fill="#0A00D8"/>
</svg>
