<svg width="101" height="66" viewBox="0 0 101 66" fill="none" xmlns="http://www.w3.org/2000/svg">
<path d="M29.9535 27.2112C30.01 26.9856 30.21 26.8276 30.4386 26.8285C34.9059 26.8462 37.4124 27.2019 36.9294 29.9572C36.5516 32.1119 35.0622 33.1436 29.0952 33.211C28.769 33.2147 28.529 32.9016 28.6096 32.5797L29.9535 27.2112Z" fill="#0A00D8"/>
<path d="M74.3263 26.8285C74.0978 26.8276 73.8977 26.9856 73.8413 27.2112L72.4973 32.5797C72.4168 32.9016 72.6567 33.2147 72.9829 33.211C78.9499 33.1436 80.4393 32.1119 80.8171 29.9572C81.3002 27.2019 78.7937 26.8462 74.3263 26.8285Z" fill="#0A00D8"/>
<path fill-rule="evenodd" clip-rule="evenodd" d="M50.0845 65.4878C77.6987 65.4878 100.084 50.937 100.084 32.9878C100.084 15.0385 77.6987 0.487793 50.0845 0.487793C22.4702 0.487793 0.0844727 15.0385 0.0844727 32.9878C0.0844727 50.937 22.4702 65.4878 50.0845 65.4878ZM55.056 20.5347C54.725 20.5324 54.4749 20.211 54.5639 19.8864L57.3916 9.57182C57.4806 9.24725 57.241 8.92578 56.91 8.92578H51.7247C51.5019 8.92578 51.306 9.07591 51.2443 9.29392L42.1395 41.4624C42.0473 41.788 42.2872 42.1126 42.6199 42.1126H47.8131C48.0355 42.1126 48.2311 41.963 48.2932 41.7455L52.5061 26.9853C52.5682 26.7679 52.7642 26.6184 52.9866 26.6175C53.1986 26.6167 53.4037 26.6154 53.602 26.6141C57.1695 26.5907 58.5002 26.582 57.5687 29.9572L54.5544 41.4723C54.4698 41.7955 54.7091 42.1126 55.0376 42.1126H59.872C60.094 42.1126 60.2895 41.9635 60.3518 41.7465L62.8941 32.9016C63.1182 31.9695 63.3381 31.1037 63.5423 30.2999C65.487 22.6432 66.0031 20.6113 55.056 20.5347ZM18.0901 49.6564C17.7587 49.6564 17.519 49.3341 17.6088 49.0093L25.3806 20.9005C25.4409 20.6825 25.6326 20.5312 25.8551 20.5288L26.1169 20.526C28.7504 20.4972 34.9851 20.429 36.9294 21.0231C38.7397 21.5763 40.7636 22.9348 42.0451 24.8626C43.3956 26.8942 43.5222 29.336 42.7657 31.8924C41.3546 36.6608 37.24 38.4447 33.7096 39.0888C31.5681 39.4795 29.2189 39.5249 27.2577 39.5054C27.0274 39.5031 26.8247 39.6603 26.7668 39.8873L24.3717 49.2753C24.3145 49.4998 24.1155 49.6564 23.8878 49.6564H18.0901ZM61.3667 49.0093C61.2769 49.3341 61.5166 49.6564 61.848 49.6564H67.7749C68.0029 49.6564 68.202 49.4994 68.259 49.2745L70.6386 39.8863C70.6961 39.6597 70.8987 39.5023 71.1285 39.5042C73.8572 39.5266 75.4136 39.4872 77.5973 39.0888C81.1277 38.4447 85.2423 36.6608 86.6534 31.8924C87.4099 29.336 87.2833 26.8942 85.9329 24.8626C84.6513 22.9348 82.6275 21.5763 80.8171 21.0231C78.8706 20.4284 72.515 20.4974 69.8685 20.5261L69.6129 20.5289C69.3905 20.5312 69.1989 20.6825 69.1386 20.9005L61.3667 49.0093Z" fill="#0A00D8"/>
</svg>
