<svg width="101" height="101" viewBox="0 0 101 101" fill="none" xmlns="http://www.w3.org/2000/svg">
<path d="M88.8546 75.5809C88.8546 73.3199 88.2276 71.5276 86.9736 70.204C85.7468 68.8529 83.6477 67.6121 80.6763 66.4815C77.7048 65.351 75.1423 64.2343 72.9887 63.1313C70.835 62.0008 68.9813 60.7186 67.4274 59.2847C65.9008 57.8233 64.7013 56.1137 63.829 54.156C62.9839 52.1982 62.5613 49.8683 62.5613 47.166C62.5613 42.506 64.0334 38.687 66.9776 35.7091C69.5887 33.068 72.9609 31.4029 77.0944 30.7137C78.0091 30.5612 78.7135 29.7837 78.7135 28.846V23.4724C78.7135 22.4639 79.5217 21.6464 80.5188 21.6464H83.4508C84.4479 21.6464 85.2561 22.4639 85.2561 23.4724V29.0354C85.2561 29.9453 85.921 30.7076 86.801 30.8962C90.8943 31.7733 94.155 33.7223 96.5831 36.7431C98.9939 39.718 100.339 43.4799 100.618 48.029C100.679 49.0355 99.864 49.8545 98.8669 49.8545H90.6599C89.6628 49.8545 88.8669 49.0348 88.7782 48.0303C88.5657 45.6231 87.9096 43.7633 86.81 42.4509C85.4742 40.7964 83.675 39.9692 81.4123 39.9692C79.1769 39.9692 77.4458 40.6172 76.2191 41.9132C74.9923 43.1816 74.379 44.9463 74.379 47.2074C74.379 49.303 74.9787 50.985 76.1782 52.2534C77.3777 53.5218 79.5995 54.8178 82.8435 56.1413C86.1148 57.4649 88.8001 58.7195 90.8992 59.9052C92.9983 61.0633 94.7702 62.3868 96.2151 63.8758C97.6599 65.3372 98.764 67.0192 99.5273 68.9218C100.291 70.7968 100.672 72.989 100.672 75.4982C100.672 80.1858 99.2274 83.991 96.3377 86.9138C93.7626 89.5185 90.3215 91.1706 86.0144 91.8702C85.1001 92.0187 84.3974 92.7963 84.3974 93.7329V98.4887C84.3974 99.4972 83.5891 100.315 82.5921 100.315H79.701C78.7039 100.315 77.8956 99.4972 77.8956 98.4887V93.7658C77.8956 92.8327 77.1985 92.0566 76.288 91.9067C71.4692 91.1132 67.6706 89.187 64.8921 86.1279C62.1749 83.085 60.6668 79.1577 60.3677 74.3459C60.3052 73.3393 61.1205 72.5202 62.1176 72.5202H70.3246C71.3217 72.5202 72.1166 73.3403 72.2161 74.3438C72.4547 76.7516 73.1893 78.6668 74.4199 80.0892C75.9737 81.8264 78.1955 82.695 81.0852 82.695C83.4842 82.695 85.3788 82.0608 86.7691 80.7924C88.1594 79.4964 88.8546 77.7593 88.8546 75.5809Z" fill="#0A00D8"/>
<path d="M10.0337 12.9717C10.0337 11.2109 11.4448 9.78357 13.1856 9.78357H55.5612C57.302 9.78357 58.7131 11.2109 58.7131 12.9717V36.3116C59.6793 34.4539 60.9313 32.728 62.481 31.1606C64.1596 29.4627 66.0353 28.0854 68.0746 27.0058V2.68191C68.0746 1.37454 67.0267 0.314697 65.7342 0.314697H3.0126C1.72006 0.314697 0.672241 1.37454 0.672241 2.68192V77.0125C0.672241 78.3199 1.72006 79.3798 3.0126 79.3798H54.6534C54.1787 77.192 53.9531 74.8961 53.9531 72.52V69.9109H13.1856C11.4448 69.9109 10.0337 68.4835 10.0337 66.7228V12.9717Z" fill="#0A00D8"/>
<path d="M23.0151 34.8761C21.2743 34.8761 19.8632 36.3034 19.8632 38.0642V41.1568C19.8632 42.9176 21.2743 44.345 23.0151 44.345H46.1998C47.9405 44.345 49.3517 42.9176 49.3517 41.1568V38.0642C49.3517 36.3034 47.9405 34.8761 46.1998 34.8761H23.0151Z" fill="#0A00D8"/>
<path d="M19.8632 53.2142C19.8632 51.4535 21.2743 50.0261 23.0151 50.0261H46.1998C47.9405 50.0261 49.3517 51.4535 49.3517 53.2142V56.3069C49.3517 58.0676 47.9405 59.495 46.1998 59.495H23.0151C21.2743 59.495 19.8632 58.0676 19.8632 56.3069V53.2142Z" fill="#0A00D8"/>
<path d="M23.0151 20.1993C21.2743 20.1993 19.8632 21.6266 19.8632 23.3874V26.48C19.8632 28.2408 21.2743 29.6681 23.0151 29.6681H46.1998C47.9405 29.6681 49.3517 28.2408 49.3517 26.48V23.3874C49.3517 21.6266 47.9405 20.1993 46.1998 20.1993H23.0151Z" fill="#0A00D8"/>
</svg>
