<svg width="95" height="101" viewBox="0 0 95 101" fill="none" xmlns="http://www.w3.org/2000/svg">
<path fill-rule="evenodd" clip-rule="evenodd" d="M67.765 42.6498C67.765 53.8864 58.7153 62.9955 47.5519 62.9955C36.3886 62.9955 27.3389 53.8864 27.3389 42.6498C27.3389 31.4132 36.3886 22.3042 47.5519 22.3042C58.7153 22.3042 67.765 31.4132 67.765 42.6498ZM55.765 42.6498C55.765 47.3331 52.014 50.9955 47.5519 50.9955C43.0898 50.9955 39.3389 47.3331 39.3389 42.6498C39.3389 37.9666 43.0898 34.3042 47.5519 34.3042C52.014 34.3042 55.765 37.9666 55.765 42.6498Z" fill="#0A00D8"/>
<path fill-rule="evenodd" clip-rule="evenodd" d="M17.6617 62.7998L8.97425 56.8886C7.8316 56.1111 7.35977 54.659 7.82721 53.3584L11.381 43.4698C11.6191 42.8073 11.6191 42.0825 11.381 41.42L7.82721 31.5314C7.35977 30.2308 7.8316 28.7787 8.97426 28.0012L17.6617 22.09C18.2438 21.694 18.6698 21.1077 18.8665 20.4317L21.8038 10.3428C22.1901 9.01582 23.4254 8.11836 24.8068 8.161L35.3096 8.48515C36.0133 8.50686 36.7025 8.28291 37.259 7.85173L45.5655 1.4161C46.658 0.569631 48.1848 0.569633 49.2774 1.41611L57.5838 7.85173C58.1403 8.28291 58.8296 8.50686 59.5332 8.48515L70.036 8.161C71.4175 8.11836 72.6527 9.01583 73.039 10.3428L75.9763 20.4317C76.1731 21.1077 76.5991 21.694 77.1811 22.09L85.8686 28.0012C87.0112 28.7787 87.4831 30.2308 87.0156 31.5314L83.4618 41.42C83.2237 42.0825 83.2237 42.8073 83.4618 43.4698L87.0156 53.3584C87.4831 54.659 87.0112 56.1111 85.8686 56.8886L77.1811 62.7998C76.5991 63.1958 76.1731 63.7821 75.9763 64.458L73.039 74.547C72.6527 75.8739 71.4174 76.7714 70.036 76.7288L59.5332 76.4046C58.8296 76.3829 58.1403 76.6069 57.5838 77.038L49.2774 83.4737C48.1848 84.3201 46.658 84.3201 45.5655 83.4737L37.259 77.038C36.7025 76.6069 36.0133 76.3829 35.3096 76.4046L24.8068 76.7288C23.4254 76.7714 22.1901 75.8739 21.8038 74.547L18.8665 64.458C18.6698 63.7821 18.2438 63.1958 17.6617 62.7998ZM47.4214 13.7785L43.9405 16.4754C41.3806 18.4588 38.2099 19.489 34.9731 19.3891L30.5718 19.2533L29.3409 23.4812C28.4356 26.5905 26.4761 29.2876 23.7987 31.1094L20.1581 33.5865L21.6474 37.7304C22.7426 40.778 22.7426 44.1118 21.6474 47.1594L20.1581 51.3033L23.7987 53.7804C26.4761 55.6022 28.4356 58.2993 29.3409 61.4086L30.5718 65.6365L34.9731 65.5006C38.2099 65.4007 41.3806 66.4309 43.9405 68.4143L47.4214 71.1113L50.9023 68.4143C53.4623 66.4309 56.6329 65.4007 59.8698 65.5006L64.2711 65.6365L65.502 61.4086C66.4072 58.2993 68.3668 55.6022 71.0442 53.7804L74.6848 51.3033L73.1955 47.1594C72.1002 44.1118 72.1002 40.778 73.1955 37.7304L74.6848 33.5865L71.0442 31.1094C68.3668 29.2876 66.4072 26.5905 65.502 23.4812L64.2711 19.2533L59.8698 19.3891C56.6329 19.489 53.4623 18.4589 50.9023 16.4755L47.4214 13.7785Z" fill="#0A00D8"/>
<path d="M1.32622 86.282L15.4329 71.7501C16.0596 71.1044 17.1466 71.3427 17.4458 72.1913L19.3621 77.6269C19.7661 78.7728 20.8154 79.5666 22.028 79.6436L27.5942 79.997C28.4362 80.0504 28.9674 80.9264 28.6256 81.6978L20.488 100.06C20.0713 101 18.7467 101.027 18.2924 100.105L13.5216 90.4165C13.3432 90.0543 12.9962 89.8047 12.596 89.7507L2.03409 88.3276C1.04799 88.1947 0.633163 86.9959 1.32622 86.282Z" fill="#0A00D8"/>
<path d="M93.7779 86.282L79.6713 71.7501C79.0445 71.1044 77.9576 71.3427 77.6584 72.1913L75.7421 77.6269C75.3381 78.7728 74.2887 79.5666 73.0761 79.6436L67.5099 79.997C66.6679 80.0504 66.1367 80.9264 66.4785 81.6978L74.6161 100.06C75.0328 101 76.3574 101.027 76.8117 100.105L81.5825 90.4165C81.7609 90.0543 82.1079 89.8047 82.5081 89.7507L93.07 88.3276C94.0561 88.1947 94.471 86.9959 93.7779 86.282Z" fill="#0A00D8"/>
</svg>
