<svg width="101" height="101" viewBox="0 0 101 101" fill="none" xmlns="http://www.w3.org/2000/svg">
<path d="M88.8547 76.221C88.8547 73.96 88.2277 72.1677 86.9737 70.8441C85.7469 69.493 83.6478 68.2522 80.6764 67.1217C77.7049 65.9911 75.1424 64.8744 72.9888 63.7714C70.8352 62.6409 68.9814 61.3587 67.4275 59.9249C65.9009 58.4635 64.7014 56.7539 63.8291 54.7961C62.984 52.8384 62.5614 50.5084 62.5614 47.8061C62.5614 43.1462 64.0335 39.3272 66.9777 36.3492C69.5888 33.7081 72.9611 32.043 77.0945 31.3538C78.0092 31.2013 78.7136 30.4239 78.7136 29.4861V24.1125C78.7136 23.104 79.5219 22.2865 80.5189 22.2865H83.4509C84.448 22.2865 85.2562 23.1041 85.2562 24.1125V29.6756C85.2562 30.5854 85.9211 31.3478 86.8011 31.5363C90.8944 32.4134 94.1551 34.3624 96.5832 37.3832C98.994 40.3581 100.339 44.1201 100.618 48.6691C100.679 49.6757 99.8641 50.4946 98.867 50.4946H90.66C89.663 50.4946 88.867 49.6749 88.7783 48.6705C88.5658 46.2633 87.9098 44.4035 86.8101 43.091C85.4743 41.4366 83.6751 40.6094 81.4124 40.6094C79.177 40.6094 77.446 41.2573 76.2192 42.5533C74.9925 43.8217 74.3791 45.5865 74.3791 47.8475C74.3791 49.9431 74.9788 51.6251 76.1783 52.8935C77.3778 54.1619 79.5996 55.4579 82.8436 56.7815C86.115 58.105 88.8002 59.3596 90.8993 60.5453C92.9984 61.7034 94.7704 63.0269 96.2152 64.5159C97.66 65.9773 98.7641 67.6594 99.5274 69.562C100.291 71.437 100.672 73.6291 100.672 76.1383C100.672 80.8259 99.2275 84.6311 96.3379 87.5539C93.7627 90.1586 90.3216 91.8107 86.0145 92.5103C85.1002 92.6588 84.3975 93.4364 84.3975 94.373V99.1288C84.3975 100.137 83.5893 100.955 82.5922 100.955H79.7011C78.704 100.955 77.8958 100.137 77.8958 99.1288V94.4059C77.8958 93.4729 77.1986 92.6967 76.2881 92.5468C71.4693 91.7534 67.6707 89.8271 64.8923 86.7681C62.175 83.7252 60.6669 79.7978 60.3679 74.986C60.3053 73.9795 61.1207 73.1603 62.1177 73.1603H70.3247C71.3218 73.1603 72.1167 73.9804 72.2162 74.9839C72.4548 77.3917 73.1894 79.3069 74.42 80.7294C75.9739 82.4665 78.1956 83.3351 81.0853 83.3351C83.4843 83.3351 85.3789 82.7009 86.7692 81.4325C88.1595 80.1366 88.8547 78.3994 88.8547 76.221Z" fill="#0A00D8"/>
<path d="M10.0338 13.6118C10.0338 11.8511 11.445 10.4237 13.1857 10.4237H55.5613C57.3021 10.4237 58.7133 11.8511 58.7133 13.6118V36.9517C59.6794 35.0941 60.9314 33.3682 62.4811 31.8007C64.1597 30.1028 66.0355 28.7255 68.0747 27.6459V3.32205C68.0747 2.01467 67.0269 0.954834 65.7343 0.954834H3.01272C1.72018 0.954834 0.672363 2.01467 0.672363 3.32205V77.6527C0.672363 78.9601 1.72018 80.0199 3.01272 80.0199H54.6535C54.1788 77.8321 53.9532 75.5362 53.9532 73.1601V70.551H13.1857C11.445 70.551 10.0338 69.1237 10.0338 67.3629V13.6118Z" fill="#0A00D8"/>
<path d="M23.0152 35.5162C21.2745 35.5162 19.8633 36.9436 19.8633 38.7043V41.797C19.8633 43.5577 21.2745 44.9851 23.0152 44.9851H46.1999C47.9406 44.9851 49.3518 43.5577 49.3518 41.797V38.7043C49.3518 36.9436 47.9406 35.5162 46.1999 35.5162H23.0152Z" fill="#0A00D8"/>
<path d="M19.8633 53.8544C19.8633 52.0936 21.2745 50.6663 23.0152 50.6663H46.1999C47.9406 50.6663 49.3518 52.0936 49.3518 53.8544V56.947C49.3518 58.7078 47.9406 60.1351 46.1999 60.1351H23.0152C21.2745 60.1351 19.8633 58.7078 19.8633 56.947V53.8544Z" fill="#0A00D8"/>
<path d="M23.0152 20.8394C21.2745 20.8394 19.8633 22.2668 19.8633 24.0275V27.1202C19.8633 28.8809 21.2745 30.3083 23.0152 30.3083H46.1999C47.9406 30.3083 49.3518 28.8809 49.3518 27.1202V24.0275C49.3518 22.2668 47.9406 20.8394 46.1999 20.8394H23.0152Z" fill="#0A00D8"/>
</svg>
