<svg width="101" height="101" viewBox="0 0 101 101" fill="none" xmlns="http://www.w3.org/2000/svg">
<path fill-rule="evenodd" clip-rule="evenodd" d="M50.8965 88.0801C71.8965 88.0801 88.9204 71.0562 88.9204 50.0562C88.9204 29.0561 71.8965 12.0322 50.8965 12.0322C29.8964 12.0322 12.8725 29.0561 12.8725 50.0562C12.8725 71.0562 29.8964 88.0801 50.8965 88.0801ZM50.8965 100.056C78.5107 100.056 100.896 77.6704 100.896 50.0562C100.896 22.4419 78.5107 0.0561523 50.8965 0.0561523C23.2822 0.0561523 0.896484 22.4419 0.896484 50.0562C0.896484 77.6704 23.2822 100.056 50.8965 100.056Z" fill="#0A00D8"/>
<path d="M78.2115 51.3488C79.5351 50.4491 79.5172 48.4924 78.1774 47.6171L39.0959 22.083C37.6044 21.1086 35.627 22.1787 35.627 23.9602L35.627 76.0601C35.627 77.8602 37.6412 78.9265 39.13 77.9145L78.2115 51.3488Z" fill="#0A00D8"/>
</svg>
