<svg width="91" height="101" viewBox="0 0 91 101" fill="none" xmlns="http://www.w3.org/2000/svg">
<path d="M39.023 11.0064C39.023 12.0613 38.4921 13.0453 37.6106 13.6247L13.9454 29.1784C13.0638 29.7577 12.533 30.7418 12.533 31.7967V60.3322C12.533 61.4933 11.8909 62.5592 10.8645 63.102L4.59803 66.416C2.51135 67.5195 0 66.0067 0 63.6462V25.0363C0 23.9814 0.530827 22.9973 1.41238 22.4179L34.1688 0.889241C36.2523 -0.480111 39.023 1.01438 39.023 3.5076L39.023 11.0064Z" fill="#0A00D8"/>
<path d="M51.3516 11.0064C51.3516 12.0613 51.8824 13.0453 52.7639 13.6247L76.4292 29.1784C77.3107 29.7577 77.8415 30.7418 77.8415 31.7967V60.3322C77.8415 61.4933 78.4836 62.5592 79.51 63.102L85.7765 66.416C87.8632 67.5195 90.3745 66.0067 90.3745 63.6462V25.0363C90.3745 23.9814 89.8437 22.9973 88.9622 22.4179L56.2057 0.889241C54.1222 -0.480111 51.3516 1.01438 51.3516 3.5076L51.3516 11.0064Z" fill="#0A00D8"/>
<path d="M15.7989 73.1695C16.7125 72.642 17.8302 72.6097 18.7727 73.0834L44.0751 85.8013C45.0177 86.2751 46.1353 86.2427 47.0489 85.7153L71.7613 71.4475C72.7669 70.867 74.011 70.8901 74.9943 71.5076L80.9975 75.2775C82.9966 76.5329 82.9421 79.4642 80.8979 80.6444L47.4607 99.9494C46.5471 100.477 45.4295 100.509 44.4869 100.035L9.46431 82.4318C7.23667 81.3121 7.14563 78.1655 9.30481 76.9188L15.7989 73.1695Z" fill="#0A00D8"/>
<path fill-rule="evenodd" clip-rule="evenodd" d="M61.1643 48.2517C58.1033 56.6026 51.918 57.1508 40.5519 57.0229V68.741H32V30.2707C33.3066 29.8413 35.5907 30.0514 37.2627 30.0514H49.3232L53.7087 30.9286C56.5231 32.0615 59.0447 34.1446 60.5066 36.6298C61.4748 38.2744 61.329 39.9007 61.822 42.1118C62.2881 44.2315 61.7579 46.6344 61.1643 48.2517ZM40.5519 50.2252V37.0684C46.1344 36.9496 51.2054 36.7577 52.8314 40.5768C53.3249 41.7372 53.3707 43.6742 53.051 44.9625C51.6258 50.7003 47.578 50.3805 40.5519 50.2252Z" fill="#0A00D8"/>
</svg>
