<svg width="101" height="99" viewBox="0 0 101 99" fill="none" xmlns="http://www.w3.org/2000/svg">
<path fill-rule="evenodd" clip-rule="evenodd" d="M46.702 88.4403C48.5027 87.4318 50.6982 87.4318 52.4989 88.4403L69.1088 97.7433C70.9095 98.7519 73.105 98.7519 74.9057 97.7433L97.1084 85.3078C98.9814 84.2588 100.141 82.2796 100.141 80.1329V55.5702C100.141 53.4235 98.9814 51.4443 97.1084 50.3953L81.9331 41.8958C80.0602 40.8467 78.9002 38.8676 78.9002 36.7208V18.6005C78.9002 16.4538 77.7402 14.4746 75.8673 13.4256L53.6645 0.990075C51.8638 -0.0184678 49.6684 -0.0184688 47.8677 0.990074L25.6649 13.4256C23.792 14.4746 22.632 16.4538 22.632 18.6005V35.4151C22.632 37.5618 21.472 39.541 19.5991 40.59L3.17429 49.7894C1.30132 50.8384 0.141357 52.8176 0.141357 54.9643V79.527C0.141357 81.6737 1.30132 83.6529 3.17429 84.7019L25.377 97.1374C27.1777 98.146 29.3732 98.146 31.1739 97.1374L46.702 88.4403ZM53.6645 14.9864C51.8638 13.9779 49.6684 13.9779 47.8677 14.9864L38.1597 20.4238C36.2867 21.4728 35.1268 23.452 35.1268 25.5987V36.0916C35.1268 38.2383 36.2867 40.2175 38.1597 41.2665L47.7838 46.6569C49.5845 47.6654 51.78 47.6654 53.5807 46.6569L63.3725 41.1726C65.2455 40.1236 66.4054 38.1444 66.4054 35.9977V25.5987C66.4054 23.452 65.2455 21.4728 63.3725 20.4238L53.6645 14.9864ZM59.4425 78.333C57.5695 77.2839 56.4096 75.3048 56.4096 73.158V62.7124C56.4096 60.5657 57.5695 58.5865 59.4425 57.5375L69.2582 52.0398C71.0589 51.0313 73.2544 51.0313 75.0551 52.0398L84.6136 57.3934C86.4866 58.4425 87.6466 60.4217 87.6466 62.5684V73.1347C87.6466 75.2814 86.4866 77.2606 84.6136 78.3096L74.9057 83.747C73.105 84.7555 70.9095 84.7555 69.1088 83.747L59.4425 78.333ZM25.3115 51.3869C27.1122 50.3784 29.3077 50.3784 31.1084 51.3869L40.8402 56.8376C42.7132 57.8867 43.8731 59.8659 43.8731 62.0126V72.5521C43.8731 74.6988 42.7132 76.678 40.8402 77.7271L31.1739 83.141C29.3732 84.1496 27.1777 84.1496 25.377 83.141L15.6691 77.7037C13.7961 76.6547 12.6362 74.6755 12.6362 72.5288V61.9625C12.6362 59.8158 13.7961 57.8366 15.6691 56.7875L25.3115 51.3869Z" fill="#0A00D8"/>
</svg>
