<svg width="101" height="101" viewBox="0 0 101 101" fill="none" xmlns="http://www.w3.org/2000/svg">
<path fill-rule="evenodd" clip-rule="evenodd" d="M0.652588 3.93733C0.652588 2.27882 2.00113 0.934326 3.66464 0.934326H97.9719C99.6094 0.934326 100.616 2.2385 100.653 3.87061V33.9006V97.9313C100.653 99.5898 99.3041 100.934 97.6405 100.934H3.66464C2.00113 100.934 0.652588 99.5898 0.652588 97.9313V3.93733ZM15.7128 12.9463C14.0493 12.9463 12.7008 14.2908 12.7008 15.9493V85.9193C12.7008 87.5778 14.0493 88.9223 15.7128 88.9223H85.5924C87.2559 88.9223 88.6044 87.5778 88.6044 85.9193V34.034V15.8826C88.568 14.2505 86.8259 12.9463 85.1885 12.9463H15.7128Z" fill="#0A00D8"/>
<path fill-rule="evenodd" clip-rule="evenodd" d="M60.3583 25.4639C60.8329 25.9318 60.8356 26.6951 60.3643 27.1663L37.7581 49.7676C36.5544 50.971 34.5898 50.9396 33.4254 49.6983L21.0961 36.5542C20.6537 36.0827 20.6644 35.3469 21.1202 34.8882L25.6757 30.3048C26.1651 29.8123 26.97 29.8341 27.432 30.3523L33.3689 37.0116C34.5202 38.303 36.5245 38.3618 37.75 37.14L54.0317 20.9072C54.5003 20.44 55.2594 20.4378 55.7307 20.9024L60.3583 25.4639Z" fill="#0A00D8"/>
<path fill-rule="evenodd" clip-rule="evenodd" d="M52.4078 52.5167C53.1506 51.7826 54.3497 51.7878 55.086 52.5284L79.3419 76.9236C80.0782 77.6641 80.073 78.8596 79.3302 79.5937L76.6403 82.2523C75.8975 82.9864 74.6984 82.9812 73.9621 82.2406L49.7062 57.8454C48.9699 57.1049 48.9751 55.9094 49.7179 55.1753L52.4078 52.5167Z" fill="#0A00D8"/>
<path fill-rule="evenodd" clip-rule="evenodd" d="M49.6115 79.4643C48.8752 78.7237 48.8804 77.5283 49.6232 76.7942L74.0918 52.6111C74.8346 51.877 76.0337 51.8822 76.7701 52.6228L79.4366 55.3046C80.1729 56.0452 80.1677 57.2407 79.4249 57.9748L54.9562 82.1578C54.2135 82.892 53.0144 82.8867 52.278 82.1462L49.6115 79.4643Z" fill="#0A00D8"/>
</svg>
