<svg width="101" height="101" viewBox="0 0 101 101" fill="none" xmlns="http://www.w3.org/2000/svg">
<path d="M100.15 73.2542C100.15 71.5757 98.7864 70.215 97.1041 70.215L3.19619 70.2149C1.51391 70.2149 0.150146 71.5756 0.150146 73.2541V86.7609C0.150146 88.4394 1.51391 89.8001 3.19619 89.8001H97.1041C98.7864 89.8001 100.15 88.4394 100.15 86.7609V73.2542Z" fill="#0A00D8"/>
<path fill-rule="evenodd" clip-rule="evenodd" d="M6.1981 95.9791C6.1981 94.3006 7.56186 92.9399 9.24414 92.9399L91.4744 92.94C93.1567 92.94 94.5204 94.3007 94.5204 95.9792V97.2206C94.5204 98.8991 93.1567 100.26 91.4744 100.26L9.24414 100.26C7.56185 100.26 6.1981 98.899 6.1981 97.2205V95.9791Z" fill="#0A00D8"/>
<path d="M68.2635 16.94C68.2635 33.5704 59.707 33.4588 56.931 66.2946H44.6792C40.8081 33.5589 32.4179 32.8667 32.4179 16.94C32.4179 4.36386 39.5553 0.259766 50.3407 0.259766C61.1261 0.259766 68.2635 3.8169 68.2635 16.94Z" fill="#0A00D8"/>
</svg>
