<svg width="101" height="101" viewBox="0 0 101 101" fill="none" xmlns="http://www.w3.org/2000/svg">
<path fill-rule="evenodd" clip-rule="evenodd" d="M70.5917 93.5271C83.0175 93.5271 93.0907 83.4372 93.0907 70.9907C93.0907 58.5442 83.0175 48.4542 70.5917 48.4542C58.1658 48.4542 48.0926 58.5442 48.0926 70.9907C48.0926 83.4372 58.1658 93.5271 70.5917 93.5271ZM70.5917 100.625C86.9312 100.625 100.177 87.3574 100.177 70.9907C100.177 54.624 86.9312 41.3562 70.5917 41.3562C54.2521 41.3562 41.0063 54.624 41.0063 70.9907C41.0063 87.3574 54.2521 100.625 70.5917 100.625Z" fill="#0A00D8"/>
<path d="M68.3384 74.9549C67.7281 74.9549 67.2174 74.4909 67.1581 73.8824L65.4998 56.8555C65.4318 56.1572 65.9797 55.5523 66.6801 55.5523H74.3064C75.0068 55.5523 75.5546 56.1572 75.4866 56.8555L73.8283 73.8824C73.769 74.4909 73.2583 74.9549 72.648 74.9549H68.3384Z" fill="#0A00D8"/>
<path d="M70.2176 87.023C67.7768 87.023 65.8084 85.0482 65.8084 82.5995C65.8084 80.1507 67.7768 78.0969 70.2176 78.1759C72.6585 78.1759 74.6269 80.1507 74.6269 82.5995C74.6269 85.0482 72.6585 87.023 70.2176 87.023Z" fill="#0A00D8"/>
<path d="M40.434 21.4891C41.7596 18.2727 42.8148 15.7124 42.8148 11.0841C42.8148 2.85565 38.3469 0.625244 31.5954 0.625244C24.8439 0.625244 20.3761 3.19861 20.3761 11.0841C20.3761 15.5937 21.447 18.1554 22.8449 21.4989C24.5426 25.5596 26.7224 30.7736 28.0514 42.0307H35.7208C36.6873 30.5801 38.7729 25.5195 40.434 21.4891Z" fill="#0A00D8"/>
<path d="M38.3498 56.7691C40.4317 52.0404 43.52 47.8562 47.3429 44.4888L2.08377 44.4887C1.03069 44.4887 0.177002 45.3419 0.177002 46.3944V54.8635C0.177002 55.9159 1.03069 56.7691 2.08377 56.7691H38.3498Z" fill="#0A00D8"/>
<path d="M37.5533 58.7379C37.0041 60.2232 36.5518 61.7557 36.2042 63.3276L5.86968 63.3275C4.8166 63.3275 3.96291 62.4744 3.96291 61.4219V60.6435C3.96291 59.591 4.8166 58.7379 5.86968 58.7379L37.5533 58.7379Z" fill="#0A00D8"/>
</svg>
