<svg width="101" height="101" viewBox="0 0 101 101" fill="none" xmlns="http://www.w3.org/2000/svg">
<path d="M67.3678 30.9163C67.3678 26.6705 77.096 26.9202 77.096 29.6675C77.096 33.5129 67.5629 33.7626 67.3678 30.9163Z" fill="#0A00D8"/>
<path d="M45.5699 31.8537C45.5699 27.1362 34.7607 27.4137 34.7607 30.4662C34.7607 34.7388 45.3531 35.0163 45.5699 31.8537Z" fill="#0A00D8"/>
<path fill-rule="evenodd" clip-rule="evenodd" d="M83.5645 59.4829C83.3748 59.5511 83.1896 59.6166 83.0085 59.6798C85.0761 60.6415 87.7428 61.3816 91.3764 61.6908C93.5722 61.8776 95.212 63.42 95.6208 65.3139C96.0541 67.3216 95.037 69.5299 92.7606 70.3859C89.6571 71.553 85.9 72.5928 82.287 72.998C80.4986 73.1986 78.5487 73.2672 76.6548 73.0227C76.4708 75.0614 76.2013 78.7794 76.2013 78.7794C76.2013 78.7794 75.3156 88.9123 74.3541 91.7585C73.339 94.763 71.5864 97.3417 68.4683 98.9949C65.5325 100.552 61.798 101.059 57.2902 100.958C55.4164 100.916 53.7437 100.309 52.3851 99.1825C51.0907 98.1094 50.2715 96.7249 49.7265 95.3913C48.6719 92.8104 47.9203 84.0658 47.9203 84.0658C47.9203 84.0658 47.6672 80.167 47.4115 78.4393C47.322 77.8349 47.223 77.3124 47.1194 76.8621C46.531 77.1261 45.9357 77.3616 45.3533 77.5723C43.2491 78.3335 40.8919 78.9169 38.6525 79.3252C36.4122 79.7336 34.1895 79.9847 32.3335 80.0462C31.4107 80.0768 30.5079 80.063 29.7037 79.9786C29.0465 79.9096 27.9252 79.7499 26.953 79.1688C26.5319 78.9171 25.9967 78.4945 25.5987 77.8192C25.1772 77.1039 25.0404 76.3253 25.1116 75.6097C25.2331 74.388 25.9295 73.5708 26.1765 73.2926C26.7704 72.6236 27.6127 72.0348 28.215 71.6277C28.7542 71.2633 30.5703 70.1063 30.5703 70.1063C30.5703 70.1063 32.3113 68.9847 33.1956 68.3654C35.002 67.1004 36.5988 65.787 37.6608 64.4632C38.0264 64.0074 38.2939 63.5954 38.483 63.2215C37.481 62.8304 36.4935 62.4046 35.5298 61.8566C30.9617 66.4378 26.63 69.0186 22.396 69.3154C17.0749 69.6883 13.3699 66.4366 10.9514 62.8084C8.53537 59.1839 6.87088 54.4618 5.62767 50.0903C4.80141 47.1849 4.09504 44.17 3.49504 41.6092C3.19966 40.3485 2.93 39.1976 2.68457 38.2242C0.556242 29.783 -0.0190574 22.829 0.819245 17.3092C1.66373 11.7486 3.99237 7.41764 7.83025 4.74932C11.6397 2.10078 16.364 1.4893 21.1888 2.19743C25.2979 2.80053 29.6704 4.37922 34.0662 6.7117C38.5016 3.30816 44.706 1.16147 51.4801 1.16147C55.1511 1.16147 59.2709 1.39852 63.1043 2.05959C65.8036 2.52509 68.5621 3.23317 70.9602 4.33817C72.1079 3.60384 73.8658 2.7053 75.3949 2.18386C78.4244 1.15075 82.3368 0.543193 86.2521 1.32794C90.287 2.13663 94.1965 4.4117 96.8838 8.85472C99.5019 13.1833 100.787 19.2775 100.374 27.5023C99.617 42.5678 96.3709 50.5547 91.2783 55.129C88.7613 57.3899 86.0209 58.5999 83.5645 59.4829ZM78.357 8.49993C80.3789 7.90483 82.6989 7.66214 84.8305 8.08937C87.0681 8.53784 89.2037 9.73141 90.7964 12.3645C92.4582 15.1121 93.6877 19.7016 93.3128 27.1641C92.5837 41.6762 89.4965 47.3503 86.4918 50.0493C85.0198 51.3715 83.3467 52.1892 81.3643 52.9174C81.8409 51.3844 82.343 49.6614 82.8252 47.8146C84.5752 41.113 86.2021 32.2855 85.0472 24.9665C84.7063 18.4018 83.0228 13.8768 80.5265 10.7343C79.8335 9.86204 79.1008 9.12564 78.357 8.49993ZM75.9748 46.1093C75.1393 49.3087 74.2378 52.1227 73.5392 54.1506C71.4464 53.1374 69.926 51.9464 68.8006 50.6895C67.1627 48.8604 66.1925 46.7029 65.6451 44.3056C65.091 41.8791 64.9857 39.2768 65.0432 36.632C65.0696 35.4163 65.1439 33.9291 65.2026 32.752C65.2648 31.5014 65.3247 30.2337 65.3247 29.0588C65.3247 28.2399 65.654 27.6274 66.5401 27.0348C67.548 26.3606 69.1505 25.8461 71.1093 25.664C73.0372 25.4847 74.9886 25.6587 76.4895 26.0715C77.409 26.3244 77.9113 26.5919 78.1638 26.7552C78.8764 32.5073 77.6159 39.8248 75.9748 46.1093ZM74.9402 14.9646C75.6792 15.8949 76.4236 17.2077 76.9979 19.0989C74.922 18.6953 72.6398 18.588 70.439 18.7926C67.7584 19.0419 64.8688 19.7857 62.5445 21.3404C60.0983 22.9767 58.2551 25.5637 58.2551 29.0588C58.2551 30.0408 58.2046 31.1458 58.1414 32.4173C58.0832 33.5801 58.0038 35.1703 57.9752 36.4856C57.913 39.3501 58.0102 42.5898 58.7449 45.8075C59.4862 49.0543 60.8909 52.3433 63.4782 55.2327C65.0089 56.942 66.895 58.4461 69.1825 59.706C68.6211 60.5972 68.2073 61.5587 67.9635 62.5474C67.347 65.0479 67.8285 67.8776 69.8512 69.9618C69.5285 73.0532 69.1408 78.4046 69.1408 78.4046C69.1408 78.4046 68.2982 87.649 67.6403 89.5963C67.0359 91.3851 66.2482 92.3176 65.0946 92.9292C63.7587 93.6375 61.49 94.1482 57.4527 94.0576C57.1182 94.0501 57.0241 93.9733 56.9609 93.9209C56.8336 93.8154 56.5761 93.5268 56.2928 92.8335C55.6908 91.3603 55.22 86.8359 54.9965 83.9228C54.9409 83.199 55.0481 84.7169 54.9965 83.9238L54.9965 83.9228C54.8574 81.7813 54.7074 79.4718 54.4083 77.4518C54.1263 75.547 53.646 73.2789 52.5252 71.3696C53.5491 67.3046 51.074 63.8263 49.2239 61.9176C48.8979 61.5813 48.5653 61.2639 48.2347 60.967C52.0022 57.1396 53.6328 51.714 54.3834 47.0255C55.217 41.8181 55.1065 36.5039 55.041 33.3575C55.0269 32.6791 55.0149 32.1012 55.0149 31.6472C55.0149 27.9657 54.0362 24.8525 51.9708 22.531C49.909 20.2136 47.1271 19.0931 44.3303 18.7038C40.8063 18.2133 36.9095 18.8212 33.2799 19.9845C33.7175 17.6825 35.2235 15.7221 37.0424 13.3535C39.9731 9.5371 45.2514 8.0639 51.4801 8.0639C54.8787 8.0639 58.5649 8.28604 61.8747 8.85681C65.2692 9.44218 69.452 11.4272 69.452 11.4272C69.452 11.4272 73.5719 13.2422 74.9402 14.9646ZM44.4157 67.0122C45.5481 68.2784 45.7783 69.1456 45.6154 69.8059C45.0799 70.174 44.1922 70.6313 42.8971 71.0998C41.9925 71.4271 40.9905 71.7241 39.9437 71.9847C41.1184 71.0107 42.2637 69.9194 43.2264 68.7193C43.6483 68.1935 44.0532 67.6233 44.4157 67.0122ZM47.3986 45.9597C46.5846 51.0444 44.9031 55.0425 42.0122 57.146C39.6058 56.2282 38.7099 55.8696 37.6335 54.7938L37.5941 54.7545L37.5535 54.7164C33.7441 51.1441 32.3836 46.0641 32.1442 40.4861C32.0257 37.7256 32.5723 30.4045 32.5723 30.4045C32.5723 30.4045 32.7468 28.4517 32.8124 27.5426C36.5265 25.9485 40.4411 25.1346 43.3325 25.5371C44.9263 25.759 45.9688 26.3102 46.6337 27.0575C47.2949 27.8008 47.9453 31.6472 47.9453 31.6472C47.9453 31.6472 48.1234 41.4321 47.3986 45.9597ZM25.8522 24.957C25.8522 24.957 25.7022 27.86 25.551 29.5516C25.4879 30.258 25.4202 31.0159 25.3531 31.8311C25.1332 34.5049 24.9441 37.5904 25.0808 40.7751C25.3111 46.1401 26.4815 52.1694 30.3471 57.1586C26.3627 61.1238 23.5948 62.3112 21.8898 62.4307C20.3011 62.542 18.674 61.7397 16.8766 59.0433C15.0768 56.3432 13.6415 52.4702 12.4396 48.2436C11.6507 45.4698 11.026 42.7979 10.4506 40.3369C10.1419 39.0164 9.8473 37.7565 9.54921 36.5742C7.54418 28.6221 7.15743 22.6341 7.81237 18.3216C8.46113 14.0498 10.081 11.6581 11.931 10.3719C13.8094 9.0659 16.5122 8.49102 20.1378 9.02317C22.789 9.41227 25.7922 10.3795 29.0196 11.9311C25.8314 16.7708 25.8522 24.957 25.8522 24.957ZM74.8368 64.163C74.9243 63.808 75.1049 63.4343 75.3668 63.0864C76.848 64.2486 78.5684 65.3242 80.6563 66.2187C78.0767 66.4158 75.0265 66.1945 74.8392 64.9817C74.7904 64.6656 74.7374 64.5658 74.8368 64.163Z" fill="#0A00D8"/>
</svg>
