<svg width="170" height="170" viewBox="0 0 170 170" fill="none" xmlns="http://www.w3.org/2000/svg">
<path d="M72.7257 73.2184C69.6024 72.787 67.2009 69.5393 67.3751 68.324C67.5286 67.1212 70.2163 66.4783 73.3354 66.9138C76.4586 67.3493 78.8643 68.6766 78.686 69.9002C78.5117 71.1238 75.8448 73.6539 72.7257 73.2184Z" fill="#0A00D8"/>
<path d="M121.88 67.2134C122.041 68.3866 119.723 71.5325 116.697 71.9543C113.672 72.3762 111.073 69.9254 110.92 68.7402C110.771 67.5549 113.081 66.2692 116.107 65.8474C119.128 65.4255 121.732 66.0483 121.88 67.2134Z" fill="#0A00D8"/>
<path fill-rule="evenodd" clip-rule="evenodd" d="M85 170C131.944 170 170 131.944 170 85C170 38.0558 131.944 0 85 0C38.0558 0 0 38.0558 0 85C0 131.944 38.0558 170 85 170ZM105.295 29.6558C116.159 35.3222 128.049 47.3609 130.915 57.3938C131.448 60.2669 130.827 63.6483 130.134 67.4292C129.674 69.9378 129.181 72.6224 128.972 75.451C128.859 76.9764 129.024 78.568 129.2 80.2634C129.489 83.0452 129.806 86.1063 128.972 89.6124C128.22 92.7681 126.321 97.2017 125.764 98.4695C125.667 98.6899 125.687 98.9418 125.824 99.1392C126.12 99.5635 126.726 100.395 127.678 101.538C129.456 103.671 158.891 82.0007 150.217 51.5538C145.991 36.72 132.876 24.5429 105.637 27.4929C104.554 27.6101 104.329 29.1521 105.295 29.6558ZM17.4269 82.5104C6.49932 35.0535 43.2712 23.9302 65.2264 33.8558C66.3105 34.3459 66.5148 35.7621 65.7087 36.6371C52.6706 50.7883 54.0741 63.8939 55.0559 73.062C55.3899 76.1813 55.6751 78.8448 55.3262 80.9386C53.436 92.2795 56.5305 103.731 69.0637 107.057C70.6305 107.473 71.1474 109.527 69.764 110.372C64.2784 113.722 53.8221 118.999 44.9897 117.008C30.4081 113.722 22.1959 103.221 17.4269 82.5104ZM87.1341 120.387C89.6427 113.976 86.2908 107.252 82.2475 106.076C81.7548 105.933 81.4263 105.386 81.6486 104.924C84.7546 98.4648 90.0226 86.8685 90.382 81.8235C90.8611 75.0969 90.382 65.3578 85.9565 60.4013C78.7249 52.3019 65.3417 57.4679 61.297 59.3004C60.7812 59.5341 60.1996 59.132 60.2932 58.5735C61.2062 53.1219 66.1346 32.2838 88.2545 31.0198C109.752 29.7914 121.657 50.6717 124.435 56.2286C124.703 56.7646 124.218 57.3454 123.633 57.2135C116.816 55.6748 88.7868 51.1081 106.13 85.0131C107.962 88.5955 112.325 93.4008 116.394 97.8814C118.36 100.047 120.257 102.136 121.766 103.975C122.11 104.394 121.856 105.029 121.344 105.209C114.625 107.558 116.484 119.862 120.85 121.916C121.289 122.122 121.665 122.503 121.669 122.988C121.756 131.644 113.256 151.024 112.873 151.892C112.861 151.921 112.853 151.937 112.84 151.965C108.961 160.218 96.0229 159.675 94.6271 153.338C93.8136 149.645 93.6873 147.248 93.5422 144.497C93.4042 141.879 93.2493 138.94 92.4688 134.257C91.43 128.024 89.2844 124.569 88.0413 122.568C87.3693 121.486 86.9611 120.829 87.1341 120.387ZM55.0933 126.007C67.6335 120.567 72.9056 117.691 77.3421 111.132C77.4759 110.934 77.702 110.807 77.9397 110.831C82.6471 111.3 83.1974 120.388 80.4258 122.294C69.9914 129.468 59.3047 128.126 55.1746 127.211C54.5395 127.07 54.4965 126.266 55.0933 126.007ZM151.036 109.121C152.137 109.016 153.196 108.914 154.193 108.827C154.886 108.766 155.2 109.594 154.634 109.998C149.697 113.527 135.602 122.503 124.784 118.609C119.983 115.052 124.428 106.439 127.985 108.295C132.895 110.857 143.07 109.883 151.036 109.121ZM77.2194 100.743C80.0209 95.9606 83.9902 89.1838 85.068 80.4077C86.2956 70.4117 83.8747 53.64 60.9377 64.3441C60.5513 64.5245 60.2974 64.9261 60.3164 65.3522C60.4073 67.3816 60.6872 73.3955 60.9937 77.5754C61.2472 81.0305 60.9066 84.4523 60.7318 86.2087C60.6779 86.7511 60.6397 87.1346 60.6397 87.3113C60.6397 99.5721 69.7231 101.953 74.8867 103.223C75.3591 103.339 75.8465 103.123 76.086 102.7C76.4291 102.093 76.8088 101.444 77.2129 100.754L77.2151 100.751L77.2157 100.75L77.2166 100.748L77.2194 100.743ZM111.09 82.532C113.285 86.9214 118.097 91.6924 120.942 94.5132L121.15 94.7195C121.451 95.0173 121.931 94.9858 122.152 94.6249C123.22 92.8753 125.749 87.6051 124.189 78.8146C124.189 78.8146 123.889 74.6598 124.189 71.9109C124.496 69.1044 125.426 65.2723 125.881 63.5005C126.021 62.9534 125.693 62.3785 125.155 62.2055C100.086 54.1393 105.847 72.0456 111.09 82.532Z" fill="#0A00D8"/>
</svg>
