<svg width="100" height="100" viewBox="0 0 100 100" fill="none" xmlns="http://www.w3.org/2000/svg">
<path d="M65.2804 33.2542C65.2804 41.1266 58.7602 47.5084 50.7172 47.5084C42.6741 47.5084 36.1539 41.1266 36.1539 33.2542C36.1539 25.3818 42.6741 19 50.7172 19C58.7602 19 65.2804 25.3818 65.2804 33.2542Z" fill="#0A00D8"/>
<path d="M50.7173 51.7319C43.5447 51.7319 37.2331 52.9201 32 55.8289L50 74.5L69.312 55.8289C64.1091 52.9346 57.8424 51.7319 50.7173 51.7319Z" fill="#0A00D8"/>
<path fill-rule="evenodd" clip-rule="evenodd" d="M0 49.6395V2.99577C0 1.34127 1.34046 3.55989e-05 2.99401 3.49836e-05L97.006 0C98.6596 -6.15315e-07 100 1.34124 100 2.99574V49.639C100 50.43 82.2449 68.9388 81.6878 69.5L52.1104 99.1154C50.9393 100.295 49.0321 100.295 47.8614 99.1148L0.86919 51.7501C0.312438 51.1889 0 50.4303 0 49.6395ZM47.8469 80.7809L13.9837 45.5768C13.4468 45.0187 13.1469 44.2741 13.1469 43.4994V15.7531C13.1469 14.0986 14.4873 12.7574 16.1409 12.7574H85.0567C86.7103 12.7574 88.0508 14.0986 88.0508 15.7531V42.8852C88.0508 43.6688 79.0479 54.4401 78.5 55L52.1433 80.7994C50.9621 82.0064 49.0177 81.998 47.8469 80.7809Z" fill="#0A00D8"/>
</svg>
