<svg width="101" height="101" viewBox="0 0 101 101" fill="none" xmlns="http://www.w3.org/2000/svg">
<path fill-rule="evenodd" clip-rule="evenodd" d="M50.4873 88.6511C71.4874 88.6511 88.5113 71.6272 88.5113 50.6272C88.5113 29.6271 71.4874 12.6032 50.4873 12.6032C29.4873 12.6032 12.4634 29.6271 12.4634 50.6272C12.4634 71.6272 29.4873 88.6511 50.4873 88.6511ZM50.4873 100.627C78.1015 100.627 100.487 78.2414 100.487 50.6272C100.487 23.013 78.1015 0.627197 50.4873 0.627197C22.8731 0.627197 0.487305 23.013 0.487305 50.6272C0.487305 78.2414 22.8731 100.627 50.4873 100.627Z" fill="#0A00D8"/>
<path d="M48.6491 21.3331C49.2192 19.5786 51.7013 19.5786 52.2714 21.3331L57.9386 38.775C58.1936 39.5597 58.9248 40.0909 59.7498 40.0909H78.0893C79.9341 40.0909 80.7012 42.4516 79.2087 43.5359L64.3717 54.3156C63.7042 54.8006 63.4249 55.6601 63.6799 56.4448L69.3471 73.8867C69.9172 75.6412 67.9091 77.1002 66.4166 76.0159L51.5796 65.2361C50.9121 64.7512 50.0084 64.7512 49.3409 65.2361L34.5039 76.0159C33.0114 77.1002 31.0033 75.6412 31.5734 73.8867L37.2406 56.4448C37.4956 55.6601 37.2163 54.8006 36.5488 54.3156L21.7118 43.5359C20.2194 42.4516 20.9864 40.0909 22.8312 40.0909H41.1707C41.9957 40.0909 42.7269 39.5597 42.9819 38.775L48.6491 21.3331Z" fill="#0A00D8"/>
</svg>
