<svg width="101" height="101" viewBox="0 0 101 101" fill="none" xmlns="http://www.w3.org/2000/svg">
<path fill-rule="evenodd" clip-rule="evenodd" d="M29.7618 32.0036C29.7618 31.6143 30.0255 31.2765 30.4045 31.2001C31.3151 31.0165 33.0674 30.7179 34.8327 30.7179C37.1691 30.7179 38.8297 31.0043 39.6565 31.1886C40.0148 31.2685 40.2533 31.5921 40.2533 31.9617V40.387C40.2533 40.5866 40.3921 40.7586 40.5853 40.8028C43.4748 41.4636 46.171 42.6365 48.5751 44.2217C48.7432 44.3325 48.9659 44.3113 49.108 44.1682L55.3638 37.8681C55.6371 37.5928 56.0607 37.5418 56.3824 37.7576C57.1552 38.2763 58.6039 39.3129 59.8522 40.5701C61.5043 42.2339 62.4774 43.6189 62.9326 44.338C63.1299 44.6497 63.0713 45.0483 62.8118 45.3097L56.3512 51.8161C56.2141 51.9542 56.1891 52.1687 56.2881 52.3367C57.7099 54.7483 58.7371 57.4236 59.28 60.2723C59.3184 60.4736 59.4922 60.6209 59.6958 60.6209L68.6959 60.6209C69.0629 60.6209 69.3842 60.8611 69.4635 61.2219C69.6465 62.0545 69.9309 63.7269 69.9309 66.0799C69.9309 67.8578 69.6344 69.6224 69.4521 70.5395C69.3762 70.9212 69.0408 71.1867 68.6543 71.1867H59.2666C59.0753 71.1867 58.9085 71.3172 58.8582 71.5032C58.2003 73.9347 57.184 76.2174 55.8699 78.2902C55.7628 78.4592 55.7849 78.6809 55.9257 78.8227L62.6342 85.5787C62.9075 85.8539 62.9582 86.2805 62.7439 86.6045C62.2289 87.3828 61.1995 88.8417 59.9512 90.0988C58.2991 91.7627 56.9238 92.7427 56.2098 93.2011C55.9003 93.3998 55.5045 93.3408 55.245 93.0795L48.424 86.2102C48.2855 86.0708 48.07 86.0466 47.9028 86.1492C45.7263 87.4853 43.3278 88.4906 40.776 89.0959C40.5844 89.1413 40.4474 89.3126 40.4474 89.5108V98.7481C40.4474 99.1374 40.1837 99.4751 39.8047 99.5515C38.894 99.7352 37.1418 100.034 35.3765 100.034C33.04 100.034 31.3794 99.7474 30.5527 99.5631C30.1943 99.4832 29.9558 99.1596 29.9558 98.79V89.5525C29.9558 89.3531 29.8173 89.1811 29.6241 89.1368C27.1317 88.5651 24.7833 87.6124 22.6423 86.3427C22.4757 86.2439 22.2634 86.2693 22.1267 86.407L15.6789 92.9005C15.4055 93.1758 14.982 93.2268 14.6603 93.0109C13.8874 92.4923 12.4388 91.4556 11.1905 90.1985C9.53838 88.5347 8.56524 87.1496 8.11003 86.4306C7.91274 86.1189 7.97133 85.7202 8.23083 85.4589L14.5041 79.1412C14.6466 78.9977 14.6673 78.7727 14.5564 78.6033C13.0681 76.3317 11.9411 73.7989 11.2578 71.0878C11.21 70.8983 11.0416 70.7641 10.8475 70.7641H2.17312C1.78655 70.7641 1.4512 70.4986 1.3753 70.1168C1.19297 69.1997 0.896484 67.4351 0.896484 65.6573C0.896484 63.3043 1.18086 61.6319 1.36387 60.7993C1.44318 60.4384 1.76453 60.1982 2.13152 60.1982L10.613 60.1982C10.8138 60.1982 10.9861 60.0549 11.0273 59.857C11.6236 56.9948 12.7102 54.3143 14.1946 51.9086C14.2987 51.74 14.2754 51.521 14.136 51.3806L7.98891 45.1899C7.71556 44.9146 7.66489 44.488 7.87925 44.1641C8.39424 43.3858 9.42359 41.9268 10.6719 40.6697C12.324 39.0059 13.6993 38.0259 14.4133 37.5674C14.7228 37.3687 15.1186 37.4277 15.3781 37.6891L21.5403 43.8949C21.6801 44.0357 21.8983 44.0588 22.0659 43.953C24.3054 42.5402 26.7869 41.4803 29.4334 40.8508C29.6249 40.8052 29.7618 40.634 29.7618 40.4359V32.0036ZM35.1123 81.843C44.3496 81.8152 51.7603 74.2465 51.7603 64.9715C51.7603 55.6965 44.3496 48.1279 35.1123 48.1001C25.8474 48.0722 18.3641 55.6689 18.3641 64.9715C18.3641 74.2742 25.8474 81.8709 35.1123 81.843Z" fill="#0A00D8"/>
<path fill-rule="evenodd" clip-rule="evenodd" d="M83.3222 0.595648C83.4239 0.351671 83.6773 0.209441 83.9348 0.26134C84.5535 0.386023 85.7295 0.660231 86.8359 1.12502C88.3001 1.74018 89.266 2.35687 89.736 2.69005C89.9397 2.83445 90.0047 3.10006 89.9081 3.33168L87.7078 8.61181C87.6557 8.73687 87.6977 8.88117 87.8073 8.95974C89.4455 10.1346 90.829 11.5796 91.9216 13.206C91.998 13.3197 92.1431 13.365 92.2695 13.3128L97.8353 11.0116C98.0785 10.911 98.3573 10.9906 98.5025 11.2105C98.8514 11.7391 99.4885 12.7701 99.9425 13.8866C100.543 15.3643 100.792 16.4885 100.889 17.059C100.931 17.3063 100.79 17.5407 100.56 17.6361L94.8116 20.0127C94.6896 20.0631 94.6179 20.191 94.6361 20.3223C94.8973 22.2081 94.8424 24.1551 94.4387 26.0833C94.4101 26.2196 94.4806 26.3576 94.6082 26.4112L100.249 28.7808C100.478 28.8774 100.617 29.1126 100.573 29.3596C100.47 29.9296 100.211 31.0525 99.5969 32.5271C99.1326 33.6413 98.4859 34.6691 98.1322 35.1958C97.9849 35.4151 97.7054 35.4932 97.4631 35.3914L91.5799 32.9198C91.46 32.8694 91.3214 32.9073 91.2413 33.0106C90.194 34.3612 88.961 35.5241 87.5962 36.4772C87.4849 36.5549 87.4409 36.6996 87.4921 36.8256L89.9319 42.8258C90.0313 43.0702 89.9516 43.3509 89.7327 43.4975C89.2067 43.8497 88.1806 44.493 87.07 44.9521C85.6001 45.5599 84.4823 45.812 83.9151 45.9113C83.6693 45.9543 83.4366 45.8131 83.3422 45.581L80.8615 39.4802C80.8111 39.3563 80.6823 39.2844 80.5508 39.3047C78.8379 39.569 77.0722 39.5675 75.3149 39.275C75.183 39.253 75.0524 39.3243 75.0006 39.4486L72.5883 45.2375C72.4866 45.4815 72.2332 45.6237 71.9757 45.5718C71.357 45.4471 70.1809 45.1729 69.0746 44.7081C67.6104 44.0929 66.6445 43.4762 66.1745 43.1431C65.9708 42.9987 65.9058 42.7331 66.0024 42.5014L68.4147 36.7124C68.4668 36.5874 68.4249 36.4432 68.3154 36.3646C66.9027 35.3501 65.6798 34.1346 64.6696 32.7752C64.591 32.6694 64.4513 32.6295 64.3297 32.6798L58.5931 35.0516C58.3499 35.1522 58.0711 35.0726 57.9259 34.8526C57.577 34.3241 56.9399 33.2931 56.4859 32.1766C55.885 30.6989 55.6369 29.5747 55.5394 29.0042C55.4971 28.7569 55.638 28.5225 55.8688 28.427L61.4501 26.1194C61.5769 26.067 61.6487 25.9315 61.6234 25.7961C61.2839 23.9806 61.2391 22.0966 61.5189 20.2177C61.5384 20.0864 61.4679 19.9579 61.3463 19.9068L55.9101 17.623C55.6678 17.5212 55.527 17.2665 55.5791 17.0073C55.7044 16.3845 55.9794 15.2006 56.4437 14.0864C57.0582 12.6118 57.6731 11.6386 58.0053 11.165C58.1492 10.9597 58.4133 10.8938 58.6433 10.9904L63.9587 13.2235C64.0845 13.2764 64.2299 13.2319 64.3074 13.1187C65.4286 11.482 66.8096 10.0882 68.3681 8.97142C68.4773 8.89313 68.52 8.74976 68.4692 8.62506L66.2336 3.12696C66.1342 2.88248 66.2138 2.60179 66.4328 2.4552C66.9588 2.10303 67.9849 1.45975 69.0955 1.00057C70.5653 0.392838 71.6832 0.140754 72.2504 0.0414485C72.4962 -0.00159032 72.7289 0.139614 72.8233 0.371718L75.0644 5.88325C75.1152 6.00831 75.246 6.08024 75.3786 6.0581C77.1511 5.76233 78.983 5.75143 80.8059 6.0537C80.9379 6.07557 81.0683 6.00432 81.1201 5.88013L83.3222 0.595648ZM73.6596 33.2385C79.4558 35.6531 86.0767 32.861 88.4989 27.0484C90.9211 21.2358 88.2534 14.5414 82.4717 12.0919C76.6727 9.63517 69.9991 12.4257 67.5697 18.2557C65.1403 24.0856 67.8461 30.8167 73.6596 33.2385Z" fill="#0A00D8"/>
</svg>
