<svg width="71" height="101" viewBox="0 0 71 101" fill="none" xmlns="http://www.w3.org/2000/svg">
<path d="M69.1274 68.1349C69.4706 68.1349 69.7601 67.8963 69.7943 67.5937C71.4034 53.3226 67.0003 48.0596 65.1957 46.536C64.8607 46.2532 64.3717 46.4339 64.2816 46.836C63.3747 50.8849 62.5216 53.7057 59.6414 55.4491C59.1663 55.7367 58.6043 55.3295 58.7556 54.8377C60.4394 49.3657 61.2031 45.7732 58.3652 38.5719C57.9215 37.446 57.5736 36.5265 57.2739 35.7344C56.0684 32.5483 55.6426 31.4231 52.8999 27.218C51.0694 24.4078 50.3859 19.1999 51.9732 14.3474C52.1684 13.7506 51.4163 13.2914 50.9603 13.7635C46.8411 18.0284 43.8543 25.7645 42.7186 32.5921C42.6042 33.2798 41.5874 33.3104 41.511 32.6185C41.436 31.9398 41.3674 31.247 41.2986 30.5519C41.0132 27.6682 40.7239 24.7448 39.9574 22.6216C38.8688 19.6077 37.7398 17.1235 36.7727 14.9955C34.6681 10.3645 33.0663 4.49785 34.5306 0.909826C34.715 0.457962 34.3417 -0.00270529 33.8778 0.246318C30.5458 2.03512 27.3091 9.94491 27.3091 14.384C27.3091 14.8461 27.3147 15.324 27.3205 15.8155C27.3699 20.0225 27.431 25.2208 24.0812 29.9421C23.7448 30.4161 22.9413 30.2002 22.8689 29.644C21.9275 22.4135 16.2462 18.9883 12.8521 18.2039C12.3712 18.0928 12.0053 18.5156 12.1728 18.9301C13.7452 22.8186 14.2663 26.7215 12.3484 31.3123C10.415 35.9399 9.98206 38.2894 9.85346 43.9288C9.75185 48.3851 11.273 51.7603 11.988 53.0921C12.1661 53.4238 11.983 53.8137 11.5686 53.8034C10.465 53.7762 8.4093 53.1465 6.85733 49.2879C6.69211 48.8772 6.1306 48.7444 5.82083 49.0833C4.19001 50.8674 0.289889 56.2973 0.154721 67.5328C0.150766 67.8615 0.451929 68.1349 0.822999 68.1349H69.1274Z" fill="#0A00D8"/>
<path fill-rule="evenodd" clip-rule="evenodd" d="M0.141602 73.987C0.141598 77.3333 0.943685 79.8867 2.50472 82.9151C2.60064 83.1012 2.69943 83.2891 2.80108 83.4791C4.55687 86.7607 7.13037 89.7425 10.3747 92.2541C13.6189 94.7657 17.4705 96.7581 21.7093 98.1174C25.9482 99.4766 30.4914 100.176 35.0795 100.176C39.6676 100.176 44.2108 99.4767 48.4496 98.1174C52.6885 96.7581 56.54 94.7657 59.7843 92.2541C63.0286 89.7425 65.6021 86.7607 67.3579 83.4791C67.4595 83.2891 67.5583 83.1013 67.6542 82.9152C69.2153 79.8867 70.0174 77.3333 70.0174 73.987L0.141602 73.987ZM55.9633 82.9152C55.1491 83.8343 54.2114 84.7115 53.1525 85.5313C50.8923 87.2811 48.1384 88.7221 45.0193 89.7223C41.9 90.7225 38.5191 91.2481 35.0795 91.2481C31.6399 91.2481 28.2589 90.7225 25.1396 89.7223C22.0205 88.7221 19.2666 87.281 17.0065 85.5313C15.9476 84.7115 15.0099 83.8343 14.1956 82.9151L55.9633 82.9152Z" fill="#0A00D8"/>
</svg>
