<svg width="101" height="101" viewBox="0 0 101 101" fill="none" xmlns="http://www.w3.org/2000/svg">
<path fill-rule="evenodd" clip-rule="evenodd" d="M75.6646 0.0937983L100.141 0.09375L100.141 24.6459H91.5148V15.3456L57.8712 47.8714L51.7713 41.8027L85.4149 9.27694L75.6646 9.27696V0.0937983Z" fill="#0A00D8"/>
<path fill-rule="evenodd" clip-rule="evenodd" d="M75.6646 100.094L100.141 100.094L100.141 75.5416H91.5148V84.8419L57.8712 52.3161L51.7713 58.3848L85.4149 90.9106L75.6646 90.9105V100.094Z" fill="#0A00D8"/>
<path fill-rule="evenodd" clip-rule="evenodd" d="M24.6181 0.0937983L0.141357 0.09375L0.141364 24.6459H8.76793L8.76793 15.3456L42.4115 47.8714L48.5114 41.8027L14.8679 9.27694L24.6181 9.27696V0.0937983Z" fill="#0A00D8"/>
<path fill-rule="evenodd" clip-rule="evenodd" d="M24.6181 100.094L0.141357 100.094L0.141364 75.5416H8.76793L8.76793 84.8419L42.4115 52.3161L48.5114 58.3848L14.8679 90.9106L24.6181 90.9105V100.094Z" fill="#0A00D8"/>
<path fill-rule="evenodd" clip-rule="evenodd" d="M50.2617 56.5215C53.9302 56.5215 56.9041 53.5628 56.9041 49.913C56.9041 46.2633 53.9302 43.3046 50.2617 43.3046C46.5931 43.3046 43.6192 46.2633 43.6192 49.913C43.6192 53.5628 46.5931 56.5215 50.2617 56.5215ZM50.2617 68.5368C60.6002 68.5368 68.9813 60.1986 68.9813 49.913C68.9813 39.6275 60.6002 31.2893 50.2617 31.2893C39.9231 31.2893 31.542 39.6275 31.542 49.913C31.542 60.1986 39.9231 68.5368 50.2617 68.5368Z" fill="#0A00D8"/>
</svg>
