<svg width="16" height="16" viewBox="0 0 16 16" fill="none" xmlns="http://www.w3.org/2000/svg">
<path fill-rule="evenodd" clip-rule="evenodd" d="M11.9865 0.0148392L15.8639 0.0148315V3.90428H14.4974V2.43097L9.16774 7.58357L8.20142 6.62219L13.5311 1.46959L11.9865 1.4696V0.0148392Z" fill="#0A00D8"/>
<path fill-rule="evenodd" clip-rule="evenodd" d="M11.9865 15.8565H15.8639V11.967H14.4974V13.4403L9.16774 8.28772L8.20142 9.2491L13.5311 14.4017L11.9865 14.4017V15.8565Z" fill="#0A00D8"/>
<path fill-rule="evenodd" clip-rule="evenodd" d="M3.8999 0.0148392L0.0223999 0.0148315L0.022401 3.90428H1.38899V2.43097L6.71866 7.58357L7.68498 6.62219L2.35532 1.46959L3.8999 1.4696V0.0148392Z" fill="#0A00D8"/>
<path fill-rule="evenodd" clip-rule="evenodd" d="M3.8999 15.8565H0.0223999L0.022401 11.967H1.38899V13.4403L6.71866 8.28772L7.68498 9.2491L2.35532 14.4017L3.8999 14.4017V15.8565Z" fill="#0A00D8"/>
<path fill-rule="evenodd" clip-rule="evenodd" d="M7.96226 8.9539C8.54341 8.9539 9.01452 8.4852 9.01452 7.90701C9.01452 7.32884 8.54341 6.86014 7.96226 6.86014C7.3811 6.86014 6.90998 7.32884 6.90998 7.90701C6.90998 8.4852 7.3811 8.9539 7.96226 8.9539ZM7.96226 10.8573C9.60004 10.8573 10.9277 9.53641 10.9277 7.90701C10.9277 6.27763 9.60004 4.95673 7.96226 4.95673C6.32446 4.95673 4.99677 6.27763 4.99677 7.90701C4.99677 9.53641 6.32446 10.8573 7.96226 10.8573Z" fill="#0A00D8"/>
</svg>
