<svg width="101" height="101" viewBox="0 0 101 101" fill="none" xmlns="http://www.w3.org/2000/svg">
<path fill-rule="evenodd" clip-rule="evenodd" d="M33.6375 26.0309C33.4234 25.9242 33.2236 25.7792 33.0486 25.5956L20.1843 11.8823C19.3783 11.0368 19.4142 9.70107 20.2645 8.89959L23.3415 5.99918C24.1915 5.19802 25.5333 5.2341 26.3385 6.07977L38.5153 19.0909C39.7055 18.0065 41.0314 17.0671 42.4646 16.3009C45.2096 14.8333 48.3486 14.0007 51.683 14.0007C54.75 14.0007 57.6516 14.7051 60.2334 15.9601C61.5978 16.6233 62.8728 17.4403 64.0357 18.3883L75.5436 6.07977C76.3488 5.2341 77.6906 5.19802 78.5405 5.99918L81.6176 8.89959C82.4679 9.70107 82.5038 11.0368 81.6978 11.8823L69.3117 25.0939C70.3995 27.3739 71.0538 29.8984 71.1683 32.5621H81.3515C82.5223 32.5621 83.4714 33.5064 83.4714 34.6713V38.8898C83.4714 40.0547 82.5223 40.999 81.3515 40.999H71.1864V49.0142C71.1864 49.5556 71.1641 50.0917 71.1204 50.6219L83.6823 63.4781C84.5007 64.3111 84.4855 65.6465 83.6483 66.4608L80.6163 69.4097C79.7791 70.224 78.4369 70.2088 77.6185 69.3757L68.0521 59.5685C64.5752 64.8957 58.5427 68.4193 51.683 68.4193C44.4316 68.4193 38.1045 64.4818 34.7436 58.6385L24.2636 69.3757C23.4451 70.2088 22.103 70.224 21.2657 69.4097L18.2338 66.4608C17.3966 65.6465 17.3813 64.3111 18.1997 63.4781L31.2697 50.1047C31.5328 49.837 31.85 49.6537 32.1871 49.5554C32.1821 49.3756 32.1796 49.1952 32.1796 49.0142V40.999H20.5306C19.3598 40.999 18.4107 40.0547 18.4107 38.8898V34.6713C18.4107 33.5064 19.3598 32.5621 20.5306 32.5621H32.1977C32.2968 30.2582 32.7996 28.0584 33.6375 26.0309ZM59.0922 33.4058V49.0142C59.0922 55.0717 51.683 56.4088 51.683 56.4088C51.683 56.4088 44.2739 55.0717 44.2739 49.0142V33.4058C44.2739 27.3483 51.683 26.0112 51.683 26.0112C51.683 26.0112 59.0922 27.3483 59.0922 33.4058Z" fill="#0A00D8"/>
<path d="M45.6066 11.4697C46.7879 11.1334 48.0098 10.8927 49.2633 10.7566C50.058 10.6703 50.8653 10.626 51.683 10.626C52.2013 10.626 52.7155 10.6438 53.2249 10.6788C54.7868 10.7861 56.3039 11.0553 57.7594 11.4697C59.148 11.8649 60.4805 12.3923 61.7424 13.0372C61.819 12.5257 61.8587 12.0023 61.8587 11.4697C61.8587 9.91679 61.5214 8.44231 60.9157 7.1148C60.0869 5.29851 58.7558 3.75734 57.0987 2.66693C55.4242 1.56502 53.4169 0.923431 51.259 0.923431C48.9503 0.923431 46.8139 1.65786 45.0731 2.90471C43.4676 4.05459 42.1986 5.64029 41.4409 7.48769C40.937 8.71633 40.6594 10.0607 40.6594 11.4697C40.6594 12.148 40.7237 12.8113 40.8467 13.454C42.3344 12.617 43.9297 11.947 45.6066 11.4697Z" fill="#0A00D8"/>
<path d="M19.5021 52.3777L14.2377 47.4727C13.704 46.9245 13.4059 46.1932 13.4059 45.4324V5.68806C13.4059 4.04342 12.0574 2.71017 10.3938 2.71017H3.35033C1.68681 2.71017 0.338257 4.04342 0.338257 5.68807V51.4628C0.338257 52.2394 0.648813 52.9845 1.20221 53.5356L10.3246 62.0427C10.5531 61.5997 10.8514 61.1827 11.2198 60.8077L19.5021 52.3777Z" fill="#0A00D8"/>
<path d="M25.6157 77.8276L47.9113 100.054C49.075 101.213 50.9707 101.213 52.1347 100.055L75.3534 77.2562C75.1801 77.1203 75.0137 76.9719 74.8555 76.8108L66.2626 68.0647L52.1674 82.0659C50.9934 83.2513 49.0606 83.2431 47.8969 82.0477L35.0056 68.6895L27.0266 76.8108C26.6058 77.239 26.1276 77.5781 25.6157 77.8276Z" fill="#0A00D8"/>
<path d="M82.5426 51.93L91.2647 60.8077C91.3959 60.9413 91.5183 61.0802 91.6318 61.2238L99.4737 53.5357C100.027 52.9845 100.338 52.2391 100.338 51.4623V5.68806C100.338 4.04342 98.9897 2.71017 97.3262 2.71017H91.4731C89.8095 2.71017 88.461 4.04342 88.461 5.68806V44.8292C88.461 45.5988 88.156 46.3377 87.6114 46.8876L82.5426 51.93Z" fill="#0A00D8"/>
</svg>
