<svg width="100" height="97" viewBox="0 0 100 97" fill="none" xmlns="http://www.w3.org/2000/svg">
<path fill-rule="evenodd" clip-rule="evenodd" d="M0.000244141 11.7138C0.000244141 4.26984 6.05045 0.235352 13.5138 0.235352H86.4867C93.95 0.235352 100 4.26984 100 11.7138C100 19.1577 93.95 23.1922 86.4867 23.1922H13.5138C6.05045 23.1922 0.000244141 19.1577 0.000244141 11.7138ZM24.6773 11.7138C24.6773 15.4357 21.6521 18.453 17.9205 18.453C14.1888 18.453 11.1637 15.4357 11.1637 11.7138C11.1637 7.99181 14.1888 4.97456 17.9205 4.97456C21.6521 4.97456 24.6773 7.99181 24.6773 11.7138ZM42.5247 11.7344C42.5247 15.417 39.5393 18.4023 35.8567 18.4023C32.1741 18.4023 29.1887 15.417 29.1887 11.7344C29.1887 8.05176 32.1741 5.06641 35.8567 5.06641C39.5393 5.06641 42.5247 8.05176 42.5247 11.7344Z" fill="#0A00D8"/>
<path fill-rule="evenodd" clip-rule="evenodd" d="M13.5138 29.9314C6.05045 29.9314 0.000244141 33.9659 0.000244141 41.4098C0.000244141 48.8537 6.05045 52.8882 13.5138 52.8882H86.4867C93.95 52.8882 100 48.8537 100 41.4098C100 33.9659 93.95 29.9314 86.4867 29.9314H13.5138ZM17.9205 48.149C21.6521 48.149 24.6773 45.1318 24.6773 41.4098C24.6773 37.6878 21.6521 34.6706 17.9205 34.6706C14.1888 34.6706 11.1637 37.6878 11.1637 41.4098C11.1637 45.1318 14.1888 48.149 17.9205 48.149ZM35.8567 47.9971C39.5393 47.9971 42.5247 45.0117 42.5247 41.3291C42.5247 37.6465 39.5393 34.6611 35.8567 34.6611C32.1741 34.6611 29.1887 37.6465 29.1887 41.3291C29.1887 45.0117 32.1741 47.9971 35.8567 47.9971Z" fill="#0A00D8"/>
<path fill-rule="evenodd" clip-rule="evenodd" d="M57.803 51.0991H45.803V61.2594C40.6885 63.0671 36.6349 67.1207 34.8272 72.2352H5.21118C4.10661 72.2352 3.21118 73.1306 3.21118 74.2352V82.2352C3.21118 83.3398 4.10661 84.2352 5.21118 84.2352H34.8272C37.2982 91.2263 43.9657 96.2352 51.803 96.2352C59.6482 96.2352 66.3212 91.2162 68.7862 84.214C68.8817 84.228 68.9794 84.2352 69.0788 84.2352H95.1111C96.2157 84.2352 97.1111 83.3398 97.1111 82.2352V74.2352C97.1111 73.1306 96.2157 72.2352 95.1111 72.2352H69.0788C68.9794 72.2352 68.8817 72.2424 68.7862 72.2564C66.9823 67.1319 62.9245 63.0696 57.803 61.2594V51.0991ZM58.803 78.2352C58.803 82.1012 55.669 85.2352 51.803 85.2352C47.937 85.2352 44.803 82.1012 44.803 78.2352C44.803 74.3692 47.937 71.2352 51.803 71.2352C55.669 71.2352 58.803 74.3692 58.803 78.2352Z" fill="#0A00D8"/>
</svg>
