<svg width="94" height="101" viewBox="0 0 94 101" fill="none" xmlns="http://www.w3.org/2000/svg">
<path d="M66.2036 36.2743C66.6778 35.7988 66.675 35.0285 66.1975 34.5564L61.5419 29.9533C61.0678 29.4846 60.304 29.4867 59.8326 29.9582L43.452 46.3387C42.2191 47.5716 40.2027 47.5123 39.0443 46.2091L33.0714 39.4892C32.6066 38.9663 31.7969 38.9444 31.3044 39.4413L26.7213 44.0665C26.2627 44.5292 26.252 45.2717 26.697 45.7476L39.1012 59.0113C40.2726 60.2639 42.2492 60.2956 43.4602 59.0812L66.2036 36.2743Z" fill="#0A00D8"/>
<path fill-rule="evenodd" clip-rule="evenodd" d="M16.7219 62.8864L8.03443 56.9753C6.89178 56.1978 6.41996 54.7457 6.88739 53.445L10.4412 43.5564C10.6793 42.8939 10.6793 42.1692 10.4412 41.5067L6.88739 31.6181C6.41995 30.3175 6.89178 28.8653 8.03444 28.0878L16.7219 22.1767C17.3039 21.7807 17.7299 21.1943 17.9267 20.5184L20.864 10.4295C21.2503 9.10249 22.4856 8.20503 23.867 8.24767L34.3698 8.57182C35.0734 8.59353 35.7627 8.36958 36.3192 7.9384L44.6256 1.50277C45.7182 0.656301 47.245 0.656302 48.3376 1.50278L56.644 7.9384C57.2005 8.36958 57.8898 8.59353 58.5934 8.57182L69.0962 8.24767C70.4776 8.20503 71.7129 9.1025 72.0992 10.4295L75.0365 20.5184C75.2333 21.1943 75.6593 21.7807 76.2413 22.1767L84.9288 28.0878C86.0714 28.8653 86.5432 30.3175 86.0758 31.6181L82.522 41.5067C82.2839 42.1692 82.2839 42.8939 82.522 43.5564L86.0758 53.445C86.5433 54.7457 86.0714 56.1978 84.9288 56.9753L76.2413 62.8864C75.6593 63.2825 75.2333 63.8688 75.0365 64.5447L72.0992 74.6336C71.7129 75.9606 70.4776 76.8581 69.0962 76.8155L58.5934 76.4913C57.8898 76.4696 57.2005 76.6935 56.644 77.1247L48.3376 83.5603C47.245 84.4068 45.7182 84.4068 44.6256 83.5603L36.3192 77.1247C35.7627 76.6935 35.0734 76.4696 34.3698 76.4913L23.867 76.8155C22.4856 76.8581 21.2503 75.9606 20.864 74.6336L17.9267 64.5447C17.7299 63.8688 17.3039 63.2825 16.7219 62.8864ZM46.4816 13.8652L43.0007 16.5621C40.4408 18.5455 37.2701 19.5757 34.0333 19.4758L29.6319 19.34L28.401 23.5679C27.4958 26.6772 25.5362 29.3743 22.8589 31.196L19.2183 33.6732L20.7075 37.8171C21.8028 40.8647 21.8028 44.1985 20.7075 47.246L19.2183 51.39L22.8589 53.8671C25.5362 55.6888 27.4958 58.3859 28.401 61.4953L29.6319 65.7231L34.0333 65.5873C37.2701 65.4874 40.4407 66.5176 43.0007 68.501L46.4816 71.1979L49.9625 68.501C52.5224 66.5176 55.6931 65.4874 58.9299 65.5873L63.3313 65.7231L64.5622 61.4953C65.4674 58.386 67.427 55.6888 70.1043 53.8671L73.7449 51.39L72.2557 47.246C71.1604 44.1985 71.1604 40.8647 72.2557 37.8171L73.7449 33.6732L70.1043 31.196C67.427 29.3743 65.4674 26.6772 64.5622 23.5679L63.3313 19.34L58.9299 19.4758C55.6931 19.5757 52.5225 18.5455 49.9625 16.5621L46.4816 13.8652Z" fill="#0A00D8"/>
<path d="M0.386397 86.3687L14.493 71.8367C15.1198 71.1911 16.2068 71.4294 16.5059 72.278L18.4222 77.7136C18.8262 78.8595 19.8756 79.6533 21.0882 79.7303L26.6544 80.0836C27.4964 80.1371 28.0276 81.0131 27.6858 81.7845L19.5482 100.147C19.1315 101.087 17.8069 101.114 17.3526 100.191L12.5818 90.5032C12.4034 90.141 12.0564 89.8913 11.6562 89.8374L1.09427 88.4142C0.108172 88.2813 -0.306656 87.0826 0.386397 86.3687Z" fill="#0A00D8"/>
<path d="M78.7314 71.8367L92.8381 86.3687C93.5311 87.0826 93.1163 88.2813 92.1302 88.4142L81.5683 89.8374C81.1681 89.8913 80.8211 90.141 80.6427 90.5032L75.8719 100.191C75.4176 101.114 74.093 101.087 73.6763 100.147L65.5387 81.7845C65.1969 81.0131 65.7281 80.1371 66.5701 80.0836L72.1363 79.7303C73.3489 79.6533 74.3983 78.8595 74.8022 77.7136L76.7185 72.278C77.0177 71.4294 78.1047 71.1911 78.7314 71.8367Z" fill="#0A00D8"/>
</svg>
