<svg width="101" height="101" viewBox="0 0 101 101" fill="none" xmlns="http://www.w3.org/2000/svg">
<path d="M44.9576 59.6872C44.9423 60.1051 45.2829 60.4445 45.7011 60.4445H55.4918C55.91 60.4445 56.2461 60.1051 56.2722 59.6877C56.3785 57.9828 56.8508 56.4922 57.6891 55.2159C58.7025 53.7541 60.2227 52.0674 62.2496 50.1559C63.9031 48.5817 65.2365 47.2042 66.25 46.0236C67.2634 44.7867 68.1168 43.2968 68.8102 41.5539C69.557 39.8111 69.9303 37.7871 69.9303 35.482C69.9303 30.7031 68.1435 26.9644 64.5698 24.2657C61.0494 21.5108 56.3023 20.1334 50.3284 20.1334C45.4212 20.1334 41.1541 21.0329 37.5271 22.832C34.1076 24.4752 31.2806 26.8181 29.0463 29.8605C28.8151 30.1755 28.8749 30.6141 29.1741 30.8654L35.7642 36.4009C36.108 36.6896 36.6252 36.616 36.8954 36.2574C39.815 32.3839 43.9993 30.4472 49.4483 30.4472C50.9418 30.4472 54.6078 31.2788 55.585 32.0369C56.5622 32.7951 58.3053 34.9054 58.3053 37.1686C58.3053 38.8553 57.8252 40.3733 56.8651 41.7226C55.9584 43.0157 54.5449 44.5618 52.6247 46.3609C50.1178 48.7222 48.1976 50.9149 46.8641 52.9389C45.692 54.7405 45.0565 56.99 44.9576 59.6872Z" fill="#0A00D8"/>
<path d="M44.852 78.7447C46.0788 79.9816 48.2037 81.3293 50.6365 81.203C52.807 81.0903 54.5155 79.9816 55.6889 78.7447C56.9157 77.4516 57.5291 75.8774 57.5291 74.0221C57.5291 72.1668 56.9157 70.6207 55.6889 69.3838C54.5155 68.1469 52.807 67.0382 50.6365 66.9255C48.2037 66.7992 46.0788 68.1469 44.852 69.3838C43.6785 70.6207 43.0918 72.1668 43.0918 74.0221C43.0918 75.8774 43.6785 77.4516 44.852 78.7447Z" fill="#0A00D8"/>
<path fill-rule="evenodd" clip-rule="evenodd" d="M100.163 50.3729C100.163 77.9872 77.7768 100.373 50.1626 100.373C22.5484 100.373 0.162598 77.9872 0.162598 50.3729C0.162598 22.7587 22.5484 0.37291 50.1626 0.37291C77.7768 0.37291 100.163 22.7587 100.163 50.3729ZM88.1865 50.3729C88.1865 71.373 71.1626 88.3969 50.1626 88.3969C29.1625 88.3969 12.1386 71.373 12.1386 50.3729C12.1386 29.3729 29.1625 12.349 50.1626 12.349C71.1626 12.349 88.1865 29.3729 88.1865 50.3729Z" fill="#0A00D8"/>
</svg>
