<svg width="88" height="90" viewBox="0 0 88 90" fill="none" xmlns="http://www.w3.org/2000/svg">
<path d="M77.1831 17.7359C67.1703 2.02233 46.29 -1.75222 30.75 2.67037C21.9237 5.18229 14.3473 10.9967 9.08429 17.8036C3.88277 24.5311 0.400348 32.9524 0.875502 41.0759L13.2594 40.4549C13.0182 36.3323 14.8672 30.8459 18.8628 25.6781C22.797 20.5897 28.2836 16.5211 34.2041 14.8362C46.2632 11.4042 59.9265 14.8637 66.3045 23.8238L58.9229 21.3754L56.2566 29.95L80.0477 38.5034L87.6753 13.9734L79.2246 11.1704L77.1831 17.7359Z" fill="#0A00D8"/>
<path d="M75.3809 49.8486C75.9793 61.8929 65.2055 73.1841 52.0099 76.502C46.0401 78.0031 39.2544 77.2228 33.3031 74.7833C28.112 72.6554 24.1748 69.5323 21.9932 66.3549L29.4504 68.4231L31.6973 59.7208L7.53334 52.3664L1.10569 77.2616L9.67744 79.6388L11.4224 72.8803C15.3464 78.9601 21.8077 83.6373 28.7718 86.492C36.7332 89.7555 46.2017 91.0027 55.1015 88.7649C71.6451 84.6052 88.7753 69.5558 87.7709 49.3405L75.3809 49.8486Z" fill="#0A00D8"/>
</svg>
