<svg width="101" height="101" viewBox="0 0 101 101" fill="none" xmlns="http://www.w3.org/2000/svg">
<path fill-rule="evenodd" clip-rule="evenodd" d="M6.9078 20.5612H13.1104C16.8474 20.5612 19.8768 17.6197 19.8768 13.9913V7.96884C19.8768 4.34037 16.8474 1.39891 13.1104 1.39891H6.9078C3.1708 1.39891 0.141357 4.34037 0.141357 7.96884V13.9913C0.141357 17.6197 3.1708 20.5612 6.9078 20.5612Z" fill="#0A00D8"/>
<path fill-rule="evenodd" clip-rule="evenodd" d="M6.9078 73.4026H13.1104C16.8474 73.4026 19.8768 70.4611 19.8768 66.8327V60.8102C19.8768 57.1818 16.8474 54.2403 13.1104 54.2403H6.9078C3.1708 54.2403 0.141357 57.1818 0.141357 60.8102V66.8327C0.141357 70.4611 3.1708 73.4026 6.9078 73.4026Z" fill="#0A00D8"/>
<path fill-rule="evenodd" clip-rule="evenodd" d="M6.9078 100.114H13.1104C16.8474 100.114 19.8768 97.1722 19.8768 93.5437V87.5213C19.8768 83.8928 16.8474 80.9514 13.1104 80.9514H6.9078C3.1708 80.9514 0.141357 83.8928 0.141357 87.5213V93.5437C0.141357 97.1722 3.1708 100.114 6.9078 100.114Z" fill="#0A00D8"/>
<path fill-rule="evenodd" clip-rule="evenodd" d="M70.1149 73.1089L74.5945 68.7595C77.2933 66.139 77.2933 61.8904 74.5945 59.2699L70.1149 54.9204C67.416 52.2999 63.0403 52.2999 60.3414 54.9204L55.8619 59.2699C53.163 61.8904 53.163 66.139 55.8619 68.7595L60.3414 73.1089C63.0403 75.7294 67.416 75.7294 70.1149 73.1089Z" fill="#0A00D8"/>
<path fill-rule="evenodd" clip-rule="evenodd" d="M70.1149 20.2675L74.5945 15.9181C77.2933 13.2976 77.2933 9.04894 74.5945 6.42845L70.1149 2.07902C67.416 -0.541477 63.0403 -0.541477 60.3414 2.07902L55.8619 6.42845C53.163 9.04894 53.163 13.2976 55.8619 15.9181L60.3414 20.2675C63.0403 22.888 67.416 22.888 70.1149 20.2675Z" fill="#0A00D8"/>
<path fill-rule="evenodd" clip-rule="evenodd" d="M93.6377 45.2366L98.1172 40.8871C100.816 38.2666 100.816 34.018 98.1172 31.3975L93.6377 27.048C90.9388 24.4275 86.563 24.4275 83.8641 27.048L79.3846 31.3975C76.6857 34.018 76.6857 38.2666 79.3846 40.8871L83.8641 45.2366C86.563 47.8571 90.9388 47.8571 93.6377 45.2366Z" fill="#0A00D8"/>
<path fill-rule="evenodd" clip-rule="evenodd" d="M7.01887 46.6915H13.2214C16.9584 46.6915 19.9879 43.7501 19.9879 40.1216V34.0992C19.9879 30.4707 16.9584 27.5293 13.2214 27.5293H7.01887C3.28186 27.5293 0.252422 30.4707 0.252422 34.0992V40.1216C0.252422 43.7501 3.28186 46.6915 7.01887 46.6915Z" fill="#0A00D8"/>
<path fill-rule="evenodd" clip-rule="evenodd" d="M34.4178 100.114H40.6204C44.3574 100.114 47.3869 97.1722 47.3869 93.5437V87.5213C47.3869 83.8928 44.3574 80.9514 40.6204 80.9514H34.4178C30.6808 80.9514 27.6514 83.8928 27.6514 87.5213V93.5437C27.6514 97.1722 30.6808 100.114 34.4178 100.114Z" fill="#0A00D8"/>
<path fill-rule="evenodd" clip-rule="evenodd" d="M61.7399 100.114H67.9425C71.6795 100.114 74.7089 97.1722 74.7089 93.5437V87.5213C74.7089 83.8928 71.6795 80.9514 67.9425 80.9514H61.7399C58.0029 80.9514 54.9735 83.8928 54.9735 87.5213V93.5437C54.9735 97.1722 58.0029 100.114 61.7399 100.114Z" fill="#0A00D8"/>
<path fill-rule="evenodd" clip-rule="evenodd" d="M87.0457 100.114H93.2483C96.9853 100.114 100.015 97.1722 100.015 93.5437V87.5213C100.015 83.8928 96.9853 80.9514 93.2483 80.9514H87.0457C83.3087 80.9514 80.2793 83.8928 80.2793 87.5213V93.5437C80.2793 97.1722 83.3087 100.114 87.0457 100.114Z" fill="#0A00D8"/>
<path fill-rule="evenodd" clip-rule="evenodd" d="M34.4178 73.2201H40.6204C44.3574 73.2201 47.3869 70.2786 47.3869 66.6502V60.6277C47.3869 56.9993 44.3574 54.0578 40.6204 54.0578H34.4178C30.6808 54.0578 27.6514 56.9993 27.6514 60.6277V66.6502C27.6514 70.2786 30.6808 73.2201 34.4178 73.2201Z" fill="#0A00D8"/>
<path fill-rule="evenodd" clip-rule="evenodd" d="M34.4178 46.874H40.6204C44.3574 46.874 47.3869 43.9326 47.3869 40.3041V34.2817C47.3869 30.6532 44.3574 27.7118 40.6204 27.7118H34.4178C30.6808 27.7118 27.6514 30.6532 27.6514 34.2817V40.3041C27.6514 43.9326 30.6808 46.874 34.4178 46.874Z" fill="#0A00D8"/>
</svg>
