<svg width="101" height="101" viewBox="0 0 101 101" fill="none" xmlns="http://www.w3.org/2000/svg">
<path fill-rule="evenodd" clip-rule="evenodd" d="M100.012 36.3554C100.268 36.0882 100.684 36.4169 100.5 36.7419L64.6115 100.364C64.4931 100.574 64.2005 100.577 64.0785 100.369L38.8306 57.4306C38.6601 57.1407 38.9858 56.812 39.2626 56.9946L64.138 73.4055C64.2612 73.4867 64.4225 73.4682 64.5253 73.3609L100.012 36.3554Z" fill="#0A00D8"/>
<path d="M37.3787 0.821384C51.7731 -0.978087 69.7371 5.32148 76.3813 20.8157L79.1204 15.2104L86.2101 18.9041L75.9764 39.8466L56.1108 28.8536L59.688 21.5331L65.8807 24.7595C61.4999 15.8313 49.885 10.8213 38.715 12.2177C33.2309 12.9032 27.7936 15.7878 23.587 19.8039C19.3148 23.8826 16.8993 28.5466 16.5287 32.2789L5.46921 31.1082C6.19937 23.754 10.478 16.6848 16.0396 11.3751C21.6668 6.00264 29.2031 1.84344 37.3787 0.821384Z" fill="#0A00D8"/>
<path d="M38.4071 69.5222C35.2669 68.8322 32.1906 67.5691 29.422 65.8726C25.1245 63.2393 22.0789 59.8882 20.5963 56.7332L26.91 59.6291L30.1337 52.1355L9.76783 42.1662L0.545532 63.6037L7.80281 66.9324L10.3065 61.1125C12.9214 67.1144 17.983 72.212 23.7484 75.7447C30.0452 79.6031 37.9529 82.5084 45.7983 82.0922L38.4071 69.5222Z" fill="#0A00D8"/>
</svg>
