<svg width="172" height="167" viewBox="0 0 172 167" fill="none" xmlns="http://www.w3.org/2000/svg">
<path fill-rule="evenodd" clip-rule="evenodd" d="M170.504 59.9693C170.944 59.5257 171.656 60.0714 171.341 60.6108L109.824 166.228C109.621 166.576 109.119 166.581 108.91 166.236L65.6319 94.9554C65.3397 94.4743 65.898 93.9286 66.3724 94.2317L109.012 121.475C109.223 121.61 109.5 121.579 109.676 121.401L170.504 59.9693Z" fill="#0A00D7"/>
<path d="M63.1432 0.980428C87.817 -2.00681 118.61 8.45089 129.999 34.1723L134.694 24.8672L146.846 30.999L129.305 65.7649L95.2523 47.5158L101.384 35.3632L111.999 40.7193C104.49 25.8978 84.5806 17.5809 65.4337 19.899C56.0333 21.0371 46.7131 25.8257 39.5025 32.4926C32.1793 39.2636 28.0388 47.0062 27.4037 53.202L8.44627 51.2585C9.69787 39.05 17.0319 27.3148 26.5652 18.5003C36.2111 9.58166 49.1291 2.67711 63.1432 0.980428Z" fill="#0A00D7"/>
<path d="M64.906 115.028C59.5233 113.883 54.2501 111.786 49.5044 108.97C42.138 104.598 36.9174 99.0352 34.376 93.7977L45.1985 98.6051L50.7244 86.1653L15.8147 69.6155L0.00646973 105.203L12.4464 110.729L16.738 101.068C21.2203 111.031 29.8966 119.494 39.7791 125.358C50.5726 131.763 64.1274 136.586 77.5754 135.895L64.906 115.028Z" fill="#0A00D7"/>
</svg>
