<svg width="87" height="101" viewBox="0 0 87 101" fill="none" xmlns="http://www.w3.org/2000/svg">
<path fill-rule="evenodd" clip-rule="evenodd" d="M15.1898 12.7696C13.5362 12.7696 12.1958 14.1101 12.1958 15.7636V85.8235C12.1958 87.4771 13.5362 88.8175 15.1898 88.8175H71.4772C73.1307 88.8175 74.4712 87.4771 74.4712 85.8235V15.7636C74.4712 14.1101 73.1307 12.7696 71.4772 12.7696H15.1898ZM3.21374 0.793579C1.56019 0.793579 0.219727 2.13404 0.219727 3.78759V97.7996C0.219727 99.4531 1.56019 100.794 3.21374 100.794H83.4532C85.1068 100.794 86.4473 99.4531 86.4473 97.7996V3.78759C86.4473 2.13404 85.1068 0.793579 83.4532 0.793579H3.21374Z" fill="#0A00D8"/>
<path fill-rule="evenodd" clip-rule="evenodd" d="M24.7706 47.5002C24.7706 45.8466 26.1111 44.5062 27.7646 44.5062H59.5011C61.1547 44.5062 62.4952 45.8466 62.4952 47.5002V53.4882C62.4952 55.1417 61.1547 56.4822 59.5011 56.4822H27.7646C26.1111 56.4822 24.7706 55.1417 24.7706 53.4882V47.5002Z" fill="#0A00D8"/>
<path fill-rule="evenodd" clip-rule="evenodd" d="M24.7706 66.6618C24.7706 65.0083 26.1111 63.6678 27.7646 63.6678H59.5011C61.1547 63.6678 62.4952 65.0083 62.4952 66.6618V72.6499C62.4952 74.3034 61.1547 75.6439 59.5011 75.6439H27.7646C26.1111 75.6439 24.7706 74.3034 24.7706 72.6499V66.6618Z" fill="#0A00D8"/>
<path fill-rule="evenodd" clip-rule="evenodd" d="M24.7706 28.9373C24.7706 27.2837 26.1111 25.9433 27.7646 25.9433H59.5011C61.1547 25.9433 62.4952 27.2837 62.4952 28.9373V34.9253C62.4952 36.5789 61.1547 37.9193 59.5011 37.9193H27.7646C26.1111 37.9193 24.7706 36.5789 24.7706 34.9253V28.9373Z" fill="#0A00D8"/>
</svg>
