<svg width="101" height="101" viewBox="0 0 101 101" fill="none" xmlns="http://www.w3.org/2000/svg">
<path d="M51.4519 12.4018C29.6466 12.4018 12.941 27.8627 12.941 48.1455V63.2972C13.0038 63.2611 13.063 63.2179 13.1173 63.1682L22.2167 54.8427C22.6134 54.4797 23.2261 54.4954 23.6037 54.8783L28.9313 60.2802C29.3261 60.6805 29.3138 61.3275 28.904 61.7124L7.6965 81.6311C7.30338 82.0003 6.68846 81.9913 6.30626 81.6108L0.938232 76.2662V48.0342C0.999556 20.2947 23.9732 0.394531 51.4519 0.394531C65.2855 0.394531 77.779 5.46483 86.7957 14.9717C95.8038 24.4695 100.938 37.9607 100.938 54.1199C100.938 62.4458 98.4986 74.1851 90.9468 83.8517C83.1733 93.8021 70.453 100.933 51.3604 100.363H19.6335C18.5287 100.363 17.6331 99.4673 17.6331 98.362V90.3559C17.6331 89.2507 18.5287 88.3553 19.6335 88.3553H51.5454L51.6388 88.3582C67.2233 88.8439 76.216 83.2081 81.4895 76.4579C86.9976 69.4074 88.9354 60.486 88.9354 54.1199C88.9354 40.5322 84.6575 30.1625 78.0884 23.2362C71.5277 16.3189 62.2788 12.4018 51.4519 12.4018Z" fill="#0A00D8"/>
<path d="M0.938232 93.9386C0.964395 97.5082 3.86514 100.394 7.43961 100.394C11.0303 100.394 13.9412 97.4819 13.9412 93.8899C13.9412 90.2979 11.0303 87.3859 7.43961 87.3859C3.86514 87.3859 0.964395 90.2716 0.938232 93.8412V93.9386Z" fill="#0A00D8"/>
</svg>
