<svg width="101" height="101" viewBox="0 0 101 101" fill="none" xmlns="http://www.w3.org/2000/svg">
<path d="M52.9312 79.6131C52.9312 81.2716 54.2879 82.6161 55.9615 82.6161H76.1667C77.8403 82.6161 79.197 81.2716 79.197 79.6131V78.8474C79.197 77.1889 77.8403 75.8444 76.1667 75.8444H55.9615C54.2879 75.8444 52.9312 77.1889 52.9312 78.8474L52.9312 79.6131Z" fill="#0A00D8"/>
<path d="M24.4234 46.5054L50.8858 63.4291C51.6237 63.901 51.6261 64.9696 50.8904 65.4448L24.4279 82.5357C23.6217 83.0564 22.554 82.4831 22.554 81.5293V76.0195C22.554 75.6284 22.7461 75.2618 23.0689 75.0369L36.864 65.4246C37.554 64.9438 37.5498 63.929 36.8558 63.4538L23.077 54.0183C22.7495 53.794 22.554 53.4246 22.554 53.0301V47.5147C22.554 46.5634 23.6168 45.9896 24.4234 46.5054Z" fill="#0A00D8"/>
<path fill-rule="evenodd" clip-rule="evenodd" d="M0.0319824 3.93733C0.0319824 2.27882 1.3887 0.934326 3.06229 0.934326H97.0017C98.6753 0.934326 100.032 2.27882 100.032 3.93733V97.9313C100.032 99.5898 98.6753 100.934 97.0017 100.934H3.06229C1.3887 100.934 0.0319824 99.5898 0.0319824 97.9313V3.93733ZM15.1835 12.9463C13.5099 12.9463 12.1532 14.2908 12.1532 15.9493V24.9584C12.1532 26.6169 13.5099 27.9614 15.1835 27.9614H84.8805C86.5541 27.9614 87.9108 26.6169 87.9108 24.9584V15.9493C87.9108 14.2908 86.5541 12.9463 84.8805 12.9463H15.1835ZM87.9108 42.9764C87.9108 41.3179 86.5541 39.9734 84.8805 39.9734H15.1835C13.5099 39.9734 12.1532 41.3179 12.1532 42.9764V85.9193C12.1532 87.5778 13.5099 88.9223 15.1835 88.9223H84.8805C86.5541 88.9223 87.9108 87.5778 87.9108 85.9193V42.9764Z" fill="#0A00D8"/>
</svg>
