<svg width="101" height="80" viewBox="0 0 101 80" fill="none" xmlns="http://www.w3.org/2000/svg">
<path fill-rule="evenodd" clip-rule="evenodd" d="M8.4266 31.7991C10.18 29.9981 12.1722 28.4296 14.3521 27.1443C15.5101 26.4616 16.1978 25.1859 16.1621 23.8447C16.1567 23.6417 16.1539 23.4381 16.1539 23.2339C16.1539 10.7614 26.2909 0.650513 38.7954 0.650513C51.3 0.650513 61.437 8.8795 61.437 21.352C61.437 22.3185 62.4174 23.0399 63.3386 22.74C66.1056 21.8391 69.0601 21.352 72.1288 21.352C87.7595 21.352 100.431 35.8726 100.431 51.4632C100.431 67.0538 87.7595 79.6924 72.1288 79.6924H47.8387H28.7325C13.1019 79.6924 0.430664 67.0538 0.430664 51.4632C0.430664 44.7258 2.79701 38.5396 6.74593 33.6865C6.97439 33.3262 7.24331 32.9839 7.55281 32.6658C7.84113 32.3695 8.13245 32.0806 8.4266 31.7991ZM38.7954 13.1968C42.3207 13.1968 44.9174 14.3499 46.4698 15.72C47.893 16.9762 48.8583 18.7412 48.8583 21.352C48.8583 30.6939 58.0428 37.6622 67.242 34.667C68.7642 34.1713 70.4021 33.8983 72.1288 33.8983C79.7923 33.8983 87.852 41.7384 87.852 51.4632C87.852 60.1246 80.8125 67.1461 72.1288 67.1461H47.8381H28.7325C20.0488 67.1461 13.0093 60.1246 13.0093 51.4632C13.0093 47.3094 14.6245 43.5249 17.2856 40.7092C21.0924 37.1315 24.95 36.1314 27.9332 36.4179C31.135 36.7255 33.883 38.5335 35.4079 41.4804C37.001 44.5591 40.7946 45.7668 43.8812 44.1778C46.9678 42.5888 48.1786 38.8049 46.5855 35.7262C43.079 28.9496 36.5502 24.6412 29.1389 23.9294C29.0066 23.9167 28.8743 23.9051 28.7419 23.8947C28.7415 23.7671 28.7396 23.6394 28.7362 23.5117C28.7338 23.4197 28.7325 23.3271 28.7325 23.2339C28.7325 17.6906 33.2379 13.1968 38.7954 13.1968Z" fill="#0A00D8"/>
</svg>
