<?xml version="1.0" encoding="UTF-8"?>
<svg id="Layer_1" data-name="Layer 1" xmlns="http://www.w3.org/2000/svg" xmlns:xlink="http://www.w3.org/1999/xlink" viewBox="0 0 100 100">
  <defs>
    <style>
      .cls-1 {
        clip-path: url(#clippath);
      }

      .cls-2 {
        fill: none;
      }

      .cls-3, .cls-4 {
        fill: #1904da;
      }

      .cls-4, .cls-5 {
        fill-rule: evenodd;
      }

      .cls-5 {
        fill: #0a00d8;
      }
    </style>
    <clipPath id="clippath">
      <rect class="cls-2" width="100" height="100"/>
    </clipPath>
  </defs>
  <g class="cls-1">
    <g>
      <path class="cls-4" d="m50,13.1c-20.5,0-37.2,16.6-37.2,37.2s16.6,37.2,37.2,37.2,37.2-16.6,37.2-37.2S70.5,13.1,50,13.1Zm-25.3,37.2c0-14,11.3-25.3,25.3-25.3s25.3,11.3,25.3,25.3-11.3,25.3-25.3,25.3-25.3-11.3-25.3-25.3Z"/>
      <path class="cls-3" d="m43.9,15.7c0,1.6,1.3,3,3,3h5.9c1.6,0,3-1.3,3-3V3.5c0-1.6-1.3-3-3-3h-5.9c-1.6,0-3,1.3-3,3v12.2Z"/>
      <path class="cls-3" d="m84.2,44c-1.6,0-3,1.3-3,3v5.9c0,1.6,1.3,3,3,3h12.2c1.6,0,3-1.3,3-3v-5.9c0-1.6-1.3-3-3-3h-12.2Z"/>
      <path class="cls-3" d="m.3,47c0-1.6,1.3-3,3-3h12.2c1.6,0,3,1.3,3,3v5.9c0,1.6-1.3,3-3,3H3.3c-1.6,0-3-1.3-3-3v-5.9Z"/>
      <path class="cls-3" d="m43.9,96.5c0,1.6,1.3,3,3,3h5.9c1.6,0,3-1.3,3-3v-12.2c0-1.6-1.3-3-3-3h-5.9c-1.6,0-3,1.3-3,3v12.2Z"/>
    </g>
  </g>
  <path class="cls-5" d="m46.9,36.4c0-1.6,0-3.2,0-4.7-5.2,0-9.1.8-10.4,4.8-.3.8-.3,1.8-.4,2.8v1.6c0,1.8,0,3.7-.4,4.9-.6,1.4-2.3,1.9-4.3,1.9v5.7c2,0,3.5.4,4.2,1.6.7,1.2.6,3.3.6,5.2v1.5c.2,1,.1,1.9.4,2.7,1.3,4,5.1,5,10.4,4.9,0-1.6,0-3.2,0-4.7-1.8,0-3.2-.3-3.9-1.4-.8-1.3-.5-4.1-.5-6.2,0-.7,0-1.4,0-1.9-.5-2.2-1.9-3.2-4-3.8-.4-.1-1-.3-1.5-.4v-.6c2.7-.4,4.8-1.5,5.4-4,.1-.6.1-1.3.1-2.1,0-2.1-.3-5,.6-6.3.7-1.1,2.1-1.4,3.9-1.3Zm17.5,9.6c-.6-1-.6-2.5-.6-4.2,0-2,0-3.9-.5-5.4-1.2-3.9-5.3-4.8-10.5-4.8v4.7c1.9,0,3.3.3,4,1.5.8,1.3.5,4.2.5,6.2,0,.7,0,1.4.1,2,.5,2.1,2,3,4,3.6.5.1,1,.3,1.5.4v.6c-.5,0-1.1.2-1.5.4-2,.6-3.4,1.5-3.9,3.6-.1.6-.1,1.4-.1,2.1,0,2.2.3,4.9-.6,6.3-.7,1.1-2.2,1.4-3.9,1.3v4.7c.4,0,.8,0,1.2,0,.7-.1,1.5,0,2.1-.1.8-.1,1.5-.1,2.2-.3,2.9-.8,4.5-2.3,5.2-5.3.5-2.4-.3-6.2.6-8.2.6-1.4,2.3-1.9,4.4-1.9v-5.7c-2,0-3.5-.4-4.3-1.6Z"/>
</svg>