<svg width="100" height="100" viewBox="0 0 100 100" fill="none" xmlns="http://www.w3.org/2000/svg">
<path fill-rule="evenodd" clip-rule="evenodd" d="M21.8861 15.2716C23.152 15.2716 24.2241 14.3348 24.3983 13.0765L25.9042 2.19512C26.0784 0.936782 27.1504 0 28.4163 0H45.1351C46.4011 0 47.4731 0.936783 47.6473 2.19512L49.1532 13.0765C49.3274 14.3348 50.3995 15.2716 51.6654 15.2716H54.9523C56.353 15.2716 57.4885 16.4112 57.4885 17.8169V22.9074C57.4885 24.3132 56.353 25.4527 54.9523 25.4527H17.7538C16.3531 25.4527 15.2176 24.3132 15.2176 22.9074V17.8169C15.2176 16.4112 16.3531 15.2716 17.7538 15.2716H21.8861ZM41.4256 8.48434C41.4256 5.67291 39.1545 3.3938 36.353 3.3938C33.5516 3.3938 31.2805 5.67291 31.2805 8.48434C31.2805 11.2958 33.5516 13.5749 36.353 13.5749C39.1545 13.5749 41.4256 11.2958 41.4256 8.48434Z" fill="#0A00D8"/>
<path d="M53.65 8.7226C53.7771 9.55012 54.4867 10.1609 55.321 10.1609H60.2424C61.6404 10.1609 62.7736 11.2981 62.7736 12.7011V49.1669C62.7736 49.6234 63.0852 50.0157 63.5124 50.1755C65.3063 50.8463 66.9871 52.2453 68.0719 54.0221C68.3249 54.4365 69.0267 54.3763 69.1466 53.9057L69.7844 51.4012C70.2192 49.6721 71.1823 48.1457 72.5108 47.0132C72.7491 46.81 72.8984 46.5176 72.8984 46.2043V2.54029C72.8984 1.13739 71.7652 0.000103567 70.3672 0.000103567L54.2813 0.000112757C53.2448 0.000113349 52.4523 0.927485 52.6102 1.95554L53.65 8.7226Z" fill="#0A00D8"/>
<path d="M51.8759 55.1981C52.1566 54.8838 52.2228 54.412 51.929 54.1099C51.4693 53.6374 50.8276 53.3441 50.1177 53.3441H23.287C21.8891 53.3441 20.7558 54.4814 20.7558 55.8843V60.9647C20.7558 62.3676 21.8891 63.5049 23.287 63.5049H44.0114C44.2957 63.5049 44.5666 63.3836 44.756 63.1714L51.8759 55.1981Z" fill="#0A00D8"/>
<path d="M20.7558 39.6271C20.7558 38.2242 21.8891 37.0869 23.287 37.0869H50.1177C51.5156 37.0869 52.6489 38.2242 52.6489 39.6271V44.7075C52.6489 46.1104 51.5156 47.2476 50.1177 47.2476H23.287C21.8891 47.2476 20.7558 46.1104 20.7558 44.7075V39.6271Z" fill="#0A00D8"/>
<path d="M45.8662 84.8425C47.5323 84.8425 48.466 82.9208 47.4372 81.6091L42.6037 75.4464C42.2251 74.9636 41.6459 74.6817 41.0327 74.6817H12.656C11.258 74.6817 10.1248 73.5444 10.1248 72.1415V12.7011C10.1248 11.2981 11.258 10.1609 12.656 10.1609H18.2304C19.0648 10.1609 19.7744 9.55012 19.9015 8.7226L20.9412 1.95553C21.0992 0.927474 20.3067 0.000103567 19.2702 0.000103567H2.5312C1.13325 0.000103567 0 1.13739 0 2.54029V82.3023C0 83.7052 1.13325 84.8425 2.53119 84.8425H45.8662Z" fill="#0A00D8"/>
<path d="M71.1425 98.6689C71.7377 98.3291 72.165 97.7669 72.3301 97.1133L83.2699 54.8222C83.4278 54.1971 83.3343 53.5355 83.0076 52.9762L81.986 51.2268C81.2888 50.033 79.7356 49.6174 78.5186 50.3138L76.7808 51.3082C76.1841 51.6496 75.7566 52.2148 75.5933 52.8711L64.7701 95.369C64.6152 95.9916 64.7095 96.6497 65.0345 97.2063L65.9354 98.7488C66.632 99.9418 68.1836 100.358 69.4004 99.6632L71.1425 98.6689Z" fill="#0A00D8"/>
<path d="M83.8646 71.0729L82.7058 75.082C82.4588 75.9364 82.6916 76.8578 83.321 77.4989L89.7329 84.0293C89.8705 84.1694 89.8746 84.3949 89.7415 84.54L82.3853 91.415C82.1584 91.6419 81.9314 91.972 81.7514 92.2645C81.4998 92.6733 81.452 93.1687 81.5706 93.6338L82.6211 97.7526C83.1004 99.6566 85.5352 100.306 86.9183 98.8669L99.3067 85.9763C100.235 85.0103 100.231 83.4967 99.2961 82.5362L88.1288 70.0303C86.7693 68.6328 84.3977 69.2286 83.8646 71.0729Z" fill="#0A00D8"/>
<path d="M63.0701 57.4794L65.2276 61.4885C65.4745 62.3429 65.2417 63.2643 64.6124 63.9053L58.2004 70.4358C58.0629 70.5759 58.0587 70.8013 58.1918 70.9465L62.7048 77.0479C63.2702 77.6644 63.4856 78.5163 63.2833 79.3199L62.3164 84.1591C61.8371 86.0631 59.4023 86.7125 58.0192 85.2734L47.628 72.3828C47.628 72.3828 46.9346 71.514 46.9346 70.6627C46.9346 69.6761 47.6386 68.9426 47.6386 68.9426L58.8059 56.4368C60.1654 55.0393 62.537 55.6351 63.0701 57.4794Z" fill="#0A00D8"/>
</svg>
