<svg width="101" height="101" viewBox="0 0 101 101" fill="none" xmlns="http://www.w3.org/2000/svg">
<path d="M0.916016 49.7619C0.916016 48.6691 1.81145 47.7833 2.91602 47.7833H98.916C100.021 47.7833 100.916 48.6691 100.916 49.7619V57.6763C100.916 58.769 100.021 59.6549 98.916 59.6549H2.91601C1.81144 59.6549 0.916016 58.769 0.916016 57.6763V49.7619Z" fill="#0A00D8"/>
<path d="M13.456 42.8368C15.8479 25.1531 31.5879 12.2168 51.6426 12.2168C62.7189 12.2168 71.9217 15.6255 78.3545 22.0747C83.106 26.8383 86.717 33.6336 88.2749 42.8368H98.916C99.4365 42.8368 99.9438 42.893 100.432 42.9996C98.7633 30.7989 94.0907 20.9493 86.896 13.7363C77.7552 4.57212 65.2208 0.345215 51.6426 0.345215C25.6758 0.345215 3.73285 17.9233 1.35431 43.0098C1.85647 42.8966 2.37918 42.8368 2.91601 42.8368H13.456Z" fill="#0A00D8"/>
<path d="M7.17273 69.2111C7.17272 67.572 5.82957 66.2433 4.17272 66.2433C2.51586 66.2433 1.17272 67.572 1.17273 69.2112L1.17278 80.4654C1.17279 82.1045 2.51594 83.4333 4.17279 83.4332C5.82965 83.4332 7.17279 82.1045 7.17278 80.4653L7.17273 69.2111Z" fill="#0A00D8"/>
<path d="M84.9184 71.1189C85.7686 69.7121 85.3051 67.8897 83.8831 67.0485C82.4611 66.2073 80.619 66.6659 79.7687 68.0727C79.022 69.3082 78.1827 70.5476 77.2625 71.7828C75.8914 73.6233 74.2451 75.3582 72.2592 76.8749C70.9477 77.8765 70.7053 79.7403 71.7177 81.0378C72.7302 82.3353 74.6142 82.5751 75.9257 81.5735C78.3988 79.6847 80.4271 77.54 82.0925 75.3044C83.1152 73.9315 84.0633 72.5337 84.9184 71.1189Z" fill="#0A00D8"/>
<path d="M94.9305 76.5972C95.7201 75.1561 95.1793 73.3547 93.7227 72.5736C92.2661 71.7925 90.4452 72.3275 89.6556 73.7685C88.5043 75.8698 87.3215 77.6288 86.2828 79.0231C85.304 80.337 84.2378 81.5978 83.0808 82.7922C81.9345 83.9757 81.975 85.8544 83.1713 86.9885C84.3675 88.1226 86.2666 88.0825 87.4129 86.899C88.7552 85.5133 89.9869 84.0561 91.1128 82.5447C92.29 80.9645 93.628 78.9744 94.9305 76.5972Z" fill="#0A00D8"/>
<path d="M18.5754 77.2155C18.5754 75.5763 17.2323 74.2476 15.5754 74.2476C13.9186 74.2476 12.5754 75.5763 12.5754 77.2155V85.5107C12.5754 87.1498 13.9186 88.4785 15.5754 88.4785H24.4939C26.1507 88.4785 27.4939 87.1498 27.4939 85.5107C27.4939 83.8715 26.1507 82.5428 24.4939 82.5428H18.5754V77.2155Z" fill="#0A00D8"/>
<path d="M62.328 84.6964C62.0937 83.0738 60.574 81.9464 58.9338 82.1783C56.6735 82.4978 54.1824 82.636 51.436 82.5472L51.4137 82.5465L51.3915 82.5458L51.3694 82.5451L51.3472 82.5443C51.3145 82.5433 51.2819 82.5428 51.2492 82.5428H42.3308C40.6739 82.5428 39.3308 83.8715 39.3308 85.5107C39.3308 87.1498 40.6739 88.4785 42.3308 88.4785H51.2015L51.2178 88.4791L51.24 88.4798C54.3081 88.5791 57.1502 88.4265 59.7826 88.0544C61.4228 87.8225 62.5624 86.3191 62.328 84.6964Z" fill="#0A00D8"/>
<path d="M78.3954 93.9844C79.8212 93.1494 80.2929 91.3291 79.449 89.9186C78.605 88.508 76.765 88.0414 75.3392 88.8763C72.6314 90.462 69.5958 91.7695 66.2027 92.7148C64.6079 93.1591 63.6791 94.7983 64.1282 96.376C64.5773 97.9538 66.2342 98.8726 67.8291 98.4284C71.7185 97.3448 75.2353 95.8348 78.3954 93.9844Z" fill="#0A00D8"/>
<path d="M7.17283 91.7195C7.17282 90.0804 5.82967 88.7516 4.17282 88.7516C2.51596 88.7516 1.17282 90.0804 1.17283 91.7196L1.17286 97.3467C1.17286 98.9858 2.51601 100.315 4.17286 100.315H10.0354C11.6923 100.315 13.0354 98.9858 13.0354 97.3466C13.0354 95.7075 11.6923 94.3787 10.0354 94.3787H7.17284L7.17283 91.7195Z" fill="#0A00D8"/>
<path d="M56.616 100.244C58.27 100.149 59.5331 98.7454 59.437 97.1091C59.341 95.4727 57.9222 94.2232 56.2682 94.3182C54.6333 94.4121 52.9336 94.4349 51.1673 94.3802C51.136 94.3792 51.1048 94.3787 51.0735 94.3787H45.2109C43.5541 94.3787 42.2109 95.7075 42.2109 97.3466C42.2109 98.9858 43.5541 100.315 45.2109 100.315H51.0272C52.949 100.373 54.8116 100.348 56.616 100.244Z" fill="#0A00D8"/>
<path d="M21.7606 94.3787C20.1037 94.3787 18.7606 95.7075 18.7606 97.3466C18.7606 98.9858 20.1037 100.315 21.7606 100.315H33.4858C35.1426 100.315 36.4858 98.9858 36.4858 97.3466C36.4858 95.7075 35.1426 94.3787 33.4858 94.3787H21.7606Z" fill="#0A00D8"/>
</svg>
