<svg width="101" height="101" viewBox="0 0 101 101" fill="none" xmlns="http://www.w3.org/2000/svg">
<path d="M19.5003 26.511C26.4866 17.9057 39.2285 12.4014 51.9571 12.4014C62.6059 12.4014 71.7026 16.3184 78.1553 23.2357C84.6164 30.162 88.8239 40.5317 88.8239 54.1194C88.8239 60.4855 86.918 69.4069 81.5005 76.4574C76.3138 83.2076 67.469 88.8435 52.1409 88.3577L52.049 88.3548H12.5514V45.114C12.5514 44.0087 11.6711 43.1127 10.5845 43.1127H2.71301C1.62635 43.1127 0.746038 44.0087 0.746038 45.114V100.362H51.8671C70.6456 100.932 83.1566 93.8016 90.8022 83.8512C98.2298 74.1846 100.629 62.4453 100.629 54.1194C100.629 37.9602 95.5793 24.469 86.7194 14.9712C77.851 5.46435 65.563 0.394043 51.9571 0.394043C35.9218 0.394043 19.7431 7.34114 10.3752 18.8936C10.3057 18.7554 10.2681 18.6012 10.2673 18.4428L10.2127 7.10808C10.21 6.56234 9.77794 6.11939 9.2414 6.11246L1.62555 6.01407C1.07738 6.00698 0.629272 6.457 0.629272 7.01459V35.1516C0.629272 35.7042 1.06973 36.1522 1.61305 36.1522H30.6996C31.2448 36.1522 31.686 35.7013 31.6834 35.1468L31.6469 27.4512C31.6442 26.8985 31.2016 26.4527 30.6583 26.4554L19.5003 26.511Z" fill="#0A00D8"/>
<path d="M56.8404 22.2198C57.3927 22.2198 57.8404 22.6675 57.8404 23.2198V50.6919L74.969 65.3365C75.3838 65.6912 75.4377 66.3129 75.09 66.7336L68.7679 74.3831C68.4119 74.8139 67.772 74.8693 67.3473 74.5061L46.035 56.2846V23.2198C46.035 22.6675 46.4827 22.2198 47.035 22.2198H56.8404Z" fill="#0A00D8"/>
</svg>
