<svg width="101" height="101" viewBox="0 0 101 101" fill="none" xmlns="http://www.w3.org/2000/svg">
<path fill-rule="evenodd" clip-rule="evenodd" d="M41.2202 0.345215C40.9583 0.345215 40.7068 0.447972 40.5199 0.631401L29.8994 11.0513C29.2602 11.6785 29.7042 12.7652 30.5997 12.7652H87.0638C87.6161 12.7652 88.0638 13.2129 88.0638 13.7652V68.153C88.0638 69.0369 89.1264 69.4862 89.7605 68.8704L100.197 58.7339C100.391 58.5456 100.5 58.2868 100.5 58.0166V1.34522C100.5 0.792931 100.052 0.345215 99.5 0.345215H41.2202ZM14.0307 29.3731C14.0307 28.4726 12.9337 28.0309 12.3097 28.6802L0.778991 40.6782C0.59998 40.8645 0.5 41.1128 0.5 41.3712V99.3452C0.5 99.8975 0.947715 100.345 1.5 100.345H58.5964C58.8662 100.345 59.1245 100.236 59.3128 100.043L69.461 89.6229C70.0781 88.9892 69.6291 87.9252 68.7446 87.9252H15.0307C14.4784 87.9252 14.0307 87.4775 14.0307 86.9252V29.3731Z" fill="#0A00D8"/>
<path fill-rule="evenodd" clip-rule="evenodd" d="M46.3537 22.0565C46.0399 22.1197 45.8217 22.3993 45.8217 22.7215V29.7013C45.8217 29.8654 45.7084 30.007 45.5499 30.0448C43.3592 30.5659 41.3052 31.4432 39.4515 32.6126C39.3127 32.7001 39.1321 32.681 39.0163 32.5645L33.9157 27.4277C33.7009 27.2114 33.3732 27.1625 33.1171 27.327C32.526 27.7065 31.3876 28.5177 30.0201 29.8949C28.9868 30.9355 28.1348 32.1431 27.7085 32.7873C27.5311 33.0555 27.573 33.4086 27.7993 33.6365L32.8875 38.7607C33.0029 38.8769 33.0222 39.0582 32.936 39.1978C31.7073 41.1891 30.8079 43.4079 30.3143 45.777C30.2802 45.9408 30.1376 46.0595 29.9714 46.0595H22.9509C22.6471 46.0595 22.3811 46.2583 22.3155 46.557C22.164 47.2462 21.9286 48.6305 21.9286 50.5782C21.9286 52.0498 22.174 53.5104 22.3249 54.2696C22.3877 54.5855 22.6653 54.8053 22.9853 54.8053H30.1655C30.3262 54.8053 30.4656 54.9164 30.5051 55.0733C31.0707 57.3174 32.0035 59.4139 33.2355 61.2942C33.3273 61.4344 33.3101 61.6206 33.1922 61.7394L27.9995 66.9689C27.7847 67.1852 27.7363 67.5152 27.8996 67.7731C28.2764 68.3684 29.0819 69.5148 30.4494 70.8921C31.4827 71.9326 32.6818 72.7907 33.3215 73.22C33.5878 73.3987 33.9384 73.3564 34.1646 73.1286L39.5017 67.7537C39.6149 67.6397 39.7906 67.6186 39.9286 67.7004C41.7007 68.7514 43.6447 69.54 45.7077 70.0133C45.8676 70.0499 45.9823 70.1922 45.9823 70.3573V78.0036C45.9823 78.3095 46.1797 78.5774 46.4763 78.6435C47.1607 78.796 48.5352 79.0331 50.4692 79.0331C51.9304 79.0331 53.3808 78.7859 54.1346 78.6339C54.4483 78.5707 54.6666 78.2911 54.6666 77.9689V70.3228C54.6666 70.1587 54.78 70.017 54.9386 69.9793C57.0509 69.4783 59.0362 68.6462 60.8378 67.5403C60.9761 67.4553 61.1546 67.4753 61.2692 67.5907L66.9152 73.2767C67.13 73.4931 67.4577 73.5419 67.7138 73.3774C68.3049 72.998 69.4433 72.1868 70.8108 70.8095C71.844 69.769 72.6961 68.5614 73.1224 67.9171C73.2998 67.6489 73.2578 67.2958 73.0316 67.068L67.4787 61.4758C67.3622 61.3584 67.3438 61.1749 67.4325 61.035C68.5202 59.3193 69.3614 57.4298 69.906 55.4171C69.9477 55.2632 70.0857 55.1552 70.2441 55.1552H78.0147C78.3347 55.1552 78.6123 54.9354 78.6751 54.6194C78.826 53.8603 79.0714 52.3996 79.0714 50.928C79.0714 48.9803 78.836 47.596 78.6845 46.9068C78.6189 46.6081 78.3529 46.4093 78.0491 46.4093L70.5993 46.4093C70.4308 46.4093 70.287 46.2875 70.2552 46.1208C69.8058 43.7628 68.9556 41.5484 67.7787 39.5522C67.6967 39.4131 67.7174 39.2355 67.8309 39.1212L73.1786 33.7356C73.3934 33.5193 73.4419 33.1893 73.2786 32.9313C72.9018 32.3361 72.0963 31.1896 70.7288 29.8124C69.6955 28.7718 68.4964 27.9137 67.8567 27.4844C67.5904 27.3058 67.2398 27.348 67.0135 27.5759L61.8354 32.7907C61.7177 32.9092 61.5334 32.9268 61.3943 32.835C59.4043 31.5229 57.1725 30.552 54.7808 30.005C54.6208 29.9684 54.506 29.8261 54.506 29.6609V22.6869C54.506 22.3809 54.3086 22.1131 54.012 22.0469C53.3276 21.8944 51.9531 21.6573 50.0191 21.6573C48.5578 21.6573 47.1074 21.9045 46.3537 22.0565ZM64.0308 50.0106C64.0308 57.6879 57.8966 63.9528 50.2505 63.9758C42.5816 63.9989 36.3873 57.7108 36.3873 50.0106C36.3873 42.3104 42.5816 36.0222 50.2505 36.0453C57.8966 36.0683 64.0308 42.3332 64.0308 50.0106Z" fill="#0A00D8"/>
</svg>
