<svg width="101" height="101" viewBox="0 0 101 101" fill="none" xmlns="http://www.w3.org/2000/svg">
<path fill-rule="evenodd" clip-rule="evenodd" d="M70.9717 80.094C69.9087 79.0672 68.2678 78.9724 67.034 79.7843C60.2534 84.2465 52.1437 86.8416 43.43 86.8416C19.624 86.8416 0.325439 67.4719 0.325439 43.5781C0.325439 19.6844 19.624 0.314697 43.43 0.314697C67.236 0.314697 86.5346 19.6844 86.5346 43.5781C86.5346 52.4662 83.8642 60.7282 79.2848 67.6001C78.4324 68.8794 78.5542 70.6024 79.6591 71.6696L99.4002 90.738C100.601 91.8981 100.638 93.8156 99.482 95.021L95.2966 99.386C94.1408 100.591 92.2303 100.628 91.0294 99.4682L70.9717 80.094ZM74.4628 43.5781C74.4628 60.7802 60.569 74.7253 43.43 74.7253C26.2911 74.7253 12.3972 60.7802 12.3972 43.5781C12.3972 26.376 26.2911 12.4309 43.43 12.4309C60.569 12.4309 74.4628 26.376 74.4628 43.5781Z" fill="#0A00D8"/>
</svg>
