<svg width="101" height="101" viewBox="0 0 101 101" fill="none" xmlns="http://www.w3.org/2000/svg">
<path fill-rule="evenodd" clip-rule="evenodd" d="M67.9203 39.8117C67.9203 47.6234 63.1229 54.2858 56.3852 56.8683V82.8914H37.7515C36.118 82.8914 34.7938 81.5331 34.7938 79.8576V73.79C34.7938 72.1145 36.118 70.7563 37.7515 70.7563H44.5543V57.0828C37.5076 54.6716 32.4276 47.8502 32.4276 39.8117C32.4276 29.7586 40.3729 21.609 50.174 21.609C59.975 21.609 67.9203 29.7586 67.9203 39.8117ZM50.174 45.8793C53.441 45.8793 56.0894 43.1627 56.0894 39.8117C56.0894 36.4607 53.441 33.7441 50.174 33.7441C46.907 33.7441 44.2585 36.4607 44.2585 39.8117C44.2585 43.1627 46.907 45.8793 50.174 45.8793Z" fill="#0A00D8"/>
<path fill-rule="evenodd" clip-rule="evenodd" d="M50.4697 0.252197L10.3728 20.0584L0.469727 64.5626L28.2176 100.252H72.7218L100.47 64.5626L90.5666 20.0584L50.4697 0.252197ZM50.4697 13.7212L80.3002 28.4562L87.6677 61.5655L67.0244 88.1171H33.9151L13.2718 61.5655L20.6393 28.4562L50.4697 13.7212Z" fill="#0A00D8"/>
</svg>
