<svg width="101" height="100" viewBox="0 0 101 100" fill="none" xmlns="http://www.w3.org/2000/svg">
<path fill-rule="evenodd" clip-rule="evenodd" d="M67.9203 39.4518C67.9203 47.2636 63.1229 53.926 56.3852 56.5085V82.5315H37.7515C36.118 82.5315 34.7938 81.1733 34.7938 79.4977V73.4302C34.7938 71.7547 36.118 70.3964 37.7515 70.3964H44.5543V56.723C37.5076 54.3118 32.4276 47.4903 32.4276 39.4518C32.4276 29.3988 40.3729 21.2491 50.174 21.2491C59.975 21.2491 67.9203 29.3988 67.9203 39.4518ZM50.174 45.5194C53.441 45.5194 56.0894 42.8029 56.0894 39.4518C56.0894 36.1008 53.441 33.3843 50.174 33.3843C46.907 33.3843 44.2585 36.1008 44.2585 39.4518C44.2585 42.8029 46.907 45.5194 50.174 45.5194Z" fill="#0A00D8"/>
<path fill-rule="evenodd" clip-rule="evenodd" d="M52.2412 0.767384C51.1246 0.215827 49.8148 0.215827 48.6982 0.767383L12.0899 18.8504C11.0042 19.3867 10.2199 20.3859 9.95687 21.5679L0.878656 62.365C0.619663 63.5289 0.893419 64.7477 1.62529 65.689L27.0166 98.3475C27.7744 99.3222 28.9398 99.8923 30.1744 99.8923H70.765C71.9997 99.8923 73.1651 99.3222 73.9229 98.3475L99.3142 65.689C100.046 64.7477 100.32 63.5289 100.061 62.365L90.9826 21.5679C90.7196 20.3859 89.9353 19.3867 88.8496 18.8504L52.2412 0.767384ZM48.6982 14.2364C49.8148 13.6848 51.1246 13.6848 52.2412 14.2364L78.5831 27.2482C79.6688 27.7845 80.4531 28.7837 80.7161 29.9657L87.2588 59.3679C87.5178 60.5318 87.244 61.7506 86.5121 62.6919L68.2254 86.2124C67.4676 87.1871 66.3022 87.7572 65.0676 87.7572H35.8719C34.6373 87.7572 33.4718 87.1871 32.714 86.2124L14.4273 62.6919C13.6955 61.7506 13.4217 60.5318 13.6807 59.3679L20.2233 29.9657C20.4863 28.7837 21.2706 27.7845 22.3563 27.2482L48.6982 14.2364Z" fill="#0A00D8"/>
</svg>
