<svg width="100" height="100" viewBox="0 0 100 100" fill="none" xmlns="http://www.w3.org/2000/svg">
<path fill-rule="evenodd" clip-rule="evenodd" d="M72.0703 52.8877C72.0703 52.6189 72.2536 52.3857 72.5172 52.3329C73.1503 52.2062 74.3687 52 75.5961 52C77.2207 52 78.3753 52.1977 78.9502 52.325C79.1993 52.3801 79.3651 52.6036 79.3651 52.8587V58.6758C79.3651 58.8136 79.4616 58.9323 79.5959 58.9628C81.605 59.4191 83.4798 60.2289 85.1513 61.3233C85.2682 61.3999 85.423 61.3852 85.5218 61.2864L89.8715 56.9367C90.0616 56.7466 90.3561 56.7114 90.5798 56.8604C91.1172 57.2185 92.1244 57.9342 92.9924 58.8022C94.1411 59.9509 94.8177 60.9072 95.1342 61.4036C95.2714 61.6188 95.2307 61.8941 95.0502 62.0745L90.5581 66.5667C90.4628 66.662 90.4454 66.8102 90.5143 66.9261C91.5029 68.5912 92.2171 70.4383 92.5946 72.4051C92.6212 72.5441 92.7421 72.6457 92.8836 72.6457H99.1415C99.3966 72.6457 99.6201 72.8115 99.6752 73.0607C99.8025 73.6355 100 74.7902 100 76.4147C100 77.6422 99.7941 78.8605 99.6673 79.4937C99.6145 79.7573 99.3813 79.9406 99.1125 79.9406H92.5852C92.4522 79.9406 92.3362 80.0307 92.3012 80.1591C91.8438 81.8379 91.1371 83.4139 90.2235 84.845C90.149 84.9617 90.1644 85.1147 90.2623 85.2126L94.9267 89.8771C95.1168 90.0672 95.152 90.3617 95.003 90.5854C94.6449 91.1227 93.9292 92.13 93.0612 92.998C91.9125 94.1467 90.9563 94.8233 90.4598 95.1399C90.2446 95.277 89.9694 95.2363 89.7889 95.0559L85.0463 90.3132C84.95 90.2169 84.8001 90.2002 84.6839 90.2711C83.1706 91.1935 81.5029 91.8876 79.7286 92.3055C79.5953 92.3369 79.5001 92.4551 79.5001 92.592V98.9696C79.5001 99.2384 79.3167 99.4715 79.0532 99.5243C78.42 99.6511 77.2017 99.8573 75.9742 99.8573C74.3497 99.8573 73.195 99.6595 72.6202 99.5323C72.371 99.4771 72.2052 99.2537 72.2052 98.9985V92.6208C72.2052 92.4831 72.1088 92.3644 71.9746 92.3338C70.2416 91.9391 68.6087 91.2813 67.1201 90.4046C67.0042 90.3364 66.8566 90.354 66.7615 90.4491L62.2783 94.9323C62.0883 95.1223 61.7937 95.1576 61.5701 95.0085C61.0327 94.6504 60.0255 93.9347 59.1575 93.0668C58.0088 91.918 57.3321 90.9618 57.0156 90.4653C56.8785 90.2501 56.9192 89.9749 57.0996 89.7944L61.4615 85.4326C61.5605 85.3335 61.575 85.1781 61.4978 85.0612C60.463 83.4928 59.6794 81.7441 59.2043 79.8723C59.1711 79.7415 59.054 79.6488 58.919 79.6488H52.8877C52.6189 79.6488 52.3857 79.4655 52.3329 79.2019C52.2062 78.5687 52 77.3504 52 76.1229C52 74.4984 52.1977 73.3437 52.325 72.7689C52.3801 72.5197 52.6036 72.3539 52.8587 72.3539H58.756C58.8956 72.3539 59.0154 72.2549 59.0441 72.1183C59.4587 70.1422 60.2142 68.2915 61.2463 66.6306C61.3187 66.5141 61.3025 66.3629 61.2056 66.266L56.9314 61.9918C56.7414 61.8018 56.7061 61.5072 56.8552 61.2836C57.2133 60.7462 57.929 59.7389 58.7969 58.871C59.9456 57.7222 60.9019 57.0456 61.3984 56.7291C61.6135 56.5919 61.8888 56.6326 62.0692 56.8131L66.3538 61.0977C66.451 61.1949 66.6028 61.2108 66.7193 61.1378C68.2764 60.1624 70.0018 59.4306 71.842 58.996C71.9751 58.9645 72.0703 58.8463 72.0703 58.7095V52.8877ZM75.7905 87.298C82.2133 87.2788 87.366 82.0532 87.366 75.6495C87.366 69.2458 82.2133 64.0202 75.7905 64.0011C69.3486 63.9818 64.1454 69.2267 64.1454 75.6495C64.1454 82.0723 69.3486 87.3172 75.7905 87.298Z" fill="#0A00D8"/>
<path fill-rule="evenodd" clip-rule="evenodd" d="M50 47.9532C63.4701 47.9532 74.3898 37.2185 74.3898 23.9766C74.3898 10.7347 63.4701 0 50 0C36.5299 0 25.6101 10.7347 25.6101 23.9766C25.6101 37.2185 36.5299 47.9532 50 47.9532ZM50 36.2573C56.453 36.2573 62.1949 31.033 62.1949 23.9766C62.1949 16.9202 56.453 11.6959 50 11.6959C43.547 11.6959 37.8051 16.9202 37.8051 23.9766C37.8051 31.033 43.547 36.2573 50 36.2573Z" fill="#0A00D8"/>
<path d="M12.201 96.9791C12.2033 97.9595 12.2058 98.9659 12.2058 100H0.0108415C0.0108403 99.0416 0.00811541 98.0835 0.00539807 97.128C-0.0101233 91.6705 -0.0253958 86.3005 0.468594 81.4771C1.05561 75.7452 2.41109 70.0589 5.84688 65.1548C12.9669 54.9918 26.9137 50.8772 49.9904 50.8772C53.2391 50.8772 56.3064 50.9612 59.1986 51.1339C58.8506 51.2784 58.5076 51.4564 58.1729 51.6698C57.3541 52.1918 56.0472 53.1354 54.5543 54.6283C53.2783 55.9043 52.3085 57.2866 51.8622 57.9564C50.907 59.3898 50.5997 61.0319 50.8379 62.5752C50.5577 62.5738 50.2752 62.5731 49.9903 62.5731C27.3568 62.5731 19.3625 66.8341 15.969 71.6778C14.1481 74.2769 13.1037 77.7516 12.6051 82.6204C12.1764 86.8061 12.1877 91.4851 12.201 96.9791Z" fill="#0A00D8"/>
</svg>
