<svg width="100" height="101" viewBox="0 0 100 101" fill="none" xmlns="http://www.w3.org/2000/svg">
<path fill-rule="evenodd" clip-rule="evenodd" d="M56.1402 29.4782C61.4427 27.1228 65.1406 21.8104 65.1406 15.6344C65.1406 7.27237 58.3619 0.493652 49.9999 0.493652C41.638 0.493652 34.8592 7.27237 34.8592 15.6344C34.8592 21.9188 38.688 27.309 44.1402 29.5994V37.0368C44.1402 38.1414 43.2448 39.0368 42.1402 39.0368H30.4191C29.3145 39.0368 28.4191 39.9323 28.4191 41.0368V49.0368C28.4191 50.1414 29.3145 51.0368 30.4191 51.0368H42.1402C43.2448 51.0368 44.1402 51.9323 44.1402 53.0368V85.3414C44.1402 86.571 43.0402 87.5125 41.8365 87.2615C30.2684 84.8501 16.9388 77.5966 13.2811 59.0461C13.161 58.4372 12.7775 57.9018 12.2277 57.6138L3.21816 52.8924C1.82756 52.1636 0.187734 53.2516 0.37634 54.8102C4.96724 92.7483 34.9716 100.498 50.247 100.498C58.3144 100.498 69.1934 97.8386 78.7287 91.5522C87.885 85.5156 98.5927 71.573 99.8442 54.6769C99.9546 53.1858 98.3846 52.2174 97.0538 52.8989L87.9117 57.5804C87.314 57.8865 86.9136 58.4731 86.8203 59.1382C85.2427 70.3808 78.9917 77.0056 72.1237 81.5335C67.7649 84.4072 62.9341 86.218 58.4526 87.2095C57.2476 87.476 56.1402 86.5338 56.1402 85.2997V53.0368C56.1402 51.9323 57.0356 51.0368 58.1402 51.0368H69.0151C70.1196 51.0368 71.0151 50.1414 71.0151 49.0368V41.0368C71.0151 39.9323 70.1196 39.0368 69.0151 39.0368H58.1402C57.0356 39.0368 56.1402 38.1414 56.1402 37.0368V29.4782ZM54.1406 15.6344C54.1406 17.9212 52.2868 19.775 49.9999 19.775C47.7131 19.775 45.8592 17.9212 45.8592 15.6344C45.8592 13.3475 47.7131 11.4937 49.9999 11.4937C52.2868 11.4937 54.1406 13.3475 54.1406 15.6344Z" fill="#0A00D8"/>
</svg>
