<svg width="100" height="100" viewBox="0 0 100 100" fill="none" xmlns="http://www.w3.org/2000/svg">
<path fill-rule="evenodd" clip-rule="evenodd" d="M14.3426 0.0850826C13.2655 -0.237121 12.1331 0.384417 11.8267 1.46596L0.678408 40.8155C0.379368 41.871 0.980039 42.9717 2.02959 43.2915L30.2884 51.9013L23.288 73.8124H12.0883V61.7259H0V100H12.0883V85.899H32.1165L41.8527 55.4247L63.9615 62.1608C64.8513 62.4319 65.8111 62.0586 66.2839 61.2576L68.7987 56.9968L86.4388 62.1173C87.4134 62.4003 88.4464 61.9142 88.8495 60.9829L99.8334 35.6079C100.313 34.4995 99.7164 33.221 98.5585 32.8769L85.3513 28.9519L87.8683 24.6874C88.5334 23.5606 87.9644 22.1087 86.7107 21.7337L14.3426 0.0850826ZM20.6712 14.5942L15.0009 34.6083L59.9021 48.2887L70.9177 29.6252L20.6712 14.5942ZM79.3251 39.7702L75.3792 46.3213L81.2824 48.0349L84.229 41.2275L79.3251 39.7702Z" fill="#0A00D8"/>
</svg>
