<svg width="91" height="101" viewBox="0 0 91 101" fill="none" xmlns="http://www.w3.org/2000/svg">
<path fill-rule="evenodd" clip-rule="evenodd" d="M43.9362 49.9571L43.9247 49.9571C43.6235 49.9565 41.4074 49.9526 39.9207 52.1852C39.1814 53.2955 39.0074 54.4304 38.9834 55.1455L38.9818 72.5871C38.9818 74.2969 39.7279 75.9053 40.9916 76.9226L65.3856 100.864L88.5881 76.8369C89.7908 75.8146 90.494 74.2474 90.494 72.5873V55.3522C90.494 54.2998 90.2013 53.003 89.3245 51.8732C88.3793 50.6552 86.99 49.9571 85.5309 49.9571H43.9362ZM80.5878 60.7228H48.888V69.8816L65.2224 87.3353L80.5878 69.9695V60.7228Z" fill="#0A00D8"/>
<path fill-rule="evenodd" clip-rule="evenodd" d="M84.4653 22.8751C84.4653 18.4984 82.7965 15.2739 81.2788 13.5132C79.538 11.6002 77.5517 9.95169 75.3778 8.61529C73.6795 7.6163 71.9257 6.72605 70.1259 5.9493L67.1754 4.77131L64.225 3.77932L60.6844 2.78734C58.8551 2.35334 56.9667 1.98135 54.7834 1.67135L50.6525 1.29935C47.889 0.990907 45.1111 0.846013 42.3321 0.865356C39.5533 0.855158 36.7759 1.00003 34.0117 1.29935L29.94 1.79535C27.9337 2.10534 26.0454 2.47734 24.0391 2.91133L20.4985 3.90332L17.548 4.89531L14.5975 6.0733C12.7974 6.85005 11.0436 7.7403 9.34561 8.73929C7.17146 10.0757 5.18531 11.7242 3.44464 13.6372C2.04085 15.3107 0.494019 19.3656 0.494019 21.6971L0.494147 80.761C1.02523 88.5109 9.75869 94.1744 22.4458 97.5844C29.0198 99.7337 36.8395 100.636 42.4575 100.636C46.1745 100.636 50.9911 100.115 55.2766 99.3915L42.9419 87.2858H38.0834C28.9822 87.0546 20.0553 83.4228 12.0011 78.9644V64.4148C18.32 67.4315 25.8385 69.3783 33.061 70.1952L33.0621 57.5843C25.5899 56.8843 19.3205 54.4722 12.0011 50.4648V36.329C17.5094 39.0697 23.377 40.9296 29.4089 41.8469C33.689 42.4977 38.0075 42.8292 42.3321 42.8389C46.6188 42.8662 50.9007 42.5345 55.1374 41.8469C61.2703 40.96 67.2392 39.0994 72.8404 36.329L72.7783 43.8238H84.4653V22.8751ZM31.4743 12.2113C30.6408 12.2736 29.8126 12.3979 28.9959 12.5832C20.0854 14.0712 14.0074 17.2332 14.1254 21.1391C14.1254 22.9991 15.5416 24.4871 18.1381 25.6651C19.2719 26.0766 21.5861 27.1712 21.5861 27.1712C22.1014 27.2589 22.6329 27.3503 23.1779 27.444C29.1115 28.4639 36.6499 29.7597 42.3321 29.6734C48.4785 29.8034 54.6229 28.7479 60.6844 27.6693L66.4673 25.9333C69.0638 24.7553 70.48 22.6891 70.48 20.8292C70.539 17.2332 64.461 14.0712 55.5505 12.5832C54.7338 12.3979 53.9053 12.2736 53.0719 12.2113C49.5129 11.6993 45.9242 11.4507 42.3321 11.4673C38.7009 11.4554 35.0732 11.7039 31.4743 12.2113Z" fill="#0A00D8"/>
</svg>
