<svg width="101" height="101" viewBox="0 0 101 101" fill="none" xmlns="http://www.w3.org/2000/svg">
<path d="M8.1228 50.2826C7.43037 50.4671 6.88954 51.0079 6.70507 51.7003L0.796759 73.8782C0.613083 74.5676 0.81062 75.3027 1.31515 75.8072L17.5925 92.0844C18.097 92.589 18.8321 92.7865 19.5216 92.6028L41.6992 86.6941C42.3916 86.5096 42.9324 85.9688 43.1169 85.2764L49.0251 63.0991C49.2088 62.4096 49.0113 61.6745 48.5067 61.17L32.2294 44.8927C31.7249 44.3881 30.9898 44.1906 30.3003 44.3743L8.1228 50.2826ZM34.1642 76.4245C33.9789 77.1129 33.4412 77.6505 32.7529 77.8358L22.7287 80.5346C22.0379 80.7206 21.3004 80.5234 20.7946 80.0176L13.476 72.6991C12.9701 72.1932 12.773 71.4557 12.959 70.7649L15.6578 60.7408C15.8431 60.0525 16.3807 59.5148 17.069 59.3295L27.0932 56.6307C27.784 56.4447 28.5215 56.6419 29.0274 57.1477L36.3459 64.4663C36.8518 64.9722 37.0489 65.7097 36.863 66.4005L34.1642 76.4245ZM56.0947 71.3005C55.4032 71.4851 54.8631 72.0252 54.6784 72.7167L50.8448 87.0726C50.6606 87.7623 50.8581 88.498 51.3629 89.0028L61.8898 99.5295C62.3946 100.034 63.1303 100.232 63.82 100.048L78.176 96.2137C78.8675 96.0291 79.4076 95.4889 79.5922 94.7974L83.4255 80.4416C83.6097 79.7518 83.4123 79.0162 82.9074 78.5114L72.3807 67.9847C71.8759 67.4799 71.1402 67.2824 70.4505 67.4666L56.0947 71.3005ZM72.2484 87.5455C72.0587 88.2342 71.5161 88.7694 70.825 88.9497L66.5475 90.0654C65.8607 90.2445 65.1304 90.0462 64.6285 89.5443L61.455 86.3707C60.9462 85.862 60.7499 85.1192 60.941 84.4256L62.1163 80.1575C62.3059 79.4688 62.8485 78.9335 63.5397 78.7533L67.8176 77.6375C68.5043 77.4584 69.2346 77.6566 69.7365 78.1585L72.9099 81.3315C73.4188 81.8403 73.6151 82.5832 73.424 83.2769L72.2484 87.5455ZM78.7889 1.15638C78.2846 0.654131 77.5513 0.457773 76.8635 0.640777L48.2736 8.24719C47.5812 8.43141 47.0402 8.97198 46.8554 9.66426L39.2517 38.1564C39.0676 38.8461 39.2651 39.5816 39.7699 40.0863L60.6654 60.9819C61.1698 61.4862 61.9046 61.6838 62.5939 61.5004L91.1796 53.895C91.8725 53.7106 92.4137 53.1694 92.5981 52.4765L100.203 23.8932C100.387 23.2025 100.188 22.4662 99.6815 21.9618L78.7889 1.15638ZM81.7601 41.5482C81.5752 42.2385 81.036 42.7777 80.3457 42.9626L66.7428 46.6063C66.0526 46.7912 65.3163 46.5938 64.8111 46.0886L54.8508 36.1286C54.3456 35.6234 54.1483 34.8871 54.3331 34.1969L57.9769 20.5937C58.1618 19.9034 58.701 19.3642 59.3913 19.1793L72.9947 15.5356C73.6849 15.3507 74.4212 15.5481 74.9264 16.0533L84.8861 26.0132C85.3913 26.5184 85.5886 27.2548 85.4038 27.9449L81.7601 41.5482Z" fill="#0A00D8"/>
</svg>
