<svg width="101" height="101" viewBox="0 0 101 101" fill="none" xmlns="http://www.w3.org/2000/svg">
<path fill-rule="evenodd" clip-rule="evenodd" d="M32.4116 22.9323C32.4116 21.2638 34.4467 19.9112 36.9571 19.9112H64.2298C66.7402 19.9112 68.7753 21.2638 68.7753 22.9323V28.9746C68.7753 30.6431 66.7402 31.9958 64.2298 31.9958H36.9571C34.4467 31.9958 32.4116 30.6431 32.4116 28.9746V22.9323Z" fill="#0A00D8"/>
<path d="M56.351 3.89908C56.351 2.23054 54.9943 0.87793 53.3207 0.87793H47.2601C45.5865 0.87793 44.2298 2.23054 44.2298 3.89908V12.6604C44.2298 14.3289 45.5865 15.6816 47.2601 15.6816H53.3207C54.9943 15.6816 56.351 14.3289 56.351 12.6604V3.89908Z" fill="#0A00D8"/>
<path d="M44.2298 39.2465C44.2298 37.578 45.5865 36.2254 47.2601 36.2254H53.3207C54.9943 36.2254 56.351 37.578 56.351 39.2465V97.8568C56.351 99.5253 54.9943 100.878 53.3207 100.878H47.2601C45.5865 100.878 44.2298 99.5253 44.2298 97.8568V39.2465Z" fill="#0A00D8"/>
<path fill-rule="evenodd" clip-rule="evenodd" d="M64.5328 60.3945C64.5328 58.726 66.5679 57.3734 69.0783 57.3734H96.351C98.8614 57.3734 100.896 58.726 100.896 60.3945V66.4368C100.896 68.1054 98.8614 69.458 96.351 69.458H69.0783C66.5679 69.458 64.5328 68.1054 64.5328 66.4368V60.3945Z" fill="#0A00D8"/>
<path d="M88.4722 3.89908C88.4722 2.23054 87.1155 0.87793 85.4419 0.87793H79.3813C77.7077 0.87793 76.351 2.23054 76.351 3.89908V50.1226C76.351 51.7912 77.7077 53.1438 79.3813 53.1438H85.4419C87.1155 53.1438 88.4722 51.7912 88.4722 50.1226V3.89908Z" fill="#0A00D8"/>
<path d="M76.351 76.7087C76.351 75.0402 77.7077 73.6876 79.3813 73.6876H85.4419C87.1155 73.6876 88.4722 75.0402 88.4722 76.7087V97.8568C88.4722 99.5253 87.1155 100.878 85.4419 100.878H79.3813C77.7077 100.878 76.351 99.5253 76.351 97.8568V76.7087Z" fill="#0A00D8"/>
<path fill-rule="evenodd" clip-rule="evenodd" d="M0.896484 49.5184C0.896484 47.8499 2.93155 46.4973 5.44194 46.4973H32.7147C35.2251 46.4973 37.2601 47.8499 37.2601 49.5184V55.5607C37.2601 57.2292 35.2251 58.5819 32.7147 58.5819H5.44194C2.93155 58.5819 0.896484 57.2292 0.896484 55.5607V49.5184Z" fill="#0A00D8"/>
<path d="M25.1389 3.89908C25.1389 2.23054 23.7822 0.87793 22.1086 0.87793H16.048C14.3744 0.87793 13.0177 2.23054 13.0177 3.89908V39.2465C13.0177 40.915 14.3744 42.2677 16.048 42.2677H22.1086C23.7822 42.2677 25.1389 40.915 25.1389 39.2465V3.89908Z" fill="#0A00D8"/>
<path d="M13.0177 65.8326C13.0177 64.1641 14.3744 62.8115 16.048 62.8115H22.1086C23.7822 62.8115 25.1389 64.1641 25.1389 65.8326V97.8568C25.1389 99.5253 23.7822 100.878 22.1086 100.878H16.048C14.3744 100.878 13.0177 99.5253 13.0177 97.8568V65.8326Z" fill="#0A00D8"/>
</svg>
