<svg width="101" height="101" viewBox="0 0 101 101" fill="none" xmlns="http://www.w3.org/2000/svg">
<path fill-rule="evenodd" clip-rule="evenodd" d="M42.3584 2.32914C42.3584 1.7675 42.7404 1.28027 43.2895 1.17C44.6086 0.905102 47.1467 0.474335 49.7039 0.474335C53.0884 0.474335 55.4939 0.887496 56.6915 1.15339C57.2105 1.26862 57.556 1.73551 57.556 2.26871V14.4237C57.556 14.7116 57.7569 14.9597 58.0368 15.0235C62.2224 15.9769 66.1281 17.669 69.6105 19.9559C69.854 20.1158 70.1766 20.0852 70.3824 19.8787L79.4442 10.7897C79.8402 10.3926 80.4538 10.319 80.9198 10.6304C82.0393 11.3786 84.1377 12.8742 85.9459 14.6878C88.3391 17.0881 89.7487 19.0863 90.4081 20.1237C90.6939 20.5733 90.6091 21.1484 90.2332 21.5255L80.8746 30.912C80.676 31.1113 80.6398 31.4208 80.7832 31.6631C82.8428 35.1424 84.3307 39.0019 85.1172 43.1117C85.1727 43.4021 85.4245 43.6145 85.7194 43.6145L98.7565 43.6145C99.2881 43.6145 99.7536 43.961 99.8685 44.4816C100.134 45.6828 100.546 48.0955 100.546 51.4901C100.546 54.0549 100.116 56.6007 99.8519 57.9238C99.742 58.4745 99.2562 58.8576 98.6962 58.8576H85.0977C84.8205 58.8576 84.579 59.0459 84.5061 59.3141C83.5531 62.822 82.0809 66.1152 80.1775 69.1055C80.0223 69.3493 80.0543 69.6692 80.2583 69.8737L89.9758 79.6204C90.3718 80.0175 90.4452 80.6329 90.1347 81.1003C89.3887 82.2232 87.8976 84.3279 86.0894 86.1415C83.6962 88.5419 81.704 89.9557 80.6698 90.6171C80.2215 90.9037 79.648 90.8186 79.2721 90.4416L69.3916 80.5315C69.1911 80.3303 68.8788 80.2955 68.6366 80.4435C65.4839 82.371 62.0096 83.8213 58.3131 84.6946C58.0355 84.7601 57.8371 85.0072 57.8371 85.2932V98.6195C57.8371 99.1812 57.4551 99.6684 56.9061 99.7787C55.587 100.044 53.0488 100.474 50.4916 100.474C47.1071 100.474 44.7017 100.061 43.5041 99.7953C42.985 99.68 42.6395 99.2131 42.6395 98.6799V85.3534C42.6395 85.0656 42.4388 84.8176 42.1591 84.7537C38.5487 83.9289 35.1468 82.5544 32.0455 80.7226C31.8041 80.58 31.4966 80.6168 31.2986 80.8154L21.9586 90.1834C21.5627 90.5805 20.9491 90.6541 20.4831 90.3427C19.3636 89.5945 17.2652 88.0989 15.4569 86.2853C13.0638 83.885 11.6541 81.8868 10.9947 80.8494C10.709 80.3998 10.7938 79.8246 11.1697 79.4476L20.2568 70.3333C20.4633 70.1262 20.4933 69.8016 20.3326 69.5572C18.1767 66.2801 16.5442 62.626 15.5544 58.7149C15.4853 58.4415 15.2413 58.2479 14.9601 58.2479H2.3948C1.83484 58.2479 1.34906 57.8648 1.23913 57.314C0.975014 55.991 0.545532 53.4452 0.545532 50.8804C0.545532 47.4858 0.95746 45.0731 1.22256 43.8719C1.33745 43.3513 1.80294 43.0048 2.33455 43.0048L14.6205 43.0048C14.9113 43.0048 15.1609 42.798 15.2206 42.5124C16.0843 38.3833 17.6583 34.5162 19.8086 31.0456C19.9593 30.8023 19.9257 30.4863 19.7237 30.2838L10.8193 21.3527C10.4233 20.9556 10.3499 20.3401 10.6604 19.8728C11.4064 18.7499 12.8975 16.6452 14.7057 14.8316C17.0989 12.4312 19.0911 11.0173 20.1254 10.356C20.5736 10.0693 21.1471 10.1545 21.523 10.5315L30.4491 19.4844C30.6517 19.6875 30.9678 19.7208 31.2106 19.5683C34.4546 17.5301 38.0491 16.001 41.8828 15.0928C42.1602 15.027 42.3584 14.7801 42.3584 14.4942V2.32914ZM50.1089 74.2311C63.4896 74.191 74.2244 63.2719 74.2244 49.8911C74.2244 36.5103 63.4896 25.5912 50.1089 25.5511C36.6883 25.5109 25.8483 36.4704 25.8483 49.8911C25.8483 63.3118 36.6883 74.2713 50.1089 74.2311Z" fill="#0A00D8"/>
</svg>
