<svg width="100" height="75" viewBox="0 0 100 75" fill="none" xmlns="http://www.w3.org/2000/svg">
<path fill-rule="evenodd" clip-rule="evenodd" d="M98.9426 38.6545C99.5337 37.6973 99.5265 36.4867 98.924 35.5366L97.9897 34.0634L97.9417 33.9938C97.2644 33.0105 95.3939 30.295 94.2472 28.79C91.9045 25.715 88.5074 21.5981 84.2978 17.4589C76.1196 9.41741 63.8033 0.227458 49.5155 0.191998C35.1953 0.156456 23.0505 9.31814 15.0393 17.3445C10.9179 21.4737 7.61155 25.5835 5.33747 28.6534C4.22382 30.1569 2.41237 32.8719 1.75726 33.8537L1.71162 33.9221L0.833016 35.3573C0.264532 36.286 0.256077 37.4528 0.811041 38.3895L1.66882 39.8374L1.68938 39.8707C1.87207 40.1668 2.35289 40.9459 2.6466 41.4009C3.25722 42.3467 4.14549 43.6782 5.28399 45.2674C7.5537 48.4357 10.8547 52.6797 14.9702 56.9484C22.9534 65.229 35.1067 74.7577 49.4873 74.7934C63.8462 74.829 76.1885 65.3834 84.3479 57.1587C88.5555 52.9175 91.95 48.6962 94.2902 45.5434C95.4639 43.9621 96.3817 42.6371 97.0131 41.696C97.329 41.2251 97.8288 40.4477 97.9987 40.1831L98.9426 38.6545ZM85.232 38.6349C85.8733 37.7689 85.8655 36.5857 85.2125 35.7286V35.7286C83.1014 32.9576 80.0615 29.2785 76.3389 25.6181C68.6527 18.0604 59.1237 11.6363 49.4873 11.6124C39.8833 11.5886 30.5549 17.9334 23.074 25.4285C19.4494 29.06 16.5049 32.7146 14.4647 35.4688V35.4688C13.8017 36.3639 13.7917 37.5819 14.4391 38.4883C14.4653 38.525 14.4917 38.5618 14.5182 38.5989C16.5628 41.4529 19.5126 45.2396 23.1432 49.0055C30.6521 56.794 39.9719 63.3493 49.5155 63.373C59.0808 63.3967 68.5839 56.8659 76.2888 49.0993C80.0135 45.3449 83.0558 41.5668 85.1695 38.7191C85.1905 38.6909 85.2113 38.6628 85.232 38.6349Z" fill="#0A00D8"/>
<path fill-rule="evenodd" clip-rule="evenodd" d="M47.3748 54.6037C45.7518 54.6037 44.4361 53.288 44.4361 51.665V22.5423C44.4361 20.9194 45.7518 19.6037 47.3748 19.6037H53.2151C54.8381 19.6037 56.1538 20.9194 56.1538 22.5423V51.665C56.1538 53.288 54.8381 54.6037 53.2151 54.6037H47.3748Z" fill="#0A00D8"/>
<path fill-rule="evenodd" clip-rule="evenodd" d="M32.8649 34.16C32.8649 32.537 34.1806 31.2213 35.8036 31.2213H64.7863C66.4093 31.2213 67.725 32.537 67.725 34.16V40.0473C67.725 41.6703 66.4093 42.986 64.7863 42.986H35.8036C34.1806 42.986 32.8649 41.6703 32.8649 40.0473V34.16Z" fill="#0A00D8"/>
</svg>
