<svg width="101" height="101" viewBox="0 0 101 101" fill="none" xmlns="http://www.w3.org/2000/svg">
<path d="M47.8636 54.3331L45.7579 35.2062H55.848L53.7422 54.3331H47.8636Z" fill="#0A00D8"/>
<path d="M50.4958 67.7736C47.7759 67.7736 45.5824 65.6197 45.5824 62.9488C45.5824 60.2779 47.7759 58.0379 50.4958 58.124C53.2158 58.124 55.4093 60.2779 55.4093 62.9488C55.4093 65.6197 53.2158 67.7736 50.4958 67.7736Z" fill="#0A00D8"/>
<path fill-rule="evenodd" clip-rule="evenodd" d="M50.7152 81.6449C67.8906 81.6449 81.8139 67.739 81.8139 50.5852C81.8139 33.4314 67.8906 19.5256 50.7152 19.5256C33.5398 19.5256 19.6165 33.4314 19.6165 50.5852C19.6165 67.739 33.5398 81.6449 50.7152 81.6449ZM50.7152 72.5984C62.888 72.5984 72.7561 62.7428 72.7561 50.5852C72.7561 38.4277 62.888 28.5721 50.7152 28.5721C38.5424 28.5721 28.6744 38.4277 28.6744 50.5852C28.6744 62.7428 38.5424 72.5984 50.7152 72.5984Z" fill="#0A00D8"/>
<path fill-rule="evenodd" clip-rule="evenodd" d="M97.7968 27.8723L73.32 28.4755L73.32 3.82782H81.9466V13.1644L94.1931 0.812322L100.293 6.90457L88.0465 19.2566L97.7968 19.2566L97.7968 27.8723Z" fill="#0A00D8"/>
<path fill-rule="evenodd" clip-rule="evenodd" d="M97.7968 73.6641L73.32 73.0609L73.32 97.7086H81.9466V88.372L94.193 100.724L100.293 94.6318L88.0465 82.2798L97.7968 82.2798L97.7968 73.6641Z" fill="#0A00D8"/>
<path fill-rule="evenodd" clip-rule="evenodd" d="M3.58407 28.4754L28.0608 29.0786L28.0608 4.43093H19.4343L19.4343 13.7675L6.39288 0.768188L0.292969 6.86044L13.3343 19.8597L3.58408 19.8597L3.58407 28.4754Z" fill="#0A00D8"/>
<path fill-rule="evenodd" clip-rule="evenodd" d="M3.58407 73.061L28.0608 72.4578L28.0608 97.1055H19.4343L19.4343 87.7689L6.39288 100.768L0.292969 94.6759L13.3343 81.6767L3.58408 81.6767L3.58407 73.061Z" fill="#0A00D8"/>
</svg>
