<svg width="101" height="101" viewBox="0 0 101 101" fill="none" xmlns="http://www.w3.org/2000/svg">
<path fill-rule="evenodd" clip-rule="evenodd" d="M13.1284 1.10136C6.74016 -0.386004 0.617065 4.39515 0.617065 10.8707V33.4501C0.617065 38.9938 5.17231 43.4878 10.7915 43.4878H35.0396C37.8536 39.2783 42.3779 36.2236 47.5191 35.3955C47.6444 34.7661 47.7101 34.1157 47.7101 33.4501V17.0975C47.7101 12.442 44.4654 8.39745 39.8726 7.32813L13.1284 1.10136ZM9.338 10.8707C9.338 9.94565 10.2127 9.26263 11.1253 9.47511L37.8695 15.7019C38.5256 15.8546 38.9892 16.4324 38.9892 17.0975V33.4501C38.9892 34.2421 38.3384 34.8841 37.5357 34.8841H10.7915C9.98875 34.8841 9.338 34.242 9.338 33.4501V10.8707Z" fill="#0A00D8"/>
<path d="M10.7915 47.5031H33.0182C32.3696 49.3283 32.0153 51.2747 32.0153 53.2833C32.0153 54.2911 32.0817 55.2298 32.2046 56.1068H10.7915C9.98875 56.1068 9.338 56.7488 9.338 57.5408V80.0642C9.338 80.9937 10.2206 81.6776 11.1359 81.4574L21.7227 78.9099C20.897 79.9964 20.1654 81.1455 19.5342 82.3722C18.4512 84.4771 17.6469 86.6657 17.0573 88.8885L13.2024 89.8161C6.79514 91.3579 0.61707 86.5707 0.61707 80.0642V57.5408C0.61707 51.9971 5.17231 47.5031 10.7915 47.5031Z" fill="#0A00D8"/>
<path d="M84.325 89.0389L88.1315 89.9148C94.513 91.3834 100.617 86.6043 100.617 80.1395V57.5408C100.617 51.9971 96.0618 47.5031 90.4426 47.5031H67.1284C67.7181 49.317 68.0367 51.2605 68.0367 53.2833C68.0367 54.2569 67.936 55.1989 67.7529 56.1068H90.4426C91.2454 56.1068 91.8961 56.7488 91.8961 57.5408V80.1395C91.8961 81.063 91.0241 81.7458 90.1125 81.536L79.5629 79.1083C80.2978 80.1577 81.0019 81.3027 81.7038 82.5649C82.9468 84.8003 83.7685 86.9384 84.325 89.0389Z" fill="#0A00D8"/>
<path fill-rule="evenodd" clip-rule="evenodd" d="M90.4426 43.4878H65.2569C62.7056 39.4057 58.592 36.4539 53.7366 35.5009C53.5973 34.8388 53.524 34.1529 53.524 33.4501V17.0975C53.524 12.442 56.7688 8.39745 61.3615 7.32813L88.1057 1.10136C94.494 -0.386004 100.617 4.39515 100.617 10.8707V33.4501C100.617 38.9938 96.0618 43.4878 90.4426 43.4878ZM91.8961 10.8707C91.8961 9.94565 91.0214 9.26263 90.1088 9.47511L63.3646 15.7019C62.7085 15.8546 62.245 16.4324 62.245 17.0975V33.4501C62.245 34.2421 62.8957 34.8841 63.6985 34.8841H90.4426C91.2454 34.8841 91.8961 34.242 91.8961 33.4501V10.8707Z" fill="#0A00D8"/>
<path d="M64.0203 52.5845C64.0203 59.99 57.8868 65.9934 50.3208 65.9934C42.7547 65.9934 36.6213 59.99 36.6213 52.5845C36.6213 45.179 42.7547 39.1757 50.3208 39.1757C57.8868 39.1757 64.0203 45.179 64.0203 52.5845Z" fill="#0A00D8"/>
<path d="M21.4533 87.5389C19.6272 92.6016 18.9165 94.8885 18.6033 100.828H33.8048C34.0941 95.3409 34.7153 95.5246 35.8068 92.4987C36.8354 89.6467 38.1675 88.0357 39.8676 86.9881C41.7095 85.8531 44.826 84.865 50.3209 84.865C55.7804 84.865 58.8818 85.8725 60.7221 87.0277C62.4393 88.1055 63.7933 89.7697 64.8349 92.6779C65.9344 95.7478 66.5563 95.3692 66.8463 100.828H82.0475C81.733 94.9089 81.0202 92.8327 79.1995 87.7492C77.3209 82.5039 74.1691 77.7691 68.9393 74.4864C63.8327 71.281 57.5461 69.9663 50.3209 69.9663C43.1311 69.9663 36.8609 71.2355 31.7579 74.3799C26.5131 77.6118 23.3421 82.3023 21.4533 87.5389Z" fill="#0A00D8"/>
</svg>
