<svg width="101" height="101" viewBox="0 0 101 101" fill="none" xmlns="http://www.w3.org/2000/svg">
<path d="M69.7012 9.49196C70.2535 9.49196 70.7012 9.04424 70.7012 8.49196V1.43292C70.7012 0.880639 70.2535 0.432922 69.7012 0.432922H44.6597C44.1074 0.432922 43.6597 0.880638 43.6597 1.43292V8.49195C43.6597 9.04424 44.1074 9.49196 44.6597 9.49196H69.7012Z" fill="#0A00D8"/>
<path d="M39.8081 42.5211C40.3604 42.5211 40.8081 42.0734 40.8081 41.5211V34.462C40.8081 33.9098 40.3604 33.462 39.8081 33.462H11.8081C11.2558 33.462 10.8081 33.9098 10.8081 34.462V41.5211C10.8081 42.0734 11.2558 42.5211 11.8081 42.5211H39.8081Z" fill="#0A00D8"/>
<path d="M34.7261 60.1685C34.7261 60.7208 34.2784 61.1685 33.7261 61.1685H5.72607C5.17379 61.1685 4.72607 60.7208 4.72607 60.1685V53.1095C4.72607 52.5572 5.17379 52.1095 5.72608 52.1095H33.7261C34.2784 52.1095 34.7261 52.5572 34.7261 53.1095V60.1685Z" fill="#0A00D8"/>
<path d="M29.8081 79.8159C30.3604 79.8159 30.8081 79.3682 30.8081 78.8159V71.7569C30.8081 71.2046 30.3604 70.7569 29.8081 70.7569H1.80811C1.25582 70.7569 0.808105 71.2046 0.808105 71.7569V78.8159C0.808105 79.3682 1.25582 79.8159 1.80811 79.8159H29.8081Z" fill="#0A00D8"/>
<path d="M76.9421 39.3855C77.6503 38.4896 76.5555 37.2912 75.6093 37.9265L50.0762 55.0719C49.5642 55.4156 49.4807 56.1395 49.9009 56.5917L56.3728 63.5588C56.7884 64.0062 57.5019 63.9773 57.8809 63.4979L76.9421 39.3855Z" fill="#0A00D8"/>
<path d="M30.5352 90.6245C30.1341 90.2932 30.0672 89.7072 30.3732 89.2865L35.2862 82.5321C35.6358 82.0514 36.3243 81.981 36.7783 82.3648C42.4629 87.1699 49.7955 90.0639 57.7996 90.0639C75.8632 90.0639 90.5067 75.3244 90.5067 57.1423C90.5067 38.9602 75.8632 24.2206 57.7996 24.2206C51.0251 24.2206 44.7317 26.2937 39.5114 29.844C39.0491 30.1585 38.4161 30.0537 38.0954 29.5957L33.3085 22.76C32.9951 22.3123 33.0983 21.6949 33.5484 21.385C40.4525 16.6318 48.8035 13.8516 57.7996 13.8516C81.5525 13.8516 100.808 33.2335 100.808 57.1423C100.808 81.0511 81.5525 100.433 57.7996 100.433C47.451 100.433 37.956 96.754 30.5352 90.6245Z" fill="#0A00D8"/>
</svg>
