<svg width="101" height="85" viewBox="0 0 101 85" fill="none" xmlns="http://www.w3.org/2000/svg">
<path fill-rule="evenodd" clip-rule="evenodd" d="M36.4732 66.3337L18.9428 47.9129L0.820801 66.0384L7.15547 72.3743L14.0201 65.5083L13.9312 83.5864H22.8897L22.9787 65.5084L30.1385 72.6696L36.4732 66.3337Z" fill="#0A00D8"/>
<path fill-rule="evenodd" clip-rule="evenodd" d="M38.506 65.8825L56.0363 84.3033L74.1584 66.1777L67.8237 59.8419L60.959 66.7078L61.048 48.6298L52.0894 48.6298L52.0005 66.7078L44.8407 59.5466L38.506 65.8825Z" fill="#0A00D8"/>
<path d="M47.017 15.9385C45.4692 14.5686 42.88 13.4157 39.3651 13.4157C33.8237 13.4157 29.3315 17.9088 29.3315 23.4513C29.3315 23.5444 29.3327 23.637 29.3351 23.729C29.3385 23.8567 29.3404 23.9844 29.3408 24.112C29.4728 24.1224 29.6048 24.1339 29.7366 24.1466C37.1264 24.8584 43.6361 29.166 47.1325 35.9416C48.7209 39.0198 47.5137 42.8032 44.436 44.3919C41.3584 45.9806 37.5758 44.7732 35.9874 41.695C34.4669 38.7485 31.7269 36.9408 28.5344 36.6333C25.5599 36.3468 21.7136 36.7195 17.9178 40.2967C16.7082 41.5801 15.7153 43.0649 14.9929 44.6942L1.88434 57.0076C1.37938 54.8946 1.11199 53.9439 1.11199 51.6762C1.11199 44.9398 3.47145 38.7546 7.40888 33.9023C7.63667 33.542 7.90481 33.1997 8.2134 32.8817C8.50088 32.5855 8.79136 32.2966 9.08465 32.0152C10.833 30.2144 12.8193 28.6461 14.9929 27.3611C16.1475 26.6785 16.8332 25.4029 16.7976 24.0619C16.7922 23.859 16.7895 23.6555 16.7895 23.4513C16.7895 10.9807 26.8969 0.871338 39.3651 0.871338C51.8332 0.871338 61.9406 9.09906 61.9406 21.5696C61.9406 22.536 62.9182 23.2573 63.8367 22.9575C66.5957 22.0567 69.5416 21.5696 72.6013 21.5696C88.1865 21.5696 100.821 36.088 100.821 51.6762C100.821 61.0989 93.6092 73.3153 85.1433 77.7058L76.6775 68.2975C83.262 64.8478 88.2788 56.3705 88.2788 51.6762C88.2788 41.9529 80.2426 34.114 72.6013 34.114C70.8797 34.114 69.2466 34.387 67.7288 34.8826C58.5564 37.8773 49.3986 30.9101 49.3986 21.5696C49.3986 18.9592 48.4361 17.1945 47.017 15.9385Z" fill="#0A00D8"/>
</svg>
