<svg width="101" height="101" viewBox="0 0 101 101" fill="none" xmlns="http://www.w3.org/2000/svg">
<path fill-rule="evenodd" clip-rule="evenodd" d="M0.29412 21.8925C0.131063 21.0716 0.038208 20.1971 0.038208 19.2711C0.038208 15.0537 1.96424 11.9062 3.67633 10.0084C5.32036 8.18608 7.19181 7.00057 8.62091 6.24016C11.4951 4.71084 14.8843 3.70415 18.0963 2.99431C24.7127 1.53213 33.3745 0.737305 42.8256 0.737305C52.2837 0.737305 61.1851 1.53362 68.0199 2.96821C71.3411 3.66529 74.8056 4.64007 77.7243 6.08845C79.1614 6.80158 81.0779 7.92495 82.7858 9.6768C84.0819 11.0061 86.2504 13.1354 86.977 16.0047C87.205 16.905 87.2073 17.9987 87.0164 19.1273L80.631 56.0446C79.5417 55.7808 78.7976 55.4442 77.3599 54.9535C75.6784 54.3796 73.9669 53.8247 72.2338 53.2629C71.4444 53.0069 70.6504 52.7495 69.8527 52.4882L72.8105 34.3612C71.2311 34.8433 69.6091 35.2405 68.0199 35.574C61.1851 37.0086 52.2837 37.8049 42.8256 37.8049C33.3745 37.8049 24.7127 37.0101 18.0963 35.5479C16.6985 35.239 15.2671 34.8739 13.8593 34.434L21.4928 84.7893C27.1943 87.3141 34.7375 88.822 42.6248 88.9595C50.5247 89.0973 58.3155 87.8521 64.5036 85.2712L66.4058 73.6132C67.838 74.0887 69.2289 74.5507 70.5676 75.0076C72.874 75.7947 75.288 76.4996 77.7303 77.0102L76.0469 87.3275C75.4637 90.9015 73.1952 94.3429 69.4332 95.9555C61.3232 99.4318 51.6793 100.887 42.4213 100.725C33.1676 100.564 23.8287 98.7796 16.3102 95.353C12.6274 93.6746 10.4615 90.2395 9.92832 86.7226L0.104916 21.9214L0.29412 21.8925ZM58.3813 25.199C60.6453 24.9367 62.743 24.6189 64.6328 24.2544C71.0444 23.0177 75.0628 21.2429 75.0628 19.2711C75.0628 17.2993 71.0444 15.5245 64.6328 14.2878C62.743 13.9233 60.6453 13.6055 58.3813 13.3433C53.769 12.8089 48.4665 12.5048 42.8256 12.5048C37.1975 12.5048 32.0234 12.8075 27.5786 13.3396C25.6027 13.5762 23.771 13.8581 22.1075 14.1788C15.6759 15.419 11.7608 17.2406 11.7608 19.2711C11.7608 21.3016 15.6759 23.1232 22.1075 24.3634C23.771 24.6842 25.6027 24.9661 27.5786 25.2026C32.0234 25.7347 37.1975 26.0374 42.8256 26.0374C48.4665 26.0374 53.769 25.7333 58.3813 25.199Z" fill="#0A00D8"/>
<path d="M87.9712 60.6418C90.8883 58.9865 87.9532 54.8308 85.8955 51.909L88.2687 37.4763C89.6626 38.6328 91.1793 40.0229 92.6417 41.6219C97.2472 46.6578 102.904 56.3388 98.372 66.2284C95.7218 71.0797 90.7805 72.5741 86.5286 72.7875C84.0305 72.9129 81.2798 72.8874 78.489 72.3603C76.3703 71.9067 73.7532 71.1236 71.6149 70.3938C71.4613 70.3414 71.7693 70.4462 71.6149 70.3938C62.0697 67.5388 50.9584 62.5187 41.176 57.8223C38.2557 56.4202 37.0205 52.9072 38.4172 49.9758C39.8138 47.0443 43.3134 45.8044 46.2337 47.2064C54.3044 51.0811 62.7775 54.9229 70.2978 57.5858C71.7228 58.0468 73.7978 58.7181 75.1383 59.1687C79.5369 60.4303 83.6026 61.1522 85.9432 61.0347C87.0787 60.9777 87.6884 60.7788 87.9563 60.6491L87.9712 60.6418Z" fill="#0A00D8"/>
</svg>
