<svg width="101" height="101" viewBox="0 0 101 101" fill="none" xmlns="http://www.w3.org/2000/svg">
<path fill-rule="evenodd" clip-rule="evenodd" d="M74.7712 24.3677C74.7712 37.6096 63.8515 48.3443 50.3813 48.3443C36.9112 48.3443 25.9915 37.6096 25.9915 24.3677C25.9915 11.1258 36.9112 0.391113 50.3813 0.391113C63.8515 0.391113 74.7712 11.1258 74.7712 24.3677ZM62.5763 24.3677C62.5763 31.4241 56.8343 36.6484 50.3813 36.6484C43.9284 36.6484 38.1864 31.4241 38.1864 24.3677C38.1864 17.3113 43.9284 12.087 50.3813 12.087C56.8343 12.087 62.5763 17.3113 62.5763 24.3677Z" fill="#0A00D8"/>
<path d="M12.5871 100.391C12.5871 99.357 12.5847 98.3506 12.5823 97.3702C12.5691 91.8762 12.5578 87.1972 12.9865 83.0115C13.4851 78.1427 14.5295 74.668 16.3504 72.0689C19.7438 67.2253 27.7381 62.9642 50.3717 62.9642C72.9519 62.9642 80.9759 67.3235 84.3917 72.2337C86.2281 74.8734 87.2741 78.376 87.7739 83.219C88.2046 87.3923 88.1935 92.0349 88.1805 97.4553L88.1805 97.4643C88.1782 98.4154 88.1759 99.3904 88.1759 100.391H100.371C100.371 99.4624 100.373 98.5326 100.376 97.6042L100.376 97.5985C100.391 92.2174 100.406 86.8823 99.9095 82.067C99.32 76.3546 97.9613 70.6661 94.536 65.7424C87.4286 55.5255 73.5018 51.2683 50.3717 51.2683C27.295 51.2683 13.3483 55.383 6.22822 65.5459C2.79244 70.45 1.43696 76.1364 0.849942 81.8682C0.355952 86.6917 0.371224 92.0616 0.386746 97.5191C0.389463 98.4746 0.392188 99.4327 0.392189 100.391H12.5871Z" fill="#0A00D8"/>
</svg>
