<svg width="127" height="171" viewBox="0 0 127 171" fill="none" xmlns="http://www.w3.org/2000/svg">
<path d="M63.0115 54C77.9232 54 90.0115 41.9117 90.0115 27C90.0115 12.0883 77.9232 0 63.0115 0C48.0998 0 36.0115 12.0883 36.0115 27C36.0115 41.9117 48.0998 54 63.0115 54Z" fill="#0A00D8"/>
<path d="M30.0061 164.439V164.438C29.9912 152.526 29.9781 142.087 30.4604 132.742C31.0306 121.692 32.255 113.464 34.406 107.371C36.4334 101.628 39.0588 98.3842 42.4094 96.2747C46.0397 93.9893 52.1818 91.9997 63.0115 91.9997C73.7715 91.9997 79.8839 94.0284 83.5111 96.3545C86.8953 98.5248 89.5639 101.876 91.6167 107.732C93.7837 113.913 95.0094 122.196 95.5811 133.189C96.0657 142.509 96.0528 152.869 96.0381 164.619C96.0356 166.681 96.0329 168.786 96.0329 170.935H126.033C126.033 168.885 126.036 166.843 126.039 164.813C126.055 153.116 126.07 141.82 125.541 131.631C124.921 119.711 123.516 108.043 119.928 97.8072C116.225 87.2453 110.013 77.7114 99.706 71.1013C89.6416 64.647 77.2514 61.9997 63.0115 61.9997C48.8413 61.9997 36.4835 64.5554 26.4263 70.8869C16.0895 77.3946 9.83979 86.8394 6.11718 97.3839C2.51817 107.578 1.1175 119.235 0.500229 131.196C-0.0266393 141.405 -0.0108093 152.777 0.00570166 164.639C0.00860369 166.724 0.0115267 168.824 0.0115277 170.935L30.0115 170.935C30.0115 168.722 30.0088 166.557 30.0061 164.439Z" fill="#0A00D8"/>
</svg>
