<svg width="100" height="100" viewBox="0 0 100 100" fill="none" xmlns="http://www.w3.org/2000/svg">
<path d="M38.4535 43.3456C38.4428 42.7334 37.9639 42.2365 37.3601 42.212C26.5558 41.7728 18.319 42.2353 12.3081 45.0857C11.9023 45.2781 11.6605 45.7041 11.6803 46.1577L11.9854 53.1255C12.0063 53.604 12.3155 54.0202 12.7635 54.1732L18.3338 56.0748C18.5743 56.1569 18.8343 56.1542 19.0764 56.0771C20.235 55.7081 21.7305 55.3986 23.6916 55.174C27.4295 54.7459 31.8925 54.7399 37.4253 54.9844C38.0841 55.0135 38.6337 54.4784 38.6242 53.8103C38.584 50.9985 38.5001 46.022 38.4535 43.3456Z" fill="#0A00D7"/>
<path d="M43.5508 51.2274C43.3096 51.4496 43.173 51.7646 43.1766 52.0949C43.2578 59.6754 43.721 68.4955 43.3367 72.903C43.0951 75.6738 42.7198 77.5839 42.2012 79.0403C41.9457 79.7577 42.3229 80.5899 43.0568 80.7598L47.4251 81.7708C47.8297 81.8644 48.1527 82.1727 48.269 82.5764L49.8187 87.954C50.0717 88.832 51.1686 89.0687 51.6823 88.3166C54.7347 83.8475 56.0279 77.8826 56.0279 72.0133L56.0723 51.2444C56.073 50.9161 55.9363 50.6029 55.6963 50.3825L50.8452 45.9279C50.4085 45.5269 49.7427 45.5273 49.3066 45.9289L43.5508 51.2274Z" fill="#0A00D7"/>
<path d="M45.4577 94.2477C45.5037 94.6481 45.339 95.0481 45.0206 95.2897C34.4802 103.288 21.9629 100.367 12.0926 92.0209C11.3337 91.3792 11.74 90.1643 12.7246 90.0752L18.0955 89.5891C18.6415 89.5397 19.0763 89.1052 19.1324 88.5527L19.5817 84.1331C19.6764 83.2008 20.7754 82.7534 21.5198 83.3099C24.7275 85.7079 27.8275 86.9282 30.3736 87.1867C32.2678 87.379 34.3571 87.1181 36.6147 85.6801C36.8867 85.5068 37.2146 85.441 37.5276 85.5145L43.8609 87.0022C44.3319 87.1129 44.6836 87.5114 44.7395 87.9979L45.4577 94.2477Z" fill="#0A00D7"/>
<path d="M6.12747 84.85C5.72264 84.8867 5.32608 84.7018 5.09721 84.3615C-2.16712 73.5608 -0.88565 61.2105 4.0649 52.6839C4.32532 52.2374 4.59661 51.8083 4.87891 51.396C5.41373 50.615 6.55176 50.9058 6.74802 51.8354L8.12518 58.3582C8.21046 58.7622 8.50136 59.0897 8.88889 59.218L12.8217 60.5207C13.4657 60.734 13.7836 61.4634 13.5563 62.1101C12.1546 66.0974 12.1039 70.8758 14.5033 75.4708C14.6129 75.6808 14.6625 75.9191 14.6384 76.1554L13.9222 83.2021C13.866 83.7545 13.4312 84.1891 12.8853 84.2385L6.12747 84.85Z" fill="#0A00D7"/>
<path d="M45.0044 42.0109C44.285 42.6418 43.1666 42.1599 43.1263 41.1968C42.6728 30.3492 43.1219 18.8333 45.7869 12.6924C45.9616 12.29 46.3611 12.0434 46.795 12.0434H53.1233C53.5431 12.0434 53.9291 12.2761 54.1294 12.6498L56.3864 16.8623C56.5622 17.1903 56.5663 17.5821 56.4585 17.939C55.9319 19.681 55.8405 22.9116 55.8405 23.8551L55.8558 40.9359C55.8567 41.9554 54.6523 42.48 53.9227 41.778L50.5496 38.5323C50.1226 38.1214 49.4574 38.1058 49.0121 38.4964L45.0044 42.0109Z" fill="#0A00D7"/>
<path d="M94.3583 44.5484C94.7652 44.6056 95.1752 44.4354 95.4179 44.0996C103.196 33.3398 100.395 20.5133 92.0896 10.5801C91.4507 9.81598 90.2563 10.2391 90.1781 11.2374L89.7518 16.6836C89.7085 17.2372 89.2839 17.682 88.7392 17.7443L84.3816 18.2434C83.4624 18.3487 83.0318 19.4665 83.5885 20.2152C85.9871 23.4409 87.2224 26.5694 87.5028 29.1463C87.7115 31.0634 87.4748 33.1826 86.078 35.4841C85.9096 35.7614 85.8479 36.0942 85.9236 36.4106L87.4613 42.8385C87.572 43.3015 87.9509 43.6488 88.4167 43.7142L94.3583 44.5484Z" fill="#0A00D7"/>
<path d="M85 5C85.0377 4.51877 84.7716 4.06001 84.3369 3.86231C69.0921 -3.07111 56.1371 1.18297 49.9594 5.12749C49.0651 5.6985 49.4979 6.94613 50.555 6.94613H56.718C57.1459 6.94613 57.538 7.18789 57.7347 7.5729L60.1733 12.3472C60.4534 12.8956 61.1066 13.1224 61.675 12.8999C65.7269 11.3136 71.7332 11.0953 76.39 13.5C76.5989 13.6079 76.8342 13.6558 77.0672 13.6291L83.5885 12.8999C84.1331 12.8375 84.5577 12.3927 84.6011 11.8391L85 5Z" fill="#0A00D7"/>
<path d="M60.4972 43.6243C60.4972 42.9844 61.0125 42.465 61.6441 42.4677C68.2053 42.4958 69.3227 42.841 73.5341 42.4212C76.2664 42.1488 78.1479 41.7496 79.5802 41.2098C80.2857 40.9438 81.1108 41.3176 81.2858 42.0595L82.3271 46.4749C82.4236 46.8839 82.731 47.208 83.1306 47.3218L88.4536 48.8383C89.3227 49.0859 89.5672 50.1948 88.83 50.7227C84.4495 53.8595 78.5752 55.229 72.7823 55.2874L61.6656 55.5207C61.0243 55.5342 60.4972 55.0111 60.4972 54.3612V43.6243Z" fill="#0A00D7"/>
</svg>
