<svg width="97" height="101" viewBox="0 0 97 101" fill="none" xmlns="http://www.w3.org/2000/svg">
<path d="M6.29297 25.9355C6.91316 24.7882 8.46002 24.6105 9.37308 25.5418L15.3196 31.607C15.9186 32.218 16.0579 33.1402 15.7018 33.9183C13.4409 38.8586 12.1655 44.4178 12.1655 50.3452C12.1655 57.223 13.8827 63.605 16.8641 69.0996C17.2972 69.8979 17.1831 70.8907 16.5472 71.5393L10.7209 77.4819C9.83828 78.3822 8.35106 78.252 7.69093 77.1779C2.92619 69.4251 0.165527 60.2194 0.165527 50.3452C0.165527 41.4807 2.39048 33.1549 6.29297 25.9355Z" fill="#0A00D8"/>
<path d="M26.9797 92.3233C26.062 93.2593 26.278 94.8115 27.4502 95.3983C33.7834 98.5683 40.8868 100.345 48.3906 100.345C55.7954 100.345 62.8104 98.6149 69.08 95.5229C70.2599 94.9411 70.4813 93.3827 69.5603 92.4434L63.5394 86.3022C62.9538 85.7049 62.0603 85.5404 61.2839 85.8515C57.2547 87.466 52.9015 88.3452 48.3906 88.3452C43.7891 88.3452 39.3517 87.4304 35.2549 85.7534C34.4756 85.4343 33.5746 85.5967 32.985 86.198L26.9797 92.3233Z" fill="#0A00D8"/>
<path d="M24.9762 6.62362C23.8804 7.2558 23.716 8.7463 24.6017 9.64965L30.4692 15.6343C31.0983 16.276 32.0755 16.4139 32.8797 16.0133C37.6134 13.6551 42.8845 12.3452 48.3906 12.3452C53.8083 12.3452 58.9986 13.6134 63.6732 15.9006C64.4753 16.2931 65.445 16.1525 66.0702 15.5148L71.9498 9.51781C72.8386 8.61129 72.6694 7.11474 71.566 6.4867C64.6885 2.57178 56.7903 0.345215 48.3906 0.345215C39.8934 0.345215 31.9095 2.62373 24.9762 6.62362Z" fill="#0A00D8"/>
<path d="M90.3553 25.6913C89.7308 24.5512 88.1899 24.3783 87.2799 25.3065L81.3466 31.3582C80.7439 31.973 80.6069 32.9021 80.9705 33.6825C83.2992 38.6814 84.6156 44.3233 84.6156 50.3452C84.6156 57.3161 82.8516 63.7777 79.7954 69.3222C79.3544 70.1221 79.4659 71.1219 80.1053 71.7742L85.9214 77.7063C86.801 78.6036 88.2824 78.4778 88.9461 77.4109C93.7993 69.6099 96.6156 60.3186 96.6156 50.3452C96.6156 41.3805 94.3401 32.9669 90.3553 25.6913Z" fill="#0A00D8"/>
<path fill-rule="evenodd" clip-rule="evenodd" d="M90.6311 6.19256C92.9928 8.51702 93.0229 12.3159 90.6985 14.6776L74.5375 31.1612C72.2131 33.5229 68.4142 33.5531 66.0525 31.2286C63.6909 28.9041 63.6607 25.1053 65.9852 22.7436L82.1461 6.25993C84.4705 3.89825 88.2694 3.86809 90.6311 6.19256Z" fill="#0A00D8"/>
<path fill-rule="evenodd" clip-rule="evenodd" d="M90.6311 98.2059C92.9928 95.8814 93.0229 92.0825 90.6985 89.7209L74.5375 73.2372C72.2131 70.8755 68.4142 70.8454 66.0525 73.1698C63.6909 75.4943 63.6607 79.2932 65.9852 81.6549L82.1461 98.1385C84.4705 100.5 88.2694 100.53 90.6311 98.2059Z" fill="#0A00D8"/>
<path fill-rule="evenodd" clip-rule="evenodd" d="M5.79115 6.19256C3.42947 8.51702 3.3993 12.3159 5.72377 14.6776L21.8847 31.1612C24.2092 33.5229 28.008 33.5531 30.3697 31.2286C32.7314 28.9041 32.7615 25.1053 30.4371 22.7436L14.2762 6.25993C11.9517 3.89825 8.15282 3.86809 5.79115 6.19256Z" fill="#0A00D8"/>
<path fill-rule="evenodd" clip-rule="evenodd" d="M5.79115 98.2059C3.42947 95.8814 3.3993 92.0825 5.72377 89.7209L21.8847 73.2372C24.2092 70.8755 28.008 70.8454 30.3697 73.1698C32.7314 75.4943 32.7615 79.2932 30.4371 81.6549L14.2762 98.1385C11.9517 100.5 8.15282 100.53 5.79115 98.2059Z" fill="#0A00D8"/>
</svg>
