<svg width="101" height="101" viewBox="0 0 101 101" fill="none" xmlns="http://www.w3.org/2000/svg">
<path fill-rule="evenodd" clip-rule="evenodd" d="M37.7253 13.2979C36.2945 13.2854 34.9175 13.8418 33.897 14.8446L15.285 33.1345C14.2645 34.1374 13.6842 35.5045 13.6717 36.9352L13.444 63.0288C13.4315 64.4595 13.9879 65.8366 14.9907 66.8571L33.2806 85.469C34.2835 86.4895 35.6506 87.0698 37.0814 87.0823L63.1749 87.31C64.6056 87.3225 65.9827 86.7661 67.0032 85.7633L85.6151 67.4734C86.6356 66.4706 87.2159 65.1034 87.2284 63.6727L87.4561 37.5791C87.4686 36.1484 86.9123 34.7713 85.9094 33.7508L67.6195 15.1389C66.6167 14.1184 65.2495 13.5381 63.8188 13.5256L37.7253 13.2979ZM73.0953 2.23879C72.0924 1.21829 70.7253 0.637963 69.2946 0.625477L32.4755 0.304161C31.0447 0.291675 29.6677 0.848054 28.6472 1.8509L2.38491 27.6587C1.36441 28.6616 0.784081 30.0287 0.771595 31.4595L0.450279 68.2786C0.437793 69.7093 0.994173 71.0864 1.99702 72.1069L27.8048 98.3691C28.8077 99.3896 30.1749 99.9699 31.6056 99.9824L68.4247 100.304C69.8554 100.316 71.2325 99.7598 72.253 98.757L98.5152 72.9492C99.5357 71.9463 100.116 70.5792 100.129 69.1484L100.45 32.3293C100.462 30.8986 99.906 29.5215 98.9031 28.501L73.0953 2.23879Z" fill="#0A00D8"/>
<path d="M44.88 22.3221V48.1833C44.88 49.3433 41.7961 49.3676 41.7961 48.1833V26.4657C41.7961 22.3554 34.5417 22.2282 34.5417 26.4657V51.0759C34.5417 52.5904 33.0545 52.8115 32.4942 51.6726C31.9611 50.5792 29.7439 45.6935 29.7166 45.642C27.4903 40.9744 20.0452 43.8095 22.3593 49.304C22.9348 50.7942 28.9878 64.4991 30.8052 68.5791C32.7104 72.853 38.2357 80.5935 45.3798 80.5935H57.3138C62.7202 80.5935 70.3544 75.157 70.3544 67.7957V35.0467C70.3544 30.7032 64.3692 30.9213 64.3692 34.8468V49.207C64.3692 50.3914 61.2035 50.3853 61.2035 49.207V26.1325C61.2035 21.6648 54.5155 21.7859 54.5155 26.1325V47.9167C54.5155 49.1192 51.5043 49.0617 51.5043 47.8925V22.3221C51.5043 17.9755 44.88 17.8483 44.88 22.3221Z" fill="#0A00D8"/>
</svg>
