<svg width="100" height="100" viewBox="0 0 100 100" fill="none" xmlns="http://www.w3.org/2000/svg">
<path fill-rule="evenodd" clip-rule="evenodd" d="M10 0C4.47715 0 0 4.47716 0 10V90C0 95.5229 4.47716 100 10 100H90C95.5229 100 100 95.5228 100 90V10C100 4.47715 95.5228 0 90 0H10ZM14 12C12.8954 12 12 12.8954 12 14V30C12 31.1046 12.8954 32 14 32H30C31.1046 32 32 31.1046 32 30V14C32 12.8954 31.1046 12 30 12H14ZM12 42C12 40.8954 12.8954 40 14 40H30C31.1046 40 32 40.8954 32 42V58C32 59.1046 31.1046 60 30 60H14C12.8954 60 12 59.1046 12 58V42ZM14 68C12.8954 68 12 68.8954 12 70V86C12 87.1046 12.8954 88 14 88H30C31.1046 88 32 87.1046 32 86V70C32 68.8954 31.1046 68 30 68H14ZM40 14C40 12.8954 40.8954 12 42 12H58C59.1046 12 60 12.8954 60 14V30C60 31.1046 59.1046 32 58 32H42C40.8954 32 40 31.1046 40 30V14ZM42 40C40.8954 40 40 40.8954 40 42V58C40 59.1046 40.8954 60 42 60H58C59.1046 60 60 59.1046 60 58V42C60 40.8954 59.1046 40 58 40H42ZM40 70C40 68.8954 40.8954 68 42 68H58C59.1046 68 60 68.8954 60 70V86C60 87.1046 59.1046 88 58 88H42C40.8954 88 40 87.1046 40 86V70ZM70 12C68.8954 12 68 12.8954 68 14V30C68 31.1046 68.8954 32 70 32H86C87.1046 32 88 31.1046 88 30V14C88 12.8954 87.1046 12 86 12H70ZM68 42C68 40.8954 68.8954 40 70 40H86C87.1046 40 88 40.8954 88 42V58C88 59.1046 87.1046 60 86 60H70C68.8954 60 68 59.1046 68 58V42ZM70 68C68.8954 68 68 68.8954 68 70V86C68 87.1046 68.8954 88 70 88H86C87.1046 88 88 87.1046 88 86V70C88 68.8954 87.1046 68 86 68H70Z" fill="#0A00D8"/>
</svg>
