<svg width="100" height="101" viewBox="0 0 100 101" fill="none" xmlns="http://www.w3.org/2000/svg">
<path d="M74.3279 51.8284C73.8901 51.8284 73.4715 52.0054 73.1697 52.318L64.1445 61.1727C63.5632 61.7749 63.9962 62.7705 64.8394 62.7705H86.0733V51.8284H74.3279Z" fill="#0A00D8"/>
<path d="M87.5955 87.1733C87.5955 87.991 88.5767 88.4234 89.1946 87.878L99.3476 78.454C99.6863 78.155 99.8799 77.7279 99.8799 77.2796V61.4792H87.5955V87.1733Z" fill="#0A00D8"/>
<path d="M64.1387 89.6946V100.637H76.3449C76.7896 100.637 77.2142 100.454 77.5167 100.133L86.1281 91.4344C86.6956 90.8316 86.2661 89.8512 85.4319 89.8453L64.1387 89.6946Z" fill="#0A00D8"/>
<path d="M98.2812 51.8284H87.5955V61.4792H99.8799V53.4047C99.8799 52.5341 99.1641 51.8284 98.2812 51.8284Z" fill="#0A00D8"/>
<path d="M51.5354 73.5204C51.215 73.8182 51.0334 74.2331 51.0334 74.6672V88.6602H62.6172V64.858C62.6172 64.0287 61.6118 63.601 60.9998 64.1699L51.5354 73.5204Z" fill="#0A00D8"/>
<path d="M62.6172 88.525H51.0334V98.9855C51.0334 99.8561 51.7492 100.562 52.6322 100.562H62.6172V88.525Z" fill="#0A00D8"/>
<path fill-rule="evenodd" clip-rule="evenodd" d="M50.2614 48.3443C63.7638 48.3443 74.7098 37.6096 74.7098 24.3677C74.7098 11.1258 63.7638 0.391113 50.2614 0.391113C36.7589 0.391113 25.813 11.1258 25.813 24.3677C25.813 37.6096 36.7589 48.3443 50.2614 48.3443ZM50.2614 36.6484C56.7298 36.6484 62.4856 31.4241 62.4856 24.3677C62.4856 17.3113 56.7298 12.087 50.2614 12.087C43.7929 12.087 38.0372 17.3113 38.0372 24.3677C38.0372 31.4241 43.7929 36.6484 50.2614 36.6484Z" fill="#0A00D8"/>
<path d="M12.3716 97.3702C12.374 98.3506 12.3764 99.357 12.3764 100.391H0.152225C0.152224 99.4327 0.149492 98.4746 0.146768 97.5191C0.13121 92.0617 0.115901 86.6917 0.611076 81.8682C1.1995 76.1364 2.55823 70.45 6.00227 65.5459C13.1394 55.383 27.1196 51.2683 50.2517 51.2683C52.5738 51.2683 59.8033 51.311 61.9427 51.3981L50.0076 63.0466C31.2922 63.6603 19.274 67.6187 16.1487 72.0689C14.3234 74.668 13.2766 78.1427 12.7767 83.0115C12.347 87.1972 12.3583 91.8762 12.3716 97.3702Z" fill="#0A00D8"/>
</svg>
