<svg width="100" height="101" viewBox="0 0 100 101" fill="none" xmlns="http://www.w3.org/2000/svg">
<path fill-rule="evenodd" clip-rule="evenodd" d="M61.8468 43.2251C62.6278 44.0058 63.8939 44.0058 64.6749 43.2251L78.1416 29.7622C78.9226 28.9814 80.1886 28.9814 80.9696 29.7622L82.281 31.0732C83.1713 31.9633 84.6528 31.8193 85.355 30.7744L97.9758 11.9944C98.5053 11.2064 98.408 10.1548 97.7427 9.47743L91.6214 3.24445C90.9429 2.5536 89.8669 2.44803 89.0671 2.99383L70.3346 15.7769C69.2993 16.4834 69.1615 17.9572 70.0479 18.8434L70.9147 19.7099C71.696 20.491 71.696 21.7576 70.9147 22.5387L57.4494 36C56.6681 36.7811 56.6681 38.0478 57.4494 38.8289L61.8468 43.2251ZM75.2258 50.7427C71.2321 50.7427 67.4589 51.6834 64.1069 53.3448C63.2978 53.7458 62.3143 53.6221 61.6757 52.9837L47.6877 38.9997C47.0489 38.3611 46.9251 37.377 47.3264 36.5677C48.9881 33.2169 49.9288 29.4452 49.9288 25.4531C49.9288 13.0466 40.9072 2.75326 29.0633 0.754482C27.9113 0.560074 26.911 1.48669 26.911 2.65496V12.415C26.911 13.3749 27.602 14.1821 28.4984 14.5255C32.7535 16.1557 36.475 20.8511 36.475 25.4246C36.475 32.2614 30.7473 36.9794 24.9169 36.9794C20.7163 36.9794 16.2868 33.718 14.4164 29.989C14.0269 29.2125 13.2731 28.6428 12.4044 28.6428H2.27019C1.06557 28.6428 0.128294 29.7028 0.387986 30.8791C2.86721 42.109 12.8805 50.5149 24.8599 50.5149C28.7464 50.5149 32.4206 49.6288 35.7021 48.0496C36.5077 47.6619 37.4793 47.7899 38.1116 48.422L52.2496 62.5558C52.8822 63.1882 53.0103 64.1603 52.6222 64.9662C51.0429 68.2465 50.1567 71.9192 50.1567 75.8048C50.1567 87.3393 57.9555 97.055 68.5748 99.9675C69.7723 100.296 70.8953 99.3499 70.8953 98.1082V87.6434C70.8953 86.8628 70.4326 86.1664 69.7726 85.7495C66.5725 83.7283 63.7341 79.5873 63.7341 75.7758C63.7341 69.0835 69.4617 64.2213 75.2919 64.2213C79.2946 64.2213 83.5718 67.2558 85.5292 70.7032C85.9354 71.4186 86.6598 71.931 87.4825 71.931H97.664C98.8914 71.931 99.8343 70.8324 99.5327 69.6427C96.7793 58.7832 86.9412 50.7427 75.2258 50.7427ZM2.72295 83.9383C1.89225 84.7098 1.86818 86.0167 2.66993 86.8182L14.875 99.0197C15.6764 99.8209 16.9828 99.7968 17.7541 98.9667L44.8178 69.8408C45.5503 69.0525 45.5277 67.8259 44.7667 67.065L34.6321 56.9332C33.8714 56.1727 32.6453 56.1501 31.8571 56.8821L2.72295 83.9383Z" fill="#0A00D8"/>
</svg>
