<svg width="100" height="100" viewBox="0 0 100 100" fill="none" xmlns="http://www.w3.org/2000/svg">
<path d="M76 15C76 15.5523 75.5523 16 75 16H56C55.4477 16 55 16.4477 55 17V43.5C55 44.0523 55.4477 44.5 56 44.5H75C75.5523 44.5 76 44.9477 76 45.5V53.5C76 54.0523 75.5523 54.5 75 54.5H56C55.4477 54.5 55 54.9477 55 55.5V84C55 84.5523 55.4477 85 56 85H75C75.5523 85 76 85.4477 76 86V94C76 94.5523 75.5523 95 75 95H46C45.4477 95 45 94.5523 45 94V55.5C45 54.9477 44.5523 54.5 44 54.5H25C24.4477 54.5 24 54.0523 24 53.5V45.5C24 44.9477 24.4477 44.5 25 44.5H44C44.5523 44.5 45 44.0523 45 43.5V7C45 6.44771 45.4477 6 46 6H75C75.5523 6 76 6.44772 76 7V15Z" fill="#0A00D8"/>
<path d="M80 2C80 0.895431 80.8954 0 82 0H98C99.1046 0 100 0.895431 100 2V18C100 19.1046 99.1046 20 98 20H82C80.8954 20 80 19.1046 80 18V2Z" fill="#0A00D8"/>
<path d="M80 42C80 40.8954 80.8954 40 82 40H98C99.1046 40 100 40.8954 100 42V58C100 59.1046 99.1046 60 98 60H82C80.8954 60 80 59.1046 80 58V42Z" fill="#0A00D8"/>
<path d="M0 42C0 40.8954 0.895431 40 2 40H18C19.1046 40 20 40.8954 20 42V58C20 59.1046 19.1046 60 18 60H2C0.895431 60 0 59.1046 0 58V42Z" fill="#0A00D8"/>
<path d="M80 82C80 80.8954 80.8954 80 82 80H98C99.1046 80 100 80.8954 100 82V98C100 99.1046 99.1046 100 98 100H82C80.8954 100 80 99.1046 80 98V82Z" fill="#0A00D8"/>
</svg>
