<svg width="101" height="101" viewBox="0 0 101 101" fill="none" xmlns="http://www.w3.org/2000/svg">
<path fill-rule="evenodd" clip-rule="evenodd" d="M63.9623 39.201C63.9623 38.8497 64.2037 38.545 64.5507 38.476C65.3843 38.3103 66.9883 38.0409 68.6043 38.0409C70.7431 38.0409 72.2633 38.2993 73.0201 38.4656C73.3481 38.5377 73.5664 38.8297 73.5664 39.1632V46.766C73.5664 46.946 73.6934 47.1012 73.8703 47.1411C76.5153 47.7374 78.9836 48.7958 81.1843 50.2262C81.3382 50.3262 81.542 50.3071 81.6721 50.1779L87.3987 44.493C87.6489 44.2446 88.0367 44.1985 88.3311 44.3933C89.0386 44.8613 90.3647 45.7967 91.5074 46.9311C93.0198 48.4325 93.9106 49.6823 94.3273 50.3312C94.5079 50.6124 94.4543 50.9721 94.2167 51.208L88.3026 57.0791C88.1771 57.2037 88.1542 57.3973 88.2449 57.5489C89.5464 59.725 90.4867 62.1391 90.9837 64.7097C91.0188 64.8913 91.1779 65.0242 91.3642 65.0242L99.6031 65.0242C99.939 65.0242 100.233 65.2409 100.306 65.5665C100.473 66.3179 100.734 67.8269 100.734 69.9502C100.734 71.5545 100.462 73.1468 100.295 73.9743C100.226 74.3188 99.9189 74.5584 99.565 74.5584H90.9714C90.7962 74.5584 90.6436 74.6762 90.5975 74.844C89.9953 77.0381 89.0649 79.0979 87.8621 80.9683C87.764 81.1208 87.7842 81.3208 87.9131 81.4488L94.0541 87.5451C94.3043 87.7935 94.3507 88.1784 94.1545 88.4708C93.6831 89.1731 92.7408 90.4896 91.5981 91.624C90.0857 93.1253 88.8268 94.0097 88.1732 94.4233C87.8899 94.6026 87.5275 94.5494 87.2899 94.3136L81.0459 88.115C80.9192 87.9892 80.7218 87.9674 80.5688 88.06C78.5765 89.2655 76.3808 90.1727 74.0449 90.7189C73.8695 90.7599 73.7441 90.9145 73.7441 91.0934V99.4287C73.7441 99.78 73.5027 100.085 73.1557 100.154C72.3221 100.319 70.7181 100.589 69.1021 100.589C66.9633 100.589 65.4431 100.33 64.6863 100.164C64.3583 100.092 64.14 99.8 64.14 99.4665V91.131C64.14 90.951 64.0131 90.7959 63.8363 90.7559C61.5547 90.24 59.4049 89.3803 57.4451 88.2345C57.2925 88.1454 57.0982 88.1683 56.973 88.2926L51.0707 94.152C50.8204 94.4004 50.4327 94.4465 50.1382 94.2517C49.4308 93.7837 48.1046 92.8483 46.9619 91.7139C45.4496 90.2125 44.5587 88.9627 44.142 88.3138C43.9614 88.0326 44.0151 87.6729 44.2526 87.437L49.9952 81.7362C50.1257 81.6067 50.1447 81.4037 50.0431 81.2508C48.6807 79.201 47.649 76.9155 47.0235 74.4691C46.9798 74.2982 46.8256 74.177 46.6479 74.177H38.7073C38.3535 74.177 38.0465 73.9374 37.977 73.593C37.8101 72.7654 37.5387 71.1731 37.5387 69.5688C37.5387 67.4456 37.799 65.9365 37.9665 65.1852C38.0391 64.8595 38.3333 64.6428 38.6692 64.6428L46.4333 64.6428C46.6171 64.6428 46.7748 64.5134 46.8126 64.3349C47.3584 61.7521 48.3531 59.3334 49.7119 57.1626C49.8072 57.0104 49.7859 56.8128 49.6583 56.6861L44.0312 51.0999C43.7809 50.8515 43.7346 50.4665 43.9308 50.1742C44.4022 49.4719 45.3445 48.1554 46.4872 47.021C47.9996 45.5197 49.2585 44.6353 49.9122 44.2217C50.1954 44.0424 50.5578 44.0956 50.7954 44.3314L56.4362 49.9313C56.5642 50.0583 56.764 50.0792 56.9174 49.9838C58.9675 48.7089 61.2391 47.7525 63.6617 47.1844C63.837 47.1433 63.9623 46.9888 63.9623 46.81V39.201ZM68.8602 84.1742C77.3162 84.1491 84.1 77.3195 84.1 68.9501C84.1 60.5807 77.3162 53.751 68.8602 53.7259C60.3791 53.7007 53.5288 60.5557 53.5288 68.9501C53.5288 77.3444 60.3791 84.1994 68.8602 84.1742Z" fill="#0A00D8"/>
<path d="M25.2281 3.70994C39.2403 -1.86614 58.9584 -0.584125 69.6882 12.5854L70.9805 6.44894L79.0777 8.11943L74.2494 31.0465L51.3928 25.7457L53.0806 17.7314L60.1533 19.1905C53.4148 11.7492 40.4213 10.0167 29.5478 14.3438C24.2093 16.4682 19.492 20.7008 16.3083 25.6962C13.075 30.7696 11.8624 35.912 12.464 39.6102L1.03154 41.4321C-0.153874 34.145 2.30515 26.186 6.51435 19.5815C10.7733 12.8989 17.2695 6.87702 25.2281 3.70994Z" fill="#0A00D8"/>
<path d="M31.0756 79.6015C30.8772 78.6178 31.5193 69.8674 31.5193 67.6864C27.7831 66.2645 24.8246 64.2617 22.9409 62.1081L30.0491 63.2163L31.336 55.1294L8.24333 50.9492L4.56176 74.0839L12.7323 75.3576L13.7317 69.077C17.9296 74.1674 24.3529 77.7329 31.0756 79.6015Z" fill="#0A00D8"/>
</svg>
