<svg width="102" height="100" viewBox="0 0 102 100" fill="none" xmlns="http://www.w3.org/2000/svg">
<path fill-rule="evenodd" clip-rule="evenodd" d="M68.4253 45.036C68.4253 44.7223 68.6393 44.4502 68.9469 44.3886C69.6859 44.2406 71.1079 44 72.5405 44C74.4367 44 75.7843 44.2308 76.4553 44.3793C76.7461 44.4437 76.9396 44.7045 76.9396 45.0023V51.7917C76.9396 51.9526 77.0522 52.0911 77.209 52.1268C79.5539 52.6593 81.742 53.6044 83.693 54.8819C83.8295 54.9712 84.0102 54.9541 84.1255 54.8387L89.2023 49.7619C89.4241 49.5401 89.7679 49.4989 90.0289 49.6729C90.6561 50.0908 91.8318 50.9262 92.8448 51.9392C94.1856 53.28 94.9753 54.3961 95.3447 54.9756C95.5048 55.2267 95.4573 55.548 95.2467 55.7586L90.0036 61.0017C89.8923 61.113 89.8721 61.2859 89.9524 61.4212C91.1063 63.3646 91.9399 65.5205 92.3805 67.816C92.4116 67.9783 92.5527 68.0969 92.7179 68.0969H100.022C100.32 68.0969 100.58 68.2905 100.645 68.5813C100.793 69.2522 101.024 70.5999 101.024 72.496C101.024 73.9287 100.783 75.3507 100.636 76.0897C100.574 76.3973 100.302 76.6113 99.9881 76.6113H92.3696C92.2143 76.6113 92.079 76.7164 92.0381 76.8663C91.5042 78.8257 90.6794 80.6652 89.6131 82.3355C89.5261 82.4717 89.5441 82.6503 89.6584 82.7646L95.1025 88.2088C95.3243 88.4306 95.3655 88.7744 95.1915 89.0354C94.7736 89.6626 93.9382 90.8383 92.9252 91.8513C91.5844 93.1921 90.4683 93.9819 89.8889 94.3513C89.6377 94.5114 89.3165 94.4638 89.1059 94.2532L83.5704 88.7177C83.458 88.6054 83.2831 88.5859 83.1474 88.6686C81.3812 89.7452 79.4347 90.5553 77.3638 91.0431C77.2083 91.0797 77.0971 91.2177 77.0971 91.3775V98.8212C77.0971 99.1349 76.8831 99.4071 76.5755 99.4687C75.8365 99.6166 74.4145 99.8573 72.9818 99.8573C71.0857 99.8573 69.7381 99.6265 69.0671 99.4779C68.7763 99.4136 68.5828 99.1528 68.5828 98.855V91.4111C68.5828 91.2504 68.4703 91.1118 68.3136 91.0761C66.2909 90.6154 64.385 89.8477 62.6476 88.8245C62.5123 88.7448 62.3401 88.7654 62.2291 88.8763L56.9965 94.109C56.7747 94.3308 56.4309 94.372 56.1698 94.198C55.5427 93.7801 54.367 92.9447 53.354 91.9317C52.0132 90.5909 51.2235 89.4748 50.8541 88.8953C50.694 88.6442 50.7415 88.3229 50.9521 88.1123L56.0431 83.0213C56.1587 82.9056 56.1756 82.7243 56.0855 82.5878C54.8777 80.7573 53.9631 78.7162 53.4086 76.5316C53.3698 76.3789 53.2332 76.2707 53.0756 76.2707H46.036C45.7223 76.2707 45.4502 76.0567 45.3886 75.7491C45.2406 75.0101 45 73.5881 45 72.1554C45 70.2593 45.2308 68.9116 45.3793 68.2407C45.4437 67.9499 45.7045 67.7563 46.0023 67.7563H52.8853C53.0483 67.7563 53.1881 67.6408 53.2216 67.4813C53.7055 65.1749 54.5873 63.0148 55.7919 61.0763C55.8764 60.9404 55.8575 60.7639 55.7444 60.6507L50.7558 55.6621C50.5339 55.4403 50.4928 55.0965 50.6668 54.8354C51.0847 54.2082 51.9201 53.0326 52.9331 52.0196C54.2739 50.6788 55.39 49.889 55.9694 49.5196C56.2206 49.3595 56.5418 49.4071 56.7524 49.6176L61.7532 54.6185C61.8667 54.732 62.0438 54.7506 62.1798 54.6654C63.9973 53.5269 66.0111 52.6728 68.1588 52.1654C68.3142 52.1287 68.4253 51.9908 68.4253 51.8311V45.036ZM72.7674 85.1985C80.2638 85.1761 86.2779 79.077 86.2779 71.6028C86.2779 64.1287 80.2638 58.0296 72.7674 58.0072C65.2486 57.9847 59.1757 64.1064 59.1757 71.6028C59.1757 79.0993 65.2486 85.221 72.7674 85.1985Z" fill="#0A00D8"/>
<path d="M1.94522 76.2499C0.471059 76.2499 0.503489 74.7094 1.14362 73.3815L34.1983 1.73723C34.9256 0.228537 37.0743 0.22854 37.8015 1.73724L59.4589 40.5307C59.7482 41.0489 59.5247 41.7028 58.9866 41.953C56.4311 43.1415 53.9334 44.6447 52.3314 45.8957C51.8162 46.298 51.0377 46.1827 50.7134 45.6152L37.9007 23.2003C37.5371 22.446 35.4628 22.446 35.0991 23.2003L17.9663 63.8157C17.6462 64.4797 18.13 65.2499 18.8671 65.2499H40.2341C40.8742 65.2499 41.3052 65.8325 41.0176 66.4043C40.5167 67.4004 39.7842 68.6242 39.5 70C39.2704 71.1115 39.4454 73.6613 39.5762 75.1377C39.6288 75.7317 39.1634 76.2499 38.5672 76.2499H1.94522Z" fill="#0A00D8"/>
<path d="M34.0789 50.9949C34.1025 51.2187 34.2903 51.3886 34.5141 51.3886H38.238C38.4618 51.3886 38.6496 51.2187 38.6732 50.9949L40.1963 36.5573C40.2237 36.2974 40.0211 36.0708 39.7611 36.0708H32.9911C32.7311 36.0708 32.5284 36.2974 32.5558 36.5573L34.0789 50.9949Z" fill="#0A00D8"/>
<path d="M32.3699 58.3167C32.3699 60.376 34.0532 62.0367 36.1404 62.0367C38.2277 62.0367 39.911 60.376 39.911 58.3167C39.911 56.2574 38.2277 54.5967 36.1404 54.5967C34.0532 54.5303 32.3699 56.2574 32.3699 58.3167Z" fill="#0A00D8"/>
</svg>
