<svg width="101" height="101" viewBox="0 0 101 101" fill="none" xmlns="http://www.w3.org/2000/svg">
<path d="M89.0648 77.3143C89.5945 77.5559 90.2352 77.4697 90.6287 77.053C96.1044 71.2544 99.5776 64.0448 100.734 56.4452C100.843 55.7342 100.268 55.1045 99.5182 55.0851L87.1058 54.7653C86.4635 54.7488 85.9109 55.1909 85.7818 55.7936C84.296 62.7271 79.7512 69.0042 72.7569 72.6429C65.7488 76.2889 57.7576 76.5182 50.864 73.9229C50.256 73.6941 49.5561 73.907 49.2263 74.4469L42.9725 84.6833C42.5971 85.2976 42.8438 86.0896 43.5208 86.3835C50.7646 89.5288 58.9033 90.6326 66.8975 89.3992C67.4767 89.3098 67.9009 88.8421 67.9774 88.2851C68.5758 83.9294 71.2638 79.9024 75.5973 77.6479C79.9309 75.3934 84.9222 75.4251 89.0648 77.3143Z" fill="#0A00D8"/>
<path d="M51.6611 27.2461C51.0466 27.4543 50.3559 27.2201 50.0446 26.6718L44.1182 16.2291C43.7629 15.6029 44.0371 14.8177 44.7249 14.5453C52.5445 11.449 60.9177 10.8585 68.7698 12.468C69.3101 12.5788 69.6993 13.02 69.7815 13.5431C70.0329 15.1422 70.5747 16.7276 71.428 18.2312C75.0116 24.5456 82.8485 27.2322 89.6669 24.7909C90.1865 24.6048 90.7815 24.7178 91.1445 25.1195C93.0441 27.2218 94.7384 29.551 96.1817 32.0943C98.8254 36.7525 100.382 41.6962 100.934 46.6574C101.014 47.3788 100.402 47.9895 99.6449 47.97L87.2024 47.6494C86.5706 47.6331 86.0489 47.1778 85.9422 46.5814C85.4715 43.9527 84.5492 41.3514 83.1448 38.8768C76.9495 27.9604 63.4901 23.2399 51.6611 27.2461Z" fill="#0A00D8"/>
<path d="M21.5343 60.11C21.1244 60.4312 20.9246 60.9474 21.0705 61.4348C21.8819 64.1465 23.0132 66.8161 24.4784 69.398C27.1553 74.1149 30.6953 78.0956 34.8078 81.2575C35.4042 81.7161 36.2799 81.545 36.6661 80.9129L42.9703 70.5939C43.2841 70.0804 43.1656 69.4278 42.7097 69.0236C40.6771 67.2216 38.9117 65.076 37.5154 62.6155C31.5572 52.1169 34.2767 39.3389 43.3417 31.8626C43.8142 31.4729 43.9566 30.8214 43.6588 30.2968L37.6883 19.7763C37.324 19.1345 36.4571 18.9363 35.8457 19.3732C29.3019 24.0493 24.5643 30.3727 21.9236 37.3992C21.745 37.8742 21.9058 38.3994 22.289 38.7462C23.4041 39.7553 24.3743 40.9479 25.1468 42.3091C28.6128 48.4163 26.9399 55.8733 21.5343 60.11Z" fill="#0A00D8"/>
<path d="M72.7337 95.2609C69.8371 90.1569 71.9339 83.7068 77.417 80.8541C82.9002 78.0015 89.6934 79.8266 92.59 84.9307C95.4866 90.0347 93.3898 96.4848 87.9067 99.3375C82.4235 102.19 75.6303 100.365 72.7337 95.2609Z" fill="#0A00D8"/>
<path d="M74.5689 16.6704C71.5895 11.4205 73.6192 4.85216 79.1023 1.99954C84.5855 -0.853088 91.4458 1.09025 94.4252 6.34011C97.4045 11.59 95.3748 18.1583 89.8917 21.011C84.4085 23.8636 77.5483 21.9202 74.5689 16.6704Z" fill="#0A00D8"/>
<path d="M2.31394 54.261C-0.665453 49.0111 1.36425 42.4427 6.84742 39.5901C12.3306 36.7375 19.1908 38.6808 22.1702 43.9307C25.1496 49.1805 23.1199 55.7489 17.6368 58.6015C12.1536 61.4542 5.29334 59.5108 2.31394 54.261Z" fill="#0A00D8"/>
</svg>
