<svg width="101" height="101" viewBox="0 0 101 101" fill="none" xmlns="http://www.w3.org/2000/svg">
<path fill-rule="evenodd" clip-rule="evenodd" d="M43.4945 42.2108C42.9392 42.3615 42.3516 42.3592 41.7975 42.2043L5.10658 31.9447C4.2807 31.7137 3.59043 31.1612 3.20006 30.4185L1.13372 26.4873C0.540589 25.3588 0.738717 23.9911 1.62948 23.0648L22.6056 1.25319C23.1927 0.642715 24.0147 0.295928 24.8754 0.295577L60.3052 0.281128C61.1454 0.280786 61.9499 0.610644 62.5351 1.19542L83.7518 22.3973C84.6485 23.2934 84.8822 24.6332 84.3391 25.7655L82.4025 29.8033C81.7392 29.7761 81.0721 29.7628 80.4018 29.7628C74.1917 29.7628 68.3053 30.8657 63.0193 33.3973C59.7768 34.915 56.8779 36.878 54.3549 39.2644L43.4945 42.2108ZM29.3929 5.9239C28.4379 5.9239 27.5361 6.34995 26.9475 7.07918L16.1424 20.4647C14.7474 22.1928 15.6653 24.7413 17.8663 25.2511L41.8628 30.8097C42.3349 30.9191 42.8268 30.9196 43.299 30.8113L67.5747 25.2435C69.7625 24.7417 70.6928 22.2216 69.3305 20.4871L58.8245 7.11075C58.2371 6.36288 57.3233 5.9239 56.354 5.9239H29.3929Z" fill="#0A00D8"/>
<path d="M48.9413 47.5323L43.6667 48.9938C43.1194 49.1454 42.5398 49.1483 41.991 49.0021L11.9721 41.0055C10.8032 40.6942 10.1635 39.4754 10.5917 38.3756C11.0184 37.2794 10.3846 36.0643 9.2213 35.7483L9.10871 35.7177C8.32939 35.506 7.49339 35.7335 6.94136 36.3075L1.62957 41.8305C0.738758 42.7568 0.540603 44.1246 1.13375 45.253L3.23641 49.2533C3.60536 49.9553 4.24319 50.489 5.01315 50.7402L41.6677 62.6981C42.3023 62.9051 42.9888 62.9077 43.625 62.7055L55.378 58.9701L52.4423 56.5785C49.7049 54.3484 48.4035 50.8817 48.9413 47.5323Z" fill="#0A00D8"/>
<path d="M61.1592 63.3709L43.827 69.1161C43.1854 69.3288 42.4896 69.332 41.8459 69.1251L11.7276 59.4472C10.6968 59.1159 10.1929 57.9882 10.6485 57.0323C11.1191 56.0449 10.5653 54.8837 9.48475 54.5923L9.19182 54.5133C8.44515 54.3119 7.64498 54.5304 7.11626 55.0799L1.56976 60.8452C0.708633 61.7403 0.491748 63.0518 1.02107 64.1632L3.26407 68.8725C3.61447 69.6082 4.25576 70.176 5.04307 70.4474L41.6173 83.0592C42.2826 83.2886 43.0086 83.2913 43.6756 83.0668L65.7148 75.6513C66.1419 72.6042 66.607 70.7628 65.9859 67.4496C65.3647 64.1363 61.1592 63.3709 61.1592 63.3709Z" fill="#0A00D8"/>
<path d="M75.602 79.3892C75.1682 79.3892 74.8149 79.0477 74.8308 78.6273C74.9334 75.9138 75.5926 73.6508 76.8084 71.8383C78.1916 69.8021 80.1834 67.5962 82.7838 65.2207C84.7756 63.4107 86.2417 61.8553 87.1823 60.5544C88.1782 59.1969 88.6762 57.6698 88.6762 55.973C88.6762 53.6961 86.8681 51.5731 85.8544 50.8103C84.8408 50.0476 81.0381 49.211 79.4889 49.211C73.8367 49.211 69.4964 51.1594 66.4679 55.0563C66.1876 55.417 65.6511 55.4911 65.2945 55.2006L58.4587 49.6317C58.1483 49.3789 58.0863 48.9376 58.3262 48.6208C60.6438 45.56 63.5761 43.203 67.1232 41.5499C70.8855 39.74 75.3117 38.835 80.4018 38.835C86.5985 38.835 91.5227 40.2208 95.1743 42.9922C98.8813 45.7072 100.735 49.4685 100.735 54.2761C100.735 56.5951 100.347 58.6313 99.5729 60.3847C98.8536 62.1381 97.9684 63.637 96.9171 64.8813C95.8659 66.0691 94.4827 67.4548 92.7676 69.0385C90.6651 70.9616 89.0883 72.6584 88.037 74.129C87.1675 75.413 86.6776 76.9126 86.5672 78.6279C86.5402 79.0477 86.1916 79.3892 85.7578 79.3892H75.602ZM80.7214 100.273C78.1979 100.4 75.9937 99.0441 74.7212 97.7998C73.504 96.4989 72.8954 94.9151 72.8954 93.0486C72.8954 91.1821 73.504 89.6267 74.7212 88.3824C75.9937 87.138 78.1979 85.7822 80.7214 85.9093C82.9729 86.0226 84.745 87.138 85.9622 88.3824C87.2348 89.6267 87.871 91.1821 87.871 93.0486C87.871 94.9151 87.2348 96.4989 85.9622 97.7998C84.745 99.0441 82.9729 100.159 80.7214 100.273Z" fill="#0A00D8"/>
</svg>
