<svg width="101" height="101" viewBox="0 0 101 101" fill="none" xmlns="http://www.w3.org/2000/svg">
<path d="M26.6985 49.3522L35.1913 57.851L44.3945 48.6411L44.2753 100.784H56.2859L56.4051 48.6412L66.0041 58.2471L74.4969 49.7483L50.9943 25.039L26.6985 49.3522Z" fill="#0A00D8"/>
<path fill-rule="evenodd" clip-rule="evenodd" d="M16.0278 12.9115C14.3899 12.9115 13.0621 14.2392 13.0621 15.8771V35.7168C13.0621 37.3547 11.7344 38.6824 10.0964 38.6824H3.9066C2.2687 38.6824 0.940918 37.3547 0.940918 35.7168V9.87957C0.940918 4.85619 5.01106 0.783936 10.0318 0.783936H91.85C96.8708 0.783936 100.941 4.85619 100.941 9.87957V35.7168C100.941 37.3547 99.6131 38.6824 97.9752 38.6824H91.7854C90.1475 38.6824 88.8197 37.3547 88.8197 35.7168V15.8771C88.8197 14.2392 87.4919 12.9115 85.854 12.9115H16.0278Z" fill="#0A00D8"/>
</svg>
