<svg width="101" height="101" viewBox="0 0 101 101" fill="none" xmlns="http://www.w3.org/2000/svg">
<path d="M61.5077 1.94001C63.2766 2.32767 64.1761 4.25093 63.4575 5.9131L60.9941 11.6116C60.409 12.9651 58.932 13.6828 57.4805 13.4232C55.2975 13.0328 53.0499 12.8291 50.7546 12.8291C29.7944 12.8291 12.8028 29.8207 12.8028 50.7809C12.8028 71.7411 29.7944 88.7327 50.7546 88.7327C71.7148 88.7327 88.7064 71.7411 88.7064 50.7809C88.7064 48.8436 88.5613 46.9403 88.2813 45.0812C88.0599 43.6113 88.8322 42.144 90.2177 41.6056L95.9893 39.3625C97.6683 38.7099 99.5484 39.6669 99.883 41.4369C100.455 44.4639 100.755 47.5875 100.755 50.7809C100.755 78.3951 78.3689 100.781 50.7546 100.781C23.1404 100.781 0.754639 78.3951 0.754639 50.7809C0.754639 23.1666 23.1404 0.780884 50.7546 0.780884C54.4461 0.780884 58.0441 1.18092 61.5077 1.94001Z" fill="#0A00D8"/>
<path d="M81.9816 29.2059C82.8179 30.414 84.3611 30.9556 85.7307 30.4233L91.522 28.1725C93.214 27.5149 93.9496 25.5164 92.9754 23.9846C89.2871 18.1854 84.4369 13.1975 78.7524 9.34868C77.2572 8.33635 75.2485 9.00074 74.532 10.6581L72.0731 16.3462C71.4853 17.7061 71.9819 19.2813 73.1766 20.1575C76.5903 22.6612 79.5699 25.722 81.9816 29.2059Z" fill="#0A00D8"/>
<path d="M31.4357 64.7422C30.6929 65.4786 30.6876 66.6776 31.424 67.4204L34.0905 70.1104C34.8268 70.8532 36.0259 70.8584 36.7687 70.1221L69.6711 37.4324C70.4139 36.6961 70.4191 35.497 69.6828 34.7542L67.0163 32.0643C66.2799 31.3215 65.0808 31.3163 64.338 32.0526L31.4357 64.7422Z" fill="#0A00D8"/>
<path fill-rule="evenodd" clip-rule="evenodd" d="M30.2727 39.9375C30.2727 34.947 34.3183 30.9014 39.3089 30.9014C44.2994 30.9014 48.345 34.947 48.345 39.9375C48.345 44.928 44.2994 48.9737 39.3089 48.9737C34.3183 48.9737 30.2727 44.928 30.2727 39.9375ZM39.3089 36.9255C37.6453 36.9255 36.2968 38.274 36.2968 39.9375C36.2968 41.601 37.6453 42.9496 39.3089 42.9496C40.9724 42.9496 42.3209 41.601 42.3209 39.9375C42.3209 38.274 40.9724 36.9255 39.3089 36.9255Z" fill="#0A00D8"/>
<path fill-rule="evenodd" clip-rule="evenodd" d="M61.598 53.1905C56.6075 53.1905 52.5619 57.2361 52.5619 62.2267C52.5619 67.2172 56.6075 71.2628 61.598 71.2628C66.5885 71.2628 70.6342 67.2172 70.6342 62.2267C70.6342 57.2361 66.5885 53.1905 61.598 53.1905ZM58.586 62.2267C58.586 60.5632 59.9345 59.2146 61.598 59.2146C63.2615 59.2146 64.6101 60.5632 64.6101 62.2267C64.6101 63.8902 63.2615 65.2387 61.598 65.2387C59.9345 65.2387 58.586 63.8902 58.586 62.2267Z" fill="#0A00D8"/>
</svg>
