<svg width="101" height="101" viewBox="0 0 101 101" fill="none" xmlns="http://www.w3.org/2000/svg">
<path fill-rule="evenodd" clip-rule="evenodd" d="M61.9287 32.6789L51.0367 51.3586L40.1447 32.6789L32.5391 36.851L46.0602 59.9874L48.1259 63.5907C48.5954 64.7282 49.7221 65.4868 51.0367 65.4868C52.0696 65.4868 53.0085 65.0126 53.5719 64.1595H53.6658L69.6285 36.851L61.9287 32.6789ZM74.7929 32.4892V40.9283H92.1635V44.8159H81.741V53.255H92.1635V57.1427H74.7929V65.582H100.99V32.4892H74.7929ZM27.1869 57.0479H9.81606V40.9283H27.1869V32.4892H0.989746V65.4868H27.1869V57.0479Z" fill="#0A00D8"/>
<path fill-rule="evenodd" clip-rule="evenodd" d="M23.7308 23.1128L49.9436 13.7733C50.6201 13.5322 51.3585 13.535 52.0333 13.781L77.6277 23.1128L79.9131 25.3337H93.2806L86.3763 15.2783C86.0252 14.7669 85.5311 14.3726 84.9571 14.1455L52.1049 1.14886C51.3873 0.864938 50.5906 0.860457 49.8698 1.13628L15.9926 14.1006C15.3277 14.355 14.7695 14.832 14.4113 15.4517L8.69898 25.3337H22.0664L23.7308 23.1128Z" fill="#0A00D8"/>
<path fill-rule="evenodd" clip-rule="evenodd" d="M23.7308 78.7525L49.9436 88.0919C50.6201 88.333 51.3585 88.3303 52.0333 88.0842L77.6277 78.7525L82.3976 71.5184H95.7651L86.3815 86.5029C86.0282 87.0671 85.5056 87.5028 84.8897 87.7464L52.1049 100.716C51.3873 101 50.5906 101.005 49.8698 100.729L16.0251 87.7771C15.3404 87.5151 14.7696 87.0174 14.4133 86.3719L6.21451 71.5184H19.582L23.7308 78.7525Z" fill="#0A00D8"/>
</svg>
