<svg width="101" height="101" viewBox="0 0 101 101" fill="none" xmlns="http://www.w3.org/2000/svg">
<path fill-rule="evenodd" clip-rule="evenodd" d="M67.8365 3.19441C67.8365 1.5359 66.4796 0.191406 64.8058 0.191406H12.3586C5.66327 0.191406 0.235596 5.56936 0.235596 12.2034V88.1794C0.235596 94.8134 5.66327 100.191 12.3586 100.191H64.8058C66.4796 100.191 67.8365 98.8469 67.8365 97.1884V73.4553L95.8929 86.8039C97.9049 87.7612 100.236 86.3083 100.236 84.0968V15.9629C100.236 13.7808 97.9611 12.3272 95.9549 13.2271L67.8365 25.8403V3.19441ZM55.7135 88.1794H12.3586L12.3586 12.2034L55.7135 12.2034V88.1794ZM68.2518 38.8397L88.1125 29.9307V69.7771L68.2518 60.3278V38.8397Z" fill="#0A00D8"/>
</svg>
