<svg width="100" height="100" viewBox="0 0 100 100" fill="none" xmlns="http://www.w3.org/2000/svg">
<path d="M62.3762 67.592C63.6964 68.3542 63.6964 70.2597 62.3762 71.0218L44.5545 81.3112C43.2343 82.0734 41.5842 81.1207 41.5842 79.5963V59.0175C41.5842 57.4932 43.2343 56.5404 44.5545 57.3026L62.3762 67.592Z" fill="#0A00D8"/>
<path fill-rule="evenodd" clip-rule="evenodd" d="M49.505 50.495C38.7743 50.495 24.8914 51.3005 16.26 51.8841C14.4467 52.0067 13.0847 53.3604 12.9125 55.0497C12.4002 60.0751 11.8812 64.5217 11.8812 69.802C11.8812 74.9355 12.3723 78.9237 12.8702 83.6261C13.0442 85.2696 14.3774 86.6023 16.1824 86.7245C24.8073 87.3085 38.7416 88.1188 49.505 88.1188C60.3775 88.1188 74.8991 87.2922 83.7992 86.7069C85.6176 86.5873 86.9585 85.2459 87.1324 83.6015C87.6295 78.9026 88.1188 74.9263 88.1188 69.802C88.1188 64.5305 87.6015 60.0963 87.09 55.0742C86.9178 53.3836 85.5486 52.0219 83.7223 51.9019C74.8149 51.3169 60.3459 50.495 49.505 50.495ZM15.4585 40.03C24.1167 39.4446 38.3428 38.6139 49.505 38.6139C60.7703 38.6139 75.5794 39.4603 84.501 40.0463C91.9831 40.5377 98.137 46.2805 98.9101 53.8703C99.4326 59.0005 100 63.9147 100 69.802C100 75.5487 99.4599 80.009 98.9477 84.8513C98.148 92.4121 91.9971 98.0746 84.5789 98.5625C75.6651 99.1487 60.8027 100 49.505 100C38.3093 100 24.031 99.1643 15.3798 98.5785C7.97241 98.077 1.8532 92.4157 1.05503 84.8771C0.541997 80.0316 0 75.5587 0 69.802C0 63.9052 0.569256 58.978 1.09254 53.8448C1.86404 46.2767 7.98762 40.5351 15.4585 40.03Z" fill="#0A00D8"/>
<path fill-rule="evenodd" clip-rule="evenodd" d="M27.109 10.8371C27.109 16.8401 22.2773 21.6743 16.2773 21.6743C10.2773 21.6743 5.44548 16.8401 5.44548 10.8371C5.44548 4.83419 10.2773 0 16.2773 0C22.2773 0 27.109 4.83419 27.109 10.8371ZM16.1976 16.3879C19.2831 16.3879 21.7843 13.8925 21.7843 10.8142C21.7843 7.73591 19.2831 5.24047 16.1976 5.24047C13.1122 5.24047 10.6109 7.73591 10.6109 10.8142C10.6109 13.8925 13.1122 16.3879 16.1976 16.3879Z" fill="#0A00D8"/>
<path d="M24.7413 33.5035C24.6025 32.9377 24.4355 32.4891 24.2426 32.1263C23.6345 30.9827 22.2614 29.753 16.3116 29.703C10.333 29.6527 8.79327 30.8953 8.10033 32.1184C7.634 32.9415 7.29616 34.1873 7.11497 36.1769C7.11397 36.1879 7.11297 36.1988 7.11198 36.2098C4.82021 37.3214 2.74998 38.8288 0.998076 40.6525C1.01386 38.8422 1.06059 37.1563 1.19886 35.6381C1.40801 33.3416 1.84802 31.1027 2.93161 29.19C5.33852 24.9417 9.98694 23.709 16.3615 23.7626C22.6464 23.8154 27.2138 25.0609 29.4877 29.3372C30.1182 30.5228 30.5019 31.8301 30.7421 33.1928C28.6856 33.2902 26.6712 33.3956 24.7413 33.5035Z" fill="#0A00D8"/>
<path d="M58.6992 32.8189C58.6081 32.5577 58.5086 32.3286 58.401 32.1263C57.7929 30.9827 56.4198 29.753 50.47 29.703C44.4914 29.6527 42.9517 30.8953 42.2587 32.1184C42.1486 32.3127 42.0457 32.5306 41.9503 32.7764C39.8976 32.8279 37.8122 32.8965 35.7351 32.9771C36.0109 31.6345 36.4317 30.352 37.09 29.19C39.4969 24.9417 44.1454 23.709 50.52 23.7626C56.8048 23.8154 61.3722 25.0609 63.6461 29.3372C64.2521 30.4767 64.6301 31.7286 64.8719 33.0341C62.8126 32.9506 60.7416 32.8772 58.6992 32.8189Z" fill="#0A00D8"/>
<path d="M92.8773 36.2269C92.7128 34.5461 92.4285 33.373 92.0167 32.5278C91.6034 31.6794 91.0205 31.0697 89.9733 30.6058C88.8147 30.0927 87.004 29.7271 84.1334 29.703C78.1548 29.6527 76.6151 30.8953 75.9221 32.1184C75.7091 32.4943 75.5229 32.9585 75.3662 33.5414C73.4318 33.4345 71.4114 33.3296 69.3481 33.2316C69.6222 31.7966 70.0536 30.4253 70.7534 29.19C73.1603 24.9417 77.8087 23.709 84.1833 23.7626C87.43 23.7899 90.1631 24.1926 92.3792 25.1742C94.7067 26.2052 96.3295 27.8167 97.3571 29.9257C98.3271 31.9166 98.6994 34.2148 98.8664 36.561C98.957 37.8332 98.9915 39.2156 99.0042 40.677C97.2484 38.8493 95.1735 37.3395 92.8773 36.2269Z" fill="#0A00D8"/>
<path fill-rule="evenodd" clip-rule="evenodd" d="M61.2674 10.8371C61.2674 16.8401 56.4357 21.6743 50.4357 21.6743C44.4357 21.6743 39.6039 16.8401 39.6039 10.8371C39.6039 4.83419 44.4357 0 50.4357 0C56.4357 0 61.2674 4.83419 61.2674 10.8371ZM50.356 16.3879C53.4415 16.3879 55.9427 13.8925 55.9427 10.8142C55.9427 7.73591 53.4415 5.24047 50.356 5.24047C47.2706 5.24047 44.7693 7.73591 44.7693 10.8142C44.7693 13.8925 47.2706 16.3879 50.356 16.3879Z" fill="#0A00D8"/>
<path fill-rule="evenodd" clip-rule="evenodd" d="M94.9308 10.8371C94.9308 16.8401 90.099 21.6743 84.0991 21.6743C78.0991 21.6743 73.2673 16.8401 73.2673 10.8371C73.2673 4.83419 78.0991 0 84.0991 0C90.099 0 94.9308 4.83419 94.9308 10.8371ZM84.0194 16.3879C87.1049 16.3879 89.6061 13.8925 89.6061 10.8142C89.6061 7.73591 87.1049 5.24047 84.0194 5.24047C80.934 5.24047 78.4327 7.73591 78.4327 10.8142C78.4327 13.8925 80.934 16.3879 84.0194 16.3879Z" fill="#0A00D8"/>
</svg>
