<svg width="91" height="101" viewBox="0 0 91 101" fill="none" xmlns="http://www.w3.org/2000/svg">
<path d="M51.9515 11.4167C51.9515 12.4598 52.4801 13.4328 53.3579 14.0057L76.9244 29.3847C77.8022 29.9575 78.3308 30.9306 78.3308 31.9736V60.1889C78.3308 61.3369 78.9702 62.3909 79.9923 62.9276L86.2327 66.2044C88.3107 67.2955 90.8115 65.7997 90.8115 63.4657V25.2891C90.8115 24.2461 90.2829 23.273 89.4051 22.7002L56.7853 1.41319C54.7105 0.0592066 51.9515 1.53693 51.9515 4.00215L51.9515 11.4167Z" fill="#0A00D8"/>
<path d="M44.1954 86.1633C45.16 86.721 46.3512 86.7246 47.3192 86.1727L69.9163 73.289C70.8449 72.7595 71.9821 72.7399 72.9287 73.237L79.4523 76.6625C81.6243 77.803 81.6781 80.873 79.5474 82.0878L47.2757 100.488C46.3077 101.039 45.1165 101.036 44.1519 100.478L11.3614 81.5204C9.24542 80.297 9.30825 77.241 11.4727 76.1044L18.9868 72.1587L-nan -nanL-nan -nanL18.9868 72.1587C19.308 71.9901 19.6941 71.9979 20.0081 72.1795L44.1954 86.1633Z" fill="#0A00D8"/>
<path d="M46.647 65.4068H52.1606V36.1583H46.647V65.4068Z" fill="#0A00D8"/>
<path d="M52.1606 36.1583H46.647L57.1278 65.1734L63.488 65.1753L52.1606 36.1583Z" fill="#0A00D8"/>
<path d="M73.9688 65.6402H68.4552V36.3918H73.9688V65.6402Z" fill="#0A00D8"/>
<path d="M68.4552 36.3918H73.9688L63.488 65.1753L57.1278 65.1734L68.4552 36.3918Z" fill="#0A00D8"/>
<path d="M28.1156 65.1734L33.8265 65.1753L43.9975 36.1583H38.2866L30.9708 57.0283L23.6555 36.1583H17.9445L28.1156 65.1734Z" fill="#0A00D8"/>
<path d="M39.6716 11.4167C39.6716 12.4598 39.143 13.4328 38.2651 14.0057L14.6987 29.3847C13.8208 29.9575 13.2922 30.9306 13.2922 31.9736V60.1889C13.2922 61.337 12.6528 62.3909 11.6307 62.9276L5.39037 66.2044C3.31238 67.2955 0.811523 65.7997 0.811523 63.4657V25.2891C0.811523 24.2461 1.34013 23.273 2.218 22.7002L34.8377 1.41319C36.9125 0.0592065 39.6716 1.53693 39.6716 4.00216L39.6716 11.4167Z" fill="#0A00D8"/>
</svg>
