<svg width="101" height="101" viewBox="0 0 101 101" fill="none" xmlns="http://www.w3.org/2000/svg">
<path fill-rule="evenodd" clip-rule="evenodd" d="M22.0492 78.6848L22.0497 78.6858L22.0502 78.687C27.9509 91.2569 31.8284 99.517 59.883 100.052C61.5302 100.084 62.8716 98.7318 62.8822 97.0618L63.1204 59.5594C66.0177 57.3415 67.8902 53.8209 67.8902 49.8571C67.8902 45.9494 66.0704 42.4726 63.2431 40.2499L63.4793 3.0627C63.49 1.37746 62.1352 -0.000620807 60.4736 0.0543223C37.3745 0.818093 30.5175 10.4486 22.2537 22.055L22.2514 22.0583C21.8499 22.6222 21.445 23.1908 21.0348 23.7633C11.811 24.714 0.254266 29.8389 0.254272 49.5534C0.254278 68.9796 11.4754 74.453 20.6286 75.6862C21.1224 76.7105 21.5919 77.7106 22.0492 78.6848ZM47.816 14.3234C45.3174 15.2198 43.479 16.3119 41.996 17.4366C38.7032 19.9337 36.343 23.0786 32.7403 28.1019C32.5128 28.4192 32.3493 28.7768 32.2567 29.1534V71.9847C32.3068 72.1889 32.3779 72.388 32.4691 72.5785C32.7001 73.0615 32.9196 73.5215 33.1288 73.9599C35.8484 79.659 36.834 81.7245 38.9837 83.5069C40.2383 84.5472 42.5621 85.8986 47.6434 86.8323C49.4008 87.1552 50.9672 85.7438 50.9787 83.9334L51.4032 17.0947C51.4156 15.1453 49.6289 13.673 47.816 14.3234ZM20.1811 36.1757L20.1811 63.258C19.27 63.0285 18.3917 62.7212 17.5855 62.3184C16.1734 61.6128 15.0484 60.6511 14.1828 59.1533C13.2814 57.5936 12.241 54.7151 12.241 49.5534C12.241 44.3748 13.2878 41.5487 14.1595 40.0618C14.9903 38.6446 16.0647 37.7459 17.441 37.0881C18.287 36.6837 19.2162 36.3868 20.1811 36.1757Z" fill="#0A00D8"/>
<path d="M86.9149 34.4381C89.0448 39.4097 90.166 44.7765 90.1989 50.2174C90.2223 54.0904 89.694 57.9327 88.641 61.6281C88.2148 63.1242 87.7025 64.5962 87.1061 66.0364C87.0263 66.2291 86.9653 66.4263 86.9225 66.6251C86.6221 68.022 87.221 69.505 88.5108 70.1739L92.1263 72.0491C93.5996 72.8133 95.4141 72.2253 96.0779 70.6885C96.1794 70.4534 96.2791 70.2177 96.377 69.9813C97.1361 68.1484 97.7863 66.2745 98.3254 64.3696C99.6287 59.7646 100.283 54.9787 100.253 50.1549C100.229 46.1742 99.7404 42.2251 98.8066 38.3878C98.0803 35.4033 97.0849 32.4864 95.8297 29.6748C95.1473 28.1464 93.3259 27.581 91.8619 28.3634L88.2694 30.2835C86.8054 31.0659 86.2556 32.8994 86.9149 34.4381Z" fill="#0A00D8"/>
<path d="M73.7783 47.4308C73.8715 48.255 73.9174 49.0861 73.915 49.9201C73.9126 50.7541 73.8618 51.5849 73.7638 52.4085C73.581 53.9432 73.2341 55.4526 72.7293 56.9102C72.6226 57.2184 72.5574 57.536 72.5325 57.8534C72.4293 59.1659 73.0145 60.4743 74.1966 61.0984L77.3579 62.7676C78.8257 63.5427 80.6504 62.969 81.2676 61.4124C81.4372 60.9847 81.5973 60.5535 81.7477 60.1191C82.4788 58.0077 82.9825 55.8215 83.2492 53.5987C83.3942 52.3908 83.4692 51.1721 83.4728 49.9488C83.4764 48.7255 83.4085 47.5063 83.2706 46.2976C83.0168 44.0733 82.526 41.884 81.8072 39.7683C81.6593 39.333 81.5018 38.9008 81.3346 38.4721C80.7265 36.9118 78.9052 36.3273 77.4329 37.0935L74.2619 38.7437C73.0762 39.3607 72.4834 40.6656 72.5789 41.9787C72.6019 42.2962 72.6653 42.6141 72.7702 42.923C73.2664 44.3836 73.6046 45.8951 73.7783 47.4308Z" fill="#0A00D8"/>
</svg>
