<svg width="101" height="101" viewBox="0 0 101 101" fill="none" xmlns="http://www.w3.org/2000/svg">
<path d="M89.0813 15.1633C88.8296 15.606 88.6973 16.1065 88.6973 16.6156V42.9479C88.6973 43.7308 88.3907 44.4826 87.8433 45.042L52.8203 80.83C51.6401 82.036 49.6973 82.0276 48.5275 80.8115L14.6929 45.6372C14.1565 45.0795 13.8568 44.3356 13.8568 43.5616V16.7037C13.8568 16.139 13.6941 15.5863 13.3882 15.1117L3.71255 0.0989729C2.0604 0.0989736 0.721069 1.43908 0.721069 3.09218V49.6965C0.721069 50.4865 1.03324 51.2446 1.58952 51.8052L48.5419 99.1299C49.7117 100.309 51.6173 100.309 52.7874 99.1305L99.7674 51.8053C100.324 51.2446 100.636 50.4863 100.636 49.696V3.09214C100.636 1.43904 99.2972 0.098938 97.645 0.098938L89.0813 15.1633Z" fill="#0A00D8"/>
<path d="M75.708 0.098938C74.6185 0.098938 73.6184 0.701728 73.1095 1.66512L54.6496 36.614C53.5415 38.7119 50.5625 38.7786 49.3617 36.7324L28.7162 1.55032C28.1885 0.651223 27.2241 0.098938 26.1816 0.098938H16.1893C13.9086 0.098938 12.4972 2.58386 13.6653 4.5427L49.041 63.8682C50.4911 66.0892 53.7383 66.093 55.1935 63.8754L88.4952 4.47471C89.5934 2.51582 88.1776 0.098938 85.9319 0.098938H75.708Z" fill="#0A00D8"/>
</svg>
