<svg width="101" height="101" viewBox="0 0 101 101" fill="none" xmlns="http://www.w3.org/2000/svg">
<path d="M47.4601 64.8889C47.4925 65.1955 47.7497 65.4282 48.0563 65.4282H53.1574C53.4641 65.4282 53.7213 65.1955 53.7536 64.8889L55.8401 45.1114C55.8776 44.7553 55.6 44.445 55.2439 44.445H45.9699C45.6137 44.445 45.3361 44.7553 45.3737 45.1114L47.4601 64.8889Z" fill="#0A00D8"/>
<path d="M45.1189 74.9188C45.1189 77.7397 47.4248 80.0147 50.284 80.0147C53.1433 80.0147 55.4492 77.7397 55.4492 74.9188C55.4492 72.0979 53.1433 69.8229 50.284 69.8229C47.4248 69.732 45.1189 72.0979 45.1189 74.9188Z" fill="#0A00D8"/>
<path fill-rule="evenodd" clip-rule="evenodd" d="M47.2742 2.19129C48.3658 -0.0298181 51.5079 -0.0518093 52.6302 2.1538L100.444 96.125C101.464 98.1308 100.016 100.512 97.775 100.512H3.77806C1.55576 100.512 0.106094 98.1659 1.0907 96.1625L47.2742 2.19129ZM18.2536 88.4549L50.1009 23.6541L83.0721 88.4549H18.2536Z" fill="#0A00D8"/>
</svg>
