<svg width="101" height="101" viewBox="0 0 101 101" fill="none" xmlns="http://www.w3.org/2000/svg">
<path fill-rule="evenodd" clip-rule="evenodd" d="M50.926 88.6649C71.9261 88.6649 88.95 71.641 88.95 50.641C88.95 29.6409 71.9261 12.617 50.926 12.617C29.926 12.617 12.9021 29.6409 12.9021 50.641C12.9021 71.641 29.926 88.6649 50.926 88.6649ZM50.926 100.641C78.5403 100.641 100.926 78.2552 100.926 50.641C100.926 23.0268 78.5403 0.640991 50.926 0.640991C23.3118 0.640991 0.926025 23.0268 0.926025 50.641C0.926025 78.2552 23.3118 100.641 50.926 100.641Z" fill="#0A00D8"/>
<path d="M47.3815 55.3254C46.768 55.3254 46.2537 54.8618 46.1903 54.2515L43.2456 25.9145C43.1722 25.2079 43.7264 24.5931 44.4368 24.5931H57.0825C57.7929 24.5931 58.3472 25.2079 58.2737 25.9145L55.329 54.2516C55.2656 54.8618 54.7513 55.3254 54.1378 55.3254H47.3815Z" fill="#0A00D8"/>
<path d="M50.2939 76.6889C46.1689 76.6889 42.8422 73.357 42.8422 69.2255C42.8422 65.0939 46.1689 61.6288 50.2939 61.762C54.419 61.762 57.7457 65.0939 57.7457 69.2255C57.7457 73.357 54.419 76.6889 50.2939 76.6889Z" fill="#0A00D8"/>
</svg>
