<svg width="100" height="100" viewBox="0 0 100 100" fill="none" xmlns="http://www.w3.org/2000/svg">
<path fill-rule="evenodd" clip-rule="evenodd" d="M71.9254 45.433C72.0163 46.5338 72.9029 47.4315 74.0075 47.4315H98C99.1046 47.4315 100.004 46.5357 99.9638 45.4318C99.2382 25.4416 87.68 8.3148 71.1324 0.296133C70.1229 -0.193011 68.9258 0.297494 68.502 1.33603L59.0837 24.4149C58.6715 25.4249 59.1503 26.5709 60.1101 27.0894C66.6373 30.6155 71.262 37.4038 71.9254 45.433ZM50.0471 70.2972C44.836 70.2972 40.0606 68.4077 36.294 65.2252C35.4304 64.4955 34.1328 64.4987 33.3535 65.3178L16.4117 83.1268C15.669 83.9076 15.6757 85.1398 16.4586 85.8804C25.3547 94.2957 37.0628 99.3452 50.0471 99.3452C63.2256 99.3452 75.2107 94.018 84.1361 85.3899C84.905 84.6466 84.9051 83.4257 84.168 82.6508L67.2457 64.8627C66.4537 64.0302 65.1296 64.042 64.2703 64.8047C60.3965 68.243 55.441 70.2972 50.0471 70.2972ZM39.8668 27.0826C40.8359 26.5665 41.3254 25.4143 40.9118 24.3972L31.4981 1.24494C31.0747 0.203542 29.8742 -0.287905 28.8635 0.204475C12.3992 8.22589 0.767052 25.3489 0.036493 45.3338C-0.00385833 46.4376 0.895431 47.3335 2 47.3335H25.9924C27.097 47.3335 27.9836 46.4358 28.0761 45.3351C28.744 37.3849 33.3566 30.5496 39.8668 27.0826ZM50.1414 59.6005C56.5504 59.6005 61.8284 54.2029 61.8284 47.4315C61.8284 40.7583 56.6447 35.2627 50.1414 35.2627C43.7323 35.2627 38.4543 40.6602 38.4543 47.4315C38.4543 54.2029 43.7323 59.6005 50.1414 59.6005Z" fill="#0A00D8"/>
</svg>
