<svg width="101" height="101" viewBox="0 0 101 101" fill="none" xmlns="http://www.w3.org/2000/svg">
<path fill-rule="evenodd" clip-rule="evenodd" d="M55.6444 41.226L43.3226 88.9066L36.8725 90.102L50.4703 39.7231L55.6444 41.226Z" fill="#0A00D8"/>
<path fill-rule="evenodd" clip-rule="evenodd" d="M26.69 26.3513C27.9787 26.3513 29.0873 27.2503 29.3362 28.4971L43.4523 87.3921C43.7803 89.0355 42.5046 90.5652 40.8061 90.5652H35.8442C34.5743 90.5652 33.4765 89.6916 33.2081 88.4676L18.1175 29.5726C17.7543 27.9158 19.0346 26.3513 20.7536 26.3513H26.69Z" fill="#0A00D8"/>
<path fill-rule="evenodd" clip-rule="evenodd" d="M51.1163 26.3513C52.3773 26.3513 53.47 27.2129 53.7473 28.4259L67.1233 87.3209C67.5035 88.9839 66.2211 90.5652 64.4924 90.5652H57.774C56.5093 90.5652 55.4145 89.6985 55.1409 88.4809L41.9639 29.586C41.5908 27.9255 42.8723 26.3513 44.597 26.3513H51.1163Z" fill="#0A00D8"/>
<path d="M78.2531 19.4253C81.7941 22.3688 86.6301 28.2005 82.5584 42.2947C82.5584 42.2947 78.0225 45.8682 75.1161 48.1579C75.7221 40.7867 72.6305 36.501 70.3077 32.8178C68.0462 29.2319 66.1761 26.7364 68.2755 21.4194C69.2025 19.0716 74.7121 16.4817 78.2531 19.4253Z" fill="#0A00D8"/>
<path fill-rule="evenodd" clip-rule="evenodd" d="M82.5584 42.2947L67.0757 88.7681L62.9441 87.3926C62.9441 87.3926 70.8165 60.6967 75.1161 48.1579C78.0225 45.8682 82.5584 42.2947 82.5584 42.2947Z" fill="#0A00D8"/>
<path d="M14.0493 25.1448C14.0493 24.7047 14.4111 24.3479 14.8573 24.3479H32.771C33.2173 24.3479 33.579 24.7047 33.579 25.1448V28.2005C33.579 28.6406 33.2173 28.9974 32.771 28.9974H14.8573C14.4111 28.9974 14.0493 28.6406 14.0493 28.2005V25.1448Z" fill="#0A00D8"/>
<path d="M38.0489 25.1448C38.0489 24.7047 38.4107 24.3479 38.8569 24.3479H56.7706C57.2169 24.3479 57.5786 24.7047 57.5786 25.1448V28.2005C57.5786 28.6406 57.2169 28.9974 56.7706 28.9974H38.8569C38.4107 28.9974 38.0489 28.6406 38.0489 28.2005V25.1448Z" fill="#0A00D8"/>
<path fill-rule="evenodd" clip-rule="evenodd" d="M50.2769 88.17C71.2769 88.17 88.3008 71.146 88.3008 50.146C88.3008 29.1459 71.2769 12.122 50.2769 12.122C29.2768 12.122 12.2529 29.1459 12.2529 50.146C12.2529 71.146 29.2768 88.17 50.2769 88.17ZM50.2769 100.146C77.8911 100.146 100.277 77.7602 100.277 50.146C100.277 22.5318 77.8911 0.145996 50.2769 0.145996C22.6626 0.145996 0.276855 22.5318 0.276855 50.146C0.276855 77.7602 22.6626 100.146 50.2769 100.146Z" fill="#0A00D8"/>
</svg>
