<svg width="101" height="101" viewBox="0 0 101 101" fill="none" xmlns="http://www.w3.org/2000/svg">
<path d="M66.6718 13.0436C64.3655 10.7618 60.6262 10.7618 58.3199 13.0436C56.0136 15.3254 56.0136 19.025 58.3199 21.3068L83.2134 45.9359C85.3927 48.0921 87.7607 51.9625 88.4599 56.1984C89.1133 60.1572 88.3392 64.3818 84.3945 68.2846C80.916 71.7262 77.2712 73.2072 73.8331 73.2306C70.406 73.2539 66.3666 71.8328 62.0947 67.9278C58.1784 64.0537 52.4269 58.4095 46.7656 52.8544L46.4143 52.5098C40.8285 47.0288 35.3702 41.6729 31.8588 38.1988C29.5525 35.9169 25.8132 35.9169 23.5069 38.1988C21.2006 40.4806 21.2006 44.1802 23.5069 46.462C27.0374 49.955 32.5125 55.3274 38.0873 60.7976L38.4483 61.1517C44.1548 66.7511 49.9254 72.4142 53.8218 76.2691L53.8973 76.3438L53.9754 76.4158C59.981 81.9427 66.8345 84.9643 73.9143 84.9162C81.0031 84.868 87.492 81.7465 92.7464 76.5478C99.7111 69.6572 101.303 61.5011 100.117 54.3149C98.9765 47.4059 95.2993 41.367 91.5653 37.6727L66.6718 13.0436Z" fill="#0A00D8"/>
<path d="M34.2774 86.3103C36.5837 88.5921 40.323 88.5921 42.6293 86.3103C44.9356 84.0285 44.9356 80.3289 42.6293 78.0471L17.7358 53.418C15.5565 51.2618 13.1885 47.3914 12.4893 43.1555C11.8359 39.1967 12.61 34.9721 16.5547 31.0693C20.0332 27.6277 23.6781 26.1467 27.1161 26.1234C30.5433 26.1001 34.5826 27.5212 38.8545 31.4261C42.7708 35.3002 48.5223 40.9444 54.1837 46.4995L54.5306 46.8399L54.5313 46.8406C60.1183 52.3228 65.5783 57.6803 69.0904 61.1552C71.3968 63.437 75.136 63.437 77.4423 61.1552C79.7487 58.8733 79.7487 55.1738 77.4423 52.8919C73.9118 49.3989 68.4367 44.0265 62.8619 38.5564L62.501 38.2022C56.7944 32.6028 51.0238 26.9398 47.1275 23.0848L47.052 23.0101L46.9738 22.9381C40.9682 17.4112 34.1147 14.3896 27.035 14.4377C19.9462 14.4859 13.4572 17.6074 8.20278 22.8061C1.23818 29.6967 -0.353784 37.8528 0.832354 45.039C1.97276 51.948 5.64995 57.9869 9.38395 61.6812L34.2774 86.3103Z" fill="#0A00D8"/>
<path d="M54.7357 98.4119C52.4309 100.692 48.6808 100.679 46.3596 98.3826C44.0384 96.0861 44.0251 92.3758 46.33 90.0955C48.6348 87.8151 52.3849 87.8282 54.7061 90.1247C57.0273 92.4213 57.0405 96.1316 54.7357 98.4119Z" fill="#0A00D8"/>
<path d="M46.1409 10.0882C48.4472 12.37 52.1864 12.37 54.4928 10.0882C56.7991 7.8064 56.7991 4.10684 54.4928 1.82501C52.1864 -0.456808 48.4472 -0.456808 46.1409 1.82501C43.8345 4.10684 43.8345 7.8064 46.1409 10.0882Z" fill="#0A00D8"/>
</svg>
