<svg width="101" height="101" viewBox="0 0 101 101" fill="none" xmlns="http://www.w3.org/2000/svg">
<path d="M71.7315 73.1736C68.6216 72.8732 65.0782 71.3599 61.3566 67.9278C57.4748 64.0537 51.7739 58.4095 46.1624 52.8544L45.8143 52.5098C40.2777 47.0288 34.8674 41.6729 31.3869 38.1988C29.1009 35.9169 25.3945 35.9169 23.1085 38.1988C20.8225 40.4806 20.8225 44.1802 23.1085 46.462C26.608 49.955 32.0349 55.3274 37.5606 60.7976L37.9184 61.1517C43.5746 66.7512 49.2945 72.4142 53.1565 76.2691L53.2313 76.3438L53.3088 76.4158C57.2955 80.1173 61.6591 82.6951 66.2146 83.9797L71.7315 73.1736Z" fill="#0A00D8"/>
<path d="M86.4818 33.5943L65.8934 13.0436C63.6074 10.7618 59.9011 10.7618 57.615 13.0436C55.329 15.3254 55.329 19.025 57.615 21.3068L78.3274 41.9812L86.4818 33.5943Z" fill="#0A00D8"/>
<path d="M72.0702 48.4169C69.1061 45.4752 65.6316 42.0356 62.117 38.5564L61.7593 38.2022C56.103 32.6028 50.3832 26.9398 46.5212 23.0848L46.4463 23.0101L46.3688 22.9381C40.4161 17.4112 33.623 14.3896 26.6056 14.4377C19.5792 14.4859 13.1474 17.6074 7.93918 22.8061C1.0359 29.6967 -0.542049 37.8528 0.633648 45.039C1.76401 51.948 5.40882 57.9869 9.10995 61.6812L33.7842 86.3103C36.0702 88.5921 39.7766 88.5921 42.0626 86.3103C44.3486 84.0285 44.3486 80.3289 42.0626 78.0471L17.3883 53.418C15.2282 51.2618 12.881 47.3914 12.188 43.1555C11.5403 39.1967 12.3076 34.9721 16.2175 31.0693C19.6654 27.6277 23.2782 26.1467 26.686 26.1234C30.083 26.1001 34.0867 27.5212 38.3211 31.4261C42.2028 35.3002 47.9037 40.9444 53.5152 46.4995L53.8591 46.8399L53.8597 46.8406L53.8607 46.8415L53.8621 46.8429C57.4261 50.3711 60.9378 53.8475 63.9162 56.8036L72.0702 48.4169Z" fill="#0A00D8"/>
<path d="M54.0624 98.4119C51.7779 100.692 48.0608 100.679 45.76 98.3826C43.4593 96.0861 43.4461 92.3758 45.7307 90.0955C48.0152 87.8151 51.7323 87.8282 54.0331 90.1247C56.3338 92.4213 56.3469 96.1316 54.0624 98.4119Z" fill="#0A00D8"/>
<path d="M53.8216 10.0882C51.5356 12.37 47.8292 12.37 45.5432 10.0882C43.2572 7.8064 43.2572 4.10684 45.5432 1.82502C47.8292 -0.456808 51.5356 -0.456808 53.8216 1.82502C56.1076 4.10684 56.1076 7.8064 53.8216 10.0882Z" fill="#0A00D8"/>
<path d="M67.5544 61.4514L97.3758 30.7792C98.3114 29.8169 99.869 30.9289 99.2591 32.1236L87.428 55.2973C87.1345 55.8723 87.3635 56.576 87.9396 56.8691L99.6397 62.8206C100.333 63.1732 100.495 64.0903 99.9646 64.6585L67.4419 99.4924C66.5167 100.483 64.9262 99.3721 65.5424 98.1651L79.617 70.5969C79.9105 70.0219 79.6815 69.3182 79.1054 69.0252L67.8629 63.3064C67.1609 62.9493 67.0056 62.0158 67.5544 61.4514Z" fill="#0A00D8"/>
</svg>
