<svg width="101" height="101" viewBox="0 0 101 101" fill="none" xmlns="http://www.w3.org/2000/svg">
<path d="M38.5766 40.4411C38.5766 39.1061 39.6548 38.0239 40.9849 38.0239H48.6625C49.9926 38.0239 51.0708 36.9417 51.0708 35.6067V27.9009C51.0708 26.5659 52.1491 25.4837 53.4792 25.4837H60.7042C62.0342 25.4837 63.1125 26.5659 63.1125 27.9009V35.6067C63.1125 36.9417 64.1907 38.0239 65.5208 38.0239H73.1984C74.5285 38.0239 75.6067 39.1061 75.6067 40.4411V47.6927C75.6067 49.0277 74.5285 50.1099 73.1984 50.1099H65.5208C64.1907 50.1099 63.1125 51.1921 63.1125 52.5271V60.2327C63.1125 61.5677 62.0342 62.6499 60.7042 62.6499H53.4792C52.1491 62.6499 51.0708 61.5677 51.0708 60.2327V52.5271C51.0708 51.1921 49.9926 50.1099 48.6625 50.1099H40.9849C39.6548 50.1099 38.5766 49.0277 38.5766 47.6927V40.4411Z" fill="#0A00D8"/>
<path fill-rule="evenodd" clip-rule="evenodd" d="M30.4021 79.5395C31.2504 78.72 32.5606 78.6427 33.5375 79.3023C40.3861 83.9265 48.6329 86.6251 57.5076 86.6251C81.2543 86.6251 100.505 67.3039 100.505 43.4699C100.505 19.6359 81.2543 0.314697 57.5076 0.314697C33.7609 0.314697 14.5105 19.6359 14.5105 43.4699C14.5105 52.5289 17.2915 60.9359 22.0434 67.8778C22.7363 68.8901 22.6374 70.2659 21.7557 71.1175L1.24311 90.9309C0.284736 91.8566 0.255506 93.3868 1.17782 94.3487L6.18779 99.5736C7.11011 100.536 8.6347 100.565 9.59307 99.6392L30.4021 79.5395ZM26.5521 43.4699C26.5521 60.629 40.4114 74.5392 57.5076 74.5392C74.6039 74.5392 88.4631 60.629 88.4631 43.4699C88.4631 26.3108 74.6039 12.4006 57.5076 12.4006C40.4114 12.4006 26.5521 26.3108 26.5521 43.4699Z" fill="#0A00D8"/>
</svg>
