<svg width="101" height="101" viewBox="0 0 101 101" fill="none" xmlns="http://www.w3.org/2000/svg">
<path d="M41.7648 38.1185C40.098 38.1185 38.7468 39.4747 38.7468 41.1476V47.2057C38.7468 48.8786 40.098 50.2347 41.7648 50.2347H72.8515C74.5183 50.2347 75.8695 48.8786 75.8695 47.2057V41.1476C75.8695 39.4747 74.5183 38.1185 72.8515 38.1185H41.7648Z" fill="#0A00D8"/>
<path fill-rule="evenodd" clip-rule="evenodd" d="M57.7251 86.8416C49.0115 86.8416 40.9017 84.2465 34.1212 79.7843C32.8873 78.9724 31.2465 79.0672 30.1834 80.094L10.1258 99.4682C8.92482 100.628 7.01432 100.591 5.85855 99.386L1.67313 95.021C0.517365 93.8156 0.553994 91.8981 1.75495 90.738L21.4961 71.6696C22.601 70.6024 22.7228 68.8794 21.8703 67.6001C17.2909 60.7282 14.6206 52.4662 14.6206 43.5781C14.6206 19.6844 33.9191 0.314697 57.7251 0.314697C81.5311 0.314697 100.83 19.6844 100.83 43.5781C100.83 67.4719 81.5311 86.8416 57.7251 86.8416ZM57.7251 74.7253C40.5862 74.7253 26.6923 60.7802 26.6923 43.5781C26.6923 26.376 40.5862 12.4309 57.7251 12.4309C74.8641 12.4309 88.758 26.376 88.758 43.5781C88.758 60.7802 74.8641 74.7253 57.7251 74.7253Z" fill="#0A00D8"/>
</svg>
